# https://github.com/mikedh/trimesh
v 0.02731954 -0.02243905 -0.02361770
v 0.02536436 0.02640921 -0.02366506
v -0.02938163 -0.02697997 -0.02371514
v -0.02900334 0.02465716 -0.02410085
v 0.05263601 0.01906383 -0.02363409
v -0.02150636 -0.05021989 -0.02318014
v -0.02058686 -0.05280186 -0.02270130
v -0.01997019 -0.05126919 -0.02302778
v -0.01900783 0.05271886 -0.02309664
v -0.05371645 0.02012094 -0.02316318
v -0.05433121 0.01758749 -0.02302464
v 0.05326431 0.02065061 -0.02330003
v 0.05486318 0.01878626 -0.02299645
v -0.02064268 0.05138582 -0.02326396
v -0.01882916 0.05142970 -0.02335513
v 0.05386551 0.01924732 -0.02346218
v 0.02046843 -0.04982030 -0.02266158
v 0.05193563 -0.01921363 -0.02278730
v 0.01713526 0.05242834 -0.02253546
v 0.05229087 -0.01725658 -0.02271283
v 0.02063561 0.05001631 -0.02276829
v 0.05140650 -0.01862153 -0.02299585
v 0.05665941 0.01949323 -0.02135859
v 0.01698027 -0.04972809 -0.02295798
v 0.01648847 0.05029240 -0.02291351
v -0.04983520 -0.02112439 -0.02244799
v -0.05238623 -0.01694492 -0.02251644
v -0.05325447 -0.02069997 -0.02209019
v 0.01848641 -0.05390842 -0.02214449
v -0.05413338 -0.01939357 -0.02203598
v 0.01972091 -0.05343273 -0.02215993
v 0.05327011 -0.01950970 -0.02197035
v 0.01807518 0.05362086 -0.02229784
v 0.01914408 0.05361068 -0.02215152
v 0.05657043 0.01703421 -0.02134535
v -0.05654568 0.03781290 -0.02008693
v -0.04474104 0.04949323 -0.02052222
v -0.06047875 0.03129651 -0.02052439
v -0.05801973 0.03621454 -0.02038008
v -0.04375743 0.05047683 -0.02040654
v -0.05949514 0.03129651 -0.02074572
v -0.05851154 0.03424732 -0.02063847
v -0.02654432 -0.05821170 -0.01964630
v -0.06047875 0.02688959 -0.01948250
v -0.03933121 0.05539486 -0.01965824
v -0.03256531 -0.05645644 -0.01918648
v 0.05573925 -0.03196723 -0.01923696
v 0.05484912 -0.03393622 -0.01924675
v 0.05571938 0.03160049 -0.01929827
v 0.05536072 0.03341037 -0.01896809
v -0.05064268 -0.03952317 -0.01926611
v -0.04173452 -0.04865134 -0.01918962
v 0.03178160 -0.05630959 -0.01923415
v -0.05654432 -0.03263792 -0.01917686
v -0.05425356 -0.03620618 -0.01915651
v 0.03147145 0.05604867 -0.01917634
v 0.03542289 0.05330619 -0.01928229
v 0.05447782 0.03416243 -0.01912580
v 0.04019333 0.04894822 -0.01919989
v -0.03709987 -0.05279414 -0.01922227
v -0.02860353 -0.05821170 -0.01924799
v 0.05315985 -0.03659377 -0.01924799
v -0.03588858 0.05785388 -0.01911627
v 0.03332685 0.05519075 -0.01899093
v 0.04622222 0.04289423 -0.01923847
v -0.03760989 0.05674732 -0.01950802
v -0.02506891 -0.05977818 -0.01924799
v 0.01034093 -0.05919530 -0.01948999
v -0.00957711 -0.05919530 -0.01985567
v 0.00250281 -0.05919530 -0.01983036
v -0.03723603 -0.05370105 -0.01864646
v -0.03447375 -0.05588513 -0.01875980
v -0.05736861 -0.03038696 -0.01863508
v -0.04843743 -0.04248140 -0.01875619
v 0.05458774 -0.03492597 -0.01904038
v 0.03911142 -0.05046579 -0.01914138
v 0.05532376 -0.03412716 -0.01870114
v 0.05588109 -0.03293400 -0.01851485
v 0.05646480 -0.03144517 -0.01841300
v 0.03225169 -0.05664667 -0.01872143
v 0.03320978 -0.05575268 -0.01919877
v 0.03433982 -0.05537601 -0.01875619
v 0.03483888 -0.05467686 -0.01911213
v 0.05661367 0.02994405 -0.01859106
v 0.05595905 0.03277191 -0.01863324
v 0.03135325 0.05652906 -0.01863417
v 0.03265483 0.05613588 -0.01866611
v 0.05398919 0.03555717 -0.01861590
v 0.04164650 0.04791670 -0.01875619
v -0.05567744 -0.03544101 -0.01847691
v -0.05640252 -0.03395086 -0.01836333
v -0.03566842 -0.05539666 -0.01838733
v 0.03986612 -0.05023922 -0.01860250
v 0.05450751 -0.03551904 -0.01838243
v 0.03564006 -0.05441528 -0.01847955
v 0.03494787 0.05467413 -0.01820152
v 0.03561213 0.05389854 -0.01854849
v 0.02902945 0.05666140 -0.01875619
v -0.03551973 -0.05433874 -0.01912538
v -0.05754561 -0.03017891 -0.01777258
v -0.05693814 -0.03257837 -0.01794404
v -0.02907980 -0.06017891 -0.01736095
v -0.03297853 0.05982109 -0.01725323
v -0.03490498 0.05921211 -0.01842201
v -0.02796264 -0.05968710 -0.01858426
v 0.01673663 -0.05919530 -0.01845416
v -0.05738240 -0.03103956 -0.01517854
v 0.01828830 -0.05940658 -0.01736107
v 0.05952125 -0.02083464 -0.01666647
v -0.05668561 -0.03325843 -0.01602345
v -0.04840089 0.04234971 -0.01431726
v -0.02992425 -0.06017891 -0.01617526
v 0.05952125 -0.02414195 -0.01594038
v -0.03632860 -0.05457731 -0.01419838
v -0.05145502 -0.03970363 -0.01496008
v 0.03336419 -0.05609752 -0.01555947
v -0.05506111 0.03567596 -0.01461674
v -0.05555443 -0.03547843 -0.01469881
v -0.05298955 -0.03815832 -0.01451122
v 0.03127586 -0.05722941 -0.01457586
v 0.03280023 -0.05645893 -0.01469881
v 0.04186079 -0.04842622 -0.01432996
v 0.03394748 0.05547002 -0.01531356
v -0.03056372 -0.06017891 -0.01432996
v 0.02017699 -0.05975573 -0.01506002
v -0.06047875 0.02381442 -0.01531356
v 0.01575076 0.05982109 -0.01489623
v 0.05226666 -0.03792847 -0.01432559
v -0.05755863 -0.02943279 -0.01455135
v -0.05684002 -0.03288383 -0.01404776
v 0.03517699 -0.05486165 -0.01432996
v 0.03597757 -0.05411218 -0.01421729
v -0.03504839 -0.05587965 -0.01482176
v 0.03361872 -0.05578816 -0.01383260
v -0.05457711 -0.03639323 -0.01408405
v -0.05605252 -0.03411333 -0.01369620
v 0.05952125 -0.02773796 -0.01434480
v -0.02998694 0.05935601 -0.01451606
v 0.05952125 0.01555880 -0.01487218
v 0.05952125 0.02834569 -0.01394814
v 0.02106725 0.05982109 -0.01459043
v 0.05952125 0.03089460 -0.01357620
v -0.05855157 0.03034067 -0.01361789
v 0.05952125 -0.02876969 -0.01340786
v 0.02143464 -0.05919530 -0.01334635
v -0.06029458 0.02441126 -0.01334635
v 0.02509503 0.05982109 -0.01285439
v -0.02556071 0.05982109 -0.01380603
v -0.05753691 0.03130495 -0.01235045
v 0.05116060 0.04152684 -0.01200623
v -0.05869851 0.02798735 -0.01236274
v 0.05320441 0.03942984 -0.01232698
v 0.05657043 0.03601895 -0.01231946
v -0.05975608 0.02416921 -0.01187094
v -0.00146236 0.05982109 -0.01327182
v -0.03056496 -0.05814101 -0.01113299
v 0.05853765 -0.03144616 -0.01137914
v 0.02902945 0.05883749 -0.01164365
v 0.03174936 -0.05512805 -0.01039553
v 0.05361961 -0.03636085 -0.01039553
v 0.02902945 -0.05694240 -0.01032630
v 0.03222617 0.05662437 -0.01088096
v 0.03542289 0.05391945 -0.01052851
v 0.02607863 -0.05771989 -0.01071526
v -0.03490498 -0.04238015 0.00829300
v 0.03493109 -0.04008359 0.01026021
v -0.04208024 -0.03460514 0.00927660
v 0.03969990 -0.03263792 0.01222742
v 0.03716895 -0.03711962 0.01129180
v -0.04119675 0.02987683 0.01133919
v -0.04182178 -0.03165432 0.01173562
v -0.04008103 0.03154569 0.01124382
v -0.04178360 -0.03362153 0.01124382
v -0.03560779 0.03629091 0.01124382
v -0.04224406 -0.02771989 0.01222742
v 0.03774159 -0.03558874 0.01222742
v 0.00788191 -0.02735266 0.05574953
v -0.00933121 -0.02752236 0.05550611
v 0.01053637 0.01264623 0.05588778
v -0.01056860 -0.02738641 0.05524770
v 0.01036205 -0.02680855 0.05475569
v -0.01134466 0.01955470 0.05558176
v 0.01044495 0.02661724 0.05550611
v -0.01080661 -0.02673847 0.05599791
v -0.01128951 0.00200639 0.05575342
v 0.01037982 -0.00583464 0.05604433
v 0.00946801 -0.02726213 0.05550611
v 0.01040261 -0.02378546 0.05565052
v -0.01110019 -0.00640003 0.05601553
v -0.01128479 -0.01276910 0.05576478
v 0.00540846 -0.02723019 0.05600856
v -0.01106591 0.01554478 0.05600074
v -0.01091973 0.02564077 0.05553530
v -0.00982301 0.02664164 0.05599791
v 0.01043508 0.01728848 0.05598201
v 0.01009502 0.02625552 0.05604231
v -0.00716642 0.02688182 0.05597296
v 0.00954175 0.02697101 0.05569422
v 0.00975811 -0.02217949 0.05597043
v 0.00502294 -0.02566046 0.05603142
v 0.00974454 -0.02467686 0.05591141
v -0.01004902 0.01498574 0.05605747
v -0.01006891 -0.02575268 0.05617760
v -0.01080744 0.01875773 0.05598841
v -0.01034121 0.02471864 0.05589018
v 0.00984912 0.01248503 0.05634750
v 0.00695978 -0.02666783 0.05597770
v 0.00640650 0.02637847 0.05621741
v 0.00855872 0.02664852 0.05604873
v 0.00024479 0.02693425 0.05604013
v 0.00861961 -0.02612153 0.05590351
f 206 194 202
f 1 3 4
f 206 202 203
f 184 203 189
f 5 22 1
f 1 4 5
f 125 124 102
f 10 4 3
f 130 175 129
f 129 175 154
f 142 157 144
f 149 174 117
f 194 148 138
f 198 183 158
f 173 175 130
f 173 165 184
f 190 175 184
f 184 189 190
f 154 175 190
f 192 202 194
f 192 203 202
f 192 189 203
f 192 182 154
f 21 57 12
f 21 5 25
f 4 10 15
f 15 10 14
f 15 25 5
f 184 165 156
f 165 124 156
f 124 125 145
f 145 120 164
f 125 120 145
f 191 203 184
f 68 125 102
f 102 67 68
f 130 129 107
f 27 10 3
f 30 27 28
f 6 27 3
f 6 3 1
f 28 6 55
f 195 157 142
f 206 186 195
f 77 144 157
f 36 149 117
f 14 40 45
f 170 149 154
f 210 155 148
f 153 183 142
f 153 150 183
f 158 183 162
f 208 194 206
f 208 210 194
f 136 173 130
f 184 175 171
f 171 173 184
f 175 173 171
f 154 182 193
f 193 170 154
f 182 192 193
f 185 192 154
f 189 192 185
f 154 190 185
f 185 190 189
f 75 62 48
f 48 77 75
f 47 77 48
f 16 5 21
f 21 12 16
f 22 5 16
f 2 5 4
f 4 15 2
f 2 15 5
f 161 187 164
f 164 120 161
f 178 191 184
f 206 203 200
f 200 191 206
f 203 191 200
f 8 29 7
f 7 29 69
f 69 67 7
f 7 6 8
f 60 6 7
f 31 83 81
f 62 83 31
f 105 67 102
f 69 29 70
f 29 68 70
f 70 67 69
f 70 68 67
f 146 129 154
f 146 126 129
f 38 126 146
f 146 143 38
f 154 143 146
f 38 73 44
f 44 126 38
f 129 126 100
f 100 107 129
f 100 44 73
f 126 44 100
f 38 10 11
f 11 30 38
f 10 27 11
f 27 30 11
f 102 124 112
f 28 27 26
f 26 6 28
f 27 6 26
f 54 73 38
f 38 30 54
f 54 30 28
f 28 55 54
f 51 55 6
f 102 112 92
f 92 112 124
f 179 186 157
f 157 195 179
f 179 195 186
f 109 113 79
f 79 47 109
f 104 174 194
f 104 36 117
f 104 45 36
f 41 10 38
f 38 42 41
f 41 42 10
f 10 42 37
f 14 10 37
f 37 40 14
f 37 45 40
f 174 149 172
f 149 170 172
f 194 174 172
f 172 193 194
f 170 193 172
f 154 149 151
f 151 143 154
f 149 143 151
f 155 210 147
f 158 87 147
f 147 198 158
f 147 210 198
f 98 141 86
f 86 56 98
f 87 56 86
f 141 147 86
f 86 147 87
f 197 148 194
f 194 210 197
f 197 210 148
f 123 87 158
f 158 162 123
f 123 162 150
f 183 150 163
f 163 162 183
f 150 162 163
f 198 210 209
f 210 208 209
f 173 136 135
f 204 192 194
f 204 193 192
f 80 120 125
f 85 153 142
f 85 50 153
f 134 161 120
f 180 178 184
f 124 178 180
f 184 156 180
f 180 156 124
f 187 201 211
f 188 201 187
f 157 186 188
f 199 186 206
f 206 191 199
f 199 188 186
f 201 188 199
f 60 7 46
f 64 87 57
f 57 56 64
f 64 56 87
f 24 31 29
f 24 29 8
f 8 6 24
f 1 22 24
f 24 6 1
f 55 51 52
f 52 6 60
f 52 51 6
f 78 77 47
f 47 79 78
f 144 77 78
f 137 79 113
f 144 78 137
f 137 78 79
f 98 56 33
f 33 104 98
f 21 25 33
f 127 141 98
f 98 104 127
f 117 174 111
f 111 104 117
f 174 104 111
f 39 37 42
f 39 42 38
f 36 45 39
f 45 37 39
f 38 143 39
f 149 36 39
f 39 143 149
f 96 123 150
f 87 123 96
f 183 198 196
f 198 209 196
f 142 183 196
f 196 195 142
f 206 195 196
f 196 208 206
f 196 209 208
f 90 54 55
f 90 91 54
f 130 91 90
f 130 107 101
f 107 100 101
f 101 100 73
f 73 54 101
f 54 91 101
f 165 173 167
f 167 135 165
f 173 135 167
f 114 124 165
f 165 135 114
f 194 193 205
f 205 204 194
f 193 204 205
f 81 80 53
f 53 31 81
f 29 31 53
f 53 68 29
f 68 53 106
f 106 53 80
f 12 65 58
f 58 16 12
f 58 50 16
f 84 85 142
f 76 83 62
f 62 93 76
f 76 93 83
f 83 93 95
f 94 93 62
f 157 128 94
f 94 77 157
f 94 62 75
f 75 77 94
f 132 95 122
f 122 95 93
f 122 94 128
f 93 94 122
f 132 122 160
f 160 128 157
f 160 122 128
f 132 160 166
f 187 161 166
f 187 211 177
f 164 187 177
f 177 145 164
f 124 145 177
f 177 178 124
f 191 178 177
f 207 211 201
f 207 199 191
f 201 199 207
f 191 177 207
f 207 177 211
f 157 188 181
f 181 188 187
f 181 168 157
f 43 7 67
f 43 46 7
f 60 46 99
f 72 105 102
f 72 46 105
f 102 92 72
f 72 99 46
f 150 153 152
f 59 89 65
f 59 12 57
f 59 65 12
f 22 31 17
f 17 24 22
f 31 24 17
f 9 33 15
f 104 33 9
f 9 63 104
f 9 15 14
f 25 15 19
f 19 33 25
f 15 33 19
f 34 56 57
f 34 33 56
f 34 57 21
f 21 33 34
f 103 127 104
f 103 138 148
f 194 138 103
f 103 104 194
f 57 87 97
f 87 96 97
f 97 59 57
f 89 59 97
f 97 152 89
f 97 96 150
f 150 152 97
f 55 52 74
f 74 90 55
f 110 91 130
f 130 101 110
f 110 101 91
f 119 114 135
f 132 166 131
f 131 166 134
f 131 95 132
f 121 134 120
f 120 80 121
f 80 116 121
f 121 131 134
f 116 131 121
f 108 80 125
f 108 106 80
f 125 68 108
f 68 106 108
f 22 16 18
f 16 20 18
f 18 20 32
f 18 32 47
f 47 48 18
f 18 48 62
f 18 31 22
f 62 31 18
f 13 20 16
f 32 20 13
f 47 32 13
f 109 47 13
f 13 35 109
f 65 89 88
f 50 58 88
f 88 58 65
f 153 50 88
f 88 152 153
f 89 152 88
f 83 95 82
f 81 83 82
f 82 80 81
f 82 116 80
f 82 131 116
f 95 131 82
f 169 160 157
f 169 166 160
f 187 166 169
f 161 134 159
f 159 166 161
f 134 166 159
f 61 43 67
f 46 43 61
f 67 105 61
f 105 46 61
f 63 9 66
f 45 104 66
f 104 63 66
f 14 45 66
f 66 9 14
f 92 90 71
f 90 74 71
f 71 74 52
f 71 52 60
f 71 72 92
f 60 99 71
f 99 72 71
f 133 92 124
f 124 114 133
f 115 90 92
f 115 119 90
f 92 133 115
f 114 119 115
f 115 133 114
f 118 119 135
f 90 119 118
f 118 135 136
f 130 90 118
f 118 136 130
f 16 50 49
f 49 13 16
f 50 85 49
f 85 84 49
f 157 168 176
f 176 169 157
f 187 169 176
f 176 181 187
f 168 181 176
f 13 49 23
f 35 13 23
f 23 49 84
f 23 84 142
f 23 140 139
f 142 140 23
f 23 139 109
f 109 35 23
f 155 147 103
f 148 155 103
f 103 147 141
f 141 127 103
f 142 144 140
f 144 137 140
f 140 113 109
f 140 137 113
f 109 139 140

