# https://github.com/mikedh/trimesh
v 0.03666303 0.03463085 -0.00368019
v 0.03666303 0.03463085 -0.00373982
v 0.03659546 0.03463085 -0.00257577
v 0.03732697 0.03406995 -0.00247553
v 0.03776323 0.03372677 -0.00247553
v 0.03666009 0.03463085 -0.00988582
v 0.03644123 0.03463085 -0.00127519
v 0.03776323 0.03367634 -0.00150938
v 0.03776323 0.03370832 -0.00988582
v 0.03476524 0.03463085 -0.00988582
v 0.03637807 0.03463085 -0.00111359
v 0.03734312 0.03386084 -0.00105828
v 0.03745182 0.03377105 -0.00105828
v 0.03776323 0.03347584 -0.00105828
v 0.03635604 0.03463085 -0.00105828
v 0.03776323 0.03158156 -0.00988582
v 0.03257807 0.03463085 -0.00806933
v 0.03132658 0.03396048 -0.00988582
v 0.03776323 0.02941053 -0.00105828
v 0.03297173 0.03463085 -0.00105828
v 0.03776323 0.02975863 -0.00478115
v 0.03358866 0.02559862 -0.00988582
v 0.03222554 0.03463085 -0.00702195
v 0.03018086 0.03366403 -0.00988582
v 0.02673339 0.03275257 -0.00988582
v 0.03776323 0.02932689 -0.00127519
v 0.03347556 0.02427139 -0.00105828
v 0.03295998 0.03463085 -0.00106088
v 0.02652921 0.03287066 -0.00105828
v 0.03776323 0.02938101 -0.00190172
v 0.03311128 0.02384211 -0.00105828
v 0.03340946 0.02541657 -0.00988582
v 0.03214769 0.03463085 -0.00609642
v 0.02652921 0.03296783 -0.00487534
v 0.02652921 0.03300473 -0.00367587
v 0.02592403 0.03239094 -0.00988582
v 0.02556269 0.03250164 -0.00105828
v 0.03257220 0.02342266 -0.00105828
v 0.02773076 0.02227749 -0.00988582
v 0.02574336 0.03250287 -0.00487534
v 0.02555975 0.03250287 -0.00127519
v 0.02580652 0.03231467 -0.00988582
v 0.02579477 0.03232205 -0.00967496
v 0.02496192 0.03202192 -0.00105828
v 0.03155867 0.02298231 -0.00105828
v 0.02724897 0.02206469 -0.00988582
v 0.02519400 0.03190138 -0.00967496
v 0.02440815 0.03130112 -0.00967496
v 0.02496045 0.03201823 -0.00127519
v 0.02520575 0.03188662 -0.00988582
v 0.02484441 0.03191368 -0.00105828
v 0.03132658 0.02289989 -0.00105828
v 0.02532914 0.02212250 -0.00967496
v 0.02532914 0.02220492 -0.00988582
v 0.02441843 0.03128758 -0.00988582
v 0.02434205 0.03114613 -0.00988582
v 0.02399980 0.03042532 -0.00988582
v 0.02399245 0.03042532 -0.00967496
v 0.02439052 0.03142166 -0.00105828
v 0.03062446 0.02316681 -0.00105828
v 0.02412906 0.02243739 -0.00883153
v 0.02532914 0.02229225 -0.00873474
v 0.02350772 0.02260960 -0.00912621
v 0.02417753 0.02244723 -0.00958595
v 0.02511762 0.02225658 -0.00988582
v 0.02280707 0.02446820 -0.00988582
v 0.02406590 0.03042532 -0.00105828
v 0.02654537 0.02477817 -0.00105828
v 0.02350772 0.02260960 -0.00904411
v 0.02385438 0.02271415 -0.00988582
v 0.02275712 0.02347801 -0.00988582
v 0.02280266 0.02344603 -0.00988582
v 0.02433911 0.02249644 -0.00988582
v 0.02279825 0.02441039 -0.00988582
v 0.02351360 0.02745107 -0.00172802
v 0.02397042 0.02794186 -0.00105828
v 0.02601364 0.02509307 -0.00105828
v 0.02496192 0.02608941 -0.00105828
v 0.02459617 0.02644981 -0.00105828
v 0.02416431 0.02688278 -0.00105828
v 0.02351360 0.02739817 -0.00172802
f 1 2 6
f 1 6 10
f 1 10 17
f 1 17 23
f 1 23 33
f 1 33 28
f 1 28 20
f 1 20 15
f 1 15 11
f 1 11 7
f 1 7 3
f 1 3 4
f 1 4 5
f 1 5 2
f 2 5 6
f 3 7 8
f 3 8 4
f 4 8 5
f 5 8 14
f 5 14 19
f 5 19 26
f 5 26 30
f 5 30 21
f 5 21 16
f 5 16 9
f 5 9 6
f 6 9 16
f 6 16 22
f 6 22 32
f 6 32 39
f 6 39 46
f 6 46 54
f 6 54 65
f 6 65 73
f 6 73 70
f 6 70 72
f 6 72 71
f 6 71 74
f 6 74 66
f 6 66 57
f 6 57 56
f 6 56 55
f 6 55 50
f 6 50 42
f 6 42 36
f 6 36 25
f 6 25 24
f 6 24 18
f 6 18 10
f 7 11 8
f 8 12 13
f 8 13 14
f 8 11 15
f 8 15 12
f 10 18 17
f 12 15 20
f 12 20 29
f 12 29 37
f 12 37 44
f 12 44 51
f 12 51 59
f 12 59 67
f 12 67 76
f 12 76 80
f 12 80 79
f 12 79 78
f 12 78 77
f 12 77 68
f 12 68 60
f 12 60 52
f 12 52 45
f 12 45 38
f 12 38 31
f 12 31 27
f 12 27 19
f 12 19 14
f 12 14 13
f 16 21 22
f 17 18 24
f 17 24 25
f 17 25 23
f 19 27 26
f 20 28 29
f 21 30 31
f 21 31 22
f 22 31 32
f 23 25 34
f 23 34 35
f 23 35 33
f 25 36 34
f 26 27 31
f 26 31 30
f 28 33 35
f 28 35 29
f 29 35 37
f 31 38 32
f 32 38 39
f 34 36 40
f 34 40 35
f 35 40 41
f 35 41 37
f 36 42 43
f 36 43 40
f 37 41 44
f 38 45 46
f 38 46 39
f 40 43 47
f 40 47 41
f 41 47 48
f 41 48 49
f 41 49 44
f 42 50 47
f 42 47 43
f 44 49 51
f 45 52 46
f 46 52 53
f 46 53 54
f 47 50 55
f 47 55 48
f 48 55 56
f 48 56 57
f 48 57 58
f 48 58 59
f 48 59 51
f 48 51 49
f 52 60 61
f 52 61 62
f 52 62 53
f 53 62 61
f 53 61 63
f 53 63 64
f 53 64 65
f 53 65 54
f 57 66 58
f 58 66 67
f 58 67 59
f 60 68 61
f 61 69 63
f 61 68 69
f 63 70 64
f 63 69 71
f 63 71 72
f 63 72 70
f 64 70 73
f 64 73 65
f 66 74 75
f 66 75 67
f 67 75 76
f 68 77 69
f 69 77 78
f 69 78 79
f 69 79 80
f 69 80 81
f 69 81 71
f 71 81 75
f 71 75 74
f 75 81 76
f 76 81 80

