# https://github.com/mikedh/trimesh
v -0.03347316 0.06001262 -0.01778945
v -0.03335415 0.05997580 -0.01694587
v -0.03226308 0.05999052 -0.01685906
v -0.02759585 0.05991229 -0.01375259
v -0.03265716 0.05999973 -0.01764922
v -0.03467241 0.05911340 -0.01896615
v -0.03553786 0.05897073 -0.01891496
v -0.03418715 0.05990033 -0.01771971
v -0.03418715 0.05990033 -0.01739326
v -0.03287352 0.05982578 -0.01627442
v -0.03066664 0.05988284 -0.01491965
v -0.02759585 0.05986811 -0.01372366
v -0.02759585 0.05991229 -0.01398333
v -0.02840412 0.05984142 -0.01384830
v -0.02759585 0.05669645 -0.01921248
v -0.03632449 0.05746222 -0.01989431
v -0.03664285 0.05746222 -0.01989431
v -0.02759585 0.05562512 -0.01973628
v -0.03553786 0.05897073 -0.01844829
v -0.03898883 0.05631357 -0.01994921
v -0.03898883 0.05631357 -0.01972515
v -0.04250315 0.05266883 -0.01983718
v -0.04033026 0.05061084 -0.01375036
v -0.03668303 0.05408255 -0.01372588
v -0.03549150 0.05515756 -0.01376669
v -0.03056464 0.05876365 -0.01382085
v -0.03410988 0.05624914 -0.01385127
v -0.02987228 0.05902412 -0.01367395
v -0.02759585 0.05923580 -0.01339795
v -0.02875184 0.05934073 -0.01359011
v -0.03707093 0.05562512 -0.02026009
v -0.03705394 0.05690262 -0.02001005
v -0.03827174 0.05562512 -0.02026602
v -0.03827174 0.05653906 -0.02002044
v -0.02759585 0.05061084 -0.01936680
v -0.04187107 0.05061084 -0.02055463
v -0.03827174 0.05442585 -0.02036915
v -0.04326505 0.05061084 -0.02063625
v -0.04250315 0.05266883 -0.01992696
v -0.04338251 0.05061084 -0.01973035
v -0.04016954 0.05061084 -0.01364649
v -0.03588404 0.05445991 -0.01359827
v -0.02987228 0.05802457 -0.01333562
v -0.02867302 0.05802457 -0.01311453
v -0.02759585 0.05910235 -0.01335046
v -0.02759585 0.05061084 -0.01788516
v -0.04331760 0.05061084 -0.02052644
v -0.04333459 0.05061084 -0.02037138
v -0.03977081 0.05061084 -0.01359159
v -0.03707093 0.05202548 -0.01333340
v -0.03587168 0.05322567 -0.01333637
v -0.02759585 0.05802457 -0.01305962
v -0.02759585 0.05587363 -0.01358640
v -0.03626113 0.05061084 -0.01373182
v -0.03947873 0.05061084 -0.01357230
v -0.03848655 0.05061084 -0.01352927
v -0.03707093 0.05082621 -0.01352259
v -0.02759585 0.05682531 -0.01312788
v -0.02867302 0.05682531 -0.01309821
v -0.02759585 0.05790308 -0.01305740
v -0.02759585 0.05672314 -0.01317166
v -0.03729966 0.05061084 -0.01356117
f 1 2 3
f 1 3 4
f 1 4 5
f 1 5 6
f 1 6 7
f 1 7 8
f 1 8 9
f 1 9 2
f 2 10 11
f 2 11 4
f 2 4 3
f 2 9 10
f 4 12 29
f 4 29 45
f 4 45 52
f 4 52 60
f 4 60 58
f 4 58 61
f 4 61 53
f 4 53 46
f 4 46 35
f 4 35 18
f 4 18 15
f 4 15 13
f 4 13 5
f 4 11 14
f 4 14 12
f 5 13 15
f 5 15 6
f 6 16 17
f 6 17 7
f 6 15 18
f 6 18 16
f 7 19 9
f 7 9 8
f 7 17 20
f 7 20 21
f 7 21 19
f 9 19 21
f 9 21 22
f 9 22 23
f 9 23 24
f 9 24 25
f 9 25 10
f 10 26 11
f 10 25 27
f 10 27 26
f 11 26 28
f 11 28 14
f 12 14 30
f 12 30 29
f 14 28 30
f 16 31 32
f 16 32 17
f 16 18 31
f 17 32 33
f 17 33 34
f 17 34 20
f 18 35 36
f 18 36 37
f 18 37 31
f 20 34 33
f 20 33 38
f 20 38 39
f 20 39 22
f 20 22 21
f 22 39 40
f 22 40 23
f 23 40 48
f 23 48 47
f 23 47 38
f 23 38 36
f 23 36 35
f 23 35 46
f 23 46 54
f 23 54 62
f 23 62 56
f 23 56 55
f 23 55 49
f 23 49 41
f 23 41 24
f 24 42 25
f 24 41 42
f 25 42 28
f 25 28 26
f 25 26 27
f 28 43 44
f 28 44 30
f 28 42 43
f 29 30 45
f 30 44 45
f 31 37 33
f 31 33 32
f 33 37 38
f 36 38 37
f 38 47 39
f 39 47 48
f 39 48 40
f 41 49 50
f 41 50 51
f 41 51 42
f 42 51 44
f 42 44 43
f 44 52 45
f 44 51 50
f 44 50 52
f 46 53 54
f 49 55 50
f 50 55 56
f 50 56 57
f 50 57 58
f 50 58 59
f 50 59 60
f 50 60 52
f 53 61 54
f 54 61 58
f 54 58 57
f 54 57 62
f 56 62 57
f 58 60 59

