# https://github.com/mikedh/trimesh
v 0.03961025 0.03168209 -0.00988763
v 0.04363790 0.03168209 -0.01576955
v 0.03929161 0.03168209 -0.00988763
v 0.04094600 0.03036008 -0.00988763
v 0.04363790 0.03168209 -0.01948579
v 0.04133220 0.02969907 -0.00988763
v 0.04150873 0.02931924 -0.00988763
v 0.04154441 0.02910712 -0.00988763
v 0.04363790 0.03054753 -0.01551197
v 0.03765570 0.03168209 -0.00988866
v 0.03929161 0.00030394 -0.00988763
v 0.04332754 0.03168209 -0.01951258
v 0.04363790 0.03131213 -0.01952185
v 0.04363790 0.01519142 -0.01359667
v 0.04363790 0.01601522 -0.01359976
v 0.04363790 0.01632599 -0.01361212
v 0.04363790 0.01940905 -0.01378521
v 0.04363790 0.02922058 -0.01529149
v 0.04154059 0.02869276 -0.00988763
v 0.04352637 -0.01518042 -0.01349158
v 0.03712739 0.03168209 -0.01557688
v 0.03712739 0.02805642 -0.01475368
v 0.03712739 0.02681826 -0.01448478
v 0.03712739 0.01967049 -0.01317219
v 0.03712739 0.01841754 -0.01295171
v 0.03712739 0.00622835 -0.01108586
v 0.03712739 0.00536016 -0.01100859
v 0.03778889 0.00566107 -0.01017920
v 0.03843255 -0.01871237 -0.00988866
v 0.03995056 0.00030394 -0.00988763
v 0.03852814 0.03168209 -0.01963312
v 0.03712739 0.02802188 -0.02026366
v 0.04363790 0.02922058 -0.01959088
v 0.04363790 0.01052984 -0.01365024
v 0.04120283 0.00762436 -0.00988763
v 0.04108557 -0.01397186 -0.00988866
v 0.04352637 -0.01850519 -0.01371824
v 0.04363790 0.01002175 -0.01366055
v 0.03712739 0.03168209 -0.01962694
v 0.03712739 0.00525657 -0.01104053
v 0.03773217 -0.01626072 -0.01222639
v 0.03787365 -0.01605354 -0.01139185
v 0.03773217 -0.01667015 -0.01251796
v 0.03773217 -0.01871237 -0.01412933
v 0.04002321 -0.01871237 -0.00988866
v 0.04102949 0.00523191 -0.00988763
v 0.04070256 -0.01604861 -0.00988866
v 0.03732813 0.03168209 -0.01964549
v 0.03712739 0.02681826 -0.02029560
v 0.03727205 0.03168209 -0.01964033
v 0.04363790 0.01362770 -0.01957852
v 0.03712739 0.01856552 -0.02041305
v 0.04352637 -0.01871237 -0.01374606
v 0.04363790 0.00939527 -0.01370897
v 0.03712739 0.00031381 -0.01339679
v 0.03773217 -0.01871237 -0.01961973
v 0.03712739 0.00030394 -0.01379861
v 0.04363790 0.00523191 -0.01947858
v 0.04352637 -0.01777019 -0.01944355
v 0.03712739 0.00030394 -0.02023790
v 0.04352637 -0.01871237 -0.01926119
v 0.04363790 0.00030394 -0.01867083
v 0.04363790 0.00031381 -0.01539967
v 0.04363790 0.00914369 -0.01375327
v 0.04363790 0.00030394 -0.01933846
f 1 2 5
f 1 5 12
f 1 12 31
f 1 31 48
f 1 48 50
f 1 50 39
f 1 39 21
f 1 21 10
f 1 10 3
f 1 3 11
f 1 11 30
f 1 30 46
f 1 46 35
f 1 35 19
f 1 19 8
f 1 8 7
f 1 7 6
f 1 6 4
f 1 4 2
f 2 4 6
f 2 6 7
f 2 7 8
f 2 8 9
f 2 9 18
f 2 18 17
f 2 17 16
f 2 16 15
f 2 15 14
f 2 14 34
f 2 34 38
f 2 38 54
f 2 54 64
f 2 64 63
f 2 63 62
f 2 62 65
f 2 65 58
f 2 58 51
f 2 51 33
f 2 33 13
f 2 13 5
f 3 10 11
f 5 13 12
f 8 14 15
f 8 15 16
f 8 16 17
f 8 17 18
f 8 18 9
f 8 19 20
f 8 20 14
f 10 21 22
f 10 22 23
f 10 23 24
f 10 24 25
f 10 25 26
f 10 26 27
f 10 27 28
f 10 28 29
f 10 29 11
f 11 29 45
f 11 45 30
f 12 13 32
f 12 32 31
f 13 33 32
f 14 20 34
f 19 35 36
f 19 36 20
f 20 36 37
f 20 37 38
f 20 38 34
f 21 39 32
f 21 32 49
f 21 49 52
f 21 52 60
f 21 60 57
f 21 57 55
f 21 55 40
f 21 40 27
f 21 27 26
f 21 26 25
f 21 25 24
f 21 24 23
f 21 23 22
f 27 40 41
f 27 41 42
f 27 42 29
f 27 29 28
f 29 42 41
f 29 41 43
f 29 43 44
f 29 44 56
f 29 56 61
f 29 61 53
f 29 53 45
f 30 45 47
f 30 47 46
f 31 32 48
f 32 33 49
f 32 39 50
f 32 50 48
f 33 51 52
f 33 52 49
f 35 46 36
f 36 47 53
f 36 53 37
f 36 46 47
f 37 53 54
f 37 54 38
f 40 55 41
f 41 55 43
f 43 55 44
f 44 55 57
f 44 57 60
f 44 60 56
f 45 53 47
f 51 58 59
f 51 59 52
f 52 59 60
f 53 61 65
f 53 65 62
f 53 62 63
f 53 63 64
f 53 64 54
f 56 60 59
f 56 59 61
f 58 65 59
f 59 65 61

