# https://github.com/mikedh/trimesh
v -0.05715078 -0.03365264 -0.01567444
v -0.05711333 -0.03365264 -0.01447591
v -0.05713157 -0.03365264 -0.01755711
v -0.05699999 -0.03400919 -0.01567444
v -0.05698271 -0.03398192 -0.01447591
v -0.05697214 -0.03365264 -0.01376203
v -0.05693084 -0.03388125 -0.01379615
v -0.05710756 -0.03365264 -0.01807502
v -0.05697310 -0.03401443 -0.01807502
v -0.05668497 -0.03461427 -0.01807502
v -0.05665519 -0.03460903 -0.01567444
v -0.05664079 -0.03458177 -0.01447591
v -0.05628543 -0.03431855 -0.01356607
v -0.05112882 -0.03437518 -0.01124423
v -0.05132763 -0.03365264 -0.01124685
v -0.05598097 -0.03564932 -0.01452490
v -0.05558815 -0.03609921 -0.01415746
v -0.05589453 -0.03529906 -0.01366755
v -0.05706818 -0.03365264 -0.01850719
v -0.05693660 -0.03393997 -0.01876877
v -0.05570436 -0.03620722 -0.01871278
v -0.05602226 -0.03569127 -0.01798841
v -0.05569379 -0.03619883 -0.01495795
v -0.04733988 -0.03801409 -0.01078931
v -0.05025290 -0.03435945 -0.01115237
v -0.05055352 -0.03365264 -0.01121973
v -0.05213248 -0.03983565 -0.01494132
v -0.04960652 -0.04208192 -0.01425457
v -0.04880648 -0.04250768 -0.01364918
v -0.05698079 -0.03365264 -0.01885188
v -0.05590605 -0.03557487 -0.01888512
v -0.05570436 -0.03620722 -0.01833047
v -0.05507143 -0.03557487 -0.01941091
v -0.05507143 -0.03649036 -0.01897174
v -0.04847993 -0.04338123 -0.01868391
v -0.05213248 -0.03983565 -0.01519240
v -0.04760401 -0.04367591 -0.01365443
v -0.04733988 -0.04378497 -0.01360281
v -0.04733988 -0.03599748 -0.01130547
v -0.04787293 -0.03585172 -0.01121973
v -0.05003008 -0.03365264 -0.01194060
v -0.04733988 -0.03551824 -0.01201934
v -0.04847993 -0.04338123 -0.01842933
v -0.04967568 -0.04217735 -0.01505505
v -0.04733988 -0.04435546 -0.01447591
v -0.04781530 -0.04389823 -0.01447591
v -0.04841558 -0.04331831 -0.01447591
v -0.05675604 -0.03365264 -0.01900498
v -0.05387184 -0.03557487 -0.01962262
v -0.04733988 -0.04210604 -0.01972585
v -0.04733988 -0.04282019 -0.01955788
v -0.04787293 -0.04277405 -0.01941965
v -0.05629023 -0.03365264 -0.01925344
v -0.05579464 -0.03365264 -0.01942578
v -0.04876326 -0.04277405 -0.01891837
v -0.04787293 -0.04364760 -0.01890175
v -0.04733988 -0.04429883 -0.01826048
v -0.04733988 -0.04435336 -0.01806977
v -0.04733988 -0.04436489 -0.01474711
v -0.04733988 -0.03365264 -0.01683099
v -0.05507143 -0.03365264 -0.01943540
v -0.05027211 -0.03365264 -0.01923506
v -0.04733988 -0.04090740 -0.01966986
v -0.04733988 -0.04157436 -0.01971972
v -0.04733988 -0.04328895 -0.01938728
v -0.04733988 -0.04378078 -0.01909596
v -0.04733988 -0.03365264 -0.01894286
v -0.04979573 -0.03365264 -0.01920094
v -0.04733988 -0.04037362 -0.01962175
v -0.04859518 -0.03365264 -0.01910558
v -0.04733988 -0.03437518 -0.01902947
f 1 2 6
f 1 6 15
f 1 15 26
f 1 26 41
f 1 41 60
f 1 60 67
f 1 67 70
f 1 70 68
f 1 68 62
f 1 62 61
f 1 61 54
f 1 54 53
f 1 53 48
f 1 48 30
f 1 30 19
f 1 19 8
f 1 8 3
f 1 3 4
f 1 4 5
f 1 5 2
f 2 5 7
f 2 7 6
f 3 8 9
f 3 9 4
f 4 9 10
f 4 10 11
f 4 11 12
f 4 12 5
f 5 12 7
f 6 7 13
f 6 13 14
f 6 14 15
f 7 12 16
f 7 16 17
f 7 17 18
f 7 18 13
f 8 19 9
f 9 19 20
f 9 20 10
f 10 21 22
f 10 22 23
f 10 23 11
f 10 20 21
f 11 23 12
f 12 23 16
f 13 18 14
f 14 18 24
f 14 24 15
f 15 25 26
f 15 24 25
f 16 23 17
f 17 23 27
f 17 27 28
f 17 28 29
f 17 29 18
f 18 29 24
f 19 30 20
f 20 30 31
f 20 31 21
f 21 32 22
f 21 31 33
f 21 33 34
f 21 34 35
f 21 35 36
f 21 36 27
f 21 27 32
f 22 32 23
f 23 32 27
f 24 29 37
f 24 37 38
f 24 38 45
f 24 45 59
f 24 59 58
f 24 58 57
f 24 57 66
f 24 66 65
f 24 65 51
f 24 51 50
f 24 50 64
f 24 64 63
f 24 63 69
f 24 69 71
f 24 71 67
f 24 67 60
f 24 60 42
f 24 42 39
f 24 39 40
f 24 40 26
f 24 26 25
f 26 40 39
f 26 39 42
f 26 42 41
f 27 36 35
f 27 35 43
f 27 43 44
f 27 44 45
f 27 45 46
f 27 46 47
f 27 47 28
f 28 47 46
f 28 46 45
f 28 45 37
f 28 37 29
f 30 48 31
f 31 48 33
f 33 49 50
f 33 50 51
f 33 51 52
f 33 52 34
f 33 48 53
f 33 53 54
f 33 54 49
f 34 52 55
f 34 55 35
f 35 55 56
f 35 56 57
f 35 57 58
f 35 58 59
f 35 59 43
f 37 45 38
f 41 42 60
f 43 59 44
f 44 59 45
f 49 54 61
f 49 61 62
f 49 62 63
f 49 63 64
f 49 64 50
f 51 65 52
f 52 65 66
f 52 66 56
f 52 56 55
f 56 66 57
f 62 68 63
f 63 68 69
f 67 71 70
f 68 70 69
f 69 70 71

