# https://github.com/mikedh/trimesh
v 0.00071676 0.00045938 0.02776668
v 0.00132864 0.00045938 0.02778959
v 0.00071676 0.00045938 0.02878766
v 0.00071676 0.00142136 0.02609833
v 0.00250162 0.00045938 0.02794992
v 0.00350227 0.00150766 0.02609833
v 0.00470197 0.00156604 0.02609833
v 0.00492909 0.00158126 0.02609833
v 0.00615685 0.00045938 0.02878766
v 0.00071676 0.02590730 0.02878766
v 0.00071676 0.02559764 0.02609833
v 0.00372805 0.00045938 0.02813395
v 0.00972790 0.00206352 0.02609833
v 0.00489702 0.00045938 0.02839170
v 0.01005388 0.00250263 0.02878766
v 0.00972790 0.02629564 0.02878766
v 0.00968382 0.02638702 0.02609833
v 0.00294383 0.02591999 0.02609833
v 0.00155442 0.02572455 0.02609833
v 0.01072587 0.00273360 0.02609833
v 0.01067377 0.00316002 0.02878766
v 0.01309322 0.02632356 0.02609833
v 0.01213800 0.02636671 0.02609833
v 0.01122686 0.02638956 0.02609833
v 0.01072454 0.02596060 0.02878766
v 0.01087016 0.00289605 0.02609833
v 0.01097837 0.00302296 0.02609833
v 0.01115739 0.00379964 0.02878766
v 0.01378926 0.02608243 0.02609833
v 0.01093028 0.02572201 0.02878766
v 0.01157823 0.00402554 0.02609833
v 0.01156219 0.00453318 0.02878766
v 0.01407516 0.02562556 0.02609833
v 0.01170514 0.02524737 0.02840802
v 0.01153147 0.02482349 0.02878766
v 0.01171984 0.00440627 0.02609833
v 0.01436507 0.01251326 0.02878766
v 0.01411925 0.02542758 0.02609833
v 0.01436507 0.01487632 0.02878766
v 0.01199104 0.00519565 0.02609833
v 0.01436507 0.01369352 0.02609833
v 0.01415131 0.02442499 0.02609833
v 0.01436507 0.01688402 0.02675888
v 0.01436507 0.01753126 0.02609833
f 1 2 5
f 1 5 12
f 1 12 14
f 1 14 9
f 1 9 3
f 1 3 10
f 1 10 11
f 1 11 4
f 1 4 2
f 2 4 6
f 2 6 7
f 2 7 8
f 2 8 5
f 3 9 15
f 3 15 21
f 3 21 28
f 3 28 32
f 3 32 37
f 3 37 39
f 3 39 35
f 3 35 30
f 3 30 25
f 3 25 16
f 3 16 10
f 4 11 19
f 4 19 18
f 4 18 17
f 4 17 24
f 4 24 23
f 4 23 22
f 4 22 29
f 4 29 33
f 4 33 38
f 4 38 42
f 4 42 44
f 4 44 41
f 4 41 40
f 4 40 36
f 4 36 31
f 4 31 27
f 4 27 26
f 4 26 20
f 4 20 13
f 4 13 8
f 4 8 7
f 4 7 6
f 5 8 12
f 8 13 12
f 9 14 13
f 9 13 15
f 10 16 17
f 10 17 18
f 10 18 19
f 10 19 11
f 12 13 14
f 13 20 15
f 15 20 21
f 16 22 23
f 16 23 24
f 16 24 17
f 16 25 22
f 20 26 21
f 21 27 28
f 21 26 27
f 22 25 29
f 25 30 29
f 27 31 28
f 28 31 32
f 29 30 34
f 29 34 33
f 30 35 34
f 31 36 32
f 32 36 37
f 33 34 35
f 33 35 39
f 33 39 38
f 36 40 37
f 37 40 41
f 37 41 44
f 37 44 43
f 37 43 39
f 38 39 42
f 39 43 42
f 42 43 44

