# https://github.com/mikedh/trimesh
v -0.03506600 -0.03055734 -0.01512422
v -0.03538118 -0.03055734 -0.01508722
v -0.03925819 -0.03135089 -0.00988669
v -0.03701291 -0.03365159 -0.00988669
v -0.03506600 -0.03365159 -0.01534618
v -0.03506600 -0.03055734 -0.01983119
v -0.03925819 -0.03055734 -0.01463746
v -0.03925819 -0.03365159 -0.00988669
v -0.03506600 -0.03365159 -0.01928017
v -0.03752427 -0.03365159 -0.01981366
v -0.03827324 -0.03365159 -0.01981756
v -0.03901688 -0.03365159 -0.01977570
v -0.03568734 -0.03055734 -0.01973286
v -0.03925819 -0.03055734 -0.01905919
v -0.03925819 -0.03365159 -0.01963162
f 1 2 3
f 1 3 4
f 1 4 5
f 1 5 9
f 1 9 6
f 1 6 13
f 1 13 14
f 1 14 7
f 1 7 2
f 2 7 3
f 3 8 4
f 3 7 14
f 3 14 15
f 3 15 8
f 4 8 15
f 4 15 12
f 4 12 11
f 4 11 10
f 4 10 9
f 4 9 5
f 6 9 10
f 6 10 11
f 6 11 12
f 6 12 13
f 12 15 14
f 12 14 13

