# https://github.com/mikedh/trimesh
v 0.03251606 -0.03424189 -0.01443142
v 0.03263247 -0.03424189 -0.01567817
v 0.03251606 -0.03424189 -0.01155865
v 0.03251606 -0.02957417 -0.01415418
v 0.04128944 -0.03424189 -0.01567817
v 0.03527203 -0.01871423 -0.01414455
v 0.03589285 -0.01871423 -0.01474495
v 0.03646301 -0.01871423 -0.01522290
v 0.03649319 -0.01871423 -0.01524785
v 0.03724119 -0.01871423 -0.01567817
v 0.03452079 -0.03424189 -0.00988668
v 0.03251606 -0.03380111 -0.00988668
v 0.03251606 -0.02717419 -0.01340353
v 0.03931274 -0.03259124 -0.00988668
v 0.03923514 -0.03267180 -0.00988668
v 0.03912951 -0.03276452 -0.00988668
v 0.03730909 -0.03424189 -0.00988668
v 0.04285550 -0.03201519 -0.01567817
v 0.04089928 -0.03077340 -0.00988668
v 0.04039702 -0.03143761 -0.00988668
v 0.03466953 -0.01871423 -0.01329864
v 0.04352590 -0.01871423 -0.01567817
v 0.03251606 -0.02603272 -0.00988668
v 0.03251606 -0.02708756 -0.01335874
v 0.03431493 -0.01871423 -0.01270504
v 0.04329956 -0.03125674 -0.01567817
v 0.04088634 -0.02948449 -0.00988668
v 0.04352590 -0.03080228 -0.01567817
v 0.04278113 -0.03022014 -0.01383102
v 0.04352590 -0.02114005 -0.01370629
v 0.04352590 -0.02101085 -0.01369324
v 0.04352590 -0.01871423 -0.01374484
v 0.03334598 -0.02351419 -0.00988668
v 0.03431493 -0.01871423 -0.01265628
v 0.03251606 -0.02622727 -0.01216473
v 0.03251606 -0.02695380 -0.01325215
v 0.03251606 -0.02648566 -0.01275720
v 0.04352590 -0.01914133 -0.01372386
v 0.04002194 -0.01871423 -0.00988668
v 0.04352590 -0.03078252 -0.01567250
v 0.04352590 -0.02956961 -0.01542133
v 0.03371244 -0.02287125 -0.00988668
v 0.03843109 -0.01871423 -0.00988668
f 1 2 5
f 1 5 17
f 1 17 11
f 1 11 3
f 1 3 12
f 1 12 23
f 1 23 35
f 1 35 37
f 1 37 36
f 1 36 24
f 1 24 13
f 1 13 4
f 1 4 2
f 2 4 6
f 2 6 7
f 2 7 8
f 2 8 9
f 2 9 10
f 2 10 22
f 2 22 28
f 2 28 26
f 2 26 18
f 2 18 5
f 3 11 12
f 4 13 6
f 5 14 15
f 5 15 16
f 5 16 17
f 5 18 19
f 5 19 20
f 5 20 14
f 6 21 25
f 6 25 34
f 6 34 43
f 6 43 39
f 6 39 32
f 6 32 22
f 6 22 10
f 6 10 9
f 6 9 8
f 6 8 7
f 6 13 21
f 11 17 16
f 11 16 15
f 11 15 14
f 11 14 20
f 11 20 19
f 11 19 27
f 11 27 39
f 11 39 43
f 11 43 42
f 11 42 33
f 11 33 23
f 11 23 12
f 13 24 25
f 13 25 21
f 18 26 19
f 19 26 28
f 19 28 29
f 19 29 30
f 19 30 31
f 19 31 27
f 22 32 38
f 22 38 31
f 22 31 30
f 22 30 41
f 22 41 40
f 22 40 28
f 23 33 34
f 23 34 25
f 23 25 35
f 24 36 25
f 25 36 37
f 25 37 35
f 27 31 38
f 27 38 32
f 27 32 39
f 28 40 29
f 29 40 41
f 29 41 30
f 33 42 34
f 34 42 43

