# https://github.com/mikedh/trimesh
v -0.01381102 0.01589103 0.01906737
v -0.01381102 0.01591568 0.01965305
v -0.01381102 0.01599597 0.01752344
v -0.00964897 0.01515706 0.01752344
v -0.01023578 0.01515706 0.02186858
v -0.01381102 0.01595551 0.02028551
v -0.01381102 0.02067347 0.01752344
v -0.00787741 0.01515706 0.01752344
v -0.01381102 0.01631079 0.02143474
v -0.01381102 0.01610597 0.02086353
v -0.00750185 0.01515706 0.02186858
v -0.01381102 0.01659780 0.02186858
v -0.01381102 0.02071709 0.01754215
v -0.00750185 0.01763015 0.01752344
v -0.00750185 0.01516339 0.01752344
v -0.00750185 0.01515706 0.02186135
v -0.00750185 0.01649413 0.02186858
v -0.01381102 0.02161478 0.02186858
v -0.01381102 0.02161478 0.01807891
v -0.00750185 0.01763331 0.01762551
v -0.01350711 0.02161478 0.01833198
v -0.01350341 0.02161478 0.01834176
v -0.01331933 0.02161478 0.01912522
v -0.01317479 0.02161478 0.02031231
v -0.00750185 0.01679757 0.02120507
v -0.01069165 0.01948434 0.02186858
v -0.01346017 0.02161478 0.02186858
v -0.00750185 0.01764217 0.01792494
v -0.00750185 0.01764280 0.01811464
v -0.01327795 0.02161478 0.02152449
v -0.00750185 0.01746958 0.01952077
v -0.00750185 0.01752900 0.01903973
f 1 2 6
f 1 6 10
f 1 10 9
f 1 9 12
f 1 12 18
f 1 18 19
f 1 19 13
f 1 13 7
f 1 7 3
f 1 3 4
f 1 4 5
f 1 5 2
f 2 5 6
f 3 7 14
f 3 14 15
f 3 15 8
f 3 8 4
f 4 8 16
f 4 16 11
f 4 11 5
f 5 9 10
f 5 10 6
f 5 11 17
f 5 17 26
f 5 26 27
f 5 27 18
f 5 18 12
f 5 12 9
f 7 13 14
f 8 15 16
f 11 16 15
f 11 15 14
f 11 14 20
f 11 20 28
f 11 28 29
f 11 29 32
f 11 32 31
f 11 31 25
f 11 25 17
f 13 19 14
f 14 19 21
f 14 21 22
f 14 22 23
f 14 23 24
f 14 24 20
f 17 25 26
f 18 27 30
f 18 30 24
f 18 24 23
f 18 23 22
f 18 22 21
f 18 21 19
f 20 24 28
f 24 29 28
f 24 30 29
f 25 31 26
f 26 30 27
f 26 31 30
f 29 30 32
f 30 31 32

