# https://github.com/mikedh/trimesh
v 0.03373532 -0.00020577 0.00594202
v 0.03419151 -0.00019937 0.00594202
v 0.03401140 -0.00019937 0.00443243
v 0.03397802 -0.00019937 0.00396442
v 0.03395994 -0.00019937 0.00352495
v 0.03392934 -0.00197526 0.00352495
v 0.03391543 -0.00317553 0.00352495
v 0.03376940 -0.02197903 0.00278460
v 0.03379443 -0.01037501 0.00594202
v 0.03953292 -0.00019937 0.00594202
v 0.03412266 -0.00019937 0.00320515
v 0.03382503 -0.02197903 0.00243695
v 0.03386119 -0.02197903 0.00352495
v 0.03379651 -0.01046242 0.00594202
v 0.03953569 -0.00019937 0.00592482
v 0.03963236 -0.00921098 0.00594202
v 0.04036949 -0.00965229 0.00536156
v 0.04056281 -0.00922164 0.00476495
v 0.04066017 -0.00677634 0.00339910
v 0.04083262 -0.00677634 0.00242904
v 0.03427704 -0.00019937 0.00291390
v 0.03830970 -0.01867030 0.00242904
v 0.03840288 -0.02197903 0.00242904
v 0.03834794 -0.00019937 0.00242904
v 0.03823251 -0.00427133 0.00242904
v 0.03438692 -0.02197903 0.00594202
v 0.03383754 -0.01157315 0.00594202
v 0.03957603 -0.00019937 0.00472472
v 0.04036949 -0.00984416 0.00536156
v 0.03959272 -0.01879182 0.00594202
v 0.03953152 -0.01997290 0.00594202
v 0.03944182 -0.02117317 0.00592482
v 0.04050439 -0.01006375 0.00472472
v 0.04067129 -0.00926428 0.00343830
v 0.04083888 -0.00686161 0.00242904
v 0.04069493 -0.00786148 0.00364118
v 0.03952735 -0.00019937 0.00242904
v 0.03957325 -0.00019937 0.00352495
v 0.03957951 -0.00019937 0.00414976
v 0.03962749 -0.02197903 0.00242904
v 0.03936949 -0.02197903 0.00594202
v 0.03943834 -0.02117317 0.00594202
v 0.03937367 -0.02197903 0.00592482
v 0.03949884 -0.02197903 0.00472472
f 1 2 3
f 1 3 4
f 1 4 5
f 1 5 6
f 1 6 7
f 1 7 8
f 1 8 9
f 1 9 14
f 1 14 27
f 1 27 26
f 1 26 41
f 1 41 42
f 1 42 31
f 1 31 30
f 1 30 16
f 1 16 10
f 1 10 2
f 2 10 15
f 2 15 28
f 2 28 39
f 2 39 38
f 2 38 37
f 2 37 24
f 2 24 21
f 2 21 11
f 2 11 5
f 2 5 4
f 2 4 3
f 5 11 12
f 5 12 6
f 6 12 8
f 6 8 7
f 8 12 23
f 8 23 40
f 8 40 44
f 8 44 43
f 8 43 41
f 8 41 26
f 8 26 13
f 8 13 14
f 8 14 9
f 10 16 17
f 10 17 18
f 10 18 19
f 10 19 20
f 10 20 15
f 11 21 12
f 12 22 23
f 12 21 24
f 12 24 25
f 12 25 22
f 13 26 27
f 13 27 14
f 15 20 28
f 16 29 17
f 16 30 29
f 17 29 18
f 18 29 31
f 18 31 32
f 18 32 33
f 18 33 34
f 18 34 35
f 18 35 36
f 18 36 19
f 19 36 35
f 19 35 20
f 20 35 40
f 20 40 23
f 20 23 22
f 20 22 25
f 20 25 24
f 20 24 37
f 20 37 38
f 20 38 39
f 20 39 28
f 29 30 31
f 31 42 32
f 32 42 43
f 32 43 44
f 32 44 33
f 33 44 34
f 34 40 35
f 34 44 40
f 41 43 42

