# https://github.com/mikedh/trimesh
v 0.05179687 0.00036587 -0.01640734
v 0.05188281 0.00030136 -0.01640734
v 0.05478926 0.00030136 -0.01393470
v 0.05179687 0.00046416 -0.01636140
v 0.05179687 0.02340687 -0.01640734
v 0.05531835 0.00030136 -0.01640734
v 0.05538932 0.00030136 -0.01357424
v 0.05477980 0.00042730 -0.01391906
v 0.05179687 0.01720199 -0.01383552
v 0.05179687 0.02325021 -0.01567510
v 0.05305691 0.03168209 -0.01640734
v 0.05850078 0.00030136 -0.01396732
v 0.05556358 0.00284782 -0.01640734
v 0.05892736 0.01602244 -0.01569041
v 0.05973953 0.01602244 -0.01531064
v 0.05968275 0.01482754 -0.01520447
v 0.05652792 0.00030136 -0.01319581
v 0.05179687 0.01726956 -0.01382620
v 0.05179687 0.02290003 -0.01479974
v 0.05435558 0.03168209 -0.01463066
v 0.05562351 0.03168209 -0.01640734
v 0.05179687 0.02203074 -0.01442131
v 0.05850078 0.00030136 -0.01340183
v 0.05972848 0.01122748 -0.01406151
v 0.05661545 0.03042269 -0.01640734
v 0.05892736 0.01722349 -0.01570472
v 0.05980733 0.01242545 -0.01418965
v 0.05967487 0.01722349 -0.01529633
v 0.05966382 0.01842453 -0.01525040
v 0.05983730 0.02922471 -0.01421695
v 0.05984992 0.02802367 -0.01423026
v 0.05985149 0.02682263 -0.01420264
v 0.05760345 0.00030136 -0.01303671
v 0.05652792 0.00282632 -0.01315420
v 0.05412849 0.01842453 -0.01334725
v 0.05775958 0.03168209 -0.01303205
v 0.05647194 0.03168209 -0.01343578
v 0.05608715 0.03168209 -0.01358489
v 0.05179687 0.01737400 -0.01383685
v 0.05440289 0.03168209 -0.01458473
v 0.05639624 0.03167595 -0.01640734
v 0.05647431 0.03168209 -0.01593471
v 0.05540114 0.03168209 -0.01386814
v 0.05525606 0.03168209 -0.01394202
v 0.05516774 0.03168209 -0.01400626
v 0.05772725 0.00030136 -0.01302340
v 0.05972848 0.01122748 -0.01357091
v 0.05649086 0.03114761 -0.01640734
v 0.05978841 0.03042269 -0.01413074
v 0.05980733 0.01242545 -0.01356559
v 0.05984124 0.02322257 -0.01418033
v 0.05983730 0.02922471 -0.01354196
v 0.05984992 0.02802367 -0.01355893
v 0.05985149 0.02682263 -0.01355161
v 0.05772725 0.00162834 -0.01300809
v 0.05772725 0.00282632 -0.01300742
v 0.05892736 0.02562465 -0.01318283
v 0.05886664 0.03168209 -0.01322576
v 0.05888320 0.03168209 -0.01415970
v 0.05967802 0.03125205 -0.01401225
v 0.05892736 0.01122748 -0.01319847
v 0.05978841 0.03042269 -0.01350801
v 0.05892736 0.01242545 -0.01319181
v 0.05984124 0.02322257 -0.01354096
v 0.05984755 0.02562465 -0.01354129
v 0.05888478 0.03168209 -0.01323442
v 0.05888478 0.03168209 -0.01324340
v 0.05967802 0.03125205 -0.01361817
f 1 2 3
f 1 3 4
f 1 4 9
f 1 9 18
f 1 18 39
f 1 39 22
f 1 22 19
f 1 19 10
f 1 10 5
f 1 5 11
f 1 11 21
f 1 21 41
f 1 41 48
f 1 48 25
f 1 25 13
f 1 13 6
f 1 6 2
f 2 6 12
f 2 12 23
f 2 23 46
f 2 46 33
f 2 33 17
f 2 17 7
f 2 7 3
f 3 7 8
f 3 8 4
f 4 8 9
f 5 10 11
f 6 13 14
f 6 14 15
f 6 15 16
f 6 16 12
f 7 17 18
f 7 18 8
f 8 18 9
f 10 19 11
f 11 20 40
f 11 40 45
f 11 45 44
f 11 44 43
f 11 43 38
f 11 38 37
f 11 37 36
f 11 36 58
f 11 58 66
f 11 66 67
f 11 67 59
f 11 59 42
f 11 42 21
f 11 19 22
f 11 22 20
f 12 16 24
f 12 24 47
f 12 47 23
f 13 25 26
f 13 26 14
f 14 26 15
f 15 27 16
f 15 26 28
f 15 28 29
f 15 29 30
f 15 30 31
f 15 31 32
f 15 32 27
f 16 27 24
f 17 33 34
f 17 34 35
f 17 35 18
f 18 35 36
f 18 36 37
f 18 37 38
f 18 38 39
f 20 22 40
f 21 42 41
f 22 39 43
f 22 43 44
f 22 44 45
f 22 45 40
f 23 47 46
f 24 27 50
f 24 50 47
f 25 48 49
f 25 49 30
f 25 30 29
f 25 29 28
f 25 28 26
f 27 32 51
f 27 51 64
f 27 64 50
f 30 49 62
f 30 62 52
f 30 52 53
f 30 53 31
f 31 53 54
f 31 54 32
f 32 54 64
f 32 64 51
f 33 46 55
f 33 55 34
f 34 55 35
f 35 55 56
f 35 56 36
f 36 57 58
f 36 56 57
f 38 43 39
f 41 42 59
f 41 59 60
f 41 60 49
f 41 49 48
f 46 47 50
f 46 50 61
f 46 61 55
f 49 60 68
f 49 68 62
f 50 63 61
f 50 64 63
f 52 62 65
f 52 65 54
f 52 54 53
f 54 65 64
f 55 61 63
f 55 63 57
f 55 57 56
f 57 62 58
f 57 63 62
f 58 62 66
f 59 67 60
f 60 67 66
f 60 66 68
f 62 68 66
f 62 63 64
f 62 64 65

