# https://github.com/mikedh/trimesh
v 0.02928823 0.02494978 0.00290367
v 0.02928823 0.03246727 0.00290367
v 0.03098818 0.02494978 0.00290367
v 0.02928823 0.02494978 0.00797678
v 0.03305095 0.03224746 0.00292941
v 0.03305095 0.03223817 0.00290367
v 0.02928823 0.03285580 0.00399486
v 0.03226746 0.02591800 0.00290367
v 0.03305095 0.02494978 0.00716794
v 0.03010450 0.02494978 0.00825996
v 0.02928823 0.02590794 0.00925316
v 0.03172893 0.03285580 0.00446239
v 0.03305095 0.03285580 0.00482363
v 0.03305095 0.03003471 0.00290367
v 0.02928823 0.03285580 0.00827657
v 0.03271538 0.02688468 0.00290367
v 0.03305095 0.02692725 0.00360788
v 0.03305095 0.02494978 0.00853982
v 0.03132779 0.02494978 0.00844183
v 0.03252789 0.02494978 0.00857968
v 0.02928823 0.02826543 0.01119222
v 0.03305095 0.03285580 0.00916762
v 0.03295075 0.02800460 0.00290367
v 0.02928823 0.03273196 0.00842107
v 0.03101286 0.03285580 0.00885704
v 0.03305095 0.02617573 0.00894175
v 0.02954239 0.02858507 0.01133755
v 0.02928823 0.02851387 0.01138654
v 0.03156207 0.03285580 0.00896168
v 0.02928823 0.02874838 0.01138654
v 0.02954239 0.02865086 0.01133755
v 0.03305095 0.03284109 0.00916762
v 0.02928823 0.03218941 0.00888029
v 0.03305095 0.03214298 0.00914686
f 1 2 6
f 1 6 14
f 1 14 23
f 1 23 16
f 1 16 8
f 1 8 3
f 1 3 9
f 1 9 18
f 1 18 20
f 1 20 19
f 1 19 10
f 1 10 4
f 1 4 11
f 1 11 21
f 1 21 28
f 1 28 30
f 1 30 33
f 1 33 24
f 1 24 15
f 1 15 7
f 1 7 2
f 2 5 6
f 2 7 5
f 3 8 9
f 4 10 11
f 5 7 12
f 5 12 13
f 5 13 22
f 5 22 32
f 5 32 34
f 5 34 26
f 5 26 18
f 5 18 9
f 5 9 17
f 5 17 14
f 5 14 6
f 7 15 25
f 7 25 29
f 7 29 22
f 7 22 13
f 7 13 12
f 8 16 17
f 8 17 9
f 10 19 11
f 11 20 21
f 11 19 20
f 14 17 23
f 15 24 25
f 16 23 17
f 18 26 27
f 18 27 28
f 18 28 20
f 20 28 21
f 22 29 30
f 22 30 31
f 22 31 27
f 22 27 32
f 24 33 25
f 25 33 30
f 25 30 29
f 26 34 27
f 27 34 32
f 27 31 30
f 27 30 28

