# https://github.com/mikedh/trimesh
v 0.00732976 0.06013593 -0.01355581
v 0.00732976 0.06013593 -0.01419223
v 0.00612775 0.06011018 -0.01352991
v -0.00181207 0.05985598 -0.01265520
v -0.00107021 0.05985920 -0.01265372
v 0.02217173 0.06001526 -0.01365423
v 0.01692704 0.06009732 -0.01470506
v 0.00612775 0.06011018 -0.01413229
v 0.01692704 0.06009732 -0.01534815
v 0.01572738 0.06009088 -0.01531410
v -0.00107021 0.05991711 -0.01327608
v -0.00181207 0.05986563 -0.01275066
v -0.00181207 0.05952616 -0.01263596
v -0.00107021 0.05922369 -0.01263004
v -0.00022035 0.05983828 -0.01266630
v 0.02217173 0.05927195 -0.01348329
v 0.02217173 0.06003457 -0.01437871
v -0.00181207 0.05985437 -0.01389622
v -0.00107021 0.05988011 -0.01391250
v 0.01932635 0.06005065 -0.01531632
v 0.01812670 0.06007318 -0.01534148
v 0.01932635 0.05807173 -0.01807439
v 0.01932635 0.05754080 -0.01879887
v 0.00253112 0.05627300 -0.01991409
v 0.00132911 0.05624726 -0.01989189
v 0.00059194 0.05622956 -0.01987931
v -0.00181207 0.05653685 -0.01925473
v -0.00181207 0.05988011 -0.01327608
v -0.00181207 0.05926874 -0.01262782
v -0.00181207 0.05849165 -0.01263300
v -0.00181207 0.05814091 -0.01264262
v -0.00107021 0.05836776 -0.01265372
v 0.01812670 0.05442439 -0.01328126
v 0.02217173 0.05726729 -0.01338264
v 0.02217173 0.05741048 -0.01867677
v 0.02130309 0.05992677 -0.01516314
v 0.02052601 0.06000721 -0.01525490
v 0.02052601 0.05749253 -0.01875003
v 0.02217173 0.05687794 -0.01912300
v 0.01644342 0.05624082 -0.01988449
v 0.00612775 0.05628104 -0.01993999
v 0.00493044 0.05628426 -0.01993925
v 0.00373078 0.05628587 -0.01992889
v 0.00373078 0.05562301 -0.01998809
v -0.00181207 0.05562301 -0.01981789
v -0.00181207 0.04486441 -0.01398132
v -0.00069223 0.04413881 -0.01380668
v 0.00012945 0.04482741 -0.01371343
v 0.00253112 0.04482741 -0.01364017
v 0.01092639 0.04369958 -0.01362685
v 0.01932635 0.04482741 -0.01364831
v 0.02217173 0.05606867 -0.01340410
v 0.02215530 0.05742013 -0.01866789
v 0.02217173 0.05646607 -0.01927027
v 0.01870657 0.05491993 -0.02018716
v 0.01738014 0.05530123 -0.02018716
v 0.01697399 0.05500842 -0.02018716
v 0.01522028 0.05196763 -0.02018716
v 0.01491978 0.05082693 -0.02018716
v 0.01472257 0.04980207 -0.02018716
v 0.01470849 0.04962671 -0.02018716
v 0.01487282 0.04899602 -0.02018716
v 0.01497142 0.04863081 -0.02018716
v 0.01528836 0.04810310 -0.02018716
v 0.01579546 0.04728417 -0.02018716
v -0.00181207 0.04842809 -0.01951151
v 0.00132911 0.04482741 -0.01966618
v 0.00132911 0.04369958 -0.01962770
v -0.00181207 0.04403423 -0.01453634
v -0.00181207 0.04369958 -0.01507804
v 0.00259216 0.04369958 -0.01424329
v 0.00012945 0.04410020 -0.01378004
v 0.01099212 0.04369958 -0.01362759
v 0.02000718 0.04414203 -0.01380372
v 0.02023960 0.04482741 -0.01373415
v 0.02174211 0.04723591 -0.01374229
v 0.02217173 0.04786981 -0.01375265
v 0.02217173 0.05562301 -0.01956776
v 0.01905168 0.05479604 -0.02018716
v 0.01610535 0.04695435 -0.02018716
v -0.00181207 0.04369958 -0.01920367
v 0.00125633 0.04369958 -0.01962030
v 0.00012945 0.04369958 -0.01949375
v 0.01684721 0.04639929 -0.02018716
v 0.01692704 0.04634780 -0.02018716
v 0.01807270 0.04600833 -0.02018716
v 0.00725463 0.04369958 -0.01966618
v 0.01207440 0.04369958 -0.01372083
v 0.01873005 0.04370280 -0.01497961
v 0.01952825 0.04370280 -0.01541697
v 0.02217173 0.04370280 -0.01731291
v 0.02217173 0.04685299 -0.01405532
v 0.02217173 0.04688517 -0.01403238
v 0.02217173 0.04747885 -0.01378448
v 0.02217173 0.04842648 -0.01955296
v 0.02184306 0.04962671 -0.02018716
v 0.02181723 0.05082693 -0.02018716
v 0.02150030 0.05189040 -0.02018716
v 0.02023490 0.05413801 -0.02018716
v 0.01937096 0.04604855 -0.02018716
v 0.00732976 0.04369958 -0.01966618
v 0.01305338 0.04369958 -0.01399242
v 0.02217173 0.04370280 -0.01943455
v 0.02183132 0.04923896 -0.02018716
v 0.01984284 0.04621266 -0.02018716
v 0.01812670 0.04370280 -0.01956110
v 0.01305338 0.04369958 -0.01938053
v 0.02050488 0.04662292 -0.02018716
v 0.02137118 0.04757377 -0.02018716
v 0.02158951 0.04810792 -0.02018716
v 0.02169985 0.04842648 -0.02018716
f 1 2 8
f 1 8 3
f 1 3 4
f 1 4 5
f 1 5 6
f 1 6 7
f 1 7 9
f 1 9 2
f 2 9 10
f 2 10 8
f 3 8 11
f 3 11 12
f 3 12 4
f 4 12 28
f 4 28 18
f 4 18 27
f 4 27 45
f 4 45 66
f 4 66 81
f 4 81 70
f 4 70 69
f 4 69 46
f 4 46 31
f 4 31 30
f 4 30 29
f 4 29 13
f 4 13 5
f 5 13 14
f 5 14 15
f 5 15 6
f 6 16 34
f 6 34 52
f 6 52 77
f 6 77 94
f 6 94 93
f 6 93 92
f 6 92 91
f 6 91 103
f 6 103 95
f 6 95 78
f 6 78 54
f 6 54 39
f 6 39 35
f 6 35 17
f 6 17 7
f 6 15 16
f 7 17 9
f 8 18 19
f 8 19 11
f 8 10 18
f 9 17 20
f 9 20 21
f 9 21 22
f 9 22 23
f 9 23 24
f 9 24 10
f 10 24 25
f 10 25 26
f 10 26 27
f 10 27 18
f 11 19 18
f 11 18 28
f 11 28 12
f 13 29 14
f 14 29 30
f 14 30 31
f 14 31 32
f 14 32 33
f 14 33 34
f 14 34 15
f 15 34 16
f 17 35 36
f 17 36 37
f 17 37 20
f 20 37 22
f 20 22 21
f 22 37 38
f 22 38 23
f 23 38 39
f 23 39 40
f 23 40 41
f 23 41 42
f 23 42 43
f 23 43 24
f 24 43 44
f 24 44 26
f 24 26 25
f 26 44 45
f 26 45 27
f 31 46 47
f 31 47 48
f 31 48 49
f 31 49 50
f 31 50 51
f 31 51 33
f 31 33 32
f 33 51 52
f 33 52 34
f 35 39 38
f 35 38 53
f 35 53 36
f 36 53 37
f 37 53 38
f 39 54 55
f 39 55 56
f 39 56 40
f 40 56 41
f 41 56 42
f 42 56 43
f 43 56 44
f 44 56 57
f 44 57 58
f 44 58 59
f 44 59 60
f 44 60 61
f 44 61 62
f 44 62 63
f 44 63 64
f 44 64 65
f 44 65 45
f 45 65 67
f 45 67 68
f 45 68 66
f 46 69 47
f 47 69 70
f 47 70 71
f 47 71 72
f 47 72 48
f 48 72 49
f 49 72 50
f 50 73 51
f 50 72 71
f 50 71 70
f 50 70 81
f 50 81 83
f 50 83 82
f 50 82 68
f 50 68 87
f 50 87 101
f 50 101 107
f 50 107 102
f 50 102 88
f 50 88 73
f 51 74 75
f 51 75 76
f 51 76 52
f 51 73 74
f 52 76 77
f 54 78 55
f 55 78 79
f 55 79 99
f 55 99 98
f 55 98 97
f 55 97 96
f 55 96 104
f 55 104 111
f 55 111 110
f 55 110 109
f 55 109 108
f 55 108 105
f 55 105 100
f 55 100 86
f 55 86 85
f 55 85 84
f 55 84 80
f 55 80 65
f 55 65 64
f 55 64 63
f 55 63 62
f 55 62 61
f 55 61 60
f 55 60 59
f 55 59 58
f 55 58 57
f 55 57 56
f 65 80 67
f 66 68 82
f 66 82 83
f 66 83 81
f 67 80 68
f 68 80 84
f 68 84 85
f 68 85 86
f 68 86 87
f 73 88 74
f 74 89 90
f 74 90 91
f 74 91 92
f 74 92 93
f 74 93 94
f 74 94 75
f 74 88 89
f 75 94 76
f 76 94 77
f 78 95 96
f 78 96 97
f 78 97 98
f 78 98 99
f 78 99 79
f 86 100 101
f 86 101 87
f 88 102 89
f 89 102 90
f 90 102 91
f 91 102 107
f 91 107 103
f 95 103 96
f 96 103 104
f 100 105 103
f 100 103 106
f 100 106 101
f 101 106 103
f 101 103 107
f 103 105 108
f 103 108 109
f 103 109 110
f 103 110 111
f 103 111 104

