# https://github.com/mikedh/trimesh
v 0.01462280 -0.05058155 -0.01319258
v 0.01462280 -0.05058155 -0.01575032
v 0.01458517 -0.05058155 -0.01318363
v 0.01462280 -0.05288479 -0.01141275
v 0.01462280 -0.05256552 -0.01575032
v 0.01278190 -0.05058155 -0.01575032
v 0.01452728 -0.05058155 -0.01316999
v 0.01452728 -0.05289155 -0.01141745
v 0.01462280 -0.05357475 -0.01115721
v 0.01462280 -0.05567844 -0.01521665
v 0.01452728 -0.05569738 -0.01522606
v 0.00485968 -0.05579547 -0.01575032
v 0.01313793 -0.05058155 -0.01442556
v 0.00252817 -0.05289155 -0.01575032
v 0.01356197 -0.05058155 -0.01348482
v -0.00016226 -0.05445479 -0.01311163
v 0.00208097 -0.05422074 -0.01271020
v 0.00288129 -0.05412333 -0.01263491
v 0.01390786 -0.05296799 -0.01147063
v 0.01452728 -0.05357475 -0.01116662
v -0.00016226 -0.05502366 -0.01251490
v 0.01332752 -0.05477406 -0.01106450
v 0.01462280 -0.05467936 -0.01095861
v 0.01462280 -0.05571565 -0.01519830
v 0.01452728 -0.05629738 -0.01491311
v 0.01332752 -0.05578735 -0.01527500
v 0.00372938 -0.05613368 -0.01575032
v 0.00478008 -0.05581982 -0.01575032
v 0.00134142 -0.05329335 -0.01575032
v -0.00016226 -0.05410101 -0.01356247
v -0.00016226 -0.05531317 -0.01248526
v 0.01452728 -0.05477406 -0.01095108
v -0.00016226 -0.05597405 -0.01243820
v 0.00995254 -0.05552963 -0.01143016
v 0.01462280 -0.05477406 -0.01094308
v 0.01462280 -0.05627032 -0.01490887
v 0.01462280 -0.05635014 -0.01485946
v 0.01332752 -0.05638734 -0.01493852
v 0.00365412 -0.05614045 -0.01575032
v 0.00119236 -0.05359301 -0.01575032
v -0.00016226 -0.05477135 -0.01522888
v -0.00016226 -0.05430868 -0.01497146
v -0.00016226 -0.05410169 -0.01448298
v 0.01462280 -0.05597405 -0.01109038
v -0.00016226 -0.05664236 -0.01260997
v 0.01452728 -0.05597405 -0.01109885
v 0.01092798 -0.05571159 -0.01137133
v 0.01462280 -0.05696163 -0.01430697
v 0.00252817 -0.05613706 -0.01575032
v 0.01452728 -0.05696096 -0.01431309
v 0.01332752 -0.05694404 -0.01433850
v 0.00098540 -0.05478082 -0.01575032
v -0.00016226 -0.05558848 -0.01522936
v 0.01266468 -0.05658351 -0.01146875
v 0.01462280 -0.05666062 -0.01134216
v -0.00016226 -0.05671338 -0.01277327
v 0.01462280 -0.05725858 -0.01208336
v 0.01462280 -0.05720785 -0.01201465
v 0.01462280 -0.05672623 -0.01136710
v 0.01332752 -0.05663221 -0.01143439
v 0.01462280 -0.05700831 -0.01422650
v 0.00244423 -0.05611610 -0.01575032
v 0.00612891 -0.05686693 -0.01439026
v 0.00372938 -0.05683514 -0.01439168
v -0.00016226 -0.05678508 -0.01414649
v 0.01462280 -0.05749127 -0.01326787
v 0.00144273 -0.05568656 -0.01575032
v -0.00016226 -0.05665994 -0.01429144
v -0.00016226 -0.05685273 -0.01327540
v 0.01462280 -0.05748180 -0.01319163
v -0.00016226 -0.05683379 -0.01351965
v 0.01332752 -0.05744122 -0.01327540
v 0.00372938 -0.05702251 -0.01327540
f 1 2 6
f 1 6 13
f 1 13 15
f 1 15 7
f 1 7 3
f 1 3 4
f 1 4 9
f 1 9 23
f 1 23 35
f 1 35 44
f 1 44 55
f 1 55 59
f 1 59 58
f 1 58 57
f 1 57 70
f 1 70 66
f 1 66 61
f 1 61 48
f 1 48 37
f 1 37 36
f 1 36 24
f 1 24 10
f 1 10 5
f 1 5 2
f 2 5 12
f 2 12 28
f 2 28 27
f 2 27 39
f 2 39 49
f 2 49 62
f 2 62 67
f 2 67 52
f 2 52 40
f 2 40 29
f 2 29 14
f 2 14 6
f 3 7 4
f 4 7 8
f 4 8 9
f 5 10 11
f 5 11 12
f 6 14 13
f 7 15 16
f 7 16 17
f 7 17 18
f 7 18 19
f 7 19 8
f 8 20 9
f 8 19 21
f 8 21 20
f 9 20 22
f 9 22 23
f 10 24 11
f 11 24 25
f 11 25 26
f 11 26 27
f 11 27 28
f 11 28 12
f 13 14 15
f 14 29 30
f 14 30 15
f 15 30 16
f 16 30 43
f 16 43 42
f 16 42 41
f 16 41 53
f 16 53 68
f 16 68 65
f 16 65 71
f 16 71 69
f 16 69 56
f 16 56 45
f 16 45 33
f 16 33 31
f 16 31 21
f 16 21 17
f 17 21 18
f 18 21 19
f 20 21 22
f 21 31 22
f 22 32 23
f 22 31 33
f 22 33 34
f 22 34 32
f 23 32 35
f 24 36 25
f 25 36 37
f 25 37 38
f 25 38 27
f 25 27 26
f 27 38 39
f 29 40 41
f 29 41 42
f 29 42 43
f 29 43 30
f 32 44 35
f 32 34 44
f 33 45 46
f 33 46 47
f 33 47 34
f 34 47 44
f 37 48 38
f 38 48 39
f 39 48 50
f 39 50 51
f 39 51 49
f 40 52 41
f 41 52 53
f 44 47 46
f 44 46 45
f 44 45 54
f 44 54 55
f 45 56 57
f 45 57 58
f 45 58 59
f 45 59 60
f 45 60 54
f 48 61 50
f 49 51 63
f 49 63 64
f 49 64 65
f 49 65 62
f 50 61 51
f 51 61 66
f 51 66 63
f 52 67 53
f 53 67 68
f 54 60 55
f 55 60 59
f 56 69 57
f 57 69 70
f 62 65 68
f 62 68 67
f 63 66 64
f 64 66 65
f 65 66 72
f 65 72 71
f 66 70 72
f 69 73 70
f 69 71 73
f 70 73 72
f 71 72 73

