# https://github.com/mikedh/trimesh
v 0.00372848 -0.02505756 0.00627668
v 0.00372848 -0.02553614 0.00640487
v 0.00285338 -0.02550555 0.00642985
v 0.00260462 -0.02505756 0.00633716
v 0.01092773 -0.02505756 0.00636016
v 0.00252910 -0.02680934 0.00752569
v -0.00084545 -0.02673586 0.00761509
v 0.01092773 -0.02543398 0.00647652
v -0.00084545 -0.02611715 0.00721475
v -0.00084545 -0.02534438 0.00673487
v -0.00084545 -0.02517229 0.00664152
v -0.00084545 -0.02505756 0.00658893
v 0.01121943 -0.02505756 0.00637134
v 0.01158665 -0.02541267 0.00649493
v -0.00084545 -0.02726825 0.00832506
v 0.01428156 -0.02714615 0.00827181
v -0.00084545 -0.02505756 0.00874315
v 0.01183245 -0.02505756 0.00642196
v 0.01428156 -0.02643047 0.00761969
v 0.00612873 -0.02784271 0.00995074
v 0.00492935 -0.02784817 0.00995403
v 0.00181392 -0.02778999 0.01007499
v -0.00084545 -0.02731605 0.00855185
v 0.01428156 -0.02738598 0.00947941
v -0.00084545 -0.02589589 0.01299241
v 0.00285782 -0.02505756 0.01027417
v 0.01428156 -0.02505756 0.00748690
v 0.00612873 -0.02784271 0.01041288
v 0.00688537 -0.02780337 0.01005461
v 0.00492935 -0.02784817 0.01040630
v 0.00181392 -0.02778999 0.01022553
v -0.00084545 -0.02749552 0.00952542
v 0.01428156 -0.02721389 0.01072447
v 0.01332797 -0.02712730 0.01299241
v 0.01332797 -0.02742668 0.01072447
v 0.01212711 -0.02752393 0.01072447
v 0.00371812 -0.02505756 0.01052792
v 0.00329019 -0.02505756 0.01045100
v -0.00084545 -0.02717292 0.01299241
v 0.01428156 -0.02524905 0.01299241
v 0.01428156 -0.02505756 0.01034254
v 0.00688537 -0.02780337 0.01028798
v 0.01319471 -0.02713604 0.01299241
v 0.00732663 -0.02725705 0.01299241
v 0.00612873 -0.02727672 0.01299241
v 0.00479608 -0.02727726 0.01299241
v 0.00252910 -0.02727289 0.01299241
v 0.00239584 -0.02727207 0.01299241
v 0.00132824 -0.02726279 0.01299241
v -0.00084545 -0.02727317 0.01192484
v 0.01428156 -0.02687982 0.01299241
v 0.00938038 -0.02505756 0.01091445
v 0.00972687 -0.02505756 0.01091643
f 1 2 3
f 1 3 4
f 1 4 12
f 1 12 17
f 1 17 26
f 1 26 38
f 1 38 37
f 1 37 52
f 1 52 53
f 1 53 41
f 1 41 27
f 1 27 18
f 1 18 13
f 1 13 5
f 1 5 2
f 2 6 7
f 2 7 3
f 2 5 8
f 2 8 6
f 3 7 9
f 3 9 10
f 3 10 11
f 3 11 12
f 3 12 4
f 5 13 14
f 5 14 8
f 6 15 7
f 6 8 16
f 6 16 15
f 7 15 23
f 7 23 32
f 7 32 50
f 7 50 39
f 7 39 25
f 7 25 17
f 7 17 12
f 7 12 11
f 7 11 10
f 7 10 9
f 8 14 16
f 13 18 14
f 14 18 19
f 14 19 16
f 15 20 21
f 15 21 22
f 15 22 23
f 15 16 20
f 16 19 27
f 16 27 41
f 16 41 40
f 16 40 51
f 16 51 33
f 16 33 24
f 16 24 20
f 17 25 26
f 18 27 19
f 20 28 30
f 20 30 21
f 20 24 29
f 20 29 42
f 20 42 28
f 21 30 31
f 21 31 22
f 22 31 32
f 22 32 23
f 24 33 34
f 24 34 35
f 24 35 36
f 24 36 29
f 25 37 38
f 25 38 26
f 25 39 49
f 25 49 48
f 25 48 47
f 25 47 46
f 25 46 45
f 25 45 44
f 25 44 43
f 25 43 34
f 25 34 51
f 25 51 40
f 25 40 37
f 28 42 36
f 28 36 43
f 28 43 44
f 28 44 45
f 28 45 30
f 29 36 42
f 30 46 47
f 30 47 48
f 30 48 49
f 30 49 31
f 30 45 46
f 31 49 39
f 31 39 50
f 31 50 32
f 33 51 34
f 34 43 36
f 34 36 35
f 37 40 52
f 40 41 53
f 40 53 52

