# https://github.com/mikedh/trimesh
v 0.02928787 -0.00019937 0.00620980
v 0.03456442 -0.00019937 0.00556771
v 0.02928787 -0.00019937 0.00741982
v 0.02928787 0.00402731 0.00607481
v 0.03616638 -0.00019937 0.00556771
v 0.03448362 0.00162718 0.00556771
v 0.02949392 -0.00019937 0.00743056
v 0.03058546 0.00091822 0.00774445
v 0.03047099 0.00162718 0.00776168
v 0.02928787 0.00088376 0.00747935
v 0.02928787 0.02494900 0.00618898
v 0.03460146 0.01957026 0.00556771
v 0.03459742 0.01907793 0.00556771
v 0.03616638 -0.00019937 0.00729329
v 0.03616638 0.02494900 0.00556771
v 0.03014372 -0.00019937 0.00743381
v 0.03080700 0.00091822 0.00774445
v 0.03616638 0.00522614 0.00818779
v 0.03616638 0.01602300 0.00876711
v 0.02928787 0.01158954 0.00778998
v 0.03252814 0.02494900 0.00857975
v 0.03132819 0.02494900 0.00844216
v 0.03010467 0.02494900 0.00826033
v 0.02928787 0.02494900 0.00797734
v 0.03527281 0.02494900 0.00556771
v 0.03492737 -0.00019937 0.00739445
v 0.03616638 0.02494900 0.00873230
v 0.03616638 0.02202455 0.00889071
v 0.03616638 0.02256365 0.00888941
f 1 2 5
f 1 5 14
f 1 14 26
f 1 26 16
f 1 16 7
f 1 7 3
f 1 3 10
f 1 10 20
f 1 20 24
f 1 24 11
f 1 11 4
f 1 4 2
f 2 4 6
f 2 6 13
f 2 13 12
f 2 12 25
f 2 25 15
f 2 15 5
f 3 7 8
f 3 8 9
f 3 9 10
f 4 11 12
f 4 12 13
f 4 13 6
f 5 15 27
f 5 27 29
f 5 29 28
f 5 28 19
f 5 19 18
f 5 18 14
f 7 16 8
f 8 16 17
f 8 17 18
f 8 18 19
f 8 19 9
f 9 20 10
f 9 19 21
f 9 21 22
f 9 22 23
f 9 23 20
f 11 24 23
f 11 23 22
f 11 22 21
f 11 21 27
f 11 27 15
f 11 15 25
f 11 25 12
f 14 18 26
f 16 26 17
f 17 26 18
f 19 28 21
f 20 23 24
f 21 28 29
f 21 29 27

