# https://github.com/mikedh/trimesh
v -0.01033872 -0.00010552 0.05473371
v -0.01021494 0.02489746 0.05470637
v -0.01188172 -0.00010552 0.05473371
v -0.01026376 -0.02552309 0.05473371
v -0.01040307 0.02664087 0.03146192
v -0.01040307 0.02689600 0.03445973
v -0.01040307 0.02690663 0.03472625
v -0.01040307 0.02692789 0.03565795
v -0.01040307 0.02693320 0.03592675
v -0.01040307 0.02694915 0.03925487
v -0.01040307 0.02697041 0.04413885
v -0.01165464 0.02489746 0.05470637
v -0.01010029 -0.02552840 0.05011853
v -0.00999451 -0.02552840 0.04552613
v -0.01190392 -0.00556960 0.05473371
v -0.01171159 0.02441909 0.05470637
v -0.01182132 0.01961941 0.05470637
v -0.01079067 -0.02552840 0.05473371
v -0.01048296 -0.02730901 0.04413885
v -0.01067232 0.02662492 0.03146192
v -0.01040307 -0.00250270 0.03146192
v -0.01067232 0.02689068 0.03472625
v -0.01067232 0.02691726 0.03592675
v -0.01067232 0.02694384 0.04413885
v -0.01178630 0.02489746 0.05392275
v -0.01138563 0.02656114 0.04413885
v -0.01150842 0.02649204 0.04413885
v -0.01048296 -0.02733027 0.04331194
v -0.01048296 -0.02725055 0.03952595
v -0.01048296 -0.02719739 0.03731631
v -0.01048296 -0.02719208 0.03712724
v -0.01048296 -0.02700604 0.03146192
v -0.01190465 -0.00596293 0.05473371
v -0.01187087 0.00642694 0.05470637
v -0.01251318 0.01361317 0.03146192
v -0.01179173 0.02441909 0.05392275
v -0.01178877 -0.02552840 0.05473371
v -0.01067232 -0.02727712 0.04413885
v -0.01140783 0.02635916 0.03146192
v -0.01151089 0.02650267 0.03472625
v -0.01178902 0.02489746 0.05272225
v -0.01154467 0.02635916 0.04413885
v -0.01174094 0.02562034 0.04413885
v -0.01177891 0.02562034 0.03472625
v -0.01067232 -0.02729838 0.04312059
v -0.01067232 -0.02722929 0.03952595
v -0.01067232 -0.02717613 0.03712724
v -0.01067232 -0.02699541 0.03146192
v -0.01187605 -0.01876739 0.05392275
v -0.01182995 -0.02396040 0.05473371
v -0.01183315 0.02441909 0.03146192
v -0.01237757 -0.00917335 0.03146192
v -0.01181047 -0.02515633 0.05473371
v -0.01180258 -0.02552840 0.05436467
v -0.01140092 -0.02679875 0.04312059
v -0.01136862 -0.02675091 0.04413885
v -0.01078451 -0.02720271 0.04413885
v -0.01161790 0.02582763 0.03146192
v -0.01168398 0.02562034 0.03146192
v -0.01141276 -0.02679875 0.04192465
v -0.01145886 -0.02678812 0.03832545
v -0.01146626 -0.02678812 0.03712724
v -0.01144703 -0.02674028 0.03146192
v -0.01124386 -0.02682001 0.03146192
v -0.01182403 -0.02476832 0.05473371
v -0.01234675 -0.01397303 0.03146192
v -0.01180849 -0.02552840 0.05392275
v -0.01173329 -0.02596957 0.03146192
v -0.01183488 -0.02476832 0.05392275
v -0.01181096 -0.02477364 0.03146192
v -0.01175967 -0.02563471 0.03146192
f 1 2 12
f 1 12 3
f 1 3 15
f 1 15 33
f 1 33 50
f 1 50 65
f 1 65 53
f 1 53 37
f 1 37 18
f 1 18 4
f 1 4 2
f 2 5 6
f 2 6 7
f 2 7 8
f 2 8 9
f 2 9 10
f 2 10 11
f 2 11 12
f 2 4 13
f 2 13 14
f 2 14 5
f 3 12 16
f 3 16 17
f 3 17 15
f 4 18 19
f 4 19 13
f 5 20 6
f 5 14 21
f 5 21 32
f 5 32 48
f 5 48 64
f 5 64 63
f 5 63 68
f 5 68 71
f 5 71 70
f 5 70 66
f 5 66 52
f 5 52 35
f 5 35 51
f 5 51 59
f 5 59 58
f 5 58 39
f 5 39 20
f 6 22 7
f 6 20 22
f 7 22 8
f 8 23 9
f 8 22 23
f 9 23 10
f 10 23 11
f 11 23 24
f 11 24 12
f 12 25 16
f 12 24 26
f 12 26 27
f 12 27 25
f 13 19 14
f 14 19 28
f 14 28 29
f 14 29 30
f 14 30 31
f 14 31 32
f 14 32 21
f 15 17 34
f 15 34 35
f 15 35 33
f 16 25 17
f 17 25 36
f 17 36 35
f 17 35 34
f 18 37 19
f 19 38 28
f 19 37 38
f 20 39 22
f 22 39 40
f 22 40 23
f 23 40 24
f 24 40 26
f 25 41 35
f 25 35 36
f 25 27 42
f 25 42 43
f 25 43 44
f 25 44 41
f 26 40 27
f 27 40 44
f 27 44 42
f 28 38 45
f 28 45 46
f 28 46 29
f 29 46 47
f 29 47 30
f 30 47 31
f 31 47 48
f 31 48 32
f 33 35 49
f 33 49 50
f 35 41 44
f 35 44 51
f 35 52 50
f 35 50 49
f 37 53 54
f 37 54 55
f 37 55 56
f 37 56 57
f 37 57 38
f 38 57 45
f 39 58 40
f 40 58 59
f 40 59 44
f 42 44 43
f 44 59 51
f 45 57 55
f 45 55 60
f 45 60 61
f 45 61 62
f 45 62 63
f 45 63 46
f 46 63 47
f 47 63 64
f 47 64 48
f 50 52 66
f 50 66 65
f 53 65 54
f 54 67 55
f 54 65 67
f 55 61 60
f 55 57 56
f 55 67 61
f 61 67 62
f 62 67 68
f 62 68 63
f 65 66 69
f 65 69 67
f 66 70 67
f 66 67 69
f 67 70 71
f 67 71 68

