# https://github.com/mikedh/trimesh
v 0.00712706 -0.01756600 0.00704782
v 0.00731988 -0.01756600 0.00701209
v 0.00712706 -0.01756600 0.01038386
v 0.00712706 -0.00019937 0.00744089
v 0.01092905 -0.01756600 0.00647069
v 0.01186982 -0.01756600 0.01159678
v 0.01088084 -0.01755920 0.01299241
v 0.00972858 -0.01755070 0.01299241
v 0.00959485 -0.01752520 0.01299241
v 0.00873338 -0.01724811 0.01299241
v 0.00712706 -0.01653074 0.01299241
v 0.00712706 -0.00019937 0.01046611
v 0.00731677 -0.00019937 0.00741932
v 0.02052653 -0.01037354 0.00610459
v 0.01932762 -0.01517418 0.00613021
v 0.01932762 -0.01637434 0.00612549
v 0.01931829 -0.01756600 0.00612346
v 0.00795432 -0.00019937 0.00735392
v 0.02052653 -0.00019937 0.00620370
v 0.02052653 -0.00197581 0.00617605
v 0.02052653 -0.00677476 0.00613358
v 0.02178608 -0.01756600 0.01299241
v 0.00712706 -0.00435064 0.01299241
v 0.00730433 -0.00019937 0.01054163
v 0.02172699 -0.01037354 0.00615583
v 0.02052653 -0.01157370 0.00610863
v 0.01932762 -0.01756600 0.00612346
v 0.02172699 -0.00197581 0.00614976
v 0.02115164 -0.00019937 0.00621853
v 0.02301298 -0.01756600 0.01299241
v 0.00881113 -0.00342927 0.01299241
v 0.00900706 -0.00019937 0.01108168
v 0.02254959 -0.01037354 0.00637832
v 0.02253093 -0.01157370 0.00640057
v 0.02172699 -0.01157370 0.00619493
v 0.02052653 -0.01637434 0.00616661
v 0.02298033 -0.00204721 0.00637495
v 0.02301298 -0.00207781 0.00638236
v 0.02053741 -0.01756600 0.00628595
v 0.02172699 -0.00019937 0.00625291
v 0.02301298 -0.01756600 0.00703433
v 0.02301298 -0.01631654 0.01299241
v 0.00979078 -0.00334087 0.01299241
v 0.01047032 -0.00019937 0.01142485
v 0.01008468 -0.00019937 0.01138238
v 0.00977212 -0.00019937 0.01131091
v 0.02301298 -0.00303318 0.00639720
v 0.02301298 -0.01157370 0.00670194
v 0.02301298 -0.01509258 0.00687589
v 0.02233811 -0.01461320 0.00651991
v 0.02145953 -0.01637434 0.00638574
v 0.02130559 -0.01716652 0.00642282
v 0.02054830 -0.01756600 0.00628797
v 0.02217639 -0.00019937 0.00634461
v 0.02252471 -0.00019937 0.00643630
v 0.02301298 -0.00207101 0.00638236
v 0.02301298 -0.01148020 0.01183815
v 0.01937583 -0.00019937 0.01119966
v 0.01904150 -0.00019937 0.01130080
v 0.01887201 -0.00019937 0.01134664
v 0.01092283 -0.00437444 0.01299241
v 0.01091661 -0.00019937 0.01143092
v 0.02283727 -0.00019937 0.00659677
v 0.02301298 -0.00124484 0.00650103
v 0.02301298 -0.00575139 0.01043712
v 0.02027928 -0.00019937 0.01059084
v 0.02301298 -0.00019937 0.00668913
v 0.02301298 -0.00019937 0.00837738
f 1 2 5
f 1 5 17
f 1 17 27
f 1 27 39
f 1 39 53
f 1 53 41
f 1 41 30
f 1 30 22
f 1 22 6
f 1 6 3
f 1 3 11
f 1 11 23
f 1 23 12
f 1 12 4
f 1 4 2
f 2 4 5
f 3 6 7
f 3 7 8
f 3 8 9
f 3 9 10
f 3 10 11
f 4 12 24
f 4 24 32
f 4 32 46
f 4 46 45
f 4 45 44
f 4 44 62
f 4 62 60
f 4 60 59
f 4 59 58
f 4 58 66
f 4 66 68
f 4 68 67
f 4 67 63
f 4 63 55
f 4 55 54
f 4 54 40
f 4 40 29
f 4 29 19
f 4 19 18
f 4 18 13
f 4 13 5
f 5 14 15
f 5 15 16
f 5 16 17
f 5 13 18
f 5 18 19
f 5 19 20
f 5 20 21
f 5 21 14
f 6 22 7
f 7 22 30
f 7 30 42
f 7 42 61
f 7 61 43
f 7 43 31
f 7 31 23
f 7 23 11
f 7 11 10
f 7 10 9
f 7 9 8
f 12 23 24
f 14 25 26
f 14 26 27
f 14 27 17
f 14 17 16
f 14 16 15
f 14 21 28
f 14 28 25
f 19 29 28
f 19 28 20
f 20 28 21
f 23 31 24
f 24 31 32
f 25 33 34
f 25 34 35
f 25 35 36
f 25 36 26
f 25 28 37
f 25 37 38
f 25 38 33
f 26 36 27
f 27 36 39
f 28 29 40
f 28 40 37
f 30 41 49
f 30 49 48
f 30 48 47
f 30 47 38
f 30 38 56
f 30 56 64
f 30 64 67
f 30 67 68
f 30 68 65
f 30 65 57
f 30 57 42
f 31 43 44
f 31 44 45
f 31 45 46
f 31 46 32
f 33 38 47
f 33 47 34
f 34 48 49
f 34 49 41
f 34 41 50
f 34 50 51
f 34 51 35
f 34 47 48
f 35 51 36
f 36 51 52
f 36 52 53
f 36 53 39
f 37 40 54
f 37 54 55
f 37 55 56
f 37 56 38
f 41 53 52
f 41 52 51
f 41 51 50
f 42 57 58
f 42 58 59
f 42 59 60
f 42 60 61
f 43 60 62
f 43 62 44
f 43 61 60
f 55 63 64
f 55 64 56
f 57 65 58
f 58 65 66
f 63 67 64
f 65 68 66

