# https://github.com/mikedh/trimesh
v -0.04161387 0.03081179 0.00970895
v -0.04160272 0.03081179 0.01068011
v -0.04139877 0.03114258 0.00982158
v -0.04131432 0.03106770 0.00522966
v -0.04146489 0.03081179 0.00592514
v -0.04149358 0.03081179 0.01111016
v -0.04127927 0.03103561 0.01133306
v -0.04137248 0.03112119 0.01072422
v -0.03675569 0.03612666 0.01072422
v -0.04070884 0.03161162 0.00349449
v -0.04111674 0.03081179 0.00349449
v -0.04136690 0.03081179 0.00518003
v -0.03673577 0.03610362 0.00952464
v -0.04134539 0.03081179 0.01139135
v -0.04015514 0.03231022 0.01140474
v -0.03662105 0.03598760 0.01145672
v -0.03613985 0.03672653 0.01072422
v -0.03347494 0.03917948 0.00349449
v -0.03347494 0.03081179 0.00349449
v -0.04115419 0.03081179 0.01148192
v -0.03940307 0.03275621 0.01149216
v -0.03704170 0.03518037 0.01151500
v -0.03583791 0.03640314 0.01149846
v -0.03541486 0.03713549 0.01143624
v -0.03553994 0.03723177 0.01072422
v -0.03347494 0.03918277 0.00975306
v -0.03347494 0.03921816 0.00952464
v -0.03367172 0.03904700 0.00952464
v -0.03347494 0.03081179 0.00843613
v -0.04027066 0.03081179 0.01154100
v -0.03347733 0.03759465 0.01153391
v -0.03347494 0.03845207 0.01148744
v -0.03456640 0.03757161 0.01148271
v -0.03409555 0.03824389 0.01134566
v -0.03347494 0.03891370 0.01076754
v -0.03990897 0.03081179 0.01146460
v -0.03347494 0.03759465 0.01153391
v -0.03388045 0.03689028 0.01145593
v -0.03347494 0.03794436 0.01151500
f 1 2 3
f 1 3 4
f 1 4 5
f 1 5 12
f 1 12 11
f 1 11 19
f 1 19 29
f 1 29 36
f 1 36 30
f 1 30 20
f 1 20 14
f 1 14 6
f 1 6 2
f 2 6 7
f 2 7 8
f 2 8 3
f 3 8 9
f 3 9 4
f 4 10 11
f 4 11 12
f 4 12 5
f 4 9 13
f 4 13 10
f 6 14 7
f 7 14 15
f 7 15 8
f 8 15 9
f 9 16 17
f 9 17 18
f 9 18 13
f 9 15 16
f 10 13 18
f 10 18 19
f 10 19 11
f 14 20 15
f 15 20 21
f 15 21 16
f 16 22 23
f 16 23 24
f 16 24 17
f 16 21 22
f 17 24 25
f 17 25 26
f 17 26 27
f 17 27 28
f 17 28 18
f 18 28 27
f 18 27 26
f 18 26 35
f 18 35 32
f 18 32 39
f 18 39 37
f 18 37 29
f 18 29 19
f 20 30 21
f 21 30 22
f 22 31 32
f 22 32 23
f 22 30 31
f 23 32 33
f 23 33 24
f 24 33 32
f 24 32 34
f 24 34 25
f 25 34 35
f 25 35 26
f 29 37 38
f 29 38 36
f 30 36 37
f 30 37 31
f 31 37 39
f 31 39 32
f 32 35 34
f 36 38 37

