# https://github.com/mikedh/trimesh
v -0.01193926 -0.00556871 0.05512512
v -0.01190332 -0.00556871 0.05473488
v -0.01190332 -0.00595916 0.05473488
v -0.01182919 -0.02395955 0.05473488
v -0.01181796 -0.02477011 0.05512512
v -0.01159783 -0.01156884 0.05608220
v -0.01160457 -0.00556871 0.05609688
v -0.01160008 0.00162255 0.05606794
v -0.01156414 0.01961800 0.05604858
v -0.01184941 0.01961800 0.05512512
v -0.01186963 0.00642661 0.05470765
v -0.01188086 0.00000637 0.05470765
v -0.01188086 -0.00010731 0.05470765
v -0.01182246 -0.02477011 0.05473488
v -0.01180898 -0.02516057 0.05473488
v -0.01177304 -0.02553125 0.05512512
v -0.01146531 -0.02553125 0.05599985
v -0.01149900 -0.02477011 0.05601092
v -0.01154842 -0.01636796 0.05606709
v -0.01067015 -0.02553125 0.05645477
v -0.01067015 -0.01156884 0.05648988
v -0.01067015 0.01601990 0.05653712
v -0.01067015 0.01961800 0.05645435
v -0.01067015 0.02441711 0.05628455
v -0.01140915 0.02441711 0.05589027
v -0.01166747 0.02441711 0.05512512
v -0.01171015 0.02441711 0.05470765
v -0.01182021 0.01961800 0.05470765
v 0.00944017 0.02496078 0.05450551
v -0.01178652 -0.02553125 0.05473488
v -0.00947067 -0.02553125 0.05655584
v 0.00944017 0.01242179 0.05667925
v 0.00732649 0.02496078 0.05658287
v -0.00947067 0.02489653 0.05647797
v -0.01019620 0.02489653 0.05636902
v -0.01138445 0.02489653 0.05586240
v -0.01071058 0.02489653 0.05621901
v -0.01151697 0.02489653 0.05546876
v -0.01160682 0.02489653 0.05516491
v -0.01165399 0.02489653 0.05470765
v -0.00204021 0.02496078 0.05507980
v 0.00944017 0.02496078 0.05653840
v 0.01100802 -0.00010731 0.05512512
v 0.01099005 -0.00010731 0.05475127
v 0.01099230 -0.00077454 0.05475127
v 0.01095636 -0.01959537 0.05475127
v 0.01092716 -0.02319347 0.05475127
v 0.01092267 -0.02356910 0.05475127
v 0.01090021 -0.02477011 0.05475127
v 0.01083731 -0.02534838 0.05475127
v -0.01026134 -0.02552631 0.05473488
v -0.01078695 -0.02553125 0.05473488
v -0.00208064 -0.02553125 0.05642945
v 0.00794869 -0.02534838 0.05646137
v 0.01065537 -0.00197061 0.05611688
v 0.00852596 0.02496078 0.05657393
v 0.00972544 -0.02356910 0.05642796
v 0.01064414 -0.02356910 0.05604922
v -0.00204021 0.02496078 0.05647882
v 0.01066435 -0.00010731 0.05607794
v 0.01066435 -0.00077454 0.05608348
v 0.01100802 -0.00077454 0.05512512
v 0.01096310 -0.01997100 0.05512512
v 0.01094962 -0.02356910 0.05512512
v 0.01091144 -0.02477011 0.05512512
v 0.01085079 -0.02534838 0.05512512
v -0.00208064 -0.02553125 0.05497043
v -0.01026134 -0.02553125 0.05473701
v 0.01052734 -0.02534838 0.05592347
v 0.01017693 -0.02534838 0.05609497
v 0.00972544 -0.02534838 0.05629051
v 0.00915041 -0.02534838 0.05640818
v 0.00852596 -0.02534838 0.05644541
v 0.00972544 -0.02477011 0.05636668
v 0.01059472 -0.02477011 0.05599070
f 1 2 3
f 1 3 4
f 1 4 5
f 1 5 6
f 1 6 7
f 1 7 8
f 1 8 9
f 1 9 10
f 1 10 11
f 1 11 2
f 2 11 12
f 2 12 13
f 2 13 3
f 3 13 4
f 4 14 5
f 4 13 14
f 5 14 15
f 5 15 16
f 5 16 17
f 5 17 18
f 5 18 6
f 6 18 19
f 6 19 20
f 6 20 7
f 7 20 21
f 7 21 22
f 7 22 9
f 7 9 8
f 9 23 24
f 9 24 25
f 9 25 26
f 9 26 10
f 9 22 23
f 10 26 27
f 10 27 28
f 10 28 11
f 11 28 29
f 11 29 12
f 12 29 13
f 13 29 30
f 13 30 15
f 13 15 14
f 15 30 16
f 16 30 52
f 16 52 68
f 16 68 67
f 16 67 53
f 16 53 31
f 16 31 20
f 16 20 17
f 17 20 18
f 18 20 19
f 20 31 21
f 21 31 22
f 22 32 33
f 22 33 34
f 22 34 23
f 22 31 32
f 23 34 35
f 23 35 24
f 24 36 25
f 24 35 37
f 24 37 36
f 25 36 26
f 26 36 38
f 26 38 39
f 26 39 40
f 26 40 27
f 27 40 29
f 27 29 28
f 29 40 41
f 29 41 59
f 29 59 33
f 29 33 56
f 29 56 42
f 29 42 43
f 29 43 44
f 29 44 45
f 29 45 46
f 29 46 47
f 29 47 48
f 29 48 49
f 29 49 50
f 29 50 51
f 29 51 52
f 29 52 30
f 31 53 54
f 31 54 32
f 32 55 42
f 32 42 56
f 32 56 33
f 32 54 57
f 32 57 58
f 32 58 55
f 33 59 34
f 34 59 35
f 35 59 37
f 36 37 59
f 36 59 38
f 38 59 39
f 39 59 40
f 40 59 41
f 42 55 60
f 42 60 43
f 43 60 61
f 43 61 55
f 43 55 62
f 43 62 45
f 43 45 44
f 45 62 46
f 46 63 64
f 46 64 47
f 46 62 63
f 47 64 48
f 48 64 49
f 49 64 65
f 49 65 66
f 49 66 50
f 50 66 67
f 50 67 68
f 50 68 51
f 51 68 52
f 53 67 66
f 53 66 69
f 53 69 70
f 53 70 71
f 53 71 72
f 53 72 73
f 53 73 54
f 54 73 57
f 55 61 60
f 55 58 62
f 57 73 72
f 57 72 74
f 57 74 58
f 58 74 75
f 58 75 65
f 58 65 64
f 58 64 63
f 58 63 62
f 65 75 66
f 66 75 69
f 69 75 70
f 70 75 71
f 71 75 74
f 71 74 72

