# https://github.com/mikedh/trimesh
v 0.02319844 -0.03523234 -0.00988578
v 0.02318006 -0.03521788 -0.00967496
v 0.02232626 -0.03377803 -0.00198339
v 0.02319844 -0.03464979 -0.00988578
v 0.02412857 -0.03555511 -0.00988578
v 0.02914250 -0.03723150 -0.00068239
v 0.02317582 -0.03514506 -0.00847487
v 0.02232626 -0.03377803 -0.00186176
v 0.02232626 -0.03377183 -0.00198339
v 0.02491310 -0.03195550 -0.00988578
v 0.03050094 -0.03723150 -0.00988578
v 0.02397873 -0.03476599 -0.00068239
v 0.03474730 -0.03723150 -0.00068239
v 0.02341754 -0.03445819 -0.00068239
v 0.02232626 -0.03377183 -0.00186176
v 0.02304860 -0.03413593 -0.00068239
v 0.02465017 -0.03195550 -0.00127523
v 0.03676588 -0.03195550 -0.00988578
v 0.03432323 -0.03723150 -0.00988578
v 0.03478123 -0.03723150 -0.00247532
v 0.03569864 -0.03634011 -0.00247532
v 0.03568733 -0.03632617 -0.00127523
v 0.03628809 -0.03572503 -0.00127523
v 0.03655809 -0.03540896 -0.00068239
v 0.02304860 -0.03360605 -0.00068239
v 0.02478870 -0.03195550 -0.00068239
v 0.03676588 -0.03195550 -0.00068239
v 0.03676588 -0.03468594 -0.00988578
v 0.03491976 -0.03680336 -0.00988578
v 0.03454658 -0.03723150 -0.00712431
v 0.03472327 -0.03723150 -0.00367541
v 0.03546964 -0.03637730 -0.00988578
v 0.03560817 -0.03626058 -0.00988578
v 0.03629799 -0.03572503 -0.00247532
v 0.03676588 -0.03523130 -0.00148786
v 0.03676588 -0.03522924 -0.00127523
v 0.03676588 -0.03519361 -0.00068239
v 0.03676588 -0.03496327 -0.00797032
v 0.03571560 -0.03612579 -0.00988578
v 0.03676588 -0.03501956 -0.00728199
v 0.03676588 -0.03502008 -0.00727478
v 0.03676588 -0.03507637 -0.00613866
v 0.03676588 -0.03523440 -0.00247532
f 1 2 3
f 1 3 9
f 1 9 4
f 1 4 10
f 1 10 18
f 1 18 28
f 1 28 39
f 1 39 33
f 1 33 32
f 1 32 29
f 1 29 19
f 1 19 11
f 1 11 5
f 1 5 6
f 1 6 2
f 2 7 8
f 2 8 3
f 2 6 7
f 3 8 15
f 3 15 9
f 4 9 10
f 5 11 6
f 6 12 7
f 6 11 19
f 6 19 30
f 6 30 31
f 6 31 20
f 6 20 13
f 6 13 24
f 6 24 37
f 6 37 27
f 6 27 26
f 6 26 25
f 6 25 16
f 6 16 14
f 6 14 12
f 7 12 14
f 7 14 8
f 8 14 16
f 8 16 25
f 8 25 15
f 9 15 17
f 9 17 10
f 10 17 26
f 10 26 27
f 10 27 18
f 13 20 21
f 13 21 22
f 13 22 23
f 13 23 24
f 15 25 26
f 15 26 17
f 18 27 37
f 18 37 36
f 18 36 35
f 18 35 43
f 18 43 42
f 18 42 41
f 18 41 40
f 18 40 38
f 18 38 28
f 19 29 30
f 20 31 32
f 20 32 33
f 20 33 21
f 21 33 34
f 21 34 23
f 21 23 22
f 23 34 35
f 23 35 36
f 23 36 37
f 23 37 24
f 28 38 39
f 29 32 30
f 30 32 31
f 33 39 40
f 33 40 41
f 33 41 42
f 33 42 43
f 33 43 34
f 34 43 35
f 38 40 39

