# https://github.com/mikedh/trimesh
v -0.05105560 -0.02072854 -0.01097033
v -0.05105560 -0.02122749 -0.01097399
v -0.05105560 -0.02035831 -0.01122260
v -0.05202998 -0.02171047 -0.01025132
v -0.05202998 -0.02183200 -0.01025132
v -0.05105560 -0.02189120 -0.01099592
v -0.05148171 -0.01976947 -0.01574387
v -0.05258534 -0.01976947 -0.01461660
v -0.05270039 -0.01976947 -0.01452398
v -0.05317338 -0.01976947 -0.01418641
v -0.05360730 -0.01976947 -0.01390855
v -0.05395458 -0.01976947 -0.01369772
v -0.05507171 -0.01976947 -0.01343083
v -0.05627192 -0.01976947 -0.01334187
v -0.05729673 -0.01976947 -0.01360876
v -0.05220468 -0.02171047 -0.01025132
v -0.05105560 -0.01976947 -0.01621915
v -0.05220468 -0.02183200 -0.01025132
v -0.05308318 -0.02296929 -0.01089721
v -0.05267980 -0.02296929 -0.01090331
v -0.05214218 -0.02296929 -0.01091549
v -0.05105560 -0.02208508 -0.01114217
v -0.05757441 -0.02296929 -0.01387077
v -0.05727684 -0.02296929 -0.01362216
v -0.05789683 -0.01976947 -0.01414132
v -0.05105560 -0.01976947 -0.02216383
v -0.05182970 -0.02296929 -0.01119822
v -0.05105560 -0.02296929 -0.01202448
v -0.05787695 -0.02296929 -0.01414619
v -0.05815108 -0.01976947 -0.01463853
v -0.05821642 -0.02296929 -0.01474578
v -0.05105560 -0.02011150 -0.02250749
v -0.05159960 -0.01976947 -0.02247947
v -0.05105560 -0.02296929 -0.01941816
v -0.05819227 -0.01976947 -0.01474090
v -0.05821642 -0.02296929 -0.01512844
v -0.05830803 -0.01976947 -0.01567562
v -0.05831087 -0.01976947 -0.01687479
v -0.05105560 -0.02045479 -0.02259036
v -0.05267269 -0.01976947 -0.02265130
v -0.05176294 -0.01976947 -0.02252334
v -0.05147248 -0.02296929 -0.01951200
v -0.05105560 -0.02195948 -0.02245266
v -0.05821358 -0.02296929 -0.01561834
v -0.05822210 -0.01976947 -0.01766571
v -0.05105560 -0.02117487 -0.02270126
v -0.05287723 -0.01976947 -0.02264886
v -0.05627192 -0.02296929 -0.01957659
v -0.05147248 -0.02193912 -0.02243437
v -0.05147248 -0.02117487 -0.02268177
v -0.05105560 -0.02146021 -0.02261352
v -0.05807864 -0.02181415 -0.01752435
v -0.05796927 -0.02227833 -0.01798500
v -0.05785564 -0.02296929 -0.01803253
v -0.05819440 -0.01976947 -0.01785095
v -0.05267269 -0.01997462 -0.02265496
v -0.05389493 -0.01976947 -0.02252943
v -0.05737343 -0.02296929 -0.01914884
v -0.05221249 -0.02184327 -0.02234419
v -0.05263647 -0.02119554 -0.02250628
v -0.05389990 -0.01996210 -0.02251115
v -0.05796927 -0.02117487 -0.01822874
v -0.05763904 -0.02296929 -0.01858094
v -0.05802964 -0.01976947 -0.01834939
v -0.05420954 -0.01976947 -0.02244169
v -0.05739615 -0.02237449 -0.01919393
v -0.05449219 -0.01976947 -0.02226498
v -0.05351782 -0.02080935 -0.02243072
v -0.05798064 -0.01997462 -0.01842860
v -0.05798489 -0.01976947 -0.01845176
v -0.05748706 -0.01976947 -0.01907815
v -0.05738479 -0.01976947 -0.01919515
f 1 2 6
f 1 6 22
f 1 22 28
f 1 28 34
f 1 34 43
f 1 43 51
f 1 51 46
f 1 46 39
f 1 39 32
f 1 32 26
f 1 26 17
f 1 17 3
f 1 3 4
f 1 4 5
f 1 5 2
f 2 5 6
f 3 7 8
f 3 8 9
f 3 9 10
f 3 10 11
f 3 11 12
f 3 12 13
f 3 13 14
f 3 14 15
f 3 15 16
f 3 16 4
f 3 17 7
f 4 16 18
f 4 18 5
f 5 18 19
f 5 19 20
f 5 20 21
f 5 21 6
f 6 21 22
f 7 17 26
f 7 26 33
f 7 33 41
f 7 41 40
f 7 40 47
f 7 47 57
f 7 57 65
f 7 65 67
f 7 67 72
f 7 72 71
f 7 71 70
f 7 70 64
f 7 64 55
f 7 55 45
f 7 45 38
f 7 38 37
f 7 37 35
f 7 35 30
f 7 30 25
f 7 25 15
f 7 15 14
f 7 14 13
f 7 13 12
f 7 12 11
f 7 11 10
f 7 10 9
f 7 9 8
f 15 23 24
f 15 24 18
f 15 18 16
f 15 25 23
f 18 24 19
f 19 24 23
f 19 23 29
f 19 29 31
f 19 31 36
f 19 36 44
f 19 44 54
f 19 54 63
f 19 63 58
f 19 58 48
f 19 48 42
f 19 42 34
f 19 34 28
f 19 28 27
f 19 27 21
f 19 21 20
f 21 27 22
f 22 27 28
f 23 25 29
f 25 30 31
f 25 31 29
f 26 32 33
f 30 35 31
f 31 35 37
f 31 37 38
f 31 38 36
f 32 39 40
f 32 40 41
f 32 41 33
f 34 42 43
f 36 38 44
f 38 45 44
f 39 46 40
f 40 46 47
f 42 48 43
f 43 49 50
f 43 50 51
f 43 48 49
f 44 45 52
f 44 52 53
f 44 53 54
f 45 55 52
f 46 50 56
f 46 56 47
f 46 51 50
f 47 56 57
f 48 58 59
f 48 59 49
f 49 59 60
f 49 60 50
f 50 60 61
f 50 61 56
f 52 55 53
f 53 55 62
f 53 62 63
f 53 63 54
f 55 64 62
f 56 61 57
f 57 61 65
f 58 66 67
f 58 67 65
f 58 65 68
f 58 68 59
f 58 63 62
f 58 62 69
f 58 69 70
f 58 70 66
f 59 68 60
f 60 68 61
f 61 68 65
f 62 64 69
f 64 70 69
f 66 70 71
f 66 71 72
f 66 72 67

