# https://github.com/mikedh/trimesh
v 0.03732669 -0.03437497 -0.02030254
v 0.03732669 -0.03424189 -0.02026278
v 0.03854583 -0.03424189 -0.02012412
v 0.03857750 -0.03430384 -0.02013737
v 0.03928365 -0.03508536 -0.02015369
v 0.03928365 -0.03557459 -0.02020263
v 0.03852683 -0.03557459 -0.02026788
v 0.03392101 -0.03918556 -0.02015980
v 0.03391151 -0.03917443 -0.02015980
v 0.02311023 -0.03797432 -0.01963779
v 0.02311023 -0.03424577 -0.01932580
v 0.03715886 -0.03424189 -0.02025054
v 0.03928365 -0.03424189 -0.01988146
v 0.03928365 -0.03456321 -0.02004969
v 0.03928365 -0.03918556 -0.01998648
v 0.03863292 -0.03918556 -0.02002726
v 0.02311023 -0.03918556 -0.01957050
v 0.02311023 -0.03917588 -0.01957254
v 0.02311023 -0.03815676 -0.01963779
v 0.02311023 -0.03424189 -0.01728362
v 0.02420113 -0.03424189 -0.01908824
v 0.02772872 -0.03424189 -0.01948179
v 0.02892886 -0.03424189 -0.01958171
v 0.03928365 -0.03424189 -0.01621103
v 0.03928365 -0.03918556 -0.01514967
v 0.02311023 -0.03918556 -0.01357037
v 0.02311023 -0.03424189 -0.01720205
v 0.03928365 -0.03840790 -0.01519351
v 0.03925515 -0.03424189 -0.01453793
v 0.03928365 -0.03918362 -0.01508952
v 0.03919340 -0.03918556 -0.01506402
v 0.02319890 -0.03523295 -0.00988770
v 0.02311023 -0.03623755 -0.01234077
v 0.03013375 -0.03918556 -0.00988770
v 0.02311023 -0.03559201 -0.01220517
v 0.02319890 -0.03465032 -0.00988770
v 0.02412829 -0.03433626 -0.00988770
v 0.02463653 -0.03424189 -0.00988770
v 0.03928365 -0.03917443 -0.01508952
v 0.03878650 -0.03424189 -0.01334198
v 0.03730769 -0.03424189 -0.00988770
v 0.03728869 -0.03426609 -0.00988770
v 0.03560881 -0.03626126 -0.00988770
v 0.03267653 -0.03918556 -0.00988770
f 1 2 3
f 1 3 4
f 1 4 5
f 1 5 6
f 1 6 7
f 1 7 8
f 1 8 9
f 1 9 10
f 1 10 11
f 1 11 2
f 2 11 12
f 2 12 23
f 2 23 22
f 2 22 21
f 2 21 20
f 2 20 27
f 2 27 38
f 2 38 41
f 2 41 40
f 2 40 29
f 2 29 24
f 2 24 13
f 2 13 3
f 3 13 14
f 3 14 4
f 4 14 5
f 5 14 13
f 5 13 24
f 5 24 28
f 5 28 39
f 5 39 30
f 5 30 25
f 5 25 15
f 5 15 6
f 6 15 7
f 7 15 16
f 7 16 8
f 8 16 15
f 8 15 25
f 8 25 31
f 8 31 44
f 8 44 34
f 8 34 26
f 8 26 17
f 8 17 18
f 8 18 19
f 8 19 9
f 9 19 10
f 10 19 18
f 10 18 17
f 10 17 26
f 10 26 33
f 10 33 35
f 10 35 27
f 10 27 20
f 10 20 11
f 11 20 21
f 11 21 22
f 11 22 23
f 11 23 12
f 24 29 28
f 25 30 31
f 26 32 33
f 26 34 32
f 27 35 36
f 27 36 37
f 27 37 38
f 28 29 39
f 29 40 30
f 29 30 39
f 30 40 41
f 30 41 42
f 30 42 43
f 30 43 44
f 30 44 31
f 32 36 35
f 32 35 33
f 32 34 44
f 32 44 43
f 32 43 42
f 32 42 41
f 32 41 38
f 32 38 37
f 32 37 36

