# https://github.com/mikedh/trimesh
v -0.00084545 0.03856894 0.00290441
v -0.00084545 0.03731437 0.00834431
v -0.00084545 0.04049939 0.00290441
v 0.00012848 0.03848438 0.00290441
v 0.01812763 0.03511762 0.00372340
v 0.01701848 0.03511762 0.00393631
v 0.01680488 0.03511762 0.00398156
v 0.01559383 0.03511762 0.00436361
v 0.01466105 0.03511762 0.00475604
v 0.01451408 0.03511762 0.00482429
v 0.01422797 0.03511762 0.00500826
v 0.00034404 0.03700515 0.00888511
v 0.00034404 0.03700515 0.00896671
v -0.00084545 0.03736360 0.00848081
v -0.00084545 0.04050696 0.00334729
v -0.00063185 0.04079221 0.00290441
v 0.00070853 0.03847807 0.00290441
v 0.01917211 0.03511762 0.00370337
v 0.01422797 0.03511762 0.00516479
v 0.00492956 0.03693068 0.01022412
v 0.00416531 0.03699379 0.01015513
v -0.00084545 0.03762928 0.00907353
v 0.01438082 0.03511762 0.00580945
v 0.01464341 0.03511762 0.00599639
v 0.01540571 0.03511762 0.00641553
v -0.00084545 0.03989419 0.00570411
v -0.00063185 0.04079221 0.00314699
v 0.00132973 0.04123269 0.00352533
v -0.00040454 0.04083827 0.00290441
v 0.00132973 0.03847428 0.00290441
v 0.01812763 0.03852225 0.00290441
v 0.01917211 0.03860428 0.00290441
v 0.01917211 0.03511762 0.00698526
v 0.00612885 0.03686126 0.01032353
v 0.00612885 0.03762549 0.01037249
v 0.01590737 0.03511762 0.00657577
v 0.00416531 0.03715913 0.01015513
v -0.00084545 0.03779020 0.00907428
v -0.00084545 0.03963230 0.00662547
v 0.00014808 0.04093483 0.00353794
v 0.00132973 0.04116327 0.00290441
v 0.00014220 0.04094177 0.00290441
v 0.00131993 0.04091085 0.00473675
v 0.01812763 0.04146303 0.00952457
v 0.01917211 0.04156400 0.00952457
v 0.01277785 0.04098468 0.00290441
v 0.01917211 0.04035487 0.00290441
v 0.01812763 0.03511762 0.00696523
v 0.01917211 0.04040662 0.01043629
v 0.01416723 0.03813098 0.01025825
v 0.01332655 0.03801044 0.01039549
v 0.00732814 0.03691743 0.01027012
v 0.01636788 0.03511762 0.00668333
v 0.01801789 0.03511762 0.00695633
v 0.00547630 0.03824016 0.01013436
v 0.00501774 0.03758574 0.01021003
v 0.01812763 0.04029177 0.01048154
v 0.01812763 0.04102255 0.01048154
v -0.00084545 0.03834933 0.00907428
v -0.00084545 0.03956351 0.00679683
v 0.00171382 0.04074172 0.00541850
v 0.01917211 0.04150721 0.00964697
v 0.01917211 0.04142454 0.00832428
v 0.01917211 0.04108565 0.01043629
v -0.00084545 0.03842884 0.00893184
f 1 2 14
f 1 14 22
f 1 22 38
f 1 38 59
f 1 59 65
f 1 65 60
f 1 60 39
f 1 39 26
f 1 26 15
f 1 15 3
f 1 3 16
f 1 16 29
f 1 29 42
f 1 42 41
f 1 41 46
f 1 46 47
f 1 47 32
f 1 32 31
f 1 31 30
f 1 30 17
f 1 17 4
f 1 4 5
f 1 5 6
f 1 6 7
f 1 7 8
f 1 8 9
f 1 9 10
f 1 10 11
f 1 11 2
f 2 11 12
f 2 12 13
f 2 13 14
f 3 15 16
f 4 17 18
f 4 18 5
f 5 18 33
f 5 33 48
f 5 48 54
f 5 54 53
f 5 53 36
f 5 36 25
f 5 25 24
f 5 24 23
f 5 23 19
f 5 19 11
f 5 11 10
f 5 10 9
f 5 9 8
f 5 8 7
f 5 7 6
f 11 19 13
f 11 13 12
f 13 20 21
f 13 21 22
f 13 22 14
f 13 19 23
f 13 23 24
f 13 24 25
f 13 25 20
f 15 26 27
f 15 27 16
f 16 27 28
f 16 28 29
f 17 30 18
f 18 31 32
f 18 32 47
f 18 47 63
f 18 63 45
f 18 45 62
f 18 62 64
f 18 64 49
f 18 49 33
f 18 30 31
f 20 34 35
f 20 35 21
f 20 25 36
f 20 36 34
f 21 37 59
f 21 59 38
f 21 38 22
f 21 35 37
f 26 39 27
f 27 39 40
f 27 40 28
f 28 41 42
f 28 42 29
f 28 40 43
f 28 43 44
f 28 44 45
f 28 45 46
f 28 46 41
f 33 49 50
f 33 50 51
f 33 51 52
f 33 52 34
f 33 34 48
f 34 52 51
f 34 51 35
f 34 36 53
f 34 53 54
f 34 54 48
f 35 55 56
f 35 56 37
f 35 51 57
f 35 57 58
f 35 58 55
f 37 56 59
f 39 60 61
f 39 61 43
f 39 43 40
f 43 61 44
f 44 58 45
f 44 61 58
f 45 58 62
f 45 63 46
f 46 63 47
f 49 57 51
f 49 51 50
f 49 64 58
f 49 58 57
f 55 59 56
f 55 58 59
f 58 64 62
f 58 61 60
f 58 60 65
f 58 65 59

