# https://github.com/mikedh/trimesh
v 0.03951575 -0.00077819 0.01294569
v 0.04044924 -0.01037492 0.01264539
v 0.04043659 -0.00917485 0.01263373
v 0.03948565 -0.00019937 0.01292169
v 0.03873623 -0.00077819 0.01294569
v 0.03778660 -0.03474685 0.01263167
v 0.03853340 -0.03438413 0.01263442
v 0.03928150 -0.03401755 0.01263647
v 0.04062460 -0.03077233 0.01266184
v 0.04058098 -0.02477196 0.01269886
v 0.04057008 -0.02357189 0.01270504
v 0.04055611 -0.02237181 0.01270572
v 0.04053910 -0.02117174 0.01270229
v 0.04105776 -0.02957226 0.01192479
v 0.04055394 -0.00917485 0.01192479
v 0.04035284 -0.00019937 0.01138795
v 0.04031271 -0.00019937 0.01148668
v 0.04011554 -0.00077819 0.01201667
v 0.04007061 -0.00019937 0.01192616
v 0.03873623 -0.00019937 0.01292169
v 0.03667556 -0.03713543 0.01140029
v 0.03667556 -0.03744799 0.01140029
v 0.03779619 -0.03557263 0.01261522
v 0.03812074 -0.03557263 0.01261522
v 0.03794407 -0.03619389 0.01253843
v 0.04034150 -0.03259752 0.01253980
v 0.04045448 -0.03197241 0.01262482
v 0.04094391 -0.03077233 0.01192479
v 0.04094347 -0.02957226 0.01072426
v 0.04098273 -0.02837218 0.01072426
v 0.04035284 -0.00019937 0.01124739
v 0.03660184 -0.00019937 0.00735509
v 0.03660184 -0.00797478 0.00818059
v 0.03660184 -0.03792262 0.01065090
v 0.03660184 -0.03867122 0.01040544
v 0.03789391 -0.03619389 0.01253843
v 0.03660184 -0.03888730 0.01022581
v 0.03660184 -0.03934264 0.00968005
v 0.03774952 -0.03725891 0.01113084
v 0.03797417 -0.03749815 0.01033071
v 0.04034150 -0.03259752 0.01238485
v 0.04052776 -0.03206116 0.01196045
v 0.03802128 -0.03761778 0.00952441
v 0.03777787 -0.03827377 0.00832525
v 0.04049243 -0.03171773 0.01094229
v 0.04064641 -0.03087652 0.01061525
v 0.03950877 -0.03077233 0.00594202
v 0.03959296 -0.01877545 0.00594202
v 0.03963265 -0.00921344 0.00594202
v 0.03953319 -0.00019937 0.00594202
v 0.03660184 -0.00019937 0.00594202
v 0.03660184 -0.03943525 0.00952441
v 0.03707382 -0.03892589 0.00952441
v 0.03767362 -0.03821974 0.00952441
v 0.03804178 -0.03767565 0.00832525
v 0.03800339 -0.03756375 0.00712541
v 0.03795498 -0.03742484 0.00642538
v 0.03717808 -0.03904166 0.00832525
v 0.03711003 -0.03896062 0.00712541
v 0.03770983 -0.03816572 0.00712541
v 0.03928979 -0.03176403 0.00594202
v 0.03660184 -0.03916128 0.00594202
v 0.03660184 -0.03962047 0.00832525
v 0.03756020 -0.03788403 0.00598521
v 0.03758899 -0.03776827 0.00594202
v 0.03788605 -0.03705054 0.00594202
v 0.03660184 -0.03944683 0.00712541
v 0.03660184 -0.03926161 0.00634242
v 0.03694732 -0.03882171 0.00594202
v 0.03712050 -0.03855159 0.00594202
v 0.03753796 -0.03788789 0.00594202
f 1 2 3
f 1 3 4
f 1 4 20
f 1 20 5
f 1 5 6
f 1 6 7
f 1 7 8
f 1 8 9
f 1 9 10
f 1 10 11
f 1 11 12
f 1 12 13
f 1 13 2
f 2 13 12
f 2 12 14
f 2 14 3
f 3 15 16
f 3 16 17
f 3 17 18
f 3 18 4
f 3 14 15
f 4 18 19
f 4 19 17
f 4 17 16
f 4 16 31
f 4 31 50
f 4 50 51
f 4 51 32
f 4 32 20
f 5 20 21
f 5 21 6
f 6 21 22
f 6 22 23
f 6 23 24
f 6 24 7
f 7 24 8
f 8 24 25
f 8 25 26
f 8 26 27
f 8 27 9
f 9 27 28
f 9 28 14
f 9 14 10
f 10 14 11
f 11 14 12
f 14 28 29
f 14 29 30
f 14 30 31
f 14 31 16
f 14 16 15
f 17 19 18
f 20 32 33
f 20 33 21
f 21 34 22
f 21 33 34
f 22 34 35
f 22 35 36
f 22 36 23
f 23 36 25
f 23 25 24
f 25 36 37
f 25 37 38
f 25 38 39
f 25 39 40
f 25 40 26
f 26 41 42
f 26 42 28
f 26 28 27
f 26 40 43
f 26 43 44
f 26 44 41
f 28 42 45
f 28 45 46
f 28 46 29
f 29 46 47
f 29 47 30
f 30 47 48
f 30 48 49
f 30 49 50
f 30 50 31
f 32 51 62
f 32 62 68
f 32 68 67
f 32 67 63
f 32 63 52
f 32 52 38
f 32 38 37
f 32 37 35
f 32 35 34
f 32 34 33
f 35 37 36
f 38 52 40
f 38 40 39
f 40 52 53
f 40 53 54
f 40 54 43
f 41 44 55
f 41 55 42
f 42 55 56
f 42 56 57
f 42 57 45
f 43 54 44
f 44 54 58
f 44 58 59
f 44 59 60
f 44 60 56
f 44 56 55
f 45 57 46
f 46 57 61
f 46 61 47
f 47 61 66
f 47 66 65
f 47 65 71
f 47 71 70
f 47 70 69
f 47 69 62
f 47 62 51
f 47 51 50
f 47 50 49
f 47 49 48
f 52 63 58
f 52 58 53
f 53 58 54
f 56 60 57
f 57 60 64
f 57 64 65
f 57 65 66
f 57 66 61
f 58 63 59
f 59 63 67
f 59 67 68
f 59 68 62
f 59 62 69
f 59 69 60
f 60 69 70
f 60 70 64
f 64 70 71
f 64 71 65

