# https://github.com/mikedh/trimesh
v -0.00084545 0.01610917 0.01299174
v 0.00248746 0.01605162 0.01299174
v 0.00366495 0.01620317 0.01298840
v -0.00084545 0.01939735 0.00977064
v -0.00084545 -0.00019745 0.01299174
v 0.00366495 0.01451304 0.01299174
v 0.00366495 0.01939735 0.00917341
v 0.00252631 0.01939735 0.00954366
v -0.00084545 0.01939735 0.00717487
v -0.00084545 -0.00019745 0.00761877
v 0.00366495 -0.00019745 0.01299174
v 0.00366495 0.01939735 0.00728199
v -0.00084369 0.01939735 0.00717487
v -0.00084545 0.01242387 0.00621008
v 0.00132807 -0.00019745 0.00754244
v -0.00084545 0.00656116 0.00630381
v 0.00366495 -0.00019745 0.00791202
v 0.00213779 0.01122486 0.00640491
v 0.00206759 0.01242387 0.00645512
v 0.00132807 0.01242387 0.00633996
v 0.00012807 0.01242387 0.00625158
v 0.00366495 0.00288738 0.00764019
v -0.00084545 0.01219750 0.00619869
v 0.00132807 0.00762589 0.00635402
v 0.00194441 -0.00019745 0.00760404
v -0.00084545 0.00762589 0.00615517
v 0.00232764 -0.00019745 0.00764756
v 0.00193691 0.00701199 0.00651873
v 0.00199739 0.00762589 0.00647454
v 0.00210380 0.01002392 0.00641361
v 0.00132807 0.01122486 0.00624355
v 0.00012807 0.01122486 0.00619133
v 0.00206627 0.00882682 0.00643102
v -0.00084545 0.01122486 0.00615316
v 0.00132807 0.00882682 0.00629778
v 0.00132807 0.01002392 0.00627033
f 1 2 3
f 1 3 4
f 1 4 9
f 1 9 14
f 1 14 23
f 1 23 34
f 1 34 26
f 1 26 16
f 1 16 10
f 1 10 5
f 1 5 11
f 1 11 6
f 1 6 2
f 2 6 3
f 3 7 8
f 3 8 4
f 3 6 11
f 3 11 17
f 3 17 22
f 3 22 12
f 3 12 7
f 4 8 7
f 4 7 12
f 4 12 13
f 4 13 9
f 5 10 15
f 5 15 25
f 5 25 27
f 5 27 17
f 5 17 11
f 9 13 14
f 10 16 15
f 12 18 19
f 12 19 20
f 12 20 21
f 12 21 14
f 12 14 13
f 12 22 18
f 14 21 23
f 15 16 24
f 15 24 25
f 16 26 24
f 17 27 28
f 17 28 29
f 17 29 22
f 18 30 31
f 18 31 19
f 18 22 30
f 19 31 20
f 20 31 21
f 21 31 32
f 21 32 23
f 22 29 33
f 22 33 30
f 23 32 34
f 24 26 35
f 24 35 29
f 24 29 28
f 24 28 27
f 24 27 25
f 26 34 32
f 26 32 31
f 26 31 36
f 26 36 35
f 29 35 33
f 30 33 31
f 31 33 36
f 33 35 36

