# https://github.com/mikedh/trimesh
v -0.01426300 0.02556960 0.01299241
v -0.01426300 0.02691317 0.01299241
v -0.00466712 0.02548730 0.01299241
v -0.01426300 0.02547372 0.01299374
v -0.01426300 0.02678351 0.01568060
v -0.00962639 0.02687784 0.01568193
v -0.00946913 0.02691162 0.01432564
v 0.00372759 0.02694617 0.01299241
v 0.01079367 0.02547294 0.01299241
v 0.00372759 0.02298030 0.01676812
v 0.00275959 0.02298030 0.01689230
v -0.01426300 0.02539763 0.01432564
v -0.01426300 0.02670393 0.01568193
v -0.00128863 0.02571130 0.01752344
v 0.00153401 0.02632271 0.01752344
v 0.00255623 0.02642093 0.01752344
v 0.00732570 0.02676798 0.01752344
v 0.00772700 0.02678273 0.01752344
v 0.01269712 0.02687823 0.01752344
v 0.01332618 0.02693685 0.01568193
v 0.01332618 0.02693879 0.01552448
v 0.01332618 0.02692792 0.01299241
v 0.01092653 0.02547333 0.01299241
v 0.01343735 0.02551642 0.01299241
v 0.00441087 0.02298030 0.01720055
v 0.00275959 0.02298030 0.01752344
v -0.01426300 0.02537550 0.01553335
v -0.01426300 0.02538443 0.01568193
v -0.00128863 0.02422332 0.01752344
v 0.01269712 0.02538560 0.01752344
v 0.01343735 0.02690618 0.01568193
v 0.01343735 0.02690657 0.01566463
v 0.01343735 0.02690773 0.01552049
v 0.01343735 0.02690812 0.01299241
v 0.01343735 0.02531727 0.01443076
v 0.00441087 0.02298030 0.01746533
v 0.01343735 0.02526914 0.01542646
v 0.00433224 0.02298030 0.01752344
v 0.01343735 0.02528738 0.01568193
f 1 2 8
f 1 8 22
f 1 22 34
f 1 34 24
f 1 24 23
f 1 23 9
f 1 9 3
f 1 3 4
f 1 4 12
f 1 12 27
f 1 27 28
f 1 28 13
f 1 13 5
f 1 5 2
f 2 5 6
f 2 6 7
f 2 7 8
f 3 9 4
f 4 9 10
f 4 10 11
f 4 11 12
f 5 13 14
f 5 14 15
f 5 15 16
f 5 16 17
f 5 17 18
f 5 18 6
f 6 18 19
f 6 19 20
f 6 20 7
f 7 20 21
f 7 21 8
f 8 21 22
f 9 23 10
f 10 23 24
f 10 24 25
f 10 25 36
f 10 36 38
f 10 38 26
f 10 26 11
f 11 26 27
f 11 27 12
f 13 28 29
f 13 29 14
f 14 29 26
f 14 26 38
f 14 38 30
f 14 30 19
f 14 19 18
f 14 18 17
f 14 17 16
f 14 16 15
f 19 30 39
f 19 39 31
f 19 31 20
f 20 31 32
f 20 32 21
f 21 32 33
f 21 33 34
f 21 34 22
f 24 34 33
f 24 33 32
f 24 32 31
f 24 31 39
f 24 39 37
f 24 37 35
f 24 35 25
f 25 35 37
f 25 37 36
f 26 29 28
f 26 28 27
f 30 38 36
f 30 36 39
f 36 37 39

