# https://github.com/mikedh/trimesh
v -0.02611882 0.02154203 0.00618423
v -0.02611882 0.02605199 0.00586843
v -0.02248782 0.02442505 0.00622139
v -0.02578824 0.02154203 0.00620900
v -0.02611882 0.02154203 0.00738272
v -0.02248782 0.02605199 0.00613695
v -0.02248782 0.02562506 0.00614652
v -0.02611882 0.02605199 0.00733487
v -0.02248782 0.02424050 0.00623996
v -0.02507200 0.02154203 0.00627149
v -0.02611704 0.02154203 0.01131369
v -0.02248782 0.02605199 0.00723974
v -0.02610887 0.02154203 0.01156814
v -0.02602569 0.02174556 0.01154675
v -0.02358583 0.02413984 0.01152029
v -0.02248782 0.02510894 0.01153943
v -0.02248782 0.02154203 0.00653607
v -0.02571715 0.02154203 0.01161880
v -0.02248782 0.02475088 0.01157827
v -0.02248782 0.02154203 0.01092020
v -0.02451784 0.02154203 0.01149665
v -0.02394946 0.02210892 0.01149327
v -0.02248782 0.02359061 0.01147638
f 1 2 3
f 1 3 4
f 1 4 10
f 1 10 17
f 1 17 20
f 1 20 21
f 1 21 18
f 1 18 13
f 1 13 11
f 1 11 5
f 1 5 8
f 1 8 2
f 2 6 7
f 2 7 3
f 2 8 12
f 2 12 6
f 3 9 10
f 3 10 4
f 3 7 6
f 3 6 12
f 3 12 16
f 3 16 19
f 3 19 23
f 3 23 20
f 3 20 17
f 3 17 9
f 5 11 8
f 8 11 13
f 8 13 14
f 8 14 15
f 8 15 16
f 8 16 12
f 9 17 10
f 13 18 16
f 13 16 14
f 14 16 15
f 16 18 19
f 18 21 22
f 18 22 19
f 19 22 23
f 20 23 22
f 20 22 21

