# https://github.com/mikedh/trimesh
v -0.02491572 0.02884448 -0.01049511
v -0.02491572 0.02884448 -0.01056230
v -0.02492400 0.02884448 -0.00988729
v -0.02499017 0.02802541 -0.01567486
v -0.02491779 0.02884448 -0.01087529
v -0.02508839 0.02823687 -0.00988729
v -0.03547716 0.02884448 -0.00988729
v -0.02502222 0.02802541 -0.01607140
v -0.02509149 0.02884448 -0.01567486
v -0.02499947 0.02884448 -0.01447497
v -0.02514939 0.02802541 -0.00988729
v -0.02535307 0.02690223 -0.01567486
v -0.03547716 0.02884448 -0.01340342
v -0.03547716 0.02627596 -0.00988729
v -0.02526622 0.02727289 -0.01607140
v -0.02518661 0.02884448 -0.01607140
v -0.02549782 0.02745760 -0.00988729
v -0.02539029 0.02698121 -0.01447497
v -0.02683674 0.02499045 -0.01252742
v -0.02684398 0.02499729 -0.01327508
v -0.02686982 0.02502279 -0.01387926
v -0.02594757 0.02630208 -0.01567486
v -0.02537892 0.02695696 -0.01607140
v -0.03547716 0.02442512 -0.01244992
v -0.03367194 0.02884448 -0.01607140
v -0.03366884 0.02879970 -0.01607140
v -0.03351479 0.02759753 -0.01607140
v -0.03547716 0.02389090 -0.01124216
v -0.03416202 0.02249158 -0.00988729
v -0.02557226 0.02733633 -0.00988729
v -0.02566531 0.02723060 -0.00988729
v -0.02683157 0.02594820 -0.00988729
v -0.02713140 0.02530825 -0.01087529
v -0.02791201 0.02492764 -0.01001442
v -0.02773107 0.02483435 -0.01087529
v -0.02741573 0.02478335 -0.01210667
v -0.02747260 0.02468758 -0.01327508
v -0.02753049 0.02485176 -0.01435752
v -0.02894075 0.02463098 -0.01607140
v -0.02866160 0.02475723 -0.01607140
v -0.02824390 0.02495065 -0.01607140
v -0.02808261 0.02502652 -0.01607140
v -0.02607888 0.02637111 -0.01607140
v -0.03547716 0.02367571 -0.01192323
v -0.03327699 0.02641091 -0.01607140
v -0.03311260 0.02595131 -0.01607140
v -0.03288100 0.02557256 -0.01607140
v -0.03547716 0.02369499 -0.01139230
v -0.03413203 0.02254569 -0.01034073
v -0.03396247 0.02254569 -0.01034073
v -0.03369469 0.02249718 -0.00988729
v -0.03547716 0.02356563 -0.01169197
v -0.02742297 0.02540962 -0.00988729
v -0.02777036 0.02509929 -0.00988729
v -0.02814878 0.02486296 -0.00988729
v -0.02867297 0.02433059 -0.01327508
v -0.02867297 0.02445622 -0.01447497
v -0.02987231 0.02429763 -0.01607140
v -0.03212107 0.02456257 -0.01607140
v -0.03159791 0.02429888 -0.01607140
v -0.03106751 0.02416205 -0.01607140
v -0.03026520 0.02418507 -0.01607140
f 1 2 5
f 1 5 10
f 1 10 9
f 1 9 16
f 1 16 25
f 1 25 13
f 1 13 7
f 1 7 3
f 1 3 4
f 1 4 2
f 2 4 5
f 3 6 4
f 3 7 14
f 3 14 29
f 3 29 51
f 3 51 55
f 3 55 54
f 3 54 53
f 3 53 32
f 3 32 31
f 3 31 30
f 3 30 17
f 3 17 11
f 3 11 6
f 4 8 9
f 4 9 10
f 4 10 5
f 4 6 11
f 4 11 12
f 4 12 8
f 7 13 24
f 7 24 44
f 7 44 52
f 7 52 48
f 7 48 28
f 7 28 14
f 8 12 15
f 8 15 23
f 8 23 43
f 8 43 42
f 8 42 41
f 8 41 40
f 8 40 39
f 8 39 58
f 8 58 62
f 8 62 61
f 8 61 60
f 8 60 59
f 8 59 47
f 8 47 46
f 8 46 45
f 8 45 27
f 8 27 26
f 8 26 25
f 8 25 16
f 8 16 9
f 11 17 18
f 11 18 12
f 12 18 19
f 12 19 20
f 12 20 21
f 12 21 22
f 12 22 23
f 12 23 15
f 13 25 26
f 13 26 27
f 13 27 24
f 14 28 29
f 17 30 18
f 18 30 19
f 19 30 31
f 19 31 32
f 19 32 33
f 19 33 34
f 19 34 35
f 19 35 36
f 19 36 37
f 19 37 20
f 20 37 21
f 21 37 38
f 21 38 39
f 21 39 40
f 21 40 41
f 21 41 42
f 21 42 22
f 22 42 43
f 22 43 23
f 24 27 45
f 24 45 46
f 24 46 47
f 24 47 44
f 28 48 29
f 29 49 50
f 29 50 51
f 29 48 52
f 29 52 49
f 32 53 33
f 33 53 54
f 33 54 34
f 34 54 55
f 34 55 51
f 34 51 35
f 35 51 36
f 36 51 37
f 37 56 57
f 37 57 39
f 37 39 38
f 37 51 56
f 39 57 58
f 44 47 59
f 44 59 60
f 44 60 52
f 49 52 60
f 49 60 61
f 49 61 50
f 50 61 62
f 50 62 51
f 51 62 57
f 51 57 56
f 57 62 58

