# https://github.com/mikedh/trimesh
v -0.00228223 -0.01856153 0.01752365
v 0.00288609 -0.02212742 0.01752365
v 0.00284833 -0.02212742 0.01760621
v 0.00270374 -0.02212742 0.01792490
v 0.00271295 -0.02212742 0.01807477
v 0.00284096 -0.02212742 0.01875681
v -0.00228223 -0.01852799 0.01764869
v -0.00228223 0.00071220 0.01752365
v 0.00359521 -0.02212742 0.01752365
v -0.00228223 -0.01820605 0.01819153
v 0.00294503 -0.02212742 0.01875681
v 0.00712610 -0.01777904 0.01974883
v 0.00372783 -0.01773880 0.01974883
v -0.00228223 -0.01712846 0.01974883
v -0.00228223 0.00071220 0.01878927
v 0.00712610 0.00071220 0.01752365
v 0.00387702 -0.02212742 0.01785476
v 0.00712610 -0.01800037 0.01752365
v 0.00375914 -0.02212742 0.01873307
v 0.00394241 -0.02212742 0.01797305
v 0.00712610 -0.01795342 0.01883197
v 0.00712610 -0.00460199 0.01974883
v -0.00228223 -0.00370101 0.01974883
v 0.00306475 -0.00129096 0.01974883
v 0.00309146 -0.00128872 0.01974883
v 0.00243114 0.00071220 0.01882630
v -0.00227579 -0.00329859 0.01974883
v 0.00712610 0.00071220 0.01767766
v 0.00712610 -0.01801826 0.01765566
v 0.00712610 -0.01802944 0.01793057
v 0.00322223 -0.00128872 0.01974883
v 0.00341195 0.00071220 0.01868907
f 1 2 3
f 1 3 4
f 1 4 5
f 1 5 6
f 1 6 7
f 1 7 10
f 1 10 14
f 1 14 23
f 1 23 15
f 1 15 8
f 1 8 16
f 1 16 18
f 1 18 9
f 1 9 2
f 2 9 17
f 2 17 20
f 2 20 19
f 2 19 11
f 2 11 6
f 2 6 5
f 2 5 4
f 2 4 3
f 6 10 7
f 6 11 12
f 6 12 13
f 6 13 14
f 6 14 10
f 8 15 26
f 8 26 32
f 8 32 28
f 8 28 16
f 9 18 17
f 11 19 12
f 12 19 20
f 12 20 21
f 12 21 30
f 12 30 29
f 12 29 18
f 12 18 16
f 12 16 28
f 12 28 22
f 12 22 31
f 12 31 25
f 12 25 24
f 12 24 27
f 12 27 23
f 12 23 14
f 12 14 13
f 15 24 25
f 15 25 26
f 15 23 27
f 15 27 24
f 17 18 20
f 18 29 20
f 20 29 30
f 20 30 21
f 22 28 31
f 25 31 26
f 26 31 32
f 28 32 31

