# https://github.com/mikedh/trimesh
v -0.01483346 -0.02058880 0.01568201
v -0.01427877 -0.02570966 0.01568201
v -0.01427877 -0.02565943 0.01568122
v -0.01427877 -0.02583268 0.01312510
v -0.01427877 -0.02584685 0.01299373
v -0.01896346 -0.02058880 0.01299241
v -0.02131802 -0.02058880 0.01568201
v -0.01427877 -0.02708472 0.01568201
v -0.01427877 -0.02591383 0.01299241
v -0.02161908 -0.02058880 0.01299241
v -0.02141790 -0.02058880 0.01485507
v -0.01616055 -0.02666866 0.01432510
v -0.01610307 -0.02660361 0.01511966
v -0.01604199 -0.02655337 0.01568201
v -0.01427877 -0.02716844 0.01568096
v -0.01538743 -0.02686703 0.01568201
v -0.01427877 -0.02715105 0.01299241
v -0.01615767 -0.02666866 0.01299241
v -0.01547221 -0.02696621 0.01299241
v -0.01547221 -0.02692692 0.01432510
v -0.01553616 -0.02682645 0.01568201
f 1 2 3
f 1 3 4
f 1 4 5
f 1 5 6
f 1 6 10
f 1 10 11
f 1 11 7
f 1 7 14
f 1 14 21
f 1 21 16
f 1 16 8
f 1 8 2
f 2 8 15
f 2 15 17
f 2 17 9
f 2 9 5
f 2 5 4
f 2 4 3
f 5 9 6
f 6 9 17
f 6 17 19
f 6 19 18
f 6 18 10
f 7 11 12
f 7 12 13
f 7 13 14
f 8 16 15
f 10 12 11
f 10 18 12
f 12 18 19
f 12 19 20
f 12 20 21
f 12 21 13
f 13 21 14
f 15 16 20
f 15 20 19
f 15 19 17
f 16 21 20

