# https://github.com/mikedh/trimesh
v -0.03344686 -0.05229475 -0.01084192
v -0.03691208 -0.05408544 -0.01363233
v -0.03674246 -0.05447380 -0.01371498
v -0.03416297 -0.05662557 -0.01381141
v -0.03347230 -0.05683655 -0.01370637
v -0.03344686 -0.05684494 -0.01370379
v -0.03344686 -0.05100264 -0.01103994
v -0.03585301 -0.04660359 -0.01121213
v -0.03690665 -0.04660359 -0.01121386
v -0.03544152 -0.04970843 -0.01121386
v -0.03691208 -0.05459241 -0.01432283
v -0.03691208 -0.05361415 -0.01349888
v -0.03627433 -0.05522220 -0.01447522
v -0.03497407 -0.05633167 -0.01447522
v -0.03437397 -0.05673054 -0.01447522
v -0.03344686 -0.05732463 -0.01448642
v -0.03344686 -0.05700869 -0.01396553
v -0.03344686 -0.04992046 -0.01189230
v -0.03494591 -0.04660359 -0.01206536
v -0.03501477 -0.04660359 -0.01195343
v -0.03507686 -0.04660359 -0.01186733
v -0.03525054 -0.04692268 -0.01144976
v -0.03566066 -0.04660359 -0.01128446
v -0.03691208 -0.04660359 -0.01331033
v -0.03691208 -0.05236193 -0.01332927
v -0.03691208 -0.05465959 -0.01447522
v -0.03648838 -0.05539119 -0.01853902
v -0.03493709 -0.05639570 -0.01567456
v -0.03344686 -0.05732254 -0.01455185
v -0.03648838 -0.05539119 -0.01869141
v -0.03488383 -0.05637051 -0.01807495
v -0.03344686 -0.04988162 -0.01192933
v -0.03445471 -0.04660359 -0.01308733
v -0.03691208 -0.04660359 -0.01941032
v -0.03691208 -0.05492410 -0.01827039
v -0.03344686 -0.05727845 -0.01562204
v -0.03587167 -0.05559063 -0.01887910
v -0.03424066 -0.05665391 -0.01880075
v -0.03691208 -0.05492410 -0.01831086
v -0.03691208 -0.05473412 -0.01884122
v -0.03587167 -0.05477400 -0.01935694
v -0.03344686 -0.04984698 -0.01196549
v -0.03344686 -0.04660359 -0.01642533
v -0.03587167 -0.04660359 -0.01941979
v -0.03587167 -0.05357426 -0.01963675
v -0.03691208 -0.05253407 -0.01955497
v -0.03344686 -0.05709581 -0.01803793
v -0.03465350 -0.05601783 -0.01907712
v -0.03347230 -0.05680611 -0.01902719
v -0.03344686 -0.05682290 -0.01900739
v -0.03344686 -0.05709056 -0.01807495
v -0.03347230 -0.05708007 -0.01807495
v -0.03691208 -0.05466169 -0.01888168
v -0.03691208 -0.05373381 -0.01938880
v -0.03467216 -0.05477400 -0.01957046
v -0.03347230 -0.05597374 -0.01948350
v -0.03344686 -0.04660359 -0.01925707
v -0.03564371 -0.04660359 -0.01941721
v -0.03467216 -0.04660359 -0.01937072
v -0.03467216 -0.05357426 -0.01954722
v -0.03691208 -0.05357426 -0.01942582
v -0.03344686 -0.05681031 -0.01903149
v -0.03344686 -0.05479920 -0.01946628
v -0.03344686 -0.05597374 -0.01948695
v -0.03344686 -0.05599474 -0.01947748
f 1 2 3
f 1 3 4
f 1 4 5
f 1 5 6
f 1 6 17
f 1 17 16
f 1 16 29
f 1 29 36
f 1 36 47
f 1 47 51
f 1 51 50
f 1 50 62
f 1 62 65
f 1 65 64
f 1 64 63
f 1 63 57
f 1 57 43
f 1 43 42
f 1 42 32
f 1 32 18
f 1 18 7
f 1 7 8
f 1 8 9
f 1 9 10
f 1 10 2
f 2 11 3
f 2 10 9
f 2 9 12
f 2 12 25
f 2 25 24
f 2 24 34
f 2 34 46
f 2 46 61
f 2 61 54
f 2 54 53
f 2 53 40
f 2 40 39
f 2 39 35
f 2 35 26
f 2 26 11
f 3 11 13
f 3 13 14
f 3 14 4
f 4 14 15
f 4 15 16
f 4 16 17
f 4 17 5
f 5 17 6
f 7 18 19
f 7 19 20
f 7 20 21
f 7 21 22
f 7 22 23
f 7 23 8
f 8 23 21
f 8 21 20
f 8 20 19
f 8 19 33
f 8 33 43
f 8 43 57
f 8 57 59
f 8 59 58
f 8 58 44
f 8 44 34
f 8 34 24
f 8 24 9
f 9 24 25
f 9 25 12
f 11 26 13
f 13 27 14
f 13 26 27
f 14 27 28
f 14 28 15
f 15 28 16
f 16 28 30
f 16 30 31
f 16 31 29
f 18 32 19
f 19 32 33
f 21 23 22
f 26 35 27
f 27 30 28
f 27 35 39
f 27 39 30
f 29 31 36
f 30 37 38
f 30 38 31
f 30 39 40
f 30 40 41
f 30 41 37
f 31 38 36
f 32 42 33
f 33 42 43
f 34 44 45
f 34 45 46
f 36 38 47
f 37 48 49
f 37 49 38
f 37 41 48
f 38 49 50
f 38 50 51
f 38 51 52
f 38 52 47
f 40 53 41
f 41 53 54
f 41 54 45
f 41 45 55
f 41 55 56
f 41 56 48
f 44 58 45
f 45 58 59
f 45 59 60
f 45 60 55
f 45 54 61
f 45 61 46
f 47 52 51
f 48 56 49
f 49 56 62
f 49 62 50
f 55 60 63
f 55 63 64
f 55 64 56
f 56 64 65
f 56 65 62
f 57 63 59
f 59 63 60

