# https://github.com/mikedh/trimesh
v -0.00084757 0.03150931 0.00745353
v -0.00084757 0.03150931 0.00609897
v -0.00111449 0.03150931 0.00748495
v -0.00227328 0.03114535 0.01045539
v -0.00107212 0.03112193 0.01041683
v -0.00084757 0.03111608 0.01039756
v -0.00084757 0.02442829 0.00637745
v -0.00679616 0.03150931 0.00571124
v -0.00113144 0.03150931 0.00748637
v -0.00347232 0.03116292 0.01042969
v -0.00084757 0.02689792 0.01299170
v -0.01667022 0.03005739 0.01148220
v -0.01547118 0.03007496 0.01144864
v -0.00084757 0.02154203 0.00692085
v -0.00144285 0.02355988 0.00646314
v -0.00105518 0.02437268 0.00637245
v -0.00947387 0.02322617 0.00615253
v -0.00698894 0.03150931 0.00570910
v -0.00227328 0.02442634 0.00632104
v -0.00467348 0.03116780 0.01038899
v -0.02042622 0.03150931 0.00749423
v -0.00084757 0.02559334 0.01299170
v -0.00227328 0.02691938 0.01299170
v -0.01266637 0.03105071 0.01017263
v -0.02248747 0.03150931 0.00736856
v -0.01735236 0.02987688 0.01138437
v -0.01874418 0.02882307 0.01151362
v -0.01538857 0.02657494 0.01299170
v -0.01528264 0.02661300 0.01299170
v -0.01428274 0.02691548 0.01299170
v -0.00587252 0.03115999 0.01034614
v -0.00084757 0.02154203 0.00991914
v -0.00541493 0.02154203 0.00650812
v -0.00497218 0.02224164 0.00643172
v -0.00577931 0.02191574 0.00643101
v -0.00827271 0.02202600 0.00631033
v -0.00947387 0.02202600 0.00626463
v -0.01667022 0.02154203 0.00620680
v -0.00928957 0.03150931 0.00569839
v -0.02141554 0.03150931 0.00747995
v -0.01814466 0.02154203 0.01299170
v -0.02155535 0.03150931 0.00746995
v -0.02238578 0.02535135 0.01152433
v -0.02119734 0.02654177 0.01153432
v -0.01999194 0.02772047 0.01154432
v -0.02248747 0.03150931 0.00617966
v -0.02248747 0.02510937 0.01153932
v -0.01598385 0.02614561 0.01299170
v -0.00600386 0.02154203 0.00647171
v -0.00829602 0.02154203 0.00636817
v -0.00947387 0.02154203 0.00631961
v -0.02248747 0.02154203 0.00653597
v -0.02248747 0.02424095 0.00623964
v -0.02248747 0.02442634 0.00622179
v -0.02248747 0.02562554 0.00614682
v -0.00950141 0.03150931 0.00569839
v -0.02032030 0.02154203 0.01299170
v -0.02248747 0.02802491 0.00609969
v -0.02248747 0.02475127 0.01157859
v -0.02248747 0.02154203 0.01092024
v -0.02248747 0.02682473 0.00611754
v -0.02248747 0.02784049 0.00610040
v -0.02248747 0.02359110 0.01147649
f 1 2 8
f 1 8 18
f 1 18 39
f 1 39 56
f 1 56 46
f 1 46 25
f 1 25 42
f 1 42 40
f 1 40 21
f 1 21 9
f 1 9 3
f 1 3 4
f 1 4 5
f 1 5 6
f 1 6 11
f 1 11 22
f 1 22 32
f 1 32 14
f 1 14 7
f 1 7 2
f 2 7 8
f 3 9 10
f 3 10 4
f 4 11 5
f 4 10 12
f 4 12 13
f 4 13 11
f 5 11 6
f 7 14 15
f 7 15 16
f 7 16 8
f 8 17 18
f 8 16 19
f 8 19 17
f 9 20 10
f 9 21 20
f 10 20 12
f 11 13 12
f 11 12 23
f 11 23 30
f 11 30 29
f 11 29 28
f 11 28 48
f 11 48 57
f 11 57 41
f 11 41 22
f 12 24 25
f 12 25 26
f 12 26 27
f 12 27 28
f 12 28 29
f 12 29 30
f 12 30 23
f 12 20 31
f 12 31 24
f 14 32 41
f 14 41 57
f 14 57 60
f 14 60 52
f 14 52 38
f 14 38 51
f 14 51 50
f 14 50 49
f 14 49 33
f 14 33 15
f 15 33 34
f 15 34 16
f 16 34 35
f 16 35 36
f 16 36 17
f 16 17 19
f 17 36 37
f 17 37 38
f 17 38 18
f 18 38 39
f 20 21 40
f 20 40 31
f 22 41 32
f 24 42 25
f 24 31 42
f 25 43 44
f 25 44 45
f 25 45 27
f 25 27 26
f 25 46 58
f 25 58 62
f 25 62 61
f 25 61 55
f 25 55 54
f 25 54 53
f 25 53 52
f 25 52 60
f 25 60 63
f 25 63 59
f 25 59 47
f 25 47 43
f 27 45 48
f 27 48 28
f 31 40 42
f 33 49 34
f 34 49 35
f 35 49 50
f 35 50 36
f 36 50 51
f 36 51 37
f 37 51 38
f 38 52 53
f 38 53 54
f 38 54 55
f 38 55 56
f 38 56 39
f 43 47 57
f 43 57 48
f 43 48 44
f 44 48 45
f 46 56 58
f 47 59 57
f 55 61 56
f 56 61 62
f 56 62 58
f 57 59 63
f 57 63 60

