# https://github.com/mikedh/trimesh
v -0.00208100 -0.02734641 0.04414153
v -0.00947118 -0.02748082 0.04414275
v -0.00965554 -0.02745824 0.04414275
v -0.01067066 -0.02728220 0.04414275
v -0.01078173 -0.02720574 0.04414275
v -0.01136592 -0.02675653 0.04414275
v -0.01153474 -0.02610217 0.04414275
v -0.01156584 -0.02597484 0.04414275
v -0.01160804 -0.02553134 0.04414275
v -0.00208100 -0.02627766 0.04414153
v 0.00234377 -0.02747266 0.04414153
v -0.00826947 -0.02809600 0.05272274
v -0.00947118 -0.02807831 0.05272274
v 0.00252814 -0.02747728 0.04414153
v 0.00044903 -0.02780188 0.04701451
v -0.01034414 -0.02787425 0.05152414
v -0.01043299 -0.02791751 0.05272274
v -0.01107716 -0.02760897 0.05392376
v -0.01150586 -0.02700875 0.05392376
v -0.01179241 -0.02597484 0.05392376
v -0.01180796 -0.02553134 0.05392376
v -0.00208100 -0.02534986 0.05501892
v 0.00945851 -0.02534986 0.04414153
v -0.00706998 -0.02809192 0.05272274
v -0.00826947 -0.02812919 0.05392376
v -0.00947118 -0.02811913 0.05392376
v 0.00354326 -0.02746857 0.04414153
v 0.00852557 -0.02741225 0.04414153
v 0.00433625 -0.02777467 0.04731263
v -0.01047741 -0.02793901 0.05392376
v -0.01148587 -0.02697447 0.05512357
v -0.01040855 -0.02790799 0.05512357
v -0.01100830 -0.02757442 0.05512357
v -0.01180129 -0.02553134 0.05436791
v -0.01174576 -0.02597484 0.05512357
v -0.01177242 -0.02553134 0.05512357
v -0.00208100 -0.02534986 0.05642195
v 0.01081571 -0.02534986 0.04414153
v -0.00706998 -0.02811858 0.05392376
v 0.00852557 -0.02795996 0.05392376
v 0.00852557 -0.02798091 0.05512357
v -0.00947118 -0.02806770 0.05512357
v 0.00954292 -0.02738450 0.04414153
v -0.01136592 -0.02678945 0.05589140
v -0.01023752 -0.02783888 0.05580501
v -0.01144589 -0.02597484 0.05599362
v -0.01146588 -0.02553134 0.05599970
v -0.00107032 -0.02534986 0.05643412
v -0.01067066 -0.02553134 0.05645359
v -0.00947118 -0.02553134 0.05655459
v 0.01087790 -0.02534986 0.05392376
v 0.01083126 -0.02597484 0.04414153
v 0.00972506 -0.02737389 0.04414153
v 0.00954070 -0.02789602 0.05392376
v 0.00944740 -0.02787997 0.05512357
v 0.00924749 -0.02782174 0.05578554
v 0.00852557 -0.02786881 0.05585490
v 0.00732609 -0.02789194 0.05590479
v -0.00947118 -0.02788894 0.05585612
v -0.01065067 -0.02718316 0.05605203
v -0.01067066 -0.02597484 0.05645480
v -0.00947118 -0.02717445 0.05627593
v 0.00492489 -0.02534986 0.05647062
v -0.00947118 -0.02597484 0.05657162
v 0.00492489 -0.02597484 0.05652660
v 0.00795249 -0.02534986 0.05646089
v 0.01088457 -0.02597484 0.05392376
v 0.01085125 -0.02534986 0.05512357
v 0.01060469 -0.02707324 0.05392376
v 0.01062023 -0.02678048 0.04414153
v 0.01057803 -0.02692060 0.04414153
v 0.01014044 -0.02767291 0.05392376
v 0.01004492 -0.02749170 0.05512357
v 0.00852557 -0.02717418 0.05622360
v 0.01035812 -0.02664498 0.05575390
v 0.00967842 -0.02709636 0.05591209
v 0.00732609 -0.02717418 0.05632460
v 0.00612660 -0.02717418 0.05636354
v 0.00612660 -0.02788568 0.05591818
v 0.00612660 -0.02597484 0.05651808
v 0.00852557 -0.02597484 0.05645237
v 0.00852557 -0.02534986 0.05644507
v 0.01078461 -0.02597484 0.05512357
v 0.01052916 -0.02534986 0.05592304
v 0.01051584 -0.02689203 0.05512357
v 0.01057803 -0.02692713 0.04432649
v 0.00972506 -0.02597484 0.05620657
v 0.01045808 -0.02597484 0.05584881
v 0.00915197 -0.02534986 0.05640735
v 0.01017820 -0.02534986 0.05609462
v 0.00972506 -0.02534986 0.05628931
f 1 2 3
f 1 3 4
f 1 4 5
f 1 5 6
f 1 6 7
f 1 7 8
f 1 8 9
f 1 9 10
f 1 10 23
f 1 23 38
f 1 38 52
f 1 52 70
f 1 70 71
f 1 71 53
f 1 53 43
f 1 43 28
f 1 28 27
f 1 27 14
f 1 14 11
f 1 11 2
f 2 12 13
f 2 13 3
f 2 11 14
f 2 14 15
f 2 15 12
f 3 13 16
f 3 16 4
f 4 16 17
f 4 17 18
f 4 18 5
f 5 18 6
f 6 18 19
f 6 19 20
f 6 20 7
f 7 20 8
f 8 20 9
f 9 20 21
f 9 21 22
f 9 22 23
f 9 23 10
f 12 24 25
f 12 25 26
f 12 26 13
f 12 15 24
f 13 17 16
f 13 26 17
f 14 27 15
f 15 27 28
f 15 28 29
f 15 29 24
f 17 26 30
f 17 30 18
f 18 31 19
f 18 30 32
f 18 32 33
f 18 33 31
f 19 31 20
f 20 34 21
f 20 31 35
f 20 35 36
f 20 36 34
f 21 34 37
f 21 37 22
f 22 37 48
f 22 48 63
f 22 63 66
f 22 66 82
f 22 82 89
f 22 89 91
f 22 91 90
f 22 90 84
f 22 84 68
f 22 68 51
f 22 51 38
f 22 38 23
f 24 39 25
f 24 29 40
f 24 40 39
f 25 39 41
f 25 41 42
f 25 42 26
f 26 42 32
f 26 32 30
f 28 43 29
f 29 43 40
f 31 33 44
f 31 44 35
f 32 45 33
f 32 42 45
f 33 45 44
f 34 36 37
f 35 44 46
f 35 46 36
f 36 46 47
f 36 47 37
f 37 47 49
f 37 49 50
f 37 50 48
f 38 51 52
f 39 40 41
f 40 43 53
f 40 53 54
f 40 54 41
f 41 54 55
f 41 55 56
f 41 56 57
f 41 57 58
f 41 58 42
f 42 59 45
f 42 58 59
f 44 45 60
f 44 60 61
f 44 61 46
f 45 59 62
f 45 62 60
f 46 61 47
f 47 61 49
f 48 50 63
f 49 61 64
f 49 64 50
f 50 64 65
f 50 65 66
f 50 66 63
f 51 67 52
f 51 68 67
f 52 67 69
f 52 69 70
f 53 71 72
f 53 72 54
f 54 72 55
f 55 72 73
f 55 73 56
f 56 74 57
f 56 73 75
f 56 75 76
f 56 76 74
f 57 74 77
f 57 77 58
f 58 77 78
f 58 78 79
f 58 79 59
f 59 79 78
f 59 78 62
f 60 62 61
f 61 62 64
f 62 78 64
f 64 78 65
f 65 78 80
f 65 80 66
f 66 80 81
f 66 81 82
f 67 68 83
f 67 83 69
f 68 84 83
f 69 83 85
f 69 85 72
f 69 72 86
f 69 86 70
f 70 86 71
f 71 86 72
f 72 85 73
f 73 85 75
f 74 81 77
f 74 76 87
f 74 87 81
f 75 85 83
f 75 83 88
f 75 88 87
f 75 87 76
f 77 81 78
f 78 81 80
f 81 87 89
f 81 89 82
f 83 84 88
f 84 90 88
f 87 91 89
f 87 88 90
f 87 90 91

