# https://github.com/mikedh/trimesh
v -0.02368391 0.04860379 -0.01434000
v -0.02368391 0.04946599 -0.01439801
v -0.02759393 0.04302796 -0.01584993
v -0.02368391 0.04842517 -0.01434908
v -0.02368391 0.04968033 -0.01441315
v -0.02759393 0.04302796 -0.01942320
v -0.02368391 0.04302796 -0.01572582
v -0.02759393 0.04842517 -0.01676456
v -0.02368391 0.05075302 -0.01464824
v -0.02368391 0.04302796 -0.01948777
v -0.02759393 0.04494836 -0.01947667
v -0.02659221 0.05288969 -0.01709903
v -0.02759393 0.05288969 -0.01781086
v -0.02368391 0.05174653 -0.01491209
v -0.02759393 0.04602587 -0.01949383
v -0.02368391 0.05288969 -0.01946456
v -0.02619566 0.05288969 -0.01686596
v -0.02759393 0.05288969 -0.01936670
v -0.02368391 0.05246294 -0.01539438
v -0.02759393 0.04842517 -0.01946608
v -0.02759393 0.04854682 -0.01946456
v -0.02368391 0.05288969 -0.01613546
v -0.02368391 0.05282308 -0.01587868
f 1 2 3
f 1 3 4
f 1 4 7
f 1 7 10
f 1 10 16
f 1 16 22
f 1 22 23
f 1 23 19
f 1 19 14
f 1 14 9
f 1 9 5
f 1 5 2
f 2 5 3
f 3 6 10
f 3 10 7
f 3 7 4
f 3 5 8
f 3 8 13
f 3 13 18
f 3 18 21
f 3 21 20
f 3 20 15
f 3 15 11
f 3 11 6
f 5 9 8
f 6 11 10
f 8 9 12
f 8 12 13
f 9 14 12
f 10 11 15
f 10 15 16
f 12 14 17
f 12 17 22
f 12 22 16
f 12 16 18
f 12 18 13
f 14 19 17
f 15 20 16
f 16 21 18
f 16 20 21
f 17 19 23
f 17 23 22

