# https://github.com/mikedh/trimesh
v 0.02176858 0.01897793 0.01974883
v 0.02170453 0.01897793 0.02186858
v 0.02202742 0.01876191 0.01974883
v 0.00866912 0.01897793 0.01974883
v 0.02323890 0.01755741 0.02186858
v 0.02324424 0.01758640 0.02152476
v 0.00921082 0.01897793 0.02186858
v 0.02395404 0.01698789 0.01974883
v -0.00228223 0.01671295 0.01974883
v 0.00866912 0.01897793 0.01982872
v 0.02369254 0.01712910 0.02186858
v 0.02388200 0.01698602 0.02152476
v 0.00917079 0.01897793 0.02181110
v -0.00228223 0.01630896 0.02186858
v 0.02455445 0.01633608 0.01974883
v -0.00228223 0.00942425 0.01974883
v 0.00895998 0.01897793 0.02150671
v 0.00887993 0.01897793 0.02125067
v 0.00878653 0.01897793 0.02088423
v 0.00868246 0.01897793 0.02032504
v 0.02383930 0.01695797 0.02186858
v 0.02448240 0.01624724 0.02152476
v 0.02453577 0.01631738 0.02032504
v -0.00228223 0.00942425 0.02186858
v 0.02485331 0.01571700 0.02032504
v 0.02485598 0.01573664 0.01974883
v 0.01752306 0.00942425 0.01974883
v 0.02443970 0.01621357 0.02186858
v 0.02481596 0.01561320 0.02186858
v 0.02482663 0.01564686 0.02152476
v 0.02002074 0.00942425 0.02186858
v 0.02486399 0.01541213 0.02186858
v 0.02497073 0.01482485 0.02186858
v 0.02497873 0.01482485 0.02152476
v 0.02486399 0.01530552 0.01974883
v 0.02409280 0.01431144 0.01974883
v 0.01818217 0.00942425 0.02026051
v 0.02479194 0.01414872 0.02080144
v 0.02441569 0.01323319 0.02186858
v 0.02495738 0.01443208 0.02186858
v 0.02488800 0.01379429 0.02186858
v 0.02487733 0.01390651 0.02152476
v 0.02486399 0.01500908 0.01974883
f 1 2 3
f 1 3 8
f 1 8 15
f 1 15 26
f 1 26 35
f 1 35 43
f 1 43 36
f 1 36 27
f 1 27 16
f 1 16 9
f 1 9 4
f 1 4 10
f 1 10 20
f 1 20 19
f 1 19 18
f 1 18 17
f 1 17 13
f 1 13 7
f 1 7 2
f 2 5 6
f 2 6 3
f 2 7 14
f 2 14 24
f 2 24 31
f 2 31 39
f 2 39 41
f 2 41 40
f 2 40 33
f 2 33 32
f 2 32 29
f 2 29 28
f 2 28 21
f 2 21 11
f 2 11 5
f 3 6 8
f 4 9 10
f 5 11 12
f 5 12 6
f 6 12 8
f 7 13 9
f 7 9 14
f 8 12 15
f 9 16 24
f 9 24 14
f 9 13 17
f 9 17 18
f 9 18 19
f 9 19 20
f 9 20 10
f 11 21 12
f 12 21 22
f 12 22 23
f 12 23 15
f 15 23 25
f 15 25 26
f 16 27 37
f 16 37 31
f 16 31 24
f 21 28 22
f 22 28 29
f 22 29 30
f 22 30 23
f 23 30 25
f 25 32 33
f 25 33 34
f 25 34 26
f 25 30 32
f 26 34 35
f 27 36 37
f 29 32 30
f 31 37 36
f 31 36 38
f 31 38 39
f 33 40 34
f 34 40 41
f 34 41 42
f 34 42 43
f 34 43 35
f 36 43 38
f 38 43 42
f 38 42 39
f 39 42 41

