# https://github.com/mikedh/trimesh
v 0.03221859 0.03168209 -0.00988723
v 0.03221859 0.02495509 -0.00988723
v 0.03221859 0.03168209 -0.01549206
v 0.02493625 0.03168209 -0.00988723
v 0.03221859 0.02226429 -0.01231520
v 0.02880890 0.02289032 -0.00988723
v 0.02954174 0.02141809 -0.01026967
v 0.03221859 0.03019058 -0.01551630
v 0.03208475 0.03168209 -0.01550308
v 0.02135104 0.03168209 -0.01362066
v 0.02441844 0.03128740 -0.00988723
v 0.03221859 0.02227850 -0.01309550
v 0.02975567 0.02134098 -0.01087528
v 0.02981711 0.02131967 -0.01166550
v 0.02773049 0.02227748 -0.00988723
v 0.02892739 0.02136939 -0.01021071
v 0.03221859 0.02607930 -0.01551630
v 0.03205512 0.03044222 -0.01551630
v 0.03129705 0.03159889 -0.01551630
v 0.03101730 0.03167803 -0.01551630
v 0.03100084 0.03168209 -0.01551630
v 0.02134884 0.03168209 -0.01417117
v 0.02101863 0.02879344 -0.01244580
v 0.02400046 0.03042497 -0.00988723
v 0.02434274 0.03114637 -0.00988723
v 0.03128718 0.02327994 -0.01551630
v 0.03221859 0.02244490 -0.01325420
v 0.03012758 0.02287713 -0.01551630
v 0.02890545 0.02131663 -0.01087969
v 0.02929052 0.02131967 -0.01166550
v 0.02724778 0.02206543 -0.00988723
v 0.02813311 0.02135823 -0.01019528
v 0.03221859 0.02355287 -0.01399648
v 0.02209485 0.03168209 -0.01551630
v 0.02101095 0.02802536 -0.01286405
v 0.02101863 0.02879344 -0.01286571
v 0.02194126 0.03161513 -0.01551630
v 0.02211569 0.02817857 -0.01551630
v 0.02101095 0.02802536 -0.01234826
v 0.02232084 0.02503322 -0.01026581
v 0.02280575 0.02446807 -0.00988723
v 0.03221859 0.02323327 -0.01379534
v 0.02532900 0.02370811 -0.01538515
v 0.02532900 0.02377711 -0.01551630
v 0.02813311 0.02135823 -0.01048238
v 0.02468283 0.02379436 -0.01513938
v 0.02532900 0.02220443 -0.00988723
v 0.02511727 0.02225618 -0.00988723
v 0.02108226 0.02733643 -0.01273621
v 0.02213105 0.02809335 -0.01551630
v 0.02108226 0.02733643 -0.01246894
v 0.02230878 0.02380450 -0.01022724
v 0.02230768 0.02442546 -0.01023220
v 0.02279807 0.02441024 -0.00988723
v 0.02427801 0.02434327 -0.01551630
v 0.02433835 0.02249664 -0.00988723
v 0.02385345 0.02271378 -0.00988723
v 0.02381066 0.02274929 -0.00992691
v 0.02291436 0.02355592 -0.01079042
v 0.02230878 0.02380450 -0.01033359
v 0.02343766 0.02491857 -0.01527439
v 0.02219797 0.02479884 -0.01186058
v 0.02253916 0.02682506 -0.01551630
v 0.02291326 0.02567751 -0.01551630
v 0.02275748 0.02347881 -0.00988723
v 0.02397742 0.02459693 -0.01551630
v 0.02280246 0.02344634 -0.00988723
v 0.02319192 0.02530210 -0.01551630
f 1 2 5
f 1 5 12
f 1 12 27
f 1 27 42
f 1 42 33
f 1 33 17
f 1 17 8
f 1 8 3
f 1 3 9
f 1 9 21
f 1 21 34
f 1 34 22
f 1 22 10
f 1 10 4
f 1 4 11
f 1 11 25
f 1 25 24
f 1 24 41
f 1 41 54
f 1 54 65
f 1 65 67
f 1 67 57
f 1 57 56
f 1 56 48
f 1 48 47
f 1 47 31
f 1 31 15
f 1 15 6
f 1 6 2
f 2 6 7
f 2 7 5
f 3 8 9
f 4 10 11
f 5 7 13
f 5 13 14
f 5 14 12
f 6 15 7
f 7 15 16
f 7 16 13
f 8 17 26
f 8 26 28
f 8 28 44
f 8 44 55
f 8 55 66
f 8 66 68
f 8 68 64
f 8 64 63
f 8 63 50
f 8 50 38
f 8 38 37
f 8 37 34
f 8 34 21
f 8 21 20
f 8 20 19
f 8 19 18
f 8 18 9
f 9 18 19
f 9 19 20
f 9 20 21
f 10 22 23
f 10 23 24
f 10 24 25
f 10 25 11
f 12 26 27
f 12 14 28
f 12 28 26
f 13 16 29
f 13 29 14
f 14 29 30
f 14 30 28
f 15 31 16
f 16 31 32
f 16 32 29
f 17 33 26
f 22 35 36
f 22 36 23
f 22 34 37
f 22 37 38
f 22 38 35
f 23 36 35
f 23 35 39
f 23 39 40
f 23 40 24
f 24 40 41
f 26 33 42
f 26 42 27
f 28 30 43
f 28 43 44
f 29 32 45
f 29 45 30
f 30 45 46
f 30 46 43
f 31 47 32
f 32 47 48
f 32 48 45
f 35 49 51
f 35 51 39
f 35 38 50
f 35 50 49
f 39 51 52
f 39 52 53
f 39 53 40
f 40 53 54
f 40 54 41
f 43 46 44
f 44 46 55
f 45 48 56
f 45 56 46
f 46 56 57
f 46 57 58
f 46 58 59
f 46 59 60
f 46 60 61
f 46 61 55
f 49 62 60
f 49 60 52
f 49 52 51
f 49 50 63
f 49 63 64
f 49 64 62
f 52 65 53
f 52 60 65
f 53 65 54
f 55 61 66
f 57 67 60
f 57 60 58
f 58 60 59
f 60 67 65
f 60 62 64
f 60 64 68
f 60 68 61
f 61 68 66

