# https://github.com/mikedh/trimesh
v -0.00181353 0.02884510 -0.01936962
v -0.00467202 0.02768932 -0.01600971
v -0.00181353 0.02752259 -0.01618285
v -0.00181353 0.02884510 -0.01945425
v -0.01102357 0.02884510 -0.01771981
v -0.00467202 0.02682510 -0.01573493
v -0.00181353 0.02682510 -0.01586672
v -0.00181353 0.02710008 -0.01599077
v -0.01250376 0.02884510 -0.01763053
v -0.01558493 0.02884510 -0.01749914
v -0.01628791 0.02884510 -0.01750880
v -0.01508717 0.02632927 -0.01619560
v -0.00181353 0.02266201 -0.01945425
v -0.01668233 0.02884510 -0.01945425
v -0.00467202 0.02442537 -0.01550615
v -0.00181353 0.02562480 -0.01563600
v -0.01187064 0.02442537 -0.01556528
v -0.01067135 0.02442537 -0.01552431
v -0.01668233 0.02884510 -0.01754319
v -0.01668233 0.02682510 -0.01682669
v -0.01668233 0.02681462 -0.01682321
v -0.01548159 0.02557591 -0.01609473
v -0.01427067 0.02442537 -0.01570325
v -0.00181353 0.02316396 -0.01687539
v -0.01668233 0.01992707 -0.01698630
v -0.01668233 0.02005976 -0.01789410
v -0.01668233 0.02046655 -0.01945425
v -0.00347273 0.02442537 -0.01556837
v -0.01668233 0.02084104 -0.01609318
v -0.00181353 0.02488366 -0.01566769
v -0.01668233 0.02557853 -0.01648738
v -0.01616711 0.02514293 -0.01624622
v -0.01668233 0.02166249 -0.01611058
v -0.01668233 0.02101040 -0.01609396
v -0.00181353 0.02333855 -0.01655887
v -0.00181353 0.02363448 -0.01602787
v -0.01668233 0.02024482 -0.01642979
v -0.00347273 0.02354282 -0.01587406
v -0.00181353 0.02442537 -0.01570479
v -0.01668233 0.02550957 -0.01647694
v -0.00181353 0.02393739 -0.01589261
f 1 2 3
f 1 3 8
f 1 8 7
f 1 7 16
f 1 16 30
f 1 30 39
f 1 39 41
f 1 41 36
f 1 36 35
f 1 35 24
f 1 24 13
f 1 13 4
f 1 4 14
f 1 14 19
f 1 19 11
f 1 11 10
f 1 10 9
f 1 9 5
f 1 5 2
f 2 6 7
f 2 7 8
f 2 8 3
f 2 5 9
f 2 9 10
f 2 10 11
f 2 11 12
f 2 12 6
f 4 13 27
f 4 27 14
f 6 15 16
f 6 16 7
f 6 12 17
f 6 17 18
f 6 18 15
f 11 19 12
f 12 19 20
f 12 20 21
f 12 21 22
f 12 22 23
f 12 23 17
f 13 24 25
f 13 25 26
f 13 26 27
f 14 27 26
f 14 26 25
f 14 25 37
f 14 37 29
f 14 29 34
f 14 34 33
f 14 33 40
f 14 40 31
f 14 31 21
f 14 21 20
f 14 20 19
f 15 28 16
f 15 18 29
f 15 29 28
f 16 28 30
f 17 23 29
f 17 29 18
f 21 31 22
f 22 31 32
f 22 32 33
f 22 33 23
f 23 33 34
f 23 34 29
f 24 35 25
f 25 35 36
f 25 36 37
f 28 29 38
f 28 38 39
f 28 39 30
f 29 37 38
f 31 40 32
f 32 40 33
f 36 41 38
f 36 38 37
f 38 41 39

