# https://github.com/mikedh/trimesh
v -0.00311717 -0.02216458 0.01785817
v -0.00294723 -0.02283435 0.01752344
v -0.00317545 -0.02216458 0.01775949
v -0.00345142 -0.02216458 0.01869947
v -0.00281943 -0.02269813 0.01858420
v -0.00281943 -0.02269813 0.01819503
v -0.00228223 -0.02406297 0.01789347
v -0.00228223 -0.02436286 0.01752344
v -0.00337137 -0.02216458 0.01752344
v -0.00228223 -0.02565124 0.02186858
v -0.00434885 -0.02216458 0.01869904
v -0.00360591 -0.02563239 0.02186858
v -0.00228223 -0.02492763 0.02032464
v -0.00228223 -0.02438870 0.01915882
v -0.00228223 -0.02627578 0.01752344
v -0.00442961 -0.02216458 0.01752344
v -0.00228223 -0.02691647 0.02186858
v -0.00455460 -0.02216458 0.01805807
v -0.00945606 -0.02628224 0.02186390
v -0.00861551 -0.02613041 0.02186858
v -0.00741542 -0.02596728 0.02186858
v -0.00501876 -0.02568893 0.02186858
v -0.00228223 -0.02697300 0.02186560
v -0.00945606 -0.02759969 0.02035441
v -0.00945606 -0.02713183 0.01752896
v -0.00867309 -0.02702038 0.01752344
v -0.00445629 -0.02216458 0.01759404
v -0.00945606 -0.02568139 0.01752344
v -0.00945606 -0.02762338 0.02186858
v -0.00457988 -0.02216458 0.01792494
v -0.00945606 -0.02564747 0.01892106
v -0.00945606 -0.02567116 0.01903292
v -0.00945606 -0.02632639 0.02186858
v -0.00945606 -0.02765246 0.02166442
v -0.00945606 -0.02766484 0.02152449
v -0.00945606 -0.02760077 0.02037100
v -0.00945606 -0.02582729 0.01752344
v -0.00945606 -0.02562647 0.01790198
v -0.00945606 -0.02562755 0.01803085
f 1 2 3
f 1 3 9
f 1 9 16
f 1 16 27
f 1 27 30
f 1 30 18
f 1 18 11
f 1 11 4
f 1 4 5
f 1 5 6
f 1 6 7
f 1 7 8
f 1 8 2
f 2 9 3
f 2 8 15
f 2 15 26
f 2 26 37
f 2 37 28
f 2 28 16
f 2 16 9
f 4 10 5
f 4 11 12
f 4 12 10
f 5 10 13
f 5 13 14
f 5 14 7
f 5 7 6
f 7 14 13
f 7 13 10
f 7 10 17
f 7 17 23
f 7 23 15
f 7 15 8
f 10 12 22
f 10 22 21
f 10 21 20
f 10 20 33
f 10 33 29
f 10 29 17
f 11 18 19
f 11 19 20
f 11 20 21
f 11 21 22
f 11 22 12
f 15 23 24
f 15 24 25
f 15 25 26
f 16 28 27
f 17 29 23
f 18 30 31
f 18 31 32
f 18 32 19
f 19 32 31
f 19 31 39
f 19 39 38
f 19 38 28
f 19 28 37
f 19 37 25
f 19 25 24
f 19 24 36
f 19 36 35
f 19 35 34
f 19 34 29
f 19 29 33
f 19 33 20
f 23 29 34
f 23 34 35
f 23 35 36
f 23 36 24
f 25 37 26
f 27 28 30
f 28 38 30
f 30 38 39
f 30 39 31

