# https://github.com/mikedh/trimesh
v -0.01814046 0.00146433 0.00706036
v -0.00107281 0.00762621 0.00613346
v -0.00107281 0.00653142 0.00628591
v -0.01547079 0.00146433 0.00705765
v -0.01814046 0.00146433 0.01101936
v -0.01814046 0.02072634 0.00636451
v -0.01796948 0.02084624 0.00630353
v -0.01666935 0.02082462 0.00607045
v -0.00107281 0.01122506 0.00614430
v -0.00084596 0.01122506 0.00615311
v -0.00084596 0.00762621 0.00615514
v -0.00084596 0.00656287 0.00630421
v -0.00084596 0.00146433 0.00782940
v -0.00816769 0.00146433 0.00732258
v -0.00827264 0.00146433 0.00731648
v -0.01427053 0.00146433 0.00708069
v -0.01101004 0.00146433 0.01299241
v -0.01106929 0.00156261 0.01299241
v -0.01814046 0.00348094 0.01131613
v -0.01814046 0.02099758 0.00639093
v -0.01771047 0.02154006 0.00633470
v -0.01742099 0.02154006 0.00628253
v -0.01666935 0.02154006 0.00620664
v -0.00947290 0.02154006 0.00631979
v -0.00107281 0.01242205 0.00620122
v -0.00084596 0.01242205 0.00621070
v -0.00084596 0.00146433 0.01299241
v -0.01814046 0.01540177 0.01299241
v -0.01814046 0.02122558 0.00645327
v -0.01814046 0.02154006 0.00653932
v -0.00829635 0.02154006 0.00636925
v -0.00600418 0.02154006 0.00647156
v -0.00541506 0.02154006 0.00650815
v -0.00084766 0.02154006 0.00692079
v -0.00084596 0.01322595 0.00639907
v -0.00084596 0.01474136 0.01299241
v -0.01814046 0.01803752 0.01299241
v -0.01814046 0.02154006 0.01003215
v -0.00084766 0.02154006 0.00991832
v -0.00084596 0.01474136 0.00777045
v -0.00084596 0.01382740 0.00690656
v -0.00084766 0.01610935 0.01299241
v -0.00227306 0.01632753 0.01299241
v -0.01426884 0.02154006 0.01095295
v -0.01475300 0.02154006 0.01092788
v -0.01546909 0.02154006 0.01081676
v -0.01602605 0.02154006 0.01068328
v -0.01675907 0.02154006 0.01045969
v -0.00096108 0.02154006 0.00993458
v -0.00106943 0.01614866 0.01299241
v -0.00107281 0.02154006 0.00994949
v -0.01355275 0.02154006 0.01089875
f 1 2 3
f 1 3 4
f 1 4 16
f 1 16 15
f 1 15 14
f 1 14 13
f 1 13 27
f 1 27 17
f 1 17 5
f 1 5 19
f 1 19 28
f 1 28 37
f 1 37 38
f 1 38 30
f 1 30 29
f 1 29 20
f 1 20 6
f 1 6 7
f 1 7 8
f 1 8 2
f 2 9 10
f 2 10 11
f 2 11 3
f 2 8 9
f 3 11 12
f 3 12 13
f 3 13 14
f 3 14 15
f 3 15 16
f 3 16 4
f 5 17 18
f 5 18 19
f 6 20 7
f 7 20 21
f 7 21 22
f 7 22 8
f 8 22 23
f 8 23 24
f 8 24 9
f 9 25 10
f 9 24 25
f 10 25 26
f 10 26 35
f 10 35 41
f 10 41 40
f 10 40 36
f 10 36 27
f 10 27 13
f 10 13 12
f 10 12 11
f 17 27 36
f 17 36 42
f 17 42 50
f 17 50 43
f 17 43 37
f 17 37 28
f 17 28 18
f 18 28 19
f 20 29 21
f 21 29 30
f 21 30 38
f 21 38 48
f 21 48 47
f 21 47 46
f 21 46 45
f 21 45 44
f 21 44 52
f 21 52 51
f 21 51 49
f 21 49 39
f 21 39 34
f 21 34 33
f 21 33 32
f 21 32 31
f 21 31 24
f 21 24 23
f 21 23 22
f 24 31 26
f 24 26 25
f 26 31 32
f 26 32 33
f 26 33 34
f 26 34 35
f 34 39 36
f 34 36 40
f 34 40 41
f 34 41 35
f 36 39 42
f 37 43 44
f 37 44 45
f 37 45 46
f 37 46 47
f 37 47 48
f 37 48 38
f 39 49 42
f 42 49 51
f 42 51 50
f 43 50 51
f 43 51 52
f 43 52 44

