# https://github.com/mikedh/trimesh
v 0.02301298 -0.02479282 0.00614134
v 0.02301298 -0.02479282 0.00725323
v 0.02301298 -0.02477356 0.00614063
v 0.02388875 -0.02479282 0.00610923
v 0.03130351 -0.02479282 0.00829995
v 0.02301298 -0.02089051 0.00845145
v 0.02412887 -0.02477356 0.00609996
v 0.02301298 -0.02357229 0.00611827
v 0.02412887 -0.02357229 0.00607094
v 0.02414655 -0.02479282 0.00609996
v 0.03250595 -0.02479282 0.00844456
v 0.03251991 -0.02479282 0.00844527
v 0.02540577 -0.01898148 0.00845145
v 0.02301298 -0.00397890 0.00845145
v 0.02301298 -0.02245769 0.00610210
v 0.02532852 -0.02357229 0.00607213
v 0.02532852 -0.02477356 0.00608045
v 0.02532852 -0.02479282 0.00608069
v 0.02301298 -0.02237343 0.00610186
v 0.02412887 -0.02237343 0.00606785
v 0.02772875 -0.01157649 0.00602195
v 0.02716848 -0.01395735 0.00845145
v 0.02679714 -0.01630211 0.00845145
v 0.02675154 -0.01651636 0.00845145
v 0.02629643 -0.01768392 0.00845145
v 0.02554723 -0.01883463 0.00845145
v 0.02548022 -0.01891167 0.00845145
v 0.03251991 -0.02479282 0.00706772
v 0.03251991 -0.00197599 0.00737096
v 0.02741325 -0.00019937 0.00845145
v 0.02742256 -0.00082047 0.00845145
v 0.02750074 -0.01037522 0.00845145
v 0.02310047 -0.00083491 0.00845145
v 0.02301298 -0.00019937 0.00837654
v 0.03251991 -0.01037522 0.00603003
v 0.02534714 -0.02479282 0.00608164
v 0.03251991 -0.01157649 0.00606071
v 0.02301298 -0.00207229 0.00638179
v 0.02652817 -0.00797510 0.00609449
v 0.02772875 -0.01037522 0.00603241
v 0.02964038 -0.02479282 0.00648620
v 0.03251991 -0.02340859 0.00659109
v 0.03251991 -0.00020419 0.00725989
v 0.03251991 -0.00019937 0.00724562
v 0.02314235 -0.00019937 0.00845145
v 0.02301298 -0.00019937 0.00668908
v 0.03251991 -0.00019937 0.00613872
v 0.02652817 -0.02479282 0.00614443
v 0.03251991 -0.02006479 0.00640249
v 0.03230958 -0.02314138 0.00649120
v 0.02301298 -0.00124416 0.00650095
v 0.02772875 -0.00019937 0.00615561
v 0.02772875 -0.00317485 0.00611589
v 0.02772875 -0.00437612 0.00610091
v 0.02892747 -0.02479282 0.00640035
v 0.02654679 -0.02479282 0.00614610
f 1 2 6
f 1 6 14
f 1 14 34
f 1 34 46
f 1 46 51
f 1 51 38
f 1 38 19
f 1 19 15
f 1 15 8
f 1 8 3
f 1 3 4
f 1 4 10
f 1 10 18
f 1 18 36
f 1 36 48
f 1 48 56
f 1 56 55
f 1 55 41
f 1 41 28
f 1 28 12
f 1 12 11
f 1 11 5
f 1 5 2
f 2 5 6
f 3 7 4
f 3 8 9
f 3 9 7
f 4 7 10
f 5 11 6
f 6 11 12
f 6 12 13
f 6 13 27
f 6 27 26
f 6 26 25
f 6 25 24
f 6 24 23
f 6 23 22
f 6 22 32
f 6 32 31
f 6 31 30
f 6 30 45
f 6 45 33
f 6 33 14
f 7 9 10
f 8 15 9
f 9 16 17
f 9 17 18
f 9 18 10
f 9 15 19
f 9 19 20
f 9 20 21
f 9 21 16
f 12 22 23
f 12 23 24
f 12 24 25
f 12 25 26
f 12 26 27
f 12 27 13
f 12 28 42
f 12 42 49
f 12 49 37
f 12 37 35
f 12 35 47
f 12 47 44
f 12 44 43
f 12 43 29
f 12 29 30
f 12 30 31
f 12 31 32
f 12 32 22
f 14 33 34
f 16 21 35
f 16 35 17
f 17 35 18
f 18 35 37
f 18 37 36
f 19 38 39
f 19 39 21
f 19 21 20
f 21 39 40
f 21 40 35
f 28 41 42
f 29 43 30
f 30 43 44
f 30 44 47
f 30 47 52
f 30 52 46
f 30 46 34
f 30 34 45
f 33 45 34
f 35 40 47
f 36 37 48
f 37 49 50
f 37 50 48
f 38 51 52
f 38 52 39
f 39 52 53
f 39 53 54
f 39 54 40
f 40 54 47
f 41 55 50
f 41 50 42
f 42 50 49
f 46 52 51
f 47 54 53
f 47 53 52
f 48 50 56
f 50 55 56

