# https://github.com/mikedh/trimesh
v 0.01917407 0.02256226 0.01176732
v 0.01917407 0.02256226 0.00655290
v 0.02405799 0.02256226 0.01158598
v 0.02303383 0.02333308 0.01159119
v 0.01917407 0.02750675 0.01150616
v 0.02254796 0.02549207 0.00290367
v 0.02304936 0.02450134 0.00290367
v 0.02356969 0.02385994 0.00290367
v 0.02413225 0.02346365 0.00290367
v 0.01937938 0.02256226 0.00651906
v 0.01917407 0.03270436 0.00348932
v 0.01986476 0.03218093 0.00290887
v 0.02388956 0.02300437 0.01155215
v 0.02270425 0.02421958 0.01153740
v 0.02407837 0.02256226 0.01079818
v 0.02413225 0.03162429 0.00717759
v 0.02413225 0.03282462 0.00697022
v 0.02413225 0.03371800 0.00664486
v 0.02052828 0.02651373 0.01146278
v 0.02292656 0.03426204 0.00671080
v 0.02172766 0.03426204 0.00693292
v 0.02076466 0.03426204 0.00701360
v 0.02052828 0.03426204 0.00702228
v 0.01956480 0.03426204 0.00702575
v 0.01932842 0.03426204 0.00702575
v 0.01917407 0.03426204 0.00701968
v 0.01991961 0.03214428 0.00290367
v 0.02413225 0.03161742 0.00290367
v 0.02413225 0.02256226 0.00610694
v 0.02412788 0.02256226 0.00610694
v 0.02292753 0.02256226 0.00620064
v 0.01963518 0.02256226 0.00649129
v 0.01917407 0.03284295 0.00345114
v 0.01917407 0.03402495 0.00343552
v 0.01986476 0.03226913 0.00290887
v 0.02142381 0.02562608 0.01147233
v 0.02413225 0.02256226 0.00736239
v 0.02413225 0.02923165 0.00724092
v 0.02413225 0.03426204 0.00630996
v 0.01917407 0.03426204 0.00349799
v 0.01991961 0.03222445 0.00290367
v 0.02009484 0.03222445 0.00290367
v 0.02005698 0.03226913 0.00290887
v 0.01932842 0.03426204 0.00349452
v 0.02029141 0.03426204 0.00363074
v 0.02052828 0.03426204 0.00367238
v 0.02159952 0.03426204 0.00389276
v 0.02170339 0.03426204 0.00391792
v 0.02246011 0.03426204 0.00410793
v 0.02298577 0.03426204 0.00424935
v 0.02312799 0.03426204 0.00429360
v 0.02410798 0.03426204 0.00462504
v 0.02413225 0.03425746 0.00463111
v 0.02413225 0.03426204 0.00630302
f 1 2 10
f 1 10 32
f 1 32 31
f 1 31 30
f 1 30 29
f 1 29 37
f 1 37 15
f 1 15 3
f 1 3 4
f 1 4 5
f 1 5 26
f 1 26 40
f 1 40 34
f 1 34 33
f 1 33 11
f 1 11 2
f 2 6 7
f 2 7 8
f 2 8 9
f 2 9 10
f 2 11 12
f 2 12 6
f 3 13 14
f 3 14 5
f 3 5 4
f 3 15 16
f 3 16 17
f 3 17 18
f 3 18 13
f 5 14 19
f 5 19 18
f 5 18 20
f 5 20 21
f 5 21 22
f 5 22 23
f 5 23 24
f 5 24 25
f 5 25 26
f 6 12 27
f 6 27 41
f 6 41 42
f 6 42 28
f 6 28 9
f 6 9 8
f 6 8 7
f 9 28 53
f 9 53 54
f 9 54 39
f 9 39 18
f 9 18 17
f 9 17 16
f 9 16 38
f 9 38 37
f 9 37 29
f 9 29 30
f 9 30 31
f 9 31 32
f 9 32 10
f 11 33 12
f 12 33 34
f 12 34 35
f 12 35 41
f 12 41 27
f 13 18 14
f 14 36 19
f 14 18 36
f 15 37 38
f 15 38 16
f 18 39 20
f 18 19 36
f 20 39 54
f 20 54 52
f 20 52 51
f 20 51 50
f 20 50 49
f 20 49 48
f 20 48 47
f 20 47 46
f 20 46 45
f 20 45 44
f 20 44 40
f 20 40 26
f 20 26 25
f 20 25 24
f 20 24 23
f 20 23 22
f 20 22 21
f 28 42 43
f 28 43 44
f 28 44 45
f 28 45 46
f 28 46 47
f 28 47 48
f 28 48 49
f 28 49 50
f 28 50 51
f 28 51 52
f 28 52 53
f 34 40 35
f 35 43 42
f 35 42 41
f 35 40 44
f 35 44 43
f 52 54 53

