# https://github.com/mikedh/trimesh
v -0.00084591 0.00146107 0.01299175
v -0.00084591 0.00146107 0.00782854
v -0.00552960 0.00146107 0.01299175
v -0.00084591 -0.01534046 0.01299175
v -0.00252039 0.00120877 0.00768935
v -0.00231039 0.00146107 0.00776394
v -0.00084591 -0.00695116 0.00639605
v -0.00552960 0.00146107 0.00771466
v -0.00552960 -0.01648373 0.01299175
v -0.00349335 -0.01628083 0.01299175
v -0.00084591 -0.01656312 0.00991433
v -0.00552960 0.00117348 0.00765272
v -0.00552960 0.00131463 0.00767603
v -0.00107241 -0.00693881 0.00638806
v -0.00084591 -0.00797446 0.00624754
v -0.00107241 -0.00797446 0.00623156
v -0.00552960 -0.01656312 0.01024132
v -0.00467173 -0.01654372 0.01299175
v -0.00351995 -0.01628789 0.01299175
v -0.00467173 -0.01656312 0.01032124
v -0.00084591 -0.01656312 0.00799369
v -0.00552960 0.00042718 0.00757947
v -0.00227234 -0.00797446 0.00627151
v -0.00084591 -0.00820029 0.00624155
v -0.00084591 -0.00917419 0.00622357
v -0.00107241 -0.00917419 0.00620958
v -0.00227234 -0.00917419 0.00621757
v -0.00525725 -0.01656312 0.01028661
v -0.00552960 -0.01656312 0.00800968
v -0.00099722 -0.01656312 0.00798371
v -0.00084591 -0.01349499 0.00646864
v -0.00552960 0.00008137 0.00756149
v -0.00296928 -0.00797446 0.00644666
v -0.00305914 -0.00917419 0.00640071
v -0.00084591 -0.01037392 0.00620359
v -0.00107241 -0.01037392 0.00618960
v -0.00227234 -0.01037392 0.00621957
v -0.00309720 -0.01037392 0.00640804
v -0.00552960 -0.01482528 0.00770267
v -0.00288124 -0.01338207 0.00651925
v -0.00227234 -0.01343853 0.00648995
v -0.00107241 -0.01349675 0.00646731
v -0.00084591 -0.01290924 0.00634477
v -0.00552960 -0.00077608 0.00751953
v -0.00552960 -0.00197581 0.00750221
v -0.00084591 -0.01157366 0.00621158
v -0.00107241 -0.01157366 0.00619626
v -0.00227234 -0.01157366 0.00627151
v -0.00227234 -0.01277339 0.00639072
v -0.00107241 -0.01277339 0.00631480
v -0.00084591 -0.01277339 0.00632346
v -0.00084591 -0.01179949 0.00622756
f 1 2 6
f 1 6 8
f 1 8 3
f 1 3 9
f 1 9 18
f 1 18 19
f 1 19 10
f 1 10 4
f 1 4 11
f 1 11 21
f 1 21 31
f 1 31 43
f 1 43 51
f 1 51 52
f 1 52 46
f 1 46 35
f 1 35 25
f 1 25 24
f 1 24 15
f 1 15 7
f 1 7 2
f 2 5 6
f 2 7 5
f 3 8 13
f 3 13 12
f 3 12 22
f 3 22 32
f 3 32 44
f 3 44 45
f 3 45 39
f 3 39 29
f 3 29 17
f 3 17 9
f 4 10 11
f 5 12 13
f 5 13 8
f 5 8 6
f 5 7 14
f 5 14 12
f 7 15 16
f 7 16 14
f 9 17 18
f 10 19 11
f 11 19 18
f 11 18 20
f 11 20 28
f 11 28 17
f 11 17 29
f 11 29 30
f 11 30 21
f 12 14 16
f 12 16 23
f 12 23 22
f 15 24 16
f 16 24 25
f 16 25 26
f 16 26 27
f 16 27 23
f 17 28 18
f 18 28 20
f 21 30 31
f 22 23 33
f 22 33 34
f 22 34 32
f 23 27 34
f 23 34 33
f 25 35 36
f 25 36 26
f 26 36 27
f 27 36 37
f 27 37 38
f 27 38 34
f 29 39 40
f 29 40 41
f 29 41 42
f 29 42 30
f 30 42 31
f 31 42 43
f 32 34 44
f 34 38 45
f 34 45 44
f 35 46 47
f 35 47 36
f 36 47 37
f 37 47 48
f 37 48 38
f 38 48 40
f 38 40 39
f 38 39 45
f 40 48 49
f 40 49 50
f 40 50 41
f 41 50 42
f 42 50 43
f 43 50 51
f 46 52 47
f 47 52 51
f 47 51 50
f 47 50 48
f 48 50 49

