# https://github.com/mikedh/trimesh
v -0.02414367 0.01527642 -0.01921594
v -0.02360753 0.01527642 -0.01921594
v -0.02414367 0.01527642 -0.01728780
v -0.02414367 0.02884377 -0.01921594
v -0.02172157 0.01527642 -0.01769227
v -0.01907011 0.01868320 -0.01921594
v -0.02384419 0.01527642 -0.01688232
v -0.02414367 0.01593121 -0.01699942
v -0.02414367 0.02884377 -0.01891713
v -0.01668306 0.02884377 -0.01921594
v -0.02151631 0.01527642 -0.01688400
v -0.01677510 0.02041647 -0.01921594
v -0.01668306 0.02048687 -0.01921594
v -0.01668306 0.02006052 -0.01789417
v -0.02333508 0.01527642 -0.01622749
v -0.02414367 0.01891297 -0.01622783
v -0.02344246 0.02760990 -0.01727098
v -0.02267186 0.02767232 -0.01716363
v -0.01671082 0.02884377 -0.01754589
v -0.02414367 0.02112306 -0.01618778
v -0.01668306 0.02884377 -0.01754320
v -0.02167044 0.01527642 -0.01642232
v -0.01668526 0.01992372 -0.01698865
v -0.01668306 0.01992770 -0.01698630
v -0.02267112 0.01527642 -0.01613260
v -0.02414367 0.01962621 -0.01607909
v -0.02414367 0.01938049 -0.01611140
v -0.02226428 0.02638797 -0.01619721
v -0.02147176 0.02647563 -0.01611779
v -0.02414367 0.02086407 -0.01613933
v -0.02057625 0.02639594 -0.01614337
v -0.01668306 0.02682494 -0.01682646
v -0.02183405 0.01527642 -0.01616995
v -0.01947111 0.01755026 -0.01607203
v -0.01668306 0.02024514 -0.01643006
v -0.02230664 0.01527642 -0.01613294
v -0.02027239 0.01842553 -0.01577826
v -0.02387195 0.01962621 -0.01605554
v -0.02147176 0.02562427 -0.01590041
v -0.01668306 0.02681432 -0.01682310
v -0.02021542 0.02560169 -0.01603973
v -0.01668306 0.02557778 -0.01648727
v -0.02027239 0.01732845 -0.01595896
v -0.01907157 0.01843483 -0.01595526
v -0.01821404 0.01884125 -0.01611005
v -0.01709430 0.02002200 -0.01618240
v -0.01668306 0.02084149 -0.01609323
v -0.01668526 0.02084415 -0.01608953
v -0.01787220 0.02082555 -0.01587820
v -0.01668306 0.02550871 -0.01647684
v -0.01783787 0.01962355 -0.01603165
v -0.01668306 0.02101017 -0.01609390
v -0.01668306 0.02166230 -0.01611073
f 1 2 5
f 1 5 11
f 1 11 22
f 1 22 33
f 1 33 36
f 1 36 25
f 1 25 15
f 1 15 7
f 1 7 3
f 1 3 8
f 1 8 16
f 1 16 27
f 1 27 26
f 1 26 30
f 1 30 20
f 1 20 9
f 1 9 4
f 1 4 10
f 1 10 13
f 1 13 12
f 1 12 6
f 1 6 2
f 2 6 5
f 3 7 8
f 4 9 19
f 4 19 21
f 4 21 10
f 5 6 12
f 5 12 13
f 5 13 14
f 5 14 11
f 7 15 8
f 8 15 16
f 9 17 18
f 9 18 19
f 9 20 17
f 10 21 32
f 10 32 40
f 10 40 42
f 10 42 50
f 10 50 53
f 10 53 52
f 10 52 47
f 10 47 35
f 10 35 24
f 10 24 14
f 10 14 13
f 11 14 23
f 11 23 22
f 14 24 23
f 15 25 26
f 15 26 27
f 15 27 16
f 17 28 18
f 17 20 28
f 18 21 19
f 18 28 29
f 18 29 21
f 20 30 28
f 21 29 31
f 21 31 32
f 22 23 34
f 22 34 33
f 23 24 35
f 23 35 34
f 25 36 37
f 25 37 26
f 26 37 38
f 26 38 39
f 26 39 30
f 28 39 29
f 28 30 39
f 29 39 31
f 31 40 32
f 31 39 41
f 31 41 42
f 31 42 40
f 33 34 43
f 33 43 37
f 33 37 36
f 34 44 43
f 34 35 45
f 34 45 44
f 35 46 45
f 35 47 48
f 35 48 46
f 37 43 44
f 37 44 49
f 37 49 39
f 37 39 38
f 39 49 41
f 41 50 42
f 41 49 50
f 44 45 51
f 44 51 48
f 44 48 49
f 45 46 48
f 45 48 51
f 47 52 48
f 48 52 49
f 49 52 53
f 49 53 50

