# https://github.com/mikedh/trimesh
v 0.01415011 -0.02692470 0.01792490
v 0.01415011 -0.02691851 0.01912474
v 0.01415011 -0.02690766 0.01752365
v 0.01436791 -0.02686118 0.01752365
v 0.01437738 -0.02686738 0.01792490
v 0.01439211 -0.02685499 0.01912474
v 0.01435949 -0.02681781 0.01974883
v 0.01415011 -0.02687203 0.01974883
v 0.01415011 -0.01595812 0.01752365
v 0.01496763 -0.02639953 0.01752365
v 0.01497710 -0.02640883 0.01792490
v 0.01499183 -0.02643826 0.01912474
v 0.01496027 -0.02643361 0.01974883
v 0.01415011 -0.01669708 0.01974883
v 0.01415011 -0.01604487 0.01792490
v 0.01679626 -0.01109992 0.01908879
v 0.01692988 -0.01109992 0.01798285
v 0.01704878 -0.01109992 0.01752365
v 0.02414656 -0.01714324 0.01752365
v 0.02394455 -0.01735083 0.01792490
v 0.02452323 -0.01671721 0.01974883
v 0.01687728 -0.01109992 0.01974883
v 0.01415011 -0.01630823 0.01912474
v 0.01860911 -0.01109992 0.01752365
v 0.02454637 -0.01671721 0.01752365
v 0.02453480 -0.01671567 0.01912474
v 0.02472734 -0.01640583 0.01974883
v 0.01842814 -0.01109992 0.01974883
v 0.01893212 -0.01120372 0.01752365
v 0.02477364 -0.01631908 0.01752365
v 0.02489674 -0.01611769 0.01974883
v 0.01975069 -0.01169945 0.01752365
v 0.02425493 -0.01479469 0.01974883
v 0.02488832 -0.01611769 0.01752365
v 0.02489779 -0.01533845 0.01974883
v 0.02408974 -0.01458246 0.01752365
v 0.02449692 -0.01497440 0.01974883
v 0.02488201 -0.01537099 0.01752365
v 0.02488622 -0.01547478 0.01792490
v 0.02430754 -0.01477765 0.01752365
f 1 2 8
f 1 8 14
f 1 14 23
f 1 23 15
f 1 15 9
f 1 9 3
f 1 3 4
f 1 4 5
f 1 5 2
f 2 5 6
f 2 6 7
f 2 7 8
f 3 9 18
f 3 18 24
f 3 24 29
f 3 29 32
f 3 32 36
f 3 36 40
f 3 40 38
f 3 38 34
f 3 34 30
f 3 30 25
f 3 25 19
f 3 19 10
f 3 10 4
f 4 10 11
f 4 11 12
f 4 12 5
f 5 12 6
f 6 12 13
f 6 13 7
f 7 13 21
f 7 21 27
f 7 27 31
f 7 31 35
f 7 35 37
f 7 37 33
f 7 33 28
f 7 28 22
f 7 22 14
f 7 14 8
f 9 15 16
f 9 16 17
f 9 17 18
f 10 19 11
f 11 19 12
f 12 19 20
f 12 20 21
f 12 21 13
f 14 22 23
f 15 23 16
f 16 22 28
f 16 28 24
f 16 24 18
f 16 18 17
f 16 23 22
f 19 25 26
f 19 26 20
f 20 26 21
f 21 26 27
f 24 28 29
f 25 30 31
f 25 31 27
f 25 27 26
f 28 32 29
f 28 33 32
f 30 34 31
f 31 34 35
f 32 33 36
f 33 37 36
f 34 38 39
f 34 39 35
f 35 39 38
f 35 38 40
f 35 40 37
f 36 37 40

