# https://github.com/mikedh/trimesh
v -0.04537173 0.03034634 -0.01605031
v -0.04384693 0.03138163 -0.01374800
v -0.04454553 0.03426006 -0.01605031
v -0.04534872 0.02969644 -0.01605031
v -0.04205230 0.02922571 -0.00988729
v -0.04180967 0.03042586 -0.00988729
v -0.04433009 0.03426006 -0.01571003
v -0.02727071 0.03426006 -0.01605031
v -0.04512282 0.02948758 -0.01605031
v -0.04399334 0.02884510 -0.01359475
v -0.04184732 0.02884510 -0.00988729
v -0.04143736 0.03097027 -0.00988729
v -0.04406236 0.03426006 -0.01530157
v -0.02431732 0.03426006 -0.01138415
v -0.02522928 0.02922783 -0.01605031
v -0.04462292 0.02913772 -0.01605031
v -0.04401635 0.02884510 -0.01437727
v -0.02492599 0.02884510 -0.00988729
v -0.04135370 0.03108212 -0.00988729
v -0.03814094 0.03426006 -0.00988729
v -0.02425457 0.03426006 -0.01107524
v -0.02509332 0.02884510 -0.01567503
v -0.02518326 0.02884510 -0.01605031
v -0.04383856 0.02884669 -0.01605031
v -0.04349135 0.02884510 -0.01553446
v -0.02491553 0.02884510 -0.01049484
v -0.02482350 0.02922571 -0.00988729
v -0.02412489 0.03426006 -0.00988729
v -0.02408515 0.03426006 -0.01002967
v -0.02404541 0.03416464 -0.00988729
v -0.02400567 0.03328892 -0.00988729
v -0.02499920 0.02884510 -0.01447501
v -0.04323199 0.02884510 -0.01605031
v -0.02491553 0.02884510 -0.01056241
v -0.02480677 0.02922571 -0.01087554
v -0.02491762 0.02884510 -0.01087554
f 1 2 3
f 1 3 8
f 1 8 15
f 1 15 23
f 1 23 33
f 1 33 24
f 1 24 16
f 1 16 9
f 1 9 4
f 1 4 5
f 1 5 2
f 2 5 6
f 2 6 3
f 3 6 7
f 3 7 13
f 3 13 20
f 3 20 28
f 3 28 29
f 3 29 21
f 3 21 14
f 3 14 8
f 4 9 10
f 4 10 5
f 5 10 11
f 5 11 18
f 5 18 27
f 5 27 31
f 5 31 30
f 5 30 28
f 5 28 20
f 5 20 19
f 5 19 12
f 5 12 6
f 6 12 13
f 6 13 7
f 8 14 15
f 9 16 10
f 10 16 17
f 10 17 25
f 10 25 33
f 10 33 23
f 10 23 22
f 10 22 32
f 10 32 36
f 10 36 34
f 10 34 26
f 10 26 18
f 10 18 11
f 12 19 13
f 13 19 20
f 14 21 22
f 14 22 23
f 14 23 15
f 16 24 17
f 17 24 25
f 18 26 27
f 21 29 30
f 21 30 31
f 21 31 22
f 22 31 32
f 24 33 25
f 26 34 35
f 26 35 27
f 27 35 31
f 28 30 29
f 31 35 32
f 32 35 36
f 34 36 35

