# https://github.com/mikedh/trimesh
v 0.01504158 -0.04221855 -0.01988234
v 0.01504158 -0.04213523 -0.01988234
v 0.01519775 -0.04221855 -0.01988234
v 0.01457632 -0.04310822 -0.01971403
v 0.00372898 -0.04310822 -0.01970816
v 0.00372898 -0.04277455 -0.01973849
v -0.00015901 -0.03918556 -0.01979916
v 0.01519775 -0.04213523 -0.01988234
v 0.03307601 -0.04155851 -0.01969250
v 0.03252616 -0.04277455 -0.01962596
v 0.03286128 -0.04310822 -0.01958780
v 0.02532605 -0.04310822 -0.01964847
v 0.00013056 -0.04310822 -0.01964260
v -0.00015901 -0.04310822 -0.01962988
v -0.00015901 -0.03918556 -0.01436149
v 0.03307601 -0.03918556 -0.01965630
v 0.03307601 -0.04310822 -0.01957703
v -0.00015901 -0.04310822 -0.01294262
v -0.00015901 -0.03945357 -0.00988669
v 0.00341013 -0.03918556 -0.01295437
v 0.03307601 -0.03918556 -0.01282031
v 0.03307601 -0.04310822 -0.01568152
v 0.00013056 -0.04095490 -0.00988669
v -0.00015901 -0.04088847 -0.00988669
v 0.00252842 -0.04310822 -0.01288195
v 0.00854424 -0.04189141 -0.00988669
v 0.00372898 -0.03918556 -0.01289174
v 0.01692539 -0.03921627 -0.00988669
v 0.03267582 -0.03918556 -0.00988669
v 0.03098072 -0.04103784 -0.00988669
v 0.03087661 -0.04114151 -0.00988669
v 0.03012504 -0.04161418 -0.00988669
v 0.02892773 -0.04179273 -0.00988669
v 0.01453077 -0.04310822 -0.01291327
v 0.01333021 -0.04310822 -0.01288391
v 0.00492954 -0.03918556 -0.01275377
v 0.03013155 -0.03918556 -0.00988669
f 1 2 8
f 1 8 3
f 1 3 4
f 1 4 5
f 1 5 6
f 1 6 7
f 1 7 2
f 2 7 8
f 3 8 9
f 3 9 10
f 3 10 11
f 3 11 12
f 3 12 4
f 4 12 11
f 4 11 17
f 4 17 22
f 4 22 34
f 4 34 35
f 4 35 25
f 4 25 18
f 4 18 14
f 4 14 13
f 4 13 5
f 5 13 6
f 6 13 7
f 7 13 14
f 7 14 18
f 7 18 24
f 7 24 19
f 7 19 15
f 7 15 20
f 7 20 27
f 7 27 36
f 7 36 37
f 7 37 29
f 7 29 21
f 7 21 16
f 7 16 8
f 8 16 9
f 9 16 21
f 9 21 22
f 9 22 17
f 9 17 11
f 9 11 10
f 15 19 20
f 18 23 24
f 18 25 26
f 18 26 23
f 19 27 20
f 19 24 23
f 19 23 26
f 19 26 33
f 19 33 32
f 19 32 31
f 19 31 30
f 19 30 29
f 19 29 37
f 19 37 28
f 19 28 27
f 21 29 22
f 22 29 30
f 22 30 31
f 22 31 32
f 22 32 33
f 22 33 34
f 25 35 26
f 26 35 33
f 27 28 36
f 28 37 36
f 33 35 34

