# https://github.com/mikedh/trimesh
v -0.04067196 -0.04157480 -0.02016112
v -0.04067196 -0.04277500 -0.02012569
v -0.04170748 -0.04157480 -0.02011487
v -0.04071648 -0.04152961 -0.02015719
v -0.04067196 -0.04152961 -0.02015916
v -0.03592364 -0.04152961 -0.01981667
v -0.03087960 -0.04397471 -0.01955784
v -0.04170748 -0.04660254 -0.01972613
v -0.04170748 -0.04277500 -0.02007944
v -0.03087960 -0.04656679 -0.01944959
v -0.03087960 -0.04660254 -0.01944663
v -0.04170748 -0.04152961 -0.02011192
v -0.03474715 -0.04152961 -0.01971432
v -0.03087960 -0.04277500 -0.01948698
v -0.04170748 -0.04660254 -0.01331837
v -0.03087960 -0.04660254 -0.01676583
v -0.04170748 -0.04152961 -0.01894767
v -0.03087960 -0.04152961 -0.01933936
v -0.04127398 -0.04457655 -0.01027244
v -0.04170748 -0.04393399 -0.01080880
v -0.03690616 -0.04660254 -0.01121427
v -0.03087960 -0.04196559 -0.01233915
v -0.03507784 -0.04660254 -0.01186676
v -0.04170748 -0.04230823 -0.01207540
v -0.03777951 -0.04152961 -0.01374844
v -0.03087960 -0.04152961 -0.01196911
v -0.04067196 -0.04468430 -0.01017305
v -0.04134288 -0.04397471 -0.01024489
v -0.04170748 -0.04391760 -0.01080487
v -0.03585368 -0.04660254 -0.01121230
v -0.03947110 -0.04480745 -0.01010809
v -0.03566185 -0.04660254 -0.01128513
v -0.04170748 -0.04285942 -0.01092493
v -0.03104494 -0.04152961 -0.01196123
v -0.03112443 -0.04152961 -0.01197501
v -0.03723367 -0.04152961 -0.01317862
v -0.03866241 -0.04474091 -0.01018682
v -0.04103445 -0.04333066 -0.01023701
v -0.03947110 -0.04420363 -0.01010809
v -0.03866241 -0.04442013 -0.01018682
v -0.04064865 -0.04389079 -0.01017009
v -0.04136408 -0.04333066 -0.01023701
v -0.04170748 -0.04297412 -0.01074385
f 1 2 9
f 1 9 3
f 1 3 4
f 1 4 5
f 1 5 6
f 1 6 7
f 1 7 2
f 2 8 9
f 2 7 10
f 2 10 11
f 2 11 8
f 3 12 4
f 3 9 8
f 3 8 15
f 3 15 20
f 3 20 29
f 3 29 43
f 3 43 33
f 3 33 24
f 3 24 17
f 3 17 12
f 4 12 17
f 4 17 25
f 4 25 36
f 4 36 35
f 4 35 34
f 4 34 26
f 4 26 18
f 4 18 13
f 4 13 6
f 4 6 5
f 6 13 14
f 6 14 7
f 7 14 18
f 7 18 26
f 7 26 22
f 7 22 16
f 7 16 11
f 7 11 10
f 8 11 16
f 8 16 23
f 8 23 32
f 8 32 30
f 8 30 21
f 8 21 15
f 13 18 14
f 15 19 20
f 15 21 19
f 16 22 23
f 17 24 25
f 19 27 28
f 19 28 29
f 19 29 20
f 19 21 27
f 21 30 31
f 21 31 27
f 22 26 23
f 23 26 32
f 24 33 34
f 24 34 35
f 24 35 36
f 24 36 25
f 26 37 30
f 26 30 32
f 26 34 38
f 26 38 39
f 26 39 40
f 26 40 37
f 27 31 41
f 27 41 42
f 27 42 28
f 28 42 43
f 28 43 29
f 30 37 31
f 31 37 40
f 31 40 39
f 31 39 41
f 33 43 34
f 34 43 42
f 34 42 38
f 38 42 39
f 39 42 41

