# https://github.com/mikedh/trimesh
v -0.01814046 0.02154202 0.01003263
v -0.01814046 0.02154202 0.00653872
v -0.01814605 0.02154202 0.01299241
v -0.01814046 0.01803709 0.01299241
v -0.01814046 0.02099755 0.00639050
v -0.02627143 0.02154202 0.00617217
v -0.02032171 0.02154202 0.01299241
v -0.01814046 0.01540316 0.01299241
v -0.01814046 0.02072687 0.00636446
v -0.02629698 0.02154202 0.00617150
v -0.02610856 0.02154202 0.01156761
v -0.02528620 0.01694117 0.01299241
v -0.01814046 0.01361928 0.01052537
v -0.02474648 0.01361928 0.01299241
v -0.02147221 0.01722582 0.00624428
v -0.01814046 0.01985587 0.00641453
v -0.02149217 0.01362394 0.00637447
v -0.02267142 0.01482611 0.00621290
v -0.02629698 0.02085019 0.00621223
v -0.02629698 0.02154202 0.00622959
v -0.02629219 0.02154202 0.00734794
v -0.02629698 0.02153892 0.00734794
v -0.02629698 0.02108132 0.01161635
v -0.02573012 0.01617953 0.01299241
v -0.01814046 0.01361928 0.00708287
v -0.02591614 0.01361928 0.01299241
v -0.02070654 0.01402259 0.00645059
v -0.02149217 0.01361928 0.00637514
v -0.02267142 0.01361928 0.00630504
v -0.02629698 0.01962474 0.00630103
v -0.02629698 0.02084011 0.00621290
v -0.02629698 0.02098204 0.01163170
v -0.02575487 0.01604070 0.01299241
v -0.02591614 0.01362549 0.01299241
v -0.02629698 0.02091612 0.01162636
v -0.02629698 0.01977676 0.01152888
v -0.02629698 0.01602596 0.01046128
v -0.02629698 0.01487730 0.01012744
v -0.02600956 0.01361928 0.01198023
v -0.02343150 0.01361928 0.00643723
v -0.02629698 0.01843653 0.00642855
v -0.02588900 0.01482611 0.01299241
v -0.02576684 0.01594065 0.01299241
v -0.02629698 0.01458645 0.00944375
v -0.02611415 0.01361928 0.01072434
v -0.02601515 0.01361928 0.01191747
v -0.02601515 0.01362549 0.01192481
v -0.02403031 0.01361928 0.00679911
v -0.02629698 0.01720798 0.00682181
v -0.02629698 0.01500993 0.00831472
v -0.02596245 0.01361928 0.00952521
v -0.02611335 0.01361928 0.01071766
v -0.02484309 0.01361928 0.00739801
v -0.02629698 0.01719169 0.00683116
v -0.02629698 0.01609732 0.00746878
v -0.02544349 0.01361928 0.00816583
v -0.02573730 0.01361928 0.00876607
f 1 2 6
f 1 6 10
f 1 10 20
f 1 20 21
f 1 21 11
f 1 11 7
f 1 7 3
f 1 3 4
f 1 4 8
f 1 8 13
f 1 13 25
f 1 25 16
f 1 16 9
f 1 9 5
f 1 5 2
f 2 5 6
f 3 7 12
f 3 12 24
f 3 24 33
f 3 33 43
f 3 43 42
f 3 42 34
f 3 34 26
f 3 26 14
f 3 14 8
f 3 8 4
f 5 9 6
f 6 9 10
f 7 11 12
f 8 14 13
f 9 15 10
f 9 16 17
f 9 17 18
f 9 18 15
f 10 19 31
f 10 31 30
f 10 30 41
f 10 41 49
f 10 49 54
f 10 54 55
f 10 55 50
f 10 50 44
f 10 44 38
f 10 38 37
f 10 37 36
f 10 36 35
f 10 35 32
f 10 32 23
f 10 23 22
f 10 22 20
f 10 15 18
f 10 18 19
f 11 21 22
f 11 22 23
f 11 23 12
f 12 23 24
f 13 14 26
f 13 26 39
f 13 39 46
f 13 46 45
f 13 45 52
f 13 52 51
f 13 51 57
f 13 57 56
f 13 56 53
f 13 53 48
f 13 48 40
f 13 40 29
f 13 29 28
f 13 28 25
f 16 25 27
f 16 27 17
f 17 27 28
f 17 28 29
f 17 29 18
f 18 29 30
f 18 30 31
f 18 31 19
f 20 22 21
f 23 32 33
f 23 33 24
f 25 28 27
f 26 34 32
f 26 32 35
f 26 35 36
f 26 36 37
f 26 37 38
f 26 38 39
f 29 40 30
f 30 40 41
f 32 34 42
f 32 42 43
f 32 43 33
f 38 44 45
f 38 45 46
f 38 46 47
f 38 47 39
f 39 47 46
f 40 48 49
f 40 49 41
f 44 50 51
f 44 51 52
f 44 52 45
f 48 53 49
f 49 53 54
f 50 55 56
f 50 56 57
f 50 57 51
f 53 56 55
f 53 55 54

