# https://github.com/mikedh/trimesh
v 0.03450024 -0.03424189 -0.01965390
v 0.03599527 -0.03424189 -0.02009410
v 0.03450024 -0.03424189 -0.01567874
v 0.03450024 -0.02825943 -0.02106655
v 0.03601824 -0.03424189 -0.02009912
v 0.04128885 -0.03424189 -0.01567874
v 0.03450024 -0.03264444 -0.01567874
v 0.03450024 -0.02715899 -0.02122779
v 0.03732860 -0.03424189 -0.02026315
v 0.03716072 -0.03424189 -0.02025087
v 0.04212737 -0.03424189 -0.01574401
v 0.04285545 -0.03201519 -0.01567874
v 0.03724113 -0.01871423 -0.01567874
v 0.03450024 -0.01920365 -0.01684646
v 0.03558087 -0.02673797 -0.02109668
v 0.03854619 -0.03424189 -0.02012423
v 0.03450024 -0.02438815 -0.02132710
v 0.04329901 -0.03424189 -0.01613734
v 0.04352698 -0.03080228 -0.01567874
v 0.04329990 -0.03125674 -0.01567874
v 0.04352698 -0.01871423 -0.01567874
v 0.03450024 -0.01871423 -0.01688998
v 0.03561886 -0.02597496 -0.02111565
v 0.04352698 -0.02977328 -0.01945640
v 0.04352698 -0.03424189 -0.01906809
v 0.04352698 -0.03077340 -0.01936992
v 0.03450024 -0.02117501 -0.02137787
v 0.04352698 -0.03424189 -0.01621880
v 0.04352698 -0.01871423 -0.01926169
v 0.03450024 -0.01871423 -0.02101857
v 0.04352698 -0.02237575 -0.01950271
v 0.03450024 -0.01992410 -0.02123225
v 0.03556761 -0.01926597 -0.02108831
v 0.03560561 -0.01997578 -0.02110728
v 0.04352698 -0.02117501 -0.01945640
v 0.03603061 -0.01871423 -0.02083892
v 0.03498091 -0.01871423 -0.02102471
v 0.03450024 -0.01877199 -0.02103140
v 0.03450024 -0.01880238 -0.02103809
f 1 2 5
f 1 5 10
f 1 10 9
f 1 9 16
f 1 16 25
f 1 25 28
f 1 28 18
f 1 18 11
f 1 11 6
f 1 6 3
f 1 3 7
f 1 7 14
f 1 14 22
f 1 22 30
f 1 30 38
f 1 38 39
f 1 39 32
f 1 32 27
f 1 27 17
f 1 17 8
f 1 8 4
f 1 4 2
f 2 4 5
f 3 6 12
f 3 12 20
f 3 20 19
f 3 19 21
f 3 21 13
f 3 13 7
f 4 8 9
f 4 9 10
f 4 10 5
f 6 11 12
f 7 13 14
f 8 15 16
f 8 16 9
f 8 17 15
f 11 18 19
f 11 19 20
f 11 20 12
f 13 21 29
f 13 29 36
f 13 36 37
f 13 37 30
f 13 30 22
f 13 22 14
f 15 17 23
f 15 23 24
f 15 24 16
f 16 24 26
f 16 26 25
f 17 27 23
f 18 28 19
f 19 28 25
f 19 25 26
f 19 26 24
f 19 24 31
f 19 31 35
f 19 35 29
f 19 29 21
f 23 27 24
f 24 27 31
f 27 32 33
f 27 33 34
f 27 34 31
f 29 35 33
f 29 33 36
f 30 37 38
f 31 34 33
f 31 33 35
f 32 39 37
f 32 37 33
f 33 37 36
f 37 39 38

