# https://github.com/mikedh/trimesh
v 0.03372793 -0.00677551 -0.01593603
v 0.03399046 -0.00677551 -0.01599238
v 0.03399046 -0.00255954 -0.01622656
v 0.03286340 -0.00590625 -0.01608649
v 0.03284544 -0.00677551 -0.01607062
v 0.03258837 -0.01871237 -0.01698326
v 0.03372793 -0.01517393 -0.01657728
v 0.03399046 -0.01871237 -0.01687055
v 0.03399046 -0.01637451 -0.01669492
v 0.03399046 -0.00241622 -0.01624352
v 0.03219185 0.00029950 -0.01675565
v 0.03219185 -0.00554515 -0.01652311
v 0.03219185 -0.00677551 -0.01650506
v 0.03219185 -0.01397336 -0.01680489
v 0.03219185 -0.01871237 -0.01705001
v 0.03372793 -0.01871237 -0.01686398
v 0.03372793 -0.01637451 -0.01667193
v 0.03378832 -0.01871237 -0.01686289
v 0.03399046 -0.01871237 -0.02104253
v 0.03399046 0.00029950 -0.01660135
v 0.03360380 0.00029950 -0.01662105
v 0.03219185 0.00029950 -0.02073723
v 0.03219185 -0.01871237 -0.02152566
v 0.03252815 -0.01871237 -0.02144414
v 0.03399046 -0.00197507 -0.02086635
v 0.03399046 0.00029950 -0.02079139
v 0.03265211 0.00029950 -0.02075419
v 0.03399046 0.00014501 -0.02079960
v 0.03399046 -0.00077636 -0.02083407
f 1 2 3
f 1 3 4
f 1 4 5
f 1 5 6
f 1 6 7
f 1 7 8
f 1 8 9
f 1 9 2
f 2 9 8
f 2 8 19
f 2 19 25
f 2 25 29
f 2 29 28
f 2 28 26
f 2 26 20
f 2 20 10
f 2 10 3
f 3 10 11
f 3 11 4
f 4 12 5
f 4 11 12
f 5 12 13
f 5 13 14
f 5 14 15
f 5 15 6
f 6 15 23
f 6 23 24
f 6 24 19
f 6 19 8
f 6 8 18
f 6 18 16
f 6 16 17
f 6 17 7
f 7 17 8
f 8 17 18
f 10 20 21
f 10 21 11
f 11 21 20
f 11 20 26
f 11 26 27
f 11 27 22
f 11 22 23
f 11 23 15
f 11 15 14
f 11 14 13
f 11 13 12
f 16 18 17
f 19 24 25
f 22 27 23
f 23 28 29
f 23 29 25
f 23 25 24
f 23 27 28
f 26 28 27

