# https://github.com/mikedh/trimesh
v -0.00826325 -0.01798747 0.01912522
v -0.00826325 -0.01796712 0.01937956
v -0.00826325 -0.01790337 0.01798151
v -0.00457956 -0.02216458 0.01792494
v -0.00826325 -0.01779689 0.02038419
v -0.00826325 -0.01780571 0.01752344
v -0.00442969 -0.02216458 0.01752344
v -0.00455439 -0.02216458 0.01805807
v -0.00826325 -0.01757172 0.02155384
v -0.00826325 -0.01523596 0.01752344
v -0.00337118 -0.02216458 0.01752344
v -0.00434889 -0.02216458 0.01869904
v -0.00826325 -0.01748830 0.02186858
v -0.00826325 -0.01523596 0.02186858
v -0.00228282 -0.01523596 0.01752344
v -0.00317564 -0.02216458 0.01775949
v -0.00228282 -0.01856191 0.01752344
v -0.00345139 -0.02216458 0.01869947
v -0.00316100 -0.01667309 0.02186858
v -0.00228282 -0.01523596 0.02186858
v -0.00311651 -0.02216458 0.01785817
v -0.00228282 -0.01852868 0.01764891
v -0.00228282 -0.01651100 0.02186560
v -0.00228282 -0.01649879 0.02186858
f 1 2 5
f 1 5 9
f 1 9 13
f 1 13 14
f 1 14 10
f 1 10 6
f 1 6 3
f 1 3 4
f 1 4 2
f 2 4 5
f 3 6 4
f 4 7 11
f 4 11 16
f 4 16 21
f 4 21 18
f 4 18 12
f 4 12 8
f 4 8 9
f 4 9 5
f 4 6 7
f 6 10 15
f 6 15 17
f 6 17 11
f 6 11 7
f 8 12 13
f 8 13 9
f 10 14 20
f 10 20 15
f 11 17 16
f 12 18 13
f 13 18 19
f 13 19 24
f 13 24 20
f 13 20 14
f 15 20 24
f 15 24 23
f 15 23 22
f 15 22 17
f 16 17 21
f 17 22 21
f 18 21 23
f 18 23 19
f 19 23 24
f 21 22 23

