# https://github.com/mikedh/trimesh
v -0.01304252 -0.00077530 -0.01567559
v -0.01279573 -0.00077530 -0.01473562
v -0.01267756 0.00014480 -0.01485491
v -0.01279573 0.00030136 -0.01565695
v -0.01283673 0.00030136 -0.01687280
v -0.01262933 0.00030136 -0.01813817
v -0.01293802 -0.00197479 -0.01567559
v -0.01275554 -0.00197479 -0.01477503
v -0.01187127 -0.00317550 -0.01449490
v -0.01187127 -0.00197479 -0.01445017
v -0.01187127 -0.00077530 -0.01454230
v -0.00827231 0.00030136 -0.01469408
v -0.01187127 0.00021585 -0.01484905
v -0.01187127 0.00030136 -0.01490764
v -0.01249026 0.00030136 -0.01494971
v -0.01270972 0.00030136 -0.01520960
v -0.01260601 0.00030136 -0.01825001
v -0.01195166 -0.00233970 -0.01963574
v -0.01175390 -0.00319838 -0.01963574
v -0.01263897 -0.00316586 -0.01562980
v -0.01250875 -0.00389568 -0.01519948
v -0.01250875 -0.00389568 -0.01503013
v -0.01261405 -0.00317550 -0.01491563
v -0.01224829 -0.00016712 -0.01963574
v -0.01212047 -0.00123053 -0.01963574
v -0.01192352 -0.00432682 -0.01472071
v -0.01067188 -0.00557570 -0.01430318
v -0.01067188 -0.00437499 -0.01422542
v -0.01067188 -0.00317550 -0.01431596
v -0.00707212 -0.00197479 -0.01442726
v -0.00702630 0.00030136 -0.01470154
v -0.01224668 0.00030136 -0.01963574
v -0.01165101 -0.00350307 -0.01963574
v -0.01184313 -0.00557570 -0.01567559
v -0.01128042 -0.00738458 -0.01509883
v -0.01128042 -0.00738458 -0.01506528
v -0.01138814 -0.00677399 -0.01495717
v -0.01159634 -0.00557570 -0.01478302
v -0.01067188 -0.00677399 -0.01456254
v -0.00947169 -0.00677399 -0.01420572
v -0.00947169 -0.00557570 -0.01419613
v -0.00698208 0.00030136 -0.01470260
v -0.00827231 -0.00677399 -0.01419507
v -0.00707212 -0.00797349 -0.01423341
v -0.00483010 -0.00437861 -0.01454922
v -0.01068314 0.00030136 -0.01963574
v -0.01145888 -0.00403658 -0.01963574
v -0.01137930 -0.00634044 -0.01643450
v -0.01142914 -0.00675352 -0.01556961
v -0.01055693 -0.00588280 -0.01963574
v -0.01028040 -0.00639704 -0.01963574
v -0.00998296 -0.00683300 -0.01963574
v -0.00922651 -0.00770011 -0.01963574
v -0.00794513 -0.00883819 -0.01963574
v -0.00707694 -0.00958847 -0.01963574
v -0.00664365 -0.00993411 -0.01963574
v -0.00656085 -0.01108182 -0.01527191
v -0.00656085 -0.01108182 -0.01498965
v -0.01067188 -0.00758811 -0.01490764
v -0.00948777 -0.00801925 -0.01465520
v -0.00827231 -0.00797349 -0.01424833
v -0.00698208 0.00030136 -0.01547801
v -0.00483010 -0.00320922 -0.01469355
v -0.00483010 -0.00296956 -0.01476757
v -0.00512914 -0.00238065 -0.01489220
v -0.00587273 -0.01037369 -0.01458704
v -0.00483010 -0.01037369 -0.01464668
v -0.00483010 -0.00916456 -0.01963574
v -0.01125711 -0.00446171 -0.01963574
v -0.00617660 -0.01018943 -0.01963574
v -0.00483010 -0.01172854 -0.01698357
v -0.00592177 -0.01143348 -0.01567347
v -0.00483010 -0.01200192 -0.01560902
v -0.00587273 -0.01127451 -0.01487462
v -0.00512914 -0.00238065 -0.01519735
v -0.00483010 -0.00296956 -0.01532250
v -0.00483010 -0.01140578 -0.01484320
v -0.00483010 -0.01064225 -0.01963574
v -0.00507368 -0.01058806 -0.01963574
f 1 2 3
f 1 3 4
f 1 4 5
f 1 5 6
f 1 6 7
f 1 7 8
f 1 8 2
f 2 8 9
f 2 9 10
f 2 10 11
f 2 11 3
f 3 12 13
f 3 13 14
f 3 14 15
f 3 15 16
f 3 16 4
f 3 11 12
f 4 16 15
f 4 15 14
f 4 14 12
f 4 12 31
f 4 31 42
f 4 42 62
f 4 62 46
f 4 46 32
f 4 32 17
f 4 17 6
f 4 6 5
f 6 17 7
f 7 18 19
f 7 19 20
f 7 20 21
f 7 21 22
f 7 22 23
f 7 23 8
f 7 17 24
f 7 24 25
f 7 25 18
f 8 23 26
f 8 26 9
f 9 26 27
f 9 27 28
f 9 28 10
f 10 28 29
f 10 29 11
f 11 29 30
f 11 30 31
f 11 31 12
f 12 14 13
f 17 32 24
f 18 25 24
f 18 24 32
f 18 32 46
f 18 46 68
f 18 68 78
f 18 78 79
f 18 79 70
f 18 70 56
f 18 56 55
f 18 55 54
f 18 54 53
f 18 53 52
f 18 52 51
f 18 51 50
f 18 50 69
f 18 69 47
f 18 47 33
f 18 33 19
f 19 33 34
f 19 34 21
f 19 21 20
f 21 34 35
f 21 35 36
f 21 36 22
f 22 36 37
f 22 37 38
f 22 38 23
f 23 38 26
f 26 38 27
f 27 38 39
f 27 39 40
f 27 40 28
f 28 30 29
f 28 40 41
f 28 41 30
f 30 42 31
f 30 41 43
f 30 43 44
f 30 44 45
f 30 45 42
f 33 47 34
f 34 48 49
f 34 49 35
f 34 47 48
f 35 49 48
f 35 48 50
f 35 50 51
f 35 51 52
f 35 52 53
f 35 53 54
f 35 54 55
f 35 55 56
f 35 56 57
f 35 57 58
f 35 58 36
f 36 58 59
f 36 59 39
f 36 39 37
f 37 39 38
f 39 59 60
f 39 60 61
f 39 61 40
f 40 43 41
f 40 61 44
f 40 44 43
f 42 45 63
f 42 63 64
f 42 64 65
f 42 65 75
f 42 75 62
f 44 61 66
f 44 66 67
f 44 67 45
f 45 67 77
f 45 77 73
f 45 73 71
f 45 71 78
f 45 78 68
f 45 68 76
f 45 76 64
f 45 64 63
f 46 62 68
f 47 69 48
f 48 69 50
f 56 70 71
f 56 71 72
f 56 72 57
f 57 72 58
f 58 72 73
f 58 73 74
f 58 74 61
f 58 61 60
f 58 60 59
f 61 74 66
f 62 75 76
f 62 76 68
f 64 76 75
f 64 75 65
f 66 74 77
f 66 77 67
f 70 79 71
f 71 73 72
f 71 79 78
f 73 77 74

