# https://github.com/mikedh/trimesh
v -0.03450291 -0.03832761 -0.00988668
v -0.03303436 -0.03995155 -0.00988668
v -0.03665141 -0.04065412 0.00280140
v -0.03665141 -0.04000333 0.00174417
v -0.03665141 -0.03990545 0.00163145
v -0.03665141 -0.03920666 0.00120519
v -0.03665141 -0.03854567 0.00080354
v -0.03665141 -0.03833932 0.00068693
v -0.03665141 -0.03832761 0.00068046
v -0.03112770 -0.03832761 -0.00988668
v -0.03252966 -0.04044550 -0.00988668
v -0.03644813 -0.04090884 0.00296983
v -0.03665141 -0.04065336 0.00314215
v -0.03665141 -0.03832761 0.00247101
v -0.03110667 -0.03832761 -0.00976490
v -0.01787221 -0.03833895 -0.00607495
v -0.00084545 -0.03942661 -0.00988668
v -0.03606259 -0.04137331 0.00334945
v -0.03179363 -0.04108760 -0.00988668
v -0.03665141 -0.04064656 0.00334945
v -0.03665141 -0.03870402 0.00264981
v -0.03499009 -0.03832761 0.00334945
v -0.03109265 -0.03832761 -0.00967420
v -0.01547486 -0.03841264 -0.00007619
v -0.00084545 -0.03897159 0.00334945
v -0.00107327 -0.03905096 -0.00247569
v -0.00084545 -0.03907061 -0.00270243
v -0.00227545 -0.03922934 -0.00847445
v -0.00084545 -0.03940167 -0.00967420
v -0.00107327 -0.03939298 -0.00967420
v -0.03012530 -0.03832761 0.00255393
v -0.03010778 -0.03832761 0.00334945
v -0.00084545 -0.04078563 -0.00988668
v -0.03581024 -0.04150558 0.00334945
v -0.03122934 -0.04143000 -0.00988668
v -0.03107162 -0.04155471 -0.00967420
v -0.03665141 -0.04032797 0.00334945
v -0.01420259 -0.03848860 0.00117798
v -0.00084545 -0.04100483 0.00334945
v -0.00947449 -0.03876978 0.00334945
v -0.00084545 -0.03932306 -0.00870118
v -0.00107327 -0.03929623 -0.00847445
v -0.00084545 -0.04093189 -0.00954593
v -0.00587497 -0.04149651 -0.00988668
v -0.03487794 -0.04169983 0.00334945
v -0.03048981 -0.04218169 -0.00559816
v -0.03107863 -0.04149349 -0.00988668
v -0.03007974 -0.04163521 -0.00988668
v -0.02986945 -0.04172515 -0.00967420
v -0.02986945 -0.04189220 -0.00847445
v -0.00111533 -0.04123612 0.00334945
v -0.00084545 -0.04169681 -0.00247569
v -0.00084545 -0.04113786 -0.00837857
v -0.00707364 -0.04162312 -0.00988668
v -0.03467115 -0.04173763 0.00334945
v -0.03043724 -0.04218169 -0.00559816
v -0.03050383 -0.04218811 -0.00487390
v -0.02987646 -0.04164239 -0.00988668
v -0.01427269 -0.04164881 -0.00988668
v -0.00128707 -0.04129016 0.00334945
v -0.00947449 -0.04181208 -0.00727470
v -0.00084545 -0.04168472 -0.00344741
v -0.00227545 -0.04155358 0.00232461
v -0.03041270 -0.04218245 -0.00043378
v -0.03041270 -0.04218811 -0.00487390
v -0.03049682 -0.04218245 -0.00043378
v -0.01547486 -0.04171949 0.00232461
v -0.00227545 -0.04144095 0.00334945
f 1 2 3
f 1 3 4
f 1 4 5
f 1 5 6
f 1 6 7
f 1 7 8
f 1 8 9
f 1 9 14
f 1 14 22
f 1 22 32
f 1 32 31
f 1 31 23
f 1 23 15
f 1 15 10
f 1 10 17
f 1 17 33
f 1 33 44
f 1 44 54
f 1 54 59
f 1 59 58
f 1 58 48
f 1 48 47
f 1 47 35
f 1 35 19
f 1 19 11
f 1 11 2
f 2 11 3
f 3 11 12
f 3 12 13
f 3 13 20
f 3 20 37
f 3 37 21
f 3 21 14
f 3 14 9
f 3 9 8
f 3 8 7
f 3 7 6
f 3 6 5
f 3 5 4
f 10 15 16
f 10 16 17
f 11 18 12
f 11 19 18
f 12 18 13
f 13 18 20
f 14 21 22
f 15 23 16
f 16 24 25
f 16 25 26
f 16 26 27
f 16 27 28
f 16 28 29
f 16 29 30
f 16 30 17
f 16 23 31
f 16 31 32
f 16 32 24
f 17 30 29
f 17 29 41
f 17 41 27
f 17 27 25
f 17 25 39
f 17 39 52
f 17 52 62
f 17 62 53
f 17 53 43
f 17 43 33
f 18 34 45
f 18 45 55
f 18 55 68
f 18 68 60
f 18 60 51
f 18 51 39
f 18 39 25
f 18 25 40
f 18 40 32
f 18 32 22
f 18 22 37
f 18 37 20
f 18 19 35
f 18 35 36
f 18 36 34
f 21 37 22
f 24 38 25
f 24 32 38
f 25 27 26
f 25 38 40
f 27 41 42
f 27 42 28
f 28 42 41
f 28 41 29
f 32 40 38
f 33 43 44
f 34 36 46
f 34 46 45
f 35 47 36
f 36 47 48
f 36 48 49
f 36 49 50
f 36 50 46
f 39 51 52
f 43 53 44
f 44 53 54
f 45 46 55
f 46 50 56
f 46 56 65
f 46 65 57
f 46 57 55
f 48 58 49
f 49 58 59
f 49 59 50
f 50 59 54
f 50 54 56
f 51 60 52
f 52 61 62
f 52 60 63
f 52 63 64
f 52 64 65
f 52 65 61
f 53 62 54
f 54 62 61
f 54 61 56
f 55 57 66
f 55 66 64
f 55 64 67
f 55 67 68
f 56 61 65
f 57 65 64
f 57 64 66
f 60 68 63
f 63 68 67
f 63 67 64

