# https://github.com/mikedh/trimesh
v 0.01513054 -0.04997532 -0.02018965
v 0.01550041 -0.04997532 -0.02167538
v 0.01552429 -0.05117406 -0.02167538
v 0.01520284 -0.05086325 -0.02018965
v 0.01517831 -0.04955980 -0.02018965
v 0.01529514 -0.04885902 -0.02018965
v 0.01603487 -0.04877493 -0.02258950
v 0.01587608 -0.04997532 -0.02272560
v 0.01590319 -0.05117406 -0.02268607
v 0.01568437 -0.05237445 -0.02167538
v 0.01557787 -0.05237445 -0.02018965
v 0.01596516 -0.04772870 -0.02018965
v 0.01622271 -0.04805024 -0.02239734
v 0.01698439 -0.04884748 -0.02317698
v 0.01742138 -0.04929515 -0.02350006
v 0.01698439 -0.04996707 -0.02330531
v 0.01692823 -0.05117406 -0.02312384
v 0.01604714 -0.05237445 -0.02254770
v 0.01620334 -0.05314119 -0.02239410
v 0.01605682 -0.05330360 -0.02167538
v 0.01594063 -0.05354434 -0.02018965
v 0.01632340 -0.04733874 -0.02018965
v 0.01670876 -0.04700896 -0.02018965
v 0.01713543 -0.04670969 -0.02018965
v 0.01763117 -0.04699330 -0.02215464
v 0.01692823 -0.04779466 -0.02257945
v 0.01807010 -0.04746571 -0.02265398
v 0.01819016 -0.04884748 -0.02334354
v 0.01783127 -0.04929515 -0.02350006
v 0.01742138 -0.04956227 -0.02350006
v 0.01692823 -0.05237445 -0.02290479
v 0.01698439 -0.05355424 -0.02251108
v 0.01742203 -0.05422698 -0.02234031
v 0.01695663 -0.05486345 -0.02018965
v 0.01686303 -0.05474803 -0.02018965
v 0.01812819 -0.04644174 -0.02018965
v 0.01843093 -0.04694136 -0.02231763
v 0.01925909 -0.04756217 -0.02261996
v 0.01932751 -0.04877493 -0.02323110
v 0.01881305 -0.04694136 -0.02231763
v 0.01932751 -0.04997532 -0.02324925
v 0.01783127 -0.04956227 -0.02350006
v 0.01812819 -0.05357402 -0.02270680
v 0.01812819 -0.05429294 -0.02241257
v 0.01812819 -0.05486345 -0.02095925
v 0.01794552 -0.05486345 -0.02085296
v 0.01710574 -0.05486345 -0.02034422
v 0.02007305 -0.05486345 -0.02018965
v 0.01932751 -0.04648874 -0.02018965
v 0.02027767 -0.04795378 -0.02250201
v 0.02061784 -0.04869330 -0.02272106
v 0.02052747 -0.04997532 -0.02301010
v 0.01998526 -0.04693641 -0.02116664
v 0.01961281 -0.04715407 -0.02196637
v 0.02052747 -0.05117406 -0.02281179
v 0.01932751 -0.05237445 -0.02283933
v 0.01938689 -0.05365152 -0.02255223
v 0.01902607 -0.05427975 -0.02239313
v 0.01895119 -0.05486345 -0.02088180
v 0.01941723 -0.05486345 -0.02080047
v 0.01982583 -0.05410332 -0.02214751
v 0.02038159 -0.05467960 -0.02018965
v 0.02020989 -0.04673937 -0.02018965
v 0.02040031 -0.04756217 -0.02160992
v 0.02107549 -0.04825635 -0.02167538
v 0.02125687 -0.04903957 -0.02244076
v 0.02135241 -0.04997532 -0.02253312
v 0.02128592 -0.05117406 -0.02244141
v 0.02052489 -0.05229448 -0.02252275
v 0.02012340 -0.05330360 -0.02243558
v 0.02116780 -0.05184186 -0.02231828
v 0.02062946 -0.05411980 -0.02018965
v 0.02080310 -0.04742201 -0.02018965
v 0.02121492 -0.04800902 -0.02018965
v 0.02121879 -0.04801644 -0.02018965
v 0.02132981 -0.04885655 -0.02167538
v 0.02158801 -0.04997532 -0.02167538
v 0.02148086 -0.05117406 -0.02167538
v 0.02162803 -0.05153352 -0.02018965
v 0.02142857 -0.05216999 -0.02018965
v 0.02149635 -0.04872711 -0.02018965
v 0.02169387 -0.04995883 -0.02018965
v 0.02172356 -0.05034714 -0.02018965
v 0.02172163 -0.05117406 -0.02018965
f 1 2 3
f 1 3 4
f 1 4 11
f 1 11 21
f 1 21 35
f 1 35 34
f 1 34 48
f 1 48 62
f 1 62 72
f 1 72 80
f 1 80 79
f 1 79 84
f 1 84 83
f 1 83 82
f 1 82 81
f 1 81 75
f 1 75 74
f 1 74 73
f 1 73 63
f 1 63 49
f 1 49 36
f 1 36 24
f 1 24 23
f 1 23 22
f 1 22 12
f 1 12 6
f 1 6 5
f 1 5 2
f 2 5 6
f 2 6 7
f 2 7 8
f 2 8 3
f 3 9 10
f 3 10 4
f 3 8 9
f 4 10 11
f 6 12 13
f 6 13 7
f 7 14 8
f 7 13 14
f 8 14 15
f 8 15 16
f 8 16 9
f 9 16 17
f 9 17 18
f 9 18 10
f 10 18 19
f 10 19 20
f 10 20 21
f 10 21 11
f 12 22 13
f 13 22 23
f 13 23 24
f 13 24 25
f 13 25 26
f 13 26 14
f 14 26 27
f 14 27 15
f 15 27 28
f 15 28 29
f 15 29 42
f 15 42 30
f 15 30 16
f 16 30 17
f 17 31 18
f 17 30 31
f 18 31 19
f 19 32 33
f 19 33 34
f 19 34 20
f 19 31 32
f 20 34 35
f 20 35 21
f 24 36 25
f 25 36 37
f 25 37 27
f 25 27 26
f 27 38 39
f 27 39 28
f 27 37 40
f 27 40 38
f 28 39 29
f 29 41 42
f 29 39 41
f 30 42 43
f 30 43 31
f 31 43 32
f 32 43 33
f 33 43 44
f 33 44 45
f 33 45 46
f 33 46 47
f 33 47 34
f 34 47 46
f 34 46 45
f 34 45 59
f 34 59 60
f 34 60 48
f 36 49 40
f 36 40 37
f 38 50 39
f 38 40 50
f 39 50 51
f 39 51 52
f 39 52 41
f 40 53 54
f 40 54 50
f 40 49 53
f 41 52 55
f 41 55 56
f 41 56 42
f 42 56 43
f 43 56 57
f 43 57 58
f 43 58 44
f 44 58 45
f 45 58 59
f 48 60 61
f 48 61 62
f 49 63 53
f 50 54 53
f 50 53 64
f 50 64 65
f 50 65 66
f 50 66 51
f 51 66 52
f 52 66 67
f 52 67 68
f 52 68 55
f 53 63 65
f 53 65 64
f 55 68 69
f 55 69 70
f 55 70 57
f 55 57 56
f 57 70 58
f 58 70 61
f 58 61 60
f 58 60 59
f 61 70 71
f 61 71 62
f 62 71 72
f 63 73 65
f 65 73 74
f 65 74 75
f 65 75 76
f 65 76 66
f 66 76 77
f 66 77 67
f 67 77 68
f 68 77 78
f 68 78 71
f 68 71 69
f 69 71 70
f 71 78 79
f 71 79 80
f 71 80 72
f 75 81 76
f 76 81 77
f 77 82 83
f 77 83 84
f 77 84 78
f 77 81 82
f 78 84 79

