# https://github.com/mikedh/trimesh
v -0.02826115 -0.02172535 -0.00988668
v -0.02800807 -0.02173586 -0.00988668
v -0.02922365 -0.02176504 -0.01152967
v -0.02930846 -0.02176504 -0.01152967
v -0.02930846 -0.02176504 -0.01143275
v -0.03506465 -0.02261725 -0.01337499
v -0.03431753 -0.02286591 -0.01260170
v -0.03271425 -0.02550308 -0.00988668
v -0.02777249 -0.02256939 -0.01529711
v -0.02806595 -0.02177088 -0.01029293
v -0.02725422 -0.02225068 -0.00988668
v -0.02867173 -0.02225419 -0.01529711
v -0.02886961 -0.02223084 -0.01529711
v -0.02987116 -0.02218181 -0.01529711
v -0.03506465 -0.02264293 -0.01407149
v -0.03506465 -0.02360604 -0.01301059
v -0.03332675 -0.02631210 -0.00988668
v -0.03324329 -0.02610313 -0.00988668
v -0.03316521 -0.02599806 -0.00988668
v -0.02667402 -0.02279003 -0.01087555
v -0.02757461 -0.02272348 -0.01529711
v -0.02664575 -0.02274450 -0.00988668
v -0.03116078 -0.02244447 -0.01529711
v -0.03506465 -0.02303985 -0.01421767
v -0.03506465 -0.02398078 -0.01307097
v -0.03358118 -0.02738728 -0.00988668
v -0.03357579 -0.02717481 -0.00988668
v -0.02335035 -0.02666582 -0.01207522
v -0.02346343 -0.02711411 -0.01338506
v -0.02405709 -0.02725886 -0.01529711
v -0.02288996 -0.02734058 -0.00988668
v -0.02288458 -0.02726820 -0.01087555
v -0.03506465 -0.02603659 -0.01529711
v -0.03506465 -0.02596888 -0.01353654
v -0.03364714 -0.02957383 -0.01087555
v -0.03335233 -0.02858154 -0.00988668
v -0.03506465 -0.03049609 -0.01509743
v -0.02294650 -0.02726587 -0.01207522
v -0.02310939 -0.02747367 -0.01305826
v -0.02384035 -0.02765928 -0.01529711
v -0.02284823 -0.02808189 -0.00988668
v -0.02206073 -0.02893293 -0.01145976
v -0.02206073 -0.02893293 -0.01155933
v -0.03506465 -0.03099340 -0.01529711
v -0.03302791 -0.03037117 -0.01014569
v -0.03319887 -0.02957383 -0.00999791
v -0.03322579 -0.02918158 -0.00988668
v -0.02233534 -0.02846947 -0.01200583
v -0.02352266 -0.02833521 -0.01529711
v -0.02287650 -0.02826284 -0.01338506
v -0.02131361 -0.03365042 -0.01377806
v -0.02206073 -0.02900297 -0.01145976
v -0.02536286 -0.03158995 -0.00988668
v -0.02214554 -0.02922244 -0.01235964
v -0.02131361 -0.03365042 -0.01398674
v -0.03339944 -0.03309007 -0.01529711
v -0.03255540 -0.03061633 -0.00988668
v -0.03285694 -0.03009567 -0.00988668
v -0.03307637 -0.02957383 -0.00988668
v -0.03184867 -0.03151874 -0.01006518
v -0.03153501 -0.03172537 -0.00988668
v -0.03312617 -0.02945126 -0.00988668
v -0.02339612 -0.02876249 -0.01529711
v -0.02265035 -0.03365042 -0.01357838
v -0.02751941 -0.03278654 -0.00988668
v -0.02773480 -0.03286125 -0.00988668
v -0.02867173 -0.03313209 -0.00988668
v -0.02209842 -0.03365042 -0.01444383
v -0.02332343 -0.03007582 -0.01529711
v -0.02332343 -0.02968357 -0.01529711
v -0.03128732 -0.03365042 -0.01529711
v -0.02995327 -0.03289628 -0.00988668
v -0.03015385 -0.03282974 -0.00988668
v -0.03055232 -0.03261960 -0.00988668
v -0.03113924 -0.03210127 -0.00988668
v -0.03127520 -0.03197403 -0.00988668
v -0.02388747 -0.03365042 -0.01362075
v -0.02888308 -0.03313209 -0.00988668
v -0.02362766 -0.03365042 -0.01529711
v -0.03096693 -0.03365042 -0.01492423
f 1 2 3
f 1 3 4
f 1 4 5
f 1 5 6
f 1 6 7
f 1 7 8
f 1 8 19
f 1 19 18
f 1 18 17
f 1 17 27
f 1 27 26
f 1 26 36
f 1 36 47
f 1 47 62
f 1 62 59
f 1 59 58
f 1 58 57
f 1 57 61
f 1 61 76
f 1 76 75
f 1 75 74
f 1 74 73
f 1 73 72
f 1 72 78
f 1 78 67
f 1 67 66
f 1 66 65
f 1 65 53
f 1 53 41
f 1 41 31
f 1 31 22
f 1 22 11
f 1 11 2
f 2 9 10
f 2 10 3
f 2 11 9
f 3 10 12
f 3 12 13
f 3 13 14
f 3 14 4
f 4 14 15
f 4 15 6
f 4 6 5
f 6 15 24
f 6 24 33
f 6 33 44
f 6 44 37
f 6 37 34
f 6 34 25
f 6 25 16
f 6 16 17
f 6 17 18
f 6 18 7
f 7 18 19
f 7 19 8
f 9 12 10
f 9 11 20
f 9 20 21
f 9 21 30
f 9 30 40
f 9 40 49
f 9 49 63
f 9 63 70
f 9 70 69
f 9 69 79
f 9 79 71
f 9 71 56
f 9 56 44
f 9 44 33
f 9 33 23
f 9 23 14
f 9 14 13
f 9 13 12
f 11 22 20
f 14 23 15
f 15 23 24
f 16 25 26
f 16 26 27
f 16 27 17
f 20 22 28
f 20 28 21
f 21 28 29
f 21 29 30
f 22 31 32
f 22 32 28
f 23 33 24
f 25 34 26
f 26 35 36
f 26 34 37
f 26 37 35
f 28 32 38
f 28 38 39
f 28 39 29
f 29 39 30
f 30 39 40
f 31 41 42
f 31 42 32
f 32 42 43
f 32 43 38
f 35 45 46
f 35 46 47
f 35 47 36
f 35 37 44
f 35 44 45
f 38 43 48
f 38 48 39
f 39 49 40
f 39 48 50
f 39 50 49
f 41 51 52
f 41 52 42
f 41 53 51
f 42 52 51
f 42 51 55
f 42 55 43
f 43 54 48
f 43 55 54
f 44 56 45
f 45 57 58
f 45 58 59
f 45 59 46
f 45 56 60
f 45 60 61
f 45 61 57
f 46 59 62
f 46 62 47
f 48 54 50
f 49 50 54
f 49 54 55
f 49 55 63
f 51 64 77
f 51 77 80
f 51 80 71
f 51 71 79
f 51 79 68
f 51 68 55
f 51 53 65
f 51 65 66
f 51 66 67
f 51 67 64
f 55 68 69
f 55 69 70
f 55 70 63
f 56 71 72
f 56 72 73
f 56 73 74
f 56 74 75
f 56 75 76
f 56 76 61
f 56 61 60
f 64 67 78
f 64 78 77
f 68 79 69
f 71 80 72
f 72 80 78
f 77 78 80

