# https://github.com/mikedh/trimesh
v -0.02591593 -0.01516636 0.01568201
v -0.02578180 -0.01623801 0.01568201
v -0.02581741 -0.01629009 0.01672475
v -0.02582690 -0.01628460 0.01752344
v -0.02583403 -0.01534451 0.01752344
v -0.02583759 -0.00437590 0.01752344
v -0.02580672 -0.00317543 0.01568201
v -0.02562037 -0.01683550 0.01568201
v -0.02563224 -0.01689032 0.01672475
v -0.02562868 -0.01688484 0.01752344
v -0.02577586 -0.00077725 0.01752344
v -0.02579960 -0.00300825 0.01568201
v -0.02509928 -0.01738914 0.01568201
v -0.01604253 -0.02655158 0.01568201
v -0.01597844 -0.02648306 0.01752344
v -0.02572838 0.00013543 0.01752344
v -0.02572007 0.00006691 0.01706560
v -0.02574381 -0.00195578 0.01568201
v -0.01553688 -0.02682566 0.01568201
v -0.01537901 -0.02690240 0.01752344
v -0.02550167 0.00080693 0.01752344
v -0.02552422 0.00080693 0.01568201
v -0.01538732 -0.02686677 0.01568201
v -0.01427273 -0.02719018 0.01672475
v -0.01427273 -0.02717648 0.01752344
v -0.02432536 0.00080693 0.01752344
v -0.02429450 0.00080693 0.01568201
v -0.01427273 -0.02716826 0.01568201
v -0.01378963 -0.02717100 0.01568201
v -0.01378963 -0.02716278 0.01672475
v -0.01378963 -0.02713537 0.01752344
v -0.02429094 0.00080693 0.01672475
v -0.01569949 -0.00943813 0.01752344
v -0.01485436 -0.01005206 0.01568201
v -0.02428619 0.00080693 0.01634082
v -0.01378963 -0.01508414 0.01568201
v -0.01378963 -0.01611742 0.01752344
v -0.01378963 -0.01549800 0.01643058
f 1 2 3
f 1 3 4
f 1 4 5
f 1 5 6
f 1 6 7
f 1 7 12
f 1 12 18
f 1 18 22
f 1 22 27
f 1 27 34
f 1 34 36
f 1 36 29
f 1 29 28
f 1 28 23
f 1 23 19
f 1 19 14
f 1 14 13
f 1 13 8
f 1 8 2
f 2 8 3
f 3 8 9
f 3 9 4
f 4 9 10
f 4 10 15
f 4 15 20
f 4 20 25
f 4 25 31
f 4 31 37
f 4 37 33
f 4 33 26
f 4 26 21
f 4 21 16
f 4 16 11
f 4 11 6
f 4 6 5
f 6 11 7
f 7 11 12
f 8 13 9
f 9 13 14
f 9 14 10
f 10 14 15
f 11 16 17
f 11 17 12
f 12 17 18
f 14 19 20
f 14 20 15
f 16 21 22
f 16 22 17
f 17 22 18
f 19 23 20
f 20 23 24
f 20 24 25
f 21 26 32
f 21 32 35
f 21 35 27
f 21 27 22
f 23 28 24
f 24 28 29
f 24 29 30
f 24 30 25
f 25 30 31
f 26 33 34
f 26 34 32
f 27 35 34
f 29 36 38
f 29 38 37
f 29 37 31
f 29 31 30
f 32 34 35
f 33 37 34
f 34 37 38
f 34 38 36

