# https://github.com/mikedh/trimesh
v -0.03197020 0.03818370 0.00273748
v -0.03437835 0.03818370 0.00273748
v -0.03198257 0.03818370 0.00296482
v -0.01788825 0.03535247 0.00349442
v -0.01788825 0.03511491 0.00331924
v -0.01832947 0.03463772 0.00291606
v -0.02267982 0.03479199 0.00273748
v -0.03435155 0.03818370 0.00321469
v -0.03661332 0.03598135 0.00273748
v -0.03200318 0.03818370 0.00315118
v -0.01788825 0.03432920 0.00349442
v -0.03204236 0.03818370 0.00349442
v -0.01788825 0.03509794 0.00331672
v -0.01832947 0.03455905 0.00291606
v -0.02267776 0.03428189 0.00273748
v -0.03430001 0.03818370 0.00349442
v -0.03894931 0.03293106 0.00273748
v -0.03656796 0.03593302 0.00307034
v -0.01788825 0.03432714 0.00342661
v -0.02687967 0.03293106 0.00349442
v -0.02597661 0.03293106 0.00273748
v -0.03796997 0.03385355 0.00349442
v -0.03868541 0.03293106 0.00349442
f 1 2 8
f 1 8 16
f 1 16 12
f 1 12 10
f 1 10 3
f 1 3 4
f 1 4 5
f 1 5 6
f 1 6 7
f 1 7 15
f 1 15 21
f 1 21 17
f 1 17 9
f 1 9 2
f 2 9 8
f 3 10 4
f 4 11 19
f 4 19 13
f 4 13 5
f 4 10 12
f 4 12 16
f 4 16 22
f 4 22 23
f 4 23 20
f 4 20 11
f 5 13 6
f 6 13 14
f 6 14 15
f 6 15 7
f 8 9 16
f 9 17 18
f 9 18 16
f 11 20 21
f 11 21 19
f 13 19 14
f 14 19 21
f 14 21 15
f 16 18 22
f 17 23 18
f 17 21 20
f 17 20 23
f 18 23 22

