# https://github.com/mikedh/trimesh
v 0.02349768 -0.03450241 -0.00068239
v 0.02223717 -0.03745846 0.00523847
v 0.02223717 -0.03636985 0.00387221
v 0.02223717 -0.03518930 0.00262203
v 0.02223717 -0.03471819 0.00262203
v 0.02347845 -0.03450241 -0.00060198
v 0.03087613 -0.03450241 -0.00068239
v 0.02882143 -0.03804648 -0.00068239
v 0.02223717 -0.03780225 0.00592451
v 0.02223717 -0.03468766 0.00306297
v 0.02305443 -0.03450241 0.00220055
v 0.02979926 -0.03450241 0.00227642
v 0.03205876 -0.03475913 -0.00011825
v 0.03205876 -0.03489026 -0.00068239
v 0.03205876 -0.03804648 -0.00068239
v 0.02401304 -0.03804648 0.00594072
v 0.02223717 -0.03780954 0.00594137
v 0.02223717 -0.03780538 0.00593164
v 0.02223717 -0.03462314 0.00594137
v 0.02303617 -0.03450241 0.00235099
v 0.02941659 -0.03450241 0.00289308
v 0.03205876 -0.03500821 0.00259610
v 0.03205876 -0.03491489 0.00184586
v 0.03205876 -0.03804648 0.00594137
v 0.02410149 -0.03804648 0.00594137
v 0.02324096 -0.03450241 0.00321211
v 0.02292848 -0.03468836 0.00594137
v 0.02807051 -0.03450241 0.00404340
v 0.02772726 -0.03450241 0.00409398
v 0.02634753 -0.03450241 0.00392474
v 0.02892143 -0.03450241 0.00351169
v 0.03205876 -0.03509217 0.00290086
v 0.03205876 -0.03670531 0.00594137
v 0.02338999 -0.03477058 0.00594137
v 0.03205876 -0.03587619 0.00473009
v 0.03205876 -0.03526354 0.00352206
v 0.02412842 -0.03492183 0.00594137
f 1 2 3
f 1 3 4
f 1 4 5
f 1 5 6
f 1 6 11
f 1 11 20
f 1 20 26
f 1 26 30
f 1 30 29
f 1 29 28
f 1 28 31
f 1 31 21
f 1 21 12
f 1 12 7
f 1 7 14
f 1 14 15
f 1 15 8
f 1 8 2
f 2 9 18
f 2 18 17
f 2 17 19
f 2 19 10
f 2 10 5
f 2 5 4
f 2 4 3
f 2 8 9
f 5 10 6
f 6 10 11
f 7 12 13
f 7 13 14
f 8 15 24
f 8 24 25
f 8 25 16
f 8 16 17
f 8 17 18
f 8 18 9
f 10 19 20
f 10 20 11
f 12 21 22
f 12 22 23
f 12 23 13
f 13 23 22
f 13 22 32
f 13 32 36
f 13 36 35
f 13 35 33
f 13 33 24
f 13 24 15
f 13 15 14
f 16 25 17
f 17 25 24
f 17 24 33
f 17 33 37
f 17 37 34
f 17 34 27
f 17 27 19
f 19 26 20
f 19 27 28
f 19 28 29
f 19 29 30
f 19 30 26
f 21 31 22
f 22 31 32
f 27 34 28
f 28 33 35
f 28 35 36
f 28 36 31
f 28 34 37
f 28 37 33
f 31 36 32

