# https://github.com/mikedh/trimesh
v 0.01092860 0.02762855 0.02152476
v 0.01041794 0.02756589 0.02186858
v 0.01092860 0.02760569 0.02186858
v 0.01172222 0.02754049 0.02186858
v 0.01173435 0.02754303 0.02152476
v 0.01162925 0.02747020 0.02081804
v 0.01092860 0.02749137 0.02073505
v 0.00972807 0.02746851 0.02077841
v 0.00903820 0.02743972 0.02087573
v 0.00972807 0.02752525 0.02152476
v 0.00972807 0.02750662 0.02186858
v 0.01460432 0.02657855 0.02186858
v 0.01452886 0.02673436 0.02032504
v 0.01332833 0.02699940 0.01974883
v 0.01452886 0.02672081 0.01974883
v 0.01390502 0.02687154 0.01974883
v 0.01270313 0.02706545 0.01974883
v 0.01138672 0.02714674 0.01974883
v 0.01092860 0.02717383 0.01974883
v 0.00972807 0.02716113 0.01974883
v 0.00856122 0.02707561 0.01974883
v 0.00904224 0.02743972 0.02152476
v 0.00800474 0.02700025 0.01974883
v 0.00800474 0.02705275 0.02000861
v 0.00800474 0.02712642 0.02037339
v 0.00800474 0.02723819 0.02152476
v 0.00844265 0.02732541 0.02152476
v 0.00907592 0.02743379 0.02186858
v 0.00938179 0.02747190 0.02186858
v 0.01478622 0.02641343 0.02186858
v 0.01515810 0.02626864 0.02106247
v 0.01518101 0.02630081 0.02032504
v 0.01518505 0.02630166 0.01974883
v 0.01484550 0.02652690 0.01974883
v 0.00880914 0.02738299 0.02186858
v 0.00800474 0.02537699 0.01974883
v 0.00800474 0.02722379 0.02186858
v 0.00812331 0.02724750 0.02186858
v 0.01505435 0.02615347 0.02186858
v 0.02154075 0.01917015 0.02186858
v 0.02086705 0.01996781 0.02152476
v 0.02176981 0.01897878 0.01974883
v 0.00800474 0.02535074 0.01984822
v 0.00866766 0.01897878 0.01974883
v 0.00800474 0.02509332 0.02186858
v 0.02170513 0.01897878 0.02186858
v 0.00800474 0.02506029 0.02152476
v 0.00866901 0.01897878 0.01982872
v 0.00800474 0.02509247 0.02186173
v 0.00868114 0.01897878 0.02032504
v 0.00878488 0.01897878 0.02088423
v 0.00888055 0.01897878 0.02125067
v 0.00896005 0.01897878 0.02150671
v 0.00920932 0.01897878 0.02186858
f 1 2 3
f 1 3 4
f 1 4 5
f 1 5 6
f 1 6 7
f 1 7 8
f 1 8 9
f 1 9 10
f 1 10 11
f 1 11 2
f 2 11 29
f 2 29 28
f 2 28 35
f 2 35 38
f 2 38 37
f 2 37 45
f 2 45 54
f 2 54 46
f 2 46 40
f 2 40 39
f 2 39 30
f 2 30 12
f 2 12 4
f 2 4 3
f 4 12 13
f 4 13 5
f 5 14 6
f 5 13 15
f 5 15 16
f 5 16 14
f 6 14 17
f 6 17 7
f 7 17 18
f 7 18 19
f 7 19 20
f 7 20 8
f 8 20 21
f 8 21 9
f 9 22 10
f 9 21 23
f 9 23 24
f 9 24 25
f 9 25 26
f 9 26 27
f 9 27 22
f 10 22 28
f 10 28 29
f 10 29 11
f 12 30 31
f 12 31 13
f 13 31 32
f 13 32 33
f 13 33 34
f 13 34 15
f 14 16 15
f 14 15 34
f 14 34 33
f 14 33 42
f 14 42 44
f 14 44 36
f 14 36 23
f 14 23 21
f 14 21 20
f 14 20 19
f 14 19 18
f 14 18 17
f 22 27 35
f 22 35 28
f 23 36 43
f 23 43 47
f 23 47 49
f 23 49 45
f 23 45 37
f 23 37 26
f 23 26 25
f 23 25 24
f 26 37 38
f 26 38 27
f 27 38 35
f 30 39 31
f 31 39 40
f 31 40 41
f 31 41 32
f 32 41 33
f 33 41 42
f 36 44 43
f 40 46 41
f 41 46 42
f 42 46 54
f 42 54 53
f 42 53 52
f 42 52 51
f 42 51 50
f 42 50 48
f 42 48 44
f 43 44 47
f 44 48 45
f 44 45 49
f 44 49 47
f 45 48 50
f 45 50 51
f 45 51 52
f 45 52 53
f 45 53 54

