# https://github.com/mikedh/trimesh
v 0.01791626 0.00955478 0.01752365
v 0.01390104 0.00955478 0.01752365
v 0.01766647 0.00955478 0.01974491
v 0.02479636 0.00599386 0.01752365
v 0.01387474 0.00951064 0.01752365
v 0.01390104 0.00955478 0.01754456
v 0.01762813 0.00955478 0.01974883
v 0.02412917 0.00580777 0.01974883
v 0.02484347 0.00528237 0.01974883
v 0.02484018 0.00569697 0.01752365
v 0.01387474 0.00950977 0.01760970
v 0.01381997 0.00891946 0.01752365
v 0.01379367 0.00891427 0.01797588
v 0.01375533 0.00869441 0.01912474
v 0.01390652 0.00955478 0.01764629
v 0.01404675 0.00955478 0.01974883
v 0.02491578 0.00402557 0.01974883
v 0.02493878 0.00402557 0.01912474
v 0.02494645 0.00442719 0.01752365
v 0.02488729 0.00528756 0.01752365
v 0.01379148 0.00878270 0.01974883
v 0.01385174 0.00813093 0.01752365
v 0.01379915 0.00805044 0.01792490
v 0.01375533 0.00795090 0.01912474
v 0.01378710 0.00800110 0.01974883
v 0.02476349 0.00071307 0.01974883
v 0.02494536 0.00402557 0.01792490
v 0.02493769 0.00402557 0.01752365
v 0.02335351 0.00071307 0.01752365
v 0.02331517 0.00071307 0.01792490
v 0.02333927 0.00071307 0.01974883
v 0.02476240 0.00071307 0.01954625
v 0.02487086 0.00320675 0.01752365
v 0.02456301 0.00071307 0.01752365
v 0.02476130 0.00196727 0.01752365
v 0.02483361 0.00277397 0.01752365
f 1 2 6
f 1 6 15
f 1 15 16
f 1 16 7
f 1 7 3
f 1 3 4
f 1 4 10
f 1 10 20
f 1 20 19
f 1 19 28
f 1 28 33
f 1 33 36
f 1 36 35
f 1 35 34
f 1 34 29
f 1 29 22
f 1 22 12
f 1 12 5
f 1 5 2
f 2 5 6
f 3 7 8
f 3 8 4
f 4 8 9
f 4 9 10
f 5 11 6
f 5 12 13
f 5 13 14
f 5 14 11
f 6 11 15
f 7 16 21
f 7 21 25
f 7 25 31
f 7 31 26
f 7 26 17
f 7 17 9
f 7 9 8
f 9 17 18
f 9 18 19
f 9 19 20
f 9 20 10
f 11 14 21
f 11 21 16
f 11 16 15
f 12 22 23
f 12 23 13
f 13 23 24
f 13 24 14
f 14 24 25
f 14 25 21
f 17 26 18
f 18 27 19
f 18 26 27
f 19 27 28
f 22 29 23
f 23 29 24
f 24 30 31
f 24 31 25
f 24 29 30
f 26 32 27
f 26 31 30
f 26 30 29
f 26 29 34
f 26 34 32
f 27 32 28
f 28 32 33
f 32 35 36
f 32 36 33
f 32 34 35

