# https://github.com/mikedh/trimesh
v -0.03107213 -0.05597339 -0.00998314
v -0.03006720 -0.05597339 -0.01013004
v -0.03098117 -0.05469604 -0.01006464
v -0.03223948 -0.05353481 -0.01005517
v -0.03230498 -0.05478921 -0.01003053
v -0.03189513 -0.05597339 -0.01012245
v -0.03107213 -0.05691858 -0.01015847
v -0.03019819 -0.05695639 -0.01016415
v -0.03006720 -0.05618674 -0.01014236
v -0.03006720 -0.05571009 -0.01015373
v -0.03015850 -0.05504441 -0.01020016
v -0.03132022 -0.05390883 -0.01015752
v -0.03310549 -0.05275301 -0.01015847
v -0.03315113 -0.05357397 -0.01008834
v -0.03261757 -0.05275301 -0.01015847
v -0.03301088 -0.05440033 -0.01014330
v -0.03171452 -0.05665123 -0.01023049
v -0.03048763 -0.05898314 -0.01145776
v -0.03045323 -0.05898314 -0.01145776
v -0.03006720 -0.05847814 -0.01117345
v -0.03006720 -0.05707116 -0.01026556
v -0.03006720 -0.05678895 -0.01020490
v -0.03006720 -0.05495394 -0.01026177
v -0.03052038 -0.05424370 -0.01030726
v -0.03344653 -0.05100171 -0.01103983
v -0.03344653 -0.05229527 -0.01084271
v -0.03344653 -0.05684432 -0.01370381
v -0.03006720 -0.05373195 -0.01082091
v -0.03006720 -0.05349700 -0.01096591
v -0.03344653 -0.05700905 -0.01396537
v -0.03058621 -0.06026995 -0.01377204
v -0.03006720 -0.05885216 -0.01176102
v -0.03038409 -0.06026995 -0.01377204
v -0.03006720 -0.05452996 -0.01039065
v -0.03344653 -0.04992015 -0.01189181
v -0.03006720 -0.04660389 -0.01685680
v -0.03344653 -0.05732501 -0.01448661
v -0.03071687 -0.06039147 -0.01447523
v -0.03021771 -0.06039147 -0.01447523
v -0.03006720 -0.06039552 -0.01496614
v -0.03344653 -0.04988099 -0.01192877
v -0.03006720 -0.04660389 -0.01931323
v -0.03012443 -0.04660389 -0.01684732
v -0.03344653 -0.04984723 -0.01196573
v -0.03344653 -0.05732231 -0.01455199
v -0.03069007 -0.06038607 -0.01567502
v -0.03006720 -0.06039552 -0.01569492
v -0.03006720 -0.04738029 -0.01940990
v -0.03084422 -0.04660389 -0.01944781
v -0.03130005 -0.04660389 -0.01669000
v -0.03344653 -0.04660389 -0.01642465
v -0.03344653 -0.05727775 -0.01562195
v -0.03055048 -0.06026184 -0.01641707
v -0.03006720 -0.06035771 -0.01672791
v -0.03344653 -0.05709547 -0.01803763
v -0.03344653 -0.05709007 -0.01807554
v -0.03344653 -0.05682271 -0.01900713
v -0.03006720 -0.05697934 -0.01956721
v -0.03107213 -0.04660389 -0.01944022
v -0.03227190 -0.05597339 -0.01966388
v -0.03344653 -0.04660389 -0.01925732
v -0.03006720 -0.06008631 -0.01736287
v -0.03344653 -0.05680921 -0.01903177
v -0.03006720 -0.05718323 -0.01950372
v -0.03344653 -0.05597339 -0.01948761
v -0.03344653 -0.05480001 -0.01946676
v -0.03006720 -0.05935311 -0.01807838
v -0.03344653 -0.05599500 -0.01947718
v -0.03006720 -0.05813112 -0.01906399
f 1 2 3
f 1 3 4
f 1 4 5
f 1 5 6
f 1 6 7
f 1 7 8
f 1 8 2
f 2 8 9
f 2 9 22
f 2 22 21
f 2 21 20
f 2 20 32
f 2 32 40
f 2 40 47
f 2 47 54
f 2 54 62
f 2 62 67
f 2 67 69
f 2 69 64
f 2 64 58
f 2 58 48
f 2 48 42
f 2 42 36
f 2 36 29
f 2 29 28
f 2 28 34
f 2 34 23
f 2 23 10
f 2 10 3
f 3 10 11
f 3 11 12
f 3 12 4
f 4 13 14
f 4 14 5
f 4 12 15
f 4 15 13
f 5 16 6
f 5 14 16
f 6 17 7
f 6 16 17
f 7 17 18
f 7 18 8
f 8 18 19
f 8 19 20
f 8 20 21
f 8 21 22
f 8 22 9
f 10 23 11
f 11 23 24
f 11 24 12
f 12 24 15
f 13 15 25
f 13 25 14
f 14 25 26
f 14 26 27
f 14 27 16
f 15 24 28
f 15 28 29
f 15 29 25
f 16 27 17
f 17 27 18
f 18 30 31
f 18 31 33
f 18 33 19
f 18 27 30
f 19 32 20
f 19 33 32
f 23 34 24
f 24 34 28
f 25 35 41
f 25 41 44
f 25 44 51
f 25 51 61
f 25 61 66
f 25 66 65
f 25 65 68
f 25 68 63
f 25 63 57
f 25 57 56
f 25 56 55
f 25 55 52
f 25 52 45
f 25 45 37
f 25 37 30
f 25 30 27
f 25 27 26
f 25 29 35
f 29 36 35
f 30 37 31
f 31 38 39
f 31 39 33
f 31 37 38
f 32 33 39
f 32 39 40
f 35 36 41
f 36 42 49
f 36 49 59
f 36 59 61
f 36 61 51
f 36 51 50
f 36 50 43
f 36 43 44
f 36 44 41
f 37 45 46
f 37 46 38
f 38 46 47
f 38 47 40
f 38 40 39
f 42 48 49
f 43 50 44
f 44 50 51
f 45 52 46
f 46 53 54
f 46 54 47
f 46 52 55
f 46 55 56
f 46 56 57
f 46 57 53
f 48 58 49
f 49 58 60
f 49 60 59
f 53 62 54
f 53 57 62
f 57 63 62
f 58 64 60
f 59 60 61
f 60 64 65
f 60 65 66
f 60 66 61
f 62 63 67
f 63 68 69
f 63 69 67
f 64 69 65
f 65 69 68

