# https://github.com/mikedh/trimesh
v 0.01917465 0.02196403 0.01299174
v 0.02528027 0.02129343 0.01165729
v 0.02509018 0.02178803 0.01156653
v 0.02405783 0.02255889 0.01158617
v 0.01917465 0.02255889 0.01176703
v 0.01917405 0.01841049 0.00832864
v 0.01917465 0.01977175 0.01299174
v 0.02228006 0.01897861 0.01299174
v 0.02528027 0.02091913 0.01169929
v 0.02528027 0.02255889 0.00724687
v 0.02285572 0.01840603 0.01299174
v 0.02408652 0.01717845 0.01299174
v 0.02467772 0.01650116 0.01299174
v 0.02482178 0.01605334 0.01299174
v 0.02483852 0.01599319 0.01299174
v 0.02498198 0.01495720 0.01299174
v 0.02499334 0.01482353 0.01299174
v 0.01917465 0.02255889 0.00655323
v 0.01917465 0.01737896 0.00611699
v 0.01917465 0.01722523 0.00611428
v 0.01917465 0.01617811 0.00610683
v 0.01917465 -0.00019714 0.00637575
v 0.01917465 -0.00019714 0.01126103
v 0.02377210 -0.00019714 0.01299174
v 0.02510452 0.01122543 0.01299174
v 0.02528027 0.00402700 0.01192486
v 0.02528027 0.02255889 0.00607567
v 0.01937969 0.02255889 0.00651936
v 0.01932828 0.01722523 0.00610683
v 0.01963553 0.02255889 0.00649091
v 0.02292745 0.02255889 0.00620099
v 0.02412777 0.02255889 0.00610683
v 0.01932828 0.01602438 0.00609870
v 0.02052800 -0.00019714 0.00620370
v 0.01932828 -0.00019714 0.00634866
v 0.02501665 -0.00019714 0.01299174
v 0.02506925 0.00402700 0.01299174
v 0.02528027 0.00282615 0.01185577
v 0.02052800 0.01602438 0.00607296
v 0.02528027 0.00254766 0.00670022
v 0.02172832 -0.00019714 0.00625315
v 0.02172832 0.00282615 0.00618405
v 0.02052800 0.01122543 0.00610344
v 0.02052800 0.00162753 0.00618338
v 0.02115327 -0.00019714 0.00621860
v 0.02528027 -0.00019714 0.01147508
v 0.02528027 0.00074081 0.01160378
v 0.02528027 0.00162753 0.00673070
v 0.02217784 -0.00019714 0.00634459
v 0.02528027 -0.00019714 0.00710665
v 0.02528027 0.00148048 0.00675712
f 1 2 3
f 1 3 4
f 1 4 5
f 1 5 6
f 1 6 7
f 1 7 24
f 1 24 36
f 1 36 37
f 1 37 25
f 1 25 17
f 1 17 16
f 1 16 15
f 1 15 14
f 1 14 13
f 1 13 12
f 1 12 11
f 1 11 8
f 1 8 2
f 2 9 26
f 2 26 38
f 2 38 47
f 2 47 46
f 2 46 50
f 2 50 51
f 2 51 48
f 2 48 40
f 2 40 27
f 2 27 10
f 2 10 3
f 2 8 11
f 2 11 12
f 2 12 13
f 2 13 14
f 2 14 15
f 2 15 16
f 2 16 17
f 2 17 9
f 3 10 4
f 4 10 27
f 4 27 32
f 4 32 31
f 4 31 30
f 4 30 28
f 4 28 18
f 4 18 5
f 5 18 6
f 6 18 19
f 6 19 20
f 6 20 21
f 6 21 22
f 6 22 23
f 6 23 7
f 7 23 24
f 9 17 25
f 9 25 26
f 18 28 19
f 19 29 20
f 19 28 30
f 19 30 31
f 19 31 32
f 19 32 29
f 20 29 21
f 21 29 33
f 21 33 34
f 21 34 35
f 21 35 22
f 22 35 34
f 22 34 45
f 22 45 41
f 22 41 49
f 22 49 50
f 22 50 46
f 22 46 36
f 22 36 24
f 22 24 23
f 25 37 26
f 26 37 38
f 27 39 29
f 27 29 32
f 27 40 41
f 27 41 42
f 27 42 43
f 27 43 39
f 29 39 33
f 33 39 43
f 33 43 44
f 33 44 34
f 34 44 42
f 34 42 45
f 36 46 47
f 36 47 38
f 36 38 37
f 40 48 41
f 41 45 42
f 41 48 49
f 42 44 43
f 48 51 49
f 49 51 50

