# https://github.com/mikedh/trimesh
v 0.03953302 0.04862016 -0.01968952
v 0.03492879 0.05322594 -0.01962428
v 0.03974135 0.04862016 -0.01964508
v 0.03252861 0.04862016 -0.01949758
v 0.03065699 0.05562480 -0.01964319
v 0.03132851 0.05562480 -0.01965075
v 0.03499971 0.05450770 -0.01923283
v 0.04093811 0.04862016 -0.01935291
v 0.03372870 0.05442492 -0.01958835
v 0.03233358 0.04862016 -0.01949096
v 0.03065699 0.04862016 -0.01943328
v 0.03065699 0.05624248 -0.01940680
v 0.03065699 0.05669460 -0.01920351
v 0.03132851 0.05665003 -0.01918839
v 0.03252861 0.05562480 -0.01953540
v 0.03367883 0.05561480 -0.01909856
v 0.03464622 0.05520816 -0.01891513
v 0.03586626 0.05416202 -0.01901819
v 0.04099574 0.04862016 -0.01932454
v 0.03065699 0.04862016 -0.01642363
v 0.03065699 0.05703392 -0.01843479
v 0.03121438 0.05720039 -0.01796486
v 0.03252861 0.05648355 -0.01900684
v 0.03324556 0.05632254 -0.01879882
v 0.03537425 0.05490523 -0.01807454
v 0.03606683 0.05430484 -0.01807454
v 0.03666521 0.05376357 -0.01807454
v 0.04069987 0.04938339 -0.01905601
v 0.04165396 0.04862016 -0.01851138
v 0.03065699 0.05251456 -0.01256206
v 0.03183825 0.04862016 -0.01463089
v 0.03065699 0.05724133 -0.01796486
v 0.03073788 0.05742782 -0.01749209
v 0.03252861 0.05671280 -0.01807454
v 0.03192911 0.05742600 -0.01147658
v 0.03327437 0.05633255 -0.01807454
v 0.03470938 0.05539374 -0.01567477
v 0.03672837 0.05382634 -0.01506773
v 0.03672837 0.05382634 -0.01508570
v 0.03798720 0.05268467 -0.01529939
v 0.04181242 0.04862016 -0.01807454
v 0.03065699 0.05315589 -0.01195881
v 0.03230476 0.04862016 -0.01406168
v 0.03065699 0.05740871 -0.01754882
v 0.03071461 0.05742782 -0.01749209
v 0.03065699 0.05791359 -0.01175173
v 0.03192911 0.05742600 -0.01147280
v 0.03451546 0.05516541 -0.01018876
v 0.03798720 0.05268467 -0.01495427
v 0.04157639 0.04907865 -0.01539773
v 0.04197753 0.04862016 -0.01567855
v 0.03065699 0.05376539 -0.01146807
v 0.03206541 0.05036586 -0.01281641
v 0.03280009 0.04862016 -0.01354731
v 0.03065699 0.05791359 -0.01117590
v 0.03132851 0.05765524 -0.01128937
v 0.03318018 0.05626341 -0.01025117
v 0.03492103 0.05444129 -0.01012352
v 0.03568342 0.05405194 -0.01014527
v 0.04157639 0.04907865 -0.01492023
v 0.04193099 0.04862016 -0.01468101
v 0.03065699 0.05379814 -0.01144444
v 0.03323669 0.04914141 -0.01274644
v 0.03297518 0.04862016 -0.01338562
v 0.03065699 0.05682469 -0.01085631
v 0.03292088 0.05626341 -0.01025117
v 0.03364005 0.05558933 -0.01020389
v 0.03377302 0.05452316 -0.01019633
v 0.03493876 0.05327415 -0.01013297
v 0.03732786 0.05082617 -0.01003653
v 0.03852796 0.04962628 -0.01002991
v 0.03847255 0.05076158 -0.01010555
v 0.03965935 0.04954714 -0.01011690
v 0.04067328 0.04862016 -0.01016229
v 0.04039181 0.04909411 -0.01021524
v 0.03065699 0.05446040 -0.01118158
v 0.03403675 0.04869567 -0.01250344
v 0.03606018 0.04862016 -0.01131584
v 0.03618540 0.04862016 -0.01124209
v 0.03740211 0.04862016 -0.01062749
v 0.03671397 0.05021031 -0.01027008
v 0.03352369 0.04862016 -0.01290813
v 0.03395808 0.04862016 -0.01260934
v 0.03065699 0.05562480 -0.01087711
v 0.03295190 0.05562480 -0.01025117
v 0.03310039 0.05498802 -0.01026724
v 0.03647683 0.05082617 -0.01019254
v 0.03743535 0.04973636 -0.01019822
v 0.03852796 0.04871022 -0.01017552
v 0.03876953 0.04862016 -0.01015378
v 0.03962167 0.04862016 -0.01008853
v 0.03432154 0.04862016 -0.01237768
v 0.03752400 0.04862016 -0.01057832
v 0.03790630 0.04900223 -0.01026819
v 0.03710624 0.04941069 -0.01043082
v 0.03852796 0.04862016 -0.01020578
f 1 2 3
f 1 3 8
f 1 8 19
f 1 19 29
f 1 29 41
f 1 41 51
f 1 51 61
f 1 61 74
f 1 74 91
f 1 91 90
f 1 90 96
f 1 96 93
f 1 93 80
f 1 80 79
f 1 79 78
f 1 78 92
f 1 92 83
f 1 83 82
f 1 82 64
f 1 64 54
f 1 54 43
f 1 43 31
f 1 31 20
f 1 20 11
f 1 11 10
f 1 10 4
f 1 4 5
f 1 5 6
f 1 6 2
f 2 7 8
f 2 8 3
f 2 6 9
f 2 9 7
f 4 10 5
f 5 10 11
f 5 11 20
f 5 20 30
f 5 30 42
f 5 42 52
f 5 52 62
f 5 62 76
f 5 76 84
f 5 84 65
f 5 65 55
f 5 55 46
f 5 46 44
f 5 44 32
f 5 32 21
f 5 21 13
f 5 13 12
f 5 12 6
f 6 12 13
f 6 13 14
f 6 14 15
f 6 15 9
f 7 9 15
f 7 15 16
f 7 16 17
f 7 17 18
f 7 18 8
f 8 18 19
f 13 21 22
f 13 22 14
f 14 22 23
f 14 23 15
f 15 23 16
f 16 23 24
f 16 24 17
f 17 25 18
f 17 24 25
f 18 25 26
f 18 26 27
f 18 27 28
f 18 28 19
f 19 28 29
f 20 31 30
f 21 32 22
f 22 32 33
f 22 33 34
f 22 34 24
f 22 24 23
f 24 34 35
f 24 35 36
f 24 36 25
f 25 37 38
f 25 38 39
f 25 39 26
f 25 36 35
f 25 35 37
f 26 39 40
f 26 40 27
f 27 40 41
f 27 41 28
f 28 41 29
f 30 31 42
f 31 43 42
f 32 44 33
f 33 45 46
f 33 46 34
f 33 44 45
f 34 46 35
f 35 46 55
f 35 55 47
f 35 47 37
f 37 47 38
f 38 47 48
f 38 48 49
f 38 49 40
f 38 40 39
f 40 49 60
f 40 60 50
f 40 50 41
f 41 50 51
f 42 43 53
f 42 53 52
f 43 54 53
f 44 46 45
f 47 55 56
f 47 56 57
f 47 57 48
f 48 58 59
f 48 59 49
f 48 57 58
f 49 59 60
f 50 60 51
f 51 60 61
f 52 53 63
f 52 63 62
f 53 54 64
f 53 64 63
f 55 65 66
f 55 66 57
f 55 57 56
f 57 66 67
f 57 67 58
f 58 67 68
f 58 68 69
f 58 69 70
f 58 70 71
f 58 71 59
f 59 71 72
f 59 72 73
f 59 73 74
f 59 74 75
f 59 75 60
f 60 75 61
f 61 75 74
f 62 63 77
f 62 77 78
f 62 78 79
f 62 79 80
f 62 80 81
f 62 81 76
f 63 64 82
f 63 82 83
f 63 83 77
f 65 84 85
f 65 85 66
f 66 85 68
f 66 68 67
f 68 85 86
f 68 86 69
f 69 87 70
f 69 86 87
f 70 87 88
f 70 88 89
f 70 89 71
f 71 89 90
f 71 90 91
f 71 91 74
f 71 74 73
f 71 73 72
f 76 81 84
f 77 83 92
f 77 92 78
f 80 93 94
f 80 94 95
f 80 95 81
f 81 95 94
f 81 94 88
f 81 88 87
f 81 87 84
f 84 87 86
f 84 86 85
f 88 94 89
f 89 96 90
f 89 94 96
f 93 96 94

