# https://github.com/mikedh/trimesh
v -0.00986004 0.00073443 0.02186858
v -0.00715415 0.00073443 0.01888874
v -0.01104337 0.00073443 0.02186858
v -0.00715415 -0.00435402 0.02186858
v -0.00715415 0.00073443 0.01752344
v -0.01104337 0.00073443 0.02020768
v -0.01104337 -0.00318782 0.02186858
v -0.00715415 -0.01523596 0.02186858
v -0.01065349 0.00073443 0.01752344
v -0.00715415 -0.01523596 0.01752344
v -0.01066339 0.00046086 0.01752344
v -0.01104337 0.00052183 0.02015664
v -0.01104337 -0.00317375 0.02181286
v -0.01007287 -0.01338192 0.01972068
v -0.01014064 -0.01277380 0.02032464
v -0.01007858 -0.01340849 0.02118763
v -0.01012694 -0.01286604 0.02186858
v -0.00944770 -0.01523596 0.02186858
v -0.00963350 -0.01523596 0.01752344
v -0.01104337 0.00042491 0.02013367
v -0.01064245 -0.00005658 0.01752344
v -0.01104337 -0.00187311 0.02042970
v -0.01104337 -0.00158077 0.02035952
v -0.01104337 -0.00077569 0.02016684
v -0.01104337 -0.00311122 0.02158446
v -0.01010295 -0.01277380 0.01955182
v -0.00995979 -0.01400566 0.02032464
v -0.01007782 -0.01340537 0.02032464
v -0.00995903 -0.01391187 0.02186858
v -0.01006907 -0.01333971 0.02186858
v -0.00956992 -0.01523596 0.02026339
v -0.01015663 -0.00917359 0.01814569
v -0.01013569 -0.00786044 0.01752344
v -0.00963122 -0.01523596 0.01783605
v -0.01015968 -0.01157321 0.01927068
v -0.00962170 -0.01523596 0.01905164
f 1 2 5
f 1 5 9
f 1 9 6
f 1 6 3
f 1 3 7
f 1 7 17
f 1 17 30
f 1 30 29
f 1 29 18
f 1 18 8
f 1 8 4
f 1 4 2
f 2 4 8
f 2 8 10
f 2 10 5
f 3 6 12
f 3 12 20
f 3 20 24
f 3 24 23
f 3 23 22
f 3 22 25
f 3 25 13
f 3 13 7
f 5 10 19
f 5 19 33
f 5 33 21
f 5 21 11
f 5 11 9
f 6 9 11
f 6 11 12
f 7 13 14
f 7 14 15
f 7 15 16
f 7 16 17
f 8 18 31
f 8 31 36
f 8 36 34
f 8 34 19
f 8 19 10
f 11 20 12
f 11 21 22
f 11 22 23
f 11 23 24
f 11 24 20
f 13 25 14
f 14 26 19
f 14 19 27
f 14 27 28
f 14 28 15
f 14 25 22
f 14 22 26
f 15 28 16
f 16 28 27
f 16 27 29
f 16 29 30
f 16 30 17
f 18 29 31
f 19 32 33
f 19 34 27
f 19 26 35
f 19 35 22
f 19 22 32
f 21 33 22
f 22 33 32
f 22 35 26
f 27 34 36
f 27 36 29
f 29 36 31

