# https://github.com/mikedh/trimesh
v -0.00128967 -0.01858775 0.01568201
v 0.01103656 -0.01922948 0.01568201
v 0.00257443 -0.01922948 0.01670763
v 0.00264837 -0.01922948 0.01719106
v 0.00270041 -0.01922948 0.01752344
v -0.00128967 -0.01844179 0.01645996
v -0.00128967 0.00647990 0.01568201
v 0.01269886 -0.01922948 0.01568201
v 0.01269886 -0.01922948 0.01752344
v -0.00128967 -0.01782020 0.01752344
v -0.00128967 0.00647990 0.01752344
v 0.00926061 0.00647990 0.01568201
v 0.01269886 0.00638175 0.01568201
v 0.01269886 0.00353046 0.01752344
v 0.00925924 0.00647990 0.01752344
v 0.01213472 0.00643963 0.01568201
v 0.01269886 0.00605459 0.01623141
v 0.01269886 0.00362358 0.01748360
f 1 2 3
f 1 3 4
f 1 4 5
f 1 5 6
f 1 6 10
f 1 10 11
f 1 11 7
f 1 7 12
f 1 12 16
f 1 16 13
f 1 13 8
f 1 8 2
f 2 8 9
f 2 9 5
f 2 5 4
f 2 4 3
f 5 9 14
f 5 14 15
f 5 15 11
f 5 11 10
f 5 10 6
f 7 11 15
f 7 15 12
f 8 13 17
f 8 17 18
f 8 18 14
f 8 14 9
f 12 15 16
f 13 16 15
f 13 15 17
f 14 18 15
f 15 18 17

