# https://github.com/mikedh/trimesh
v -0.04632107 -0.00677550 -0.01043885
v -0.04357367 -0.00632016 -0.01163504
v -0.04357367 -0.00077571 -0.01166026
v -0.04632107 0.00030136 -0.01052172
v -0.04632107 -0.00802263 -0.01043885
v -0.04357367 -0.01517446 -0.01159901
v -0.04357367 0.00030136 -0.01168008
v -0.04632107 0.00030136 -0.01934993
v -0.04632107 -0.00917285 -0.01045597
v -0.04357367 -0.01560602 -0.01160442
v -0.04357367 0.00030136 -0.01894730
v -0.04357367 -0.00024906 -0.01908151
v -0.04357367 -0.00077571 -0.01918239
v -0.04357367 -0.00197530 -0.01931210
v -0.04632107 0.00007461 -0.01935624
v -0.04632107 -0.01037427 -0.01047939
v -0.04632107 -0.01157386 -0.01051902
v -0.04632107 -0.01397304 -0.01060189
v -0.04357367 -0.01698665 -0.01165576
v -0.04357367 -0.00317489 -0.01934543
v -0.04357367 -0.00387344 -0.01935804
v -0.04632107 -0.01757364 -0.01963817
v -0.04632107 -0.01518543 -0.01065773
v -0.04357367 -0.01838008 -0.01175034
v -0.04357367 -0.01397304 -0.01946883
v -0.04632107 -0.01838008 -0.01963997
v -0.04632107 -0.01637405 -0.01075952
v -0.04547197 -0.01757364 -0.01109910
v -0.04547197 -0.01838008 -0.01117837
v -0.04357367 -0.01838008 -0.01923554
v -0.04357367 -0.01587117 -0.01937696
v -0.04632107 -0.01838008 -0.01095678
v -0.04357367 -0.01637405 -0.01934993
v -0.04632107 -0.01757364 -0.01087301
f 1 2 3
f 1 3 4
f 1 4 8
f 1 8 15
f 1 15 22
f 1 22 26
f 1 26 32
f 1 32 34
f 1 34 27
f 1 27 23
f 1 23 18
f 1 18 17
f 1 17 16
f 1 16 9
f 1 9 5
f 1 5 6
f 1 6 2
f 2 6 10
f 2 10 19
f 2 19 24
f 2 24 30
f 2 30 33
f 2 33 31
f 2 31 25
f 2 25 21
f 2 21 20
f 2 20 14
f 2 14 13
f 2 13 12
f 2 12 11
f 2 11 7
f 2 7 3
f 3 7 4
f 4 7 11
f 4 11 8
f 5 9 10
f 5 10 6
f 8 11 12
f 8 12 13
f 8 13 14
f 8 14 15
f 9 16 10
f 10 16 17
f 10 17 18
f 10 18 19
f 14 20 15
f 15 20 21
f 15 21 22
f 18 23 19
f 19 23 24
f 21 25 22
f 22 25 26
f 23 27 28
f 23 28 24
f 24 29 32
f 24 32 26
f 24 26 30
f 24 28 29
f 25 31 26
f 26 31 33
f 26 33 30
f 27 34 28
f 28 34 29
f 29 34 32

