# https://github.com/mikedh/trimesh
v -0.02600607 0.00509319 0.01299241
v -0.02598423 0.01109365 0.01299241
v -0.02596239 0.00042617 0.01299241
v -0.02588537 0.00522550 0.01568201
v -0.02589687 0.01495386 0.01568201
v -0.02588882 0.01482415 0.01299241
v -0.02596124 0.00041579 0.01299241
v -0.02575433 0.00041579 0.01467499
v -0.02569686 0.00041579 0.01509965
v -0.02552099 0.00041579 0.01568201
v -0.02582215 0.01577364 0.01568201
v -0.02576698 0.01593967 0.01299241
v -0.02472210 0.00041579 0.01299241
v -0.02430254 0.00041579 0.01568201
v -0.02557961 0.01629508 0.01568201
v -0.02563134 0.01645074 0.01346578
v -0.02572904 0.01617834 0.01299241
v -0.02575433 0.01603825 0.01299241
v -0.02441174 0.00041579 0.01454625
v -0.01426300 0.01433644 0.01299241
v -0.01426300 0.01428196 0.01301058
v -0.01426300 0.01378127 0.01317934
v -0.01426300 0.01130378 0.01435564
v -0.01426300 0.01090167 0.01522655
v -0.02430369 0.00041579 0.01552483
v -0.01811950 0.00679241 0.01568201
v -0.02553248 0.01637291 0.01568201
v -0.02528649 0.01693845 0.01299241
v -0.01813674 0.00679760 0.01552483
v -0.01426300 0.02691327 0.01299241
v -0.01718382 0.00778600 0.01568201
v -0.01426300 0.01090167 0.01536819
v -0.02493245 0.01706297 0.01568201
v -0.01602400 0.02619726 0.01568201
v -0.01598607 0.02614278 0.01299241
v -0.01428369 0.02691587 0.01299241
v -0.01426300 0.02678356 0.01568069
v -0.01452163 0.01140755 0.01568201
v -0.01426300 0.01221695 0.01568201
v -0.01562513 0.02642815 0.01568201
v -0.01539064 0.02657343 0.01299241
v -0.01427220 0.02678356 0.01568201
v -0.01528489 0.02661234 0.01299241
v -0.01552053 0.02647485 0.01568201
v -0.01444232 0.02674205 0.01568201
v -0.01426300 0.02670314 0.01568201
f 1 2 6
f 1 6 12
f 1 12 18
f 1 18 17
f 1 17 28
f 1 28 35
f 1 35 41
f 1 41 43
f 1 43 36
f 1 36 30
f 1 30 20
f 1 20 13
f 1 13 7
f 1 7 3
f 1 3 4
f 1 4 5
f 1 5 2
f 2 5 6
f 3 7 8
f 3 8 4
f 4 8 9
f 4 9 10
f 4 10 14
f 4 14 26
f 4 26 31
f 4 31 38
f 4 38 39
f 4 39 46
f 4 46 42
f 4 42 45
f 4 45 44
f 4 44 40
f 4 40 34
f 4 34 33
f 4 33 27
f 4 27 15
f 4 15 11
f 4 11 5
f 5 11 6
f 6 11 12
f 7 13 19
f 7 19 25
f 7 25 14
f 7 14 10
f 7 10 9
f 7 9 8
f 11 15 16
f 11 16 17
f 11 17 18
f 11 18 12
f 13 20 21
f 13 21 22
f 13 22 23
f 13 23 24
f 13 24 19
f 14 25 26
f 15 27 16
f 16 27 28
f 16 28 17
f 19 24 29
f 19 29 26
f 19 26 25
f 20 30 37
f 20 37 46
f 20 46 39
f 20 39 32
f 20 32 24
f 20 24 23
f 20 23 22
f 20 22 21
f 24 31 26
f 24 26 29
f 24 32 31
f 27 33 28
f 28 33 34
f 28 34 35
f 30 36 37
f 31 32 38
f 32 39 38
f 34 40 41
f 34 41 35
f 36 42 37
f 36 43 44
f 36 44 45
f 36 45 42
f 37 42 46
f 40 44 41
f 41 44 43

