# https://github.com/mikedh/trimesh
v 0.04446617 0.04369895 -0.01056183
v 0.04444937 0.04369895 -0.01056361
v 0.03972956 0.03723756 -0.01350764
v 0.04071436 0.03723756 -0.01354775
v 0.04091351 0.03723756 -0.01356291
v 0.04162605 0.03723756 -0.01385615
v 0.04446617 0.04348832 -0.01070801
v 0.04446617 0.04369895 -0.01950177
v 0.04344020 0.04369895 -0.01083992
v 0.03949177 0.03723756 -0.01354508
v 0.04283773 0.03813704 -0.01380267
v 0.04446617 0.04274698 -0.01122943
v 0.04217895 0.03723756 -0.01437401
v 0.04411662 0.03807758 -0.01491949
v 0.04446617 0.04368630 -0.01950533
v 0.04445357 0.04369895 -0.01950623
v 0.03871956 0.04369895 -0.01215462
v 0.03893719 0.03723756 -0.01375276
v 0.03844311 0.04369895 -0.01224286
v 0.04446617 0.03881702 -0.01449344
v 0.04446617 0.03885180 -0.01446046
v 0.04219240 0.03723756 -0.01439273
v 0.04446617 0.03828631 -0.01529385
v 0.04446617 0.03723756 -0.01794820
v 0.04446617 0.04248637 -0.01966666
v 0.03612816 0.04369895 -0.01953297
v 0.03802381 0.04369895 -0.01243182
v 0.03752973 0.04369895 -0.01272507
v 0.03678189 0.04202905 -0.01392924
v 0.03833723 0.03723756 -0.01426972
v 0.04446617 0.03723756 -0.01947860
v 0.04446617 0.04128581 -0.01963903
v 0.03612816 0.04362494 -0.01953475
v 0.03588280 0.04362494 -0.01952495
v 0.03588280 0.04364013 -0.01952316
v 0.03588280 0.04369895 -0.01951603
v 0.03724236 0.04369895 -0.01297374
v 0.03658107 0.04369895 -0.01360836
v 0.03588280 0.03723756 -0.01655417
v 0.04332760 0.03723756 -0.01949108
v 0.04446617 0.03762594 -0.01951960
v 0.04332760 0.03762594 -0.01950712
v 0.04212770 0.03723756 -0.01946790
v 0.03588280 0.03723756 -0.01822540
v 0.03588280 0.04369895 -0.01928340
v 0.03655082 0.04369895 -0.01364758
v 0.03588280 0.03756522 -0.01654704
v 0.03591137 0.04369895 -0.01455049
v 0.03588280 0.04369642 -0.01776459
v 0.03588280 0.03882587 -0.01654883
v 0.03588280 0.04233583 -0.01692318
v 0.03588280 0.04122509 -0.01662192
v 0.03588280 0.04121497 -0.01661924
v 0.03588280 0.03987272 -0.01657913
f 1 2 3
f 1 3 4
f 1 4 5
f 1 5 6
f 1 6 7
f 1 7 12
f 1 12 21
f 1 21 20
f 1 20 23
f 1 23 24
f 1 24 31
f 1 31 41
f 1 41 32
f 1 32 25
f 1 25 15
f 1 15 8
f 1 8 16
f 1 16 26
f 1 26 36
f 1 36 45
f 1 45 48
f 1 48 46
f 1 46 38
f 1 38 37
f 1 37 28
f 1 28 27
f 1 27 19
f 1 19 17
f 1 17 9
f 1 9 2
f 2 9 10
f 2 10 3
f 3 10 18
f 3 18 30
f 3 30 39
f 3 39 44
f 3 44 43
f 3 43 40
f 3 40 31
f 3 31 24
f 3 24 22
f 3 22 13
f 3 13 6
f 3 6 5
f 3 5 4
f 6 11 12
f 6 12 7
f 6 13 14
f 6 14 11
f 8 15 16
f 9 17 10
f 10 17 19
f 10 19 18
f 11 14 20
f 11 20 21
f 11 21 12
f 13 22 14
f 14 23 20
f 14 22 24
f 14 24 23
f 15 25 16
f 16 25 26
f 18 19 27
f 18 27 28
f 18 28 29
f 18 29 30
f 25 32 33
f 25 33 26
f 26 33 34
f 26 34 35
f 26 35 36
f 28 37 29
f 29 37 38
f 29 38 39
f 29 39 30
f 31 40 41
f 32 41 42
f 32 42 33
f 33 42 43
f 33 43 34
f 34 43 44
f 34 44 39
f 34 39 47
f 34 47 50
f 34 50 54
f 34 54 53
f 34 53 52
f 34 52 51
f 34 51 49
f 34 49 45
f 34 45 36
f 34 36 35
f 38 46 39
f 39 46 48
f 39 48 47
f 40 42 41
f 40 43 42
f 45 49 48
f 47 48 50
f 48 49 51
f 48 51 52
f 48 52 53
f 48 53 54
f 48 54 50

