# https://github.com/mikedh/trimesh
v -0.03073610 -0.01918092 0.00572646
v -0.03073610 -0.02031030 0.00573642
v -0.03073610 -0.01879154 0.00581750
v -0.02128262 -0.01656313 0.00615107
v -0.01907067 -0.01656313 0.00620299
v -0.02027027 -0.01757464 0.00609773
v -0.01067343 -0.01997412 0.00619090
v -0.01307265 -0.02117411 0.00610057
v -0.03060151 -0.02164307 0.00576131
v -0.03073610 -0.02164307 0.00576700
v -0.01307265 -0.02164307 0.00610484
v -0.03073610 -0.01805851 0.00602162
v -0.02146988 -0.01656313 0.00615534
v -0.01888342 -0.01656313 0.00621650
v -0.00107367 -0.02164307 0.00641920
v -0.01187304 -0.02117411 0.00613258
v -0.03073610 -0.02164307 0.00716671
v -0.03073610 -0.01783025 0.00613187
v -0.02240323 -0.01656313 0.00629829
v -0.01187304 -0.01656313 0.00672361
v -0.00107367 -0.02155704 0.00643841
v -0.00084545 -0.02160478 0.00645121
v -0.00084545 -0.02164307 0.00644552
v -0.02571824 -0.01703556 0.01299241
v -0.02580309 -0.01656313 0.01299241
v -0.03073610 -0.01844343 0.00749530
v -0.02053360 -0.02164307 0.01299241
v -0.02055994 -0.02162069 0.01299241
v -0.03073610 -0.01781633 0.00677695
v -0.02599912 -0.01656313 0.01053866
v -0.02584405 -0.01656313 0.00973284
v -0.02517110 -0.01656313 0.00832602
v -0.02506284 -0.01656313 0.00815603
v -0.02467370 -0.01656313 0.00755931
v -0.02373450 -0.01656313 0.00694267
v -0.02305570 -0.01656313 0.00654509
v -0.02254952 -0.01656313 0.00633314
v -0.00084545 -0.01656313 0.00799316
v -0.00084545 -0.02164307 0.00961548
v -0.02590842 -0.01656313 0.01192485
v -0.03073610 -0.01783423 0.00706358
v -0.03073610 -0.01794214 0.00739146
v -0.03073610 -0.01843646 0.00749530
v -0.01280054 -0.01656313 0.01299241
v -0.01842405 -0.02164307 0.01299241
v -0.02593183 -0.01656313 0.01167094
v -0.02600790 -0.01656313 0.01072429
v -0.00084545 -0.01656313 0.00991420
v -0.00084545 -0.02117411 0.00981605
v -0.01293513 -0.01757414 0.01299241
v -0.00084545 -0.01877463 0.01048319
v -0.00084545 -0.01835491 0.01040566
v -0.00084545 -0.01971950 0.01034307
v -0.01323064 -0.01855930 0.01299241
v -0.00084545 -0.01944251 0.01040068
f 1 2 10
f 1 10 17
f 1 17 26
f 1 26 43
f 1 43 42
f 1 42 41
f 1 41 29
f 1 29 18
f 1 18 12
f 1 12 3
f 1 3 4
f 1 4 5
f 1 5 6
f 1 6 7
f 1 7 8
f 1 8 2
f 2 9 10
f 2 8 11
f 2 11 9
f 3 12 13
f 3 13 4
f 4 13 19
f 4 19 37
f 4 37 36
f 4 36 35
f 4 35 34
f 4 34 33
f 4 33 32
f 4 32 31
f 4 31 30
f 4 30 47
f 4 47 46
f 4 46 40
f 4 40 25
f 4 25 44
f 4 44 48
f 4 48 38
f 4 38 20
f 4 20 14
f 4 14 5
f 5 14 15
f 5 15 7
f 5 7 6
f 7 15 16
f 7 16 8
f 8 16 15
f 8 15 11
f 9 11 15
f 9 15 23
f 9 23 39
f 9 39 45
f 9 45 27
f 9 27 17
f 9 17 10
f 12 18 13
f 13 18 19
f 14 20 15
f 15 20 21
f 15 21 22
f 15 22 23
f 17 24 25
f 17 25 26
f 17 27 28
f 17 28 24
f 18 29 30
f 18 30 31
f 18 31 32
f 18 32 33
f 18 33 34
f 18 34 35
f 18 35 36
f 18 36 37
f 18 37 19
f 20 38 21
f 21 38 22
f 22 38 48
f 22 48 52
f 22 52 51
f 22 51 55
f 22 55 53
f 22 53 49
f 22 49 39
f 22 39 23
f 24 28 27
f 24 27 45
f 24 45 54
f 24 54 50
f 24 50 44
f 24 44 25
f 25 40 29
f 25 29 41
f 25 41 42
f 25 42 43
f 25 43 26
f 29 40 46
f 29 46 47
f 29 47 30
f 39 49 45
f 44 50 51
f 44 51 52
f 44 52 48
f 45 49 53
f 45 53 54
f 50 54 51
f 51 54 55
f 53 55 54

