# https://github.com/mikedh/trimesh
v -0.01686892 -0.04136833 0.00334945
v -0.01686892 -0.03976036 0.01010859
v -0.01686892 -0.03896057 0.00334945
v -0.01567061 -0.04140646 0.00334945
v -0.01686892 -0.03959068 0.01044784
v -0.01541652 -0.04141065 0.00334945
v -0.00184770 -0.04111025 0.00544974
v -0.00107288 -0.04110690 0.00544245
v -0.00587239 -0.03985630 0.00913941
v -0.00587239 -0.03957686 0.00973938
v -0.01686892 -0.03840544 0.00510563
v -0.01667129 -0.03887971 0.00334945
v -0.01686892 -0.03947882 0.01065107
v -0.00227276 -0.04144123 0.00334945
v -0.00227276 -0.04142196 0.00352515
v -0.00107288 -0.04128580 0.00472508
v -0.00084702 -0.04109056 0.00542707
v -0.00084702 -0.03940131 0.00950943
v -0.00084702 -0.03886756 0.01048752
v -0.01686892 -0.03895973 0.01147289
v -0.01686892 -0.03825210 0.00590477
v -0.01307166 -0.03716155 0.01098385
v -0.01528947 -0.03870751 0.00334945
v -0.01547142 -0.03871380 0.00334945
v -0.01650033 -0.03884745 0.00334945
v -0.00128619 -0.04128998 0.00334945
v -0.00084702 -0.04126443 0.00472508
v -0.00084702 -0.04123552 0.00484572
v -0.00084702 -0.03821607 0.01108749
v -0.01686892 -0.03886127 0.01161458
v -0.01686892 -0.03821817 0.00611772
v -0.01427154 -0.03720596 0.01106643
v -0.01307166 -0.03716155 0.01154981
v -0.01187178 -0.03716322 0.01095632
v -0.00707227 -0.03807111 0.00592502
v -0.00947046 -0.03876994 0.00334945
v -0.00111523 -0.04123594 0.00334945
v -0.00084702 -0.04121164 0.00365065
v -0.00084702 -0.04122002 0.00378991
v -0.00084702 -0.03761612 0.01144131
v -0.01547142 -0.03797475 0.01162025
v -0.01686892 -0.03793160 0.01159353
v -0.01686892 -0.03779753 0.01080248
v -0.01624938 -0.03734715 0.01128181
v -0.01547142 -0.03728933 0.01119436
v -0.01427154 -0.03720596 0.01152714
v -0.01187178 -0.03716322 0.01153442
v -0.00084702 -0.03723780 0.01144131
v -0.00084702 -0.03723780 0.01078224
v -0.00084702 -0.03897188 0.00334945
v -0.00084702 -0.04100467 0.00334945
v -0.01686892 -0.03781638 0.01096927
v -0.01547142 -0.03728933 0.01144941
v -0.01624938 -0.03734715 0.01137249
f 1 2 5
f 1 5 13
f 1 13 20
f 1 20 30
f 1 30 42
f 1 42 52
f 1 52 43
f 1 43 31
f 1 31 21
f 1 21 11
f 1 11 3
f 1 3 12
f 1 12 25
f 1 25 24
f 1 24 23
f 1 23 36
f 1 36 50
f 1 50 51
f 1 51 37
f 1 37 26
f 1 26 14
f 1 14 6
f 1 6 4
f 1 4 2
f 2 4 6
f 2 6 7
f 2 7 8
f 2 8 9
f 2 9 10
f 2 10 5
f 3 11 12
f 5 10 13
f 6 14 15
f 6 15 16
f 6 16 7
f 7 16 8
f 8 16 17
f 8 17 18
f 8 18 9
f 9 18 10
f 10 18 19
f 10 19 20
f 10 20 13
f 11 21 22
f 11 22 23
f 11 23 24
f 11 24 25
f 11 25 12
f 14 26 27
f 14 27 16
f 14 16 15
f 16 27 28
f 16 28 17
f 17 28 27
f 17 27 39
f 17 39 38
f 17 38 51
f 17 51 50
f 17 50 49
f 17 49 48
f 17 48 40
f 17 40 29
f 17 29 19
f 17 19 18
f 19 29 30
f 19 30 20
f 21 31 32
f 21 32 22
f 22 33 47
f 22 47 34
f 22 34 35
f 22 35 23
f 22 32 46
f 22 46 33
f 23 35 36
f 26 37 38
f 26 38 39
f 26 39 27
f 29 40 30
f 30 41 42
f 30 40 41
f 31 43 44
f 31 44 45
f 31 45 32
f 32 45 53
f 32 53 46
f 33 46 42
f 33 42 41
f 33 41 48
f 33 48 47
f 34 47 48
f 34 48 49
f 34 49 35
f 35 49 50
f 35 50 36
f 37 51 38
f 40 48 41
f 42 46 53
f 42 53 54
f 42 54 52
f 43 52 54
f 43 54 44
f 44 54 53
f 44 53 45

