# https://github.com/mikedh/trimesh
v 0.02039234 -0.02078073 0.02152476
v 0.02086306 -0.02030237 0.02152476
v 0.02380370 -0.01725003 0.02186858
v 0.02099960 -0.02009882 0.02186858
v 0.02039234 -0.02071661 0.02177666
v 0.02039234 -0.02077157 0.02124714
v 0.02144921 -0.01970086 0.01974883
v 0.02452370 -0.01671671 0.01974883
v 0.02451337 -0.01671875 0.02032504
v 0.02384457 -0.01727140 0.02152476
v 0.02423220 -0.01675233 0.02186858
v 0.02039234 -0.02069320 0.02186858
v 0.02039234 -0.02070236 0.01996068
v 0.02049115 -0.02060058 0.01974883
v 0.02472807 -0.01640425 0.01974883
v 0.02490639 -0.01611825 0.02032504
v 0.02483991 -0.01597474 0.02152476
v 0.02444420 -0.01657422 0.02152476
v 0.02479410 -0.01589434 0.02186858
v 0.02039234 -0.01038404 0.02186858
v 0.02039234 -0.02068913 0.01974883
v 0.02489696 -0.01611622 0.01974883
v 0.02498095 -0.01517476 0.02152476
v 0.02494142 -0.01517273 0.02186858
v 0.02060165 -0.01038404 0.02186858
v 0.02039234 -0.01038404 0.02168433
v 0.02039234 -0.01288067 0.01974883
v 0.02489875 -0.01533761 0.01974883
v 0.02488752 -0.01412543 0.02186858
v 0.02474514 -0.01377836 0.02186858
v 0.02479365 -0.01450404 0.02078526
v 0.02449675 -0.01497426 0.01974883
v 0.02039279 -0.01038404 0.02165175
v 0.02039234 -0.01040135 0.02164511
v 0.02425556 -0.01479411 0.01974883
v 0.02486866 -0.01424247 0.02152476
f 1 2 3
f 1 3 4
f 1 4 5
f 1 5 12
f 1 12 20
f 1 20 26
f 1 26 34
f 1 34 27
f 1 27 21
f 1 21 13
f 1 13 6
f 1 6 7
f 1 7 8
f 1 8 9
f 1 9 2
f 2 9 10
f 2 10 3
f 3 10 11
f 3 11 19
f 3 19 24
f 3 24 29
f 3 29 30
f 3 30 25
f 3 25 20
f 3 20 12
f 3 12 4
f 4 12 5
f 6 13 14
f 6 14 7
f 7 14 21
f 7 21 27
f 7 27 35
f 7 35 32
f 7 32 28
f 7 28 22
f 7 22 15
f 7 15 8
f 8 15 16
f 8 16 9
f 9 16 17
f 9 17 18
f 9 18 10
f 10 18 11
f 11 18 17
f 11 17 19
f 13 21 14
f 15 22 16
f 16 22 23
f 16 23 17
f 17 23 24
f 17 24 19
f 20 25 33
f 20 33 26
f 22 28 23
f 23 28 29
f 23 29 24
f 25 30 31
f 25 31 32
f 25 32 33
f 26 33 34
f 27 34 33
f 27 33 35
f 28 32 31
f 28 31 36
f 28 36 29
f 29 36 30
f 30 36 31
f 32 35 33

