# https://github.com/mikedh/trimesh
v -0.03957364 0.00146107 0.00334945
v -0.03933899 0.00146107 0.00112486
v -0.04137790 0.00146107 0.00334945
v -0.03665200 -0.02942463 0.00334945
v -0.03925018 0.00146107 -0.00007619
v -0.04122147 0.00146107 -0.00727470
v -0.04144259 0.00138274 0.00334945
v -0.03665200 -0.04064605 0.00334945
v -0.03665200 -0.03390578 -0.00988668
v -0.03928135 0.00146107 -0.00367415
v -0.03925195 0.00146107 -0.00127594
v -0.04108797 0.00146107 -0.00832286
v -0.04137437 0.00116012 -0.00802746
v -0.04138437 0.00119310 -0.00727470
v -0.04150963 0.00129617 0.00334945
v -0.04148611 -0.03648646 0.00334945
v -0.04037520 -0.03764075 0.00308773
v -0.03966890 -0.03827562 0.00232461
v -0.03665200 -0.04065017 0.00314215
v -0.03962009 0.00146107 -0.00988668
v -0.03932075 0.00146107 -0.00487390
v -0.03931487 0.00146107 -0.00471065
v -0.03665200 -0.03618139 -0.00988668
v -0.04084627 0.00146107 -0.00988668
v -0.04148905 0.00010477 -0.00988668
v -0.04156903 -0.00009724 -0.00988668
v -0.04179956 -0.00077745 -0.00988668
v -0.04169664 0.00042220 -0.00727470
v -0.04156550 0.00117661 0.00334945
v -0.04140613 -0.03645760 0.00268479
v -0.04036403 -0.03767373 0.00232461
v -0.04176780 -0.03575677 0.00334945
v -0.04253997 -0.03029035 -0.00988668
v -0.03899377 -0.03865901 0.00164959
v -0.03665200 -0.04065429 0.00280140
v -0.03973007 -0.03345643 -0.00988668
v -0.04194717 -0.00077745 -0.00367415
v -0.04230591 -0.00919557 -0.00988668
v -0.04208890 -0.00077745 0.00232461
v -0.04188013 0.00024905 0.00334945
v -0.04184191 0.00042220 0.00334945
v -0.04029111 -0.03285866 -0.00988668
v -0.03982769 -0.03335336 -0.00988668
v -0.04181191 -0.03556302 0.00334945
v -0.04261407 -0.03037280 -0.00487390
v -0.04265935 -0.02957304 -0.00487390
v -0.04254232 -0.02950708 -0.00988668
v -0.04213360 -0.00197709 0.00232461
v -0.04265818 -0.02957304 -0.00367415
v -0.04202480 -0.00077745 0.00334945
v -0.04210949 -0.00197709 0.00334945
v -0.04258937 -0.03038105 0.00334945
v -0.04261113 -0.03042227 0.00232461
v -0.04262289 -0.03039341 -0.00367415
v -0.04261113 -0.02975855 0.00232461
v -0.04258937 -0.02985749 0.00334945
f 1 2 5
f 1 5 11
f 1 11 10
f 1 10 22
f 1 22 21
f 1 21 20
f 1 20 24
f 1 24 12
f 1 12 6
f 1 6 3
f 1 3 7
f 1 7 15
f 1 15 29
f 1 29 41
f 1 41 40
f 1 40 50
f 1 50 51
f 1 51 56
f 1 56 52
f 1 52 44
f 1 44 32
f 1 32 16
f 1 16 8
f 1 8 4
f 1 4 2
f 2 4 5
f 3 6 7
f 4 8 19
f 4 19 35
f 4 35 23
f 4 23 9
f 4 9 10
f 4 10 11
f 4 11 5
f 6 12 13
f 6 13 14
f 6 14 15
f 6 15 7
f 8 16 17
f 8 17 18
f 8 18 19
f 9 20 21
f 9 21 22
f 9 22 10
f 9 23 36
f 9 36 43
f 9 43 42
f 9 42 33
f 9 33 47
f 9 47 38
f 9 38 27
f 9 27 26
f 9 26 25
f 9 25 24
f 9 24 20
f 12 24 13
f 13 24 25
f 13 25 26
f 13 26 27
f 13 27 28
f 13 28 14
f 14 29 15
f 14 28 29
f 16 30 31
f 16 31 17
f 16 32 33
f 16 33 30
f 17 31 18
f 18 34 35
f 18 35 19
f 18 31 34
f 23 35 34
f 23 34 36
f 27 37 28
f 27 38 37
f 28 37 39
f 28 39 40
f 28 40 41
f 28 41 29
f 30 33 31
f 31 42 43
f 31 43 36
f 31 36 34
f 31 33 42
f 32 44 33
f 33 45 46
f 33 46 47
f 33 44 45
f 37 38 39
f 38 48 39
f 38 47 46
f 38 46 49
f 38 49 48
f 39 50 40
f 39 48 51
f 39 51 50
f 44 52 53
f 44 53 54
f 44 54 45
f 45 54 46
f 46 54 49
f 48 49 55
f 48 55 56
f 48 56 51
f 49 54 53
f 49 53 55
f 52 56 55
f 52 55 53

