# https://github.com/mikedh/trimesh
v 0.01986377 0.01541017 -0.01652060
v 0.01988369 0.01541017 -0.01622951
v 0.01988854 0.01541017 -0.01684654
v 0.01988746 0.01002484 -0.01647673
v 0.01988746 0.01002484 -0.01620368
v 0.02047818 0.01541017 -0.01594949
v 0.02052826 0.01002484 -0.01585889
v 0.01998708 0.01541017 -0.01717043
v 0.02005116 0.01002484 -0.01707695
v 0.01989877 0.00919655 -0.01645091
v 0.01989877 0.00919655 -0.01622213
v 0.02169785 0.01541017 -0.01599828
v 0.02172801 0.01242538 -0.01563421
v 0.02172801 0.01122437 -0.01567029
v 0.02043833 0.00880755 -0.01599869
v 0.02172801 0.00882530 -0.01592038
v 0.02137853 0.01541017 -0.01982221
v 0.02158423 0.00404491 -0.01982221
v 0.02164562 0.00162662 -0.01982221
v 0.02170001 0.00030284 -0.01982221
v 0.02220941 0.00030284 -0.01841514
v 0.02253143 0.00030284 -0.01787724
v 0.02259928 0.00030284 -0.01780878
v 0.02318461 0.00030284 -0.01722865
v 0.02536440 0.01473275 -0.01757385
v 0.02536440 0.01541017 -0.01768947
v 0.02272474 0.01242538 -0.01600771
v 0.02536440 0.01252153 -0.01720446
v 0.02536440 0.00402569 -0.01652101
v 0.02536440 0.00030580 -0.01682563
v 0.02077812 0.00794821 -0.01609012
v 0.02532778 0.00030284 -0.01682809
v 0.02536386 0.01541017 -0.01982221
v 0.02536440 0.00030284 -0.01982221
v 0.02401495 0.00030284 -0.01696872
v 0.02536440 0.01541017 -0.01793915
v 0.02536440 0.01122437 -0.01701668
v 0.02536440 0.01126135 -0.01701956
v 0.02536440 0.00030284 -0.01696134
v 0.02412265 0.00030284 -0.01694043
v 0.02412750 0.00042560 -0.01691501
v 0.02536440 0.01539686 -0.01982221
f 1 2 6
f 1 6 12
f 1 12 26
f 1 26 36
f 1 36 33
f 1 33 17
f 1 17 8
f 1 8 3
f 1 3 4
f 1 4 5
f 1 5 2
f 2 5 7
f 2 7 6
f 3 8 9
f 3 9 4
f 4 9 10
f 4 10 11
f 4 11 5
f 5 11 7
f 6 7 13
f 6 13 12
f 7 14 13
f 7 11 15
f 7 15 16
f 7 16 14
f 8 17 18
f 8 18 9
f 9 18 19
f 9 19 20
f 9 20 10
f 10 20 11
f 11 20 21
f 11 21 22
f 11 22 23
f 11 23 24
f 11 24 15
f 12 25 26
f 12 13 27
f 12 27 28
f 12 28 25
f 13 14 29
f 13 29 27
f 14 16 30
f 14 30 29
f 15 24 31
f 15 31 16
f 16 31 32
f 16 32 30
f 17 33 42
f 17 42 34
f 17 34 20
f 17 20 19
f 17 19 18
f 20 34 39
f 20 39 32
f 20 32 40
f 20 40 35
f 20 35 24
f 20 24 23
f 20 23 22
f 20 22 21
f 24 35 31
f 25 28 38
f 25 38 37
f 25 37 29
f 25 29 30
f 25 30 39
f 25 39 34
f 25 34 42
f 25 42 36
f 25 36 26
f 27 29 37
f 27 37 38
f 27 38 28
f 30 32 39
f 31 35 40
f 31 40 41
f 31 41 32
f 32 41 40
f 33 36 42

