# https://github.com/mikedh/trimesh
v 0.02196317 0.02574490 0.00100552
v 0.02197863 0.02574322 0.00115433
v 0.02197090 0.02586893 0.00115433
v 0.02196781 0.02626282 0.00115433
v 0.02208072 0.02542477 0.00032733
v 0.02208072 0.02477444 0.00032733
v 0.02206216 0.02466717 0.00112487
v 0.02206371 0.02469231 0.00115433
v 0.02381308 0.03042625 0.00115433
v 0.02431887 0.03143527 -0.00007512
v 0.02439002 0.03142185 -0.00105828
v 0.02406520 0.03042457 -0.00105828
v 0.02397085 0.02794227 -0.00105828
v 0.02601256 0.02509290 -0.00105828
v 0.02654464 0.02477947 -0.00105828
v 0.02938448 0.02129318 0.00042134
v 0.02416419 0.02688297 -0.00105828
v 0.02459574 0.02645054 -0.00105828
v 0.02496232 0.02609018 -0.00105828
v 0.02938448 0.02129318 0.00082314
v 0.02208072 0.02465879 0.00115433
v 0.02206834 0.02467220 0.00115433
v 0.02429567 0.03142018 0.00115433
v 0.02830020 0.03841455 -0.00007512
v 0.02863740 0.03841455 -0.00105828
v 0.03062342 0.02316706 -0.00105828
v 0.03132719 0.02290056 -0.00105828
v 0.02982221 0.02129318 0.00042134
v 0.02982221 0.02129318 0.00082314
v 0.03005267 0.02176919 0.00115433
v 0.02899779 0.02194686 0.00115433
v 0.02867606 0.02201558 0.00115433
v 0.02847963 0.03841455 0.00115433
v 0.02846880 0.03841455 0.00112487
v 0.03263420 0.03841455 -0.00105828
v 0.03155921 0.02298269 -0.00105828
v 0.03217636 0.02242790 0.00023982
v 0.03260172 0.02225191 0.00115433
v 0.03014393 0.02176919 0.00115433
v 0.03173244 0.03841455 0.00115433
v 0.03776322 0.03347508 -0.00105828
v 0.03240837 0.03841455 -0.00010826
v 0.03776322 0.03326724 -0.00009591
v 0.03257233 0.02342183 -0.00105828
v 0.03318175 0.02257037 0.00115433
v 0.03202478 0.03841455 0.00088249
v 0.03193661 0.03828381 0.00115433
v 0.03776322 0.02941221 -0.00105828
v 0.03207582 0.03841455 0.00079108
v 0.03776322 0.03326221 -0.00007533
v 0.03311060 0.02384253 -0.00105828
v 0.03355451 0.02309834 0.00115433
v 0.03347563 0.02427161 -0.00105828
v 0.03447174 0.03594398 0.00115433
v 0.03776322 0.02982788 0.00115433
v 0.03362412 0.02320226 0.00115433
v 0.03359318 0.02315365 0.00115433
v 0.03453361 0.03599593 0.00091866
v 0.03776322 0.03294878 0.00078069
v 0.03776322 0.03275771 0.00115433
f 1 2 3
f 1 3 4
f 1 4 5
f 1 5 6
f 1 6 7
f 1 7 2
f 2 7 8
f 2 8 22
f 2 22 21
f 2 21 32
f 2 32 31
f 2 31 30
f 2 30 39
f 2 39 38
f 2 38 45
f 2 45 52
f 2 52 57
f 2 57 56
f 2 56 55
f 2 55 60
f 2 60 54
f 2 54 47
f 2 47 40
f 2 40 33
f 2 33 23
f 2 23 9
f 2 9 4
f 2 4 3
f 4 9 10
f 4 10 11
f 4 11 12
f 4 12 5
f 5 12 13
f 5 13 6
f 6 14 15
f 6 15 16
f 6 16 7
f 6 13 17
f 6 17 18
f 6 18 19
f 6 19 14
f 7 16 20
f 7 20 21
f 7 21 22
f 7 22 8
f 9 23 10
f 10 23 24
f 10 24 11
f 11 24 25
f 11 25 35
f 11 35 41
f 11 41 48
f 11 48 53
f 11 53 51
f 11 51 44
f 11 44 36
f 11 36 27
f 11 27 26
f 11 26 15
f 11 15 14
f 11 14 19
f 11 19 18
f 11 18 17
f 11 17 13
f 11 13 12
f 15 26 16
f 16 26 27
f 16 27 28
f 16 28 29
f 16 29 20
f 20 29 39
f 20 39 30
f 20 30 31
f 20 31 32
f 20 32 21
f 23 33 34
f 23 34 24
f 24 34 33
f 24 33 40
f 24 40 46
f 24 46 49
f 24 49 42
f 24 42 35
f 24 35 25
f 27 36 28
f 28 36 37
f 28 37 38
f 28 38 29
f 29 38 39
f 35 42 43
f 35 43 41
f 36 44 37
f 37 45 38
f 37 44 45
f 40 47 46
f 41 43 50
f 41 50 59
f 41 59 60
f 41 60 55
f 41 55 48
f 42 49 50
f 42 50 43
f 44 51 45
f 45 51 53
f 45 53 48
f 45 48 52
f 46 47 54
f 46 54 49
f 48 55 56
f 48 56 57
f 48 57 52
f 49 54 58
f 49 58 59
f 49 59 50
f 54 60 59
f 54 59 58

