# https://github.com/mikedh/trimesh
v 0.01988303 0.00030136 -0.02042430
v 0.01988107 -0.01240951 -0.01977774
v 0.01988303 -0.01205491 -0.01984964
v 0.01988303 0.00030136 -0.02172485
v 0.01120249 0.00030136 -0.01977642
v 0.01957694 -0.01240951 -0.01978491
v 0.01988303 -0.01240951 -0.02068006
v 0.01200109 -0.00195564 -0.01977642
v 0.01236016 -0.00317497 -0.01977642
v 0.01194222 -0.00411684 -0.01977642
v 0.00719383 -0.00909866 -0.01977642
v 0.00659145 -0.00951298 -0.01977642
v 0.00637169 -0.00964860 -0.01977642
v 0.00496483 -0.01031425 -0.01977642
v 0.00257886 -0.01141787 -0.01977642
v 0.00132897 -0.01176127 -0.01977642
v 0.00012813 -0.01193671 -0.01977642
v -0.00006612 -0.01193795 -0.01977642
v -0.00016226 -0.01193795 -0.01977642
v 0.01988303 -0.00077488 -0.02176385
v 0.01541719 0.00030136 -0.02231994
v 0.00967791 0.00030136 -0.01977642
v 0.00012813 -0.01240951 -0.02029191
v 0.01988303 -0.01240951 -0.02158185
v -0.00016226 -0.01240951 -0.02029987
v -0.00016226 -0.01042748 -0.01977642
v 0.01988303 -0.00253047 -0.02181851
v 0.01552707 -0.00317497 -0.02231835
v 0.01463821 0.00030136 -0.02236266
v 0.01988303 -0.00372989 -0.02184079
v 0.00962297 0.00030136 -0.02047524
v -0.00016226 -0.01036651 -0.02047524
v 0.01988303 -0.01212956 -0.02161713
v 0.01812691 -0.01240951 -0.02175748
v 0.01812691 -0.01157340 -0.02187316
v -0.00016226 -0.01240951 -0.02237539
v 0.01393969 -0.01098613 -0.02227749
v 0.01452637 -0.00437563 -0.02236557
v 0.01988303 -0.00437563 -0.02183097
v 0.01988303 -0.00917456 -0.02174926
v 0.01812691 -0.01037398 -0.02191189
v 0.01453618 0.00030136 -0.02236584
v 0.00982310 0.00030136 -0.02167497
v -0.00016226 -0.01064148 -0.02177685
v 0.01988303 -0.01037398 -0.02170681
v 0.01186178 -0.01240951 -0.02232366
v -0.00016226 -0.01151243 -0.02238149
v 0.00132897 -0.01157340 -0.02246321
v 0.00127991 -0.01240951 -0.02241360
v 0.01092779 -0.01240951 -0.02237380
v 0.01332750 -0.01106451 -0.02230561
v 0.01212667 -0.01037398 -0.02236823
v 0.00972892 -0.00557505 -0.02248682
v 0.01092779 0.00030136 -0.02245339
v 0.00986039 0.00030136 -0.02174236
v -0.00016226 -0.01089406 -0.02204481
v 0.01021357 0.00030136 -0.02235708
v -0.00016226 -0.01125986 -0.02230031
v 0.01028421 0.00030136 -0.02236929
v 0.00216484 -0.01240951 -0.02242049
v 0.00252980 -0.01157340 -0.02245472
v 0.00972892 -0.01240951 -0.02238945
f 1 2 3
f 1 3 7
f 1 7 24
f 1 24 33
f 1 33 45
f 1 45 40
f 1 40 39
f 1 39 30
f 1 30 27
f 1 27 20
f 1 20 4
f 1 4 21
f 1 21 29
f 1 29 42
f 1 42 54
f 1 54 59
f 1 59 57
f 1 57 55
f 1 55 43
f 1 43 31
f 1 31 22
f 1 22 5
f 1 5 2
f 2 6 23
f 2 23 25
f 2 25 36
f 2 36 49
f 2 49 60
f 2 60 62
f 2 62 50
f 2 50 46
f 2 46 34
f 2 34 24
f 2 24 7
f 2 7 3
f 2 5 8
f 2 8 9
f 2 9 10
f 2 10 11
f 2 11 12
f 2 12 13
f 2 13 14
f 2 14 15
f 2 15 16
f 2 16 17
f 2 17 18
f 2 18 19
f 2 19 6
f 4 20 21
f 5 22 26
f 5 26 19
f 5 19 18
f 5 18 17
f 5 17 16
f 5 16 15
f 5 15 14
f 5 14 13
f 5 13 12
f 5 12 11
f 5 11 10
f 5 10 9
f 5 9 8
f 6 19 23
f 19 25 23
f 19 26 32
f 19 32 44
f 19 44 56
f 19 56 58
f 19 58 47
f 19 47 36
f 19 36 25
f 20 27 21
f 21 28 29
f 21 27 30
f 21 30 28
f 22 31 32
f 22 32 26
f 24 34 35
f 24 35 33
f 28 37 38
f 28 38 29
f 28 30 39
f 28 39 40
f 28 40 41
f 28 41 37
f 29 38 42
f 31 43 32
f 32 43 44
f 33 35 45
f 34 46 35
f 35 41 40
f 35 40 45
f 35 46 37
f 35 37 41
f 36 47 48
f 36 48 49
f 37 46 50
f 37 50 51
f 37 51 38
f 38 51 52
f 38 52 53
f 38 53 42
f 42 53 54
f 43 55 44
f 44 55 57
f 44 57 56
f 47 58 57
f 47 57 59
f 47 59 54
f 47 54 48
f 48 60 49
f 48 54 53
f 48 53 61
f 48 61 62
f 48 62 60
f 50 62 53
f 50 53 52
f 50 52 51
f 53 62 61
f 56 57 58

