# https://github.com/mikedh/trimesh
v -0.03506599 -0.03036380 -0.01998737
v -0.03506599 -0.03033453 -0.02001058
v -0.03063638 -0.02790172 -0.02358694
v -0.02987224 -0.02803145 -0.02374541
v -0.03467149 -0.03045744 -0.01998737
v -0.03506599 -0.02410519 -0.01998737
v -0.03506599 -0.02956489 -0.02039875
v -0.03426755 -0.02914641 -0.02122752
v -0.03312777 -0.02795342 -0.02240443
v -0.03104975 -0.02715060 -0.02375982
v -0.02987224 -0.02717402 -0.02407516
v -0.02867243 -0.02807340 -0.02381024
v -0.03313892 -0.03060279 -0.01998737
v -0.03347168 -0.03057645 -0.01998737
v -0.03474867 -0.02068910 -0.01998737
v -0.03506599 -0.02474997 -0.02024269
v -0.03506599 -0.02837384 -0.02070329
v -0.03439876 -0.02837384 -0.02141640
v -0.03199828 -0.02597419 -0.02373981
v -0.03180961 -0.02673505 -0.02359935
v -0.02867243 -0.02717402 -0.02405755
v -0.03207804 -0.02477534 -0.02382425
v -0.03107120 -0.02357551 -0.02400033
v -0.02867243 -0.02237471 -0.02401793
v -0.02747262 -0.02797683 -0.02369419
v -0.02630540 -0.03047013 -0.01998737
v -0.03227187 -0.03065449 -0.01998737
v -0.02630540 -0.02068910 -0.01998737
v -0.03378471 -0.02068910 -0.02142080
v -0.03360203 -0.02068910 -0.02167531
v -0.03506599 -0.02717402 -0.02059964
v -0.03438761 -0.02717402 -0.02147042
v -0.03382159 -0.02717402 -0.02207028
v -0.02747262 -0.02717402 -0.02390429
v -0.02630540 -0.02722669 -0.02374581
v -0.02630540 -0.02354234 -0.02397792
v -0.03267752 -0.02477534 -0.02323919
v -0.03303258 -0.02068910 -0.02240203
v -0.03193482 -0.02357551 -0.02374341
v -0.03104975 -0.02236690 -0.02372501
v -0.02987224 -0.02237471 -0.02399832
v -0.02747262 -0.02237471 -0.02393470
v -0.02867243 -0.02142655 -0.02376382
v -0.02630540 -0.02729888 -0.02372100
v -0.02665445 -0.02786075 -0.02356894
v -0.02630540 -0.02812607 -0.02300029
v -0.02630540 -0.02068910 -0.02304111
v -0.03326756 -0.02068910 -0.02211670
v -0.02630540 -0.02243128 -0.02376382
v -0.03257460 -0.02068910 -0.02261412
v -0.03177787 -0.02276099 -0.02359575
v -0.03157977 -0.02068910 -0.02290985
v -0.02987224 -0.02152995 -0.02366098
v -0.02747262 -0.02149093 -0.02369299
v -0.02630712 -0.02236593 -0.02375142
v -0.03017413 -0.02068910 -0.02311674
v -0.02987224 -0.02068910 -0.02314795
v -0.02886625 -0.02068910 -0.02321318
v -0.02867243 -0.02068910 -0.02321838
v -0.02747262 -0.02068910 -0.02319638
v -0.02630540 -0.02236398 -0.02374941
v -0.02672992 -0.02163042 -0.02356534
f 1 2 3
f 1 3 4
f 1 4 5
f 1 5 14
f 1 14 13
f 1 13 27
f 1 27 26
f 1 26 28
f 1 28 15
f 1 15 6
f 1 6 16
f 1 16 31
f 1 31 17
f 1 17 7
f 1 7 2
f 2 7 8
f 2 8 3
f 3 8 9
f 3 9 10
f 3 10 11
f 3 11 4
f 4 11 12
f 4 12 13
f 4 13 14
f 4 14 5
f 6 15 16
f 7 17 18
f 7 18 8
f 8 18 9
f 9 19 20
f 9 20 10
f 9 18 19
f 10 20 19
f 10 19 11
f 11 21 12
f 11 19 22
f 11 22 23
f 11 23 24
f 11 24 21
f 12 21 25
f 12 25 26
f 12 26 27
f 12 27 13
f 15 28 47
f 15 47 60
f 15 60 59
f 15 59 58
f 15 58 57
f 15 57 56
f 15 56 52
f 15 52 50
f 15 50 38
f 15 38 48
f 15 48 30
f 15 30 29
f 15 29 16
f 16 29 30
f 16 30 31
f 17 31 32
f 17 32 18
f 18 32 33
f 18 33 19
f 19 33 22
f 21 34 35
f 21 35 25
f 21 24 36
f 21 36 34
f 22 37 38
f 22 38 39
f 22 39 23
f 22 33 37
f 23 39 40
f 23 40 41
f 23 41 24
f 24 42 36
f 24 41 43
f 24 43 42
f 25 35 44
f 25 44 45
f 25 45 26
f 26 45 46
f 26 46 44
f 26 44 35
f 26 35 36
f 26 36 49
f 26 49 61
f 26 61 47
f 26 47 28
f 30 48 31
f 31 48 32
f 32 48 38
f 32 38 37
f 32 37 33
f 34 36 35
f 36 42 49
f 38 50 51
f 38 51 39
f 39 51 40
f 40 50 52
f 40 52 53
f 40 53 41
f 40 51 50
f 41 53 43
f 42 43 54
f 42 54 55
f 42 55 49
f 43 53 56
f 43 56 57
f 43 57 58
f 43 58 59
f 43 59 60
f 43 60 54
f 44 46 45
f 47 61 55
f 47 55 62
f 47 62 54
f 47 54 60
f 49 55 61
f 52 56 53
f 54 62 55

