# https://github.com/mikedh/trimesh
v 0.05877745 -0.01377636 -0.01354632
v 0.05955430 -0.01824086 -0.01504532
v 0.05955430 -0.01811673 -0.01504532
v 0.05974413 -0.01899081 -0.01652708
v 0.05877745 -0.01377636 -0.01419903
v 0.05790647 -0.01377636 -0.01323416
v 0.05877266 -0.01397600 -0.01354835
v 0.05972978 -0.02434180 -0.01576289
v 0.05980316 -0.02357323 -0.01587133
v 0.05982389 -0.02237229 -0.01597775
v 0.05980316 -0.01997350 -0.01599498
v 0.05980316 -0.01997350 -0.01675309
v 0.05743111 -0.01377636 -0.01911662
v 0.05772622 -0.01377636 -0.01317132
v 0.05772622 -0.01397600 -0.01317639
v 0.05772622 -0.01517591 -0.01323213
v 0.05872002 -0.01517591 -0.01358889
v 0.05899280 -0.02434180 -0.01523079
v 0.05972978 -0.02434180 -0.01603350
v 0.05980316 -0.02357323 -0.01659803
v 0.05982389 -0.02237229 -0.01671762
v 0.05977922 -0.02117341 -0.01680884
v 0.05947774 -0.02117341 -0.01740884
v 0.05729871 -0.01377636 -0.01921594
v 0.05365210 -0.01877669 -0.02240751
v 0.05672603 -0.01377636 -0.01315308
v 0.05652663 -0.01397600 -0.01315612
v 0.05652663 -0.01517591 -0.01319666
v 0.05568597 -0.02434180 -0.01364970
v 0.05627300 -0.02434180 -0.01369633
v 0.05648835 -0.02434180 -0.01380173
v 0.05687279 -0.02434180 -0.01401964
v 0.05970744 -0.02434180 -0.01647438
v 0.05936129 -0.02237229 -0.01731762
v 0.05876150 -0.02237229 -0.01783452
v 0.05362499 -0.01954939 -0.02237204
v 0.05359627 -0.01792330 -0.02235380
v 0.05301084 -0.01754367 -0.02272677
v 0.05649314 -0.01377636 -0.01972068
v 0.05292789 -0.01877669 -0.02292441
v 0.05652663 -0.01377636 -0.01315713
v 0.04352744 -0.01518626 -0.01349261
v 0.05541319 -0.02434180 -0.01364970
v 0.04352744 -0.02100894 -0.01369430
v 0.05715354 -0.02434180 -0.01871425
v 0.05658725 -0.02434180 -0.01920378
v 0.05727957 -0.02357323 -0.01880040
v 0.05802452 -0.02237229 -0.01843047
v 0.05295501 -0.01995901 -0.02265785
v 0.05172990 -0.01759332 -0.02336022
v 0.05266468 -0.01673787 -0.02259197
v 0.05629533 -0.01377636 -0.01979061
v 0.05172990 -0.01883668 -0.02338049
v 0.04352744 -0.01377636 -0.01351187
v 0.04352744 -0.02113824 -0.01370747
v 0.04352744 -0.02169992 -0.01387876
v 0.04352744 -0.02327326 -0.01482538
v 0.04352744 -0.02434180 -0.01572640
v 0.05532705 -0.02434180 -0.01959095
v 0.05131834 -0.02186439 -0.02234670
v 0.05172192 -0.02122616 -0.02259299
v 0.05257216 -0.02086309 -0.02248353
v 0.05172831 -0.01997350 -0.02313421
v 0.05133270 -0.01800295 -0.02350718
v 0.05086531 -0.01800295 -0.02350718
v 0.05059094 -0.01759332 -0.02334198
v 0.04932914 -0.01641720 -0.02272981
v 0.05059094 -0.01653306 -0.02279670
v 0.05172831 -0.01657340 -0.02276427
v 0.05623950 -0.01377636 -0.01979061
v 0.05052872 -0.01647720 -0.02276630
v 0.04932914 -0.01581621 -0.02207508
v 0.05133270 -0.01847878 -0.02350718
v 0.04352744 -0.01377636 -0.01937507
v 0.04352744 -0.02434180 -0.01930513
v 0.05052872 -0.02199680 -0.02246832
v 0.04932914 -0.02206817 -0.02253724
v 0.05052872 -0.02117341 -0.02279468
v 0.05086531 -0.01847878 -0.02350718
v 0.04812796 -0.01757574 -0.02292441
v 0.04932914 -0.01757677 -0.02316258
v 0.05059094 -0.01770297 -0.02338454
v 0.05049044 -0.01759332 -0.02333792
v 0.04812796 -0.01663029 -0.02256461
v 0.04910263 -0.01377636 -0.01964162
v 0.04744522 -0.01689407 -0.02237204
v 0.04720754 -0.01757574 -0.02251596
v 0.04627595 -0.01913356 -0.02233859
v 0.04352744 -0.01777538 -0.01944297
v 0.04352744 -0.02357323 -0.01945716
v 0.04632062 -0.02058587 -0.02228285
v 0.04837043 -0.02195852 -0.02243792
v 0.04932914 -0.02117341 -0.02273893
v 0.04692838 -0.01997350 -0.02248758
v 0.04812796 -0.01877565 -0.02288083
v 0.04628393 -0.01997350 -0.02232947
v 0.04684224 -0.01875186 -0.02252407
v 0.04352744 -0.02237332 -0.01950176
f 1 2 3
f 1 3 4
f 1 4 5
f 1 5 13
f 1 13 24
f 1 24 39
f 1 39 52
f 1 52 70
f 1 70 85
f 1 85 74
f 1 74 54
f 1 54 41
f 1 41 26
f 1 26 14
f 1 14 6
f 1 6 7
f 1 7 2
f 2 7 8
f 2 8 9
f 2 9 3
f 3 9 10
f 3 10 11
f 3 11 4
f 4 11 12
f 4 12 13
f 4 13 5
f 6 14 15
f 6 15 7
f 7 15 16
f 7 16 17
f 7 17 8
f 8 18 32
f 8 32 31
f 8 31 30
f 8 30 29
f 8 29 43
f 8 43 58
f 8 58 75
f 8 75 59
f 8 59 46
f 8 46 45
f 8 45 33
f 8 33 19
f 8 19 20
f 8 20 9
f 8 17 18
f 9 20 21
f 9 21 10
f 10 21 12
f 10 12 11
f 12 21 22
f 12 22 23
f 12 23 13
f 13 23 25
f 13 25 24
f 14 26 15
f 15 26 27
f 15 27 28
f 15 28 16
f 16 28 29
f 16 29 30
f 16 30 17
f 17 30 31
f 17 31 32
f 17 32 18
f 19 33 20
f 20 33 34
f 20 34 23
f 20 23 21
f 21 23 22
f 23 34 35
f 23 35 36
f 23 36 25
f 24 25 37
f 24 37 38
f 24 38 39
f 25 36 40
f 25 40 37
f 26 41 27
f 27 41 42
f 27 42 28
f 28 43 29
f 28 42 44
f 28 44 43
f 33 45 34
f 34 45 46
f 34 46 35
f 35 46 47
f 35 47 48
f 35 48 36
f 36 49 40
f 36 48 47
f 36 47 46
f 36 46 49
f 37 40 38
f 38 40 50
f 38 50 39
f 39 50 51
f 39 51 52
f 40 49 53
f 40 53 50
f 41 54 42
f 42 54 74
f 42 74 89
f 42 89 98
f 42 98 90
f 42 90 75
f 42 75 58
f 42 58 57
f 42 57 56
f 42 56 55
f 42 55 44
f 43 44 55
f 43 55 56
f 43 56 57
f 43 57 58
f 46 59 60
f 46 60 61
f 46 61 62
f 46 62 49
f 49 62 63
f 49 63 53
f 50 53 64
f 50 64 65
f 50 65 66
f 50 66 67
f 50 67 68
f 50 68 69
f 50 69 51
f 51 69 52
f 52 69 71
f 52 71 67
f 52 67 72
f 52 72 70
f 53 63 73
f 53 73 64
f 59 76 60
f 59 75 77
f 59 77 76
f 60 76 61
f 61 76 63
f 61 63 62
f 63 76 78
f 63 78 77
f 63 77 79
f 63 79 73
f 64 73 79
f 64 79 65
f 65 79 80
f 65 80 81
f 65 81 82
f 65 82 66
f 66 82 83
f 66 83 67
f 67 71 68
f 67 83 81
f 67 81 80
f 67 80 84
f 67 84 74
f 67 74 72
f 68 71 69
f 70 72 85
f 72 74 85
f 74 86 87
f 74 87 88
f 74 88 89
f 74 84 86
f 75 90 91
f 75 91 92
f 75 92 77
f 76 77 78
f 77 92 93
f 77 93 79
f 79 93 92
f 79 92 91
f 79 91 94
f 79 94 95
f 79 95 80
f 80 95 96
f 80 96 97
f 80 97 88
f 80 88 87
f 80 87 86
f 80 86 84
f 81 83 82
f 88 97 96
f 88 96 98
f 88 98 89
f 90 98 96
f 90 96 91
f 91 96 94
f 94 96 95

