# https://github.com/mikedh/trimesh
v -0.03087960 -0.03365159 -0.01492440
v -0.03621829 -0.03429164 -0.01411587
v -0.03595862 -0.03445821 -0.01411587
v -0.03578373 -0.03460010 -0.01411587
v -0.03529936 -0.03501035 -0.01411587
v -0.03087960 -0.03990095 -0.01411587
v -0.03087960 -0.03365159 -0.01927780
v -0.03765126 -0.03365159 -0.01411587
v -0.03707150 -0.03390607 -0.01411587
v -0.03087960 -0.04152961 -0.01411587
v -0.03087960 -0.03917453 -0.01966835
v -0.03587276 -0.03677473 -0.02034040
v -0.03575935 -0.03545916 -0.02014421
v -0.03715418 -0.03437570 -0.02002844
v -0.03760993 -0.03374027 -0.01989562
v -0.03752408 -0.03365159 -0.01981336
v -0.04091574 -0.03365159 -0.01411587
v -0.03087960 -0.04152961 -0.01933933
v -0.03805509 -0.04152961 -0.01411587
v -0.03087960 -0.04056645 -0.01947582
v -0.03500471 -0.04037444 -0.02000346
v -0.03479697 -0.03917453 -0.02012959
v -0.03587276 -0.03917453 -0.02023378
v -0.04067196 -0.04152961 -0.02015944
v -0.04170748 -0.04152961 -0.02011192
v -0.03827131 -0.03557483 -0.02014543
v -0.03827131 -0.03437492 -0.02008998
v -0.03827131 -0.03373333 -0.01990171
v -0.03827343 -0.03365159 -0.01981824
v -0.04170748 -0.03365159 -0.01544413
v -0.04170748 -0.03675159 -0.01424504
v -0.04170748 -0.03804095 -0.01412562
v -0.03474715 -0.04152961 -0.01971466
v -0.03519761 -0.04108928 -0.01989866
v -0.04170748 -0.03887533 -0.01474344
v -0.04170748 -0.04152961 -0.01894817
v -0.03592364 -0.04152961 -0.01981641
v -0.04170748 -0.04037444 -0.02004489
v -0.04030312 -0.03480445 -0.01994497
v -0.03938526 -0.03439266 -0.02000407
v -0.03892844 -0.03375415 -0.01988953
v -0.03901641 -0.03365159 -0.01977559
v -0.04170748 -0.03365159 -0.01942951
v -0.04170748 -0.03558485 -0.01962327
v -0.04140859 -0.03365159 -0.01948130
f 1 2 3
f 1 3 4
f 1 4 5
f 1 5 6
f 1 6 10
f 1 10 18
f 1 18 20
f 1 20 11
f 1 11 7
f 1 7 16
f 1 16 29
f 1 29 42
f 1 42 45
f 1 45 43
f 1 43 30
f 1 30 17
f 1 17 8
f 1 8 9
f 1 9 2
f 2 9 8
f 2 8 17
f 2 17 19
f 2 19 10
f 2 10 6
f 2 6 5
f 2 5 4
f 2 4 3
f 7 11 12
f 7 12 13
f 7 13 14
f 7 14 15
f 7 15 16
f 10 19 36
f 10 36 25
f 10 25 24
f 10 24 37
f 10 37 33
f 10 33 18
f 11 20 21
f 11 21 22
f 11 22 12
f 12 22 23
f 12 23 24
f 12 24 25
f 12 25 26
f 12 26 27
f 12 27 13
f 13 27 14
f 14 27 15
f 15 27 28
f 15 28 16
f 16 28 29
f 17 30 31
f 17 31 32
f 17 32 19
f 18 33 34
f 18 34 21
f 18 21 20
f 19 32 35
f 19 35 36
f 21 34 24
f 21 24 23
f 21 23 22
f 24 34 37
f 25 36 35
f 25 35 32
f 25 32 31
f 25 31 30
f 25 30 43
f 25 43 44
f 25 44 38
f 25 38 39
f 25 39 40
f 25 40 26
f 26 40 27
f 27 40 41
f 27 41 28
f 28 41 29
f 29 41 42
f 33 37 34
f 38 44 39
f 39 44 43
f 39 43 45
f 39 45 40
f 40 45 41
f 41 45 42

