# https://github.com/mikedh/trimesh
v 0.02382639 -0.02957447 -0.01087546
v 0.02384340 -0.02957447 -0.00988668
v 0.02392675 -0.02858676 -0.00988668
v 0.02394547 -0.02837496 -0.00988668
v 0.02393441 -0.02837496 -0.01087546
v 0.02386806 -0.02957447 -0.01207514
v 0.02392420 -0.03077399 -0.01207514
v 0.02386806 -0.02978528 -0.00988668
v 0.02432313 -0.02717544 -0.00988668
v 0.02428741 -0.02717544 -0.01087546
v 0.02424403 -0.02717841 -0.01567817
v 0.02397779 -0.02837496 -0.01207514
v 0.02408326 -0.02837496 -0.01447508
v 0.02421681 -0.02837694 -0.01567817
v 0.02431888 -0.03088385 -0.01338482
v 0.02544252 -0.03424090 -0.01291141
v 0.02463530 -0.03424090 -0.00988668
v 0.02396333 -0.03077399 -0.01087546
v 0.02399991 -0.03077399 -0.00988668
v 0.02461914 -0.02665783 -0.00988668
v 0.02455705 -0.02635004 -0.01567817
v 0.02455449 -0.02945373 -0.01567817
v 0.02565516 -0.03275438 -0.01403569
v 0.02708842 -0.03147272 -0.01567817
v 0.02756135 -0.03165977 -0.01567817
v 0.03251521 -0.03424090 -0.01443142
v 0.03187982 -0.03424090 -0.00988668
v 0.02468719 -0.02654402 -0.00988668
v 0.02456130 -0.02634410 -0.01567817
v 0.02762684 -0.03167066 -0.01567817
v 0.03251521 -0.03424090 -0.01155865
v 0.02767788 -0.03167660 -0.01567817
v 0.02892060 -0.03167264 -0.01567817
v 0.03120360 -0.03071461 -0.01567817
v 0.03159317 -0.02984763 -0.01567817
v 0.03169609 -0.02955666 -0.01567817
v 0.03211714 -0.02957447 -0.01535160
v 0.03246163 -0.02957447 -0.01447508
v 0.03251521 -0.02957447 -0.01415418
v 0.03210267 -0.03409542 -0.00988668
v 0.02578190 -0.02542566 -0.00988668
v 0.02504359 -0.02574632 -0.01567817
v 0.03251521 -0.03380148 -0.00988668
v 0.03225238 -0.03398952 -0.00988668
v 0.03209417 -0.02864911 -0.01528583
v 0.02994642 -0.02469526 -0.01567817
v 0.03251521 -0.02717544 -0.01340353
v 0.02588738 -0.02532075 -0.00988668
v 0.02564070 -0.02515745 -0.01567817
v 0.03251521 -0.02603234 -0.00988668
v 0.03198529 -0.02652620 -0.01390812
v 0.03251521 -0.02708835 -0.01335874
v 0.02992941 -0.02465765 -0.01567817
v 0.02599881 -0.02525444 -0.00988668
v 0.02652873 -0.02494664 -0.00988668
v 0.02652873 -0.02479126 -0.01567477
v 0.02652873 -0.02479126 -0.01567817
v 0.03251521 -0.02622731 -0.01216473
v 0.03233063 -0.02589280 -0.01217323
v 0.03193511 -0.02537023 -0.01268349
v 0.03193511 -0.02537023 -0.01263813
v 0.03140689 -0.02515349 -0.01217323
v 0.03098074 -0.02520990 -0.01087546
v 0.02793986 -0.02468239 -0.00988668
v 0.03251521 -0.02695474 -0.01325215
v 0.03218774 -0.02606599 -0.01315974
v 0.02925658 -0.02416874 -0.01567817
v 0.02673967 -0.02489122 -0.00988668
v 0.02779952 -0.02439934 -0.01567817
v 0.02688513 -0.02468041 -0.01567817
v 0.03251521 -0.02648760 -0.01275720
v 0.03012759 -0.02476949 -0.01207514
v 0.03012759 -0.02499217 -0.01087546
v 0.02772806 -0.02465468 -0.00988668
v 0.02892740 -0.02413113 -0.01567817
f 1 2 3
f 1 3 4
f 1 4 5
f 1 5 6
f 1 6 7
f 1 7 2
f 2 7 8
f 2 8 19
f 2 19 17
f 2 17 27
f 2 27 40
f 2 40 44
f 2 44 43
f 2 43 50
f 2 50 64
f 2 64 74
f 2 74 68
f 2 68 55
f 2 55 54
f 2 54 48
f 2 48 41
f 2 41 28
f 2 28 20
f 2 20 9
f 2 9 4
f 2 4 3
f 4 9 10
f 4 10 5
f 5 10 11
f 5 11 12
f 5 12 6
f 6 12 11
f 6 11 13
f 6 13 14
f 6 14 7
f 7 15 16
f 7 16 17
f 7 17 18
f 7 18 8
f 7 14 15
f 8 18 19
f 9 20 21
f 9 21 10
f 10 21 11
f 11 14 13
f 11 21 29
f 11 29 42
f 11 42 49
f 11 49 57
f 11 57 70
f 11 70 69
f 11 69 75
f 11 75 67
f 11 67 53
f 11 53 46
f 11 46 36
f 11 36 35
f 11 35 34
f 11 34 33
f 11 33 32
f 11 32 30
f 11 30 25
f 11 25 24
f 11 24 22
f 11 22 14
f 14 22 15
f 15 22 16
f 16 23 24
f 16 24 25
f 16 25 26
f 16 26 31
f 16 31 27
f 16 27 17
f 16 22 23
f 17 19 18
f 20 28 21
f 21 28 29
f 22 24 23
f 25 30 26
f 26 30 32
f 26 32 33
f 26 33 34
f 26 34 35
f 26 35 36
f 26 36 37
f 26 37 38
f 26 38 39
f 26 39 47
f 26 47 52
f 26 52 65
f 26 65 71
f 26 71 58
f 26 58 50
f 26 50 43
f 26 43 31
f 27 31 40
f 28 41 42
f 28 42 29
f 31 43 44
f 31 44 40
f 36 45 37
f 36 46 45
f 37 45 38
f 38 45 47
f 38 47 39
f 41 48 42
f 42 48 49
f 45 51 52
f 45 52 47
f 45 46 53
f 45 53 51
f 48 54 49
f 49 54 55
f 49 55 56
f 49 56 57
f 50 58 59
f 50 59 60
f 50 60 61
f 50 61 62
f 50 62 63
f 50 63 64
f 51 65 52
f 51 53 66
f 51 66 65
f 53 67 60
f 53 60 66
f 55 68 69
f 55 69 70
f 55 70 56
f 56 70 57
f 58 71 60
f 58 60 59
f 60 71 66
f 60 67 61
f 61 67 62
f 62 67 72
f 62 72 63
f 63 72 73
f 63 73 64
f 64 73 72
f 64 72 67
f 64 67 74
f 65 66 71
f 67 75 74
f 68 74 69
f 69 74 75

