# https://github.com/mikedh/trimesh
v -0.03147188 0.04176134 -0.01322809
v -0.03147188 0.04112545 -0.00988701
v -0.03147188 0.03426059 -0.01322809
v -0.03222748 0.04132958 -0.01322809
v -0.03230084 0.04128258 -0.01322809
v -0.03173207 0.04093674 -0.00988701
v -0.03147188 0.03426059 -0.00988701
v -0.03919876 0.03426059 -0.01322809
v -0.03186367 0.04083100 -0.00988701
v -0.03352689 0.04015252 -0.01322809
v -0.03814138 0.03426059 -0.00988701
v -0.03777606 0.03472173 -0.00988701
f 1 2 7
f 1 7 3
f 1 3 8
f 1 8 10
f 1 10 5
f 1 5 4
f 1 4 2
f 2 4 5
f 2 5 6
f 2 6 9
f 2 9 12
f 2 12 11
f 2 11 7
f 3 7 11
f 3 11 8
f 5 9 6
f 5 10 9
f 8 11 12
f 8 12 10
f 9 10 12

