# https://github.com/mikedh/trimesh
v 0.00071676 -0.02667396 0.02609833
v 0.01332701 -0.02685578 0.02609833
v 0.00252834 -0.02645472 0.02878766
v 0.00129658 -0.02638787 0.02878766
v 0.00071676 -0.02634509 0.02878766
v 0.00071676 -0.00385072 0.02609833
v 0.01360490 -0.02683439 0.02609833
v 0.01004052 -0.02652691 0.02878766
v 0.00972790 -0.02653493 0.02878766
v 0.00071676 0.00045938 0.02878766
v 0.00071676 0.00045938 0.02776668
v 0.00132864 -0.00375714 0.02609833
v 0.01435972 -0.02597344 0.02609833
v 0.01071385 -0.02610445 0.02878766
v 0.00615685 0.00045938 0.02878766
v 0.00132864 0.00045938 0.02778959
v 0.00972790 -0.00363950 0.02609833
v 0.00959564 -0.00363950 0.02609833
v 0.01129901 -0.02491195 0.02878766
v 0.01074458 -0.02605900 0.02878766
v 0.01436507 -0.01592544 0.02609833
v 0.01436507 -0.01483454 0.02878766
v 0.00633186 0.00039521 0.02878766
v 0.01027832 -0.00374645 0.02609833
v 0.00489702 0.00045938 0.02839170
v 0.00250162 0.00045938 0.02794992
v 0.01436507 -0.01413669 0.02609833
v 0.01436507 -0.01179447 0.02878766
v 0.00731380 0.00000484 0.02878766
v 0.00372805 0.00045938 0.02813395
v 0.01071519 -0.00409938 0.02609833
v 0.01159693 -0.00557530 0.02609833
v 0.01144997 -0.00519028 0.02609833
v 0.01147803 -0.00558065 0.02878766
v 0.00812741 -0.00075183 0.02878766
v 0.01095967 -0.00439082 0.02609833
v 0.01110529 -0.00459403 0.02609833
f 1 2 3
f 1 3 4
f 1 4 5
f 1 5 10
f 1 10 11
f 1 11 6
f 1 6 12
f 1 12 18
f 1 18 17
f 1 17 24
f 1 24 31
f 1 31 36
f 1 36 37
f 1 37 33
f 1 33 32
f 1 32 27
f 1 27 21
f 1 21 13
f 1 13 7
f 1 7 2
f 2 7 8
f 2 8 9
f 2 9 3
f 3 9 8
f 3 8 14
f 3 14 20
f 3 20 19
f 3 19 22
f 3 22 28
f 3 28 34
f 3 34 35
f 3 35 29
f 3 29 23
f 3 23 15
f 3 15 10
f 3 10 5
f 3 5 4
f 6 11 12
f 7 13 14
f 7 14 8
f 10 15 25
f 10 25 30
f 10 30 26
f 10 26 16
f 10 16 11
f 11 16 17
f 11 17 18
f 11 18 12
f 13 19 20
f 13 20 14
f 13 21 22
f 13 22 19
f 15 23 24
f 15 24 25
f 16 26 24
f 16 24 17
f 21 27 28
f 21 28 22
f 23 29 24
f 24 26 30
f 24 30 25
f 24 29 31
f 27 32 28
f 28 32 33
f 28 33 34
f 29 35 31
f 31 35 36
f 33 37 34
f 34 37 35
f 35 37 36

