# https://github.com/mikedh/trimesh
v 0.00012841 0.01160375 -0.01979466
v 0.00132807 0.01150528 -0.01807505
v 0.00132807 0.01148205 -0.01979466
v -0.00107125 0.01158162 -0.01979466
v -0.00181353 0.01148426 -0.01688624
v 0.00132807 0.01125857 -0.01687544
v 0.00460688 0.01066668 -0.01621156
v 0.00194358 0.01141899 -0.01979466
v -0.00181353 0.01153405 -0.01979466
v -0.00181353 0.01097535 -0.01600286
v -0.00107125 0.01096428 -0.01596653
v 0.00012841 0.01093441 -0.01598027
v 0.00372869 0.01072974 -0.01614330
v 0.00460688 0.01066668 -0.01657394
v 0.00497409 0.01013121 -0.01585408
v 0.00612671 0.00979930 -0.01586390
v 0.00691080 0.00954595 -0.01605049
v 0.00252903 0.01125304 -0.01979466
v -0.00181353 0.00989998 -0.01979466
v -0.00181353 0.01002500 -0.01564490
v -0.00107125 0.01002500 -0.01560365
v 0.00012841 0.01002500 -0.01559432
v 0.00372869 0.01002500 -0.01567092
v 0.00691080 0.00954595 -0.01646493
v 0.00497409 0.01045758 -0.01693485
v 0.00348954 0.01092888 -0.01979466
v 0.00305176 0.01110479 -0.01979466
v 0.00676705 0.00830242 -0.01505614
v 0.00723881 0.00868854 -0.01574556
v 0.00794710 0.00827366 -0.01624053
v -0.00181353 0.00538943 -0.01546125
v 0.00967472 0.00030136 -0.01979466
v -0.00181353 0.00677678 -0.01493191
v 0.00052437 0.00827587 -0.01506154
v 0.00132807 0.00832676 -0.01504829
v 0.00794710 0.00827366 -0.01631860
v 0.00825421 0.00735871 -0.01979466
v 0.00745835 0.00821834 -0.01979466
v 0.00709506 0.00858565 -0.01979466
v 0.00607966 0.00940213 -0.01979466
v 0.00571114 0.00967429 -0.01979466
v 0.00532432 0.00990109 -0.01979466
v 0.00676705 0.00816634 -0.01505614
v 0.01075938 0.00030136 -0.01595278
v 0.01075154 0.00042638 -0.01595425
v 0.00912193 0.00581094 -0.01628227
v 0.00132807 0.00762534 -0.01494713
v 0.00132807 0.00642496 -0.01478018
v 0.00492705 0.00162565 -0.01488280
v 0.01153694 0.00225405 -0.01865693
v 0.01095540 0.00337367 -0.01979466
v 0.00497278 0.00030136 -0.01573181
v 0.00427233 0.00075053 -0.01520051
v -0.00181353 0.00538943 -0.01489950
v 0.00552426 0.00030136 -0.01627294
v 0.01120631 0.00030136 -0.01979466
v -0.00181353 0.00642496 -0.01486218
v 0.00012841 0.00642496 -0.01477871
v 0.00856523 0.00691728 -0.01979466
v 0.00583659 0.00030136 -0.01499574
v 0.01064569 0.00030136 -0.01592921
v 0.01118148 0.00030136 -0.01687249
v 0.01115665 0.00042638 -0.01687544
v 0.01053722 0.00132141 -0.01606965
v 0.00487347 0.00030136 -0.01497856
v 0.00572813 0.00030136 -0.01499083
v 0.01153694 0.00217108 -0.01865693
v 0.01153694 0.00225405 -0.01869817
v 0.01111483 0.00278510 -0.01979466
v 0.00487347 0.00030136 -0.01503061
v 0.00427233 0.00075053 -0.01502373
v -0.00181353 0.00576337 -0.01488231
v 0.01126381 0.00165995 -0.01979466
v 0.01153694 0.00217108 -0.01869817
v 0.01117887 0.00238460 -0.01979466
f 1 2 3
f 1 3 8
f 1 8 18
f 1 18 27
f 1 27 26
f 1 26 42
f 1 42 41
f 1 41 40
f 1 40 39
f 1 39 38
f 1 38 37
f 1 37 59
f 1 59 51
f 1 51 69
f 1 69 75
f 1 75 73
f 1 73 56
f 1 56 32
f 1 32 19
f 1 19 9
f 1 9 4
f 1 4 5
f 1 5 2
f 2 5 6
f 2 6 7
f 2 7 8
f 2 8 3
f 4 9 5
f 5 9 19
f 5 19 31
f 5 31 54
f 5 54 72
f 5 72 57
f 5 57 33
f 5 33 20
f 5 20 10
f 5 10 11
f 5 11 12
f 5 12 6
f 6 12 13
f 6 13 7
f 7 14 8
f 7 13 15
f 7 15 16
f 7 16 17
f 7 17 24
f 7 24 14
f 8 14 18
f 10 20 21
f 10 21 11
f 11 21 22
f 11 22 23
f 11 23 12
f 12 23 13
f 13 23 15
f 14 24 25
f 14 25 26
f 14 26 27
f 14 27 18
f 15 23 28
f 15 28 16
f 16 28 17
f 17 28 29
f 17 29 30
f 17 30 36
f 17 36 24
f 19 32 31
f 20 33 34
f 20 34 21
f 21 34 35
f 21 35 22
f 22 35 28
f 22 28 23
f 24 36 37
f 24 37 38
f 24 38 39
f 24 39 40
f 24 40 41
f 24 41 42
f 24 42 26
f 24 26 25
f 28 43 44
f 28 44 45
f 28 45 46
f 28 46 30
f 28 30 29
f 28 35 47
f 28 47 48
f 28 48 49
f 28 49 43
f 30 46 50
f 30 50 51
f 30 51 36
f 31 52 53
f 31 53 71
f 31 71 54
f 31 32 55
f 31 55 52
f 32 56 62
f 32 62 44
f 32 44 61
f 32 61 60
f 32 60 66
f 32 66 65
f 32 65 70
f 32 70 52
f 32 52 55
f 33 57 34
f 34 58 35
f 34 57 58
f 35 58 47
f 36 51 59
f 36 59 37
f 43 49 60
f 43 60 61
f 43 61 44
f 44 62 45
f 45 62 63
f 45 63 50
f 45 50 64
f 45 64 46
f 46 64 50
f 47 58 48
f 48 58 49
f 49 58 54
f 49 54 65
f 49 65 66
f 49 66 60
f 50 63 62
f 50 62 67
f 50 67 74
f 50 74 68
f 50 68 51
f 51 68 69
f 52 70 53
f 53 70 65
f 53 65 71
f 54 71 65
f 54 58 72
f 56 73 74
f 56 74 67
f 56 67 62
f 57 72 58
f 68 74 73
f 68 73 75
f 68 75 69

