# https://github.com/mikedh/trimesh
v -0.04612430 0.01527642 -0.01074891
v -0.04547199 0.01527642 -0.01100330
v -0.04387999 0.02012427 -0.01175239
v -0.04612430 0.01545041 -0.01075394
v -0.04612430 0.01527642 -0.01938511
v -0.04517143 0.01527642 -0.01113200
v -0.04387999 0.01721556 -0.01170514
v -0.04387999 0.02121471 -0.01179261
v -0.04612430 0.01657405 -0.01082332
v -0.04612430 0.01720626 -0.02042781
v -0.04387999 0.01527642 -0.01922322
v -0.04465578 0.01527642 -0.01135522
v -0.04387999 0.01543580 -0.01170413
v -0.04387999 0.02235429 -0.01195450
v -0.04612430 0.01896477 -0.01104654
v -0.04612430 0.01842553 -0.01098721
v -0.04612430 0.01777339 -0.01092387
v -0.04612430 0.01730853 -0.02048009
v -0.04387999 0.01527642 -0.01170413
v -0.04612430 0.01842553 -0.02102004
v -0.04387999 0.01563370 -0.01929763
v -0.04387999 0.02641852 -0.01263120
v -0.04612430 0.01966207 -0.01115010
v -0.04387999 0.02884377 -0.01948566
v -0.04387999 0.02883315 -0.01948566
v -0.04387999 0.02802429 -0.01948364
v -0.04387999 0.01842553 -0.01944543
v -0.04387999 0.01803372 -0.01943739
v -0.04387999 0.01722618 -0.01941326
v -0.04387999 0.01683437 -0.01939717
v -0.04612430 0.02884377 -0.01943136
v -0.04509146 0.02884377 -0.01945951
v -0.04387999 0.02647829 -0.01264728
v -0.04612430 0.02011232 -0.01123758
v -0.04387999 0.02884377 -0.01350397
v -0.04612430 0.02884377 -0.01673361
v -0.04473158 0.02606522 -0.01274582
v -0.04393162 0.02639461 -0.01263421
v -0.04612430 0.02072992 -0.01141756
v -0.04612430 0.02055460 -0.01136528
v -0.04399490 0.02884377 -0.01359547
v -0.04612430 0.02245921 -0.01235469
v -0.04612430 0.02159324 -0.01177351
f 1 2 3
f 1 3 4
f 1 4 9
f 1 9 17
f 1 17 16
f 1 16 15
f 1 15 23
f 1 23 34
f 1 34 40
f 1 40 39
f 1 39 43
f 1 43 42
f 1 42 36
f 1 36 31
f 1 31 20
f 1 20 18
f 1 18 10
f 1 10 5
f 1 5 11
f 1 11 19
f 1 19 12
f 1 12 6
f 1 6 2
f 2 6 7
f 2 7 3
f 3 7 13
f 3 13 19
f 3 19 11
f 3 11 21
f 3 21 30
f 3 30 29
f 3 29 28
f 3 28 27
f 3 27 26
f 3 26 25
f 3 25 24
f 3 24 35
f 3 35 33
f 3 33 22
f 3 22 14
f 3 14 8
f 3 8 4
f 4 8 9
f 5 10 11
f 6 12 7
f 7 12 13
f 8 14 15
f 8 15 16
f 8 16 17
f 8 17 9
f 10 18 11
f 11 18 20
f 11 20 21
f 12 19 13
f 14 22 23
f 14 23 15
f 20 24 25
f 20 25 26
f 20 26 27
f 20 27 28
f 20 28 29
f 20 29 30
f 20 30 21
f 20 31 32
f 20 32 24
f 22 33 34
f 22 34 23
f 24 32 31
f 24 31 36
f 24 36 41
f 24 41 35
f 33 37 38
f 33 38 39
f 33 39 40
f 33 40 34
f 33 35 37
f 35 41 37
f 36 37 41
f 36 42 37
f 37 42 43
f 37 43 39
f 37 39 38

