# https://github.com/mikedh/trimesh
v 0.00800474 0.02723827 0.02152476
v 0.00732706 0.02710203 0.02152476
v 0.00800474 0.02722441 0.02186858
v 0.00800474 0.02712699 0.02037339
v 0.00732706 0.02697609 0.01974883
v 0.00293174 0.02626123 0.01974883
v 0.00732706 0.02708817 0.02186858
v 0.00800474 0.02509408 0.02186858
v 0.00800474 0.02700025 0.01974883
v -0.00227619 0.02473922 0.01974883
v -0.00228223 0.02491942 0.02186858
v 0.00800474 0.02509329 0.02186173
v 0.00097423 0.02383544 0.02186858
v 0.00800474 0.02537725 0.01974883
v -0.00228223 0.02389446 0.01974883
v -0.00228223 0.02468180 0.02032504
v -0.00228223 0.02468457 0.02033562
v -0.00228223 0.02446476 0.02186858
v 0.00800474 0.02506121 0.02152476
v -0.00124810 0.02351425 0.02186858
v -0.00228223 0.02319227 0.01974883
v 0.00800474 0.02535111 0.01984822
v -0.00228223 0.02341326 0.02186422
v -0.00227116 0.02340930 0.02186858
f 1 2 7
f 1 7 3
f 1 3 8
f 1 8 12
f 1 12 19
f 1 19 22
f 1 22 14
f 1 14 9
f 1 9 4
f 1 4 5
f 1 5 6
f 1 6 2
f 2 6 7
f 3 7 11
f 3 11 18
f 3 18 24
f 3 24 20
f 3 20 13
f 3 13 8
f 4 9 5
f 5 9 14
f 5 14 21
f 5 21 15
f 5 15 10
f 5 10 6
f 6 10 11
f 6 11 7
f 8 13 12
f 10 15 16
f 10 16 17
f 10 17 11
f 11 17 16
f 11 16 15
f 11 15 21
f 11 21 23
f 11 23 18
f 12 13 19
f 13 20 21
f 13 21 19
f 14 22 21
f 18 23 24
f 19 21 22
f 20 24 21
f 21 24 23

