# https://github.com/mikedh/trimesh
v -0.03538602 0.03115189 -0.00988668
v -0.03416032 0.02249389 -0.00988537
v -0.03562652 0.02655288 -0.00988537
v -0.03600913 0.02783401 -0.00988537
v -0.03603099 0.02802369 -0.00988537
v -0.03602689 0.02900631 -0.00988537
v -0.03601050 0.02920636 -0.00988537
v -0.03574540 0.03021281 -0.00988537
v -0.03568118 0.03042426 -0.00988537
v -0.03699844 0.03292848 -0.00928678
v -0.03536553 0.03119957 -0.00988668
v -0.02494494 0.03115189 -0.00988668
v -0.03369299 0.02249907 -0.00988537
v -0.03417398 0.02246901 -0.00967318
v -0.03661584 0.02288051 0.00349449
v -0.03666913 0.02322567 0.00349449
v -0.03699844 0.03171679 -0.00719630
v -0.03699981 0.03142139 0.00058144
v -0.03699981 0.03293055 0.00058144
v -0.03415348 0.03292848 -0.00988668
v -0.03440354 0.03263722 -0.00988668
v -0.03450876 0.03250351 -0.00988668
v -0.03500342 0.03179868 -0.00988668
v -0.02449947 0.03292848 -0.00988668
v -0.02482469 0.02922398 -0.00988537
v -0.02508978 0.02823514 -0.00988537
v -0.02515127 0.02802369 -0.00988537
v -0.02557487 0.02733752 -0.00988537
v -0.02566643 0.02723180 -0.00988537
v -0.02683338 0.02594963 -0.00988537
v -0.02742505 0.02541064 -0.00988537
v -0.02777350 0.02510176 -0.00988537
v -0.02815064 0.02486440 -0.00988537
v -0.03283075 0.02257370 -0.00914794
v -0.03352355 0.02246798 -0.00959852
v -0.03351945 0.02240164 -0.00845505
v -0.03329535 0.02234152 -0.00727227
v -0.03511547 0.02288051 0.00349449
v -0.03330765 0.02234982 -0.00607247
v -0.03332541 0.02236744 -0.00487398
v -0.03680031 0.02442595 0.00349449
v -0.03686726 0.02519816 0.00349449
v -0.03688913 0.02560862 0.00349449
v -0.03699844 0.03153851 -0.00607247
v -0.03699844 0.03140584 -0.00367549
v -0.03699981 0.03142449 0.00112371
v -0.03699981 0.03293055 0.00349449
v -0.02474680 0.03293055 0.00058144
v -0.02429041 0.03292848 -0.00968235
v -0.02325873 0.03292848 -0.00847338
v -0.02304010 0.03292848 -0.00792719
v -0.02514991 0.02802369 -0.00967318
v -0.02322184 0.03219462 -0.00681776
v -0.02317948 0.03216975 -0.00607247
v -0.02314805 0.03215109 -0.00487398
v -0.02311935 0.03213554 -0.00367549
v -0.02557487 0.02733752 -0.00967318
v -0.02564456 0.02738624 0.00349449
v -0.02799077 0.02496079 0.00312119
v -0.02799077 0.02496079 0.00263786
v -0.03264355 0.02234152 -0.00727227
v -0.03273100 0.02244517 -0.00847338
v -0.03267908 0.02236744 -0.00487398
v -0.03276516 0.02246798 -0.00367549
v -0.02987238 0.02425700 0.00232351
v -0.02863437 0.02481361 0.00349449
v -0.03264902 0.02234982 -0.00607247
v -0.03699981 0.03153436 0.00349449
v -0.02687984 0.03293055 0.00349449
v -0.02462792 0.03293055 0.00116300
v -0.02316445 0.03292848 -0.00244950
v -0.02315761 0.03288287 -0.00248093
v -0.02311935 0.03270045 -0.00367549
v -0.02315625 0.03215524 -0.00247569
v -0.02544096 0.02781017 0.00349449
v -0.02748655 0.02559514 0.00349449
v -0.02638518 0.03253979 0.00349449
v -0.02521550 0.03293055 0.00242567
v -0.02321227 0.03292848 -0.00126935
v -0.02320954 0.03292848 -0.00133615
v -0.02501736 0.03293055 0.00228290
v -0.02320817 0.03288909 -0.00133877
v -0.02322867 0.03219670 -0.00178149
v -0.02489848 0.02922501 0.00349449
v -0.02541773 0.02787029 0.00349449
v -0.02635102 0.03250973 0.00349449
v -0.02512121 0.03293055 0.00236411
v -0.02489711 0.02925507 0.00349449
v -0.02491761 0.03042426 0.00349449
v -0.02507475 0.03076423 0.00349449
v -0.02492854 0.03045432 0.00349449
v -0.02585226 0.03203604 0.00349449
v -0.02544643 0.03152400 0.00349449
f 1 2 3
f 1 3 4
f 1 4 5
f 1 5 6
f 1 6 7
f 1 7 8
f 1 8 9
f 1 9 10
f 1 10 11
f 1 11 23
f 1 23 22
f 1 22 21
f 1 21 20
f 1 20 24
f 1 24 12
f 1 12 2
f 2 13 14
f 2 14 15
f 2 15 3
f 2 12 13
f 3 15 4
f 4 15 10
f 4 10 5
f 5 10 6
f 6 10 7
f 7 10 8
f 8 10 9
f 10 15 16
f 10 16 17
f 10 17 18
f 10 18 19
f 10 19 20
f 10 20 21
f 10 21 22
f 10 22 23
f 10 23 11
f 12 24 25
f 12 25 26
f 12 26 27
f 12 27 28
f 12 28 29
f 12 29 30
f 12 30 31
f 12 31 32
f 12 32 33
f 12 33 13
f 13 34 35
f 13 35 14
f 13 33 34
f 14 35 36
f 14 36 37
f 14 37 15
f 15 38 66
f 15 66 76
f 15 76 58
f 15 58 75
f 15 75 85
f 15 85 84
f 15 84 88
f 15 88 89
f 15 89 91
f 15 91 90
f 15 90 93
f 15 93 92
f 15 92 86
f 15 86 77
f 15 77 69
f 15 69 47
f 15 47 68
f 15 68 43
f 15 43 42
f 15 42 41
f 15 41 16
f 15 37 39
f 15 39 40
f 15 40 63
f 15 63 38
f 16 41 17
f 17 41 42
f 17 42 43
f 17 43 44
f 17 44 18
f 18 44 45
f 18 45 43
f 18 43 46
f 18 46 68
f 18 68 47
f 18 47 19
f 19 47 69
f 19 69 78
f 19 78 87
f 19 87 81
f 19 81 70
f 19 70 48
f 19 48 24
f 19 24 20
f 24 48 49
f 24 49 25
f 25 49 50
f 25 50 26
f 26 50 51
f 26 51 27
f 27 52 28
f 27 51 53
f 27 53 54
f 27 54 55
f 27 55 56
f 27 56 52
f 28 57 29
f 28 52 57
f 29 57 58
f 29 58 30
f 30 59 31
f 30 58 59
f 31 59 32
f 32 59 60
f 32 60 33
f 33 60 59
f 33 59 61
f 33 61 62
f 33 62 34
f 34 62 35
f 35 62 61
f 35 61 36
f 36 61 37
f 37 61 67
f 37 67 39
f 38 63 64
f 38 64 65
f 38 65 66
f 39 67 63
f 39 63 40
f 43 68 46
f 43 45 44
f 48 70 51
f 48 51 50
f 48 50 49
f 51 71 72
f 51 72 73
f 51 73 56
f 51 56 55
f 51 55 54
f 51 54 53
f 51 70 71
f 52 58 57
f 52 56 58
f 56 73 74
f 56 74 75
f 56 75 58
f 58 76 59
f 59 76 66
f 59 66 64
f 59 64 63
f 59 63 67
f 59 67 61
f 64 66 65
f 69 77 78
f 70 79 80
f 70 80 71
f 70 81 79
f 71 80 72
f 72 80 79
f 72 79 82
f 72 82 74
f 72 74 73
f 74 82 83
f 74 83 84
f 74 84 85
f 74 85 75
f 77 86 87
f 77 87 78
f 79 88 84
f 79 84 83
f 79 83 82
f 79 81 89
f 79 89 88
f 81 90 91
f 81 91 89
f 81 87 92
f 81 92 93
f 81 93 90
f 86 92 87

