# https://github.com/mikedh/trimesh
v -0.00405907 0.00041530 0.01299241
v 0.00734267 0.00041530 0.01299241
v -0.00405907 0.00041530 0.01568201
v -0.00405907 0.01601669 0.01299241
v 0.00734674 0.00041740 0.01299241
v 0.00734878 0.00041530 0.01299426
v 0.01182964 0.00041530 0.01568201
v -0.00405907 0.01814644 0.01568201
v -0.00405907 0.01619311 0.01319171
v -0.00321993 0.01676861 0.01358399
v 0.01674839 0.02186826 0.01401602
v -0.00227080 0.01632544 0.01299241
v 0.00997415 0.00232031 0.01299241
v 0.00972771 0.00041530 0.01399232
v 0.01181334 0.00041530 0.01564462
v 0.01674839 0.00985216 0.01533501
v 0.01674839 0.00978705 0.01545559
v 0.01674839 0.00967783 0.01568201
v -0.00360488 0.01826616 0.01568201
v -0.00405907 0.01811914 0.01564304
v -0.00405907 0.01706266 0.01422005
v 0.01609052 0.02186826 0.01455494
v 0.01674839 0.02186826 0.01568201
v 0.01674839 0.01840058 0.01316749
v 0.01670155 0.01832077 0.01299241
v 0.01573817 0.01869883 0.01299241
v 0.01071757 0.00287900 0.01299241
v 0.01081737 0.00041530 0.01456626
v 0.01143043 0.00041530 0.01506147
v 0.01674839 0.01197982 0.01299241
v 0.01674839 0.01168367 0.01330834
v 0.01674839 0.01049067 0.01462839
v -0.00405907 0.01794060 0.01540083
v 0.01581353 0.02186826 0.01568201
v 0.01580945 0.02186826 0.01556090
v 0.01580945 0.02186826 0.01552483
v 0.01674839 0.01436371 0.01299241
v 0.01141821 0.00041530 0.01504463
v 0.01082552 0.00041530 0.01457179
f 1 2 6
f 1 6 14
f 1 14 28
f 1 28 39
f 1 39 38
f 1 38 29
f 1 29 15
f 1 15 7
f 1 7 3
f 1 3 8
f 1 8 20
f 1 20 33
f 1 33 21
f 1 21 9
f 1 9 4
f 1 4 12
f 1 12 26
f 1 26 25
f 1 25 37
f 1 37 30
f 1 30 27
f 1 27 13
f 1 13 5
f 1 5 2
f 2 5 6
f 3 7 18
f 3 18 23
f 3 23 34
f 3 34 19
f 3 19 8
f 4 9 10
f 4 10 11
f 4 11 12
f 5 13 6
f 6 13 14
f 7 15 16
f 7 16 17
f 7 17 18
f 8 19 20
f 9 21 10
f 10 21 11
f 11 21 19
f 11 19 22
f 11 22 36
f 11 36 35
f 11 35 34
f 11 34 23
f 11 23 18
f 11 18 17
f 11 17 16
f 11 16 32
f 11 32 31
f 11 31 30
f 11 30 37
f 11 37 24
f 11 24 25
f 11 25 26
f 11 26 12
f 13 27 14
f 14 27 28
f 15 29 30
f 15 30 31
f 15 31 32
f 15 32 16
f 19 33 20
f 19 34 35
f 19 35 36
f 19 36 22
f 19 21 33
f 24 37 25
f 27 38 39
f 27 39 28
f 27 30 38
f 29 38 30

