# https://github.com/mikedh/trimesh
v -0.04908551 0.01961503 -0.01108884
v -0.04908551 0.01967139 -0.01109253
v -0.04921677 0.01967139 -0.01111347
v -0.05733315 0.01527642 -0.01357160
v -0.05693001 0.01527642 -0.01349032
v -0.05627185 0.01527642 -0.01343859
v -0.04908551 0.01527642 -0.01356667
v -0.04908551 0.01967139 -0.01193613
v -0.05756848 0.01967139 -0.01364426
v -0.05627185 0.01842509 -0.01323170
v -0.05739972 0.01842509 -0.01357899
v -0.05762661 0.01967139 -0.01367751
v -0.05804194 0.01936594 -0.01392505
v -0.05793319 0.01527642 -0.01418490
v -0.04908551 0.01527642 -0.02266520
v -0.04908551 0.01750574 -0.02161348
v -0.05133376 0.01967139 -0.02167505
v -0.05825477 0.01967139 -0.01433391
v -0.05828008 0.01967139 -0.01439180
v -0.05815726 0.01527642 -0.01478589
v -0.05186348 0.01527642 -0.02276742
v -0.04908551 0.01602669 -0.02291274
v -0.04908551 0.01716803 -0.02251988
v -0.05164503 0.01967139 -0.02287702
v -0.05866260 0.01967139 -0.01567259
v -0.05816382 0.01527642 -0.01565042
v -0.05267259 0.01527642 -0.02271939
v -0.05387265 0.01690775 -0.02337949
v -0.05387265 0.01750746 -0.02355067
v -0.05307667 0.01759092 -0.02351496
v -0.05267446 0.01853221 -0.02356422
v -0.05267259 0.01962536 -0.02363565
v -0.05206037 0.01967139 -0.02348294
v -0.05859791 0.01967139 -0.01682776
v -0.05809632 0.01527642 -0.01616150
v -0.05843197 0.01842509 -0.01687579
v -0.05816476 0.01722568 -0.01780806
v -0.05303730 0.01527642 -0.02269107
v -0.05457581 0.01763566 -0.02353589
v -0.05395047 0.01593764 -0.02280929
v -0.05387265 0.01842509 -0.02366767
v -0.05267259 0.01967139 -0.02363195
v -0.05387265 0.01962536 -0.02366643
v -0.05859228 0.01967139 -0.01687456
v -0.05809351 0.01658295 -0.01760485
v -0.05777380 0.01527642 -0.01805929
v -0.05822851 0.01842509 -0.01793121
v -0.05799038 0.01722568 -0.01840781
v -0.05363639 0.01527642 -0.02252111
v -0.05464051 0.01842509 -0.02355806
v -0.05478020 0.01627879 -0.02258515
v -0.05507740 0.01723901 -0.02288072
v -0.05573463 0.01764168 -0.02237702
v -0.05524054 0.01842509 -0.02309870
v -0.05387265 0.01967139 -0.02366028
v -0.05456550 0.01962536 -0.02351373
v -0.05391765 0.01967139 -0.02365289
v -0.05828945 0.01967139 -0.01789673
v -0.05752160 0.01527642 -0.01878220
v -0.05799413 0.01842509 -0.01853096
v -0.05580307 0.01842509 -0.02249895
v -0.05734159 0.01527642 -0.01917628
v -0.05380046 0.01527642 -0.02239550
v -0.05440424 0.01547904 -0.02209131
v -0.05578338 0.01936853 -0.02247062
v -0.05455894 0.01967139 -0.02351126
v -0.05800444 0.01967139 -0.01851742
v -0.05799225 0.01967139 -0.01854082
v -0.05531554 0.01967139 -0.02282530
f 1 2 3
f 1 3 4
f 1 4 5
f 1 5 6
f 1 6 7
f 1 7 15
f 1 15 22
f 1 22 23
f 1 23 16
f 1 16 8
f 1 8 2
f 2 8 17
f 2 17 24
f 2 24 33
f 2 33 42
f 2 42 55
f 2 55 57
f 2 57 66
f 2 66 69
f 2 69 68
f 2 68 67
f 2 67 58
f 2 58 44
f 2 44 34
f 2 34 25
f 2 25 19
f 2 19 18
f 2 18 12
f 2 12 9
f 2 9 3
f 3 9 10
f 3 10 4
f 4 10 11
f 4 11 9
f 4 9 12
f 4 12 13
f 4 13 14
f 4 14 20
f 4 20 26
f 4 26 35
f 4 35 46
f 4 46 59
f 4 59 62
f 4 62 63
f 4 63 49
f 4 49 38
f 4 38 27
f 4 27 21
f 4 21 15
f 4 15 7
f 4 7 6
f 4 6 5
f 8 16 17
f 9 11 10
f 12 18 13
f 13 18 14
f 14 18 19
f 14 19 20
f 15 21 22
f 16 23 24
f 16 24 17
f 19 25 20
f 20 25 26
f 21 27 28
f 21 28 22
f 22 28 29
f 22 29 30
f 22 30 31
f 22 31 32
f 22 32 33
f 22 33 23
f 23 33 24
f 25 34 26
f 26 34 36
f 26 36 37
f 26 37 35
f 27 38 28
f 28 39 29
f 28 38 40
f 28 40 39
f 29 39 41
f 29 41 30
f 30 41 31
f 31 41 32
f 32 42 33
f 32 41 43
f 32 43 42
f 34 44 36
f 35 37 45
f 35 45 46
f 36 44 37
f 37 47 48
f 37 48 46
f 37 46 45
f 37 44 47
f 38 49 40
f 39 50 41
f 39 40 51
f 39 51 52
f 39 52 53
f 39 53 54
f 39 54 50
f 40 49 51
f 41 50 43
f 42 43 55
f 43 50 56
f 43 56 57
f 43 57 55
f 44 58 47
f 46 48 59
f 47 58 60
f 47 60 48
f 48 60 61
f 48 61 62
f 48 62 59
f 49 63 51
f 50 54 56
f 51 63 64
f 51 64 62
f 51 62 52
f 52 62 53
f 53 61 54
f 53 62 61
f 54 61 65
f 54 65 56
f 56 66 57
f 56 65 66
f 58 67 60
f 60 67 68
f 60 68 61
f 61 68 65
f 62 64 63
f 65 69 66
f 65 68 69

