# https://github.com/mikedh/trimesh
v -0.02164961 -0.03179109 0.00334886
v -0.02313069 -0.02626188 0.00334886
v -0.02164961 -0.03186339 0.00334886
v -0.02284919 -0.02807935 -0.00988624
v -0.02204557 -0.02652620 0.00042356
v -0.02204557 -0.02652620 0.00061011
v -0.02295431 -0.02589929 0.00238110
v -0.02336663 -0.02575358 0.00334886
v -0.02173721 -0.03290258 0.00334886
v -0.02536400 -0.03158890 -0.00988624
v -0.02289124 -0.02734175 -0.00988624
v -0.02307112 -0.02510747 -0.00127488
v -0.02300104 -0.02499339 -0.00007522
v -0.02307696 -0.02508827 0.00112314
v -0.02317624 -0.02522382 0.00201965
v -0.02333276 -0.02544747 0.00281899
v -0.02341452 -0.02565870 0.00334886
v -0.03010159 -0.03324032 0.00334886
v -0.02866957 -0.03318271 -0.00367549
v -0.02866957 -0.03318045 -0.00847412
v -0.02866957 -0.03314431 -0.00967378
v -0.02866957 -0.03313189 -0.00988624
v -0.02773396 -0.03285966 -0.00988624
v -0.02752021 -0.03278624 -0.00988624
v -0.02664651 -0.02274556 -0.00988624
v -0.02356053 -0.02450767 -0.00127488
v -0.02344373 -0.02439359 -0.00007522
v -0.02351498 -0.02448960 0.00112314
v -0.02427771 -0.02398582 0.00232410
v -0.02363295 -0.02480475 0.00238110
v -0.02403826 -0.02472907 0.00334886
v -0.02987149 -0.03314770 -0.00247583
v -0.02888215 -0.03313076 -0.00988624
v -0.03010159 -0.02199440 0.00334886
v -0.03255683 -0.02722992 -0.00269607
v -0.03182446 -0.03202039 -0.00269607
v -0.03173919 -0.03263149 -0.00402528
v -0.03172167 -0.03261793 -0.00487385
v -0.02725506 -0.02225081 -0.00988624
v -0.02529391 -0.02264841 -0.00127488
v -0.02469470 -0.02323692 -0.00127488
v -0.02404410 -0.02369100 -0.00007522
v -0.02411535 -0.02377798 0.00112314
v -0.02487692 -0.02338715 0.00232410
v -0.02561279 -0.02291499 0.00305477
v -0.02441904 -0.02412475 0.00305477
v -0.02419595 -0.02453252 0.00334886
v -0.02995208 -0.03289467 -0.00988624
v -0.02978739 -0.02174363 0.00334886
v -0.02825958 -0.02172556 -0.00988624
v -0.03271335 -0.02550395 -0.00988624
v -0.03316305 -0.02599870 -0.00988624
v -0.03324247 -0.02610374 -0.00988624
v -0.03318407 -0.02625963 -0.00847412
v -0.03247273 -0.02597611 -0.00269607
v -0.03345506 -0.02717570 -0.00847412
v -0.03335110 -0.02858088 -0.00988624
v -0.03322495 -0.02918067 -0.00988624
v -0.03312450 -0.02944951 -0.00988624
v -0.03307544 -0.02957263 -0.00988624
v -0.03285585 -0.03009449 -0.00988624
v -0.03255449 -0.03061522 -0.00988624
v -0.03167846 -0.03258066 -0.00539724
v -0.03015299 -0.03283029 -0.00988624
v -0.02800845 -0.02173573 -0.00988624
v -0.02797808 -0.02171653 -0.00967378
v -0.02737888 -0.02213559 -0.00967378
v -0.02796173 -0.02174589 0.00302109
v -0.02547730 -0.02280768 0.00232410
v -0.02472975 -0.02309120 -0.00007522
v -0.02795239 -0.02170071 -0.00869695
v -0.02481618 -0.02317705 0.00112314
v -0.02607066 -0.02277379 0.00334886
v -0.02571324 -0.02298276 0.00334886
v -0.02523317 -0.02342668 0.00334886
v -0.02447745 -0.02418236 0.00334886
v -0.02961685 -0.02174025 0.00334886
v -0.02819534 -0.02170071 -0.00869695
v -0.02817665 -0.02171653 -0.00967378
v -0.03332540 -0.02631271 -0.00988624
v -0.03357420 -0.02717570 -0.00988624
v -0.03358121 -0.02738806 -0.00988624
v -0.03153245 -0.03172445 -0.00988624
v -0.03167028 -0.03257388 -0.00547886
v -0.03055129 -0.03261906 -0.00988624
v -0.02867074 -0.02173686 0.00314157
v -0.02886814 -0.02175606 0.00334886
v -0.02828294 -0.02181480 0.00334886
v -0.02763818 -0.02201247 0.00334886
v -0.02942179 -0.02173912 0.00334886
v -0.03127314 -0.03197295 -0.00988624
v -0.03113765 -0.03210059 -0.00988624
f 1 2 8
f 1 8 17
f 1 17 31
f 1 31 47
f 1 47 76
f 1 76 75
f 1 75 74
f 1 74 73
f 1 73 89
f 1 89 88
f 1 88 87
f 1 87 90
f 1 90 77
f 1 77 49
f 1 49 34
f 1 34 18
f 1 18 9
f 1 9 3
f 1 3 4
f 1 4 5
f 1 5 6
f 1 6 2
f 2 6 7
f 2 7 8
f 3 9 4
f 4 10 24
f 4 24 23
f 4 23 22
f 4 22 33
f 4 33 48
f 4 48 64
f 4 64 85
f 4 85 92
f 4 92 91
f 4 91 83
f 4 83 62
f 4 62 61
f 4 61 60
f 4 60 59
f 4 59 58
f 4 58 57
f 4 57 82
f 4 82 81
f 4 81 80
f 4 80 53
f 4 53 52
f 4 52 51
f 4 51 50
f 4 50 65
f 4 65 39
f 4 39 25
f 4 25 11
f 4 11 5
f 4 9 10
f 5 12 13
f 5 13 6
f 5 11 12
f 6 13 14
f 6 14 15
f 6 15 7
f 7 15 16
f 7 16 8
f 8 16 17
f 9 18 19
f 9 19 20
f 9 20 21
f 9 21 22
f 9 22 23
f 9 23 24
f 9 24 10
f 11 25 26
f 11 26 12
f 12 26 27
f 12 27 13
f 13 27 28
f 13 28 14
f 14 28 15
f 15 28 29
f 15 29 30
f 15 30 31
f 15 31 16
f 16 31 17
f 18 32 33
f 18 33 20
f 18 20 19
f 18 34 35
f 18 35 36
f 18 36 37
f 18 37 38
f 18 38 32
f 20 33 21
f 21 33 22
f 25 39 40
f 25 40 41
f 25 41 42
f 25 42 26
f 26 42 27
f 27 42 43
f 27 43 28
f 28 43 29
f 29 43 44
f 29 44 45
f 29 45 46
f 29 46 30
f 30 46 47
f 30 47 31
f 32 38 48
f 32 48 33
f 34 49 50
f 34 50 51
f 34 51 52
f 34 52 53
f 34 53 54
f 34 54 55
f 34 55 35
f 35 55 56
f 35 56 36
f 36 56 57
f 36 57 58
f 36 58 37
f 37 58 59
f 37 59 60
f 37 60 61
f 37 61 38
f 38 61 62
f 38 62 63
f 38 63 64
f 38 64 48
f 39 65 66
f 39 66 67
f 39 67 40
f 40 68 69
f 40 69 70
f 40 70 42
f 40 42 41
f 40 67 66
f 40 66 71
f 40 71 68
f 42 70 43
f 43 69 44
f 43 70 72
f 43 72 69
f 44 69 45
f 45 69 68
f 45 68 73
f 45 73 74
f 45 74 75
f 45 75 76
f 45 76 46
f 46 76 47
f 49 77 78
f 49 78 50
f 50 78 79
f 50 79 66
f 50 66 65
f 53 80 54
f 54 80 56
f 54 56 55
f 56 80 81
f 56 81 82
f 56 82 57
f 62 83 84
f 62 84 63
f 63 84 85
f 63 85 64
f 66 79 78
f 66 78 71
f 68 86 87
f 68 87 88
f 68 88 89
f 68 89 73
f 68 71 86
f 69 72 70
f 71 78 86
f 77 90 78
f 78 90 86
f 83 91 84
f 84 91 92
f 84 92 85
f 86 90 87

