# https://github.com/mikedh/trimesh
v 0.03712691 0.00535547 -0.01100719
v 0.03712691 0.00525178 -0.01103838
v 0.03712691 0.00622654 -0.01108466
v 0.03425447 0.00842655 -0.01140560
v 0.03419393 0.00762568 -0.01134725
v 0.03414780 0.00642596 -0.01129896
v 0.03410504 0.00522625 -0.01125167
v 0.03406659 0.00402654 -0.01120640
v 0.03403680 0.00282682 -0.01116615
v 0.03401999 0.00162551 -0.01113999
v 0.03400894 0.00042580 -0.01112792
v 0.03400749 0.00030136 -0.01112692
v 0.03473690 0.00030136 -0.01112692
v 0.03712691 0.00030774 -0.01339466
v 0.03712691 0.01659960 -0.01359688
v 0.03711153 0.01659960 -0.01358179
v 0.03671560 0.01659960 -0.01339365
v 0.03449232 0.00842655 -0.01140560
v 0.03221859 0.01242453 -0.01573081
v 0.03612794 0.01659960 -0.01337655
v 0.03566186 0.01659960 -0.01342685
v 0.03521403 0.01659960 -0.01349627
v 0.03221859 0.01345833 -0.01600849
v 0.03221859 0.00042580 -0.01674395
v 0.03221859 0.00039389 -0.01674697
v 0.03221859 0.00030136 -0.01675602
v 0.03527506 0.00030136 -0.01166417
v 0.03533704 0.00030136 -0.01172856
v 0.03712691 0.00030136 -0.01379709
v 0.03712691 0.01659960 -0.02033370
v 0.03221859 0.01659960 -0.01745123
v 0.03221859 0.01603006 -0.01710212
v 0.03221859 0.01482396 -0.01657492
v 0.03221859 0.00030136 -0.02073714
v 0.03712691 0.00030136 -0.02023812
v 0.03619377 0.01659960 -0.02087599
v 0.03712691 0.01602527 -0.02033068
v 0.03704186 0.00042580 -0.02033068
v 0.03624903 0.00042580 -0.02093032
v 0.03221859 0.01659960 -0.02128446
v 0.03546245 0.00030136 -0.02109230
v 0.03221859 0.00073530 -0.02077035
v 0.03710673 0.00030136 -0.02026227
v 0.03559411 0.01659960 -0.02109330
v 0.03704474 0.00030136 -0.02032465
v 0.03633408 0.00030136 -0.02086190
v 0.03624326 0.00030136 -0.02092428
v 0.03564360 0.00030136 -0.02109230
v 0.03564937 0.00042580 -0.02109230
v 0.03563063 0.00565859 -0.02109431
v 0.03221859 0.00162551 -0.02082970
f 1 2 14
f 1 14 29
f 1 29 35
f 1 35 37
f 1 37 30
f 1 30 15
f 1 15 3
f 1 3 4
f 1 4 5
f 1 5 6
f 1 6 7
f 1 7 8
f 1 8 9
f 1 9 10
f 1 10 11
f 1 11 12
f 1 12 13
f 1 13 2
f 2 13 14
f 3 15 16
f 3 16 17
f 3 17 18
f 3 18 4
f 4 19 5
f 4 18 20
f 4 20 21
f 4 21 22
f 4 22 23
f 4 23 19
f 5 19 6
f 6 19 7
f 7 19 8
f 8 19 9
f 9 19 10
f 10 12 11
f 10 19 12
f 12 24 25
f 12 25 26
f 12 26 34
f 12 34 41
f 12 41 48
f 12 48 47
f 12 47 46
f 12 46 45
f 12 45 43
f 12 43 35
f 12 35 29
f 12 29 28
f 12 28 27
f 12 27 13
f 12 19 24
f 13 27 14
f 14 27 28
f 14 28 29
f 15 30 36
f 15 36 44
f 15 44 40
f 15 40 31
f 15 31 22
f 15 22 21
f 15 21 20
f 15 20 17
f 15 17 16
f 17 20 18
f 19 23 33
f 19 33 32
f 19 32 31
f 19 31 40
f 19 40 51
f 19 51 42
f 19 42 34
f 19 34 26
f 19 26 25
f 19 25 24
f 22 31 32
f 22 32 33
f 22 33 23
f 30 37 38
f 30 38 39
f 30 39 36
f 34 42 41
f 35 43 37
f 36 39 44
f 37 43 38
f 38 43 45
f 38 45 39
f 39 45 46
f 39 46 47
f 39 47 48
f 39 48 49
f 39 49 50
f 39 50 44
f 40 44 50
f 40 50 49
f 40 49 48
f 40 48 41
f 40 41 51
f 41 42 51

