# https://github.com/mikedh/trimesh
v 0.01462280 -0.04635402 -0.01575081
v 0.01462280 -0.05256666 -0.01575081
v 0.01462280 -0.04635530 -0.01936621
v 0.01452607 -0.04635402 -0.01937378
v -0.00015989 -0.04635402 -0.01575081
v -0.00015989 -0.04660381 -0.01567038
v 0.01462280 -0.05931837 -0.01842617
v 0.00485887 -0.05579341 -0.01575081
v 0.01462280 -0.04646490 -0.01939555
v 0.01450396 -0.04635402 -0.01937615
v -0.00015989 -0.04635402 -0.01965386
v -0.01361051 -0.04660381 -0.01692125
v -0.01186942 -0.04660381 -0.01657494
v -0.01015044 -0.04660381 -0.01625844
v -0.00991553 -0.04660381 -0.01621586
v -0.00966957 -0.04660381 -0.01617943
v -0.00347073 -0.04660381 -0.01575601
v 0.00144025 -0.05568509 -0.01575081
v 0.00244345 -0.05611456 -0.01575081
v 0.00252636 -0.05613495 -0.01575081
v 0.00365393 -0.05613877 -0.01575081
v 0.00372854 -0.05613240 -0.01575081
v 0.00477873 -0.05581890 -0.01575081
v 0.01462280 -0.05931837 -0.01907195
v -0.01361051 -0.05932474 -0.01953085
v -0.01306884 -0.05933366 -0.01953369
v -0.01186942 -0.05934895 -0.01953700
v -0.01067001 -0.05936170 -0.01954031
v -0.00947059 -0.05936807 -0.01954173
v -0.00827117 -0.05937189 -0.01954315
v -0.00706899 -0.05937317 -0.01954363
v -0.00227131 -0.05937062 -0.01954315
v -0.00015989 -0.05936934 -0.01954268
v 0.00132694 -0.05936807 -0.01954268
v 0.00252636 -0.05936425 -0.01954173
v 0.01462280 -0.04885947 -0.01959046
v 0.01332666 -0.04635402 -0.01947124
v 0.00010818 -0.04635402 -0.01967657
v -0.01067001 -0.04660381 -0.01950057
v -0.01361051 -0.04660381 -0.01919968
v -0.01361051 -0.05218435 -0.01614017
v -0.01361051 -0.05378753 -0.01614017
v -0.01073633 -0.05478665 -0.01614017
v -0.00706069 -0.05571822 -0.01614017
v -0.00634491 -0.05588517 -0.01614017
v -0.00587233 -0.05598457 -0.01614017
v 0.01462280 -0.05869392 -0.01962452
v 0.00252636 -0.05936425 -0.02017899
v 0.00372854 -0.05935532 -0.02016386
v 0.00492796 -0.05934003 -0.02014067
v 0.00612738 -0.05932219 -0.02011465
v 0.00732680 -0.05929925 -0.02008863
v 0.00852622 -0.05927376 -0.02006261
v 0.00972564 -0.05924573 -0.02003659
v 0.01092782 -0.05919348 -0.02000300
v 0.01212724 -0.05908006 -0.01993724
v 0.01279327 -0.05899340 -0.01988567
v -0.01361051 -0.05932474 -0.02011796
v -0.01306884 -0.05933366 -0.02012932
v -0.01186942 -0.05934895 -0.02015250
v -0.01067001 -0.05936170 -0.02017426
v -0.00947059 -0.05936807 -0.02018893
v -0.00827117 -0.05937189 -0.02019366
v -0.00706899 -0.05937317 -0.02019555
v -0.00227131 -0.05937062 -0.02019035
v -0.00015989 -0.05936934 -0.02018798
v 0.00132694 -0.05936807 -0.02018609
v 0.01462280 -0.04887604 -0.01959141
v 0.01092782 -0.04635402 -0.01957863
v 0.00013029 -0.04635402 -0.01967751
v -0.01361051 -0.05837277 -0.02036870
v -0.01361051 -0.04823757 -0.01938277
v -0.00706899 -0.04660381 -0.01964345
v 0.01462280 -0.05861363 -0.01967467
v -0.00107189 -0.05837277 -0.02050165
v -0.00015989 -0.05837277 -0.02049407
v 0.00013029 -0.05837277 -0.02049124
v 0.00132694 -0.05837277 -0.02047799
v 0.00252636 -0.05837277 -0.02046049
v 0.00372854 -0.05837277 -0.02043399
v 0.00492796 -0.05837277 -0.02039993
v 0.00732680 -0.05837277 -0.02032518
v 0.00852622 -0.05837277 -0.02028307
v 0.00972564 -0.05837277 -0.02023718
v 0.01092782 -0.05837277 -0.02018183
v 0.01212724 -0.05837277 -0.02009384
v 0.01452607 -0.05803761 -0.01996468
v 0.01462280 -0.05802104 -0.01995900
v 0.01462280 -0.05805800 -0.01994244
v -0.01306884 -0.05837277 -0.02038290
v -0.01186942 -0.05837277 -0.02040939
v -0.01067001 -0.05837277 -0.02043068
v -0.00947059 -0.05837277 -0.02045008
v -0.00827117 -0.05837277 -0.02046522
v -0.00706899 -0.05837277 -0.02047515
v -0.00347073 -0.05837277 -0.02049691
v -0.00227131 -0.05837277 -0.02050354
v 0.00013029 -0.05936807 -0.02018798
v 0.01462280 -0.04997583 -0.01965196
v 0.00972564 -0.04637569 -0.01961743
v 0.00972564 -0.04635402 -0.01961554
v -0.00587233 -0.04660381 -0.01965338
v 0.01452607 -0.05734562 -0.01996468
v 0.01462280 -0.05736728 -0.01995900
f 1 2 7
f 1 7 24
f 1 24 47
f 1 47 74
f 1 74 89
f 1 89 88
f 1 88 104
f 1 104 99
f 1 99 68
f 1 68 36
f 1 36 9
f 1 9 3
f 1 3 4
f 1 4 10
f 1 10 37
f 1 37 69
f 1 69 101
f 1 101 70
f 1 70 38
f 1 38 11
f 1 11 5
f 1 5 6
f 1 6 2
f 2 6 8
f 2 8 7
f 3 9 10
f 3 10 4
f 5 11 40
f 5 40 12
f 5 12 13
f 5 13 14
f 5 14 15
f 5 15 16
f 5 16 17
f 5 17 6
f 6 18 19
f 6 19 20
f 6 20 21
f 6 21 22
f 6 22 23
f 6 23 8
f 6 17 18
f 7 8 23
f 7 23 22
f 7 22 21
f 7 21 20
f 7 20 25
f 7 25 26
f 7 26 27
f 7 27 28
f 7 28 29
f 7 29 30
f 7 30 31
f 7 31 32
f 7 32 33
f 7 33 34
f 7 34 35
f 7 35 48
f 7 48 24
f 9 36 37
f 9 37 10
f 11 38 39
f 11 39 40
f 12 40 72
f 12 72 71
f 12 71 58
f 12 58 25
f 12 25 42
f 12 42 41
f 12 41 13
f 13 41 14
f 14 41 15
f 15 41 16
f 16 41 17
f 17 41 42
f 17 42 18
f 18 42 19
f 19 42 43
f 19 43 44
f 19 44 20
f 20 44 45
f 20 45 46
f 20 46 25
f 24 48 49
f 24 49 50
f 24 50 51
f 24 51 52
f 24 52 53
f 24 53 54
f 24 54 55
f 24 55 56
f 24 56 57
f 24 57 47
f 25 58 59
f 25 59 26
f 25 46 45
f 25 45 44
f 25 44 43
f 25 43 42
f 26 59 60
f 26 60 27
f 27 60 61
f 27 61 28
f 28 61 62
f 28 62 29
f 29 62 63
f 29 63 30
f 30 63 64
f 30 64 31
f 31 64 65
f 31 65 32
f 32 65 66
f 32 66 33
f 33 66 67
f 33 67 34
f 34 67 48
f 34 48 35
f 36 68 69
f 36 69 37
f 38 70 39
f 39 71 72
f 39 72 40
f 39 70 73
f 39 73 71
f 47 57 74
f 48 67 75
f 48 75 76
f 48 76 77
f 48 77 78
f 48 78 79
f 48 79 49
f 49 79 80
f 49 80 50
f 50 80 51
f 51 80 52
f 52 80 53
f 53 80 54
f 54 80 81
f 54 81 82
f 54 82 83
f 54 83 55
f 55 83 84
f 55 84 85
f 55 85 86
f 55 86 56
f 56 86 87
f 56 87 88
f 56 88 57
f 57 88 89
f 57 89 74
f 58 71 90
f 58 90 59
f 59 90 60
f 60 90 91
f 60 91 61
f 61 91 92
f 61 92 93
f 61 93 62
f 62 93 94
f 62 94 95
f 62 95 96
f 62 96 97
f 62 97 63
f 63 97 64
f 64 97 65
f 65 97 66
f 66 97 98
f 66 98 67
f 67 98 75
f 68 99 69
f 69 100 101
f 69 99 82
f 69 82 100
f 70 101 100
f 70 100 75
f 70 75 97
f 70 97 96
f 70 96 95
f 70 95 102
f 70 102 73
f 71 73 90
f 73 102 94
f 73 94 93
f 73 93 92
f 73 92 91
f 73 91 90
f 75 100 76
f 75 98 97
f 76 100 77
f 77 100 78
f 78 100 79
f 79 100 80
f 80 100 81
f 81 100 82
f 82 99 83
f 83 99 84
f 84 99 85
f 85 103 104
f 85 104 88
f 85 88 87
f 85 87 86
f 85 99 103
f 94 102 95
f 99 104 103

