# https://github.com/mikedh/trimesh
v -0.02867089 -0.02068843 -0.02321858
v -0.02747114 -0.02068843 -0.02319599
v -0.02886454 -0.02068843 -0.02321275
v -0.02328640 -0.01428883 -0.02228355
v -0.02321530 -0.01428883 -0.02228355
v -0.02629258 -0.02068843 -0.02304002
v -0.01961001 -0.01391905 -0.02196434
v -0.01961001 -0.01585278 -0.02205471
v -0.02987063 -0.02068843 -0.02314788
v -0.02276142 -0.01391905 -0.02211666
v -0.03017321 -0.02068843 -0.02311655
v -0.03227163 -0.01898002 -0.02237028
v -0.03227163 -0.01837962 -0.02220047
v -0.03506448 -0.01391905 -0.01934729
v -0.02275840 -0.01392303 -0.02211812
v -0.02315781 -0.02068843 -0.02255028
v -0.01961001 -0.01391905 -0.02052208
v -0.01961001 -0.01753270 -0.02201827
v -0.02266762 -0.02068843 -0.02247012
v -0.03157871 -0.02068843 -0.02290957
v -0.03295396 -0.01917220 -0.02232582
v -0.03302053 -0.01997405 -0.02237975
v -0.03360149 -0.01997405 -0.02167502
v -0.03403418 -0.01877392 -0.02102057
v -0.03405234 -0.01997405 -0.02104535
v -0.03506448 -0.01877392 -0.01954479
v -0.03506448 -0.01391905 -0.01636147
v -0.02147241 -0.01422190 -0.01600801
v -0.02080219 -0.01445981 -0.01617272
v -0.01961001 -0.01896809 -0.01609401
v -0.02411095 -0.01391905 -0.01832408
v -0.01961001 -0.01943396 -0.02190677
v -0.01961152 -0.02068843 -0.02194540
v -0.03257422 -0.02068843 -0.02261369
v -0.03303112 -0.02068843 -0.02240161
v -0.03326713 -0.02068843 -0.02211666
v -0.03360149 -0.02068843 -0.02167502
v -0.03378455 -0.02068843 -0.02141994
v -0.03506448 -0.02068843 -0.01959435
v -0.03506448 -0.02068843 -0.01791596
v -0.03168916 -0.01820931 -0.01626673
v -0.02910207 -0.02068843 -0.01610567
v -0.02867089 -0.02068843 -0.01604299
v -0.03347138 -0.01391905 -0.01631045
v -0.02241345 -0.01421991 -0.01602186
v -0.02247548 -0.01517485 -0.01597594
v -0.01961001 -0.02068843 -0.01577334
v -0.01961001 -0.01997405 -0.01583602
v -0.02507316 -0.01391905 -0.01793564
v -0.02678881 -0.01391905 -0.01746630
v -0.02717915 -0.01391905 -0.01736500
v -0.02937893 -0.01391905 -0.01687672
v -0.02993720 -0.01391905 -0.01675429
v -0.02999015 -0.01391905 -0.01674627
v -0.03309920 -0.01391905 -0.01634617
v -0.01961001 -0.02002508 -0.02186887
v -0.01961001 -0.02068843 -0.02136747
v -0.02944399 -0.02068843 -0.01620405
v -0.02147241 -0.01877392 -0.01585569
f 1 2 6
f 1 6 16
f 1 16 19
f 1 19 33
f 1 33 57
f 1 57 47
f 1 47 43
f 1 43 42
f 1 42 58
f 1 58 40
f 1 40 39
f 1 39 38
f 1 38 37
f 1 37 36
f 1 36 35
f 1 35 34
f 1 34 20
f 1 20 11
f 1 11 9
f 1 9 3
f 1 3 4
f 1 4 5
f 1 5 2
f 2 5 7
f 2 7 8
f 2 8 6
f 3 9 4
f 4 10 5
f 4 9 11
f 4 11 12
f 4 12 13
f 4 13 14
f 4 14 10
f 5 10 15
f 5 15 7
f 6 8 16
f 7 15 10
f 7 10 14
f 7 14 27
f 7 27 44
f 7 44 55
f 7 55 54
f 7 54 53
f 7 53 52
f 7 52 51
f 7 51 50
f 7 50 49
f 7 49 31
f 7 31 17
f 7 17 30
f 7 30 48
f 7 48 47
f 7 47 57
f 7 57 56
f 7 56 32
f 7 32 18
f 7 18 8
f 8 18 19
f 8 19 16
f 11 20 21
f 11 21 12
f 12 21 13
f 13 21 14
f 14 21 22
f 14 22 23
f 14 23 24
f 14 24 25
f 14 25 26
f 14 26 39
f 14 39 40
f 14 40 27
f 17 28 29
f 17 29 30
f 17 31 28
f 18 32 33
f 18 33 19
f 20 34 21
f 21 34 22
f 22 34 35
f 22 35 36
f 22 36 23
f 23 37 38
f 23 38 25
f 23 25 24
f 23 36 37
f 25 39 26
f 25 38 39
f 27 40 41
f 27 41 42
f 27 42 43
f 27 43 44
f 28 45 46
f 28 46 47
f 28 47 48
f 28 48 29
f 28 31 49
f 28 49 50
f 28 50 51
f 28 51 52
f 28 52 53
f 28 53 54
f 28 54 55
f 28 55 44
f 28 44 45
f 29 48 30
f 32 56 33
f 33 56 57
f 40 58 41
f 41 58 42
f 43 47 59
f 43 59 44
f 44 59 46
f 44 46 45
f 46 59 47

