# https://github.com/mikedh/trimesh
v 0.01606993 0.00030284 -0.02209598
v 0.02292721 0.00030284 -0.02205101
v 0.01606993 0.00030284 -0.02083144
v 0.01606993 0.00036496 -0.02209574
v 0.01746214 0.00466169 -0.02228323
v 0.01746214 0.00455224 -0.02228323
v 0.02321930 0.00428452 -0.02233262
v 0.02359420 0.00428452 -0.02233262
v 0.02412742 0.00030284 -0.02162344
v 0.01680425 0.00030284 -0.02068425
v 0.01606993 0.01242538 -0.02044539
v 0.01606993 0.00492645 -0.02201882
v 0.02321930 0.00480220 -0.02233262
v 0.01606993 0.01122437 -0.02189841
v 0.01606993 0.01541017 -0.02176596
v 0.01634201 0.01541017 -0.02178636
v 0.02351321 0.01541017 -0.02227094
v 0.02359420 0.00480220 -0.02233262
v 0.02536493 0.01541017 -0.02131652
v 0.02536493 0.00162957 -0.02122953
v 0.02536493 0.00057203 -0.02115188
v 0.02526939 0.00030284 -0.02116122
v 0.01800446 0.00030284 -0.02044662
v 0.01812821 0.00042560 -0.02041640
v 0.02137759 0.01541017 -0.01982222
v 0.01606993 0.01396511 -0.02045129
v 0.02169880 0.00030284 -0.01982222
v 0.02164512 0.00162662 -0.01982222
v 0.02158324 0.00404491 -0.01982222
v 0.01606993 0.01541017 -0.02048545
v 0.02354142 0.01541017 -0.02226357
v 0.02536402 0.01541017 -0.01982222
v 0.02536493 0.01539686 -0.01982222
v 0.02536493 0.00030284 -0.02111502
v 0.01606993 0.01482445 -0.02046309
v 0.02536493 0.00030284 -0.01982222
f 1 2 9
f 1 9 22
f 1 22 34
f 1 34 36
f 1 36 27
f 1 27 23
f 1 23 10
f 1 10 3
f 1 3 11
f 1 11 26
f 1 26 35
f 1 35 30
f 1 30 15
f 1 15 14
f 1 14 12
f 1 12 4
f 1 4 5
f 1 5 6
f 1 6 7
f 1 7 8
f 1 8 2
f 2 8 9
f 3 10 11
f 4 12 5
f 5 13 7
f 5 7 6
f 5 12 14
f 5 14 15
f 5 15 16
f 5 16 17
f 5 17 13
f 7 13 18
f 7 18 8
f 8 18 19
f 8 19 20
f 8 20 21
f 8 21 22
f 8 22 9
f 10 23 24
f 10 24 11
f 11 25 26
f 11 24 27
f 11 27 28
f 11 28 29
f 11 29 25
f 13 17 18
f 15 30 25
f 15 25 32
f 15 32 19
f 15 19 31
f 15 31 17
f 15 17 16
f 17 31 18
f 18 31 19
f 19 32 33
f 19 33 36
f 19 36 34
f 19 34 21
f 19 21 20
f 21 34 22
f 23 27 24
f 25 30 35
f 25 35 26
f 25 29 28
f 25 28 27
f 25 27 36
f 25 36 33
f 25 33 32

