# https://github.com/mikedh/trimesh
v -0.00128967 0.00647990 0.01568201
v 0.00398681 0.00647990 0.01568201
v -0.00128967 0.00647990 0.01752344
v -0.00128967 0.01740802 0.01568201
v 0.00411762 0.00647990 0.01673737
v 0.00625998 0.01436023 0.01568201
v 0.00407328 0.00647990 0.01752344
v -0.00128967 0.01742094 0.01752344
v -0.00128967 0.01750655 0.01672475
v 0.00276081 0.02298030 0.01689256
v 0.00372742 0.02298030 0.01676855
v 0.00252433 0.01825921 0.01568201
v 0.00625998 0.01437961 0.01586568
v 0.00625998 0.01466711 0.01752344
v 0.00625998 0.01727235 0.01568201
v 0.00276081 0.02298030 0.01752344
v -0.00128967 0.01748393 0.01695078
v 0.00441248 0.02298030 0.01720079
v 0.00372742 0.01812030 0.01568201
v 0.00334166 0.01817522 0.01568201
v 0.00625998 0.01777951 0.01752344
v 0.00625998 0.01760830 0.01671610
v 0.00433193 0.02298030 0.01752344
v 0.00625998 0.01760992 0.01672349
v 0.00441248 0.02298030 0.01746558
v 0.00437036 0.02298030 0.01749586
f 1 2 5
f 1 5 7
f 1 7 3
f 1 3 8
f 1 8 17
f 1 17 9
f 1 9 4
f 1 4 12
f 1 12 20
f 1 20 19
f 1 19 15
f 1 15 6
f 1 6 2
f 2 6 5
f 3 7 14
f 3 14 21
f 3 21 23
f 3 23 16
f 3 16 8
f 4 9 10
f 4 10 11
f 4 11 12
f 5 6 13
f 5 13 14
f 5 14 7
f 6 15 22
f 6 22 24
f 6 24 21
f 6 21 14
f 6 14 13
f 8 16 17
f 9 17 16
f 9 16 10
f 10 16 23
f 10 23 26
f 10 26 25
f 10 25 18
f 10 18 11
f 11 18 15
f 11 15 19
f 11 19 20
f 11 20 12
f 15 18 22
f 18 21 24
f 18 24 22
f 18 25 21
f 21 25 26
f 21 26 23

