# https://github.com/mikedh/trimesh
v 0.04986101 -0.03424189 -0.01891147
v 0.05292850 -0.03424189 -0.01949235
v 0.04986101 -0.03424189 -0.01694105
v 0.04986101 -0.03373033 -0.01905067
v 0.05426273 -0.03424189 -0.01973034
v 0.05310144 -0.03424189 -0.01570745
v 0.04986101 -0.03384175 -0.01691493
v 0.04986101 -0.03320714 -0.01914007
v 0.05523080 -0.03424189 -0.01934948
v 0.05471489 -0.03379040 -0.01987729
v 0.05473518 -0.03379040 -0.01987729
v 0.05588682 -0.03424189 -0.01570745
v 0.05283672 -0.02598320 -0.01570745
v 0.05102134 -0.02806628 -0.01619648
v 0.05102134 -0.02767002 -0.01619648
v 0.04986101 -0.02434387 -0.01696065
v 0.04986101 -0.03197376 -0.01929397
v 0.05535834 -0.03424189 -0.01925110
v 0.05618728 -0.03317419 -0.01904414
v 0.05471489 -0.03373905 -0.01987729
v 0.04986101 -0.03010577 -0.01933846
v 0.04986101 -0.02957385 -0.01934581
v 0.05473518 -0.03373905 -0.01987729
v 0.05532742 -0.03197376 -0.01972993
v 0.05651094 -0.03077429 -0.01927029
v 0.05639983 -0.03197376 -0.01923192
v 0.05581435 -0.03424189 -0.01808893
v 0.05602401 -0.03396480 -0.01882208
v 0.05602401 -0.03396480 -0.01832120
v 0.05591676 -0.03417989 -0.01570745
v 0.05306666 -0.02434387 -0.01570745
v 0.04986101 -0.02434387 -0.01915027
v 0.05968663 -0.02453183 -0.01644222
v 0.05969437 -0.02578846 -0.01570745
v 0.05947215 -0.02653352 -0.01570745
v 0.04986101 -0.02837536 -0.01932580
v 0.05532742 -0.02434387 -0.01959155
v 0.05532742 -0.02477502 -0.01960135
v 0.05658823 -0.02434387 -0.01920498
v 0.05715439 -0.02434387 -0.01871513
v 0.05970886 -0.02434387 -0.01647243
v 0.05920357 -0.02717492 -0.01570745
v 0.05914366 -0.02731444 -0.01570745
v 0.05601917 -0.03396673 -0.01570745
v 0.05943254 -0.02434387 -0.01570745
v 0.05973011 -0.02434387 -0.01603320
v 0.05973011 -0.02434387 -0.01576215
v 0.05969147 -0.02473529 -0.01570745
v 0.05965475 -0.02435065 -0.01570745
f 1 2 5
f 1 5 9
f 1 9 18
f 1 18 27
f 1 27 12
f 1 12 6
f 1 6 3
f 1 3 7
f 1 7 16
f 1 16 32
f 1 32 36
f 1 36 22
f 1 22 21
f 1 21 17
f 1 17 8
f 1 8 4
f 1 4 2
f 2 4 5
f 3 6 7
f 4 8 5
f 5 8 10
f 5 10 11
f 5 11 9
f 6 12 30
f 6 30 44
f 6 44 43
f 6 43 42
f 6 42 35
f 6 35 34
f 6 34 48
f 6 48 49
f 6 49 45
f 6 45 31
f 6 31 13
f 6 13 14
f 6 14 7
f 7 14 15
f 7 15 16
f 8 17 10
f 9 11 19
f 9 19 18
f 10 20 23
f 10 23 11
f 10 17 21
f 10 21 22
f 10 22 20
f 11 23 24
f 11 24 25
f 11 25 26
f 11 26 19
f 12 27 28
f 12 28 29
f 12 29 30
f 13 31 15
f 13 15 14
f 15 31 16
f 16 31 45
f 16 45 47
f 16 47 46
f 16 46 41
f 16 41 40
f 16 40 39
f 16 39 37
f 16 37 32
f 18 19 28
f 18 28 27
f 19 26 33
f 19 33 34
f 19 34 35
f 19 35 28
f 20 22 36
f 20 36 37
f 20 37 23
f 23 37 38
f 23 38 24
f 24 38 39
f 24 39 25
f 25 39 40
f 25 40 41
f 25 41 26
f 26 41 33
f 28 35 42
f 28 42 43
f 28 43 29
f 29 44 30
f 29 43 44
f 32 37 36
f 33 41 34
f 34 41 46
f 34 46 47
f 34 47 48
f 37 39 38
f 45 49 47
f 47 49 48

