# https://github.com/mikedh/trimesh
v -0.03925929 -0.01838008 -0.01250401
v -0.03943005 -0.01838008 -0.00988764
v -0.03943074 -0.01877482 -0.00988764
v -0.03925929 -0.02401240 -0.01426768
v -0.03925929 -0.01838008 -0.01910415
v -0.04099386 -0.01838008 -0.00988764
v -0.03962777 -0.02401240 -0.00988764
v -0.03925929 -0.02401240 -0.01911465
v -0.03925929 -0.01997505 -0.01923306
v -0.04632133 -0.01838008 -0.01963984
v -0.04632133 -0.01838008 -0.01095615
v -0.04163059 -0.01911223 -0.00988764
v -0.04090468 -0.02401240 -0.00988764
v -0.04187256 -0.02401240 -0.01933523
v -0.03947222 -0.02117474 -0.01928271
v -0.03925929 -0.02138755 -0.01925025
v -0.03925929 -0.02117474 -0.01925693
v -0.04632133 -0.01877482 -0.01964175
v -0.04632133 -0.01877482 -0.01099530
v -0.04186080 -0.01996678 -0.00988764
v -0.04174258 -0.01932670 -0.00988764
v -0.04632133 -0.01993977 -0.01122447
v -0.04632133 -0.02068185 -0.01143168
v -0.04632133 -0.02125633 -0.01171719
v -0.04632133 -0.02213404 -0.01233404
v -0.04425354 -0.02401240 -0.01335768
v -0.04383389 -0.02401240 -0.01933427
v -0.04632133 -0.02153971 -0.01952239
v -0.04187256 -0.02357410 -0.01935146
v -0.04632133 -0.02250894 -0.01327555
v -0.04632133 -0.02401240 -0.01752478
v -0.04503406 -0.02401240 -0.01932377
v -0.04632133 -0.02357410 -0.01931900
v -0.04632133 -0.02401240 -0.01926743
f 1 2 3
f 1 3 4
f 1 4 8
f 1 8 16
f 1 16 17
f 1 17 9
f 1 9 5
f 1 5 10
f 1 10 11
f 1 11 6
f 1 6 2
f 2 6 12
f 2 12 21
f 2 21 20
f 2 20 13
f 2 13 7
f 2 7 3
f 3 7 4
f 4 7 13
f 4 13 26
f 4 26 31
f 4 31 34
f 4 34 32
f 4 32 27
f 4 27 14
f 4 14 8
f 5 9 10
f 6 11 12
f 8 14 15
f 8 15 16
f 9 17 15
f 9 15 10
f 10 15 18
f 10 18 28
f 10 28 33
f 10 33 34
f 10 34 31
f 10 31 30
f 10 30 25
f 10 25 24
f 10 24 23
f 10 23 22
f 10 22 19
f 10 19 11
f 11 19 13
f 11 13 20
f 11 20 21
f 11 21 12
f 13 19 22
f 13 22 23
f 13 23 24
f 13 24 25
f 13 25 26
f 14 27 28
f 14 28 18
f 14 18 29
f 14 29 15
f 15 17 16
f 15 29 18
f 25 30 26
f 26 30 31
f 27 32 28
f 28 32 33
f 32 34 33

