# https://github.com/mikedh/trimesh
v 0.01470897 0.04962609 -0.02018783
v 0.01487243 0.04899466 -0.02018783
v 0.01472364 0.04980078 -0.02018783
v 0.01537119 0.05082527 -0.02167518
v 0.01586925 0.05078706 -0.02295936
v 0.01595517 0.04967341 -0.02294445
v 0.01605716 0.04842600 -0.02263402
v 0.01497093 0.04862890 -0.02018783
v 0.01491993 0.05082527 -0.02018783
v 0.01558215 0.05202536 -0.02167518
v 0.01589789 0.05202536 -0.02269948
v 0.01628628 0.05036216 -0.02349824
v 0.01628628 0.05010467 -0.02349824
v 0.01619896 0.04769540 -0.02243765
v 0.01528737 0.04810301 -0.02018783
v 0.01521961 0.05196804 -0.02018783
v 0.01612911 0.05283331 -0.02250052
v 0.01656639 0.05036216 -0.02349824
v 0.01692824 0.05202536 -0.02312851
v 0.01656639 0.05010467 -0.02349824
v 0.01841753 0.04899648 -0.02348042
v 0.01806267 0.04852791 -0.02339844
v 0.01692824 0.04842600 -0.02319299
v 0.01579590 0.04728324 -0.02018783
v 0.01692824 0.04750615 -0.02265735
v 0.01860404 0.04658356 -0.02234239
v 0.01692824 0.04634609 -0.02018783
v 0.01684721 0.04639704 -0.02018783
v 0.01610675 0.04695296 -0.02018783
v 0.01697504 0.05500966 -0.02018783
v 0.01604808 0.05295159 -0.02167518
v 0.01740395 0.05390329 -0.02237511
v 0.01697364 0.05323000 -0.02263175
v 0.01928721 0.04951782 -0.02336927
v 0.01885971 0.04904652 -0.02348042
v 0.01812833 0.05322454 -0.02284076
v 0.02052782 0.05082527 -0.02304037
v 0.01885971 0.04899648 -0.02348042
v 0.01928721 0.04852791 -0.02333265
v 0.01817444 0.04716860 -0.02271989
v 0.01885691 0.04658356 -0.02234239
v 0.01807594 0.04600763 -0.02018783
v 0.01738020 0.05530263 -0.02018783
v 0.01812833 0.05399518 -0.02247621
v 0.02052782 0.04962609 -0.02319429
v 0.01908883 0.05397426 -0.02244284
v 0.01942413 0.05332644 -0.02262203
v 0.02022745 0.05299344 -0.02246779
v 0.02058720 0.05201444 -0.02262365
v 0.02131089 0.05082527 -0.02255366
v 0.02058859 0.04837687 -0.02277984
v 0.02022885 0.04754436 -0.02252288
v 0.01928512 0.04717678 -0.02266027
v 0.01967630 0.04672368 -0.02167518
v 0.01984465 0.04621053 -0.02018783
v 0.01937313 0.04604857 -0.02018783
v 0.01870882 0.05492050 -0.02018783
v 0.02139960 0.04962609 -0.02263759
v 0.02130670 0.04874445 -0.02248075
v 0.01988866 0.05379411 -0.02221698
v 0.02118794 0.05160683 -0.02236896
v 0.02158052 0.05082527 -0.02167518
v 0.02102868 0.04794470 -0.02192437
v 0.02050756 0.04661996 -0.02018783
v 0.01905460 0.05479676 -0.02018783
v 0.02168041 0.04962609 -0.02167518
v 0.02170207 0.04842600 -0.02018783
v 0.02159170 0.04810847 -0.02018783
v 0.02137306 0.04757257 -0.02018783
v 0.02003465 0.05392967 -0.02141757
v 0.02034830 0.05332644 -0.02176073
v 0.02097279 0.05234199 -0.02167518
v 0.02128644 0.05174149 -0.02167518
v 0.02150159 0.05188707 -0.02018783
v 0.02182012 0.05082527 -0.02018783
v 0.02023583 0.05413803 -0.02018783
v 0.02184457 0.04962609 -0.02018783
v 0.02183200 0.04923850 -0.02018783
f 1 2 8
f 1 8 15
f 1 15 24
f 1 24 29
f 1 29 28
f 1 28 27
f 1 27 42
f 1 42 56
f 1 56 55
f 1 55 64
f 1 64 69
f 1 69 68
f 1 68 67
f 1 67 78
f 1 78 77
f 1 77 75
f 1 75 74
f 1 74 76
f 1 76 65
f 1 65 57
f 1 57 43
f 1 43 30
f 1 30 16
f 1 16 9
f 1 9 3
f 1 3 4
f 1 4 5
f 1 5 6
f 1 6 7
f 1 7 2
f 2 7 8
f 3 9 10
f 3 10 11
f 3 11 4
f 4 11 5
f 5 11 12
f 5 12 13
f 5 13 6
f 6 13 7
f 7 14 8
f 7 13 14
f 8 14 15
f 9 16 10
f 10 16 17
f 10 17 11
f 11 17 12
f 12 18 20
f 12 20 13
f 12 17 19
f 12 19 18
f 13 20 38
f 13 38 21
f 13 21 22
f 13 22 23
f 13 23 14
f 14 24 15
f 14 23 25
f 14 25 26
f 14 26 27
f 14 27 28
f 14 28 29
f 14 29 24
f 16 30 31
f 16 31 17
f 17 31 30
f 17 30 32
f 17 32 33
f 17 33 19
f 18 34 35
f 18 35 38
f 18 38 20
f 18 19 36
f 18 36 37
f 18 37 34
f 19 33 36
f 21 38 22
f 22 38 39
f 22 39 40
f 22 40 23
f 23 40 25
f 25 40 26
f 26 41 42
f 26 42 27
f 26 40 41
f 30 43 32
f 32 43 44
f 32 44 33
f 33 44 36
f 34 37 45
f 34 45 35
f 35 45 38
f 36 44 46
f 36 46 47
f 36 47 37
f 37 47 48
f 37 48 49
f 37 49 50
f 37 50 45
f 38 45 39
f 39 45 51
f 39 51 52
f 39 52 53
f 39 53 40
f 40 53 41
f 41 54 55
f 41 55 56
f 41 56 42
f 41 53 52
f 41 52 54
f 43 57 46
f 43 46 44
f 45 58 59
f 45 59 51
f 45 50 58
f 46 57 60
f 46 60 47
f 47 60 48
f 48 60 61
f 48 61 49
f 49 61 50
f 50 61 62
f 50 62 58
f 51 59 52
f 52 59 63
f 52 63 64
f 52 64 54
f 54 64 55
f 57 65 60
f 58 66 59
f 58 62 66
f 59 66 67
f 59 67 68
f 59 68 69
f 59 69 63
f 60 65 70
f 60 70 71
f 60 71 61
f 61 71 72
f 61 72 73
f 61 73 62
f 62 73 74
f 62 74 75
f 62 75 66
f 63 69 64
f 65 76 70
f 66 77 78
f 66 78 67
f 66 75 77
f 70 76 71
f 71 76 72
f 72 76 74
f 72 74 73

