# https://github.com/mikedh/trimesh
v -0.00715415 -0.01523596 0.01752344
v -0.00228223 -0.01523596 0.01752344
v -0.00715415 -0.01523596 0.02186858
v -0.00715415 0.00073443 0.01752344
v -0.00228223 -0.01523596 0.02186858
v -0.00228223 0.00073443 0.01752344
v -0.00715415 -0.00435402 0.02186858
v -0.00715415 0.00073443 0.01888874
v -0.00228223 -0.00342856 0.02186858
v -0.00228223 0.00073443 0.01880537
v -0.00345539 -0.00349109 0.02186858
v -0.00261606 -0.00335978 0.02186858
v -0.00347208 0.00073443 0.01900868
v -0.00229273 0.00073443 0.01880877
v -0.00288359 0.00073443 0.01893850
v -0.00307483 0.00073443 0.01898018
f 1 2 5
f 1 5 3
f 1 3 7
f 1 7 8
f 1 8 4
f 1 4 6
f 1 6 2
f 2 6 10
f 2 10 9
f 2 9 5
f 3 5 9
f 3 9 12
f 3 12 11
f 3 11 7
f 4 8 13
f 4 13 16
f 4 16 15
f 4 15 14
f 4 14 10
f 4 10 6
f 7 11 8
f 8 11 12
f 8 12 13
f 9 10 14
f 9 14 15
f 9 15 16
f 9 16 12
f 12 16 13

