# https://github.com/mikedh/trimesh
v -0.02027252 -0.03365092 -0.01941558
v -0.01979546 -0.03365092 -0.01941226
v -0.02267222 -0.03365092 -0.01937992
v -0.02630454 -0.02729911 -0.02372092
v -0.01961001 -0.03365092 -0.01940231
v -0.02387142 -0.03365092 -0.01935421
v -0.02630454 -0.02722790 -0.02374580
v -0.02626129 -0.02722992 -0.02373999
v -0.01961001 -0.02759869 -0.02219514
v -0.02630454 -0.03365092 -0.01909301
v -0.01961001 -0.03365092 -0.01781600
v -0.02630454 -0.02678927 -0.02376652
v -0.02628423 -0.02678927 -0.02376901
v -0.02535043 -0.02678927 -0.02368194
v -0.02536878 -0.02686651 -0.02367034
v -0.01961001 -0.02708953 -0.02237094
v -0.01961001 -0.02745091 -0.02224738
v -0.02630454 -0.03365092 -0.01529764
v -0.01961001 -0.03317400 -0.01777951
v -0.02362699 -0.03365092 -0.01529764
v -0.02630454 -0.02678927 -0.02036918
v -0.01961001 -0.02678927 -0.02244225
v -0.02630454 -0.02868554 -0.01529764
v -0.01961001 -0.02678927 -0.01807389
v -0.02332228 -0.02968439 -0.01529764
v -0.02332228 -0.03007601 -0.01529764
v -0.02589433 -0.02678927 -0.02010052
v -0.02630454 -0.02852970 -0.01567577
v -0.02605160 -0.02732262 -0.01567577
v -0.02598476 -0.02725343 -0.01529764
v -0.02507193 -0.02679666 -0.01529764
v -0.02630454 -0.02858411 -0.01554309
v -0.02491269 -0.02678927 -0.01968093
v -0.02405621 -0.02725813 -0.01529764
v -0.02383931 -0.02765915 -0.01529764
v -0.02352149 -0.02833625 -0.01529764
v -0.02339567 -0.02876413 -0.01529764
f 1 2 5
f 1 5 11
f 1 11 20
f 1 20 18
f 1 18 10
f 1 10 6
f 1 6 3
f 1 3 4
f 1 4 2
f 2 4 5
f 3 6 4
f 4 7 8
f 4 8 9
f 4 9 5
f 4 6 10
f 4 10 18
f 4 18 23
f 4 23 32
f 4 32 28
f 4 28 21
f 4 21 12
f 4 12 7
f 5 9 17
f 5 17 16
f 5 16 22
f 5 22 24
f 5 24 19
f 5 19 11
f 7 12 13
f 7 13 14
f 7 14 8
f 8 14 15
f 8 15 16
f 8 16 17
f 8 17 9
f 11 19 20
f 12 21 27
f 12 27 33
f 12 33 24
f 12 24 22
f 12 22 14
f 12 14 13
f 14 22 15
f 15 22 16
f 18 20 26
f 18 26 25
f 18 25 37
f 18 37 36
f 18 36 35
f 18 35 34
f 18 34 31
f 18 31 30
f 18 30 23
f 19 24 25
f 19 25 26
f 19 26 20
f 21 28 29
f 21 29 30
f 21 30 31
f 21 31 27
f 23 30 29
f 23 29 32
f 24 33 31
f 24 31 34
f 24 34 35
f 24 35 36
f 24 36 37
f 24 37 25
f 27 31 33
f 28 32 29

