# https://github.com/mikedh/trimesh
v -0.00084545 -0.01756600 0.00783085
v 0.00712628 -0.01756600 0.00704735
v -0.00084545 -0.01756600 0.01007238
v -0.00084545 -0.01349464 0.00646853
v 0.00712628 -0.01756600 0.01038339
v -0.00084545 -0.01290985 0.00634492
v -0.00084545 -0.01277386 0.00632365
v -0.00084545 -0.01179979 0.00622729
v -0.00084545 -0.01157370 0.00621134
v 0.00012848 -0.01157370 0.00627780
v 0.00132873 -0.01037354 0.00633096
v 0.00132873 -0.00917338 0.00632897
v 0.00209273 -0.00917338 0.00643796
v 0.00712628 -0.00019937 0.00744076
v -0.00036473 -0.01756600 0.01019333
v 0.00372766 -0.01654774 0.01299241
v 0.00365821 -0.01653414 0.01299241
v 0.00256175 -0.01630974 0.01299241
v 0.00013629 -0.01565866 0.01299241
v -0.00084545 -0.01534077 0.01299241
v 0.00712628 -0.01653074 0.01299241
v 0.00012848 -0.01756600 0.01027773
v -0.00084545 -0.01037354 0.00620337
v -0.00084545 -0.00917338 0.00622397
v -0.00084545 -0.00820271 0.00624125
v -0.00084545 -0.00797492 0.00624723
v 0.00132873 -0.00797492 0.00637615
v -0.00084545 -0.00694985 0.00639609
v 0.00132873 -0.00019937 0.00754244
v 0.00712628 -0.00019937 0.01046579
v -0.00084545 -0.00019937 0.01299241
v 0.00712628 -0.00435064 0.01299241
v -0.00084545 -0.00019937 0.00761886
v 0.00643017 -0.00019937 0.01299241
f 1 2 5
f 1 5 22
f 1 22 15
f 1 15 3
f 1 3 20
f 1 20 31
f 1 31 33
f 1 33 28
f 1 28 26
f 1 26 25
f 1 25 24
f 1 24 23
f 1 23 9
f 1 9 8
f 1 8 7
f 1 7 6
f 1 6 4
f 1 4 2
f 2 4 6
f 2 6 7
f 2 7 8
f 2 8 9
f 2 9 10
f 2 10 11
f 2 11 12
f 2 12 13
f 2 13 14
f 2 14 30
f 2 30 32
f 2 32 21
f 2 21 5
f 3 15 16
f 3 16 17
f 3 17 18
f 3 18 19
f 3 19 20
f 5 21 16
f 5 16 22
f 9 23 11
f 9 11 10
f 11 23 12
f 12 23 24
f 12 24 25
f 12 25 26
f 12 26 27
f 12 27 14
f 12 14 13
f 14 27 26
f 14 26 28
f 14 28 29
f 14 29 33
f 14 33 31
f 14 31 34
f 14 34 30
f 15 22 16
f 16 21 32
f 16 32 34
f 16 34 31
f 16 31 20
f 16 20 19
f 16 19 18
f 16 18 17
f 28 33 29
f 30 34 32

