# https://github.com/mikedh/trimesh
v -0.02611882 0.03151078 0.00349449
v -0.02611882 0.03151078 0.00873075
v -0.02611882 0.03573694 0.00349449
v -0.02543850 0.03151078 0.00349449
v -0.02611882 0.03180773 0.00872306
v -0.00113242 0.03151078 0.00748524
v -0.02611882 0.03665193 0.00450935
v -0.01786836 0.03665193 0.00440837
v -0.01907068 0.03541131 0.00349449
v -0.01311352 0.03340115 0.00349449
v -0.00347273 0.03325369 0.00395528
v -0.00084792 0.03151078 0.00609878
v -0.02611882 0.03665193 0.00829918
v -0.02267020 0.03665193 0.00827868
v -0.02362018 0.03665193 0.00831968
v -0.02387005 0.03665193 0.00832378
v -0.00111263 0.03151078 0.00748422
v -0.01667594 0.03665193 0.00445348
v -0.01789558 0.03535293 0.00349449
v -0.01272017 0.03399756 0.00349449
v -0.00227289 0.03332113 0.00401166
v -0.00130065 0.03337951 0.00407163
v -0.00084792 0.03328439 0.00448885
v -0.00084792 0.03151078 0.00745244
v -0.02245745 0.03665193 0.00825561
v -0.00084792 0.03180924 0.00739554
v -0.00084792 0.03282589 0.00711056
v -0.01667099 0.03523465 0.00349449
v -0.01561959 0.03665193 0.00452677
v -0.01309868 0.03444096 0.00349449
v -0.00084792 0.03399806 0.00408444
v -0.00227289 0.03375648 0.00401166
v -0.00084792 0.03385865 0.00409982
v -0.02141099 0.03665193 0.00810441
v -0.00084792 0.03300657 0.00704342
v -0.00084792 0.03372829 0.00675331
v -0.01658935 0.03522509 0.00349449
v -0.01446180 0.03665193 0.00469233
v -0.00084792 0.03418478 0.00409315
v -0.01547115 0.03522509 0.00358316
v -0.01430842 0.03489141 0.00349449
v -0.01296509 0.03665193 0.00681482
v -0.00084792 0.03384154 0.00664773
v -0.01526334 0.03504843 0.00349449
v -0.01421936 0.03665193 0.00473487
v -0.00084792 0.03462265 0.00472513
v -0.00084792 0.03434080 0.00592195
v -0.00084792 0.03441730 0.00580765
v -0.00084792 0.03452149 0.00560211
v -0.01187410 0.03665193 0.00622641
v -0.01240351 0.03665193 0.00536480
v -0.00084792 0.03460554 0.00523308
v -0.01187410 0.03665193 0.00559186
v -0.01168608 0.03665193 0.00573538
v -0.01160692 0.03665193 0.00592502
f 1 2 5
f 1 5 13
f 1 13 7
f 1 7 3
f 1 3 9
f 1 9 19
f 1 19 28
f 1 28 37
f 1 37 44
f 1 44 41
f 1 41 30
f 1 30 20
f 1 20 10
f 1 10 4
f 1 4 12
f 1 12 24
f 1 24 17
f 1 17 6
f 1 6 2
f 2 6 5
f 3 7 8
f 3 8 9
f 4 10 11
f 4 11 12
f 5 6 14
f 5 14 15
f 5 15 16
f 5 16 13
f 6 17 14
f 7 13 16
f 7 16 15
f 7 15 14
f 7 14 25
f 7 25 34
f 7 34 42
f 7 42 50
f 7 50 55
f 7 55 54
f 7 54 53
f 7 53 51
f 7 51 45
f 7 45 38
f 7 38 29
f 7 29 18
f 7 18 8
f 8 18 19
f 8 19 9
f 10 20 11
f 11 20 21
f 11 21 12
f 12 21 22
f 12 22 23
f 12 23 33
f 12 33 31
f 12 31 39
f 12 39 46
f 12 46 52
f 12 52 49
f 12 49 48
f 12 48 47
f 12 47 43
f 12 43 36
f 12 36 35
f 12 35 27
f 12 27 26
f 12 26 24
f 14 17 26
f 14 26 27
f 14 27 25
f 17 24 26
f 18 28 19
f 18 29 28
f 20 30 31
f 20 31 32
f 20 32 21
f 21 32 31
f 21 31 22
f 22 31 33
f 22 33 23
f 25 27 35
f 25 35 36
f 25 36 34
f 28 29 37
f 29 38 39
f 29 39 40
f 29 40 37
f 30 41 39
f 30 39 31
f 34 36 42
f 36 43 42
f 37 40 39
f 37 39 44
f 38 45 39
f 39 41 44
f 39 45 46
f 42 43 47
f 42 47 48
f 42 48 49
f 42 49 50
f 45 51 46
f 46 51 53
f 46 53 54
f 46 54 55
f 46 55 52
f 49 52 50
f 50 52 55

