# https://github.com/mikedh/trimesh
v 0.01269886 -0.02709023 0.01752344
v 0.01269886 -0.02704870 0.01568201
v 0.01332815 -0.02706946 0.01568201
v 0.01332815 -0.02710868 0.01752344
v 0.01269886 -0.00354282 0.01752344
v 0.01269886 -0.00638762 0.01568201
v 0.01441433 -0.02684105 0.01568201
v 0.01436735 -0.02685951 0.01752344
v 0.01275038 -0.00368126 0.01752344
v 0.01600926 -0.01282704 0.01568201
v 0.01269886 -0.00359820 0.01743457
v 0.01269886 -0.00588234 0.01591976
v 0.01493604 -0.02652035 0.01568201
v 0.01501446 -0.02646036 0.01568201
v 0.01496747 -0.02640037 0.01752344
v 0.01600926 -0.01643552 0.01752344
v 0.01600926 -0.01310391 0.01641184
v 0.01600926 -0.02515448 0.01568201
v 0.01269886 -0.00371587 0.01726622
v 0.01508154 -0.02638191 0.01568201
v 0.01547168 -0.02580050 0.01752344
v 0.01600926 -0.02513602 0.01752344
v 0.01548497 -0.02586048 0.01568201
v 0.01567226 -0.02555593 0.01752344
f 1 2 3
f 1 3 4
f 1 4 8
f 1 8 15
f 1 15 21
f 1 21 24
f 1 24 22
f 1 22 16
f 1 16 9
f 1 9 5
f 1 5 11
f 1 11 19
f 1 19 12
f 1 12 6
f 1 6 2
f 2 6 10
f 2 10 18
f 2 18 23
f 2 23 20
f 2 20 14
f 2 14 13
f 2 13 7
f 2 7 3
f 3 7 4
f 4 7 8
f 5 9 10
f 5 10 11
f 6 12 10
f 7 13 8
f 8 13 14
f 8 14 15
f 9 16 17
f 9 17 10
f 10 12 19
f 10 19 11
f 10 17 16
f 10 16 22
f 10 22 18
f 14 20 15
f 15 20 21
f 18 22 23
f 20 23 22
f 20 22 24
f 20 24 21

