# https://github.com/mikedh/trimesh
v -0.02026711 -0.04660254 -0.02018662
v -0.02127710 -0.04660254 -0.01994138
v -0.02300068 -0.04346908 -0.01954314
v -0.02267133 -0.04346908 -0.01956101
v -0.02146922 -0.04346908 -0.01959962
v 0.00373126 -0.04310822 -0.01970687
v 0.00407158 -0.04310822 -0.01970759
v 0.01457224 -0.04310822 -0.01971331
v 0.01812369 -0.04635216 -0.02003147
v -0.00016052 -0.04660254 -0.01962822
v -0.02300068 -0.04660254 -0.01920138
v -0.02300068 -0.04397496 -0.01953599
v -0.02300068 -0.04383643 -0.01953814
v -0.02300068 -0.04364626 -0.01954100
v -0.02300068 -0.04346908 -0.01769063
v -0.00015503 -0.04310822 -0.01962894
v 0.00002611 -0.04310822 -0.01963752
v 0.00013590 -0.04310822 -0.01964181
v 0.02532540 -0.04310822 -0.01964753
v 0.03285645 -0.04310822 -0.01958676
v 0.03307602 -0.04635216 -0.01937655
v -0.00016052 -0.04660254 -0.01567082
v -0.02300068 -0.04660254 -0.01731670
v -0.02300068 -0.04346976 -0.01767562
v -0.02299519 -0.04346908 -0.01767490
v -0.00015503 -0.04310822 -0.01294389
v 0.03307602 -0.04310822 -0.01957603
v 0.03307602 -0.04635216 -0.01668823
v 0.01920505 -0.04635216 -0.01385334
v 0.01695451 -0.04635216 -0.01353089
v -0.01902108 -0.04660254 -0.01391054
v -0.02204009 -0.04660254 -0.01464554
v -0.02300068 -0.04657346 -0.01728881
v -0.02300068 -0.04539923 -0.01734744
v -0.02099167 -0.04346908 -0.01374467
v 0.00253464 -0.04310822 -0.01288312
v -0.02026711 -0.04346908 -0.01338932
v -0.01906499 -0.04346908 -0.01317697
v 0.03307602 -0.04310822 -0.01568297
v 0.03307602 -0.04393255 -0.01589246
v 0.01452284 -0.04310822 -0.01291458
v 0.01692158 -0.04635216 -0.01352803
v -0.01907048 -0.04660254 -0.01390840
v -0.02300068 -0.04643699 -0.01720731
v -0.02300068 -0.04647085 -0.01722733
v -0.02178759 -0.04660254 -0.01448038
v 0.00257306 -0.04310822 -0.01288312
v -0.02044276 -0.04660254 -0.01409429
v 0.01332622 -0.04310822 -0.01288455
f 1 2 3
f 1 3 4
f 1 4 5
f 1 5 6
f 1 6 7
f 1 7 8
f 1 8 9
f 1 9 10
f 1 10 22
f 1 22 31
f 1 31 43
f 1 43 48
f 1 48 46
f 1 46 32
f 1 32 23
f 1 23 11
f 1 11 2
f 2 11 12
f 2 12 13
f 2 13 14
f 2 14 3
f 3 14 13
f 3 13 12
f 3 12 11
f 3 11 23
f 3 23 33
f 3 33 45
f 3 45 44
f 3 44 34
f 3 34 24
f 3 24 15
f 3 15 26
f 3 26 16
f 3 16 4
f 4 16 17
f 4 17 18
f 4 18 5
f 5 18 6
f 6 18 17
f 6 17 16
f 6 16 26
f 6 26 36
f 6 36 47
f 6 47 49
f 6 49 41
f 6 41 39
f 6 39 27
f 6 27 20
f 6 20 19
f 6 19 8
f 6 8 7
f 8 19 9
f 9 19 20
f 9 20 21
f 9 21 10
f 10 21 28
f 10 28 22
f 15 24 25
f 15 25 26
f 20 27 21
f 21 27 39
f 21 39 40
f 21 40 28
f 22 28 29
f 22 29 30
f 22 30 31
f 23 32 33
f 24 34 32
f 24 32 35
f 24 35 25
f 25 35 26
f 26 35 37
f 26 37 38
f 26 38 36
f 28 40 29
f 29 40 39
f 29 39 41
f 29 41 30
f 30 42 31
f 30 41 42
f 31 42 43
f 32 44 45
f 32 45 33
f 32 46 35
f 32 34 44
f 35 46 37
f 36 38 43
f 36 43 42
f 36 42 47
f 37 46 48
f 37 48 38
f 38 48 43
f 41 49 42
f 42 49 47

