# https://github.com/mikedh/trimesh
v -0.01687571 -0.03317723 0.00574213
v -0.01687571 -0.03317723 0.00570841
v -0.01757069 -0.03317723 0.00634174
v -0.01687028 -0.03793037 0.01159346
v -0.01687028 -0.03781617 0.01096918
v -0.01687028 -0.03779672 0.01080221
v -0.01688114 -0.03317723 0.00465395
v -0.01687028 -0.03821713 0.00611719
v -0.01687028 -0.03825097 0.00590499
v -0.01687028 -0.03840492 0.00510551
v -0.01687028 -0.03895984 0.00334945
v -0.01817066 -0.03317723 0.00666992
v -0.01907333 -0.03820529 0.01175221
v -0.01787204 -0.03811478 0.01169052
v -0.01687028 -0.03886087 0.01161485
v -0.01907333 -0.03317723 0.00694217
v -0.02747155 -0.03317723 0.00830343
v -0.02867149 -0.03317723 0.00831988
v -0.01693543 -0.03317723 0.00454291
v -0.02147321 -0.03317723 0.00340949
v -0.02027327 -0.03317723 0.00347612
v -0.01907333 -0.03317723 0.00362910
v -0.01903533 -0.03317723 0.00363651
v -0.01771729 -0.03317723 0.00391616
v -0.01687028 -0.04136813 0.00334945
v -0.02977506 -0.03317723 0.00334945
v -0.02027327 -0.03831187 0.01169628
v -0.02747155 -0.03955113 0.01154576
v -0.02987143 -0.04063219 0.01158935
v -0.01907333 -0.03896491 0.01175221
v -0.03073610 -0.03317723 0.00828780
v -0.01787204 -0.03891839 0.01169052
v -0.01687028 -0.03895899 0.01147338
v -0.02987143 -0.04127339 0.01158935
v -0.03073610 -0.04150433 0.01152191
v -0.01907333 -0.04144511 0.00334945
v -0.01687028 -0.03976006 0.01010883
v -0.03073610 -0.04181731 0.01069775
v -0.02507168 -0.04167774 0.00472551
v -0.03073610 -0.03317723 0.00334945
v -0.02461830 -0.03853942 0.01137468
v -0.03073610 -0.04077092 0.01151533
v -0.03073610 -0.04130892 0.01152191
v -0.01687028 -0.03947838 0.01065087
v -0.03073610 -0.04175386 0.01096178
v -0.01713633 -0.03978798 0.01015489
v -0.01687028 -0.03959004 0.01044771
v -0.02627161 -0.04167350 0.00352547
v -0.02644672 -0.04164390 0.00334945
v -0.03073610 -0.04136559 0.00334945
f 1 2 7
f 1 7 19
f 1 19 24
f 1 24 23
f 1 23 22
f 1 22 21
f 1 21 20
f 1 20 26
f 1 26 40
f 1 40 31
f 1 31 18
f 1 18 17
f 1 17 16
f 1 16 12
f 1 12 3
f 1 3 4
f 1 4 5
f 1 5 6
f 1 6 2
f 2 6 8
f 2 8 9
f 2 9 10
f 2 10 11
f 2 11 7
f 3 12 4
f 4 13 14
f 4 14 15
f 4 15 33
f 4 33 44
f 4 44 47
f 4 47 37
f 4 37 25
f 4 25 11
f 4 11 10
f 4 10 9
f 4 9 8
f 4 8 6
f 4 6 5
f 4 12 16
f 4 16 17
f 4 17 18
f 4 18 13
f 7 11 19
f 11 20 21
f 11 21 22
f 11 22 23
f 11 23 24
f 11 24 19
f 11 25 36
f 11 36 49
f 11 49 50
f 11 50 40
f 11 40 26
f 11 26 20
f 13 27 28
f 13 28 29
f 13 29 34
f 13 34 30
f 13 30 32
f 13 32 14
f 13 18 31
f 13 31 27
f 14 32 15
f 15 32 34
f 15 34 35
f 15 35 33
f 25 37 38
f 25 38 39
f 25 39 36
f 27 31 41
f 27 41 28
f 28 41 31
f 28 31 42
f 28 42 29
f 29 42 43
f 29 43 35
f 29 35 34
f 30 34 32
f 31 40 50
f 31 50 38
f 31 38 45
f 31 45 35
f 31 35 43
f 31 43 42
f 33 35 44
f 35 45 46
f 35 46 47
f 35 47 44
f 36 39 48
f 36 48 49
f 37 47 46
f 37 46 45
f 37 45 38
f 38 50 48
f 38 48 39
f 48 50 49

