# https://github.com/mikedh/trimesh
v 0.03852581 0.03282571 -0.01978997
v 0.04537984 0.03723756 -0.01948749
v 0.04537984 0.03402588 -0.01944386
v 0.04332785 0.03168209 -0.01951270
v 0.03852581 0.03168209 -0.01963485
v 0.03732728 0.03168209 -0.01964649
v 0.01932820 0.03402588 -0.01960868
v 0.01846947 0.03488345 -0.01966394
v 0.01846947 0.03723756 -0.01972986
v 0.04537984 0.03723756 -0.01782386
v 0.04537984 0.03317374 -0.01942544
v 0.04537984 0.03282571 -0.01941284
v 0.04452638 0.03168209 -0.01940993
v 0.02413024 0.03168209 -0.01936437
v 0.02287639 0.03168209 -0.01931298
v 0.01846947 0.03402588 -0.01954760
v 0.01846947 0.03723756 -0.01558823
v 0.04537984 0.03370286 -0.01666823
v 0.04217673 0.03723756 -0.01437443
v 0.04537984 0.03168209 -0.01931686
v 0.02047142 0.03168209 -0.01908710
v 0.01846947 0.03368437 -0.01945841
v 0.01846947 0.03489813 -0.01367252
v 0.03202475 0.03723756 -0.00988669
v 0.04537984 0.03285834 -0.01650148
v 0.03960844 0.03168209 -0.00988669
v 0.04211615 0.03723756 -0.01431626
v 0.04537984 0.03168209 -0.01644234
v 0.01944410 0.03168209 -0.01884279
v 0.01942830 0.03168209 -0.01883794
v 0.01846947 0.03168209 -0.01852964
v 0.01846947 0.03396660 -0.01365119
v 0.02493628 0.03168209 -0.00988669
v 0.03425851 0.03723756 -0.00988669
v 0.04537984 0.03239774 -0.01645688
v 0.04537984 0.03170657 -0.01644234
v 0.04162620 0.03723756 -0.01385575
v 0.03811489 0.03339398 -0.00988669
v 0.01846947 0.03168209 -0.01666144
v 0.01846947 0.03346467 -0.01381407
v 0.01851952 0.03339887 -0.01383249
v 0.02135122 0.03168209 -0.01362114
v 0.03488807 0.03661219 -0.00988669
v 0.03800952 0.03350981 -0.00988669
f 1 2 3
f 1 3 4
f 1 4 5
f 1 5 6
f 1 6 7
f 1 7 8
f 1 8 9
f 1 9 2
f 2 10 18
f 2 18 25
f 2 25 35
f 2 35 36
f 2 36 28
f 2 28 20
f 2 20 12
f 2 12 11
f 2 11 3
f 2 9 17
f 2 17 24
f 2 24 34
f 2 34 37
f 2 37 27
f 2 27 19
f 2 19 10
f 3 11 4
f 4 11 12
f 4 12 13
f 4 13 20
f 4 20 28
f 4 28 26
f 4 26 33
f 4 33 42
f 4 42 39
f 4 39 31
f 4 31 30
f 4 30 29
f 4 29 21
f 4 21 15
f 4 15 14
f 4 14 6
f 4 6 5
f 6 14 7
f 7 14 15
f 7 15 16
f 7 16 8
f 8 16 22
f 8 22 31
f 8 31 39
f 8 39 40
f 8 40 32
f 8 32 23
f 8 23 17
f 8 17 9
f 10 19 18
f 12 20 13
f 15 21 22
f 15 22 16
f 17 23 24
f 18 19 26
f 18 26 25
f 19 27 26
f 21 29 22
f 22 29 30
f 22 30 31
f 23 32 33
f 23 33 24
f 24 33 26
f 24 26 38
f 24 38 44
f 24 44 43
f 24 43 34
f 25 26 35
f 26 28 36
f 26 36 35
f 26 27 37
f 26 37 38
f 32 40 33
f 33 40 41
f 33 41 42
f 34 43 37
f 37 43 44
f 37 44 38
f 39 41 40
f 39 42 41

