# https://github.com/mikedh/trimesh
v 0.04363869 0.00030136 -0.01933934
v 0.04932745 0.00042663 -0.01937994
v 0.04932745 0.00030136 -0.01935935
v 0.04363869 0.00030136 -0.01867225
v 0.04363869 0.00522579 -0.01947994
v 0.04452839 0.00522579 -0.01949817
v 0.04452839 0.00402661 -0.01946170
v 0.05052782 0.00282621 -0.01939405
v 0.05179686 0.00041933 -0.01932464
v 0.05179686 0.00035731 -0.01932052
v 0.04572875 0.01242453 -0.01965877
v 0.05179686 0.00030136 -0.01930993
v 0.04443494 0.00030136 -0.01576448
v 0.04363869 0.00030623 -0.01540093
v 0.04363869 0.01272614 -0.01953347
v 0.04422730 0.01272614 -0.01959230
v 0.04452839 0.01272614 -0.01960818
v 0.04542766 0.01272614 -0.01965112
v 0.05179686 0.00762537 -0.01938640
v 0.05179686 0.01272614 -0.01930523
v 0.05179686 0.00030136 -0.01642863
v 0.05179686 0.00046433 -0.01636156
v 0.04363869 0.00914563 -0.01375203
v 0.04363869 0.01272614 -0.01384439
v 0.05179686 0.01272614 -0.01719101
v 0.05179686 0.00058839 -0.01636215
v 0.04406677 0.01122534 -0.01377439
v 0.04363869 0.01052846 -0.01364968
v 0.04363869 0.01002495 -0.01365791
v 0.04363869 0.00939495 -0.01370791
v 0.04376967 0.01272614 -0.01379674
v 0.04402843 0.01272614 -0.01379674
v 0.05179686 0.01129345 -0.01705806
v 0.05179686 0.00394877 -0.01654863
f 1 2 3
f 1 3 12
f 1 12 21
f 1 21 13
f 1 13 4
f 1 4 14
f 1 14 23
f 1 23 30
f 1 30 29
f 1 29 28
f 1 28 24
f 1 24 15
f 1 15 5
f 1 5 6
f 1 6 7
f 1 7 2
f 2 8 9
f 2 9 10
f 2 10 3
f 2 7 6
f 2 6 11
f 2 11 8
f 3 10 12
f 4 13 14
f 5 15 16
f 5 16 17
f 5 17 18
f 5 18 11
f 5 11 6
f 8 11 19
f 8 19 9
f 9 19 20
f 9 20 25
f 9 25 33
f 9 33 34
f 9 34 26
f 9 26 22
f 9 22 21
f 9 21 12
f 9 12 10
f 11 18 20
f 11 20 19
f 13 21 14
f 14 21 22
f 14 22 23
f 15 24 31
f 15 31 32
f 15 32 25
f 15 25 20
f 15 20 18
f 15 18 17
f 15 17 16
f 22 26 27
f 22 27 28
f 22 28 29
f 22 29 30
f 22 30 23
f 24 28 31
f 25 32 33
f 26 34 32
f 26 32 27
f 27 32 28
f 28 32 31
f 32 34 33

