# https://github.com/mikedh/trimesh
v 0.01281932 0.00028823 0.01974883
v 0.01280821 0.00028823 0.01994491
v 0.01297664 -0.00437426 0.01974883
v 0.00837120 0.00028823 0.01974883
v 0.01280709 0.00028823 0.01995861
v 0.01284767 -0.00516274 0.01974883
v 0.01280765 -0.00461770 0.02186858
v 0.01278764 -0.00517621 0.02186858
v 0.00729780 -0.00436672 0.01974883
v 0.00836842 0.00028823 0.02018768
v 0.01279431 -0.00443835 0.02186858
v 0.01255306 0.00028823 0.02054768
v 0.01269759 -0.00383083 0.02186858
v 0.01236795 -0.00520475 0.02186858
v 0.00937567 -0.00521391 0.01974883
v 0.00729780 -0.00521391 0.01974883
v 0.00729780 -0.00439096 0.02041758
v 0.00729780 -0.00446259 0.02186858
v 0.00837120 0.00028823 0.02032504
v 0.01194437 0.00028823 0.02155568
v 0.01164198 0.00028823 0.02186858
v 0.00943070 -0.00521391 0.02186858
v 0.00729780 -0.00521391 0.02186858
v 0.00869194 0.00028823 0.02186858
v 0.00858354 0.00028823 0.02157954
v 0.00856575 0.00028823 0.02153203
v 0.00852184 0.00028823 0.02138761
f 1 2 3
f 1 3 6
f 1 6 15
f 1 15 16
f 1 16 9
f 1 9 4
f 1 4 10
f 1 10 19
f 1 19 27
f 1 27 26
f 1 26 25
f 1 25 24
f 1 24 21
f 1 21 20
f 1 20 12
f 1 12 5
f 1 5 2
f 2 5 3
f 3 5 7
f 3 7 8
f 3 8 6
f 4 9 10
f 5 11 7
f 5 12 13
f 5 13 11
f 6 8 14
f 6 14 15
f 7 11 13
f 7 13 21
f 7 21 24
f 7 24 18
f 7 18 23
f 7 23 22
f 7 22 14
f 7 14 8
f 9 16 23
f 9 23 18
f 9 18 17
f 9 17 10
f 10 17 18
f 10 18 19
f 12 20 13
f 13 20 21
f 14 22 15
f 15 22 23
f 15 23 16
f 18 24 25
f 18 25 26
f 18 26 27
f 18 27 19

