# https://github.com/mikedh/trimesh
v 0.05562302 0.03168209 -0.01640734
v 0.05305614 0.03168209 -0.01640734
v 0.05639681 0.03167595 -0.01640734
v 0.05634080 0.03168209 -0.01673967
v 0.05179687 0.03168209 -0.01695542
v 0.05179687 0.02340687 -0.01640734
v 0.05649127 0.03114761 -0.01640734
v 0.05717171 0.03007251 -0.01855046
v 0.05677191 0.03162373 -0.01807581
v 0.05674994 0.03168209 -0.01807051
v 0.05179687 0.03168209 -0.01896757
v 0.05179687 0.00036587 -0.01640734
v 0.05661539 0.03042269 -0.01640734
v 0.05717171 0.02969162 -0.01855046
v 0.05740731 0.01842453 -0.02047480
v 0.05740511 0.01962250 -0.02047480
v 0.05717171 0.03007251 -0.01873744
v 0.05674500 0.03168209 -0.01812047
v 0.05412815 0.03168209 -0.01958000
v 0.05179687 0.03163909 -0.01901148
v 0.05179687 0.00030136 -0.01642853
v 0.05188309 0.00030136 -0.01640734
v 0.05727001 0.01722349 -0.01968598
v 0.05556261 0.00284782 -0.01640734
v 0.05728484 0.01842453 -0.01967009
v 0.05736832 0.01722349 -0.02047480
v 0.05722608 0.01722349 -0.02125907
v 0.05725024 0.01842453 -0.02131358
v 0.05724970 0.01962250 -0.02129616
v 0.05632487 0.03155001 -0.01935062
v 0.05631279 0.03168209 -0.01931807
v 0.05720411 0.02082355 -0.02119548
v 0.05715414 0.02148704 -0.02111145
v 0.05517763 0.03168209 -0.01976320
v 0.05179687 0.02159148 -0.02356495
v 0.05179687 0.00030136 -0.01931050
v 0.05531712 0.00030136 -0.01640734
v 0.05606840 0.00030136 -0.01842404
v 0.05615243 0.00030136 -0.01918786
v 0.05616286 0.00042730 -0.01927568
v 0.05615298 0.00030136 -0.01928401
v 0.05718269 0.01628661 -0.02117277
v 0.05679827 0.01722349 -0.02185863
v 0.05686472 0.01842453 -0.02191313
v 0.05680321 0.01962250 -0.02189572
v 0.05594923 0.03110154 -0.01988962
v 0.05622382 0.03168209 -0.01936879
v 0.05620350 0.01962250 -0.02251345
v 0.05529955 0.03168209 -0.01976244
v 0.05179687 0.02155462 -0.02357933
v 0.05185233 0.00030136 -0.01932640
v 0.05179687 0.01583507 -0.02361340
v 0.05602557 0.00030136 -0.01991460
v 0.05601459 0.00030136 -0.01996684
v 0.05619801 0.01722349 -0.02250437
v 0.05626446 0.01842453 -0.02257704
v 0.05530394 0.01972080 -0.02317811
v 0.05488766 0.01938598 -0.02357630
v 0.05470369 0.02018463 -0.02346199
v 0.05423414 0.01972080 -0.02377313
v 0.05381291 0.02082355 -0.02359674
v 0.05353118 0.02142561 -0.02347562
v 0.05292818 0.02082355 -0.02376783
v 0.05179687 0.02082355 -0.02380719
v 0.05451312 0.00030136 -0.01997365
v 0.05179687 0.01594565 -0.02364292
v 0.05541598 0.00030136 -0.02005390
v 0.05292818 0.01722349 -0.02399645
v 0.05419844 0.01721120 -0.02369818
v 0.05480419 0.01760438 -0.02351801
v 0.05490523 0.01842453 -0.02358311
v 0.05525342 0.01721120 -0.02315691
v 0.05550494 0.01842453 -0.02317660
v 0.05412815 0.01842453 -0.02390636
v 0.05292818 0.01962250 -0.02408805
v 0.05179687 0.02075597 -0.02382536
v 0.05532756 0.00030136 -0.02006298
v 0.05179687 0.01722349 -0.02393664
v 0.05292818 0.01842453 -0.02414104
v 0.05179687 0.01955493 -0.02401310
v 0.05179687 0.01962250 -0.02401008
v 0.05179687 0.01842453 -0.02403506
f 1 2 6
f 1 6 12
f 1 12 22
f 1 22 37
f 1 37 24
f 1 24 13
f 1 13 7
f 1 7 3
f 1 3 4
f 1 4 10
f 1 10 18
f 1 18 31
f 1 31 47
f 1 47 49
f 1 49 34
f 1 34 19
f 1 19 11
f 1 11 5
f 1 5 2
f 2 5 6
f 3 7 8
f 3 8 9
f 3 9 10
f 3 10 4
f 5 11 20
f 5 20 35
f 5 35 50
f 5 50 64
f 5 64 76
f 5 76 81
f 5 81 80
f 5 80 82
f 5 82 78
f 5 78 66
f 5 66 52
f 5 52 36
f 5 36 21
f 5 21 12
f 5 12 6
f 7 13 8
f 8 13 14
f 8 14 15
f 8 15 16
f 8 16 17
f 8 17 9
f 9 18 10
f 9 17 18
f 11 19 20
f 12 21 22
f 13 23 14
f 13 24 23
f 14 23 25
f 14 25 15
f 15 25 23
f 15 23 26
f 15 26 27
f 15 27 28
f 15 28 16
f 16 28 29
f 16 29 17
f 17 30 31
f 17 31 18
f 17 29 32
f 17 32 33
f 17 33 30
f 19 34 35
f 19 35 20
f 21 36 51
f 21 51 65
f 21 65 77
f 21 77 67
f 21 67 54
f 21 54 53
f 21 53 41
f 21 41 39
f 21 39 38
f 21 38 37
f 21 37 22
f 23 24 38
f 23 38 26
f 24 37 38
f 26 38 39
f 26 39 40
f 26 40 41
f 26 41 42
f 26 42 27
f 27 43 44
f 27 44 28
f 27 42 43
f 28 44 29
f 29 44 45
f 29 45 32
f 30 46 31
f 30 33 46
f 31 46 47
f 32 45 33
f 33 45 48
f 33 48 46
f 34 49 50
f 34 50 35
f 36 52 51
f 39 41 40
f 41 53 42
f 42 53 54
f 42 54 43
f 43 55 56
f 43 56 44
f 43 54 55
f 44 56 45
f 45 56 48
f 46 49 47
f 46 48 57
f 46 57 58
f 46 58 59
f 46 59 60
f 46 60 61
f 46 61 62
f 46 62 63
f 46 63 49
f 48 56 58
f 48 58 57
f 49 63 50
f 50 63 64
f 51 52 65
f 52 66 65
f 54 67 68
f 54 68 69
f 54 69 70
f 54 70 71
f 54 71 72
f 54 72 73
f 54 73 55
f 55 73 56
f 56 73 58
f 58 60 59
f 58 73 71
f 58 71 74
f 58 74 60
f 60 74 75
f 60 75 61
f 61 75 63
f 61 63 62
f 63 75 76
f 63 76 64
f 65 66 77
f 66 78 68
f 66 68 77
f 67 77 68
f 68 78 79
f 68 79 74
f 68 74 69
f 69 74 70
f 70 74 71
f 71 73 72
f 74 79 75
f 75 80 81
f 75 81 76
f 75 79 80
f 78 82 79
f 79 82 80

