# https://github.com/mikedh/trimesh
v -0.05186220 0.01527642 -0.02276821
v -0.05026977 0.01492264 -0.02269727
v -0.05147029 0.01491439 -0.02268700
v -0.05267081 0.01527642 -0.02271967
v -0.04907151 0.01527642 -0.02266740
v -0.05028104 0.01431703 -0.02163785
v -0.04907151 0.01508496 -0.02260393
v -0.03515409 0.01348365 -0.01917272
v -0.05142749 0.01432159 -0.02163785
v -0.05627010 0.01348365 -0.01963103
v -0.05267081 0.01501248 -0.02264313
v -0.05303569 0.01527642 -0.02269074
v -0.03515409 0.01527642 -0.01926606
v -0.03515409 0.01362544 -0.01918952
v -0.04907827 0.01348365 -0.01962449
v -0.03515409 0.01348365 -0.01703335
v -0.05743683 0.01348365 -0.01920539
v -0.05360329 0.01521096 -0.02249379
v -0.05363482 0.01527642 -0.02252179
v -0.03515409 0.01527642 -0.01773714
v -0.03569015 0.01348365 -0.01323345
v -0.03569240 0.01362544 -0.01323345
v -0.05796839 0.01348365 -0.01807130
v -0.05743908 0.01362544 -0.01920446
v -0.05379924 0.01527642 -0.02239485
v -0.03582079 0.01527642 -0.01323345
v -0.03576673 0.01481998 -0.01323345
v -0.04636190 0.01348365 -0.01323345
v -0.05813281 0.01348365 -0.01545030
v -0.05816434 0.01527642 -0.01565098
v -0.05796163 0.01362544 -0.01807504
v -0.05733998 0.01527642 -0.01917646
v -0.04649479 0.01527642 -0.01323345
v -0.04639119 0.01362544 -0.01323345
v -0.05627010 0.01527642 -0.01343880
v -0.05734899 0.01348365 -0.01357695
v -0.05813281 0.01348365 -0.01480158
v -0.05815759 0.01527642 -0.01478477
v -0.05809452 0.01527642 -0.01616155
v -0.05777243 0.01527642 -0.01806010
v -0.05752016 0.01527642 -0.01878256
v -0.04650831 0.01504951 -0.01323345
v -0.04642046 0.01395641 -0.01323345
v -0.05693004 0.01527642 -0.01349014
v -0.04649479 0.01482542 -0.01323345
v -0.05732646 0.01482542 -0.01357041
v -0.05733322 0.01527642 -0.01357228
v -0.05741881 0.01348365 -0.01363389
v -0.05794812 0.01348365 -0.01420140
v -0.05793235 0.01527642 -0.01418553
f 1 2 3
f 1 3 4
f 1 4 12
f 1 12 19
f 1 19 25
f 1 25 32
f 1 32 41
f 1 41 40
f 1 40 39
f 1 39 30
f 1 30 38
f 1 38 50
f 1 50 47
f 1 47 44
f 1 44 35
f 1 35 33
f 1 33 26
f 1 26 20
f 1 20 13
f 1 13 5
f 1 5 2
f 2 6 3
f 2 5 7
f 2 7 8
f 2 8 6
f 3 6 9
f 3 9 10
f 3 10 11
f 3 11 4
f 4 11 12
f 5 13 14
f 5 14 8
f 5 8 7
f 6 15 10
f 6 10 9
f 6 8 15
f 8 14 13
f 8 13 20
f 8 20 16
f 8 16 21
f 8 21 28
f 8 28 36
f 8 36 48
f 8 48 49
f 8 49 37
f 8 37 29
f 8 29 23
f 8 23 17
f 8 17 10
f 8 10 15
f 10 17 11
f 11 17 18
f 11 18 12
f 12 18 19
f 16 20 22
f 16 22 21
f 17 23 24
f 17 24 25
f 17 25 19
f 17 19 18
f 20 26 27
f 20 27 22
f 21 22 27
f 21 27 26
f 21 26 33
f 21 33 42
f 21 42 45
f 21 45 43
f 21 43 34
f 21 34 28
f 23 29 30
f 23 30 31
f 23 31 24
f 24 31 32
f 24 32 25
f 28 34 35
f 28 35 36
f 29 37 30
f 30 37 38
f 30 39 31
f 31 39 40
f 31 40 41
f 31 41 32
f 33 35 42
f 34 43 35
f 35 44 36
f 35 43 45
f 35 45 42
f 36 44 46
f 36 46 47
f 36 47 48
f 37 49 38
f 38 49 50
f 44 47 46
f 47 50 48
f 48 50 49

