# https://github.com/mikedh/trimesh
v 0.01600926 -0.02515426 0.01568201
v 0.02395097 -0.01734567 0.01568201
v 0.02394657 -0.01734428 0.01752344
v 0.01600926 -0.02513751 0.01752344
v 0.01600926 -0.01282682 0.01568201
v 0.02455104 -0.01672484 0.01568201
v 0.02414718 -0.01714198 0.01752344
v 0.01600926 -0.01643744 0.01752344
v 0.01600926 -0.01310445 0.01641184
v 0.01695952 -0.01090432 0.01752344
v 0.01704927 -0.01090432 0.01717754
v 0.01718917 -0.01090432 0.01672475
v 0.01743729 -0.01090432 0.01620311
v 0.01749976 -0.01090432 0.01609226
v 0.01813239 -0.01090432 0.01568958
v 0.01814911 -0.01090432 0.01568201
v 0.02459591 -0.01664671 0.01568201
v 0.02454928 -0.01672623 0.01672475
v 0.02454664 -0.01671786 0.01752344
v 0.01855649 -0.01090432 0.01752344
v 0.02165627 -0.01090432 0.01568201
v 0.02489067 -0.01612493 0.01568201
v 0.02489243 -0.01612632 0.01672475
v 0.02488891 -0.01611795 0.01752344
v 0.02066202 -0.01090432 0.01627737
v 0.02408999 -0.01458190 0.01752344
v 0.02403103 -0.01301237 0.01568201
v 0.02499801 -0.01530040 0.01568201
v 0.02488275 -0.01537155 0.01752344
v 0.02430731 -0.01477862 0.01752344
v 0.02443314 -0.01357182 0.01568201
v 0.02499361 -0.01517205 0.01568201
v 0.02485899 -0.01426939 0.01568201
v 0.02482468 -0.01420522 0.01568201
f 1 2 3
f 1 3 4
f 1 4 8
f 1 8 9
f 1 9 5
f 1 5 16
f 1 16 21
f 1 21 27
f 1 27 31
f 1 31 34
f 1 34 33
f 1 33 32
f 1 32 28
f 1 28 22
f 1 22 17
f 1 17 6
f 1 6 2
f 2 6 7
f 2 7 3
f 3 7 19
f 3 19 24
f 3 24 29
f 3 29 30
f 3 30 26
f 3 26 20
f 3 20 10
f 3 10 8
f 3 8 4
f 5 9 10
f 5 10 11
f 5 11 12
f 5 12 13
f 5 13 14
f 5 14 15
f 5 15 16
f 6 17 18
f 6 18 7
f 7 18 19
f 8 10 9
f 10 20 25
f 10 25 21
f 10 21 16
f 10 16 15
f 10 15 14
f 10 14 13
f 10 13 12
f 10 12 11
f 17 22 23
f 17 23 18
f 18 23 19
f 19 23 24
f 20 26 25
f 21 25 26
f 21 26 27
f 22 28 23
f 23 28 24
f 24 28 29
f 26 30 27
f 27 30 29
f 27 29 31
f 28 32 29
f 29 32 33
f 29 33 34
f 29 34 31

