# https://github.com/mikedh/trimesh
v 0.05517696 0.03168209 -0.01976306
v 0.05529859 0.03168209 -0.01976156
v 0.04538116 0.03168209 -0.01931708
v 0.04538116 0.03282571 -0.01941227
v 0.04692919 0.03282571 -0.01947524
v 0.04538116 0.03317374 -0.01942577
v 0.04538116 0.03402588 -0.01944450
v 0.04538116 0.03723756 -0.01948723
v 0.04611618 0.03723756 -0.01951346
v 0.04731653 0.03723756 -0.01954644
v 0.05172927 0.03642513 -0.01964163
v 0.05292697 0.03522496 -0.01965887
v 0.05412732 0.03402588 -0.01961990
v 0.05532767 0.03282571 -0.01952920
v 0.05622264 0.03168209 -0.01936805
v 0.04538116 0.03168209 -0.01644257
v 0.04538116 0.03723756 -0.01782399
v 0.05091625 0.03723756 -0.01959516
v 0.05178611 0.03723756 -0.01939204
v 0.05300761 0.03650778 -0.01925712
v 0.05421722 0.03530924 -0.01923913
v 0.05229110 0.03723756 -0.01924962
v 0.05534221 0.03398509 -0.01912520
v 0.05620414 0.03282571 -0.01902476
v 0.05631254 0.03168209 -0.01931708
v 0.04538116 0.03170657 -0.01644257
v 0.05776010 0.03168209 -0.01303214
v 0.05818180 0.03213019 -0.01263038
v 0.05580622 0.03330479 -0.01261239
v 0.05537394 0.03408732 -0.01251195
v 0.05412732 0.03642513 -0.01224511
v 0.05298646 0.03723756 -0.01242576
v 0.05251452 0.03723756 -0.01265736
v 0.04538116 0.03370286 -0.01666819
v 0.04591656 0.03723756 -0.01715389
v 0.05271942 0.03723756 -0.01902626
v 0.05387747 0.03616301 -0.01897679
v 0.05495223 0.03496556 -0.01895430
v 0.05602435 0.03355766 -0.01881563
v 0.05888245 0.03168209 -0.01415946
v 0.04538116 0.03239774 -0.01645681
v 0.05886658 0.03168209 -0.01322627
v 0.05844091 0.03213019 -0.01263038
v 0.05652670 0.03402588 -0.01223312
v 0.05652670 0.03314600 -0.01252694
v 0.05412732 0.03723756 -0.01210645
v 0.05222897 0.03723756 -0.01285150
v 0.04538116 0.03285834 -0.01650179
v 0.05285823 0.03723756 -0.01872794
v 0.05718636 0.03591286 -0.01273532
v 0.05838803 0.03353700 -0.01279453
v 0.05888509 0.03168209 -0.01324351
v 0.05888509 0.03168209 -0.01323452
v 0.05845810 0.03282571 -0.01259590
v 0.05652670 0.03522496 -0.01215217
v 0.05517961 0.03723756 -0.01233056
v 0.05517961 0.03723756 -0.01295643
v 0.05718636 0.03591286 -0.01255168
v 0.05838803 0.03353700 -0.01261464
v 0.05775216 0.03397258 -0.01241976
v 0.05735293 0.03522496 -0.01241076
f 1 2 15
f 1 15 25
f 1 25 40
f 1 40 52
f 1 52 53
f 1 53 42
f 1 42 27
f 1 27 16
f 1 16 3
f 1 3 4
f 1 4 5
f 1 5 6
f 1 6 7
f 1 7 8
f 1 8 9
f 1 9 10
f 1 10 11
f 1 11 2
f 2 11 12
f 2 12 13
f 2 13 14
f 2 14 15
f 3 16 26
f 3 26 41
f 3 41 48
f 3 48 34
f 3 34 17
f 3 17 8
f 3 8 7
f 3 7 6
f 3 6 4
f 4 6 5
f 8 17 35
f 8 35 47
f 8 47 33
f 8 33 32
f 8 32 46
f 8 46 56
f 8 56 57
f 8 57 49
f 8 49 36
f 8 36 22
f 8 22 19
f 8 19 18
f 8 18 10
f 8 10 9
f 10 18 11
f 11 18 19
f 11 19 12
f 12 20 21
f 12 21 13
f 12 19 22
f 12 22 20
f 13 21 14
f 14 23 24
f 14 24 25
f 14 25 15
f 14 21 23
f 16 27 28
f 16 28 29
f 16 29 30
f 16 30 31
f 16 31 32
f 16 32 33
f 16 33 26
f 17 34 35
f 20 22 36
f 20 36 37
f 20 37 21
f 21 38 23
f 21 37 38
f 23 39 24
f 23 38 39
f 24 39 40
f 24 40 25
f 26 33 41
f 27 42 43
f 27 43 28
f 28 43 44
f 28 44 45
f 28 45 29
f 29 45 44
f 29 44 30
f 30 44 31
f 31 44 46
f 31 46 32
f 33 47 34
f 33 34 48
f 33 48 41
f 34 47 35
f 36 49 50
f 36 50 37
f 37 50 38
f 38 50 39
f 39 50 40
f 40 50 51
f 40 51 52
f 42 53 43
f 43 53 54
f 43 54 55
f 43 55 44
f 44 55 46
f 46 55 56
f 49 57 50
f 50 57 56
f 50 56 58
f 50 58 59
f 50 59 51
f 51 59 53
f 51 53 52
f 53 59 54
f 54 60 55
f 54 59 60
f 55 60 61
f 55 61 58
f 55 58 56
f 58 61 59
f 59 61 60

