# https://github.com/mikedh/trimesh
v 0.02303578 -0.03450241 0.00235099
v 0.02305433 -0.03450241 0.00220055
v 0.02324069 -0.03450241 0.00321211
v 0.02436061 -0.03077346 0.00594137
v 0.02421312 -0.02717505 0.00112545
v 0.02304815 -0.03360451 -0.00068239
v 0.02304815 -0.03413576 -0.00068239
v 0.02341645 -0.03445700 -0.00068239
v 0.02347828 -0.03450241 -0.00060198
v 0.02634698 -0.03450241 0.00392474
v 0.02646268 -0.03370554 0.00594137
v 0.02559889 -0.03317883 0.00594137
v 0.02430939 -0.03198012 0.00594137
v 0.02495855 -0.02920128 0.00594137
v 0.02464678 -0.02653369 0.00178361
v 0.02448780 -0.02717505 0.00204168
v 0.02458937 -0.02647807 0.00112545
v 0.02464236 -0.02649737 -0.00007481
v 0.02466886 -0.02651780 -0.00068239
v 0.02429526 -0.02717505 -0.00007481
v 0.02419015 -0.02778235 -0.00068239
v 0.02405944 -0.02837490 -0.00068239
v 0.02403117 -0.02837490 -0.00007481
v 0.02349771 -0.03450241 -0.00068239
v 0.02772745 -0.03450241 0.00409398
v 0.02772745 -0.03381224 0.00594137
v 0.02581528 -0.02765295 0.00594137
v 0.02704648 -0.02530660 0.00304935
v 0.02580203 -0.02523622 0.00080901
v 0.02571371 -0.02512725 -0.00007481
v 0.02572519 -0.02513974 -0.00068239
v 0.02489231 -0.02621472 -0.00068239
v 0.02434118 -0.02717505 -0.00068239
v 0.03087701 -0.03450241 -0.00068239
v 0.02807014 -0.03450241 0.00404340
v 0.02959458 -0.03382700 0.00427943
v 0.02800036 -0.03369305 0.00594137
v 0.02892156 -0.03450241 0.00351169
v 0.02724168 -0.02671759 0.00594137
v 0.02825385 -0.02534179 0.00415428
v 0.02780340 -0.02519309 0.00347991
v 0.02772745 -0.02479465 0.00232505
v 0.02682127 -0.02516244 0.00232505
v 0.02645208 -0.02497287 0.00117538
v 0.02652804 -0.02460281 -0.00007481
v 0.02612617 -0.02486957 -0.00068239
v 0.02652804 -0.02461076 -0.00068239
v 0.02979948 -0.03450241 0.00227642
v 0.03205787 -0.03169520 -0.00068239
v 0.03205787 -0.03170428 -0.00007481
v 0.03199428 -0.03143298 0.00420745
v 0.03069860 -0.03253861 0.00522161
v 0.02941705 -0.03450241 0.00289308
v 0.02989840 -0.03285305 0.00560159
v 0.02905051 -0.03320380 0.00594137
v 0.02892333 -0.03327532 0.00594137
v 0.02851793 -0.02658364 0.00594137
v 0.02892774 -0.02531228 0.00418800
v 0.02892774 -0.02498990 0.00352465
v 0.03205787 -0.02290691 -0.00051574
v 0.02772745 -0.02450065 0.00112545
v 0.03190066 -0.02293415 -0.00068239
v 0.03205787 -0.02290691 -0.00068239
v 0.03205787 -0.03089265 0.00431834
v 0.03120645 -0.03085746 0.00594137
v 0.03113403 -0.03101298 0.00594137
v 0.03091234 -0.03173833 0.00565281
v 0.03033383 -0.03215266 0.00594137
v 0.03021195 -0.03225596 0.00594137
v 0.02892774 -0.02659272 0.00594137
v 0.02966877 -0.02532590 0.00417957
v 0.03205787 -0.02640088 0.00433390
v 0.03205787 -0.03077346 0.00436243
v 0.03205787 -0.02716824 0.00474176
v 0.03115523 -0.02957815 0.00594137
v 0.03043275 -0.03202212 0.00594137
v 0.03009271 -0.02696618 0.00594137
v 0.03132745 -0.02623515 0.00448563
v 0.03105896 -0.02755305 0.00594137
v 0.03205787 -0.02652234 0.00442209
v 0.03106425 -0.02757349 0.00594137
f 1 2 9
f 1 9 24
f 1 24 34
f 1 34 48
f 1 48 53
f 1 53 38
f 1 38 35
f 1 35 25
f 1 25 10
f 1 10 3
f 1 3 4
f 1 4 5
f 1 5 6
f 1 6 7
f 1 7 2
f 2 7 8
f 2 8 9
f 3 10 11
f 3 11 12
f 3 12 13
f 3 13 4
f 4 13 12
f 4 12 11
f 4 11 26
f 4 26 37
f 4 37 56
f 4 56 55
f 4 55 69
f 4 69 68
f 4 68 76
f 4 76 66
f 4 66 65
f 4 65 75
f 4 75 81
f 4 81 79
f 4 79 77
f 4 77 70
f 4 70 57
f 4 57 39
f 4 39 27
f 4 27 14
f 4 14 15
f 4 15 16
f 4 16 5
f 5 16 15
f 5 15 17
f 5 17 18
f 5 18 19
f 5 19 20
f 5 20 21
f 5 21 22
f 5 22 23
f 5 23 6
f 6 23 22
f 6 22 21
f 6 21 33
f 6 33 19
f 6 19 32
f 6 32 31
f 6 31 46
f 6 46 47
f 6 47 62
f 6 62 63
f 6 63 49
f 6 49 34
f 6 34 24
f 6 24 8
f 6 8 7
f 8 24 9
f 10 25 26
f 10 26 11
f 14 27 15
f 15 27 28
f 15 28 29
f 15 29 30
f 15 30 17
f 17 30 31
f 17 31 32
f 17 32 18
f 18 32 19
f 19 33 20
f 20 33 21
f 25 35 26
f 26 36 37
f 26 35 38
f 26 38 36
f 27 39 28
f 28 40 41
f 28 41 42
f 28 42 43
f 28 43 29
f 28 39 40
f 29 43 44
f 29 44 45
f 29 45 30
f 30 46 31
f 30 45 47
f 30 47 46
f 34 49 50
f 34 50 51
f 34 51 52
f 34 52 48
f 36 38 53
f 36 53 48
f 36 48 52
f 36 52 54
f 36 54 55
f 36 55 56
f 36 56 37
f 39 57 40
f 40 58 59
f 40 59 60
f 40 60 42
f 40 42 41
f 40 57 58
f 42 60 61
f 42 61 45
f 42 45 44
f 42 44 43
f 45 61 60
f 45 60 62
f 45 62 47
f 49 63 60
f 49 60 72
f 49 72 80
f 49 80 74
f 49 74 73
f 49 73 64
f 49 64 50
f 50 64 51
f 51 64 65
f 51 65 66
f 51 66 67
f 51 67 52
f 52 67 68
f 52 68 54
f 54 68 69
f 54 69 55
f 57 70 58
f 58 71 60
f 58 60 59
f 58 70 71
f 60 63 62
f 60 71 72
f 64 73 65
f 65 73 74
f 65 74 75
f 66 76 67
f 67 76 68
f 70 77 71
f 71 78 72
f 71 77 78
f 72 78 77
f 72 77 79
f 72 79 80
f 74 80 79
f 74 79 81
f 74 81 75

