# https://github.com/mikedh/trimesh
v 0.01462280 -0.05931817 -0.01907185
v 0.01572836 -0.05935433 -0.01902881
v 0.01935110 -0.05954285 -0.01647286
v 0.01867032 -0.05951315 -0.01647286
v 0.01462280 -0.05931817 -0.01842759
v 0.01462280 -0.05869450 -0.01962476
v 0.01968947 -0.05952735 -0.01647286
v 0.01692921 -0.05928976 -0.01893966
v 0.01846197 -0.05933108 -0.01647286
v 0.01462280 -0.05248231 -0.01647286
v 0.01462280 -0.05861444 -0.01967526
v 0.01817043 -0.05934012 -0.01813335
v 0.01891986 -0.05925619 -0.01777192
v 0.02287289 -0.05672793 -0.01932349
v 0.02287289 -0.05751688 -0.01647286
v 0.01779734 -0.05913998 -0.01880483
v 0.02287289 -0.05627728 -0.01985269
v 0.01462280 -0.04635405 -0.01647286
v 0.01462280 -0.05805791 -0.01994228
v 0.02287289 -0.04828962 -0.01647286
v 0.01462280 -0.05802176 -0.01995896
v 0.01895054 -0.05486336 -0.02088121
v 0.01941732 -0.05486336 -0.02079997
v 0.02287289 -0.05597384 -0.01988430
v 0.01513641 -0.04635275 -0.01647286
v 0.01462280 -0.04635534 -0.01936609
v 0.02287289 -0.04635275 -0.01733451
v 0.02260801 -0.04775118 -0.01647286
v 0.01462280 -0.05736710 -0.01995896
v 0.01513076 -0.04997599 -0.02018953
v 0.01812925 -0.05486336 -0.02095895
v 0.02080229 -0.04742190 -0.02018953
v 0.02121415 -0.04800942 -0.02018953
v 0.02121819 -0.04801717 -0.02018953
v 0.02149518 -0.04872736 -0.02018953
v 0.02169384 -0.04995921 -0.02018953
v 0.02172372 -0.05034787 -0.02018953
v 0.02287289 -0.04635275 -0.01940518
v 0.02187070 -0.04635275 -0.01647286
v 0.01570736 -0.04635275 -0.01927387
v 0.01812925 -0.04635275 -0.02003143
v 0.01812925 -0.04644314 -0.02018953
v 0.01713514 -0.04671043 -0.02018953
v 0.01670874 -0.04701000 -0.02018953
v 0.01632434 -0.04733927 -0.02018953
v 0.01596497 -0.04772922 -0.02018953
v 0.01462280 -0.04646509 -0.01939595
v 0.02197891 -0.04654386 -0.01647286
v 0.01462280 -0.04997599 -0.01965199
v 0.01462280 -0.04885906 -0.01959050
v 0.01517921 -0.04956021 -0.02018953
v 0.01529550 -0.04885906 -0.02018953
v 0.01932768 -0.04648963 -0.02018953
v 0.02020873 -0.04674013 -0.02018953
v 0.01932768 -0.04635275 -0.01995150
f 1 2 3
f 1 3 4
f 1 4 5
f 1 5 10
f 1 10 18
f 1 18 26
f 1 26 47
f 1 47 50
f 1 50 49
f 1 49 29
f 1 29 21
f 1 21 19
f 1 19 11
f 1 11 6
f 1 6 2
f 2 7 3
f 2 6 8
f 2 8 7
f 3 7 15
f 3 15 20
f 3 20 28
f 3 28 48
f 3 48 39
f 3 39 25
f 3 25 18
f 3 18 10
f 3 10 9
f 3 9 4
f 4 9 5
f 5 9 10
f 6 11 8
f 7 8 12
f 7 12 13
f 7 13 14
f 7 14 15
f 8 16 12
f 8 11 17
f 8 17 16
f 11 19 17
f 12 16 13
f 13 16 14
f 14 16 17
f 14 17 24
f 14 24 38
f 14 38 27
f 14 27 20
f 14 20 15
f 17 19 21
f 17 21 22
f 17 22 23
f 17 23 24
f 18 25 26
f 20 27 28
f 21 29 30
f 21 30 31
f 21 31 22
f 22 31 32
f 22 32 33
f 22 33 34
f 22 34 35
f 22 35 23
f 23 35 36
f 23 36 37
f 23 37 24
f 24 37 36
f 24 36 38
f 25 39 27
f 25 27 38
f 25 38 55
f 25 55 41
f 25 41 40
f 25 40 26
f 26 40 41
f 26 41 42
f 26 42 43
f 26 43 44
f 26 44 45
f 26 45 46
f 26 46 47
f 27 39 48
f 27 48 28
f 29 49 30
f 30 49 50
f 30 50 47
f 30 47 51
f 30 51 31
f 31 51 52
f 31 52 46
f 31 46 45
f 31 45 44
f 31 44 43
f 31 43 42
f 31 42 53
f 31 53 54
f 31 54 32
f 32 54 38
f 32 38 33
f 33 38 34
f 34 38 35
f 35 38 36
f 38 54 53
f 38 53 55
f 41 55 42
f 42 55 53
f 46 52 47
f 47 52 51

