# https://github.com/mikedh/trimesh
v 0.04086156 -0.02198033 -0.00068239
v 0.03805175 -0.02198033 -0.00068239
v 0.04091679 -0.02217626 -0.00068239
v 0.04107627 -0.02198033 -0.00167075
v 0.03786180 -0.02198033 -0.00153651
v 0.03782466 -0.02241759 -0.00129955
v 0.03788988 -0.02279258 -0.00068239
v 0.04097249 -0.02237478 -0.00068239
v 0.04109722 -0.02237478 -0.00127523
v 0.04112626 -0.02198033 -0.00247532
v 0.03785799 -0.02198033 -0.00192573
v 0.03733383 -0.02477519 -0.00607469
v 0.03676777 -0.02924386 -0.00127523
v 0.03676777 -0.02928148 -0.00107521
v 0.03676777 -0.02931133 -0.00091844
v 0.03676777 -0.02935674 -0.00068239
v 0.04100962 -0.02296774 -0.00068239
v 0.04117149 -0.02237478 -0.00247532
v 0.04159615 -0.02992246 -0.00284652
v 0.04124100 -0.02237478 -0.00607469
v 0.04117768 -0.02198033 -0.00607469
v 0.03785799 -0.02198033 -0.00208970
v 0.03787941 -0.02198033 -0.00920735
v 0.03733859 -0.02477519 -0.00727478
v 0.03676777 -0.02905182 -0.00367541
v 0.03676777 -0.02906091 -0.00343215
v 0.03676777 -0.02909724 -0.00247532
v 0.03676777 -0.02912708 -0.00222395
v 0.03676777 -0.03519299 -0.00068239
v 0.04098820 -0.02357498 -0.00068239
v 0.04159615 -0.03027928 -0.00284652
v 0.04163090 -0.02979400 -0.00367541
v 0.04080634 -0.02234104 -0.00730631
v 0.04161710 -0.02984591 -0.00487550
v 0.04153616 -0.03013785 -0.00807484
v 0.04138525 -0.02967204 -0.00847487
v 0.04088632 -0.02948390 -0.00988578
v 0.04074016 -0.02198033 -0.00720720
v 0.03818077 -0.02198033 -0.00988578
v 0.03783085 -0.02237478 -0.00928033
v 0.03676777 -0.02959289 -0.00735496
v 0.03676777 -0.02925683 -0.00607469
v 0.03676777 -0.02918417 -0.00542959
v 0.03676777 -0.02912189 -0.00487550
v 0.03676777 -0.03522932 -0.00127523
v 0.03930622 -0.03273030 -0.00068239
v 0.04067209 -0.03078661 -0.00068239
v 0.04163090 -0.03032858 -0.00367541
v 0.04062257 -0.03112397 -0.00068239
v 0.04042690 -0.03149635 -0.00068239
v 0.03963233 -0.02198033 -0.00988578
v 0.04007270 -0.02366711 -0.00988578
v 0.04161710 -0.03030393 -0.00487550
v 0.04153616 -0.03018975 -0.00807484
v 0.04089965 -0.03077363 -0.00988578
v 0.03812031 -0.02237478 -0.00988578
v 0.03676777 -0.03179349 -0.00988578
v 0.03676777 -0.03523062 -0.00148786
v 0.03928622 -0.03273289 -0.00727478
v 0.03960948 -0.03242149 -0.00068239
v 0.03676777 -0.03523452 -0.00247532
v 0.04105628 -0.03092934 -0.00367541
v 0.03927242 -0.03271473 -0.00847487
v 0.03990608 -0.03209711 -0.00068239
v 0.04044737 -0.03148468 -0.00727478
v 0.04039739 -0.03143797 -0.00988578
v 0.03676777 -0.03468566 -0.00988578
v 0.03676777 -0.03507621 -0.00613866
v 0.03924575 -0.03268229 -0.00967496
v 0.03931288 -0.03259146 -0.00988578
v 0.03728907 -0.03426527 -0.00988578
v 0.03676777 -0.03496333 -0.00797032
v 0.03676777 -0.03502043 -0.00727478
v 0.03913054 -0.03276403 -0.00988578
v 0.03923480 -0.03267191 -0.00988578
f 1 2 7
f 1 7 16
f 1 16 29
f 1 29 46
f 1 46 60
f 1 60 64
f 1 64 50
f 1 50 49
f 1 49 47
f 1 47 30
f 1 30 17
f 1 17 8
f 1 8 3
f 1 3 4
f 1 4 10
f 1 10 21
f 1 21 38
f 1 38 51
f 1 51 39
f 1 39 23
f 1 23 22
f 1 22 11
f 1 11 5
f 1 5 2
f 2 5 6
f 2 6 7
f 3 8 4
f 4 8 9
f 4 9 10
f 5 11 12
f 5 12 13
f 5 13 14
f 5 14 15
f 5 15 16
f 5 16 6
f 6 16 7
f 8 17 9
f 9 18 10
f 9 17 19
f 9 19 18
f 10 18 20
f 10 20 21
f 11 22 12
f 12 22 23
f 12 23 24
f 12 24 25
f 12 25 26
f 12 26 27
f 12 27 28
f 12 28 13
f 13 28 27
f 13 27 26
f 13 26 25
f 13 25 44
f 13 44 43
f 13 43 42
f 13 42 41
f 13 41 57
f 13 57 67
f 13 67 72
f 13 72 73
f 13 73 68
f 13 68 61
f 13 61 58
f 13 58 45
f 13 45 29
f 13 29 16
f 13 16 15
f 13 15 14
f 17 30 31
f 17 31 19
f 18 19 32
f 18 32 20
f 19 31 48
f 19 48 32
f 20 33 21
f 20 32 34
f 20 34 35
f 20 35 36
f 20 36 37
f 20 37 33
f 21 33 38
f 23 39 40
f 23 40 24
f 24 40 41
f 24 41 42
f 24 42 43
f 24 43 44
f 24 44 25
f 29 45 46
f 30 47 31
f 31 47 49
f 31 49 50
f 31 50 48
f 32 48 53
f 32 53 34
f 33 51 38
f 33 37 52
f 33 52 51
f 34 53 54
f 34 54 35
f 35 54 55
f 35 55 37
f 35 37 36
f 37 55 66
f 37 66 70
f 37 70 75
f 37 75 74
f 37 74 71
f 37 71 67
f 37 67 57
f 37 57 56
f 37 56 39
f 37 39 51
f 37 51 52
f 39 56 40
f 40 56 57
f 40 57 41
f 45 58 46
f 46 59 60
f 46 58 61
f 46 61 59
f 48 62 59
f 48 59 63
f 48 63 53
f 48 50 64
f 48 64 60
f 48 60 62
f 53 63 65
f 53 65 66
f 53 66 54
f 54 66 55
f 59 61 63
f 59 62 60
f 61 68 63
f 63 68 69
f 63 69 66
f 63 66 65
f 66 69 70
f 67 71 72
f 68 73 69
f 69 73 72
f 69 72 74
f 69 74 75
f 69 75 70
f 71 74 72

