# https://github.com/mikedh/trimesh
v 0.01606903 0.03168095 -0.01598706
v 0.01606903 0.03168095 -0.01923840
v 0.01579245 0.03168095 -0.01591086
v 0.01606903 0.02442642 -0.01567979
v 0.01606903 0.03140043 -0.01933058
v 0.01572769 0.03168095 -0.01935680
v 0.01572769 0.03168095 -0.01589816
v 0.01332783 0.02442642 -0.01551018
v 0.01606903 0.02356655 -0.01565398
v 0.01606903 0.03072147 -0.01955263
v 0.01572769 0.03090466 -0.01955263
v 0.01452688 0.03168095 -0.01950961
v 0.00747609 0.03168095 -0.01648648
v -0.00181353 0.02682513 -0.01586661
v -0.00107134 0.02562635 -0.01559662
v 0.00012947 0.02562635 -0.01556753
v 0.00732730 0.02442642 -0.01536719
v 0.01332783 0.02322649 -0.01549051
v 0.01606903 0.02322649 -0.01564456
v 0.01606903 0.02063543 -0.01955263
v 0.01512379 0.03118632 -0.01955263
v 0.01452688 0.03142791 -0.01955263
v 0.00132852 0.03168095 -0.01953665
v -0.00107134 0.03168095 -0.01716084
v -0.00181353 0.03168095 -0.01722885
v -0.00181353 0.02562635 -0.01563595
v -0.00181353 0.02488441 -0.01566791
v 0.00012947 0.02442642 -0.01562038
v 0.00612825 0.02442642 -0.01539464
v 0.01332783 0.02202657 -0.01564783
v 0.01606903 0.02202657 -0.01564620
v 0.01606903 0.02236662 -0.01564497
v 0.01606903 0.02046941 -0.01807487
v 0.01243160 0.01998509 -0.01955263
v 0.00132852 0.03155157 -0.01955263
v -0.00181353 0.03081192 -0.01955263
v -0.00181353 0.03118518 -0.01945758
v 0.00127251 0.03168095 -0.01953215
v -0.00181353 0.03168095 -0.01926134
v -0.00181353 0.02442642 -0.01570478
v 0.01332783 0.02105220 -0.01601738
v 0.01606903 0.02089648 -0.01596740
v 0.01606903 0.02036178 -0.01687528
v -0.00181353 0.02316352 -0.01687528
v -0.00181353 0.02240212 -0.01955263
v 0.00012947 0.03168095 -0.01943259
v -0.00181353 0.02393752 -0.01589283
v -0.00181353 0.02363410 -0.01602803
v -0.00181353 0.02333870 -0.01655900
f 1 2 6
f 1 6 12
f 1 12 23
f 1 23 38
f 1 38 46
f 1 46 39
f 1 39 25
f 1 25 24
f 1 24 13
f 1 13 7
f 1 7 3
f 1 3 4
f 1 4 9
f 1 9 19
f 1 19 32
f 1 32 31
f 1 31 42
f 1 42 43
f 1 43 33
f 1 33 20
f 1 20 10
f 1 10 5
f 1 5 2
f 2 5 6
f 3 7 4
f 4 7 8
f 4 8 9
f 5 10 6
f 6 11 12
f 6 10 11
f 7 13 14
f 7 14 15
f 7 15 16
f 7 16 17
f 7 17 8
f 8 18 19
f 8 19 9
f 8 17 18
f 10 20 34
f 10 34 45
f 10 45 36
f 10 36 35
f 10 35 22
f 10 22 21
f 10 21 11
f 11 21 12
f 12 21 22
f 12 22 23
f 13 24 14
f 14 24 25
f 14 25 39
f 14 39 37
f 14 37 36
f 14 36 45
f 14 45 44
f 14 44 49
f 14 49 48
f 14 48 47
f 14 47 40
f 14 40 27
f 14 27 26
f 14 26 15
f 15 26 27
f 15 27 28
f 15 28 29
f 15 29 16
f 16 29 17
f 17 29 30
f 17 30 18
f 18 30 31
f 18 31 32
f 18 32 19
f 20 33 34
f 22 35 23
f 23 35 36
f 23 36 37
f 23 37 38
f 27 40 28
f 28 40 30
f 28 30 29
f 30 41 42
f 30 42 31
f 30 40 41
f 33 43 34
f 34 43 41
f 34 41 44
f 34 44 45
f 37 39 46
f 37 46 38
f 40 47 41
f 41 43 42
f 41 47 48
f 41 48 49
f 41 49 44

