# https://github.com/mikedh/trimesh
v -0.02627183 0.05802499 -0.01305097
v -0.02507222 0.05802499 -0.01307060
v -0.02507222 0.05922484 -0.01318317
v -0.02747183 0.05802499 -0.01305293
v -0.02759393 0.05790294 -0.01305752
v -0.02759393 0.05682513 -0.01312819
v -0.02387223 0.05802499 -0.01320672
v -0.02387223 0.05922484 -0.01331209
v -0.02387223 0.05682513 -0.01321654
v -0.02368391 0.05682513 -0.01323748
v -0.02627183 0.05922484 -0.01322832
v -0.02368391 0.05935895 -0.01336771
v -0.02368391 0.06011604 -0.01361116
v -0.02387223 0.06012384 -0.01360069
v -0.02507222 0.06013874 -0.01355226
v -0.02759393 0.05802499 -0.01305948
v -0.02759393 0.05672367 -0.01317139
v -0.02368391 0.05577641 -0.01359153
v -0.02368391 0.05802499 -0.01325253
v -0.02368391 0.05821302 -0.01325515
v -0.02368391 0.05922484 -0.01334415
v -0.02747183 0.05922484 -0.01337753
v -0.02759393 0.05910280 -0.01335070
v -0.02627183 0.06006637 -0.01358956
v -0.02368391 0.06011604 -0.01422043
v -0.02387223 0.06012384 -0.01421781
v -0.02507222 0.06013874 -0.01419098
v -0.02759393 0.05587433 -0.01358629
v -0.02368391 0.05417353 -0.01476753
v -0.02759393 0.05923619 -0.01339782
v -0.02627183 0.06006637 -0.01412488
v -0.02759393 0.05991311 -0.01375252
v -0.02759393 0.05986770 -0.01372372
v -0.02368391 0.05673715 -0.01919865
v -0.02387223 0.05673431 -0.01920323
v -0.02759393 0.05669599 -0.01921239
v -0.02759393 0.05289066 -0.01781061
v -0.02659221 0.05289066 -0.01709859
v -0.02619566 0.05289066 -0.01686562
v -0.02368391 0.05289066 -0.01613594
v -0.02759393 0.05991311 -0.01398353
v -0.02368391 0.05562599 -0.01963122
v -0.02507222 0.05562599 -0.01972219
v -0.02507222 0.05668606 -0.01923268
v -0.02759393 0.05573739 -0.01968161
v -0.02759393 0.05289066 -0.01936684
v -0.02368391 0.05289066 -0.01946434
v -0.02759393 0.05562599 -0.01973593
f 1 2 3
f 1 3 4
f 1 4 5
f 1 5 6
f 1 6 2
f 2 7 8
f 2 8 3
f 2 6 9
f 2 9 10
f 2 10 7
f 3 11 4
f 3 8 12
f 3 12 13
f 3 13 14
f 3 14 15
f 3 15 11
f 4 16 5
f 4 11 16
f 5 16 23
f 5 23 30
f 5 30 33
f 5 33 32
f 5 32 41
f 5 41 36
f 5 36 45
f 5 45 48
f 5 48 46
f 5 46 37
f 5 37 28
f 5 28 17
f 5 17 6
f 6 17 18
f 6 18 9
f 7 19 20
f 7 20 8
f 7 10 19
f 8 21 12
f 8 20 21
f 9 18 10
f 10 18 29
f 10 29 40
f 10 40 47
f 10 47 42
f 10 42 34
f 10 34 25
f 10 25 13
f 10 13 12
f 10 12 21
f 10 21 20
f 10 20 19
f 11 22 23
f 11 23 16
f 11 15 24
f 11 24 22
f 13 25 26
f 13 26 14
f 14 26 27
f 14 27 15
f 15 27 31
f 15 31 24
f 17 28 18
f 18 28 29
f 22 24 30
f 22 30 23
f 24 31 41
f 24 41 32
f 24 32 33
f 24 33 30
f 25 34 26
f 26 34 35
f 26 35 27
f 27 35 36
f 27 36 31
f 28 37 38
f 28 38 39
f 28 39 40
f 28 40 29
f 31 36 41
f 34 42 43
f 34 43 35
f 35 44 36
f 35 43 44
f 36 44 45
f 37 46 47
f 37 47 40
f 37 40 39
f 37 39 38
f 42 47 43
f 43 47 48
f 43 48 44
f 44 48 45
f 46 48 47

