# https://github.com/mikedh/trimesh
v 0.05179686 0.01726996 -0.01382595
v 0.05105211 0.01673815 -0.01384494
v 0.05105211 0.01641335 -0.01384494
v 0.05126443 0.01641335 -0.01384494
v 0.05179686 0.01720362 -0.01383595
v 0.05179686 0.01737632 -0.01383695
v 0.05052774 0.02202535 -0.01435663
v 0.04805109 0.01483165 -0.01425569
v 0.05052774 0.01482593 -0.01417974
v 0.05179686 0.01602793 -0.01404582
v 0.05179686 0.01671299 -0.01391590
v 0.05179686 0.02202992 -0.01442159
v 0.05172793 0.02202535 -0.01440560
v 0.05052774 0.02298032 -0.01469343
v 0.04958753 0.02285451 -0.01481036
v 0.04805109 0.02202535 -0.01501723
v 0.04805109 0.01351070 -0.01475839
v 0.04932828 0.01362622 -0.01462147
v 0.05179686 0.01482593 -0.01443159
v 0.05059301 0.01352214 -0.01474639
v 0.05179686 0.02290140 -0.01480036
v 0.05172793 0.02291170 -0.01478937
v 0.04812809 0.02440991 -0.01663325
v 0.04805109 0.02440991 -0.01663925
v 0.04805109 0.02300433 -0.01556890
v 0.04805109 0.01343865 -0.01479536
v 0.04833161 0.01297089 -0.01502422
v 0.04932828 0.01294459 -0.01499025
v 0.05023622 0.01297204 -0.01501423
v 0.05179686 0.01392471 -0.01487831
v 0.05179686 0.02440991 -0.01734282
v 0.05171656 0.02440991 -0.01732483
v 0.04805109 0.02440991 -0.01948252
v 0.04805109 0.01292743 -0.01549294
v 0.04805109 0.01272843 -0.01630345
v 0.04892969 0.01272615 -0.01606759
v 0.04932828 0.01279934 -0.01567583
v 0.05179686 0.01272615 -0.01719191
v 0.05179686 0.02440991 -0.01938158
v 0.04937045 0.02440991 -0.01963743
v 0.04932828 0.02280419 -0.02257264
v 0.04850579 0.02272871 -0.02243972
v 0.04805109 0.02214772 -0.02260562
v 0.04805109 0.01272615 -0.01632843
v 0.05179686 0.01272615 -0.01930463
v 0.05048593 0.02440991 -0.01964842
v 0.05179686 0.02282935 -0.02255865
v 0.05172793 0.02283393 -0.02256565
v 0.05052774 0.02283278 -0.02260862
v 0.05052774 0.02225866 -0.02320826
v 0.04932828 0.02214886 -0.02317328
v 0.04821207 0.02197388 -0.02291843
v 0.04805109 0.02193614 -0.02287146
v 0.04805109 0.01272615 -0.01942056
v 0.04932828 0.01272615 -0.01943155
v 0.05007487 0.01421521 -0.02228682
v 0.05179686 0.01425409 -0.02211292
v 0.05179686 0.02219233 -0.02315829
v 0.05172793 0.02219919 -0.02316529
v 0.05172793 0.02159876 -0.02356804
v 0.05052774 0.02165937 -0.02357604
v 0.04932828 0.02154958 -0.02351907
v 0.04871847 0.02142835 -0.02347610
v 0.04805109 0.02094000 -0.02323824
v 0.04987466 0.01421521 -0.02228682
v 0.04812406 0.01272615 -0.01942855
v 0.04805109 0.01510956 -0.02250269
v 0.04907453 0.01433644 -0.02208194
v 0.05179686 0.01542750 -0.02348010
v 0.05179686 0.01504437 -0.02308433
v 0.05179686 0.01495059 -0.02297440
v 0.05179686 0.01426896 -0.02213791
v 0.05179686 0.02215801 -0.02318527
v 0.05179686 0.02159304 -0.02356504
v 0.05179686 0.02155416 -0.02357903
v 0.05172793 0.02082449 -0.02380989
v 0.05179686 0.01962478 -0.02400977
v 0.05172793 0.01962478 -0.02400478
v 0.05172793 0.01842621 -0.02402876
v 0.04871847 0.02141577 -0.02347610
v 0.04824250 0.02094000 -0.02330220
v 0.04805109 0.01602564 -0.02276653
v 0.04812809 0.01509241 -0.02250968
v 0.05131320 0.01548468 -0.02345511
v 0.04805109 0.01515188 -0.02251568
v 0.05171912 0.01594101 -0.02364200
v 0.05179686 0.01583236 -0.02361302
v 0.05179686 0.02082449 -0.02380690
v 0.05179686 0.02075587 -0.02382589
v 0.05179686 0.01955616 -0.02401277
v 0.05179686 0.01842621 -0.02403476
v 0.05172793 0.01722650 -0.02393282
v 0.05093770 0.01628411 -0.02358303
v 0.05179686 0.01594444 -0.02364300
v 0.05179686 0.01587925 -0.02362601
v 0.05179686 0.01722650 -0.02393682
f 1 2 3
f 1 3 4
f 1 4 5
f 1 5 11
f 1 11 10
f 1 10 19
f 1 19 30
f 1 30 38
f 1 38 45
f 1 45 57
f 1 57 72
f 1 72 71
f 1 71 70
f 1 70 69
f 1 69 87
f 1 87 95
f 1 95 94
f 1 94 96
f 1 96 91
f 1 91 90
f 1 90 77
f 1 77 89
f 1 89 88
f 1 88 75
f 1 75 74
f 1 74 73
f 1 73 58
f 1 58 47
f 1 47 39
f 1 39 31
f 1 31 21
f 1 21 12
f 1 12 6
f 1 6 7
f 1 7 2
f 2 8 3
f 2 7 8
f 3 8 9
f 3 9 4
f 4 9 10
f 4 10 11
f 4 11 5
f 6 12 13
f 6 13 7
f 7 13 14
f 7 14 15
f 7 15 16
f 7 16 8
f 8 17 18
f 8 18 9
f 8 16 25
f 8 25 24
f 8 24 33
f 8 33 43
f 8 43 53
f 8 53 64
f 8 64 82
f 8 82 85
f 8 85 67
f 8 67 54
f 8 54 44
f 8 44 35
f 8 35 34
f 8 34 26
f 8 26 17
f 9 19 10
f 9 18 20
f 9 20 19
f 12 21 22
f 12 22 13
f 13 22 14
f 14 22 23
f 14 23 24
f 14 24 15
f 15 25 16
f 15 24 25
f 17 26 18
f 18 26 27
f 18 27 28
f 18 28 29
f 18 29 20
f 19 20 30
f 20 29 30
f 21 31 22
f 22 31 32
f 22 32 23
f 23 32 31
f 23 31 39
f 23 39 46
f 23 46 40
f 23 40 33
f 23 33 24
f 26 34 27
f 27 34 35
f 27 35 36
f 27 36 28
f 28 36 37
f 28 37 29
f 29 37 38
f 29 38 30
f 33 40 41
f 33 41 42
f 33 42 43
f 35 44 36
f 36 44 54
f 36 54 66
f 36 66 55
f 36 55 45
f 36 45 38
f 36 38 37
f 39 47 48
f 39 48 46
f 40 46 49
f 40 49 41
f 41 49 50
f 41 50 51
f 41 51 42
f 42 51 52
f 42 52 53
f 42 53 43
f 45 55 56
f 45 56 57
f 46 48 49
f 47 58 59
f 47 59 48
f 48 59 50
f 48 50 49
f 50 59 60
f 50 60 61
f 50 61 51
f 51 61 62
f 51 62 63
f 51 63 52
f 52 63 53
f 53 63 64
f 54 65 66
f 54 67 68
f 54 68 65
f 55 66 65
f 55 65 56
f 56 69 70
f 56 70 71
f 56 71 72
f 56 72 57
f 56 65 69
f 58 73 59
f 59 73 74
f 59 74 60
f 60 74 75
f 60 75 76
f 60 76 61
f 61 76 62
f 62 76 77
f 62 77 78
f 62 78 63
f 63 78 79
f 63 79 80
f 63 80 64
f 64 80 81
f 64 81 82
f 65 68 67
f 65 67 83
f 65 83 84
f 65 84 69
f 67 85 84
f 67 84 83
f 69 84 86
f 69 86 87
f 75 88 76
f 76 88 89
f 76 89 77
f 77 90 78
f 78 90 79
f 79 90 91
f 79 91 92
f 79 92 80
f 80 92 81
f 81 92 82
f 82 92 93
f 82 93 84
f 82 84 85
f 84 93 86
f 86 94 95
f 86 95 87
f 86 93 92
f 86 92 96
f 86 96 94
f 91 96 92

