# https://github.com/mikedh/trimesh
v -0.02348930 -0.01062300 0.02878766
v -0.02375802 -0.01062300 0.02609833
v -0.02579475 -0.01062300 0.02878766
v -0.01569044 -0.01282457 0.02878766
v -0.02549925 -0.01062300 0.02609833
v -0.01569044 -0.01316215 0.02815870
v -0.01569044 -0.01337945 0.02777248
v -0.01569044 -0.01407521 0.02665620
v -0.01569044 -0.01418419 0.02653773
v -0.01569044 -0.01459288 0.02617836
v -0.01569044 -0.01468392 0.02609833
v -0.02563411 -0.01189291 0.02609833
v -0.02580169 -0.01071670 0.02878766
v -0.01569044 -0.01458955 0.02878766
v -0.01569044 -0.01741047 0.02609833
v -0.02566088 -0.01277473 0.02609833
v -0.02581855 -0.01146695 0.02861916
v -0.02581954 -0.01134600 0.02878766
v -0.01577473 -0.01690808 0.02686998
v -0.01569044 -0.01680243 0.02692790
v -0.02147141 -0.01470119 0.02878766
v -0.01569044 -0.01697587 0.02676335
v -0.01583026 -0.01741179 0.02609833
v -0.02567179 -0.01366520 0.02609833
v -0.02581557 -0.01258202 0.02872474
v -0.02567179 -0.01397487 0.02609833
v -0.02566981 -0.01446529 0.02609833
v -0.02581458 -0.01257604 0.02878766
v -0.02246102 -0.01462943 0.02878766
v -0.02264645 -0.01640172 0.02609833
v -0.02548141 -0.01479822 0.02609833
v -0.02555578 -0.01317611 0.02878766
v -0.02298359 -0.01446064 0.02878766
v -0.02387106 -0.01567605 0.02675072
v -0.02300144 -0.01576776 0.02691789
v -0.02387106 -0.01610733 0.02609833
v -0.02503618 -0.01534313 0.02609833
v -0.02510956 -0.01512981 0.02633238
v -0.02484679 -0.01485005 0.02717669
v -0.02498759 -0.01364194 0.02878766
v -0.02378182 -0.01419615 0.02878766
v -0.02495586 -0.01366786 0.02878766
v -0.02440850 -0.01584019 0.02609833
v -0.02481902 -0.01554115 0.02609833
f 1 2 5
f 1 5 3
f 1 3 13
f 1 13 18
f 1 18 28
f 1 28 32
f 1 32 40
f 1 40 42
f 1 42 41
f 1 41 33
f 1 33 29
f 1 29 21
f 1 21 14
f 1 14 4
f 1 4 2
f 2 4 6
f 2 6 7
f 2 7 8
f 2 8 9
f 2 9 10
f 2 10 11
f 2 11 15
f 2 15 23
f 2 23 30
f 2 30 36
f 2 36 43
f 2 43 44
f 2 44 37
f 2 37 31
f 2 31 27
f 2 27 26
f 2 26 24
f 2 24 16
f 2 16 12
f 2 12 5
f 3 5 12
f 3 12 13
f 4 14 20
f 4 20 22
f 4 22 15
f 4 15 11
f 4 11 10
f 4 10 9
f 4 9 8
f 4 8 7
f 4 7 6
f 12 16 17
f 12 17 13
f 13 17 18
f 14 19 20
f 14 21 19
f 15 22 19
f 15 19 23
f 16 24 17
f 17 25 18
f 17 24 26
f 17 26 27
f 17 27 25
f 18 25 28
f 19 22 20
f 19 21 29
f 19 29 30
f 19 30 23
f 25 27 28
f 27 31 32
f 27 32 28
f 29 33 34
f 29 34 35
f 29 35 30
f 30 35 34
f 30 34 36
f 31 37 38
f 31 38 32
f 32 38 39
f 32 39 40
f 33 41 34
f 34 42 43
f 34 43 36
f 34 41 42
f 37 44 39
f 37 39 38
f 39 44 43
f 39 43 42
f 39 42 40

