# https://github.com/mikedh/trimesh
v 0.01594840 0.00282594 0.02878790
v 0.01692823 0.00282594 0.02857486
v 0.01692823 0.00157811 0.02878790
v 0.01676634 0.01080457 0.02878790
v 0.01812785 0.00282594 0.02853937
v 0.01692823 0.01080457 0.02875365
v 0.01812785 0.00402634 0.02853856
v 0.01812785 0.00148599 0.02878790
v 0.01709639 0.01080457 0.02878790
v 0.01971542 0.00282594 0.02878790
v 0.01960037 0.00255321 0.02878790
v 0.01910142 0.00185176 0.02878790
v 0.01824180 0.00151153 0.02878790
v 0.01908298 0.00522582 0.02878790
v 0.01932784 0.00452985 0.02878790
v 0.01947904 0.00402634 0.02878790
v 0.01952846 0.00382567 0.02878790
f 1 2 3
f 1 3 8
f 1 8 13
f 1 13 12
f 1 12 11
f 1 11 10
f 1 10 17
f 1 17 16
f 1 16 15
f 1 15 14
f 1 14 9
f 1 9 4
f 1 4 2
f 2 5 3
f 2 4 6
f 2 6 7
f 2 7 5
f 3 5 8
f 4 9 6
f 5 10 11
f 5 11 12
f 5 12 13
f 5 13 8
f 5 7 10
f 6 9 14
f 6 14 7
f 7 14 15
f 7 15 16
f 7 16 17
f 7 17 10

