# https://github.com/mikedh/trimesh
v 0.02301353 -0.02359537 0.01072205
v 0.02301353 -0.02359537 0.01078339
v 0.02301353 -0.02346712 0.01057449
v 0.02340546 -0.02283276 0.01022869
v 0.02378095 -0.02319689 0.01102785
v 0.02378095 -0.02319689 0.01150432
v 0.02301353 -0.02342819 0.01144699
v 0.02301353 -0.02089072 0.00845169
v 0.02540513 -0.01898075 0.00845169
v 0.02548023 -0.01891205 0.00845169
v 0.02490521 -0.02200602 0.01109185
v 0.02490521 -0.02200602 0.01148610
v 0.02837120 -0.01822730 0.01258172
v 0.02301353 -0.01834409 0.01299241
v 0.02301353 -0.00397809 0.00845169
v 0.02554655 -0.01883418 0.00845169
v 0.02714388 -0.01939298 0.01130475
v 0.02837120 -0.01822730 0.01243105
v 0.02842328 -0.01757232 0.01263372
v 0.02401446 -0.01741888 0.01299241
v 0.02301353 -0.01631504 0.01299241
v 0.02301353 -0.00575065 0.01043759
v 0.02310069 -0.00083374 0.00845169
v 0.02629588 -0.01768454 0.00845169
v 0.02842328 -0.01757232 0.01225859
v 0.02675030 -0.01651657 0.00845169
v 0.02837613 -0.01596923 0.01125453
v 0.02847042 -0.01517455 0.01110919
v 0.02513434 -0.01277449 0.01299241
v 0.02499347 -0.01517455 0.01299241
v 0.02485149 -0.01614328 0.01299241
v 0.02461469 -0.01673184 0.01299241
v 0.02411971 -0.01730208 0.01299241
v 0.02854880 -0.01397452 0.01180923
v 0.02843424 -0.01637229 0.01262661
v 0.02503403 -0.00064366 0.01299241
v 0.02503842 -0.00077649 0.01299241
v 0.02301353 -0.01148057 0.01183812
v 0.02349536 -0.00329563 0.01299241
v 0.02350522 -0.00313990 0.01299241
v 0.02353811 -0.00263836 0.01299241
v 0.02314234 -0.00019937 0.00845169
v 0.02854880 -0.01397452 0.01097051
v 0.02679635 -0.01630359 0.00845169
v 0.02716745 -0.01395620 0.00845169
v 0.02856141 -0.01277449 0.01174523
v 0.02858553 -0.01037672 0.01168878
v 0.02859649 -0.00917669 0.01167100
v 0.02860636 -0.00797666 0.01165678
v 0.02861294 -0.00677663 0.01164344
v 0.02860252 -0.00019937 0.01160255
v 0.02501704 -0.00019937 0.01299241
v 0.02377272 -0.00019937 0.01299241
v 0.02741248 -0.00019937 0.00845169
v 0.02749963 -0.01037672 0.00845169
v 0.02856141 -0.01277449 0.01094340
v 0.02858553 -0.01037672 0.01093984
v 0.02859649 -0.00917669 0.01093007
v 0.02860636 -0.00797666 0.01090873
v 0.02861294 -0.00677663 0.01088295
v 0.02860252 -0.00019937 0.01083273
v 0.02742180 -0.00082000 0.00845169
v 0.02860143 -0.00197652 0.01083362
v 0.02861074 -0.00557660 0.01086384
f 1 2 7
f 1 7 14
f 1 14 21
f 1 21 38
f 1 38 22
f 1 22 15
f 1 15 8
f 1 8 3
f 1 3 4
f 1 4 5
f 1 5 6
f 1 6 2
f 2 6 7
f 3 8 4
f 4 8 9
f 4 9 10
f 4 10 5
f 5 11 12
f 5 12 6
f 5 10 11
f 6 12 13
f 6 13 14
f 6 14 7
f 8 15 23
f 8 23 42
f 8 42 54
f 8 54 62
f 8 62 55
f 8 55 45
f 8 45 44
f 8 44 26
f 8 26 24
f 8 24 16
f 8 16 10
f 8 10 9
f 10 16 11
f 11 16 17
f 11 17 18
f 11 18 13
f 11 13 12
f 13 18 25
f 13 25 19
f 13 19 14
f 14 19 20
f 14 20 33
f 14 33 32
f 14 32 31
f 14 31 30
f 14 30 29
f 14 29 37
f 14 37 36
f 14 36 52
f 14 52 53
f 14 53 41
f 14 41 40
f 14 40 39
f 14 39 21
f 15 22 23
f 16 24 17
f 17 24 18
f 18 24 26
f 18 26 27
f 18 27 28
f 18 28 25
f 19 29 30
f 19 30 31
f 19 31 32
f 19 32 33
f 19 33 20
f 19 25 43
f 19 43 34
f 19 34 35
f 19 35 36
f 19 36 37
f 19 37 29
f 21 39 38
f 22 39 40
f 22 40 41
f 22 41 42
f 22 42 23
f 22 38 39
f 25 28 43
f 26 44 28
f 26 28 27
f 28 44 45
f 28 45 43
f 34 43 56
f 34 56 46
f 34 46 47
f 34 47 48
f 34 48 49
f 34 49 35
f 35 49 50
f 35 50 51
f 35 51 52
f 35 52 36
f 41 53 42
f 42 53 52
f 42 52 51
f 42 51 61
f 42 61 54
f 43 45 55
f 43 55 56
f 46 56 57
f 46 57 47
f 47 57 58
f 47 58 48
f 48 58 59
f 48 59 49
f 49 59 60
f 49 60 50
f 50 60 61
f 50 61 51
f 54 61 62
f 55 62 61
f 55 61 63
f 55 63 64
f 55 64 60
f 55 60 56
f 56 60 59
f 56 59 57
f 57 59 58
f 60 64 61
f 61 64 63

