# https://github.com/mikedh/trimesh
v -0.03935853 0.03243461 0.00349453
v -0.03699981 0.03153512 0.00349322
v -0.03699981 0.03293055 0.00349322
v -0.03868594 0.03293055 0.00349322
v -0.04067789 0.03163678 0.00349322
v -0.04070919 0.03160906 0.00349322
v -0.04131699 0.03042310 0.00349322
v -0.04158987 0.02817440 0.00349322
v -0.04189733 0.01602833 0.00349322
v -0.04198738 0.00642669 0.00349322
v -0.04139001 0.00146107 0.00349322
v -0.03975933 0.00146107 0.00349322
v -0.03957705 0.00146723 0.00349322
v -0.03953422 0.00162741 0.00349322
v -0.03937610 0.00282569 0.00349322
v -0.03699981 0.03142423 0.00112374
v -0.03925037 0.00146107 -0.00007607
v -0.03699981 0.03293055 -0.00928678
v -0.03912243 0.03293055 0.00228948
v -0.04033144 0.03234527 0.00307407
v -0.04142021 0.03129177 0.00313563
v -0.04157998 0.03042310 0.00323780
v -0.04228222 0.02928642 0.00220566
v -0.04228991 0.00522841 -0.00988668
v -0.04247274 0.02892602 0.00172757
v -0.04247274 0.02862414 0.00172757
v -0.04260890 0.02922481 -0.00127587
v -0.04122145 0.00146107 -0.00727488
v -0.03954465 0.00146107 0.00250037
v -0.03933931 0.00146107 0.00112374
v -0.03931845 0.00162741 0.00112374
v -0.03699981 0.03141807 0.00009683
v -0.03925201 0.00146107 -0.00127587
v -0.03699981 0.03140575 -0.00367417
v -0.03704758 0.03293055 -0.00950290
v -0.03699981 0.03171687 -0.00719760
v -0.03932064 0.00146107 -0.00487397
v -0.03961987 0.00146107 -0.00988668
v -0.03923224 0.03293055 0.00190047
v -0.03963964 0.03293055 0.00001824
v -0.03965172 0.03293055 -0.00007607
v -0.04028642 0.03239764 -0.00007607
v -0.04144162 0.03129177 0.00232485
v -0.04255400 0.02993639 -0.00127587
v -0.04252160 0.02989326 -0.00030791
v -0.04193796 0.03042310 0.00232485
v -0.04084645 0.00146107 -0.00988668
v -0.04108749 0.00146107 -0.00832275
v -0.04256992 0.02997644 -0.00487397
v -0.04254741 0.02992407 -0.00576727
v -0.04224049 0.02922481 -0.00847469
v -0.04208840 0.02922481 -0.00967449
v -0.04205381 0.02922481 -0.00988668
v -0.04245462 0.02928642 0.00123114
v -0.03928111 0.00146107 -0.00367417
v -0.03699981 0.03153821 -0.00607508
v -0.03717606 0.03293055 -0.00988668
v -0.03931460 0.00146107 -0.00471024
v -0.03950787 0.03293055 -0.00847469
v -0.04023701 0.03236992 -0.00727488
v -0.04147511 0.03120552 -0.00247567
v -0.04204777 0.03057712 -0.00487397
v -0.04208236 0.03054939 -0.00367417
v -0.04139166 0.03113159 -0.00847469
v -0.04135322 0.03107922 -0.00988668
v -0.04143833 0.03096833 -0.00988668
v -0.04181004 0.03042310 -0.00988668
v -0.03926629 0.03293055 -0.00988668
v -0.03943045 0.03279809 -0.00988668
v -0.04122749 0.03119320 -0.00988668
v -0.04017606 0.03232371 -0.00847469
v -0.04148280 0.03117472 -0.00367417
f 1 2 3
f 1 3 4
f 1 4 5
f 1 5 6
f 1 6 7
f 1 7 8
f 1 8 9
f 1 9 10
f 1 10 11
f 1 11 12
f 1 12 13
f 1 13 14
f 1 14 15
f 1 15 2
f 2 16 32
f 2 32 34
f 2 34 56
f 2 56 36
f 2 36 18
f 2 18 3
f 2 15 17
f 2 17 16
f 3 18 35
f 3 35 57
f 3 57 68
f 3 68 59
f 3 59 41
f 3 41 40
f 3 40 39
f 3 39 19
f 3 19 4
f 4 19 20
f 4 20 5
f 5 20 6
f 6 21 7
f 6 20 21
f 7 21 22
f 7 22 8
f 8 22 23
f 8 23 9
f 9 23 10
f 10 24 11
f 10 23 25
f 10 25 26
f 10 26 27
f 10 27 24
f 11 28 48
f 11 48 47
f 11 47 38
f 11 38 37
f 11 37 58
f 11 58 55
f 11 55 33
f 11 33 17
f 11 17 30
f 11 30 29
f 11 29 12
f 11 24 28
f 12 29 13
f 13 29 30
f 13 30 14
f 14 30 15
f 15 30 31
f 15 31 17
f 16 17 32
f 17 31 30
f 17 33 34
f 17 34 32
f 18 36 37
f 18 37 38
f 18 38 35
f 19 39 20
f 20 39 40
f 20 40 41
f 20 41 42
f 20 42 43
f 20 43 21
f 21 43 44
f 21 44 45
f 21 45 46
f 21 46 23
f 21 23 22
f 23 46 25
f 24 47 48
f 24 48 28
f 24 27 49
f 24 49 50
f 24 50 51
f 24 51 52
f 24 52 53
f 24 53 67
f 24 67 66
f 24 66 65
f 24 65 70
f 24 70 69
f 24 69 68
f 24 68 57
f 24 57 38
f 24 38 47
f 25 46 54
f 25 54 45
f 25 45 27
f 25 27 26
f 27 45 44
f 27 44 49
f 33 55 56
f 33 56 34
f 35 38 57
f 36 56 55
f 36 55 58
f 36 58 37
f 41 59 60
f 41 60 42
f 42 60 43
f 43 61 62
f 43 62 63
f 43 63 49
f 43 49 44
f 43 60 61
f 45 54 46
f 49 63 62
f 49 62 64
f 49 64 65
f 49 65 50
f 50 65 66
f 50 66 67
f 50 67 52
f 50 52 51
f 52 67 53
f 59 68 69
f 59 69 70
f 59 70 65
f 59 65 71
f 59 71 60
f 60 71 65
f 60 65 64
f 60 64 62
f 60 62 72
f 60 72 61
f 61 72 62

