# https://github.com/mikedh/trimesh
v -0.01361154 -0.05600033 -0.01763897
v -0.01361154 -0.05932678 -0.01953176
v -0.01361154 -0.05600033 -0.01956405
v -0.02351741 -0.05600033 -0.01750141
v -0.01361154 -0.05932678 -0.02011852
v -0.02406921 -0.05933592 -0.01943855
v -0.01361154 -0.05624327 -0.01973727
v -0.01893712 -0.05600033 -0.01995316
v -0.02406921 -0.05600033 -0.01757636
v -0.01361154 -0.05837427 -0.02036951
v -0.02406921 -0.05930261 -0.02002953
v -0.01361154 -0.05651234 -0.01991358
v -0.01361154 -0.05687774 -0.02005339
v -0.01361154 -0.05717489 -0.02016428
v -0.01361154 -0.05783580 -0.02028276
v -0.02406921 -0.05717489 -0.02010027
v -0.02406921 -0.05647871 -0.01993856
v -0.02267178 -0.05600033 -0.01973699
v -0.02406921 -0.05600033 -0.01959353
v -0.02406921 -0.05914424 -0.02005816
v -0.02406921 -0.05837427 -0.02019124
f 1 2 5
f 1 5 10
f 1 10 15
f 1 15 14
f 1 14 13
f 1 13 12
f 1 12 7
f 1 7 3
f 1 3 8
f 1 8 18
f 1 18 19
f 1 19 9
f 1 9 4
f 1 4 2
f 2 4 6
f 2 6 5
f 3 7 8
f 4 9 6
f 5 6 11
f 5 11 10
f 6 9 19
f 6 19 17
f 6 17 16
f 6 16 21
f 6 21 20
f 6 20 11
f 7 12 8
f 8 12 13
f 8 13 14
f 8 14 15
f 8 15 10
f 8 10 16
f 8 16 17
f 8 17 18
f 10 11 20
f 10 20 21
f 10 21 16
f 17 19 18

