# https://github.com/mikedh/trimesh
v 0.01428156 -0.01756600 0.01094397
v 0.01396616 -0.01813359 0.01135814
v 0.01428156 -0.01781900 0.01107499
v 0.01428156 -0.01756600 0.00646829
v 0.01332797 -0.01756600 0.01121305
v 0.01332797 -0.01799719 0.01147346
v 0.01396616 -0.01830079 0.01135814
v 0.01428156 -0.01859191 0.01112751
v 0.01428156 -0.01767013 0.00643960
v 0.01212711 -0.01756600 0.00645638
v 0.01186799 -0.01756600 0.01159743
v 0.01275050 -0.02181264 0.01133648
v 0.01428156 -0.02469311 0.01044806
v 0.01428156 -0.01858018 0.00630966
v 0.01212711 -0.01771853 0.00642227
v 0.01181320 -0.01756600 0.00645801
v 0.00972687 -0.02357407 0.01119680
v 0.01139120 -0.02182877 0.01133865
v 0.01212711 -0.02184417 0.01134406
v 0.00012886 -0.01756600 0.01027752
v 0.00012886 -0.01772953 0.01037768
v -0.00074921 -0.01790626 0.01033599
v 0.00012886 -0.01877524 0.01061589
v 0.00972687 -0.02505683 0.01091636
v 0.01428156 -0.02505683 0.01034249
v 0.01428156 -0.01972855 0.00619597
v 0.01092773 -0.01877524 0.00628043
v 0.01092773 -0.01773687 0.00643581
v 0.01092773 -0.01756600 0.00647046
v 0.00938038 -0.02505683 0.01091420
v 0.00371812 -0.02505683 0.01052819
v -0.00036422 -0.01756600 0.01019361
v -0.00084545 -0.01756600 0.01007233
v -0.00084545 -0.01780946 0.01024287
v -0.00084545 -0.01835505 0.01040529
v -0.00084545 -0.01877524 0.01048325
v 0.01428156 -0.02505683 0.00748719
v 0.01428156 -0.02117465 0.00606658
v 0.00972687 -0.02117465 0.00608986
v -0.00084545 -0.02237436 0.00629234
v 0.01014591 -0.01786740 0.00645746
v -0.00084545 -0.01795759 0.00760792
v -0.00084545 -0.01756600 0.00783043
v -0.00084545 -0.01944329 0.01040096
v 0.00329019 -0.02505683 0.01045131
v 0.01428156 -0.02488743 0.00735455
v 0.01183245 -0.02505683 0.00642173
v 0.01428156 -0.02243229 0.00624957
v 0.01212711 -0.02357407 0.00617702
v 0.01092773 -0.02357407 0.00616728
v 0.00372848 -0.02477450 0.00620139
v -0.00084545 -0.02355720 0.00620897
v -0.00084545 -0.02256502 0.00627610
v -0.00084545 -0.02160438 0.00645151
v -0.00084545 -0.01972049 0.01034303
v -0.00081140 -0.01968675 0.01037497
v 0.00285782 -0.02505683 0.01027427
v 0.01292078 -0.02434111 0.00641469
v 0.01428156 -0.02470777 0.00725981
v 0.01121943 -0.02505683 0.00637138
v 0.01092773 -0.02477450 0.00627285
v 0.01204271 -0.02475470 0.00636001
v 0.01428156 -0.02289135 0.00639629
v 0.00372848 -0.02505683 0.00627718
v -0.00084545 -0.02457138 0.00636651
v -0.00084545 -0.02374199 0.00622088
v -0.00084545 -0.02505683 0.00874322
v 0.01092773 -0.02505683 0.00636056
v 0.00260462 -0.02505683 0.00633728
v -0.00084545 -0.02468504 0.00641848
v -0.00084545 -0.02505683 0.00658902
f 1 2 3
f 1 3 8
f 1 8 13
f 1 13 25
f 1 25 37
f 1 37 46
f 1 46 59
f 1 59 63
f 1 63 48
f 1 48 38
f 1 38 26
f 1 26 14
f 1 14 9
f 1 9 4
f 1 4 10
f 1 10 16
f 1 16 29
f 1 29 43
f 1 43 33
f 1 33 32
f 1 32 20
f 1 20 11
f 1 11 5
f 1 5 6
f 1 6 2
f 2 7 8
f 2 8 3
f 2 6 7
f 4 9 10
f 5 11 6
f 6 12 7
f 6 11 12
f 7 13 8
f 7 12 13
f 9 14 15
f 9 15 10
f 10 15 16
f 11 17 18
f 11 18 19
f 11 19 12
f 11 20 21
f 11 21 22
f 11 22 23
f 11 23 17
f 12 19 17
f 12 17 24
f 12 24 13
f 13 24 25
f 14 26 27
f 14 27 15
f 15 27 28
f 15 28 29
f 15 29 16
f 17 30 24
f 17 19 18
f 17 23 31
f 17 31 30
f 20 32 21
f 21 32 22
f 22 32 33
f 22 33 34
f 22 34 35
f 22 35 36
f 22 36 23
f 23 36 31
f 24 30 31
f 24 31 45
f 24 45 57
f 24 57 67
f 24 67 71
f 24 71 69
f 24 69 64
f 24 64 68
f 24 68 60
f 24 60 47
f 24 47 37
f 24 37 25
f 26 38 27
f 27 38 39
f 27 39 40
f 27 40 28
f 28 40 41
f 28 41 29
f 29 41 42
f 29 42 43
f 31 36 44
f 31 44 45
f 33 43 42
f 33 42 54
f 33 54 40
f 33 40 53
f 33 53 52
f 33 52 66
f 33 66 65
f 33 65 70
f 33 70 71
f 33 71 67
f 33 67 55
f 33 55 44
f 33 44 36
f 33 36 35
f 33 35 34
f 37 47 46
f 38 48 49
f 38 49 50
f 38 50 51
f 38 51 39
f 39 51 52
f 39 52 53
f 39 53 40
f 40 54 41
f 41 54 42
f 44 55 56
f 44 56 45
f 45 56 57
f 46 58 59
f 46 47 58
f 47 60 61
f 47 61 62
f 47 62 58
f 48 63 58
f 48 58 62
f 48 62 49
f 49 62 61
f 49 61 51
f 49 51 50
f 51 64 65
f 51 65 66
f 51 66 52
f 51 61 64
f 55 67 56
f 56 67 57
f 58 63 59
f 60 68 61
f 61 68 64
f 64 69 65
f 65 69 70
f 69 71 70

