# https://github.com/mikedh/trimesh
v 0.00132873 -0.02496518 -0.01687516
v 0.00132873 -0.02518768 -0.01769650
v -0.00016226 -0.02520039 -0.01768981
v -0.00016226 -0.02513319 -0.01681391
v 0.00038125 -0.02518859 -0.01607214
v 0.00132873 -0.02515226 -0.01602743
v 0.00972780 -0.02507325 -0.01598448
v 0.00964003 -0.02505146 -0.01696494
v 0.01064828 -0.02523854 -0.01767607
v 0.00972780 -0.02596142 -0.01930043
v -0.00016226 -0.02611581 -0.01930043
v -0.00016226 -0.02538656 -0.01627633
v -0.00016226 -0.02591874 -0.01598342
v 0.00132873 -0.02597504 -0.01570390
v 0.01092735 -0.02597504 -0.01572255
v 0.01092735 -0.02511594 -0.01602250
v 0.01099937 -0.02508597 -0.01692868
v 0.01133358 -0.02513410 -0.01682095
v 0.01133358 -0.02520584 -0.01699838
v 0.01133358 -0.02538656 -0.01740922
v 0.01133358 -0.02569533 -0.01807530
v 0.01133358 -0.02624839 -0.01925959
v 0.01119291 -0.02623114 -0.01930043
v 0.01100724 -0.02618482 -0.01930043
v -0.00016226 -0.03262812 -0.01930043
v -0.00016226 -0.02613124 -0.01598483
v -0.00016226 -0.03424099 -0.01603940
v 0.01133358 -0.02717470 -0.01586936
v 0.01133358 -0.02597504 -0.01577959
v 0.00252828 -0.03424099 -0.01606897
v 0.00266894 -0.03424099 -0.01607531
v 0.01133358 -0.02516044 -0.01606897
v 0.01133358 -0.02627564 -0.01930043
v -0.00016226 -0.03424099 -0.01915926
v 0.00352527 -0.03424099 -0.01930043
v 0.01133358 -0.03424099 -0.01697304
v 0.01133358 -0.03248372 -0.01930043
v 0.01044348 -0.03424099 -0.01930043
v 0.01133358 -0.03424099 -0.01905681
f 1 2 3
f 1 3 4
f 1 4 5
f 1 5 6
f 1 6 7
f 1 7 8
f 1 8 9
f 1 9 2
f 2 9 10
f 2 10 3
f 3 11 25
f 3 25 34
f 3 34 27
f 3 27 26
f 3 26 13
f 3 13 12
f 3 12 4
f 3 10 11
f 4 12 5
f 5 12 13
f 5 13 14
f 5 14 6
f 6 14 7
f 7 15 16
f 7 16 17
f 7 17 8
f 7 14 15
f 8 17 9
f 9 17 18
f 9 18 19
f 9 19 20
f 9 20 21
f 9 21 22
f 9 22 23
f 9 23 24
f 9 24 10
f 10 24 23
f 10 23 33
f 10 33 37
f 10 37 38
f 10 38 35
f 10 35 25
f 10 25 11
f 13 26 14
f 14 26 27
f 14 27 15
f 15 28 29
f 15 29 16
f 15 27 30
f 15 30 31
f 15 31 28
f 16 29 32
f 16 32 17
f 17 32 18
f 18 32 29
f 18 29 28
f 18 28 36
f 18 36 39
f 18 39 37
f 18 37 33
f 18 33 22
f 18 22 21
f 18 21 20
f 18 20 19
f 22 33 23
f 25 35 34
f 27 34 35
f 27 35 38
f 27 38 39
f 27 39 36
f 27 36 31
f 27 31 30
f 28 31 36
f 37 39 38

