# https://github.com/mikedh/trimesh
v -0.03926586 0.03293106 -0.00988545
v -0.03950680 0.03293106 -0.00847425
v -0.03777537 0.03472154 -0.00988545
v -0.02449721 0.03293106 -0.00988545
v -0.03964970 0.03293106 -0.00007627
v -0.03783685 0.03480175 -0.00227215
v -0.03667038 0.03604100 0.00232475
v -0.03766570 0.03482747 -0.00988545
v -0.02424631 0.03307093 -0.00988545
v -0.02303829 0.03319639 -0.00929601
v -0.02428785 0.03293106 -0.00968279
v -0.03963807 0.03293106 0.00001888
v -0.03923097 0.03293106 0.00189966
v -0.03661388 0.03598135 0.00273748
v -0.03437732 0.03818370 0.00273748
v -0.03439892 0.03818370 0.00232475
v -0.03414635 0.03818370 -0.00988545
v -0.03502868 0.03734812 -0.00988545
v -0.02407682 0.03319794 -0.00988545
v -0.02303829 0.03362576 -0.00929601
v -0.02297515 0.03304882 -0.00847425
v -0.02325763 0.03293106 -0.00847425
v -0.02400703 0.03328947 -0.00988545
v -0.03912130 0.03293106 0.00228891
v -0.03895015 0.03293106 0.00273748
v -0.03197127 0.03818370 0.00273748
v -0.03220057 0.03818370 -0.00988545
v -0.02267938 0.03479199 0.00273748
v -0.02297515 0.03365301 -0.00847425
v -0.02404525 0.03416516 -0.00988545
v -0.02416156 0.03430554 -0.00988545
v -0.02450718 0.03461921 -0.00988545
v -0.02267606 0.03428189 0.00273748
v -0.02316292 0.03293106 -0.00244886
v -0.02304162 0.03293106 -0.00792806
v -0.02597607 0.03293106 0.00273748
v -0.03139800 0.03818370 0.00235070
v -0.03144951 0.03818370 -0.00821351
v -0.03028969 0.03818370 0.00032287
v -0.03028636 0.03818370 0.00112486
v -0.03118199 0.03818370 0.00215174
v -0.02521504 0.03293106 0.00242607
v -0.02512033 0.03293106 0.00236429
v -0.02501731 0.03293106 0.00228273
v -0.02321111 0.03293106 -0.00126751
v -0.02320778 0.03293106 -0.00133424
f 1 2 3
f 1 3 8
f 1 8 18
f 1 18 17
f 1 17 27
f 1 27 32
f 1 32 31
f 1 31 30
f 1 30 23
f 1 23 19
f 1 19 9
f 1 9 4
f 1 4 11
f 1 11 22
f 1 22 35
f 1 35 34
f 1 34 46
f 1 46 45
f 1 45 44
f 1 44 43
f 1 43 42
f 1 42 36
f 1 36 25
f 1 25 24
f 1 24 13
f 1 13 12
f 1 12 5
f 1 5 2
f 2 5 6
f 2 6 3
f 3 6 7
f 3 7 8
f 4 9 10
f 4 10 11
f 5 12 7
f 5 7 6
f 7 12 13
f 7 13 14
f 7 14 15
f 7 15 16
f 7 16 17
f 7 17 18
f 7 18 8
f 9 19 10
f 10 20 29
f 10 29 21
f 10 21 22
f 10 22 11
f 10 19 23
f 10 23 20
f 13 24 14
f 14 24 25
f 14 25 36
f 14 36 33
f 14 33 28
f 14 28 26
f 14 26 15
f 15 26 37
f 15 37 41
f 15 41 40
f 15 40 39
f 15 39 38
f 15 38 27
f 15 27 17
f 15 17 16
f 20 28 29
f 20 23 30
f 20 30 31
f 20 31 32
f 20 32 28
f 21 29 33
f 21 33 34
f 21 34 35
f 21 35 22
f 26 28 37
f 27 38 32
f 28 33 29
f 28 32 38
f 28 38 39
f 28 39 40
f 28 40 41
f 28 41 37
f 33 36 42
f 33 42 43
f 33 43 44
f 33 44 45
f 33 45 46
f 33 46 34

