# https://github.com/mikedh/trimesh
v -0.02467405 0.00146107 0.01299241
v -0.02075292 0.00146107 0.01027830
v -0.02591398 0.00146107 0.01299241
v -0.02446291 -0.00123304 0.01299241
v -0.02075292 -0.00673592 0.01116686
v -0.02075292 -0.00197581 0.01074309
v -0.02075292 0.00146107 0.00667697
v -0.02606943 0.00146107 0.01192426
v -0.02700519 -0.00112718 0.00799602
v -0.02596233 0.00042542 0.01299241
v -0.02387599 -0.01656312 0.01299241
v -0.02075292 -0.00965056 0.01113188
v -0.02162258 0.00146107 0.00641262
v -0.02075292 -0.00557500 0.00639849
v -0.02618387 0.00146107 0.01072426
v -0.02700519 -0.00112718 0.00755947
v -0.02697642 -0.00197581 0.00794692
v -0.02607861 -0.01517285 0.01192426
v -0.02597334 -0.01517285 0.01299241
v -0.02600945 -0.01410544 0.01299241
v -0.02606147 -0.00930652 0.01299241
v -0.02606208 -0.00917419 0.01299241
v -0.02606698 -0.00810679 0.01299241
v -0.02606637 -0.00797446 0.01299241
v -0.02604678 -0.00557500 0.01299241
v -0.02580565 -0.01656312 0.01299241
v -0.02075292 -0.01656312 0.01033345
v -0.02075292 -0.01644491 0.01035902
v -0.02075292 -0.01641669 0.01036507
v -0.02075292 -0.01157366 0.01107471
v -0.02075292 -0.01085382 0.01110699
v -0.02170520 0.00146107 0.00639042
v -0.02075292 -0.00861844 0.00632248
v -0.02614470 0.00146107 0.00952494
v -0.02697642 -0.00197581 0.00759512
v -0.02611104 0.00146107 0.00936888
v -0.02585951 0.00146107 0.00830005
v -0.02562083 0.00146107 0.00782920
v -0.02513979 0.00146107 0.00730118
v -0.02396473 0.00146107 0.00661777
v -0.02363119 -0.00437527 0.00641934
v -0.02366118 -0.00557500 0.00641060
v -0.02358223 -0.01277339 0.00634670
v -0.02605841 -0.01637434 0.01072426
v -0.02596171 -0.01637434 0.01192426
v -0.02596049 -0.01530693 0.01299241
v -0.02593417 -0.01656312 0.01167067
v -0.02584788 -0.01637434 0.01299241
v -0.02075292 -0.01656312 0.00616508
v -0.02269298 0.00146107 0.00636957
v -0.02075292 -0.01277339 0.00621890
v -0.02147202 -0.00557500 0.00627271
v -0.02147202 -0.01277339 0.00612607
v -0.02267217 -0.00317554 0.00626800
v -0.02267217 -0.00197581 0.00629423
v -0.02482705 -0.01517285 0.00745454
v -0.02471934 -0.01637434 0.00751912
v -0.02524505 -0.01637434 0.00832494
v -0.02559757 -0.01637434 0.00909310
v -0.02586012 -0.01637434 0.00969243
v -0.02391516 0.00146107 0.00660499
v -0.02341576 0.00146107 0.00649603
v -0.02273705 0.00146107 0.00636957
v -0.02267217 -0.01277339 0.00612069
v -0.02255099 -0.01656312 0.00633257
v -0.02326276 -0.01568273 0.00652898
v -0.02387232 -0.01637434 0.00697629
v -0.02584482 -0.01656312 0.00973278
v -0.02599966 -0.01656312 0.01053861
v -0.02601006 -0.01656312 0.01072426
v -0.02128353 -0.01656312 0.00615163
v -0.02373645 -0.01656312 0.00694266
v -0.02467344 -0.01656312 0.00755880
v -0.02506267 -0.01656312 0.00815544
v -0.02517161 -0.01656312 0.00832629
v -0.02147202 -0.01656312 0.00615499
v -0.02240411 -0.01656312 0.00629827
v -0.02305651 -0.01656312 0.00654513
v -0.02317830 -0.01637434 0.00658280
f 1 2 7
f 1 7 13
f 1 13 32
f 1 32 50
f 1 50 63
f 1 63 62
f 1 62 61
f 1 61 40
f 1 40 39
f 1 39 38
f 1 38 37
f 1 37 36
f 1 36 34
f 1 34 15
f 1 15 8
f 1 8 3
f 1 3 10
f 1 10 25
f 1 25 24
f 1 24 23
f 1 23 22
f 1 22 21
f 1 21 20
f 1 20 19
f 1 19 46
f 1 46 48
f 1 48 26
f 1 26 11
f 1 11 4
f 1 4 5
f 1 5 6
f 1 6 2
f 2 6 5
f 2 5 12
f 2 12 31
f 2 31 30
f 2 30 29
f 2 29 28
f 2 28 27
f 2 27 49
f 2 49 51
f 2 51 33
f 2 33 14
f 2 14 7
f 3 8 9
f 3 9 10
f 4 11 5
f 5 11 12
f 7 14 13
f 8 15 9
f 9 15 16
f 9 16 35
f 9 35 17
f 9 17 18
f 9 18 19
f 9 19 20
f 9 20 21
f 9 21 22
f 9 22 23
f 9 23 24
f 9 24 25
f 9 25 10
f 11 26 47
f 11 47 70
f 11 70 69
f 11 69 68
f 11 68 75
f 11 75 74
f 11 74 73
f 11 73 72
f 11 72 78
f 11 78 65
f 11 65 77
f 11 77 76
f 11 76 71
f 11 71 49
f 11 49 27
f 11 27 28
f 11 28 29
f 11 29 30
f 11 30 31
f 11 31 12
f 13 14 32
f 14 33 32
f 15 34 16
f 16 34 36
f 16 36 37
f 16 37 38
f 16 38 39
f 16 39 40
f 16 40 41
f 16 41 42
f 16 42 43
f 16 43 35
f 17 35 44
f 17 44 18
f 18 44 45
f 18 45 46
f 18 46 19
f 26 48 45
f 26 45 47
f 32 33 51
f 32 51 52
f 32 52 53
f 32 53 54
f 32 54 55
f 32 55 50
f 35 43 56
f 35 56 57
f 35 57 58
f 35 58 59
f 35 59 60
f 35 60 44
f 40 61 41
f 41 61 62
f 41 62 63
f 41 63 54
f 41 54 64
f 41 64 42
f 42 64 43
f 43 64 65
f 43 65 66
f 43 66 67
f 43 67 57
f 43 57 56
f 44 60 68
f 44 68 69
f 44 69 70
f 44 70 47
f 44 47 45
f 45 48 46
f 49 71 53
f 49 53 51
f 50 55 63
f 51 53 52
f 53 71 64
f 53 64 54
f 54 63 55
f 57 67 72
f 57 72 73
f 57 73 58
f 58 73 74
f 58 74 75
f 58 75 68
f 58 68 59
f 59 68 60
f 64 71 76
f 64 76 77
f 64 77 65
f 65 78 66
f 66 78 79
f 66 79 67
f 67 79 78
f 67 78 72

