# https://github.com/mikedh/trimesh
v 0.01436507 0.01753252 0.02609833
v 0.01436507 0.01688449 0.02675888
v 0.01455664 0.01752067 0.02609833
v 0.01436507 0.01369503 0.02609833
v 0.01436507 0.01487717 0.02878766
v 0.02177785 0.01400061 0.02878766
v 0.02177785 0.01594207 0.02609833
v 0.01692816 0.01080522 0.02875343
v 0.01676633 0.01080522 0.02878766
v 0.01436507 0.01251290 0.02878766
v 0.01926411 0.01363971 0.02609833
v 0.02177785 0.01240226 0.02878766
v 0.02177785 0.01414483 0.02609833
v 0.01709651 0.01080522 0.02878766
v 0.02052751 0.01381555 0.02609833
v 0.02177785 0.01385111 0.02629736
v 0.02177785 0.01242992 0.02872474
v 0.02177785 0.01411915 0.02609938
v 0.02177422 0.01412179 0.02609833
v 0.02177785 0.01318662 0.02730885
v 0.02130543 0.01396373 0.02609833
v 0.02145638 0.01400917 0.02609833
f 1 2 3
f 1 3 7
f 1 7 13
f 1 13 19
f 1 19 22
f 1 22 21
f 1 21 15
f 1 15 11
f 1 11 4
f 1 4 10
f 1 10 5
f 1 5 2
f 2 5 3
f 3 5 6
f 3 6 7
f 4 8 9
f 4 9 10
f 4 11 8
f 5 10 9
f 5 9 14
f 5 14 12
f 5 12 6
f 6 12 17
f 6 17 20
f 6 20 16
f 6 16 18
f 6 18 13
f 6 13 7
f 8 14 9
f 8 11 15
f 8 15 16
f 8 16 14
f 12 14 17
f 13 18 19
f 14 16 20
f 14 20 17
f 15 21 16
f 16 21 22
f 16 22 18
f 18 22 19

