# https://github.com/mikedh/trimesh
v 0.01592861 0.01243443 0.02186858
v 0.01756438 0.00860707 0.02186858
v 0.01592861 0.01420569 0.02609791
v 0.01592861 0.02497098 0.02186858
v 0.01809213 0.00760354 0.02186858
v 0.01840027 0.00792044 0.02241427
v 0.01966987 0.00801665 0.02347171
v 0.02103902 0.00775445 0.02372303
v 0.01704964 0.01390011 0.02609791
v 0.01592861 0.01654286 0.02609791
v 0.01592861 0.02499173 0.02231118
v 0.02078089 0.01994768 0.02186858
v 0.01927869 0.00756959 0.02275378
v 0.01876445 0.00707726 0.02186858
v 0.02103902 0.00587000 0.02207311
v 0.02103902 0.00740548 0.02343445
v 0.02103902 0.00842598 0.02403148
v 0.01784952 0.01373788 0.02609791
v 0.02103902 0.01574305 0.02609791
v 0.01592861 0.02432019 0.02382032
v 0.01592861 0.02500116 0.02274757
v 0.02103902 0.01953080 0.02273349
v 0.02103902 0.01964587 0.02186858
v 0.01888800 0.00712064 0.02200521
v 0.02096548 0.00576626 0.02186858
v 0.02103902 0.00579455 0.02197002
v 0.02103902 0.01391331 0.02609791
v 0.02052778 0.01381711 0.02609791
v 0.01926418 0.01363980 0.02609791
v 0.01818567 0.01367941 0.02609791
v 0.02103902 0.01792554 0.02457759
v 0.01592861 0.02433151 0.02381328
v 0.02103902 0.01915165 0.02346053
v 0.02103902 0.00573042 0.02186858
v 0.02103902 0.01850841 0.02406170
v 0.02103902 0.01898565 0.02361869
f 1 2 3
f 1 3 10
f 1 10 20
f 1 20 32
f 1 32 21
f 1 21 11
f 1 11 4
f 1 4 12
f 1 12 23
f 1 23 34
f 1 34 25
f 1 25 14
f 1 14 5
f 1 5 2
f 2 5 3
f 3 5 6
f 3 6 7
f 3 7 8
f 3 8 9
f 3 9 18
f 3 18 30
f 3 30 29
f 3 29 28
f 3 28 27
f 3 27 19
f 3 19 10
f 4 11 12
f 5 13 6
f 5 14 13
f 6 13 7
f 7 13 15
f 7 15 16
f 7 16 8
f 8 17 9
f 8 16 15
f 8 15 26
f 8 26 34
f 8 34 23
f 8 23 22
f 8 22 33
f 8 33 36
f 8 36 35
f 8 35 31
f 8 31 19
f 8 19 27
f 8 27 17
f 9 17 18
f 10 19 20
f 11 21 12
f 12 22 23
f 12 21 22
f 13 14 24
f 13 24 15
f 14 25 26
f 14 26 15
f 14 15 24
f 17 27 28
f 17 28 29
f 17 29 30
f 17 30 18
f 19 31 32
f 19 32 20
f 21 32 33
f 21 33 22
f 25 34 26
f 31 35 32
f 32 35 36
f 32 36 33

