# https://github.com/mikedh/trimesh
v 0.01988303 -0.01871237 -0.02196241
v 0.02224572 -0.01757322 -0.02229755
v 0.02228549 -0.01837360 -0.02228247
v 0.02189271 -0.01871237 -0.02221426
v 0.01988303 -0.01871237 -0.01568727
v 0.01988303 -0.01517393 -0.02195651
v 0.02214813 -0.00437622 -0.02231460
v 0.02291441 -0.01752855 -0.02232903
v 0.02292887 -0.01847411 -0.02232575
v 0.02292887 -0.01871237 -0.02228444
v 0.02052883 -0.01871237 -0.01568071
v 0.02052883 -0.01757322 -0.01566628
v 0.01988303 -0.01821911 -0.01568137
v 0.01988303 -0.00373033 -0.02184043
v 0.01988303 -0.00252976 -0.02181813
v 0.01988303 -0.00077636 -0.02176369
v 0.01988303 0.00029950 -0.02172434
v 0.02223850 -0.00365215 -0.02229165
v 0.02256742 -0.00437622 -0.02231460
v 0.02611447 -0.01871237 -0.02236576
v 0.02396021 -0.01871237 -0.02233297
v 0.03219168 -0.01871237 -0.01705012
v 0.03219168 -0.01397336 -0.01680483
v 0.03219168 -0.00677551 -0.01650511
v 0.02891090 0.00029950 -0.01618309
v 0.02886873 0.00029950 -0.01618309
v 0.02820245 0.00029950 -0.01621064
v 0.02348551 -0.00486762 -0.01624867
v 0.01990713 -0.01332189 -0.01624474
v 0.01988303 -0.01372022 -0.01621326
v 0.01988303 0.00029950 -0.02042380
v 0.02185295 0.00029950 -0.02199455
v 0.02249392 -0.00365215 -0.02229165
v 0.02292887 0.00029950 -0.02205095
v 0.02911572 -0.01871237 -0.02215392
v 0.02892777 -0.01871237 -0.02217622
v 0.02720364 -0.01871237 -0.02231329
v 0.02652773 -0.01871237 -0.02236117
v 0.03219168 -0.01871237 -0.02152562
v 0.03219168 -0.00554515 -0.01652348
v 0.02952657 0.00029950 -0.01626441
v 0.02412286 0.00029950 -0.01694059
v 0.02401564 0.00029950 -0.01696879
v 0.02318550 0.00029950 -0.01722851
v 0.02292887 -0.00077636 -0.02211129
v 0.03219168 0.00029950 -0.02073729
v 0.02963380 -0.01871237 -0.02207260
v 0.03132781 -0.01871237 -0.02174336
v 0.03219168 0.00029950 -0.01675564
v 0.03013261 -0.01871237 -0.02198865
f 1 2 3
f 1 3 4
f 1 4 10
f 1 10 21
f 1 21 20
f 1 20 38
f 1 38 37
f 1 37 36
f 1 36 35
f 1 35 47
f 1 47 50
f 1 50 48
f 1 48 39
f 1 39 22
f 1 22 11
f 1 11 5
f 1 5 13
f 1 13 30
f 1 30 31
f 1 31 17
f 1 17 16
f 1 16 15
f 1 15 14
f 1 14 6
f 1 6 7
f 1 7 2
f 2 8 9
f 2 9 3
f 2 7 8
f 3 9 4
f 4 9 10
f 5 11 12
f 5 12 13
f 6 14 7
f 7 14 15
f 7 15 16
f 7 16 17
f 7 17 18
f 7 18 33
f 7 33 19
f 7 19 20
f 7 20 8
f 8 20 9
f 9 20 21
f 9 21 10
f 11 22 23
f 11 23 24
f 11 24 12
f 12 24 25
f 12 25 26
f 12 26 27
f 12 27 28
f 12 28 13
f 13 29 30
f 13 28 29
f 17 31 44
f 17 44 43
f 17 43 42
f 17 42 27
f 17 27 26
f 17 26 25
f 17 25 41
f 17 41 49
f 17 49 46
f 17 46 34
f 17 34 32
f 17 32 18
f 18 32 34
f 18 34 33
f 19 33 35
f 19 35 36
f 19 36 37
f 19 37 38
f 19 38 20
f 22 39 46
f 22 46 49
f 22 49 40
f 22 40 24
f 22 24 23
f 24 40 25
f 25 40 41
f 27 42 28
f 28 42 43
f 28 43 44
f 28 44 29
f 29 44 31
f 29 31 30
f 33 34 45
f 33 45 35
f 34 46 45
f 35 45 46
f 35 46 47
f 39 48 46
f 40 49 41
f 46 48 50
f 46 50 47

