# https://github.com/mikedh/trimesh
v 0.01269886 0.00073342 0.01752344
v 0.01269886 0.00094375 0.01726316
v 0.01673499 0.00784615 0.01672655
v 0.01673499 0.00737932 0.01752344
v 0.01269886 0.02687843 0.01752344
v 0.01269886 0.00423977 0.01568201
v 0.01673499 0.00970578 0.01568345
v 0.01673499 0.02416979 0.01752344
v 0.01332822 0.02690407 0.01752344
v 0.01269886 0.02688356 0.01735400
v 0.01582868 0.00970834 0.01568201
v 0.01269886 0.02684508 0.01568201
v 0.01673499 0.01186807 0.01568201
v 0.01673499 0.02424161 0.01678928
v 0.01517087 0.02627309 0.01752344
v 0.01332822 0.02692459 0.01672475
v 0.01452808 0.02666040 0.01752344
v 0.01332822 0.02693742 0.01568201
v 0.01317098 0.02691946 0.01568201
v 0.01269886 0.02686560 0.01615408
v 0.01673499 0.02415953 0.01568201
v 0.01673499 0.02424674 0.01672475
v 0.01516178 0.02627052 0.01672475
v 0.01452808 0.02667836 0.01672475
v 0.01462131 0.02658858 0.01568201
v 0.01530599 0.02602685 0.01568201
v 0.01515072 0.02626283 0.01584838
v 0.01673499 0.02418005 0.01592444
v 0.01492039 0.02640134 0.01568201
f 1 2 3
f 1 3 4
f 1 4 8
f 1 8 15
f 1 15 17
f 1 17 9
f 1 9 5
f 1 5 10
f 1 10 20
f 1 20 12
f 1 12 6
f 1 6 2
f 2 6 7
f 2 7 3
f 3 7 13
f 3 13 21
f 3 21 28
f 3 28 22
f 3 22 14
f 3 14 8
f 3 8 4
f 5 9 10
f 6 11 7
f 6 12 19
f 6 19 18
f 6 18 25
f 6 25 29
f 6 29 26
f 6 26 21
f 6 21 13
f 6 13 11
f 7 11 13
f 8 14 15
f 9 16 10
f 9 17 16
f 10 16 18
f 10 18 19
f 10 19 20
f 12 20 19
f 14 22 15
f 15 22 23
f 15 23 24
f 15 24 17
f 16 24 18
f 16 17 24
f 18 24 25
f 21 26 27
f 21 27 28
f 22 28 27
f 22 27 23
f 23 27 24
f 24 27 25
f 25 27 29
f 26 29 27

