# https://github.com/mikedh/trimesh
v 0.03757110 0.03294254 0.00115454
v 0.03677812 0.03294254 0.00290350
v 0.03688641 0.03285081 0.00290350
v 0.03776323 0.03203707 0.00290350
v 0.03776323 0.03275797 0.00115454
v 0.03454243 0.03294254 0.00115454
v 0.03447430 0.03294254 0.00290350
v 0.03776323 0.02987143 0.00290350
v 0.03776323 0.02982779 0.00115454
v 0.03447954 0.03294254 0.00183067
v 0.02652885 0.03293514 0.00115454
v 0.02772879 0.03292257 0.00290350
v 0.03776323 0.02974271 0.00244550
v 0.03522361 0.02916459 0.00290350
v 0.03776323 0.02967872 0.00152437
v 0.03494066 0.02916459 0.00115454
v 0.02650439 0.03292516 0.00115454
v 0.01991957 0.03222534 0.00290350
v 0.02652885 0.03291702 0.00290350
v 0.03776323 0.02971867 0.00232479
v 0.03494590 0.02916459 0.00118622
v 0.03776323 0.02967207 0.00154337
v 0.02172908 0.02916459 0.00290350
v 0.02402941 0.02916459 0.00115454
v 0.02558042 0.03250793 0.00115454
v 0.01991957 0.03214508 0.00290350
v 0.02498132 0.03202006 0.00115454
v 0.02429490 0.03142012 0.00115454
v 0.02381457 0.03042736 0.00115454
v 0.02095881 0.02954298 0.00290350
v 0.02168367 0.02916459 0.00251433
v 0.02095881 0.02954298 0.00264805
f 1 2 3
f 1 3 4
f 1 4 5
f 1 5 9
f 1 9 16
f 1 16 24
f 1 24 29
f 1 29 28
f 1 28 27
f 1 27 25
f 1 25 17
f 1 17 11
f 1 11 6
f 1 6 10
f 1 10 7
f 1 7 2
f 2 7 12
f 2 12 19
f 2 19 18
f 2 18 26
f 2 26 30
f 2 30 23
f 2 23 14
f 2 14 8
f 2 8 4
f 2 4 3
f 4 8 13
f 4 13 20
f 4 20 22
f 4 22 15
f 4 15 9
f 4 9 5
f 6 11 10
f 7 10 11
f 7 11 12
f 8 14 13
f 9 15 16
f 11 17 18
f 11 18 19
f 11 19 12
f 13 14 20
f 14 21 22
f 14 22 20
f 14 23 31
f 14 31 24
f 14 24 16
f 14 16 21
f 15 22 16
f 16 22 21
f 17 25 18
f 18 25 27
f 18 27 28
f 18 28 29
f 18 29 26
f 23 30 31
f 24 31 32
f 24 32 26
f 24 26 29
f 26 32 30
f 30 32 31

