# https://github.com/mikedh/trimesh
v 0.01917211 0.02749351 0.00605193
v 0.01917211 0.02749351 0.01150662
v 0.01917211 0.02577949 0.00610764
v 0.01692638 0.02682541 0.00608862
v 0.01692638 0.02749351 0.00607231
v 0.01599164 0.02535392 0.01299241
v 0.01917211 0.02686353 0.01150187
v 0.01331087 0.02749351 0.01144412
v 0.00372831 0.02694605 0.01299241
v 0.01332655 0.02692804 0.01299241
v 0.01344608 0.02690709 0.01299241
v 0.01451996 0.02670310 0.01299241
v 0.01521562 0.02633554 0.01299241
v 0.01587798 0.02549989 0.01299241
v 0.01917211 0.02562556 0.00611512
v -0.00084545 0.02535392 0.00638619
v -0.00084545 0.02570535 0.00638619
v -0.00084545 0.02617218 0.00645548
v -0.00084545 0.02749351 0.00667696
v 0.01396147 0.02535392 0.01299241
v 0.01917211 0.02535392 0.01111598
v 0.01917211 0.02547707 0.01115403
v 0.01917211 0.02667127 0.01145431
v 0.00252902 0.02749351 0.01114791
v -0.00084545 0.02689872 0.01299241
v 0.01917211 0.02535392 0.00615044
v -0.00084545 0.02535392 0.01094750
v -0.00084545 0.02749351 0.01095429
v 0.00012848 0.02552440 0.01299241
v -0.00084545 0.02559289 0.01299241
v -0.00000281 0.02552817 0.01299241
f 1 2 7
f 1 7 23
f 1 23 22
f 1 22 21
f 1 21 26
f 1 26 15
f 1 15 3
f 1 3 4
f 1 4 5
f 1 5 19
f 1 19 28
f 1 28 24
f 1 24 8
f 1 8 2
f 2 6 7
f 2 8 9
f 2 9 10
f 2 10 11
f 2 11 12
f 2 12 13
f 2 13 14
f 2 14 6
f 3 15 16
f 3 16 4
f 4 16 5
f 5 16 17
f 5 17 18
f 5 18 19
f 6 14 13
f 6 13 12
f 6 12 11
f 6 11 10
f 6 10 9
f 6 9 25
f 6 25 30
f 6 30 31
f 6 31 29
f 6 29 20
f 6 20 27
f 6 27 16
f 6 16 26
f 6 26 21
f 6 21 22
f 6 22 23
f 6 23 7
f 8 24 9
f 9 24 25
f 15 26 16
f 16 27 30
f 16 30 25
f 16 25 28
f 16 28 19
f 16 19 18
f 16 18 17
f 20 29 27
f 24 28 25
f 27 29 31
f 27 31 30

