# https://github.com/mikedh/trimesh
v -0.03547716 0.02884377 -0.00988769
v -0.03547716 0.02884377 -0.02004471
v -0.03602984 0.02884377 -0.00988769
v -0.03547716 0.02627507 -0.00988769
v -0.03547716 0.02802429 -0.02012085
v -0.03900380 0.02884377 -0.01934948
v -0.03603191 0.02802429 -0.00988769
v -0.03900380 0.02884377 -0.01445780
v -0.03900380 0.02830055 -0.01434059
v -0.03900380 0.02802429 -0.01428950
v -0.03900380 0.01842553 -0.01284593
v -0.03900380 0.01722618 -0.01274075
v -0.03547716 0.02388966 -0.01124309
v -0.03548165 0.02628304 -0.00988769
v -0.03900380 0.01527642 -0.01308236
v -0.03669505 0.01527642 -0.01246125
v -0.03647412 0.01527642 -0.01246125
v -0.03592731 0.01527642 -0.01249131
v -0.03585999 0.01527642 -0.01282790
v -0.03580787 0.01527642 -0.01320758
v -0.03547716 0.02682494 -0.02007677
v -0.03900380 0.01962621 -0.01923327
v -0.03900380 0.02082555 -0.01925130
v -0.03601257 0.02783436 -0.00988769
v -0.03563008 0.02655001 -0.00988769
v -0.03547716 0.01527642 -0.01770556
v -0.03900380 0.01527642 -0.01898182
v -0.03547716 0.02562427 -0.02003169
v -0.03547716 0.02442492 -0.01996958
v -0.03547716 0.01527642 -0.01921123
v -0.03547716 0.01601489 -0.01931441
f 1 2 6
f 1 6 8
f 1 8 3
f 1 3 7
f 1 7 24
f 1 24 25
f 1 25 14
f 1 14 4
f 1 4 13
f 1 13 26
f 1 26 30
f 1 30 31
f 1 31 29
f 1 29 28
f 1 28 21
f 1 21 5
f 1 5 2
f 2 5 6
f 3 8 9
f 3 9 10
f 3 10 11
f 3 11 12
f 3 12 7
f 4 14 15
f 4 15 16
f 4 16 17
f 4 17 18
f 4 18 19
f 4 19 20
f 4 20 13
f 5 21 22
f 5 22 23
f 5 23 6
f 6 23 22
f 6 22 27
f 6 27 15
f 6 15 12
f 6 12 11
f 6 11 10
f 6 10 9
f 6 9 8
f 7 12 24
f 12 15 25
f 12 25 24
f 13 20 26
f 14 25 15
f 15 27 30
f 15 30 26
f 15 26 20
f 15 20 19
f 15 19 18
f 15 18 17
f 15 17 16
f 21 28 22
f 22 28 29
f 22 29 27
f 27 31 30
f 27 29 31

