# https://github.com/mikedh/trimesh
v 0.02177857 0.01239943 0.02878766
v 0.02177857 0.01242832 0.02872448
v 0.02178661 0.00642529 0.02878766
v 0.02177857 0.01399810 0.02878766
v 0.02177857 0.01318271 0.02730900
v 0.02177857 0.01384722 0.02629760
v 0.02177857 0.01411688 0.02609938
v 0.02217285 -0.01681319 0.02609833
v 0.02217285 -0.01627388 0.02667747
v 0.02217285 -0.01412306 0.02878766
v 0.02178854 0.01399810 0.02878766
v 0.02292829 0.01546836 0.02696888
v 0.02227802 0.01544589 0.02694703
v 0.02179112 0.01594347 0.02609833
v 0.02177857 0.01594026 0.02609833
v 0.02177857 0.01414256 0.02609833
v 0.02275173 -0.01677467 0.02609833
v 0.02292829 -0.01591435 0.02703233
v 0.02292829 -0.01411343 0.02878766
v 0.02293987 0.01398205 0.02878766
v 0.02357824 0.01545873 0.02696151
v 0.02292829 0.01586642 0.02632524
v 0.02294855 0.01598199 0.02609833
v 0.02373003 -0.01624820 0.02609833
v 0.02360975 -0.01583409 0.02698994
v 0.02297814 -0.01409738 0.02878766
v 0.02402462 0.01364498 0.02878766
v 0.02382201 0.01564492 0.02632524
v 0.02478423 0.01308962 0.02878766
v 0.02387057 0.01569629 0.02609833
v 0.02388633 -0.01611338 0.02609833
v 0.02386414 -0.01604275 0.02632524
v 0.02433496 -0.01351313 0.02878766
v 0.02416805 -0.01365438 0.02878766
v 0.02478712 0.01309283 0.02872448
v 0.02444076 0.01461766 0.02609833
v 0.02438641 0.01473002 0.02609833
v 0.02432435 0.01484880 0.02609833
v 0.02491962 0.01242190 0.02878766
v 0.02492670 0.01242190 0.02872448
v 0.02401754 -0.01595287 0.02609833
v 0.02475078 -0.01341041 0.02824116
v 0.02476172 -0.01290320 0.02878766
v 0.02478101 0.01308962 0.02797949
v 0.02453435 0.01385364 0.02609833
v 0.02492445 0.01237054 0.02878766
v 0.02501417 0.01122451 0.02872448
v 0.02483279 0.01242190 0.02786024
v 0.02444205 -0.01526589 0.02609833
v 0.02454046 -0.01506686 0.02609833
v 0.02498587 -0.01157097 0.02872448
v 0.02481446 -0.01277800 0.02867446
v 0.02481156 -0.01272985 0.02878766
v 0.02473985 0.01026145 0.02609833
v 0.02500742 0.01122772 0.02878766
v 0.02506402 -0.01037037 0.02872448
v 0.02476333 0.00978314 0.02609833
v 0.02501224 0.01116030 0.02878766
v 0.02460478 -0.01402676 0.02609833
v 0.02505920 -0.01037037 0.02878766
v 0.02497880 -0.01156776 0.02878766
v 0.02497140 -0.01163197 0.02878766
v 0.02476461 -0.00919223 0.02609833
v 0.02476911 -0.00900604 0.02609833
v 0.02477169 -0.00299980 0.02609833
v 0.02477169 -0.00292917 0.02609833
f 1 2 3
f 1 3 10
f 1 10 19
f 1 19 26
f 1 26 34
f 1 34 33
f 1 33 43
f 1 43 53
f 1 53 62
f 1 62 61
f 1 61 60
f 1 60 58
f 1 58 55
f 1 55 46
f 1 46 39
f 1 39 29
f 1 29 27
f 1 27 20
f 1 20 11
f 1 11 4
f 1 4 15
f 1 15 16
f 1 16 7
f 1 7 6
f 1 6 5
f 1 5 2
f 2 5 3
f 3 5 6
f 3 6 7
f 3 7 8
f 3 8 9
f 3 9 10
f 4 11 12
f 4 12 13
f 4 13 14
f 4 14 15
f 7 16 8
f 8 17 18
f 8 18 9
f 8 16 15
f 8 15 14
f 8 14 23
f 8 23 30
f 8 30 38
f 8 38 37
f 8 37 36
f 8 36 45
f 8 45 54
f 8 54 57
f 8 57 66
f 8 66 65
f 8 65 64
f 8 64 63
f 8 63 59
f 8 59 50
f 8 50 49
f 8 49 41
f 8 41 31
f 8 31 24
f 8 24 17
f 9 18 10
f 10 18 19
f 11 20 12
f 12 20 21
f 12 21 22
f 12 22 13
f 13 22 14
f 14 22 23
f 17 24 25
f 17 25 18
f 18 25 19
f 19 25 26
f 20 27 21
f 21 28 23
f 21 23 22
f 21 27 29
f 21 29 28
f 23 28 30
f 24 31 32
f 24 32 25
f 25 32 33
f 25 33 34
f 25 34 26
f 28 29 30
f 29 35 36
f 29 36 37
f 29 37 38
f 29 38 30
f 29 39 40
f 29 40 35
f 31 41 32
f 32 41 42
f 32 42 33
f 33 42 43
f 35 40 44
f 35 44 36
f 36 44 40
f 36 40 45
f 39 46 40
f 40 47 48
f 40 48 45
f 40 46 47
f 41 49 42
f 42 49 50
f 42 50 51
f 42 51 52
f 42 52 53
f 42 53 43
f 45 48 47
f 45 47 54
f 46 55 47
f 47 56 57
f 47 57 54
f 47 55 58
f 47 58 56
f 50 59 56
f 50 56 51
f 51 56 60
f 51 60 61
f 51 61 62
f 51 62 53
f 51 53 52
f 56 59 63
f 56 63 64
f 56 64 65
f 56 65 66
f 56 66 57
f 56 58 60

