# https://github.com/mikedh/trimesh
v 0.01893180 -0.02192535 0.02186858
v 0.01883036 -0.02192535 0.02216751
v 0.01516997 -0.02663227 0.02490136
v 0.01516265 -0.02662091 0.02392507
v 0.01514969 -0.02659716 0.02203957
v 0.01527424 -0.02638290 0.02186858
v 0.01447622 -0.02192535 0.02186858
v 0.01881740 -0.02192535 0.02219070
v 0.01464473 -0.02687853 0.02523052
v 0.01452807 -0.02693635 0.02392507
v 0.01877513 -0.02192535 0.02226605
v 0.01502119 -0.02597453 0.02550088
v 0.01432293 -0.02680109 0.02602339
v 0.01492088 -0.02665447 0.02186858
v 0.01511080 -0.02657238 0.02186858
v 0.01452807 -0.02686459 0.02272521
v 0.01367201 -0.02706026 0.02186858
v 0.01461768 -0.02192535 0.02204247
v 0.01317494 -0.02231875 0.02186858
v 0.01332823 -0.02711034 0.02512452
v 0.01317494 -0.02719862 0.02257160
v 0.01317494 -0.02718727 0.02186858
v 0.01850067 -0.02192535 0.02254179
v 0.01442156 -0.02597453 0.02607804
v 0.01436013 -0.02597453 0.02609791
v 0.01360607 -0.02683465 0.02609791
v 0.01332823 -0.02685530 0.02609791
v 0.01621371 -0.02192535 0.02338311
v 0.01317494 -0.02412883 0.02512452
v 0.01317494 -0.02683361 0.02608466
v 0.01317494 -0.02708246 0.02512452
v 0.01317494 -0.02710931 0.02497092
v 0.01752626 -0.02192535 0.02308376
v 0.01419106 -0.02519340 0.02589711
v 0.01387095 -0.02548354 0.02609791
v 0.01317494 -0.02683000 0.02609791
v 0.01655072 -0.02192535 0.02338311
v 0.01317494 -0.02469260 0.02597908
v 0.01715092 -0.02192535 0.02320507
v 0.01317494 -0.02478502 0.02605485
v 0.01325666 -0.02503025 0.02609791
v 0.01317494 -0.02501373 0.02609791
f 1 2 3
f 1 3 4
f 1 4 5
f 1 5 6
f 1 6 15
f 1 15 14
f 1 14 17
f 1 17 22
f 1 22 19
f 1 19 7
f 1 7 18
f 1 18 28
f 1 28 37
f 1 37 39
f 1 39 33
f 1 33 23
f 1 23 11
f 1 11 8
f 1 8 2
f 2 8 3
f 3 9 10
f 3 10 4
f 3 8 11
f 3 11 12
f 3 12 13
f 3 13 9
f 4 10 5
f 5 14 15
f 5 15 6
f 5 10 16
f 5 16 17
f 5 17 14
f 7 19 18
f 9 13 20
f 9 20 10
f 10 20 21
f 10 21 22
f 10 22 17
f 10 17 16
f 11 23 12
f 12 24 13
f 12 23 24
f 13 25 26
f 13 26 27
f 13 27 20
f 13 24 25
f 18 19 28
f 19 22 21
f 19 21 32
f 19 32 31
f 19 31 30
f 19 30 36
f 19 36 42
f 19 42 40
f 19 40 38
f 19 38 29
f 19 29 28
f 20 27 30
f 20 30 31
f 20 31 32
f 20 32 21
f 23 33 24
f 24 33 34
f 24 34 35
f 24 35 25
f 25 35 41
f 25 41 42
f 25 42 36
f 25 36 27
f 25 27 26
f 27 36 30
f 28 29 38
f 28 38 37
f 33 39 40
f 33 40 34
f 34 40 35
f 35 40 41
f 37 38 40
f 37 40 39
f 40 42 41

