# https://github.com/mikedh/trimesh
v -0.02387208 0.01547194 0.02609791
v -0.02483515 0.01516912 0.02609791
v -0.02317379 0.01449740 0.02609791
v -0.02317379 0.01564079 0.02609460
v -0.02317379 0.01603538 0.02562302
v -0.02317379 0.01676766 0.02471008
v -0.02351842 0.01671077 0.02464466
v -0.02504316 0.01503698 0.02609791
v -0.02317379 0.01780277 0.02328415
v -0.02431833 0.01655477 0.02436271
v -0.02317379 0.01371556 0.02609791
v -0.02317379 0.01707049 0.02431551
v -0.02570325 0.01457999 0.02609791
v -0.02317379 0.01783948 0.02322743
v -0.02317379 0.01814046 0.02256746
v -0.02345661 0.01799364 0.02247099
v -0.02456480 0.01672361 0.02356280
v -0.02567539 0.01542973 0.02453370
v -0.02384077 0.00065375 0.02609791
v -0.02317379 0.00945400 0.02486989
v -0.02579584 0.01448272 0.02609791
v -0.02317379 0.01826527 0.02221223
v -0.02317379 0.01832766 0.02203336
v -0.02317379 0.01836621 0.02186858
v -0.02353089 0.01807072 0.02186858
v -0.02467730 0.01683740 0.02272521
v -0.02522092 0.01649971 0.02186858
v -0.02539284 0.01631251 0.02186858
v -0.02553531 0.01613999 0.02186858
v -0.02584201 0.01571237 0.02186858
v -0.02392408 -0.00038319 0.02609791
v -0.02317379 0.00546774 0.02246147
v -0.02317379 0.00667720 0.02366341
v -0.02317379 0.00710666 0.02390354
v -0.02317379 0.00762605 0.02415403
v -0.02317379 0.00901537 0.02473451
v -0.02588419 0.01482408 0.02272521
v -0.02580088 0.01424780 0.02609791
v -0.02317379 0.00519061 0.02186858
v -0.02479271 0.01689980 0.02186858
v -0.02586986 0.01474700 0.02186858
v -0.02518802 -0.00038319 0.02609791
v -0.02408539 -0.00038319 0.02272521
v -0.02586854 0.01362380 0.02392507
v -0.02581521 0.01355039 0.02609791
v -0.02588101 0.00522548 0.02186858
v -0.02411829 -0.00038319 0.02233354
v -0.02415941 -0.00038319 0.02186858
v -0.02578178 0.00882633 0.02495560
v -0.02575419 0.00393343 0.02282748
v -0.02584094 0.00400133 0.02186858
v -0.02522675 -0.00038319 0.02512452
v -0.02585766 0.00437023 0.02186858
v -0.02526283 -0.00038319 0.02186858
v -0.02582158 0.00522548 0.02272521
v -0.02572474 0.00309470 0.02186858
f 1 2 8
f 1 8 13
f 1 13 21
f 1 21 38
f 1 38 45
f 1 45 42
f 1 42 31
f 1 31 19
f 1 19 11
f 1 11 3
f 1 3 4
f 1 4 5
f 1 5 6
f 1 6 7
f 1 7 2
f 2 7 9
f 2 9 10
f 2 10 8
f 3 11 20
f 3 20 36
f 3 36 35
f 3 35 34
f 3 34 33
f 3 33 32
f 3 32 39
f 3 39 24
f 3 24 23
f 3 23 22
f 3 22 15
f 3 15 14
f 3 14 9
f 3 9 12
f 3 12 6
f 3 6 5
f 3 5 4
f 6 12 7
f 7 12 9
f 8 10 13
f 9 14 10
f 10 14 15
f 10 15 16
f 10 16 17
f 10 17 18
f 10 18 13
f 11 19 20
f 13 18 21
f 15 22 16
f 16 22 23
f 16 23 24
f 16 24 25
f 16 25 26
f 16 26 17
f 17 26 18
f 18 26 27
f 18 27 28
f 18 28 29
f 18 29 30
f 18 30 21
f 19 31 32
f 19 32 33
f 19 33 34
f 19 34 35
f 19 35 36
f 19 36 20
f 21 37 38
f 21 30 37
f 24 39 48
f 24 48 54
f 24 54 56
f 24 56 51
f 24 51 53
f 24 53 46
f 24 46 41
f 24 41 30
f 24 30 29
f 24 29 28
f 24 28 27
f 24 27 40
f 24 40 25
f 25 40 26
f 26 40 27
f 30 41 37
f 31 42 52
f 31 52 54
f 31 54 48
f 31 48 47
f 31 47 43
f 31 43 39
f 31 39 32
f 37 44 45
f 37 45 38
f 37 41 46
f 37 46 44
f 39 43 47
f 39 47 48
f 42 49 50
f 42 50 51
f 42 51 52
f 42 45 49
f 44 46 45
f 45 46 49
f 46 53 49
f 49 53 55
f 49 55 50
f 50 55 53
f 50 53 51
f 51 56 52
f 52 56 54

