# https://github.com/mikedh/trimesh
v -0.04632134 -0.02296929 -0.01771716
v -0.04632134 -0.02639064 -0.01638798
v -0.04632134 -0.02296929 -0.01936930
v -0.04907245 -0.02296929 -0.01682535
v -0.04632134 -0.02668342 -0.01628459
v -0.04632134 -0.02957358 -0.01941656
v -0.04726257 -0.02296929 -0.01941265
v -0.05602396 -0.02296929 -0.01603552
v -0.04632134 -0.03077398 -0.01611688
v -0.04632134 -0.03077398 -0.01939488
v -0.05627165 -0.03197438 -0.01964608
v -0.05627165 -0.03077398 -0.01966491
v -0.05147218 -0.02296929 -0.01951284
v -0.05803199 -0.02296929 -0.01603552
v -0.05388574 -0.02725643 -0.01603552
v -0.04632134 -0.03153834 -0.01615632
v -0.05388574 -0.02830416 -0.01603552
v -0.05511153 -0.03365159 -0.01603552
v -0.04632134 -0.03112427 -0.01938707
v -0.05507121 -0.03365159 -0.01943574
v -0.05579470 -0.03365159 -0.01942615
v -0.05627165 -0.03317373 -0.01940696
v -0.05721519 -0.03197438 -0.01919094
v -0.05736611 -0.03077398 -0.01923251
v -0.05743523 -0.02957358 -0.01924566
v -0.05027289 -0.03197438 -0.01945955
v -0.05027289 -0.03317373 -0.01934550
v -0.05743062 -0.02717487 -0.01923607
v -0.05627165 -0.02597552 -0.01961553
v -0.05627165 -0.02296929 -0.01957680
v -0.05785573 -0.02296929 -0.01803302
v -0.05809075 -0.03004830 -0.01768909
v -0.05809075 -0.03004830 -0.01739064
v -0.05809075 -0.03025115 -0.01739064
v -0.05792370 -0.02853525 -0.01603552
v -0.04632134 -0.03169310 -0.01618368
v -0.04632134 -0.03365159 -0.01659370
v -0.04632134 -0.03347488 -0.01655497
v -0.04632134 -0.03317373 -0.01648924
v -0.05714491 -0.03365159 -0.01603552
v -0.04632134 -0.03232467 -0.01922789
v -0.05027289 -0.03365159 -0.01923571
v -0.05629009 -0.03365159 -0.01925383
v -0.05675551 -0.03365159 -0.01900547
v -0.05705274 -0.03317373 -0.01898984
v -0.05791564 -0.03070078 -0.01808312
v -0.05801587 -0.02961854 -0.01808312
v -0.04632134 -0.03365159 -0.01903035
v -0.05763914 -0.02296929 -0.01858125
v -0.05737302 -0.02296929 -0.01914937
v -0.05809075 -0.03025115 -0.01768909
v -0.05757808 -0.03233408 -0.01603552
v -0.05766334 -0.03197438 -0.01603552
v -0.05785227 -0.03070497 -0.01603552
v -0.05734767 -0.03317373 -0.01603552
v -0.05713109 -0.03365159 -0.01755727
v -0.05698017 -0.03365159 -0.01885199
v -0.05760343 -0.03197438 -0.01807494
v -0.05728431 -0.03317373 -0.01807494
v -0.05733845 -0.03317373 -0.01687545
v -0.05710689 -0.03365159 -0.01807494
v -0.05706772 -0.03365159 -0.01850734
f 1 2 5
f 1 5 9
f 1 9 16
f 1 16 36
f 1 36 39
f 1 39 38
f 1 38 37
f 1 37 48
f 1 48 41
f 1 41 19
f 1 19 10
f 1 10 6
f 1 6 3
f 1 3 7
f 1 7 13
f 1 13 30
f 1 30 50
f 1 50 49
f 1 49 31
f 1 31 14
f 1 14 8
f 1 8 4
f 1 4 2
f 2 4 5
f 3 6 7
f 4 8 5
f 5 8 9
f 6 10 11
f 6 11 12
f 6 12 7
f 7 12 13
f 8 14 35
f 8 35 54
f 8 54 53
f 8 53 52
f 8 52 55
f 8 55 40
f 8 40 18
f 8 18 17
f 8 17 15
f 8 15 9
f 9 15 17
f 9 17 18
f 9 18 16
f 10 19 11
f 11 20 21
f 11 21 22
f 11 22 23
f 11 23 24
f 11 24 25
f 11 25 12
f 11 19 26
f 11 26 27
f 11 27 20
f 12 25 28
f 12 28 29
f 12 29 13
f 13 29 30
f 14 31 32
f 14 32 33
f 14 33 34
f 14 34 35
f 16 18 36
f 18 37 38
f 18 38 39
f 18 39 36
f 18 40 56
f 18 56 61
f 18 61 62
f 18 62 57
f 18 57 44
f 18 44 43
f 18 43 21
f 18 21 20
f 18 20 42
f 18 42 48
f 18 48 37
f 19 41 27
f 19 27 26
f 20 27 42
f 21 43 22
f 22 43 44
f 22 44 45
f 22 45 23
f 23 45 46
f 23 46 24
f 24 46 47
f 24 47 25
f 25 47 28
f 27 41 48
f 27 48 42
f 28 47 49
f 28 49 50
f 28 50 30
f 28 30 29
f 31 47 32
f 31 49 47
f 32 47 51
f 32 51 34
f 32 34 33
f 34 52 53
f 34 53 54
f 34 54 35
f 34 51 52
f 40 55 56
f 44 57 45
f 45 57 46
f 46 51 47
f 46 57 58
f 46 58 51
f 51 58 59
f 51 59 60
f 51 60 52
f 52 60 55
f 55 60 56
f 56 60 59
f 56 59 61
f 57 62 58
f 58 62 59
f 59 62 61

