# https://github.com/mikedh/trimesh
v 0.03414107 0.03168062 -0.00988669
v 0.03221859 0.03168062 -0.00988669
v 0.03417375 0.03160237 -0.00988669
v 0.03712691 0.03168062 -0.01557960
v 0.03221859 0.03168062 -0.01932285
v 0.03221859 0.02495432 -0.00988669
v 0.03437460 0.03004038 -0.00988669
v 0.03712691 0.03168062 -0.01962870
v 0.03712691 0.02806058 -0.01475140
v 0.03221859 0.02885339 -0.02122216
v 0.03221859 0.02226439 -0.01231589
v 0.03521403 0.01659960 -0.01349652
v 0.03566186 0.01659960 -0.01342729
v 0.03612794 0.01659960 -0.01337694
v 0.03671560 0.01659960 -0.01339457
v 0.03341071 0.02541642 -0.00988669
v 0.03712691 0.02682487 -0.01448456
v 0.03441640 0.02922543 -0.00988669
v 0.03712691 0.01842586 -0.01295026
v 0.03712691 0.01967781 -0.01317178
v 0.03712691 0.02802515 -0.02026558
v 0.03710720 0.02802515 -0.02028572
v 0.03627930 0.02802515 -0.02088610
v 0.03556912 0.02865113 -0.02108497
v 0.03492766 0.02872347 -0.02113154
v 0.03221859 0.02660489 -0.02231090
v 0.03221859 0.02801777 -0.02167780
v 0.03221859 0.01659960 -0.01745122
v 0.03705627 0.01659960 -0.01355567
v 0.03712691 0.01700265 -0.01338450
v 0.03358946 0.02559802 -0.00988669
v 0.03443754 0.02802515 -0.00988669
v 0.03440775 0.02709504 -0.00988669
v 0.03435586 0.02690164 -0.00988669
v 0.03421747 0.02649712 -0.00988669
v 0.03712691 0.02682487 -0.02029579
v 0.03711249 0.02682487 -0.02031215
v 0.03636339 0.02682487 -0.02091253
v 0.03567964 0.02802515 -0.02111518
v 0.03221859 0.02442431 -0.02274388
v 0.03221859 0.02459852 -0.02273255
v 0.03221859 0.02562459 -0.02264067
v 0.03221859 0.01659960 -0.02128509
v 0.03711153 0.01659960 -0.01358211
v 0.03712691 0.01664389 -0.01356700
v 0.03712691 0.01857497 -0.02041285
v 0.03638742 0.01962614 -0.02095407
v 0.03630140 0.01842586 -0.02093519
v 0.03619377 0.01659960 -0.02087603
v 0.03559411 0.01659960 -0.02109378
v 0.03221859 0.02333476 -0.02263815
v 0.03221859 0.01842586 -0.02180618
v 0.03712691 0.01659960 -0.01359721
v 0.03712691 0.01659960 -0.02033355
v 0.03221859 0.01873885 -0.02187541
v 0.03221859 0.01994356 -0.02209945
v 0.03221859 0.02186873 -0.02240782
v 0.03221859 0.02322551 -0.02262431
f 1 2 6
f 1 6 16
f 1 16 31
f 1 31 35
f 1 35 34
f 1 34 33
f 1 33 32
f 1 32 18
f 1 18 7
f 1 7 3
f 1 3 4
f 1 4 8
f 1 8 5
f 1 5 2
f 2 5 10
f 2 10 27
f 2 27 26
f 2 26 42
f 2 42 41
f 2 41 40
f 2 40 51
f 2 51 58
f 2 58 57
f 2 57 56
f 2 56 55
f 2 55 52
f 2 52 43
f 2 43 28
f 2 28 11
f 2 11 6
f 3 7 4
f 4 7 9
f 4 9 17
f 4 17 20
f 4 20 19
f 4 19 30
f 4 30 45
f 4 45 53
f 4 53 54
f 4 54 46
f 4 46 36
f 4 36 21
f 4 21 8
f 5 8 10
f 6 11 12
f 6 12 13
f 6 13 14
f 6 14 15
f 6 15 16
f 7 17 9
f 7 18 19
f 7 19 20
f 7 20 17
f 8 21 22
f 8 22 23
f 8 23 24
f 8 24 25
f 8 25 26
f 8 26 27
f 8 27 10
f 11 28 12
f 12 28 43
f 12 43 50
f 12 50 49
f 12 49 54
f 12 54 53
f 12 53 44
f 12 44 29
f 12 29 15
f 12 15 14
f 12 14 13
f 15 29 30
f 15 30 19
f 15 19 16
f 16 19 31
f 18 32 19
f 19 32 33
f 19 33 34
f 19 34 35
f 19 35 31
f 21 36 37
f 21 37 22
f 22 37 38
f 22 38 23
f 23 39 24
f 23 38 40
f 23 40 41
f 23 41 39
f 24 39 42
f 24 42 26
f 24 26 25
f 29 44 30
f 30 44 45
f 36 46 37
f 37 46 38
f 38 46 47
f 38 47 40
f 39 41 42
f 40 47 48
f 40 48 49
f 40 49 50
f 40 50 51
f 43 52 50
f 44 53 45
f 46 54 47
f 47 54 48
f 48 54 49
f 50 52 55
f 50 55 56
f 50 56 57
f 50 57 58
f 50 58 51

