# https://github.com/mikedh/trimesh
v -0.01582866 0.01002846 0.01668095
v -0.01583162 0.01002486 0.01590281
v -0.01583359 0.01002846 0.01590191
v -0.01583063 0.01002846 0.01673124
v -0.01590470 0.00920910 0.01752344
v -0.01598173 0.00813525 0.01752344
v -0.01598173 0.00813525 0.01708399
v -0.01598371 0.00918744 0.01601998
v -0.01654763 0.00883731 0.01568201
v -0.01625629 0.01002486 0.01568201
v -0.01625629 0.01002846 0.01568201
v -0.01593235 0.00969909 0.01752344
v -0.01660787 0.01002846 0.01702829
v -0.02432496 0.00080966 0.01752344
v -0.02431409 0.00080966 0.01726766
v -0.02429138 0.00080966 0.01672475
v -0.02428644 0.00080966 0.01634082
v -0.01811889 0.00679160 0.01568201
v -0.01615851 0.00838702 0.01628404
v -0.02429434 0.00080966 0.01568201
v -0.01658022 0.00878046 0.01568201
v -0.02234680 0.01002846 0.01568201
v -0.01659997 0.00976677 0.01752344
v -0.02027284 0.01002846 0.01669321
v -0.02550217 0.00080966 0.01752344
v -0.01718364 0.00778422 0.01568201
v -0.01695847 0.00791597 0.01581323
v -0.01667700 0.00861984 0.01568201
v -0.02552390 0.00080966 0.01568201
v -0.02530465 0.00751712 0.01568201
v -0.02572438 0.00590635 0.01752344
v -0.02565723 0.00595960 0.01752344
v -0.02119032 0.01002846 0.01635614
v -0.02577672 0.00258827 0.01752344
v -0.02589425 0.00366482 0.01752344
v -0.02567204 0.00222100 0.01611947
v -0.02588536 0.00522595 0.01568201
v -0.02581919 0.00657683 0.01568201
v -0.02560686 0.00696305 0.01607135
v -0.02585178 0.00648388 0.01568201
v -0.02584981 0.00528551 0.01752344
v -0.02591795 0.00398968 0.01752344
v -0.02588338 0.00522595 0.01672475
f 1 2 3
f 1 3 11
f 1 11 22
f 1 22 33
f 1 33 24
f 1 24 13
f 1 13 4
f 1 4 5
f 1 5 6
f 1 6 7
f 1 7 2
f 2 7 8
f 2 8 9
f 2 9 10
f 2 10 11
f 2 11 3
f 4 12 5
f 4 13 12
f 5 12 23
f 5 23 32
f 5 32 31
f 5 31 41
f 5 41 42
f 5 42 35
f 5 35 34
f 5 34 25
f 5 25 14
f 5 14 6
f 6 14 15
f 6 15 16
f 6 16 17
f 6 17 7
f 7 18 19
f 7 19 8
f 7 17 20
f 7 20 18
f 8 19 9
f 9 21 28
f 9 28 26
f 9 26 18
f 9 18 20
f 9 20 29
f 9 29 37
f 9 37 40
f 9 40 38
f 9 38 30
f 9 30 22
f 9 22 11
f 9 11 10
f 9 19 21
f 12 13 23
f 13 24 23
f 14 25 29
f 14 29 20
f 14 20 17
f 14 17 16
f 14 16 15
f 18 26 27
f 18 27 19
f 19 27 28
f 19 28 21
f 22 30 31
f 22 31 32
f 22 32 33
f 23 24 32
f 24 33 32
f 25 34 29
f 26 28 27
f 29 34 35
f 29 35 36
f 29 36 37
f 30 38 39
f 30 39 31
f 31 38 40
f 31 40 41
f 31 39 38
f 35 42 37
f 35 37 36
f 37 42 40
f 40 42 43
f 40 43 41
f 41 43 42

