# https://github.com/mikedh/trimesh
v 0.02002131 0.00942425 0.02186858
v 0.01818424 0.00942425 0.02026051
v 0.01769442 0.00942425 0.02186858
v 0.02426708 0.00668774 0.02186858
v 0.02477762 0.00588556 0.02053108
v 0.02412853 0.00580776 0.01974883
v 0.01752424 0.00942425 0.01974883
v 0.01763006 0.00942425 0.02186443
v 0.01747297 0.00882508 0.02186858
v 0.02467289 0.00642392 0.02186858
v 0.02483980 0.00616368 0.02186858
v 0.02484416 0.00528281 0.01974883
v 0.01401919 0.00942425 0.01974883
v 0.01419374 0.00942425 0.02130607
v 0.01756461 0.00860598 0.02186858
v 0.02492162 0.00522469 0.02186858
v 0.02493143 0.00522469 0.02152476
v 0.02491616 0.00402545 0.01974883
v 0.01379229 0.00878305 0.01974883
v 0.01385665 0.00942425 0.02087697
v 0.01388392 0.00942425 0.02120668
v 0.01388065 0.00816062 0.02097595
v 0.02321873 0.00028823 0.02186858
v 0.01809260 0.00760259 0.02186858
v 0.02489325 0.00488039 0.02186858
v 0.02476016 0.00028823 0.02044622
v 0.02476125 0.00028823 0.02040244
v 0.02476125 0.00028823 0.02031591
v 0.02476016 0.00028823 0.02000758
v 0.02475798 0.00028823 0.01974883
v 0.01378683 0.00800144 0.01974883
v 0.01381629 0.00804705 0.02032504
v 0.02335072 0.00028823 0.01974883
v 0.02447653 0.00028823 0.02186858
v 0.02481144 0.00396821 0.02186858
f 1 2 7
f 1 7 13
f 1 13 20
f 1 20 21
f 1 21 14
f 1 14 8
f 1 8 3
f 1 3 9
f 1 9 15
f 1 15 24
f 1 24 23
f 1 23 34
f 1 34 35
f 1 35 25
f 1 25 16
f 1 16 11
f 1 11 10
f 1 10 4
f 1 4 5
f 1 5 6
f 1 6 2
f 2 6 7
f 3 8 9
f 4 10 5
f 5 10 11
f 5 11 12
f 5 12 6
f 6 12 18
f 6 18 30
f 6 30 33
f 6 33 31
f 6 31 19
f 6 19 13
f 6 13 7
f 8 14 9
f 9 14 15
f 11 16 17
f 11 17 12
f 12 17 18
f 13 19 20
f 14 21 22
f 14 22 23
f 14 23 24
f 14 24 15
f 16 25 26
f 16 26 17
f 17 26 27
f 17 27 18
f 18 27 28
f 18 28 29
f 18 29 30
f 19 31 32
f 19 32 20
f 20 32 21
f 21 32 22
f 22 32 23
f 23 33 30
f 23 30 29
f 23 29 28
f 23 28 27
f 23 27 26
f 23 26 34
f 23 32 31
f 23 31 33
f 25 35 26
f 26 35 34

