# https://github.com/mikedh/trimesh
v 0.01917406 0.03860477 0.00290367
v 0.01917406 0.03769817 0.00467801
v 0.01917406 0.04035486 0.00290367
v 0.02928787 0.03811971 0.00290367
v 0.01917406 0.03769817 0.00661937
v 0.02635748 0.03769817 0.00532417
v 0.01917406 0.04142480 0.00832404
v 0.01940374 0.04056646 0.00290367
v 0.02928787 0.04038662 0.00290367
v 0.02928787 0.03769817 0.00567732
v 0.01917406 0.04040642 0.01043625
v 0.02411316 0.03769817 0.00839753
v 0.01917406 0.04156380 0.00952474
v 0.02052838 0.04115464 0.00290367
v 0.02016406 0.04102677 0.00290367
v 0.01971361 0.04084446 0.00290367
v 0.02893642 0.04052892 0.00290367
v 0.02899087 0.04113855 0.00466274
v 0.02928787 0.04103997 0.00482118
v 0.02928787 0.03769817 0.00932144
v 0.01917406 0.04108575 0.01043625
v 0.02532788 0.03769817 0.00881749
v 0.02928787 0.03969244 0.01258474
v 0.02794246 0.04045014 0.01265250
v 0.01917406 0.04150729 0.00964691
v 0.02111743 0.04182572 0.01012605
v 0.02111743 0.04182572 0.01011555
v 0.02172825 0.04183974 0.00993230
v 0.02292813 0.04186490 0.00967459
v 0.02772763 0.04170445 0.00592548
v 0.02772763 0.04140129 0.00472573
v 0.02628521 0.04088282 0.00290367
v 0.02892751 0.04152173 0.00592548
v 0.02928787 0.04122393 0.00548071
v 0.02652776 0.03769817 0.00900266
v 0.02794246 0.04082301 0.01265250
v 0.02457251 0.04183768 0.01134299
v 0.02928787 0.04003685 0.01264009
v 0.02902948 0.04004015 0.01263819
v 0.02892751 0.04080528 0.01265441
v 0.02415573 0.04188058 0.01075599
v 0.02292813 0.04186490 0.01037708
v 0.02172825 0.04183974 0.01018809
v 0.02532788 0.04191192 0.01072450
v 0.02412801 0.04188511 0.00961924
v 0.02532788 0.04188099 0.00978722
v 0.02649014 0.04188429 0.01073786
v 0.02723659 0.04186697 0.01114732
v 0.02928787 0.04091417 0.01192425
v 0.02928787 0.04099501 0.01072450
v 0.02928787 0.04126641 0.00592548
v 0.02723659 0.04186697 0.01150143
v 0.02652776 0.04187769 0.01148806
v 0.02928787 0.04073268 0.01260955
v 0.02892751 0.04106843 0.01192425
f 1 2 5
f 1 5 11
f 1 11 21
f 1 21 25
f 1 25 13
f 1 13 7
f 1 7 3
f 1 3 8
f 1 8 16
f 1 16 15
f 1 15 14
f 1 14 32
f 1 32 17
f 1 17 9
f 1 9 4
f 1 4 2
f 2 4 6
f 2 6 10
f 2 10 20
f 2 20 35
f 2 35 22
f 2 22 12
f 2 12 5
f 3 7 8
f 4 9 19
f 4 19 34
f 4 34 51
f 4 51 50
f 4 50 49
f 4 49 54
f 4 54 38
f 4 38 23
f 4 23 20
f 4 20 10
f 4 10 6
f 5 12 11
f 7 13 14
f 7 14 15
f 7 15 16
f 7 16 8
f 9 17 18
f 9 18 19
f 11 12 22
f 11 22 23
f 11 23 24
f 11 24 36
f 11 36 21
f 13 25 26
f 13 26 27
f 13 27 14
f 14 27 28
f 14 28 29
f 14 29 30
f 14 30 31
f 14 31 32
f 17 32 31
f 17 31 18
f 18 33 19
f 18 31 33
f 19 33 34
f 20 23 35
f 21 26 25
f 21 36 37
f 21 37 26
f 22 35 23
f 23 38 39
f 23 39 24
f 24 39 38
f 24 38 40
f 24 40 36
f 26 41 42
f 26 42 43
f 26 43 28
f 26 28 27
f 26 37 41
f 28 43 42
f 28 42 29
f 29 42 44
f 29 44 45
f 29 45 30
f 30 46 44
f 30 44 47
f 30 47 48
f 30 48 33
f 30 33 31
f 30 45 46
f 33 49 50
f 33 50 51
f 33 51 34
f 33 48 52
f 33 52 49
f 36 40 52
f 36 52 53
f 36 53 37
f 37 53 41
f 38 54 40
f 40 54 52
f 41 53 44
f 41 44 42
f 44 53 52
f 44 52 48
f 44 48 47
f 44 46 45
f 49 52 55
f 49 55 54
f 52 54 55

