# https://github.com/mikedh/trimesh
v -0.03006720 -0.05597323 -0.01012990
v -0.03006720 -0.05618663 -0.01014173
v -0.02406980 -0.05597323 -0.01085344
v -0.02406980 -0.05497106 -0.01081795
v -0.02406980 -0.05477387 -0.01081401
v -0.03006720 -0.05570986 -0.01015355
v -0.03006720 -0.05678902 -0.01020481
v -0.03006720 -0.05707130 -0.01026593
v -0.02406980 -0.05614071 -0.01090963
v -0.03006720 -0.05495486 -0.01026199
v -0.02406980 -0.05370012 -0.01113340
v -0.03006720 -0.05847056 -0.01116888
v -0.02998031 -0.05836521 -0.01110974
v -0.02406980 -0.05696325 -0.01118958
v -0.03006720 -0.05452941 -0.01039112
v -0.02406980 -0.05351103 -0.01119156
v -0.03006720 -0.05847731 -0.01117381
v -0.02406980 -0.05756293 -0.01176132
v -0.03006720 -0.05373253 -0.01082091
v -0.02406980 -0.05299914 -0.01149911
v -0.03006720 -0.05885143 -0.01176132
v -0.02406980 -0.05792355 -0.01236066
v -0.03006720 -0.05349752 -0.01096582
v -0.02406980 -0.04976842 -0.01447610
v -0.02747331 -0.04660389 -0.01670489
v -0.03006720 -0.06039521 -0.01496700
v -0.02558808 -0.06019801 -0.01865077
v -0.02406980 -0.05933496 -0.01943839
v -0.02869100 -0.04660389 -0.01668025
v -0.03006720 -0.04660389 -0.01685670
v -0.02406980 -0.04660389 -0.01740379
v -0.03006720 -0.06039656 -0.01569547
v -0.02984116 -0.06039926 -0.01570237
v -0.02893289 -0.06038035 -0.01687444
v -0.02627207 -0.06023584 -0.01859853
v -0.02558808 -0.06019801 -0.01877300
v -0.02406980 -0.05930255 -0.02002885
v -0.03006720 -0.04660389 -0.01931320
v -0.02406980 -0.04660389 -0.01910126
v -0.03006720 -0.06035739 -0.01672756
v -0.02989107 -0.06039251 -0.01683994
v -0.02950415 -0.06035604 -0.01770740
v -0.02747155 -0.06026284 -0.01881736
v -0.02627207 -0.06023584 -0.01883313
v -0.02507201 -0.05933766 -0.02002590
v -0.02507201 -0.05837331 -0.02019939
v -0.02406980 -0.05914317 -0.02005744
v -0.02604427 -0.04660389 -0.01926391
v -0.03006720 -0.04738051 -0.01940980
v -0.02484420 -0.04660389 -0.01917519
v -0.02406980 -0.05717395 -0.02009983
v -0.03006720 -0.06008591 -0.01736239
v -0.02820545 -0.06023313 -0.01875230
v -0.03006720 -0.05935252 -0.01807903
v -0.02986464 -0.05956457 -0.01807706
v -0.02900569 -0.05995490 -0.01850783
v -0.02627207 -0.05979823 -0.01943346
v -0.02627207 -0.05919720 -0.01996971
v -0.02627207 -0.05837331 -0.02016489
v -0.02627207 -0.05717395 -0.02011757
v -0.02406980 -0.05817612 -0.02017573
v -0.02406980 -0.05837331 -0.02019052
v -0.02507201 -0.04660389 -0.01919294
v -0.02747155 -0.05717395 -0.02008307
v -0.02851310 -0.05717395 -0.01995788
v -0.02911313 -0.05717395 -0.01983072
v -0.03006720 -0.05697810 -0.01956654
v -0.02863228 -0.05956187 -0.01899874
v -0.02783615 -0.05882442 -0.01979720
v -0.02703650 -0.05904187 -0.01990860
v -0.02942489 -0.05915532 -0.01881440
v -0.03006720 -0.05813019 -0.01906380
v -0.02745042 -0.05840437 -0.02002294
v -0.02838863 -0.05802484 -0.01994999
v -0.03006720 -0.05718340 -0.01950345
v -0.02874208 -0.05840437 -0.01965230
f 1 2 3
f 1 3 4
f 1 4 5
f 1 5 6
f 1 6 10
f 1 10 15
f 1 15 19
f 1 19 23
f 1 23 30
f 1 30 38
f 1 38 49
f 1 49 67
f 1 67 75
f 1 75 72
f 1 72 54
f 1 54 52
f 1 52 40
f 1 40 32
f 1 32 26
f 1 26 21
f 1 21 17
f 1 17 12
f 1 12 8
f 1 8 7
f 1 7 2
f 2 7 3
f 3 7 8
f 3 8 9
f 3 9 14
f 3 14 18
f 3 18 22
f 3 22 28
f 3 28 37
f 3 37 47
f 3 47 62
f 3 62 61
f 3 61 51
f 3 51 39
f 3 39 31
f 3 31 24
f 3 24 20
f 3 20 16
f 3 16 11
f 3 11 5
f 3 5 4
f 5 10 6
f 5 11 10
f 8 12 13
f 8 13 14
f 8 14 9
f 10 11 15
f 11 16 15
f 12 17 14
f 12 14 13
f 14 17 18
f 15 16 19
f 16 20 19
f 17 21 18
f 18 21 22
f 19 20 23
f 20 24 25
f 20 25 23
f 21 26 22
f 22 26 27
f 22 27 28
f 23 25 29
f 23 29 30
f 24 31 25
f 25 31 39
f 25 39 50
f 25 50 63
f 25 63 48
f 25 48 38
f 25 38 30
f 25 30 29
f 26 32 33
f 26 33 34
f 26 34 27
f 27 34 35
f 27 35 44
f 27 44 36
f 27 36 28
f 28 36 37
f 32 40 41
f 32 41 33
f 33 41 34
f 34 41 42
f 34 42 43
f 34 43 44
f 34 44 35
f 36 44 37
f 37 44 45
f 37 45 46
f 37 46 47
f 38 48 49
f 39 51 50
f 40 42 41
f 40 52 42
f 42 53 43
f 42 52 54
f 42 54 55
f 42 55 56
f 42 56 53
f 43 53 57
f 43 57 44
f 44 57 45
f 45 58 59
f 45 59 46
f 45 57 58
f 46 60 49
f 46 49 51
f 46 51 61
f 46 61 62
f 46 62 47
f 46 59 60
f 48 63 51
f 48 51 49
f 49 60 64
f 49 64 65
f 49 65 66
f 49 66 67
f 50 51 63
f 53 56 68
f 53 68 69
f 53 69 70
f 53 70 58
f 53 58 57
f 54 71 56
f 54 56 55
f 54 72 71
f 56 71 68
f 58 70 73
f 58 73 59
f 59 74 64
f 59 64 60
f 59 73 74
f 64 74 65
f 65 74 66
f 66 74 67
f 67 74 75
f 68 71 76
f 68 76 69
f 69 76 74
f 69 74 70
f 70 74 73
f 71 72 76
f 72 75 76
f 74 76 75

