# https://github.com/mikedh/trimesh
v -0.02317378 0.00518961 0.02186858
v -0.02169326 0.00553294 0.02186858
v -0.02317378 0.00546833 0.02246147
v -0.02317378 0.01836549 0.02186858
v -0.02123700 0.00581905 0.02186858
v -0.02191564 0.00572122 0.02220560
v -0.02317378 0.00667738 0.02366341
v -0.02317378 0.01832672 0.02203336
v -0.01757868 0.02394373 0.02272438
v -0.01757868 0.02396404 0.02263371
v -0.01757868 0.02396957 0.02259893
v -0.01757868 0.02404710 0.02186858
v -0.02084646 0.00615131 0.02186858
v -0.02111595 0.00602948 0.02200604
v -0.02197260 0.00695242 0.02338808
v -0.01757868 0.01403321 0.02609791
v -0.02317378 0.00710563 0.02390354
v -0.02317378 0.01814029 0.02256746
v -0.01757868 0.02367977 0.02318189
v -0.02317378 0.01783941 0.02322743
v -0.01757868 0.01139176 0.02186858
v -0.02044552 0.00659617 0.02186858
v -0.02317378 0.01371756 0.02609791
v -0.02317378 0.00945543 0.02486989
v -0.02317378 0.00901796 0.02473451
v -0.02317378 0.00762617 0.02415403
v -0.01892172 0.00843835 0.02186858
v -0.01874480 0.00865801 0.02186858
v -0.01833510 0.00918963 0.02186858
v -0.01757868 0.01676142 0.02609791
v -0.01757868 0.02322384 0.02347875
v -0.02317378 0.01780250 0.02328415
v -0.02317378 0.01706968 0.02431551
v -0.02317378 0.01676696 0.02471008
v -0.02317378 0.01603599 0.02562302
v -0.02317378 0.01564097 0.02609460
v -0.02317378 0.01449837 0.02609791
v -0.02147252 0.01602491 0.02609791
v -0.02268794 0.01575542 0.02609791
v -0.02264741 0.01576464 0.02609791
f 1 2 3
f 1 3 7
f 1 7 17
f 1 17 26
f 1 26 25
f 1 25 24
f 1 24 23
f 1 23 37
f 1 37 36
f 1 36 35
f 1 35 34
f 1 34 33
f 1 33 32
f 1 32 20
f 1 20 18
f 1 18 8
f 1 8 4
f 1 4 12
f 1 12 21
f 1 21 29
f 1 29 28
f 1 28 27
f 1 27 22
f 1 22 13
f 1 13 5
f 1 5 2
f 2 5 6
f 2 6 3
f 3 6 7
f 4 8 9
f 4 9 10
f 4 10 11
f 4 11 12
f 5 13 14
f 5 14 6
f 6 14 15
f 6 15 7
f 7 15 16
f 7 16 17
f 8 18 9
f 9 19 31
f 9 31 30
f 9 30 16
f 9 16 21
f 9 21 12
f 9 12 11
f 9 11 10
f 9 18 20
f 9 20 19
f 13 22 16
f 13 16 14
f 14 16 15
f 16 23 24
f 16 24 25
f 16 25 26
f 16 26 17
f 16 22 27
f 16 27 28
f 16 28 29
f 16 29 21
f 16 30 38
f 16 38 40
f 16 40 39
f 16 39 37
f 16 37 23
f 19 20 32
f 19 32 33
f 19 33 34
f 19 34 35
f 19 35 36
f 19 36 31
f 30 31 38
f 31 36 39
f 31 39 40
f 31 40 38
f 36 37 39

