# https://github.com/mikedh/trimesh
v -0.04877740 0.01482496 -0.01068540
v -0.04877740 0.01482496 -0.01004034
v -0.04876273 0.01527642 -0.01070275
v -0.04667497 0.00521984 -0.01350356
v -0.04666430 0.00030368 -0.01350356
v -0.04848410 0.00030221 -0.01030516
v -0.04165020 0.01527642 -0.00988668
v -0.04876273 0.01527642 -0.01006512
v -0.04848410 0.00030221 -0.01025807
v -0.04873740 0.01362450 -0.01003078
v -0.04787084 0.01242405 -0.00997059
v -0.04787084 0.01362450 -0.00998298
v -0.04824013 0.01527642 -0.01130285
v -0.04664430 0.00642616 -0.01350356
v -0.04577774 0.00030221 -0.01350356
v -0.03964775 0.01527642 -0.00988668
v -0.04228879 0.00522570 -0.00988704
v -0.04165419 0.01482496 -0.00988668
v -0.04786950 0.00030221 -0.01013487
v -0.04787084 0.01122506 -0.00998404
v -0.04131557 0.00030221 -0.00988704
v -0.04649232 0.01527642 -0.01323237
v -0.04650566 0.01504776 -0.01323237
v -0.04643633 0.00903228 -0.01350356
v -0.03561887 0.00030221 -0.01350356
v -0.03527357 0.01422840 -0.01267404
v -0.03592817 0.01527642 -0.01248994
v -0.03937712 0.01122506 -0.00988668
v -0.03520158 0.00030221 -0.01159564
v -0.04099693 0.00903228 -0.00988668
v -0.03965042 0.00030221 -0.00988704
v -0.03582151 0.01527642 -0.01323237
v -0.03574019 0.00903228 -0.01350356
v -0.03561354 0.00054113 -0.01350356
v -0.03555754 0.00042680 -0.01341505
v -0.03555887 0.00030221 -0.01341257
v -0.03526824 0.01362450 -0.01266271
v -0.03527357 0.01422840 -0.01267511
v -0.03580818 0.01527642 -0.01320687
v -0.03586151 0.01527642 -0.01282664
v -0.03515759 0.00030221 -0.01198721
v -0.03929846 0.01002460 -0.00988668
v -0.03945577 0.00903228 -0.00988668
v -0.03576819 0.01481910 -0.01323237
v -0.03557621 0.00282625 -0.01350356
v -0.03569353 0.01362450 -0.01323237
v -0.03562420 0.01242405 -0.01323237
v -0.03559087 0.01122506 -0.01323237
v -0.03559087 0.00162726 -0.01350356
v -0.03554421 0.00162726 -0.01343381
v -0.03518825 0.00042680 -0.01281495
v -0.03518958 0.00030221 -0.01281283
v -0.03526824 0.01362450 -0.01268431
v -0.03553621 0.00282625 -0.01344267
v -0.03517892 0.00030221 -0.01273848
v -0.03518025 0.00162726 -0.01283407
v -0.03518292 0.00282625 -0.01284257
v -0.03558954 0.00171521 -0.01350356
f 1 2 8
f 1 8 3
f 1 3 4
f 1 4 5
f 1 5 6
f 1 6 9
f 1 9 2
f 2 7 8
f 2 9 10
f 2 10 11
f 2 11 12
f 2 12 7
f 3 8 7
f 3 7 16
f 3 16 27
f 3 27 40
f 3 40 39
f 3 39 32
f 3 32 22
f 3 22 13
f 3 13 14
f 3 14 4
f 4 14 24
f 4 24 33
f 4 33 45
f 4 45 58
f 4 58 49
f 4 49 34
f 4 34 25
f 4 25 15
f 4 15 5
f 5 15 6
f 6 15 25
f 6 25 36
f 6 36 52
f 6 52 55
f 6 55 41
f 6 41 29
f 6 29 31
f 6 31 21
f 6 21 19
f 6 19 9
f 7 12 11
f 7 11 17
f 7 17 18
f 7 18 30
f 7 30 43
f 7 43 42
f 7 42 28
f 7 28 16
f 9 19 10
f 10 20 11
f 10 19 20
f 11 20 21
f 11 21 17
f 13 22 23
f 13 23 14
f 14 23 22
f 14 22 24
f 16 26 27
f 16 28 29
f 16 29 26
f 17 21 30
f 17 30 18
f 19 21 20
f 21 31 43
f 21 43 30
f 22 32 33
f 22 33 24
f 25 34 35
f 25 35 36
f 26 37 53
f 26 53 38
f 26 38 39
f 26 39 40
f 26 40 27
f 26 29 41
f 26 41 37
f 28 42 29
f 29 42 31
f 31 42 43
f 32 39 38
f 32 38 44
f 32 44 33
f 33 44 46
f 33 46 47
f 33 47 48
f 33 48 45
f 34 49 50
f 34 50 35
f 35 50 51
f 35 51 52
f 35 52 36
f 37 41 53
f 38 53 54
f 38 54 45
f 38 45 48
f 38 48 47
f 38 47 46
f 38 46 44
f 41 55 56
f 41 56 57
f 41 57 53
f 45 54 50
f 45 50 58
f 49 58 50
f 50 56 51
f 50 54 56
f 51 56 55
f 51 55 52
f 53 57 54
f 54 57 56

