# https://github.com/mikedh/trimesh
v 0.01061080 -0.00019745 0.00718662
v 0.01092849 -0.00019745 0.00714842
v 0.01061080 -0.00019745 0.01142652
v 0.01061080 0.01939735 0.00690414
v 0.01382454 0.01939735 0.00650113
v 0.01917323 -0.00019745 0.00637576
v 0.01468288 0.01939735 0.00641397
v 0.01091592 -0.00019745 0.01143083
v 0.01092849 0.00142362 0.01160355
v 0.01061080 0.00169411 0.01160355
v 0.01061080 0.01939735 0.01061029
v 0.01917323 -0.00019745 0.01126080
v 0.01812796 0.01362481 0.00620520
v 0.01917323 0.01617824 0.00610727
v 0.01595362 0.01939735 0.00630313
v 0.01692763 0.01842471 0.00622672
v 0.01887230 -0.00019745 0.01134689
v 0.01126713 0.00162697 0.01160355
v 0.01061080 0.01537441 0.01160355
v 0.01070217 0.01939735 0.01061675
v 0.01917323 0.00000206 0.01126349
v 0.01904163 -0.00019745 0.01130116
v 0.01917323 0.01722378 0.00611427
v 0.01692763 0.01939735 0.00623425
v 0.01207517 0.00282790 0.01160355
v 0.01917323 0.00042603 0.01125865
v 0.01885386 0.00042603 0.01134474
v 0.01512043 0.01362481 0.01160355
v 0.01092849 0.01538017 0.01160355
v 0.01092849 0.01939735 0.01063181
v 0.01917323 0.01737917 0.00611750
v 0.01715395 0.01939735 0.00622726
v 0.01917323 0.00762589 0.01110907
v 0.01917323 0.01482383 0.01078946
v 0.01446410 0.01472407 0.01160355
v 0.01212882 0.01534948 0.01160355
v 0.01332831 0.01939735 0.01055379
v 0.01811372 0.01939735 0.00632250
v 0.01833584 0.01939735 0.00634509
v 0.01917323 0.01861080 0.00632088
v 0.01917323 0.01611684 0.01044779
v 0.01656636 0.01939735 0.01025786
v 0.01452865 0.01939735 0.01050591
v 0.01333418 0.01509624 0.01160355
v 0.01854624 0.01939735 0.00639298
v 0.01895277 0.01919976 0.00643118
v 0.01917323 0.01877578 0.00636608
v 0.01917323 0.01939735 0.00890410
v 0.01677005 0.01939735 0.01018684
v 0.01884045 0.01939735 0.00648768
v 0.01917323 0.01910959 0.00648015
v 0.01914137 0.01939735 0.00658937
v 0.01917323 0.01939735 0.00660229
f 1 2 6
f 1 6 12
f 1 12 22
f 1 22 17
f 1 17 8
f 1 8 3
f 1 3 10
f 1 10 19
f 1 19 11
f 1 11 4
f 1 4 5
f 1 5 2
f 2 5 7
f 2 7 6
f 3 8 9
f 3 9 10
f 4 11 20
f 4 20 30
f 4 30 37
f 4 37 43
f 4 43 42
f 4 42 49
f 4 49 48
f 4 48 53
f 4 53 52
f 4 52 50
f 4 50 45
f 4 45 39
f 4 39 38
f 4 38 32
f 4 32 24
f 4 24 15
f 4 15 7
f 4 7 5
f 6 7 13
f 6 13 14
f 6 14 23
f 6 23 31
f 6 31 40
f 6 40 47
f 6 47 51
f 6 51 53
f 6 53 48
f 6 48 41
f 6 41 34
f 6 34 33
f 6 33 26
f 6 26 21
f 6 21 12
f 7 15 16
f 7 16 13
f 8 17 9
f 9 18 25
f 9 25 28
f 9 28 35
f 9 35 44
f 9 44 36
f 9 36 29
f 9 29 19
f 9 19 10
f 9 17 18
f 11 19 20
f 12 21 22
f 13 16 14
f 14 16 23
f 15 24 16
f 16 24 23
f 17 25 18
f 17 22 21
f 17 21 26
f 17 26 27
f 17 27 28
f 17 28 25
f 19 29 30
f 19 30 20
f 23 24 31
f 24 32 31
f 26 33 27
f 27 33 28
f 28 34 35
f 28 33 34
f 29 36 30
f 30 36 37
f 31 32 38
f 31 38 39
f 31 39 40
f 34 41 42
f 34 42 35
f 35 42 43
f 35 43 44
f 36 44 43
f 36 43 37
f 39 45 46
f 39 46 40
f 40 46 47
f 41 48 49
f 41 49 42
f 45 50 46
f 46 51 47
f 46 50 52
f 46 52 51
f 51 52 53

