# https://github.com/mikedh/trimesh
v -0.04124961 0.02442567 0.01253920
v -0.04126033 0.02503815 0.01253212
v -0.04129205 0.02442567 0.01253920
v -0.04125363 0.02380865 0.01253655
v -0.03992894 0.02154203 0.01147668
v -0.03991419 0.03080635 0.01146960
v -0.04128356 0.02503815 0.01253212
v -0.04027072 0.03081088 0.01154043
v -0.04164098 0.02442567 0.01192471
v -0.04128714 0.02380865 0.01253655
v -0.04225441 0.02922479 0.01078604
v -0.04057453 0.02154203 0.01149350
v -0.03793229 0.02154203 0.00897533
v -0.03793229 0.02200479 0.00900543
v -0.03990928 0.03081088 0.01146428
v -0.04115400 0.03081088 0.01148199
v -0.04145870 0.03042525 0.01149173
v -0.04165439 0.02922479 0.01164314
v -0.04194167 0.02442567 0.01072406
v -0.04146853 0.02333591 0.01187247
v -0.04249656 0.02840361 0.01020254
v -0.04136934 0.02235050 0.01143772
v -0.04116115 0.02155019 0.01110923
v -0.04247333 0.02982820 0.01012905
v -0.04249120 0.02922479 0.01018572
v -0.04115936 0.02154203 0.01110480
v -0.03793229 0.02154203 0.00491030
v -0.03793229 0.02209280 0.00900543
v -0.03793229 0.03081088 0.00890272
v -0.04134522 0.03081088 0.01139168
v -0.04157352 0.02154203 0.00357241
v -0.04156905 0.02154203 0.00423914
v -0.04173704 0.02322612 0.01072406
v -0.04249656 0.02840361 0.00999801
v -0.04142028 0.02198029 0.01071521
v -0.04135013 0.02154203 0.01046374
v -0.04116517 0.02154203 0.01108620
v -0.04247333 0.02982820 0.01011754
v -0.04149399 0.03081088 0.01111011
v -0.04160256 0.03081088 0.01067979
v -0.04161373 0.03081088 0.00970935
v -0.04249120 0.02922479 0.01002457
v -0.03944642 0.02154203 0.00349449
v -0.03799708 0.03081088 0.00349449
v -0.03793229 0.02286045 0.00474030
v -0.03793229 0.03081088 0.00551859
v -0.04157084 0.02154203 0.00349449
v -0.04226111 0.02922479 0.00712566
v -0.04199617 0.02682478 0.00472524
v -0.04192916 0.02562613 0.00472524
v -0.04146495 0.03081088 0.00592501
v -0.04170532 0.03042525 0.00592501
v -0.04111691 0.03081088 0.00349449
v -0.03793229 0.02802524 0.00499973
v -0.03793229 0.02791000 0.00498202
v -0.03793229 0.02682478 0.00482618
v -0.03793229 0.02562613 0.00472436
v -0.03793229 0.02442567 0.00463227
v -0.03793229 0.02396745 0.00465441
v -0.03793229 0.02322612 0.00470311
v -0.04159809 0.02688103 0.00349449
v -0.04208463 0.02922479 0.00592501
v -0.04159005 0.02817405 0.00349449
v -0.04136711 0.03081088 0.00518036
v -0.04131707 0.03042525 0.00349449
f 1 2 7
f 1 7 3
f 1 3 10
f 1 10 4
f 1 4 5
f 1 5 6
f 1 6 2
f 2 6 8
f 2 8 7
f 3 9 10
f 3 7 11
f 3 11 9
f 4 10 12
f 4 12 5
f 5 12 26
f 5 26 37
f 5 37 36
f 5 36 32
f 5 32 31
f 5 31 47
f 5 47 43
f 5 43 27
f 5 27 13
f 5 13 14
f 5 14 15
f 5 15 6
f 6 15 8
f 7 8 16
f 7 16 17
f 7 17 18
f 7 18 11
f 8 15 29
f 8 29 46
f 8 46 44
f 8 44 53
f 8 53 64
f 8 64 51
f 8 51 41
f 8 41 40
f 8 40 39
f 8 39 30
f 8 30 16
f 9 19 20
f 9 20 10
f 9 11 21
f 9 21 19
f 10 20 22
f 10 22 23
f 10 23 12
f 11 18 17
f 11 17 24
f 11 24 25
f 11 25 21
f 12 23 26
f 13 27 45
f 13 45 60
f 13 60 59
f 13 59 58
f 13 58 57
f 13 57 56
f 13 56 55
f 13 55 54
f 13 54 46
f 13 46 29
f 13 29 28
f 13 28 14
f 14 28 15
f 15 28 29
f 16 30 17
f 17 30 24
f 19 31 32
f 19 32 33
f 19 33 20
f 19 21 31
f 20 33 22
f 21 25 42
f 21 42 34
f 21 34 31
f 22 35 36
f 22 36 37
f 22 37 26
f 22 26 23
f 22 33 35
f 24 38 42
f 24 42 25
f 24 30 39
f 24 39 40
f 24 40 41
f 24 41 38
f 27 43 44
f 27 44 45
f 31 34 47
f 32 36 33
f 33 36 35
f 34 42 48
f 34 48 49
f 34 49 50
f 34 50 47
f 38 41 51
f 38 51 52
f 38 52 48
f 38 48 42
f 43 47 61
f 43 61 63
f 43 63 65
f 43 65 53
f 43 53 44
f 44 46 54
f 44 54 55
f 44 55 56
f 44 56 57
f 44 57 58
f 44 58 59
f 44 59 60
f 44 60 45
f 47 50 49
f 47 49 61
f 48 52 62
f 48 62 49
f 49 62 63
f 49 63 61
f 51 64 52
f 52 53 65
f 52 65 62
f 52 64 53
f 62 65 63

