# https://github.com/mikedh/trimesh
v 0.01335148 -0.02465405 0.02186858
v 0.01335148 -0.02713824 0.02186858
v 0.01335148 -0.02465405 0.01994678
v 0.01188682 -0.02465405 0.02186858
v 0.01335148 -0.02713326 0.02154987
v 0.01247146 -0.02738417 0.02186858
v 0.01222965 -0.02465405 0.02042899
v 0.01335148 -0.02478557 0.01974883
v 0.00249588 -0.02467581 0.01974883
v -0.00227611 -0.02468048 0.01974883
v 0.01189142 -0.02465405 0.02169657
v -0.00228223 -0.02492827 0.02032504
v -0.00228223 -0.02565146 0.02186858
v 0.01332699 -0.02710435 0.01974883
v 0.01335148 -0.02709689 0.01974883
v 0.01212711 -0.02747465 0.02152476
v 0.01145676 -0.02760274 0.02186858
v 0.01118740 -0.02770907 0.02152476
v -0.00228223 -0.02544998 0.01974883
v -0.00228223 -0.02691687 0.02186858
v 0.01096089 -0.02742459 0.01974883
v 0.01063643 -0.02782069 0.02072488
v 0.01074204 -0.02774607 0.02186858
v 0.01046808 -0.02779271 0.02186858
v 0.01058746 -0.02781105 0.02152476
v -0.00228223 -0.02623939 0.01974883
v -0.00228223 -0.02697345 0.02186547
v -0.00227152 -0.02697439 0.02186858
v 0.00972734 -0.02752999 0.01974883
v 0.00978702 -0.02782069 0.02158826
v 0.00972734 -0.02783033 0.02071575
v 0.01007169 -0.02779955 0.02186858
v -0.00228223 -0.02663052 0.02075372
v 0.00928350 -0.02749019 0.01974883
v -0.00228223 -0.02690661 0.02151875
v -0.00227152 -0.02690910 0.02152476
v 0.00895598 -0.02780266 0.02084585
v 0.00895598 -0.02780266 0.02123075
v 0.00955898 -0.02777468 0.02186858
v 0.01000282 -0.02779955 0.02186858
f 1 2 5
f 1 5 15
f 1 15 8
f 1 8 3
f 1 3 7
f 1 7 11
f 1 11 4
f 1 4 13
f 1 13 20
f 1 20 28
f 1 28 39
f 1 39 40
f 1 40 32
f 1 32 24
f 1 24 23
f 1 23 17
f 1 17 6
f 1 6 2
f 2 6 5
f 3 8 9
f 3 9 10
f 3 10 7
f 4 11 10
f 4 10 12
f 4 12 13
f 5 14 15
f 5 6 16
f 5 16 14
f 6 17 18
f 6 18 16
f 7 10 11
f 8 15 14
f 8 14 21
f 8 21 29
f 8 29 34
f 8 34 26
f 8 26 19
f 8 19 10
f 8 10 9
f 10 19 12
f 12 19 26
f 12 26 33
f 12 33 35
f 12 35 27
f 12 27 20
f 12 20 13
f 14 16 22
f 14 22 21
f 16 18 22
f 17 23 18
f 18 23 24
f 18 24 25
f 18 25 22
f 20 27 28
f 21 22 29
f 22 25 30
f 22 30 31
f 22 31 29
f 24 32 25
f 25 32 30
f 26 34 33
f 27 35 36
f 27 36 37
f 27 37 28
f 28 38 30
f 28 30 39
f 28 37 38
f 29 31 37
f 29 37 34
f 30 32 40
f 30 40 39
f 30 38 31
f 31 38 37
f 33 34 35
f 34 37 35
f 35 37 36

