# https://github.com/mikedh/trimesh
v -0.04500089 -0.04660335 -0.01807502
v -0.04495971 -0.04660335 -0.01447519
v -0.04490428 -0.04660335 -0.01834303
v -0.04241864 -0.04931674 -0.01833076
v -0.04416231 -0.04750755 -0.01807502
v -0.04247883 -0.04938191 -0.01753123
v -0.04247883 -0.04938191 -0.01741692
v -0.04473245 -0.04684203 -0.01447519
v -0.04396355 -0.04720452 -0.01373443
v -0.04424783 -0.04660335 -0.01359299
v -0.04428663 -0.04660335 -0.01911092
v -0.04400157 -0.04731367 -0.01893396
v -0.03767701 -0.05417901 -0.01868015
v -0.03767701 -0.05417901 -0.01860782
v -0.03691208 -0.05492435 -0.01827070
v -0.03762000 -0.05412036 -0.01567513
v -0.04238380 -0.04927845 -0.01447519
v -0.04158245 -0.04963525 -0.01369245
v -0.04307509 -0.04660335 -0.01331012
v -0.04193799 -0.04883206 -0.01355489
v -0.04416310 -0.04660335 -0.01918067
v -0.04303946 -0.04754746 -0.01936796
v -0.04280428 -0.04851682 -0.01900242
v -0.03691208 -0.05473456 -0.01884161
v -0.03691208 -0.05492435 -0.01831074
v -0.04161887 -0.04970774 -0.01902696
v -0.03691208 -0.05466043 -0.01447519
v -0.03695484 -0.05462296 -0.01447519
v -0.03755507 -0.05406171 -0.01447519
v -0.03796525 -0.05325445 -0.01368599
v -0.03832792 -0.05242357 -0.01353681
v -0.04187147 -0.04660335 -0.01328365
v -0.03711480 -0.05362265 -0.01353358
v -0.03707204 -0.05237388 -0.01329656
v -0.04287951 -0.04660335 -0.01977483
v -0.04247408 -0.04698132 -0.01987558
v -0.04196016 -0.04885976 -0.01928594
v -0.03696276 -0.05465717 -0.01885905
v -0.03691208 -0.05466206 -0.01888230
v -0.03707204 -0.05357377 -0.01939379
v -0.03691208 -0.05459282 -0.01432213
v -0.03691208 -0.05408615 -0.01363239
v -0.03691208 -0.04660335 -0.01331012
v -0.03691208 -0.05361450 -0.01349935
v -0.03691208 -0.05236248 -0.01332950
v -0.04250496 -0.04660335 -0.01988074
v -0.04246536 -0.04698132 -0.01987558
v -0.03691208 -0.05253436 -0.01955460
v -0.03691208 -0.05357377 -0.01942608
v -0.03691208 -0.05373424 -0.01938927
v -0.03691208 -0.04660335 -0.01941058
v -0.04234342 -0.04660335 -0.01988074
f 1 2 10
f 1 10 19
f 1 19 32
f 1 32 43
f 1 43 51
f 1 51 52
f 1 52 46
f 1 46 35
f 1 35 21
f 1 21 11
f 1 11 3
f 1 3 4
f 1 4 5
f 1 5 6
f 1 6 7
f 1 7 2
f 2 8 9
f 2 9 10
f 2 7 8
f 3 11 12
f 3 12 4
f 4 13 6
f 4 6 5
f 4 12 13
f 6 13 14
f 6 14 7
f 7 14 15
f 7 15 16
f 7 16 17
f 7 17 8
f 8 17 9
f 9 17 18
f 9 18 10
f 10 18 20
f 10 20 19
f 11 21 22
f 11 22 12
f 12 22 23
f 12 23 13
f 13 24 25
f 13 25 15
f 13 15 14
f 13 23 26
f 13 26 24
f 15 25 24
f 15 24 39
f 15 39 50
f 15 50 49
f 15 49 48
f 15 48 51
f 15 51 43
f 15 43 45
f 15 45 44
f 15 44 42
f 15 42 41
f 15 41 27
f 15 27 28
f 15 28 16
f 16 28 29
f 16 29 17
f 17 29 30
f 17 30 18
f 18 30 31
f 18 31 20
f 19 20 31
f 19 31 33
f 19 33 34
f 19 34 32
f 21 35 36
f 21 36 22
f 22 36 37
f 22 37 23
f 23 37 26
f 24 26 38
f 24 38 39
f 26 37 40
f 26 40 38
f 27 41 28
f 28 41 29
f 29 41 30
f 30 41 42
f 30 42 33
f 30 33 31
f 32 34 43
f 33 42 44
f 33 44 34
f 34 44 45
f 34 45 43
f 35 46 36
f 36 46 52
f 36 52 47
f 36 47 48
f 36 48 49
f 36 49 50
f 36 50 40
f 36 40 37
f 38 40 50
f 38 50 39
f 47 52 48
f 48 52 51

