# https://github.com/mikedh/trimesh
v -0.03340697 0.00890061 0.00584839
v -0.03215493 0.00890061 0.00623304
v -0.03340488 0.00890061 0.00720780
v -0.03340697 0.01002553 0.00721636
v -0.03340697 0.01002058 0.00584724
v -0.02629698 0.02154203 0.00617197
v -0.02629698 0.02084034 0.00621249
v -0.02629698 0.02082426 0.00621363
v -0.02629698 0.01962508 0.00630095
v -0.02629698 0.01843581 0.00642879
v -0.03213753 0.00890061 0.00624046
v -0.03183061 0.00890061 0.00780361
v -0.02846561 0.01842468 0.01158507
v -0.03340697 0.01962508 0.00774996
v -0.03340697 0.01122594 0.00585181
v -0.02698877 0.02154203 0.00615371
v -0.02629698 0.02154203 0.00622961
v -0.03340697 0.01242635 0.00586608
v -0.02629698 0.01720694 0.00682200
v -0.02697625 0.01679361 0.00657603
v -0.03166358 0.00890061 0.00652695
v -0.03144922 0.00890061 0.00780361
v -0.02834939 0.01769701 0.01139846
v -0.02797217 0.01769701 0.01139846
v -0.02753232 0.01850388 0.01156282
v -0.02758382 0.01973523 0.01167639
v -0.02832016 0.01940975 0.01159820
v -0.03340697 0.02154203 0.00754508
v -0.02747247 0.02154203 0.00614857
v -0.02675563 0.02154203 0.00727400
v -0.02629698 0.02153831 0.00734762
v -0.03340697 0.01362552 0.00590431
v -0.02629698 0.01719085 0.00683113
v -0.03146383 0.00890061 0.00701661
v -0.02629698 0.01609687 0.00746861
v -0.02629698 0.01501032 0.00831439
v -0.03144992 0.00890061 0.00775167
v -0.02629698 0.01458708 0.00944323
v -0.02629698 0.01487790 0.01012750
v -0.02629698 0.01602510 0.01046079
v -0.02629698 0.01977730 0.01152915
v -0.02629698 0.02095172 0.01162959
v -0.02629698 0.02098142 0.01163187
v -0.02725881 0.02057799 0.01158793
v -0.02629698 0.02108166 0.01161646
v -0.03152299 0.02154203 0.00753024
v -0.03340697 0.02154203 0.00620051
f 1 2 11
f 1 11 21
f 1 21 34
f 1 34 37
f 1 37 22
f 1 22 12
f 1 12 3
f 1 3 4
f 1 4 14
f 1 14 28
f 1 28 47
f 1 47 32
f 1 32 18
f 1 18 15
f 1 15 5
f 1 5 6
f 1 6 7
f 1 7 8
f 1 8 9
f 1 9 10
f 1 10 2
f 2 10 11
f 3 12 13
f 3 13 14
f 3 14 4
f 5 15 6
f 6 16 29
f 6 29 47
f 6 47 28
f 6 28 46
f 6 46 30
f 6 30 17
f 6 17 31
f 6 31 45
f 6 45 43
f 6 43 42
f 6 42 41
f 6 41 40
f 6 40 39
f 6 39 38
f 6 38 36
f 6 36 35
f 6 35 33
f 6 33 19
f 6 19 10
f 6 10 9
f 6 9 8
f 6 8 7
f 6 15 18
f 6 18 16
f 10 19 20
f 10 20 11
f 11 20 19
f 11 19 21
f 12 22 24
f 12 24 23
f 12 23 13
f 13 23 24
f 13 24 25
f 13 25 26
f 13 26 27
f 13 27 14
f 14 27 28
f 16 18 29
f 17 30 31
f 18 32 29
f 19 33 21
f 21 33 35
f 21 35 36
f 21 36 34
f 22 37 38
f 22 38 39
f 22 39 24
f 24 39 25
f 25 39 40
f 25 40 41
f 25 41 26
f 26 41 42
f 26 42 43
f 26 43 44
f 26 44 27
f 27 44 28
f 28 44 45
f 28 45 46
f 29 32 47
f 30 46 31
f 31 46 45
f 34 36 38
f 34 38 37
f 43 45 44

