# https://github.com/mikedh/trimesh
v 0.05240735 -0.01377533 -0.01942680
v 0.05589143 -0.01351904 -0.01989605
v 0.05624152 -0.01377533 -0.01979131
v 0.05240735 -0.01377533 -0.01801216
v 0.05240735 -0.01037328 -0.01947986
v 0.05451345 0.00030136 -0.01997254
v 0.05603119 -0.01351904 -0.01989605
v 0.05532822 0.00030136 -0.02006280
v 0.05629672 -0.01377533 -0.01979131
v 0.05421018 -0.01377533 -0.01468054
v 0.05240735 -0.00997093 -0.01626952
v 0.05240735 0.00030136 -0.01940750
v 0.05605075 -0.01277359 -0.01990156
v 0.05665030 -0.01277359 -0.01971552
v 0.05541627 0.00030136 -0.02005316
v 0.05649587 -0.01377533 -0.01972172
v 0.05429823 -0.01377533 -0.01455238
v 0.05240735 -0.00988412 -0.01626332
v 0.05240735 0.00030136 -0.01622197
v 0.05601442 0.00030136 -0.01996633
v 0.05744970 -0.01277359 -0.01911534
v 0.05730016 -0.01377533 -0.01921664
v 0.05495018 -0.01377533 -0.01391569
v 0.05478877 0.00030136 -0.01393498
v 0.05240735 -0.00421679 -0.01621646
v 0.05850135 0.00030136 -0.01396737
v 0.05954043 -0.00719720 -0.01388881
v 0.05741825 -0.01157343 -0.01903266
v 0.05954602 -0.00797434 -0.01389570
v 0.05953694 -0.00917450 -0.01388675
v 0.05743293 -0.01377533 -0.01911672
v 0.05545051 -0.01377533 -0.01353119
v 0.05538902 0.00030136 -0.01357460
v 0.05850135 0.00030136 -0.01340234
v 0.05954043 -0.00719720 -0.01383507
v 0.05954602 -0.00797434 -0.01382197
v 0.05953694 -0.00917450 -0.01385091
v 0.05952855 -0.00979180 -0.01387641
v 0.05878016 -0.01377533 -0.01419889
v 0.05561542 -0.01377533 -0.01346780
v 0.05652732 -0.00077478 -0.01315979
v 0.05652732 0.00030136 -0.01319562
v 0.05652732 -0.00797434 -0.01313636
v 0.05772781 0.00030136 -0.01302404
v 0.05892761 -0.00797434 -0.01344437
v 0.05892761 -0.00917450 -0.01347055
v 0.05952855 -0.00979180 -0.01387365
v 0.05878016 -0.01377533 -0.01354497
v 0.05652732 -0.01377533 -0.01315772
v 0.05760343 0.00030136 -0.01303713
v 0.05772781 -0.00077478 -0.01303093
v 0.05772781 -0.01277359 -0.01314669
v 0.05772781 -0.01377533 -0.01317081
v 0.05790740 -0.01377533 -0.01323420
v 0.05881161 -0.01277359 -0.01352843
v 0.05672717 -0.01377533 -0.01315358
f 1 2 3
f 1 3 9
f 1 9 16
f 1 16 22
f 1 22 31
f 1 31 39
f 1 39 48
f 1 48 54
f 1 54 53
f 1 53 56
f 1 56 49
f 1 49 40
f 1 40 32
f 1 32 23
f 1 23 17
f 1 17 10
f 1 10 4
f 1 4 11
f 1 11 18
f 1 18 25
f 1 25 19
f 1 19 12
f 1 12 5
f 1 5 6
f 1 6 2
f 2 7 9
f 2 9 3
f 2 6 8
f 2 8 7
f 4 10 11
f 5 12 6
f 6 12 19
f 6 19 24
f 6 24 33
f 6 33 42
f 6 42 50
f 6 50 44
f 6 44 34
f 6 34 26
f 6 26 20
f 6 20 15
f 6 15 8
f 7 8 13
f 7 13 14
f 7 14 9
f 8 15 13
f 9 14 16
f 10 17 11
f 11 17 18
f 13 15 20
f 13 20 14
f 14 21 22
f 14 22 16
f 14 20 21
f 17 23 18
f 18 23 24
f 18 24 25
f 19 25 24
f 20 26 27
f 20 27 28
f 20 28 21
f 21 28 27
f 21 27 29
f 21 29 30
f 21 30 31
f 21 31 22
f 23 32 24
f 24 32 33
f 26 34 35
f 26 35 27
f 27 35 36
f 27 36 29
f 29 36 37
f 29 37 30
f 30 37 47
f 30 47 38
f 30 38 31
f 31 38 39
f 32 40 33
f 33 41 42
f 33 40 43
f 33 43 41
f 34 44 45
f 34 45 35
f 35 45 36
f 36 45 46
f 36 46 37
f 37 46 48
f 37 48 47
f 38 47 48
f 38 48 39
f 40 49 43
f 41 50 42
f 41 43 50
f 43 49 44
f 43 44 50
f 44 49 51
f 44 51 45
f 45 52 46
f 45 51 52
f 46 52 53
f 46 53 54
f 46 54 55
f 46 55 48
f 48 55 54
f 49 56 51
f 51 56 52
f 52 56 53

