# https://github.com/mikedh/trimesh
v -0.03515409 0.01348321 -0.01703157
v -0.03515409 0.01299679 -0.01682382
v -0.03515409 0.01348321 -0.01917251
v -0.03569210 0.01348321 -0.01323315
v -0.03562428 0.01242393 -0.01323315
v -0.03515409 0.01242393 -0.01663595
v -0.03515409 0.01002539 -0.01916481
v -0.03515635 0.00162728 -0.01940141
v -0.03515635 0.00522574 -0.01933216
v -0.03707554 0.01002539 -0.01934819
v -0.03827588 0.01242393 -0.01936294
v -0.04907670 0.01348321 -0.01962391
v -0.04636180 0.01348321 -0.01323315
v -0.03559489 0.01122531 -0.01323315
v -0.03515635 0.00129569 -0.01615570
v -0.03515409 0.01121757 -0.01664108
v -0.03557002 0.01002539 -0.01323315
v -0.03555872 0.00903192 -0.01323315
v -0.03515409 0.00903192 -0.01896412
v -0.03515635 0.00030221 -0.01931998
v -0.03515635 0.00042737 -0.01933858
v -0.03587520 0.00042737 -0.01936679
v -0.05626971 0.00042737 -0.01978292
v -0.05627198 0.01348321 -0.01963096
v -0.05626971 0.00162728 -0.01354669
v -0.04588031 0.00903192 -0.01323315
v -0.05734799 0.01348321 -0.01357683
v -0.03515635 0.00089314 -0.01623008
v -0.03515409 0.00903192 -0.01667442
v -0.03557681 0.00282720 -0.01350437
v -0.03559037 0.00171631 -0.01350437
v -0.03561298 0.00054091 -0.01350437
v -0.03561976 0.00031512 -0.01350437
v -0.03562202 0.00030221 -0.01350437
v -0.03515635 0.00030221 -0.01640512
v -0.03575087 0.00030221 -0.01934242
v -0.05626971 0.00030221 -0.01977394
v -0.05736607 0.00030221 -0.01921803
v -0.05736833 0.00042737 -0.01922316
v -0.05747006 0.00762427 -0.01924047
v -0.05743615 0.01348321 -0.01920521
v -0.05626971 0.00042737 -0.01355567
v -0.05731408 0.00042737 -0.01362812
v -0.05636918 0.00030221 -0.01356336
v -0.05626971 0.00030221 -0.01355887
v -0.04666698 0.00030351 -0.01350437
v -0.04578085 0.00030221 -0.01350437
v -0.05741807 0.01348321 -0.01363453
v -0.05801485 0.01122531 -0.01397629
v -0.05740224 0.01242393 -0.01358965
v -0.05742485 0.00162728 -0.01363197
v -0.05770063 0.00030221 -0.01807415
v -0.05807588 0.00700496 -0.01868264
v -0.05809170 0.00762427 -0.01870187
v -0.05809396 0.00861388 -0.01870380
v -0.05806910 0.00941511 -0.01867174
v -0.05796963 0.01348321 -0.01807094
v -0.05730504 0.00030221 -0.01362876
v -0.04667602 0.00030221 -0.01350822
v -0.05794703 0.01348321 -0.01420135
v -0.05800128 0.01242393 -0.01407760
v -0.05820473 0.01122531 -0.01457645
v -0.05824768 0.01002539 -0.01465018
v -0.05802615 0.00162728 -0.01401027
v -0.05812109 0.00030221 -0.01537986
v -0.05817082 0.00893773 -0.01819276
v -0.05817308 0.00903192 -0.01817353
v -0.05818665 0.01002539 -0.01796771
v -0.05813465 0.01122531 -0.01778304
v -0.05809396 0.01213363 -0.01762659
v -0.05813239 0.01348321 -0.01545103
v -0.05790634 0.00030221 -0.01419942
v -0.05813465 0.01348321 -0.01480150
v -0.05812109 0.00030221 -0.01479958
v -0.05813239 0.00162728 -0.01460979
v -0.05824768 0.01002539 -0.01556324
v -0.05794025 0.00030221 -0.01426162
f 1 2 6
f 1 6 16
f 1 16 29
f 1 29 19
f 1 19 7
f 1 7 3
f 1 3 12
f 1 12 24
f 1 24 41
f 1 41 57
f 1 57 71
f 1 71 73
f 1 73 60
f 1 60 48
f 1 48 27
f 1 27 13
f 1 13 4
f 1 4 5
f 1 5 2
f 2 5 6
f 3 7 8
f 3 8 9
f 3 9 10
f 3 10 11
f 3 11 12
f 4 13 26
f 4 26 18
f 4 18 17
f 4 17 14
f 4 14 5
f 5 14 6
f 6 15 16
f 6 14 17
f 6 17 18
f 6 18 15
f 7 19 20
f 7 20 21
f 7 21 8
f 8 21 22
f 8 22 23
f 8 23 12
f 8 12 11
f 8 11 10
f 8 10 9
f 12 23 24
f 13 25 26
f 13 27 25
f 15 28 29
f 15 29 16
f 15 18 30
f 15 30 31
f 15 31 32
f 15 32 33
f 15 33 28
f 18 34 33
f 18 33 32
f 18 32 31
f 18 31 30
f 18 26 47
f 18 47 34
f 19 29 35
f 19 35 20
f 20 35 34
f 20 34 47
f 20 47 59
f 20 59 45
f 20 45 44
f 20 44 58
f 20 58 72
f 20 72 77
f 20 77 74
f 20 74 65
f 20 65 52
f 20 52 38
f 20 38 37
f 20 37 36
f 20 36 22
f 20 22 21
f 22 36 37
f 22 37 23
f 23 37 38
f 23 38 39
f 23 39 40
f 23 40 41
f 23 41 24
f 25 42 26
f 25 27 43
f 25 43 44
f 25 44 42
f 26 42 45
f 26 45 46
f 26 46 47
f 27 48 49
f 27 49 50
f 27 50 51
f 27 51 43
f 28 33 35
f 28 35 29
f 33 34 35
f 38 52 53
f 38 53 54
f 38 54 39
f 39 54 40
f 40 54 55
f 40 55 41
f 41 55 56
f 41 56 57
f 42 44 45
f 43 58 44
f 43 51 58
f 45 59 46
f 46 59 47
f 48 60 61
f 48 61 49
f 49 61 62
f 49 62 63
f 49 63 64
f 49 64 51
f 49 51 50
f 51 64 58
f 52 65 53
f 53 65 66
f 53 66 54
f 54 66 55
f 55 66 67
f 55 67 68
f 55 68 56
f 56 68 57
f 57 68 69
f 57 69 70
f 57 70 71
f 58 64 72
f 60 73 61
f 61 73 62
f 62 73 63
f 63 74 75
f 63 75 64
f 63 73 76
f 63 76 65
f 63 65 74
f 64 75 74
f 64 74 77
f 64 77 72
f 65 76 67
f 65 67 66
f 67 76 68
f 68 76 71
f 68 71 69
f 69 71 70
f 71 76 73

