# https://github.com/mikedh/trimesh
v 0.01462280 -0.05749153 -0.01326799
v 0.01462280 -0.05748202 -0.01319206
v 0.01462280 -0.05700771 -0.01422652
v 0.01846197 -0.05933169 -0.01647242
v 0.01866951 -0.05951380 -0.01647242
v 0.01983160 -0.06023682 -0.01530437
v 0.01983160 -0.06023682 -0.01495727
v 0.01462280 -0.05725778 -0.01208338
v 0.01462280 -0.05696150 -0.01430702
v 0.01462280 -0.05634993 -0.01485964
v 0.01462280 -0.05626975 -0.01490874
v 0.01462280 -0.05571525 -0.01519819
v 0.01462280 -0.05567856 -0.01521645
v 0.01462280 -0.05248207 -0.01647242
v 0.01935190 -0.05954370 -0.01647242
v 0.02008437 -0.06023682 -0.01530437
v 0.02008437 -0.06023682 -0.01495727
v 0.02093958 -0.05911152 -0.01252125
v 0.01462280 -0.05720749 -0.01201487
v 0.01462280 -0.04635411 -0.01647242
v 0.01969027 -0.05952739 -0.01647242
v 0.02287289 -0.05841705 -0.01447486
v 0.02150810 -0.05937789 -0.01447486
v 0.02287289 -0.05751736 -0.01647242
v 0.02287289 -0.05770762 -0.01619896
v 0.02287289 -0.05808544 -0.01559838
v 0.02149680 -0.05931674 -0.01327541
v 0.02130298 -0.05911152 -0.01252125
v 0.02287289 -0.05809087 -0.01108717
v 0.02172776 -0.05808680 -0.01117109
v 0.02052772 -0.05796177 -0.01130182
v 0.01957075 -0.05785304 -0.01140116
v 0.01877046 -0.05776198 -0.01148850
v 0.01462280 -0.05672639 -0.01136690
v 0.01462280 -0.04635275 -0.01395706
v 0.01513560 -0.04635275 -0.01647242
v 0.02287289 -0.05810447 -0.01113626
v 0.02287289 -0.04828940 -0.01647242
v 0.02287289 -0.05721565 -0.01066984
v 0.02287289 -0.05717352 -0.01064986
v 0.02172776 -0.05717352 -0.01074006
v 0.01462280 -0.05665979 -0.01134178
v 0.01462280 -0.04635275 -0.01359511
v 0.02187151 -0.04635275 -0.01647242
v 0.02260881 -0.04774986 -0.01647242
v 0.02249091 -0.04793469 -0.01475174
v 0.02287289 -0.04876914 -0.01573654
v 0.02287289 -0.05597347 -0.01064015
v 0.02172776 -0.05597347 -0.01065385
v 0.02052772 -0.05597347 -0.01068811
v 0.01932768 -0.05597347 -0.01073435
v 0.01812844 -0.05597347 -0.01079201
v 0.01692840 -0.05597347 -0.01089021
v 0.01572836 -0.05597347 -0.01099126
v 0.01462280 -0.05597347 -0.01109059
v 0.01572917 -0.04635275 -0.01355115
v 0.01462280 -0.05357339 -0.01115682
v 0.01572836 -0.05357339 -0.01104663
v 0.02197891 -0.04654302 -0.01647242
v 0.02146288 -0.04635275 -0.01554072
v 0.02139908 -0.04665854 -0.01478372
v 0.02193531 -0.04830299 -0.01395192
v 0.02242388 -0.04910347 -0.01379549
v 0.02287289 -0.05345243 -0.01124473
v 0.02262093 -0.04873245 -0.01440122
v 0.02287289 -0.04969330 -0.01445830
v 0.02287289 -0.05477343 -0.01075091
v 0.02172776 -0.05477343 -0.01075148
v 0.01932768 -0.05477343 -0.01075433
v 0.01812844 -0.05477343 -0.01076404
v 0.01692840 -0.05477343 -0.01079258
v 0.01572836 -0.05477343 -0.01084796
v 0.01462280 -0.05477343 -0.01094273
v 0.01692840 -0.04635275 -0.01352717
v 0.01692840 -0.05357339 -0.01099925
v 0.01462280 -0.05467966 -0.01095871
v 0.02054872 -0.04635275 -0.01440350
v 0.02052933 -0.04635275 -0.01438580
v 0.02048976 -0.04635275 -0.01435897
v 0.02287289 -0.05350408 -0.01120820
v 0.02287289 -0.05398382 -0.01103464
v 0.02172776 -0.05357339 -0.01109402
v 0.02052772 -0.05357339 -0.01102494
v 0.01932768 -0.05357339 -0.01098098
v 0.01812844 -0.05357339 -0.01098041
v 0.01696474 -0.04635275 -0.01353003
v 0.01934625 -0.04635275 -0.01388056
v 0.02002057 -0.04687734 -0.01385201
v 0.01920896 -0.04635275 -0.01385144
f 1 2 8
f 1 8 19
f 1 19 34
f 1 34 42
f 1 42 55
f 1 55 73
f 1 73 76
f 1 76 57
f 1 57 43
f 1 43 35
f 1 35 20
f 1 20 14
f 1 14 13
f 1 13 12
f 1 12 11
f 1 11 10
f 1 10 9
f 1 9 3
f 1 3 4
f 1 4 5
f 1 5 6
f 1 6 7
f 1 7 2
f 2 7 8
f 3 9 4
f 4 9 10
f 4 10 11
f 4 11 12
f 4 12 13
f 4 13 14
f 4 14 20
f 4 20 36
f 4 36 44
f 4 44 59
f 4 59 45
f 4 45 38
f 4 38 24
f 4 24 21
f 4 21 15
f 4 15 5
f 5 15 6
f 6 16 17
f 6 17 7
f 6 15 16
f 7 17 28
f 7 28 18
f 7 18 8
f 8 18 19
f 15 21 16
f 16 22 23
f 16 23 17
f 16 21 24
f 16 24 25
f 16 25 26
f 16 26 22
f 17 23 27
f 17 27 28
f 18 28 29
f 18 29 30
f 18 30 31
f 18 31 32
f 18 32 33
f 18 33 34
f 18 34 19
f 20 35 36
f 22 27 23
f 22 26 25
f 22 25 24
f 22 24 38
f 22 38 47
f 22 47 66
f 22 66 64
f 22 64 80
f 22 80 81
f 22 81 67
f 22 67 48
f 22 48 40
f 22 40 39
f 22 39 29
f 22 29 37
f 22 37 27
f 27 37 29
f 27 29 28
f 29 39 30
f 30 39 40
f 30 40 41
f 30 41 34
f 30 34 31
f 31 34 32
f 32 34 33
f 34 41 42
f 35 43 56
f 35 56 74
f 35 74 86
f 35 86 89
f 35 89 87
f 35 87 79
f 35 79 78
f 35 78 77
f 35 77 60
f 35 60 44
f 35 44 36
f 38 45 46
f 38 46 47
f 40 48 49
f 40 49 50
f 40 50 51
f 40 51 52
f 40 52 41
f 41 52 53
f 41 53 54
f 41 54 55
f 41 55 42
f 43 57 58
f 43 58 56
f 44 60 61
f 44 61 46
f 44 46 59
f 45 59 46
f 46 62 63
f 46 63 64
f 46 64 65
f 46 65 66
f 46 66 47
f 46 61 62
f 48 67 68
f 48 68 69
f 48 69 70
f 48 70 49
f 49 70 71
f 49 71 50
f 50 71 51
f 51 71 72
f 51 72 52
f 52 72 53
f 53 72 54
f 54 72 73
f 54 73 55
f 56 58 75
f 56 75 74
f 57 76 58
f 58 76 73
f 58 73 72
f 58 72 71
f 58 71 75
f 60 77 61
f 61 77 78
f 61 78 62
f 62 78 79
f 62 79 80
f 62 80 63
f 63 80 64
f 64 66 65
f 67 81 82
f 67 82 83
f 67 83 84
f 67 84 85
f 67 85 68
f 68 85 69
f 69 85 70
f 70 85 75
f 70 75 71
f 74 80 86
f 74 75 85
f 74 85 84
f 74 84 83
f 74 83 82
f 74 82 80
f 79 87 88
f 79 88 80
f 80 88 87
f 80 87 89
f 80 89 86
f 80 82 81

