# https://github.com/mikedh/trimesh
v 0.01812763 0.03402525 0.00342101
v 0.01812763 0.03511699 0.00372355
v 0.01917211 0.03511699 0.00370280
v 0.01917211 0.03402525 0.00343538
v 0.01917211 0.03284323 0.00345055
v -0.00084545 0.03399764 0.00408437
v 0.00132973 0.03473940 0.00401173
v 0.01701848 0.03511699 0.00393669
v 0.00132973 0.03511027 0.00472538
v 0.01917211 0.03511699 0.00698608
v 0.01917211 0.03270443 0.00348886
v 0.00492956 0.03320440 0.00393909
v -0.00084545 0.03385810 0.00410034
v -0.00084545 0.03418495 0.00409315
v 0.00012848 0.03468865 0.00405404
v 0.01680488 0.03511699 0.00398219
v -0.00060834 0.03464239 0.00410433
v -0.00072787 0.03466627 0.00472538
v -0.00067496 0.03466328 0.00541269
v 0.00132973 0.03499610 0.00578388
v 0.01801789 0.03511699 0.00695734
v 0.01636788 0.03511699 0.00668353
v 0.01590737 0.03511699 0.00657577
v 0.01540571 0.03511699 0.00641531
v 0.01464341 0.03511699 0.00599622
v 0.01438082 0.03511699 0.00580943
v 0.01422797 0.03511699 0.00516443
v 0.01422797 0.03511699 0.00500797
v 0.01451408 0.03511699 0.00482437
v 0.01466105 0.03511699 0.00475651
v 0.01559383 0.03511699 0.00436376
v 0.01911136 0.02778454 0.01150587
v 0.01917211 0.02750620 0.01150667
v 0.01812763 0.03511699 0.00696532
v -0.00084545 0.03111645 0.01039708
v 0.01572709 0.03019262 0.01152982
v 0.01661871 0.03006726 0.01151066
v 0.01788855 0.02892030 0.01151306
v 0.01917211 0.02749351 0.00605210
v 0.01692638 0.02749351 0.00607206
v -0.00084545 0.02749351 0.00667715
v -0.00049860 0.03348946 0.00413785
v -0.00084545 0.03462224 0.00472538
v -0.00084545 0.03460582 0.00523308
v -0.00084545 0.03452150 0.00560188
v 0.00012848 0.03478566 0.00559709
v -0.00084545 0.03441702 0.00580783
v -0.00084545 0.03434091 0.00592198
v -0.00084545 0.03384094 0.00664841
v 0.01822365 0.02812109 0.01154978
v 0.01698321 0.02928222 0.01157452
v 0.01917211 0.02749351 0.01150667
v -0.00084545 0.03042545 0.01075071
v 0.00252902 0.02749351 0.01114825
v -0.00084545 0.02749351 0.01095427
v 0.01332655 0.02749351 0.01144440
v 0.01816290 0.02749351 0.01149629
f 1 2 3
f 1 3 4
f 1 4 5
f 1 5 6
f 1 6 7
f 1 7 2
f 2 8 16
f 2 16 31
f 2 31 30
f 2 30 29
f 2 29 28
f 2 28 27
f 2 27 26
f 2 26 25
f 2 25 24
f 2 24 23
f 2 23 22
f 2 22 21
f 2 21 34
f 2 34 10
f 2 10 3
f 2 7 9
f 2 9 8
f 3 10 33
f 3 33 52
f 3 52 39
f 3 39 11
f 3 11 5
f 3 5 4
f 5 11 12
f 5 12 6
f 6 12 13
f 6 13 41
f 6 41 55
f 6 55 53
f 6 53 35
f 6 35 49
f 6 49 48
f 6 48 47
f 6 47 45
f 6 45 44
f 6 44 43
f 6 43 14
f 6 14 15
f 6 15 7
f 7 15 9
f 8 9 16
f 9 15 17
f 9 17 18
f 9 18 19
f 9 19 20
f 9 20 21
f 9 21 22
f 9 22 23
f 9 23 24
f 9 24 25
f 9 25 26
f 9 26 27
f 9 27 28
f 9 28 29
f 9 29 30
f 9 30 31
f 9 31 16
f 10 32 33
f 10 34 35
f 10 35 36
f 10 36 37
f 10 37 38
f 10 38 32
f 11 39 40
f 11 40 41
f 11 41 12
f 12 41 42
f 12 42 13
f 13 42 41
f 14 43 17
f 14 17 15
f 17 43 18
f 18 43 44
f 18 44 19
f 19 44 45
f 19 45 46
f 19 46 20
f 20 46 47
f 20 47 48
f 20 48 49
f 20 49 35
f 20 35 21
f 21 35 34
f 32 50 33
f 32 38 51
f 32 51 50
f 33 50 52
f 35 53 36
f 36 51 37
f 36 53 54
f 36 54 51
f 37 51 38
f 39 52 57
f 39 57 56
f 39 56 54
f 39 54 55
f 39 55 41
f 39 41 40
f 45 47 46
f 50 51 56
f 50 56 57
f 50 57 52
f 51 54 56
f 53 55 54

