# https://github.com/mikedh/trimesh
v -0.02759536 0.05060992 -0.01788480
v -0.02759536 0.04842471 -0.01676409
v -0.02759536 0.05060992 -0.01936690
v -0.03626171 0.05060992 -0.01373227
v -0.02759536 0.04302699 -0.01584982
v -0.02759536 0.04962495 -0.01943870
v -0.02867249 0.04962495 -0.01949315
v -0.02867249 0.05060992 -0.01941955
v -0.03730008 0.05060992 -0.01356054
v -0.03827139 0.04362600 -0.01347199
v -0.03827139 0.04302699 -0.01347917
v -0.03347142 0.04482549 -0.01448977
v -0.02759536 0.04302699 -0.01942314
v -0.02759536 0.04854718 -0.01946443
v -0.02867249 0.04602572 -0.01954401
v -0.03829864 0.04362674 -0.01958470
v -0.03347142 0.05060992 -0.01943272
v -0.03829864 0.05060992 -0.01357909
v -0.03829864 0.04362377 -0.01347438
v -0.03829864 0.04302699 -0.01348216
v -0.02759536 0.04494796 -0.01947640
v -0.02867249 0.04302699 -0.01949495
v -0.02759536 0.04602572 -0.01949375
v -0.03829864 0.04302699 -0.01950990
v -0.03829864 0.04845143 -0.01937887
v -0.03707166 0.04962495 -0.01940041
v -0.03587193 0.05060992 -0.01934416
v -0.03829864 0.05060992 -0.01916885
v -0.03829864 0.04965760 -0.01926758
f 1 2 5
f 1 5 13
f 1 13 21
f 1 21 23
f 1 23 14
f 1 14 6
f 1 6 3
f 1 3 8
f 1 8 17
f 1 17 27
f 1 27 28
f 1 28 18
f 1 18 9
f 1 9 4
f 1 4 2
f 2 4 5
f 3 6 7
f 3 7 8
f 4 9 10
f 4 10 11
f 4 11 12
f 4 12 5
f 5 12 11
f 5 11 20
f 5 20 24
f 5 24 22
f 5 22 13
f 6 14 7
f 7 14 15
f 7 15 16
f 7 16 17
f 7 17 8
f 9 18 10
f 10 18 19
f 10 19 11
f 11 19 20
f 13 22 21
f 14 23 15
f 15 23 21
f 15 21 22
f 15 22 16
f 16 24 20
f 16 20 19
f 16 19 18
f 16 18 28
f 16 28 29
f 16 29 25
f 16 25 26
f 16 26 17
f 16 22 24
f 17 26 27
f 25 29 26
f 26 29 28
f 26 28 27

