# https://github.com/mikedh/trimesh
v -0.03925819 -0.01838008 -0.01250388
v -0.03506600 -0.02360691 -0.01301117
v -0.03506600 -0.02261637 -0.01337559
v -0.03730471 -0.01838008 -0.01464703
v -0.03925819 -0.01838008 -0.01910432
v -0.03925819 -0.02717450 -0.01363245
v -0.03506600 -0.02398119 -0.01307218
v -0.03506600 -0.01838008 -0.01789870
v -0.03866640 -0.01838008 -0.01922472
v -0.03925819 -0.01997494 -0.01923355
v -0.03925819 -0.02767155 -0.01377452
v -0.03506600 -0.02596822 -0.01353693
v -0.03506600 -0.01838008 -0.01950486
v -0.03506600 -0.02717450 -0.02059892
v -0.03506600 -0.02837363 -0.02070327
v -0.03925819 -0.02117527 -0.01925763
v -0.03925819 -0.03055734 -0.01463820
v -0.03518624 -0.03039046 -0.01503714
v -0.03506600 -0.03049655 -0.01509814
v -0.03506600 -0.02956442 -0.02039824
v -0.03925819 -0.03055734 -0.01905857
v -0.03925819 -0.02597418 -0.01917817
v -0.03538118 -0.03055734 -0.01508771
v -0.03506600 -0.03055734 -0.01512463
v -0.03506600 -0.03033443 -0.02000975
v -0.03544151 -0.03030106 -0.01996560
v -0.03568734 -0.03055734 -0.01973282
v -0.03506600 -0.03055734 -0.01983155
f 1 2 3
f 1 3 4
f 1 4 8
f 1 8 13
f 1 13 9
f 1 9 5
f 1 5 10
f 1 10 16
f 1 16 22
f 1 22 21
f 1 21 17
f 1 17 11
f 1 11 6
f 1 6 2
f 2 7 12
f 2 12 19
f 2 19 24
f 2 24 28
f 2 28 25
f 2 25 20
f 2 20 15
f 2 15 14
f 2 14 13
f 2 13 8
f 2 8 3
f 2 6 7
f 3 8 4
f 5 9 10
f 6 11 12
f 6 12 7
f 9 13 14
f 9 14 15
f 9 15 10
f 10 15 16
f 11 17 12
f 12 17 18
f 12 18 19
f 15 20 21
f 15 21 22
f 15 22 16
f 17 21 27
f 17 27 28
f 17 28 24
f 17 24 23
f 17 23 18
f 18 23 24
f 18 24 19
f 20 25 26
f 20 26 21
f 21 26 27
f 25 28 27
f 25 27 26

