# https://github.com/mikedh/trimesh
v -0.00084545 -0.04059525 0.00594258
v 0.00042267 -0.03980435 0.00899739
v -0.00084545 -0.03940132 0.00950923
v -0.00084545 -0.03879527 0.00594258
v 0.00252920 -0.04104677 0.00594258
v 0.00006535 -0.03954721 0.00944819
v 0.00132881 -0.03983205 0.00906179
v 0.00132881 -0.03954764 0.00966211
v -0.00084545 -0.03886756 0.01048700
v -0.00084545 -0.03859527 0.00652890
v 0.01201325 -0.03718532 0.00594258
v 0.02292657 -0.04160693 0.00594258
v 0.02301065 -0.04158832 0.00599074
v 0.02301065 -0.03958227 0.01072276
v 0.00132881 -0.03894808 0.01056092
v 0.00012841 -0.03891561 0.01052676
v 0.02301065 -0.03920219 0.01146364
v -0.00084545 -0.03821605 0.01108732
v -0.00084545 -0.03740177 0.01018291
v -0.00084545 -0.03723770 0.01078268
v 0.00012841 -0.03722731 0.01083308
v 0.00132881 -0.03721606 0.01089020
v 0.00252920 -0.03720913 0.01090140
v 0.00372959 -0.03720480 0.01087844
v 0.00492999 -0.03720090 0.01087396
v 0.00612805 -0.03719701 0.01087956
v 0.00852884 -0.03718922 0.01088628
v 0.00972923 -0.03718575 0.01089412
v 0.00972923 -0.03718575 0.01150340
v 0.01240794 -0.03718532 0.00679770
v 0.02301065 -0.03718532 0.00594258
v 0.02294993 -0.04160737 0.00594258
v 0.02301065 -0.04160304 0.00594258
v 0.01932772 -0.03892730 0.01165068
v 0.01812733 -0.03889440 0.01162268
v 0.00012841 -0.03825111 0.01112708
v 0.00132881 -0.03829657 0.01116124
v 0.02301065 -0.03915847 0.01146812
v 0.02172618 -0.03893293 0.01161652
v 0.02052578 -0.03893249 0.01166300
v -0.00084545 -0.03761605 0.01144180
v -0.00084545 -0.03723770 0.01144180
v 0.00012841 -0.03722731 0.01145300
v 0.00132881 -0.03721606 0.01146532
v 0.00252920 -0.03720913 0.01147316
v 0.00372959 -0.03720480 0.01147820
v 0.00612805 -0.03719701 0.01148828
v 0.00852884 -0.03718922 0.01149836
v 0.01092963 -0.03719701 0.01149780
v 0.02301065 -0.03718532 0.00803698
v 0.01408709 -0.03718532 0.00717458
v 0.01332575 -0.03718532 0.00707098
v 0.01294274 -0.03718532 0.00697746
v 0.02052578 -0.03826930 0.01166300
v 0.01932772 -0.03824938 0.01165068
v 0.00012841 -0.03765112 0.01145300
v 0.02301065 -0.03845198 0.01147540
v 0.02292657 -0.03844116 0.01148828
v 0.02172618 -0.03832600 0.01161652
v 0.01212769 -0.03725761 0.01144852
f 1 2 3
f 1 3 9
f 1 9 18
f 1 18 41
f 1 41 42
f 1 42 20
f 1 20 19
f 1 19 10
f 1 10 4
f 1 4 11
f 1 11 31
f 1 31 33
f 1 33 32
f 1 32 12
f 1 12 5
f 1 5 2
f 2 6 3
f 2 5 7
f 2 7 8
f 2 8 6
f 3 6 9
f 4 10 11
f 5 12 7
f 6 8 9
f 7 12 13
f 7 13 14
f 7 14 8
f 8 15 16
f 8 16 9
f 8 14 17
f 8 17 15
f 9 16 18
f 10 19 11
f 11 19 20
f 11 20 21
f 11 21 22
f 11 22 23
f 11 23 24
f 11 24 25
f 11 25 26
f 11 26 27
f 11 27 28
f 11 28 29
f 11 29 30
f 11 30 53
f 11 53 52
f 11 52 51
f 11 51 50
f 11 50 31
f 12 32 13
f 13 32 33
f 13 33 31
f 13 31 50
f 13 50 57
f 13 57 38
f 13 38 17
f 13 17 14
f 15 17 34
f 15 34 35
f 15 35 16
f 16 36 18
f 16 35 37
f 16 37 36
f 17 38 39
f 17 39 40
f 17 40 34
f 18 36 41
f 20 42 43
f 20 43 21
f 21 43 44
f 21 44 22
f 22 44 45
f 22 45 23
f 23 45 46
f 23 46 24
f 24 46 47
f 24 47 26
f 24 26 25
f 26 47 48
f 26 48 27
f 27 48 29
f 27 29 28
f 29 49 50
f 29 50 51
f 29 51 52
f 29 52 53
f 29 53 30
f 29 48 54
f 29 54 49
f 34 55 43
f 34 43 56
f 34 56 41
f 34 41 35
f 34 40 54
f 34 54 55
f 35 41 37
f 36 37 41
f 38 57 58
f 38 58 39
f 39 59 54
f 39 54 40
f 39 58 59
f 41 56 43
f 41 43 42
f 43 55 54
f 43 54 44
f 44 54 45
f 45 54 46
f 46 54 47
f 47 54 48
f 49 60 50
f 49 54 59
f 49 59 60
f 50 59 58
f 50 58 57
f 50 60 59

