# https://github.com/mikedh/trimesh
v 0.00060772 -0.03874858 -0.01990167
v 0.00060772 -0.03844130 -0.01990167
v 0.00096765 -0.03874858 -0.01990167
v -0.00016226 -0.03918556 -0.01979921
v -0.00016226 -0.03916330 -0.01980147
v -0.00016226 -0.03885166 -0.01980975
v 0.00096765 -0.03844130 -0.01990167
v -0.00016226 -0.03802804 -0.01980975
v -0.00016226 -0.03768978 -0.01980373
v 0.00492916 -0.03437497 -0.01970277
v 0.00017489 -0.03918556 -0.01979770
v 0.01692762 -0.03557459 -0.01975626
v 0.02172746 -0.03797432 -0.01967489
v 0.01813726 -0.03918556 -0.01970126
v -0.00016226 -0.03918556 -0.01436084
v -0.00016226 -0.03679502 -0.01970503
v -0.00016226 -0.03648435 -0.01966509
v -0.00016226 -0.03528473 -0.01947221
v 0.00492916 -0.03424189 -0.01968091
v 0.01812587 -0.03424189 -0.01966660
v 0.02292799 -0.03797432 -0.01965228
v 0.02311023 -0.03815676 -0.01963797
v 0.01932640 -0.03918556 -0.01967263
v -0.00016226 -0.03631885 -0.01377541
v 0.00340743 -0.03918556 -0.01295490
v -0.00016226 -0.03424189 -0.01915878
v 0.01919427 -0.03424189 -0.01962968
v 0.02292799 -0.03424189 -0.01936597
v 0.02311023 -0.03797432 -0.01963797
v 0.02311023 -0.03917588 -0.01957242
v 0.02311023 -0.03918556 -0.01957091
v -0.00016226 -0.03589107 -0.01376561
v 0.00372863 -0.03918556 -0.01289161
v -0.00016226 -0.03424189 -0.01603951
v 0.02311023 -0.03424189 -0.01728420
v 0.02311023 -0.03424577 -0.01932604
v 0.02311023 -0.03918556 -0.01356972
v 0.00549184 -0.03615287 -0.01266859
v 0.00776533 -0.03495857 -0.01265051
v 0.00492916 -0.03918556 -0.01275373
v 0.00549184 -0.03618384 -0.01266859
v 0.00852847 -0.03495083 -0.01263544
v 0.01565419 -0.03424189 -0.01616609
v 0.02311023 -0.03424189 -0.01720208
v 0.02311023 -0.03623755 -0.01234085
v 0.02193704 -0.03918556 -0.01345143
v 0.00612969 -0.03596656 -0.01263168
v 0.00735072 -0.03554120 -0.01259250
v 0.00852847 -0.03557459 -0.01252167
v 0.00972900 -0.03557459 -0.01248099
v 0.01092953 -0.03557459 -0.01245311
v 0.00612969 -0.03622159 -0.01263168
v 0.02311023 -0.03559201 -0.01220447
v 0.01212778 -0.03636966 -0.01243879
v 0.00972900 -0.03495421 -0.01263770
v 0.02052693 -0.03424189 -0.01682159
v 0.01092953 -0.03496486 -0.01265503
v 0.01154460 -0.03497309 -0.01267085
f 1 2 7
f 1 7 3
f 1 3 4
f 1 4 5
f 1 5 6
f 1 6 8
f 1 8 2
f 2 8 9
f 2 9 10
f 2 10 7
f 3 11 4
f 3 7 12
f 3 12 13
f 3 13 14
f 3 14 11
f 4 15 24
f 4 24 32
f 4 32 34
f 4 34 26
f 4 26 18
f 4 18 17
f 4 17 16
f 4 16 9
f 4 9 8
f 4 8 6
f 4 6 5
f 4 11 14
f 4 14 23
f 4 23 31
f 4 31 37
f 4 37 46
f 4 46 40
f 4 40 33
f 4 33 25
f 4 25 15
f 7 10 12
f 9 16 10
f 10 16 17
f 10 17 18
f 10 18 19
f 10 19 20
f 10 20 12
f 12 20 21
f 12 21 13
f 13 21 14
f 14 21 22
f 14 22 23
f 15 25 24
f 18 26 19
f 19 26 34
f 19 34 43
f 19 43 56
f 19 56 44
f 19 44 35
f 19 35 28
f 19 28 27
f 19 27 20
f 20 27 21
f 21 28 29
f 21 29 22
f 21 27 28
f 22 29 36
f 22 36 35
f 22 35 44
f 22 44 53
f 22 53 45
f 22 45 37
f 22 37 31
f 22 31 30
f 22 30 23
f 23 30 31
f 24 25 32
f 25 33 32
f 28 35 36
f 28 36 29
f 32 33 38
f 32 38 39
f 32 39 34
f 33 40 41
f 33 41 38
f 34 39 42
f 34 42 43
f 37 45 46
f 38 41 52
f 38 52 47
f 38 47 39
f 39 47 48
f 39 48 49
f 39 49 50
f 39 50 51
f 39 51 42
f 40 50 49
f 40 49 52
f 40 52 41
f 40 46 45
f 40 45 53
f 40 53 54
f 40 54 50
f 42 51 53
f 42 53 55
f 42 55 43
f 43 55 57
f 43 57 58
f 43 58 56
f 44 56 58
f 44 58 53
f 47 52 49
f 47 49 48
f 50 54 51
f 51 54 53
f 53 58 57
f 53 57 55

