# https://github.com/mikedh/trimesh
v -0.00810123 0.02699108 0.02152449
v -0.00707197 0.02683269 0.02186858
v -0.00707197 0.02685795 0.02152449
v -0.00810123 0.02695425 0.02032464
v -0.00810123 0.02693109 0.02181967
v -0.00810123 0.02692110 0.02186858
v -0.00587183 0.02657591 0.02186858
v -0.00393634 0.02632228 0.01752344
v -0.00810123 0.02691004 0.01912522
v -0.00810123 0.02547720 0.02186858
v -0.00504877 0.02631596 0.02186858
v -0.00487732 0.02624545 0.02186858
v -0.00228280 0.02559770 0.01752344
v -0.00810123 0.02679218 0.01752344
v -0.00810123 0.02526198 0.01775822
v -0.00531420 0.02161541 0.01858207
v -0.00489213 0.02161541 0.01882451
v -0.00308707 0.02360182 0.02186858
v -0.00263481 0.02512149 0.02186858
v -0.00228280 0.02491890 0.02186858
v -0.00228280 0.02445058 0.01752344
v -0.00810123 0.02525514 0.01752344
v -0.00532559 0.02161541 0.01805382
v -0.00467226 0.02161541 0.01891808
v -0.00284329 0.02353605 0.02186858
v -0.00228280 0.02446426 0.02186858
v -0.00228280 0.02364550 0.01752429
v -0.00230559 0.02362918 0.01752344
v -0.00518604 0.02161541 0.01752344
v -0.00382299 0.02161541 0.01888831
v -0.00228280 0.02341344 0.02186433
v -0.00228280 0.02334398 0.01790963
v -0.00324599 0.02161541 0.01794026
v -0.00355642 0.02161541 0.01752344
v -0.00349434 0.02161541 0.01886960
v -0.00228280 0.02306352 0.01915542
v -0.00228280 0.02330452 0.01796918
v -0.00228280 0.02329610 0.01799853
v -0.00228280 0.02306720 0.01909204
f 1 2 3
f 1 3 4
f 1 4 9
f 1 9 14
f 1 14 22
f 1 22 15
f 1 15 10
f 1 10 6
f 1 6 5
f 1 5 2
f 2 5 6
f 2 6 10
f 2 10 18
f 2 18 25
f 2 25 26
f 2 26 20
f 2 20 19
f 2 19 12
f 2 12 11
f 2 11 7
f 2 7 3
f 3 7 8
f 3 8 4
f 4 8 9
f 7 11 8
f 8 11 12
f 8 12 13
f 8 13 21
f 8 21 28
f 8 28 34
f 8 34 29
f 8 29 22
f 8 22 14
f 8 14 9
f 10 15 16
f 10 16 17
f 10 17 18
f 12 19 13
f 13 19 20
f 13 20 26
f 13 26 31
f 13 31 36
f 13 36 39
f 13 39 38
f 13 38 37
f 13 37 32
f 13 32 27
f 13 27 21
f 15 22 16
f 16 22 23
f 16 23 29
f 16 29 34
f 16 34 33
f 16 33 35
f 16 35 30
f 16 30 24
f 16 24 17
f 17 24 18
f 18 24 25
f 21 27 28
f 22 29 23
f 24 30 31
f 24 31 25
f 25 31 26
f 27 32 33
f 27 33 34
f 27 34 28
f 30 35 31
f 31 35 33
f 31 33 36
f 32 37 33
f 33 37 38
f 33 38 39
f 33 39 36

