# https://github.com/mikedh/trimesh
v -0.02927720 0.02501613 -0.02467511
v -0.02927720 0.02503401 -0.02467511
v -0.02926611 0.02501613 -0.02467511
v -0.02874473 0.02403830 -0.02453108
v -0.02934154 0.02403830 -0.02450918
v -0.02979969 0.02403830 -0.02447549
v -0.02975531 0.02453992 -0.02454793
v -0.03107096 0.02442557 -0.02426240
v -0.02867262 0.02682497 -0.02441148
v -0.02926611 0.02503401 -0.02467511
v -0.02975531 0.02551069 -0.02451761
v -0.02878910 0.02453992 -0.02458246
v -0.02747234 0.02562551 -0.02448644
v -0.02828658 0.02403830 -0.02447128
v -0.03107096 0.02403830 -0.02421860
v -0.03107096 0.02562551 -0.02416891
v -0.03207045 0.02403830 -0.02377726
v -0.03208820 0.02442557 -0.02379579
v -0.02878910 0.02551069 -0.02460436
v -0.02987179 0.02682497 -0.02420092
v -0.02987179 0.02762681 -0.02374020
v -0.02867262 0.02772704 -0.02386232
v -0.02747234 0.02682497 -0.02428599
v -0.02627207 0.02403830 -0.02419249
v -0.02627207 0.02562551 -0.02427588
v -0.02627207 0.02442557 -0.02421608
v -0.03197727 0.02562551 -0.02373599
v -0.03182307 0.02646076 -0.02360291
v -0.03106985 0.02684662 -0.02376546
v -0.03267059 0.02403830 -0.02325590
v -0.03268723 0.02442557 -0.02326937
v -0.03436784 0.02802538 -0.02135659
v -0.03066939 0.02750494 -0.02357848
v -0.03422696 0.02874863 -0.02119741
v -0.03432014 0.02884510 -0.02105591
v -0.02867262 0.02822631 -0.02287435
v -0.02414440 0.02884510 -0.02127153
v -0.02747234 0.02765411 -0.02375789
v -0.03347152 0.02884510 -0.02120330
v -0.02655383 0.02751670 -0.02358690
v -0.02575402 0.02739106 -0.02343951
v -0.02620107 0.02692473 -0.02386148
v -0.02507290 0.02442557 -0.02385812
v -0.02506180 0.02403830 -0.02381685
v -0.02537130 0.02659110 -0.02367450
v -0.02501188 0.02558975 -0.02376378
v -0.03381208 0.02403830 -0.02200429
v -0.03382317 0.02442557 -0.02201609
v -0.03439558 0.02682497 -0.02143409
v -0.03496687 0.02802538 -0.02072321
v -0.03528747 0.02884510 -0.02025829
v -0.02987179 0.02884510 -0.02148968
v -0.02982187 0.02884510 -0.02148968
v -0.02414440 0.02884510 -0.01891740
v -0.02414440 0.02879851 -0.02132880
v -0.02414440 0.02818490 -0.02192849
v -0.02414440 0.02758493 -0.02240858
v -0.02442284 0.02516530 -0.02351447
v -0.02443060 0.02442557 -0.02350858
v -0.02468907 0.02403830 -0.02361891
v -0.02414440 0.02684897 -0.02279181
v -0.02457149 0.02596525 -0.02339403
v -0.03434566 0.02403830 -0.02140461
v -0.03435675 0.02442557 -0.02141640
v -0.03499572 0.02682497 -0.02069626
v -0.03547716 0.02802538 -0.02012100
v -0.03547716 0.02803244 -0.02012100
v -0.03547716 0.02884510 -0.02004604
v -0.02414440 0.02562598 -0.01811641
v -0.02518716 0.02884510 -0.01607140
v -0.02502187 0.02802538 -0.01607140
v -0.02414440 0.02570221 -0.02318009
v -0.02414440 0.02542176 -0.02325674
v -0.02414440 0.02481849 -0.02331233
v -0.02414440 0.02442557 -0.02330643
v -0.02445279 0.02403830 -0.02349005
v -0.03547716 0.02403830 -0.01992391
v -0.03547716 0.02442557 -0.01997107
v -0.03547716 0.02562551 -0.02003256
v -0.03547716 0.02682497 -0.02007804
v -0.03547716 0.02884510 -0.01780225
v -0.02414440 0.02537187 -0.01806840
v -0.03367230 0.02884510 -0.01607140
v -0.02526592 0.02727295 -0.01607140
v -0.02414440 0.02403830 -0.01824612
v -0.02414440 0.02403830 -0.02325084
v -0.03547716 0.02403830 -0.01771044
v -0.03547716 0.02802538 -0.01777529
v -0.03547716 0.02682497 -0.01774245
v -0.03547716 0.02442557 -0.01770034
v -0.03366787 0.02879993 -0.01607140
v -0.02537796 0.02695720 -0.01607140
v -0.02607905 0.02637135 -0.01607140
v -0.02808247 0.02502648 -0.01607140
v -0.02824443 0.02495072 -0.01607140
v -0.02866153 0.02475685 -0.01607140
v -0.02894108 0.02463074 -0.01607140
v -0.02987179 0.02429711 -0.01607140
v -0.03026560 0.02418512 -0.01607140
v -0.03228455 0.02403830 -0.01662308
v -0.03448654 0.02403830 -0.01724636
v -0.03311321 0.02595208 -0.01607140
v -0.03327739 0.02641135 -0.01607140
v -0.03351478 0.02759764 -0.01607140
v -0.03106763 0.02416206 -0.01607140
v -0.03265506 0.02403830 -0.01665593
v -0.03347152 0.02403830 -0.01687492
v -0.03212037 0.02456251 -0.01607140
v -0.03288136 0.02557233 -0.01607140
v -0.03159789 0.02429852 -0.01607140
f 1 2 10
f 1 10 3
f 1 3 4
f 1 4 5
f 1 5 6
f 1 6 7
f 1 7 8
f 1 8 2
f 2 9 10
f 2 8 11
f 2 11 9
f 3 12 4
f 3 10 13
f 3 13 12
f 4 12 14
f 4 14 24
f 4 24 44
f 4 44 60
f 4 60 76
f 4 76 86
f 4 86 85
f 4 85 100
f 4 100 106
f 4 106 107
f 4 107 101
f 4 101 87
f 4 87 77
f 4 77 63
f 4 63 47
f 4 47 30
f 4 30 17
f 4 17 15
f 4 15 6
f 4 6 5
f 6 15 7
f 7 15 8
f 8 16 11
f 8 15 17
f 8 17 18
f 8 18 16
f 9 19 10
f 9 11 20
f 9 20 21
f 9 21 22
f 9 22 23
f 9 23 13
f 9 13 19
f 10 19 13
f 11 16 20
f 12 13 24
f 12 24 14
f 13 23 25
f 13 25 26
f 13 26 24
f 16 18 27
f 16 27 28
f 16 28 29
f 16 29 20
f 17 30 18
f 18 30 31
f 18 31 32
f 18 32 27
f 20 29 33
f 20 33 21
f 21 33 34
f 21 34 35
f 21 35 22
f 22 36 37
f 22 37 38
f 22 38 23
f 22 35 39
f 22 39 36
f 23 38 40
f 23 40 41
f 23 41 42
f 23 42 25
f 24 26 43
f 24 43 44
f 25 42 45
f 25 45 46
f 25 46 43
f 25 43 26
f 27 32 28
f 28 32 34
f 28 34 29
f 29 34 33
f 30 47 31
f 31 47 48
f 31 48 49
f 31 49 32
f 32 49 50
f 32 50 51
f 32 51 34
f 34 51 35
f 35 51 68
f 35 68 81
f 35 81 83
f 35 83 70
f 35 70 54
f 35 54 37
f 35 37 53
f 35 53 52
f 35 52 39
f 36 39 52
f 36 52 53
f 36 53 37
f 37 54 69
f 37 69 82
f 37 82 85
f 37 85 86
f 37 86 75
f 37 75 74
f 37 74 73
f 37 73 72
f 37 72 61
f 37 61 57
f 37 57 56
f 37 56 55
f 37 55 38
f 38 55 40
f 40 55 41
f 41 55 56
f 41 56 57
f 41 57 45
f 41 45 42
f 43 46 58
f 43 58 59
f 43 59 60
f 43 60 44
f 45 57 61
f 45 61 62
f 45 62 46
f 46 62 58
f 47 63 64
f 47 64 48
f 48 64 49
f 49 64 65
f 49 65 66
f 49 66 67
f 49 67 50
f 50 67 68
f 50 68 51
f 54 70 71
f 54 71 69
f 58 72 73
f 58 73 74
f 58 74 75
f 58 75 59
f 58 62 72
f 59 75 76
f 59 76 60
f 61 72 62
f 63 77 78
f 63 78 64
f 64 78 79
f 64 79 65
f 65 79 80
f 65 80 66
f 66 80 79
f 66 79 78
f 66 78 77
f 66 77 87
f 66 87 90
f 66 90 89
f 66 89 88
f 66 88 81
f 66 81 68
f 66 68 67
f 69 71 82
f 70 83 91
f 70 91 104
f 70 104 103
f 70 103 102
f 70 102 109
f 70 109 108
f 70 108 110
f 70 110 105
f 70 105 99
f 70 99 98
f 70 98 97
f 70 97 96
f 70 96 95
f 70 95 94
f 70 94 93
f 70 93 92
f 70 92 84
f 70 84 71
f 71 84 85
f 71 85 82
f 75 86 76
f 81 88 83
f 83 88 89
f 83 89 90
f 83 90 87
f 83 87 91
f 84 92 85
f 85 92 93
f 85 93 94
f 85 94 95
f 85 95 96
f 85 96 97
f 85 97 98
f 85 98 99
f 85 99 100
f 87 101 102
f 87 102 103
f 87 103 104
f 87 104 91
f 99 105 100
f 100 105 106
f 101 107 108
f 101 108 109
f 101 109 102
f 105 110 107
f 105 107 106
f 107 110 108

