# https://github.com/mikedh/trimesh
v -0.02584429 -0.00437495 0.01792494
v -0.02579371 -0.00550385 0.02160743
v -0.02582384 -0.00437495 0.01912522
v -0.02579479 -0.00077468 0.01792494
v -0.02583783 -0.00437495 0.01752344
v -0.02581739 -0.00477628 0.01752344
v -0.02577972 -0.00557895 0.01793047
v -0.02576358 -0.00658933 0.02186858
v -0.02578403 -0.00556369 0.02186858
v -0.02569363 0.00073326 0.02005328
v -0.02570869 0.00073326 0.01938084
v -0.02570869 0.00073326 0.01913202
v -0.02573667 0.00019697 0.01792494
v -0.02572914 0.00013595 0.01752344
v -0.02577542 -0.00077468 0.01752344
v -0.02577326 -0.00557895 0.01752344
v -0.02565919 -0.00691321 0.02186858
v -0.02571838 -0.00622672 0.01833411
v -0.02531374 0.00073326 0.02186858
v -0.02567318 0.00073326 0.02020768
v -0.02550207 0.00073326 0.01752344
v -0.02559785 -0.00598263 0.01752344
v -0.02111129 -0.01125278 0.02186858
v -0.02559031 -0.00599789 0.01752344
v -0.02514693 -0.00658346 0.01752344
v -0.02419883 0.00073326 0.02186858
v -0.02432474 0.00073326 0.01752344
v -0.01773427 -0.01018490 0.01752344
v -0.01708964 -0.01041608 0.01752344
v -0.01667209 -0.01051935 0.01752344
v -0.01797964 -0.01125278 0.02020512
v -0.01720372 -0.01125278 0.02186858
v -0.01485013 -0.00854554 0.01967176
v -0.01836168 -0.00708571 0.02186858
v -0.01485013 -0.00854554 0.01979171
v -0.01569923 -0.00943504 0.01752344
v -0.01595213 -0.01125278 0.02002564
v -0.01657954 -0.01125278 0.01980872
v -0.01694759 -0.01125278 0.01985380
v -0.01609526 -0.01034567 0.01752344
v -0.01663442 -0.01125278 0.02175587
v -0.01725860 -0.01037501 0.02186858
v -0.01485013 -0.00864059 0.01967176
v -0.01568847 -0.01021072 0.01752344
v -0.01805282 -0.00799869 0.02186858
v -0.01573367 -0.01125278 0.02132076
v -0.01562497 -0.01125278 0.02113404
v -0.01485013 -0.00864059 0.01979171
v -0.01584451 -0.01125278 0.02013239
f 1 2 3
f 1 3 4
f 1 4 5
f 1 5 6
f 1 6 7
f 1 7 8
f 1 8 2
f 2 9 10
f 2 10 4
f 2 4 3
f 2 8 9
f 4 10 11
f 4 11 12
f 4 12 13
f 4 13 14
f 4 14 15
f 4 15 5
f 5 15 14
f 5 14 21
f 5 21 27
f 5 27 36
f 5 36 44
f 5 44 40
f 5 40 30
f 5 30 29
f 5 29 28
f 5 28 25
f 5 25 24
f 5 24 22
f 5 22 16
f 5 16 6
f 6 16 7
f 7 16 8
f 8 17 23
f 8 23 32
f 8 32 42
f 8 42 45
f 8 45 34
f 8 34 26
f 8 26 19
f 8 19 9
f 8 16 18
f 8 18 17
f 9 19 20
f 9 20 10
f 10 20 19
f 10 19 26
f 10 26 27
f 10 27 21
f 10 21 12
f 10 12 11
f 12 14 13
f 12 21 14
f 16 22 18
f 17 18 23
f 18 22 24
f 18 24 25
f 18 25 23
f 23 28 29
f 23 29 30
f 23 30 31
f 23 31 39
f 23 39 38
f 23 38 37
f 23 37 49
f 23 49 47
f 23 47 46
f 23 46 41
f 23 41 32
f 23 25 28
f 26 33 27
f 26 34 35
f 26 35 33
f 27 33 36
f 30 37 38
f 30 38 39
f 30 39 31
f 30 40 37
f 32 41 42
f 33 35 48
f 33 48 43
f 33 43 44
f 33 44 36
f 34 45 41
f 34 41 46
f 34 46 35
f 35 46 47
f 35 47 48
f 37 40 44
f 37 44 49
f 41 45 42
f 43 47 44
f 43 48 47
f 44 47 49

