# https://github.com/mikedh/trimesh
v 0.00919847 0.00955478 0.01781158
v 0.00926256 0.00942417 0.02186815
v 0.01281274 0.00354821 0.01752408
v 0.00919847 0.00955478 0.01762445
v 0.00917165 0.00955478 0.01974843
v -0.00228074 0.00942417 0.02186815
v 0.01279933 0.00333505 0.02186815
v 0.01286044 0.00315727 0.01752408
v 0.00919698 0.00955478 0.01752408
v -0.00228223 0.00955478 0.01974843
v -0.00228074 0.00342939 0.02186815
v 0.01280082 0.00290783 0.02186815
v 0.01294390 0.00162706 0.01912493
v 0.01287832 0.00282438 0.01790047
v 0.01290515 0.00162706 0.01792514
v 0.01287832 0.00210689 0.01752408
v -0.00228223 0.00955478 0.01752408
v -0.00228223 0.00142025 0.01974843
v -0.00228074 0.00102204 0.02186433
v -0.00227180 0.00102023 0.02186815
v 0.01269500 0.00248514 0.02186815
v 0.01280678 0.00028823 0.01995853
v 0.01280827 0.00028823 0.01994449
v 0.01284851 0.00075174 0.01974843
v 0.01288130 0.00071364 0.01912493
v 0.01287236 0.00071364 0.01883827
v 0.01279188 0.00071364 0.01800297
v 0.01275461 0.00071364 0.01773801
v 0.01274269 0.00085514 0.01752408
v 0.01283361 0.00162706 0.01752408
v -0.00228223 0.00071364 0.01752408
v -0.00228223 0.00071364 0.01878936
v 0.00869024 0.00028823 0.02186815
v 0.01260706 0.00217220 0.02186815
v 0.01255192 0.00028823 0.02054758
v 0.01281870 0.00028823 0.01974843
v 0.01268904 0.00071364 0.01752408
v 0.00836980 0.00028823 0.01974843
v 0.00836682 0.00028823 0.02018734
v 0.00836831 0.00028823 0.02025880
v 0.00836980 0.00028823 0.02032472
v 0.00852033 0.00028823 0.02138756
v 0.00856355 0.00028823 0.02153174
v 0.00858144 0.00028823 0.02157937
v 0.01163978 0.00028823 0.02186815
v 0.01194383 0.00028823 0.02155555
v 0.01183503 0.00056670 0.02186815
f 1 2 3
f 1 3 4
f 1 4 9
f 1 9 17
f 1 17 10
f 1 10 5
f 1 5 2
f 2 5 10
f 2 10 6
f 2 6 11
f 2 11 20
f 2 20 33
f 2 33 45
f 2 45 47
f 2 47 34
f 2 34 21
f 2 21 12
f 2 12 7
f 2 7 3
f 3 7 8
f 3 8 16
f 3 16 30
f 3 30 29
f 3 29 37
f 3 37 31
f 3 31 17
f 3 17 9
f 3 9 4
f 6 10 18
f 6 18 11
f 7 12 13
f 7 13 14
f 7 14 8
f 8 14 13
f 8 13 15
f 8 15 16
f 10 17 31
f 10 31 32
f 10 32 18
f 11 18 19
f 11 19 20
f 12 21 22
f 12 22 23
f 12 23 24
f 12 24 13
f 13 24 23
f 13 23 25
f 13 25 26
f 13 26 15
f 15 26 27
f 15 27 28
f 15 28 29
f 15 29 30
f 15 30 16
f 18 32 19
f 19 32 20
f 20 32 33
f 21 34 22
f 22 34 35
f 22 35 46
f 22 46 45
f 22 45 33
f 22 33 44
f 22 44 43
f 22 43 42
f 22 42 41
f 22 41 40
f 22 40 39
f 22 39 38
f 22 38 36
f 22 36 23
f 23 36 25
f 25 36 26
f 26 36 27
f 27 36 28
f 28 37 29
f 28 36 37
f 31 38 39
f 31 39 32
f 31 37 36
f 31 36 38
f 32 39 40
f 32 40 41
f 32 41 42
f 32 42 43
f 32 43 44
f 32 44 33
f 34 46 35
f 34 47 46
f 45 46 47

