# https://github.com/mikedh/trimesh
v -0.01515431 0.04302699 -0.01935131
v -0.01187135 0.04302699 -0.01962034
v -0.01515431 0.04302699 -0.01561333
v -0.01515431 0.04843462 -0.01971250
v -0.01067125 0.04302699 -0.01971101
v -0.00947116 0.04302699 -0.01549526
v -0.00734520 0.04379023 -0.01480475
v -0.00855574 0.04384506 -0.01480475
v -0.01067517 0.04395904 -0.01480475
v -0.01188833 0.04411198 -0.01480475
v -0.01515431 0.04456358 -0.01480475
v -0.01515431 0.04962638 -0.01970404
v -0.00536289 0.05624740 -0.01989385
v -0.00536289 0.05608869 -0.01989385
v -0.01067125 0.04362575 -0.01971948
v -0.00347329 0.04302699 -0.01962831
v -0.00467208 0.05601511 -0.01989435
v -0.00347329 0.04302699 -0.01551817
v -0.00709447 0.04378590 -0.01480475
v -0.01515431 0.05680432 -0.01480475
v -0.01515431 0.05562411 -0.01955258
v -0.01427154 0.05682452 -0.01935031
v -0.01307145 0.05682452 -0.01937871
v -0.01067125 0.05759787 -0.01885511
v -0.00467208 0.05624884 -0.01989435
v -0.00287389 0.04302699 -0.01957351
v -0.00383110 0.05608004 -0.01988139
v -0.00227319 0.05562411 -0.01983706
v -0.00181353 0.05562411 -0.01981812
v -0.00269368 0.04302699 -0.01561931
v -0.00181353 0.04386815 -0.01480475
v -0.01067125 0.05689811 -0.01480475
v -0.01067125 0.05759209 -0.01728130
v -0.01067125 0.05776667 -0.01807493
v -0.01427154 0.05749398 -0.01830360
v -0.01503809 0.05744493 -0.01851533
v -0.01515431 0.05741030 -0.01839875
v -0.01515431 0.05689811 -0.01919687
v -0.01427154 0.05749398 -0.01877390
v -0.01307145 0.05755170 -0.01882870
v -0.00947116 0.05757911 -0.01884614
v -0.00383110 0.05623442 -0.01988139
v -0.00181353 0.04302699 -0.01936377
v -0.00181353 0.05653885 -0.01925466
v -0.00216089 0.04302699 -0.01569154
v -0.00181353 0.04302699 -0.01612199
v -0.00181353 0.05644651 -0.01480475
v -0.00947116 0.05757478 -0.01729475
v -0.00947116 0.05772916 -0.01807493
v -0.01503809 0.05744493 -0.01870764
v -0.01515431 0.05729920 -0.01883020
f 1 2 5
f 1 5 16
f 1 16 26
f 1 26 43
f 1 43 46
f 1 46 45
f 1 45 30
f 1 30 18
f 1 18 6
f 1 6 3
f 1 3 11
f 1 11 20
f 1 20 37
f 1 37 51
f 1 51 38
f 1 38 21
f 1 21 12
f 1 12 4
f 1 4 2
f 2 4 5
f 3 6 7
f 3 7 8
f 3 8 9
f 3 9 10
f 3 10 11
f 4 12 13
f 4 13 14
f 4 14 15
f 4 15 5
f 5 15 17
f 5 17 16
f 6 18 19
f 6 19 7
f 7 19 31
f 7 31 47
f 7 47 32
f 7 32 20
f 7 20 11
f 7 11 10
f 7 10 9
f 7 9 8
f 12 21 13
f 13 21 22
f 13 22 23
f 13 23 24
f 13 24 25
f 13 25 17
f 13 17 14
f 14 17 15
f 16 17 27
f 16 27 28
f 16 28 29
f 16 29 26
f 17 25 42
f 17 42 27
f 18 30 31
f 18 31 19
f 20 32 33
f 20 33 34
f 20 34 35
f 20 35 36
f 20 36 37
f 21 38 22
f 22 38 39
f 22 39 40
f 22 40 24
f 22 24 23
f 24 40 34
f 24 34 41
f 24 41 25
f 25 41 42
f 26 29 43
f 27 42 28
f 28 42 29
f 29 42 44
f 29 44 47
f 29 47 31
f 29 31 46
f 29 46 43
f 30 45 31
f 31 45 46
f 32 48 33
f 32 47 48
f 33 48 34
f 34 48 49
f 34 49 41
f 34 40 39
f 34 39 50
f 34 50 36
f 34 36 35
f 36 50 37
f 37 50 51
f 38 51 39
f 39 51 50
f 41 49 44
f 41 44 42
f 44 49 47
f 47 49 48

