# https://github.com/mikedh/trimesh
v 0.05179686 0.03168209 -0.01695542
v 0.05179686 0.02443980 -0.01733147
v 0.05179686 0.03168209 -0.01896697
v 0.04363869 0.03168209 -0.01577058
v 0.04363869 0.03055311 -0.01551391
v 0.04363869 0.02922481 -0.01529348
v 0.04812788 0.02440991 -0.01663310
v 0.05171620 0.02440991 -0.01732464
v 0.05179686 0.02440991 -0.01734255
v 0.05179686 0.03164152 -0.01901088
v 0.05175933 0.03168209 -0.01900960
v 0.04363869 0.03168209 -0.01948627
v 0.04363869 0.02802607 -0.01541969
v 0.04363869 0.02714623 -0.01564352
v 0.04363869 0.02681594 -0.01572965
v 0.04395815 0.02499148 -0.01625108
v 0.04363869 0.02497582 -0.01624170
v 0.04692911 0.02440991 -0.01663565
v 0.05179686 0.02440991 -0.01938181
v 0.05179686 0.03160308 -0.01902112
v 0.05171700 0.03168209 -0.01902240
v 0.04363869 0.03131550 -0.01952294
v 0.04807118 0.03168209 -0.01936988
v 0.04363869 0.02562573 -0.01605922
v 0.04363869 0.02467115 -0.01648344
v 0.04363869 0.02440991 -0.01673670
v 0.05179686 0.02682590 -0.01941081
v 0.05048549 0.02440991 -0.01964914
v 0.05179686 0.03042498 -0.01928929
v 0.05052782 0.03168209 -0.01927054
v 0.04363869 0.02922481 -0.01959073
v 0.05052782 0.02922481 -0.01950930
v 0.04452839 0.03042498 -0.01954937
v 0.04363869 0.02440991 -0.01934515
v 0.05179686 0.02915648 -0.01941422
v 0.04936978 0.02440991 -0.01963805
v 0.05052782 0.02802607 -0.01954639
v 0.05179686 0.02922481 -0.01941422
v 0.04363869 0.02562573 -0.01949565
v 0.04363869 0.02531608 -0.01945856
f 1 2 9
f 1 9 19
f 1 19 27
f 1 27 35
f 1 35 38
f 1 38 29
f 1 29 20
f 1 20 10
f 1 10 3
f 1 3 11
f 1 11 21
f 1 21 30
f 1 30 23
f 1 23 12
f 1 12 4
f 1 4 5
f 1 5 6
f 1 6 2
f 2 6 7
f 2 7 8
f 2 8 9
f 3 10 11
f 4 12 22
f 4 22 31
f 4 31 39
f 4 39 40
f 4 40 34
f 4 34 26
f 4 26 25
f 4 25 17
f 4 17 24
f 4 24 15
f 4 15 14
f 4 14 13
f 4 13 6
f 4 6 5
f 6 13 7
f 7 13 14
f 7 14 15
f 7 15 16
f 7 16 17
f 7 17 18
f 7 18 26
f 7 26 34
f 7 34 36
f 7 36 28
f 7 28 19
f 7 19 9
f 7 9 8
f 10 20 21
f 10 21 11
f 12 23 22
f 15 24 16
f 16 24 17
f 17 25 18
f 18 25 26
f 19 28 27
f 20 29 21
f 21 29 30
f 22 23 32
f 22 32 33
f 22 33 31
f 23 30 32
f 27 28 35
f 28 36 31
f 28 31 33
f 28 33 37
f 28 37 38
f 28 38 35
f 29 38 30
f 30 38 32
f 31 36 39
f 32 38 37
f 32 37 33
f 34 40 36
f 36 40 39

