# https://github.com/mikedh/trimesh
v -0.01611097 0.00030283 -0.02232459
v -0.01547133 0.00162648 -0.02237586
v -0.01547133 0.00030283 -0.02234486
v -0.01611097 0.00030283 -0.02090148
v -0.01611097 0.00282554 -0.02236185
v -0.01547133 0.00282554 -0.02240388
v -0.01187142 0.00030283 -0.02245486
v -0.01225073 0.00030283 -0.01950131
v -0.01611097 0.01179064 -0.01956630
v -0.01611097 0.01311283 -0.02208790
v -0.01497025 0.01210140 -0.02231147
v -0.00947102 0.00762618 -0.02254637
v -0.01117580 0.00030283 -0.02235499
v -0.00181493 0.01122482 -0.02252878
v -0.00181493 0.01039516 -0.02242177
v -0.01069292 0.00030283 -0.01950131
v -0.01225073 0.00039078 -0.01950131
v -0.01547133 0.01242535 -0.01950787
v -0.01611097 0.01244294 -0.01955080
v -0.01611097 0.01362441 -0.02206733
v -0.01547133 0.01482494 -0.02208194
v -0.01547133 0.01527495 -0.02205511
v -0.00893775 0.01527495 -0.02228792
v -0.00865222 0.01527495 -0.02229418
v -0.01067192 0.01122482 -0.02244234
v -0.01113661 0.00030283 -0.02228077
v -0.00277509 0.01527495 -0.02234218
v -0.00227261 0.01527495 -0.02234039
v -0.00181493 0.01527495 -0.02231207
v -0.00181493 0.00999938 -0.02167504
v -0.01082448 0.00030283 -0.02167504
v -0.01063413 0.00030283 -0.02035119
v -0.00181493 0.00991583 -0.01950131
v -0.01213036 0.00156199 -0.01950131
v -0.00597889 0.00987918 -0.01950131
v -0.00441828 0.01095804 -0.01950131
v -0.00347211 0.01130398 -0.01950131
v -0.00314739 0.01135968 -0.01950131
v -0.01262024 0.01527495 -0.01951622
v -0.01142354 0.00364495 -0.01950131
v -0.01059634 0.00522659 -0.01950131
v -0.01020304 0.00596831 -0.01950131
v -0.00792301 0.00847344 -0.01950131
v -0.01480509 0.01527495 -0.01967690
v -0.01506823 0.01527495 -0.01969687
v -0.01611097 0.01295012 -0.01964261
v -0.01611097 0.01506533 -0.02196836
v -0.01611097 0.01527495 -0.02195376
v -0.00181493 0.01527495 -0.02081294
v -0.00181493 0.00987185 -0.02047520
v -0.01062573 0.00030283 -0.02047520
v -0.00181493 0.00988944 -0.02001672
v -0.00181493 0.01143151 -0.01950131
v -0.01191621 0.01527495 -0.01957703
v -0.01611097 0.01527495 -0.02026981
v -0.01611097 0.01330486 -0.01971147
f 1 2 3
f 1 3 7
f 1 7 13
f 1 13 26
f 1 26 31
f 1 31 51
f 1 51 32
f 1 32 16
f 1 16 8
f 1 8 4
f 1 4 9
f 1 9 19
f 1 19 46
f 1 46 56
f 1 56 55
f 1 55 48
f 1 48 47
f 1 47 20
f 1 20 10
f 1 10 5
f 1 5 6
f 1 6 2
f 2 7 3
f 2 6 7
f 4 8 9
f 5 10 11
f 5 11 6
f 6 12 7
f 6 11 12
f 7 12 14
f 7 14 15
f 7 15 13
f 8 16 33
f 8 33 53
f 8 53 38
f 8 38 37
f 8 37 36
f 8 36 35
f 8 35 43
f 8 43 42
f 8 42 41
f 8 41 40
f 8 40 34
f 8 34 17
f 8 17 18
f 8 18 19
f 8 19 9
f 10 20 11
f 11 20 21
f 11 21 22
f 11 22 23
f 11 23 24
f 11 24 25
f 11 25 12
f 12 25 14
f 13 15 26
f 14 25 24
f 14 24 27
f 14 27 28
f 14 28 29
f 14 29 49
f 14 49 53
f 14 53 33
f 14 33 52
f 14 52 50
f 14 50 30
f 14 30 15
f 15 30 31
f 15 31 26
f 16 32 33
f 17 34 18
f 18 35 36
f 18 36 37
f 18 37 38
f 18 38 39
f 18 39 19
f 18 34 40
f 18 40 41
f 18 41 42
f 18 42 43
f 18 43 35
f 19 39 44
f 19 44 45
f 19 45 46
f 20 47 22
f 20 22 21
f 22 47 48
f 22 48 55
f 22 55 45
f 22 45 44
f 22 44 39
f 22 39 54
f 22 54 49
f 22 49 29
f 22 29 28
f 22 28 27
f 22 27 24
f 22 24 23
f 30 50 51
f 30 51 31
f 32 51 33
f 33 51 52
f 38 53 39
f 39 53 54
f 45 55 56
f 45 56 46
f 49 54 53
f 50 52 51

