# https://github.com/mikedh/trimesh
v -0.00107240 -0.00677496 -0.01446855
v -0.00016268 -0.00677496 -0.01447058
v -0.00227227 -0.00557476 -0.01449030
v -0.00467155 -0.00437547 -0.01451155
v -0.00347168 -0.00557476 -0.01450346
v -0.00483010 -0.01037374 -0.01464661
v -0.00016268 -0.00568187 -0.01473007
v -0.00483010 -0.00320914 -0.01469365
v -0.00016268 -0.01132859 -0.01483276
v -0.00483010 -0.00437822 -0.01454949
v -0.00483010 -0.01140549 -0.01484338
v -0.00467155 -0.01142563 -0.01483883
v -0.00016268 -0.00568187 -0.01536794
v -0.00483010 -0.00296837 -0.01476750
v -0.00370745 -0.01232097 -0.01595877
v -0.00016268 -0.01170302 -0.01567549
v -0.00483010 -0.01200147 -0.01560923
v -0.00476613 -0.01203443 -0.01560569
v -0.00442893 -0.01232097 -0.01595877
v -0.00483010 -0.00296837 -0.01532241
v -0.00016268 -0.01043873 -0.01963574
v -0.00370745 -0.01232097 -0.01663508
v -0.00166960 -0.01217450 -0.01867362
v -0.00016268 -0.01190717 -0.01963574
v -0.00442893 -0.01232097 -0.01663508
v -0.00483010 -0.01172865 -0.01698411
v -0.00483010 -0.00916529 -0.01963574
v -0.00166960 -0.01217450 -0.01867716
v -0.00112449 -0.01197309 -0.01963574
v -0.00272782 -0.01170485 -0.01963574
v -0.00220739 -0.01184767 -0.01963574
v -0.00167371 -0.01217450 -0.01867716
v -0.00483010 -0.01064197 -0.01963574
v -0.00168376 -0.01191541 -0.01963574
f 1 2 3
f 1 3 4
f 1 4 5
f 1 5 6
f 1 6 2
f 2 7 8
f 2 8 3
f 2 6 9
f 2 9 16
f 2 16 24
f 2 24 21
f 2 21 13
f 2 13 7
f 3 8 4
f 4 8 10
f 4 10 6
f 4 6 5
f 6 11 12
f 6 12 9
f 6 10 8
f 6 8 14
f 6 14 20
f 6 20 27
f 6 27 33
f 6 33 26
f 6 26 17
f 6 17 11
f 7 13 20
f 7 20 14
f 7 14 8
f 9 12 15
f 9 15 16
f 11 17 18
f 11 18 12
f 12 18 19
f 12 19 15
f 13 21 20
f 15 19 25
f 15 25 22
f 15 22 28
f 15 28 23
f 15 23 16
f 16 23 24
f 17 25 19
f 17 19 18
f 17 26 25
f 20 21 27
f 21 24 29
f 21 29 34
f 21 34 31
f 21 31 30
f 21 30 33
f 21 33 27
f 22 25 32
f 22 32 28
f 23 28 24
f 24 28 29
f 25 30 31
f 25 31 32
f 25 26 33
f 25 33 30
f 28 32 29
f 29 32 34
f 31 34 32

