# https://github.com/mikedh/trimesh
v -0.00039201 -0.02631338 0.04414032
v -0.01048275 -0.02491588 0.04414032
v -0.00039201 -0.02736790 0.04414032
v -0.00039201 -0.02363510 0.03261495
v -0.01048275 -0.02731519 0.04414032
v -0.01048275 -0.02434476 0.04072466
v -0.00347277 -0.02744432 0.04414032
v -0.00039201 -0.02727302 0.03592511
v -0.00039201 -0.02363510 0.03146191
v -0.01048275 -0.02363510 0.03427810
v -0.00965602 -0.02745825 0.04414032
v -0.01048275 -0.02733025 0.04331371
v -0.00467287 -0.02746842 0.04414032
v -0.00107256 -0.02727754 0.03592511
v -0.00107256 -0.02700572 0.03146191
v -0.00073673 -0.02699932 0.03146191
v -0.00039201 -0.02698539 0.03146191
v -0.01048275 -0.02363510 0.03146191
v -0.00947131 -0.02748084 0.04414032
v -0.01048275 -0.02725382 0.03952446
v -0.00227267 -0.02728356 0.03592511
v -0.00947131 -0.02703396 0.03146191
v -0.01048275 -0.02700986 0.03146191
v -0.01048275 -0.02719886 0.03712531
v -0.00947131 -0.02728884 0.03592511
v -0.00947131 -0.02722333 0.03472491
v -0.01033558 -0.02701739 0.03146191
f 1 2 5
f 1 5 11
f 1 11 19
f 1 19 13
f 1 13 7
f 1 7 3
f 1 3 8
f 1 8 17
f 1 17 9
f 1 9 4
f 1 4 2
f 2 4 6
f 2 6 10
f 2 10 18
f 2 18 23
f 2 23 24
f 2 24 20
f 2 20 12
f 2 12 5
f 3 7 8
f 4 9 18
f 4 18 10
f 4 10 6
f 5 12 11
f 7 13 8
f 8 13 14
f 8 14 15
f 8 15 16
f 8 16 17
f 9 17 16
f 9 16 15
f 9 15 22
f 9 22 27
f 9 27 23
f 9 23 18
f 11 12 20
f 11 20 19
f 13 19 21
f 13 21 14
f 14 21 15
f 15 21 22
f 19 20 24
f 19 24 25
f 19 25 21
f 21 25 26
f 21 26 22
f 22 26 27
f 23 27 25
f 23 25 24
f 25 27 26

