# https://github.com/mikedh/trimesh
v -0.05867120 0.03162494 -0.02139926
v -0.05992497 0.03039776 -0.02118903
v -0.06051886 0.03077943 -0.02110597
v -0.05985018 0.03154967 -0.02121672
v -0.05867120 0.03282508 -0.02131312
v -0.05748343 0.03426006 -0.02119621
v -0.05747133 0.03402523 -0.02121262
v -0.05747133 0.03282508 -0.02124236
v -0.05754722 0.03042586 -0.02122493
v -0.05867120 0.03042586 -0.02134491
v -0.05956094 0.02948705 -0.02112545
v -0.06054416 0.02884510 -0.02009587
v -0.06051886 0.03109908 -0.02110597
v -0.06036049 0.02997951 -0.02089267
v -0.05940697 0.03282508 -0.02115929
v -0.05852273 0.03426006 -0.02115725
v -0.05761100 0.03426006 -0.02119416
v -0.05679276 0.03426006 -0.02110494
v -0.05679276 0.03402523 -0.02110700
v -0.05736905 0.03167901 -0.02121364
v -0.05767699 0.02922571 -0.02116545
v -0.04930975 0.02946320 -0.01935957
v -0.04930975 0.02922571 -0.01934624
v -0.05776937 0.02884510 -0.02113673
v -0.05838306 0.02884510 -0.02114802
v -0.05859092 0.02884510 -0.02114802
v -0.05873719 0.02914249 -0.02117775
v -0.05925520 0.02884510 -0.02104239
v -0.06054416 0.02884510 -0.01978207
v -0.06052766 0.03039776 -0.02048555
v -0.05991067 0.02884510 -0.02069475
v -0.06051996 0.03110120 -0.02047427
v -0.05928819 0.03347711 -0.02109161
v -0.05852053 0.03426006 -0.02057477
v -0.05928819 0.03347711 -0.02101778
v -0.04930975 0.03426006 -0.01932368
v -0.04930975 0.03407188 -0.01934932
v -0.04930975 0.03402523 -0.01935547
v -0.05761320 0.02884510 -0.02110392
v -0.04930975 0.02884510 -0.01930727
v -0.06050676 0.03042586 -0.01984770
v -0.05926619 0.02884510 -0.01277187
v -0.06048916 0.03105297 -0.01986308
v -0.05664208 0.03425741 -0.01447520
v -0.05663988 0.03426006 -0.01447622
v -0.05839296 0.03148446 -0.01327538
v -0.05794864 0.03208401 -0.01327538
v -0.04930975 0.03426006 -0.01745320
v -0.04930975 0.02884510 -0.01649642
v -0.05915182 0.02884510 -0.01249089
v -0.05824338 0.03127614 -0.01241808
v -0.05889556 0.03042586 -0.01327538
v -0.05694233 0.03352906 -0.01373172
v -0.05612848 0.03426006 -0.01356355
v -0.04930975 0.03419274 -0.01738860
v -0.05175460 0.03426006 -0.01467209
v -0.04930975 0.02898770 -0.01646976
v -0.05378812 0.02884510 -0.01198943
v -0.05899124 0.02884510 -0.01224683
v -0.05837096 0.03035482 -0.01204173
v -0.05810041 0.02990742 -0.01145105
v -0.05783316 0.03070734 -0.01161820
v -0.05748563 0.03161010 -0.01203250
v -0.05713699 0.03247734 -0.01244782
v -0.05599981 0.03426006 -0.01351022
v -0.04930975 0.03398282 -0.01718862
v -0.04930975 0.03282508 -0.01678869
v -0.04930975 0.03372095 -0.01709428
v -0.05244637 0.03426006 -0.01420037
v -0.05453928 0.02970969 -0.01150950
v -0.05438531 0.02890977 -0.01141516
v -0.05437651 0.02884510 -0.01140901
v -0.04930975 0.02915044 -0.01648207
v -0.04930975 0.02922571 -0.01648822
v -0.05888237 0.02884510 -0.01208275
v -0.05845675 0.02884510 -0.01152181
v -0.05820599 0.02922571 -0.01136901
v -0.05747133 0.02922571 -0.01109726
v -0.05744823 0.03035482 -0.01134338
v -0.05703361 0.03114520 -0.01141926
v -0.05627145 0.03267348 -0.01232271
v -0.05508038 0.03426006 -0.01335024
v -0.05304466 0.03426006 -0.01379530
v -0.05475154 0.03042586 -0.01162948
v -0.05557639 0.03110756 -0.01144182
v -0.05534983 0.03042586 -0.01136901
v -0.05499129 0.02927607 -0.01126134
v -0.05501879 0.02884510 -0.01117314
v -0.05443590 0.02884510 -0.01138542
v -0.05826648 0.02884510 -0.01132594
v -0.05747133 0.02884510 -0.01103060
v -0.05665198 0.02884510 -0.01095164
v -0.05627145 0.02922571 -0.01098241
v -0.05627145 0.03042586 -0.01122237
v -0.05627145 0.03117648 -0.01140798
v -0.05627145 0.03177602 -0.01172280
v -0.05483732 0.03426006 -0.01332256
v -0.05319863 0.03426006 -0.01374711
v -0.05627145 0.02884510 -0.01092395
f 1 2 3
f 1 3 4
f 1 4 5
f 1 5 6
f 1 6 7
f 1 7 8
f 1 8 9
f 1 9 10
f 1 10 2
f 2 11 3
f 2 10 11
f 3 12 13
f 3 13 4
f 3 11 14
f 3 14 12
f 4 13 15
f 4 15 5
f 5 16 17
f 5 17 6
f 5 15 16
f 6 17 16
f 6 16 34
f 6 34 45
f 6 45 54
f 6 54 65
f 6 65 82
f 6 82 97
f 6 97 98
f 6 98 83
f 6 83 69
f 6 69 56
f 6 56 48
f 6 48 36
f 6 36 18
f 6 18 7
f 7 18 8
f 8 18 19
f 8 19 20
f 8 20 9
f 9 21 10
f 9 20 22
f 9 22 23
f 9 23 21
f 10 21 24
f 10 24 25
f 10 25 26
f 10 26 27
f 10 27 11
f 11 28 14
f 11 27 26
f 11 26 28
f 12 29 30
f 12 30 13
f 12 14 31
f 12 31 28
f 12 28 26
f 12 26 25
f 12 25 24
f 12 24 39
f 12 39 40
f 12 40 49
f 12 49 58
f 12 58 72
f 12 72 89
f 12 89 88
f 12 88 99
f 12 99 92
f 12 92 91
f 12 91 90
f 12 90 76
f 12 76 75
f 12 75 59
f 12 59 50
f 12 50 42
f 12 42 29
f 13 30 32
f 13 32 33
f 13 33 15
f 14 28 31
f 15 33 16
f 16 33 35
f 16 35 34
f 18 36 37
f 18 37 38
f 18 38 19
f 19 38 22
f 19 22 20
f 21 39 24
f 21 23 40
f 21 40 39
f 22 38 37
f 22 37 36
f 22 36 48
f 22 48 55
f 22 55 66
f 22 66 68
f 22 68 67
f 22 67 74
f 22 74 73
f 22 73 57
f 22 57 49
f 22 49 40
f 22 40 23
f 29 41 32
f 29 32 30
f 29 42 41
f 32 41 43
f 32 43 35
f 32 35 33
f 34 35 44
f 34 44 45
f 35 43 46
f 35 46 47
f 35 47 44
f 41 42 43
f 42 50 51
f 42 51 52
f 42 52 43
f 43 52 46
f 44 53 54
f 44 54 45
f 44 47 53
f 46 51 47
f 46 52 51
f 47 51 53
f 48 56 55
f 49 57 58
f 50 59 60
f 50 60 51
f 51 60 61
f 51 61 62
f 51 62 63
f 51 63 64
f 51 64 53
f 53 64 54
f 54 64 65
f 55 56 66
f 56 67 68
f 56 68 66
f 56 69 70
f 56 70 71
f 56 71 72
f 56 72 67
f 57 73 58
f 58 73 74
f 58 74 67
f 58 67 72
f 59 75 60
f 60 75 61
f 61 75 76
f 61 76 77
f 61 77 78
f 61 78 79
f 61 79 80
f 61 80 62
f 62 80 63
f 63 80 64
f 64 80 81
f 64 81 65
f 65 81 82
f 69 83 70
f 70 84 85
f 70 85 86
f 70 86 87
f 70 87 71
f 70 83 84
f 71 87 88
f 71 88 89
f 71 89 72
f 76 90 77
f 77 90 91
f 77 91 78
f 78 91 92
f 78 92 93
f 78 93 80
f 78 80 79
f 80 93 94
f 80 94 95
f 80 95 96
f 80 96 81
f 81 96 97
f 81 97 82
f 83 98 85
f 83 85 84
f 85 98 97
f 85 97 96
f 85 96 95
f 85 95 94
f 85 94 93
f 85 93 86
f 86 88 87
f 86 93 88
f 88 93 99
f 92 99 93

