# https://github.com/mikedh/trimesh
v -0.05105560 -0.02296847 -0.01941828
v -0.05105560 -0.02195924 -0.02245212
v -0.05027196 -0.02199774 -0.02248584
v -0.05027196 -0.02225742 -0.02167399
v -0.04726161 -0.02296847 -0.01941204
v -0.05105560 -0.02296847 -0.01202541
v -0.05105560 -0.02146035 -0.02261324
v -0.05105560 -0.02117446 -0.02270067
v -0.05027196 -0.02117446 -0.02273689
v -0.04938498 -0.02192156 -0.02241340
v -0.04632180 -0.02296847 -0.01936832
v -0.05093233 -0.02296847 -0.01209286
v -0.04632180 -0.02250891 -0.01327567
v -0.04632180 -0.02213454 -0.01233392
v -0.05105560 -0.02208457 -0.01114236
v -0.05105560 -0.01637487 -0.02276062
v -0.04907171 -0.01757497 -0.02283931
v -0.04787239 -0.01877507 -0.02275188
v -0.04780380 -0.02003170 -0.02255704
v -0.04901981 -0.02123344 -0.02255079
v -0.04815832 -0.02087300 -0.02243089
v -0.04632180 -0.02296847 -0.01771589
v -0.04715178 -0.01966962 -0.02240716
v -0.04712582 -0.01877507 -0.02243713
v -0.04632180 -0.02153982 -0.01952195
v -0.04632180 -0.02125638 -0.01171816
v -0.05105560 -0.02189124 -0.01099623
v -0.05027196 -0.01637487 -0.02275938
v -0.05105560 -0.01566218 -0.02240091
v -0.05027196 -0.01562368 -0.02243464
v -0.04905966 -0.01632817 -0.02257327
v -0.04785246 -0.01760200 -0.02258202
v -0.04719765 -0.01801979 -0.02235969
v -0.04632180 -0.01460052 -0.01949197
v -0.04632180 -0.01632162 -0.01959314
v -0.04632180 -0.01757497 -0.01963811
v -0.04632180 -0.01877507 -0.01964061
v -0.04632180 -0.01878327 -0.01964061
v -0.04632180 -0.02068131 -0.01143213
v -0.05105560 -0.02122689 -0.01097375
v -0.04667214 -0.01997436 -0.01115485
v -0.04824127 -0.01728006 -0.01020436
v -0.04866854 -0.01728006 -0.01020436
v -0.04877420 -0.01637487 -0.01013566
v -0.04945171 -0.01567610 -0.02237343
v -0.05105560 -0.01460052 -0.01993787
v -0.05027196 -0.01460052 -0.02001780
v -0.04954671 -0.01460052 -0.01997784
v -0.04823941 -0.01669763 -0.02246336
v -0.04632180 -0.01460052 -0.01064151
v -0.04632180 -0.01993913 -0.01122480
v -0.05105560 -0.02072800 -0.01097000
v -0.04874500 -0.01517476 -0.01009070
v -0.04803273 -0.01637487 -0.01013566
v -0.04667214 -0.01877507 -0.01090380
v -0.04632180 -0.01877507 -0.01099623
v -0.05105560 -0.01460052 -0.01370033
v -0.04720322 -0.01460052 -0.01024808
v -0.04632180 -0.01518623 -0.01065775
v -0.04869820 -0.01460052 -0.01010444
v -0.04832793 -0.01460052 -0.01008071
v -0.04721990 -0.01480285 -0.01025557
v -0.04777924 -0.01519115 -0.01011568
v -0.04782419 -0.01460052 -0.01009320
v -0.04632180 -0.01757497 -0.01087258
v -0.04747432 -0.01460052 -0.01016939
v -0.04632180 -0.01637487 -0.01075892
f 1 2 3
f 1 3 4
f 1 4 5
f 1 5 11
f 1 11 22
f 1 22 12
f 1 12 6
f 1 6 15
f 1 15 27
f 1 27 40
f 1 40 52
f 1 52 57
f 1 57 46
f 1 46 29
f 1 29 16
f 1 16 8
f 1 8 7
f 1 7 2
f 2 7 3
f 3 7 8
f 3 8 9
f 3 9 10
f 3 10 11
f 3 11 5
f 3 5 4
f 6 12 13
f 6 13 14
f 6 14 15
f 8 16 17
f 8 17 9
f 9 17 18
f 9 18 19
f 9 19 20
f 9 20 10
f 10 20 21
f 10 21 11
f 11 21 23
f 11 23 24
f 11 24 25
f 11 25 38
f 11 38 37
f 11 37 36
f 11 36 35
f 11 35 34
f 11 34 50
f 11 50 59
f 11 59 67
f 11 67 65
f 11 65 56
f 11 56 51
f 11 51 39
f 11 39 26
f 11 26 14
f 11 14 13
f 11 13 22
f 12 22 13
f 14 26 27
f 14 27 15
f 16 28 17
f 16 29 30
f 16 30 28
f 17 28 31
f 17 31 32
f 17 32 18
f 18 32 24
f 18 24 23
f 18 23 19
f 19 23 21
f 19 21 20
f 24 32 33
f 24 33 34
f 24 34 35
f 24 35 36
f 24 36 37
f 24 37 38
f 24 38 25
f 26 39 27
f 27 39 41
f 27 41 42
f 27 42 43
f 27 43 44
f 27 44 40
f 28 30 45
f 28 45 31
f 29 46 30
f 30 46 47
f 30 47 48
f 30 48 34
f 30 34 45
f 31 45 49
f 31 49 32
f 32 49 33
f 33 49 34
f 34 49 45
f 34 48 47
f 34 47 46
f 34 46 57
f 34 57 60
f 34 60 61
f 34 61 64
f 34 64 66
f 34 66 58
f 34 58 50
f 39 51 41
f 40 44 53
f 40 53 52
f 41 51 42
f 42 54 44
f 42 44 43
f 42 51 55
f 42 55 56
f 42 56 54
f 44 54 53
f 50 58 59
f 51 56 55
f 52 53 60
f 52 60 57
f 53 54 61
f 53 61 60
f 54 62 63
f 54 63 64
f 54 64 61
f 54 56 62
f 56 65 62
f 58 66 63
f 58 63 62
f 58 62 59
f 59 62 67
f 62 65 67
f 63 66 64

