# https://github.com/mikedh/trimesh
v 0.01648419 -0.01379414 0.01552483
v 0.01647573 -0.01379414 0.01530763
v 0.01647291 -0.01379414 0.01568201
v 0.01702245 -0.01626946 0.01568201
v 0.01640246 -0.01379414 0.01464866
v 0.01702245 -0.01628295 0.01562146
v -0.00942303 -0.01379414 0.01568201
v 0.01702245 -0.02058727 0.01568201
v 0.01620237 -0.01397630 0.01406183
v 0.01603610 -0.01379414 0.01386411
v 0.01702245 -0.01681796 0.01476872
v 0.01702245 -0.01757357 0.01435959
v -0.00945403 -0.01379414 0.01567832
v -0.01176773 -0.01573243 0.01568201
v 0.01702245 -0.02058727 0.01541084
v 0.01260642 -0.02068577 0.01568201
v 0.01550347 -0.01379414 0.01299241
v 0.01702245 -0.01884125 0.01401181
v -0.01176773 -0.01379414 0.01310904
v -0.01176773 -0.01790618 0.01568201
v 0.01605583 -0.02058727 0.01530869
v 0.01638273 -0.01939717 0.01370878
v 0.01702245 -0.01967715 0.01429956
v 0.01333632 -0.02058727 0.01536977
v 0.01454248 -0.02058727 0.01523945
v -0.01176773 -0.01787042 0.01552483
v -0.01176773 -0.01731181 0.01425454
v -0.01066865 -0.01711683 0.01360163
v 0.01550911 -0.01384474 0.01299241
v -0.01176773 -0.01379414 0.01299241
v 0.01702245 -0.01900789 0.01400917
v 0.01572610 -0.01940594 0.01370299
v 0.01087889 -0.01755806 0.01299241
v 0.01194979 -0.01740626 0.01299241
v 0.01276987 -0.01703789 0.01299241
v 0.01510329 -0.01454908 0.01299241
v 0.01510048 -0.01939245 0.01371088
v -0.01176773 -0.01689959 0.01377091
v -0.01176773 -0.01634569 0.01315485
v -0.01176773 -0.01616691 0.01299241
v -0.01063765 -0.01634434 0.01299241
v -0.01055593 -0.01635244 0.01299241
v -0.00977248 -0.01715596 0.01356766
v 0.00972627 -0.01754928 0.01299241
f 1 2 5
f 1 5 10
f 1 10 17
f 1 17 30
f 1 30 19
f 1 19 13
f 1 13 7
f 1 7 3
f 1 3 4
f 1 4 2
f 2 4 6
f 2 6 5
f 3 7 14
f 3 14 20
f 3 20 16
f 3 16 8
f 3 8 4
f 4 8 15
f 4 15 23
f 4 23 31
f 4 31 18
f 4 18 12
f 4 12 11
f 4 11 6
f 5 9 10
f 5 6 11
f 5 11 12
f 5 12 9
f 7 13 14
f 8 16 15
f 9 12 17
f 9 17 10
f 12 18 17
f 13 19 14
f 14 19 30
f 14 30 40
f 14 40 39
f 14 39 38
f 14 38 27
f 14 27 26
f 14 26 20
f 15 16 21
f 15 21 22
f 15 22 23
f 16 24 25
f 16 25 21
f 16 20 26
f 16 26 27
f 16 27 28
f 16 28 24
f 17 18 29
f 17 29 36
f 17 36 35
f 17 35 34
f 17 34 33
f 17 33 44
f 17 44 42
f 17 42 41
f 17 41 40
f 17 40 30
f 18 31 29
f 21 25 22
f 22 31 23
f 22 25 32
f 22 32 33
f 22 33 34
f 22 34 35
f 22 35 36
f 22 36 29
f 22 29 31
f 24 28 25
f 25 28 37
f 25 37 32
f 27 38 28
f 28 38 39
f 28 39 40
f 28 40 41
f 28 41 42
f 28 42 43
f 28 43 37
f 32 37 44
f 32 44 33
f 37 43 42
f 37 42 44

