# https://github.com/mikedh/trimesh
v 0.02536494 0.00030284 -0.02111489
v 0.03221792 0.00030284 -0.02073758
v 0.02536494 0.00030284 -0.01696122
v 0.02536494 0.00057203 -0.02115153
v 0.03221792 0.00030284 -0.01675671
v 0.03221792 0.00073621 -0.02077039
v 0.02820341 0.00030284 -0.01621043
v 0.02536494 0.00030580 -0.01682561
v 0.02536494 0.00162957 -0.02122972
v 0.02952637 0.00030284 -0.01626457
v 0.03221792 0.00042560 -0.01674413
v 0.02972025 0.00075248 -0.01620168
v 0.03221792 0.00162662 -0.02082999
v 0.02886891 0.00030284 -0.01618255
v 0.03221792 0.01242538 -0.01573032
v 0.02820072 0.00042560 -0.01620934
v 0.02536494 0.00402569 -0.01652103
v 0.02536494 0.01541017 -0.02131667
v 0.03221792 0.01541017 -0.02111216
v 0.02891185 0.00030284 -0.01618255
v 0.02895680 0.00038123 -0.01617817
v 0.03221792 0.01345778 -0.01600811
v 0.02536494 0.01541017 -0.01768959
v 0.02536494 0.01473275 -0.01757421
v 0.02652823 0.01242538 -0.01694044
v 0.02536494 0.01126135 -0.01701973
v 0.02536494 0.01122437 -0.01701700
v 0.02652823 0.00402569 -0.01638213
v 0.03221792 0.01541017 -0.01684201
v 0.03221792 0.01482445 -0.01657516
v 0.03132767 0.01541017 -0.01693989
v 0.02536494 0.01252153 -0.01720456
f 1 2 5
f 1 5 10
f 1 10 20
f 1 20 14
f 1 14 7
f 1 7 3
f 1 3 8
f 1 8 17
f 1 17 27
f 1 27 26
f 1 26 32
f 1 32 24
f 1 24 23
f 1 23 18
f 1 18 9
f 1 9 4
f 1 4 2
f 2 4 6
f 2 6 13
f 2 13 19
f 2 19 29
f 2 29 30
f 2 30 22
f 2 22 15
f 2 15 11
f 2 11 5
f 3 7 8
f 4 9 6
f 5 11 12
f 5 12 10
f 6 9 13
f 7 14 15
f 7 15 16
f 7 16 17
f 7 17 8
f 9 18 19
f 9 19 13
f 10 12 20
f 11 15 12
f 12 21 20
f 12 15 21
f 14 20 21
f 14 21 15
f 15 22 23
f 15 23 24
f 15 24 25
f 15 25 26
f 15 26 27
f 15 27 17
f 15 17 28
f 15 28 16
f 16 28 17
f 18 23 31
f 18 31 29
f 18 29 19
f 22 30 23
f 23 30 31
f 24 32 25
f 25 32 26
f 29 31 30

