# https://github.com/mikedh/trimesh
v -0.01960932 -0.03365007 -0.01940131
v -0.01427262 -0.03365007 -0.01944984
v -0.01960932 -0.03365007 -0.01781499
v -0.01960932 -0.03165349 -0.01959584
v -0.01307260 -0.03365007 -0.01940875
v -0.01307260 -0.03090363 -0.01959584
v -0.01260863 -0.03084877 -0.01959584
v -0.01818657 -0.03365007 -0.01648307
v -0.01960932 -0.02477523 -0.01596486
v -0.01960932 -0.01882361 -0.01959584
v -0.01260863 -0.03365007 -0.01926667
v -0.01260863 -0.02542907 -0.01959584
v -0.01758622 -0.03365007 -0.01608502
v -0.01960932 -0.02411377 -0.01585762
v -0.01960932 -0.01808442 -0.01761068
v -0.01575637 -0.02159290 -0.01774727
v -0.01463927 -0.02263844 -0.01780912
v -0.01278887 -0.02524922 -0.01959584
v -0.01260863 -0.03365007 -0.01720324
v -0.01260863 -0.02486362 -0.01803769
v -0.01669254 -0.03365007 -0.01588619
v -0.01960932 -0.02291277 -0.01571554
v -0.01960932 -0.02357576 -0.01578443
v -0.01960932 -0.01808137 -0.01760128
v -0.01573375 -0.02150755 -0.01687525
v -0.01260863 -0.02452680 -0.01684159
v -0.01559600 -0.03365007 -0.01604471
v -0.01260863 -0.02674589 -0.01589402
v -0.01593593 -0.03365007 -0.01596251
v -0.01260863 -0.02597317 -0.01574881
v -0.01307260 -0.02597317 -0.01571828
v -0.01427262 -0.02597317 -0.01570106
v -0.01787200 -0.02237477 -0.01560713
v -0.01907134 -0.02237477 -0.01561261
v -0.01960932 -0.02237477 -0.01570028
v -0.01960932 -0.01808137 -0.01732379
v -0.01706399 -0.02042087 -0.01611477
v -0.01260863 -0.02499317 -0.01601848
v -0.01260863 -0.02561958 -0.01583570
v -0.01787200 -0.02117530 -0.01561770
v -0.01907134 -0.02117530 -0.01559773
v -0.01960932 -0.02117530 -0.01568110
v -0.01960932 -0.01846087 -0.01665489
v -0.01840245 -0.01931894 -0.01622397
v -0.01795013 -0.02000174 -0.01602357
v -0.01666718 -0.02119054 -0.01595938
v -0.01907134 -0.01997583 -0.01582592
v -0.01960932 -0.01997583 -0.01583609
v -0.01960932 -0.01896840 -0.01609402
v -0.01907134 -0.01915129 -0.01613943
f 1 2 5
f 1 5 11
f 1 11 19
f 1 19 27
f 1 27 29
f 1 29 21
f 1 21 13
f 1 13 8
f 1 8 3
f 1 3 9
f 1 9 14
f 1 14 23
f 1 23 22
f 1 22 35
f 1 35 42
f 1 42 48
f 1 48 49
f 1 49 43
f 1 43 36
f 1 36 24
f 1 24 15
f 1 15 10
f 1 10 4
f 1 4 2
f 2 4 6
f 2 6 7
f 2 7 5
f 3 8 9
f 4 10 18
f 4 18 12
f 4 12 7
f 4 7 6
f 5 7 11
f 7 12 20
f 7 20 26
f 7 26 38
f 7 38 39
f 7 39 30
f 7 30 28
f 7 28 19
f 7 19 11
f 8 13 9
f 9 13 14
f 10 15 16
f 10 16 17
f 10 17 18
f 12 18 17
f 12 17 20
f 13 21 22
f 13 22 23
f 13 23 14
f 15 24 16
f 16 25 17
f 16 24 25
f 17 25 26
f 17 26 20
f 19 28 27
f 21 29 30
f 21 30 31
f 21 31 32
f 21 32 33
f 21 33 34
f 21 34 22
f 22 34 35
f 24 36 25
f 25 36 37
f 25 37 26
f 26 37 38
f 27 28 30
f 27 30 29
f 30 39 40
f 30 40 31
f 31 40 33
f 31 33 32
f 33 40 41
f 33 41 34
f 34 41 42
f 34 42 35
f 36 43 44
f 36 44 37
f 37 44 45
f 37 45 40
f 37 40 46
f 37 46 38
f 38 46 39
f 39 46 40
f 40 45 47
f 40 47 41
f 41 47 48
f 41 48 42
f 43 49 44
f 44 49 50
f 44 50 45
f 45 50 49
f 45 49 47
f 47 49 48

