# https://github.com/mikedh/trimesh
v -0.00084545 -0.04078571 -0.00988668
v -0.00084545 -0.03942664 -0.00988668
v 0.00012834 -0.04095474 -0.00988668
v -0.00064437 -0.04109208 -0.00936918
v -0.00084545 -0.04093206 -0.00954582
v -0.00084545 -0.03940644 -0.00971470
v 0.01692671 -0.03918490 -0.00967442
v 0.01692671 -0.03921628 -0.00988668
v 0.00012834 -0.04114552 -0.00952257
v 0.00854221 -0.04189124 -0.00988668
v 0.00012834 -0.04135463 -0.00847363
v -0.00077315 -0.04116852 -0.00847363
v -0.00084545 -0.04113775 -0.00837911
v -0.00084545 -0.03940178 -0.00967442
v 0.01812643 -0.03890432 -0.00727439
v 0.01932615 -0.03893571 -0.00727439
v 0.02172785 -0.03939464 -0.00988668
v 0.01092583 -0.04185023 -0.00988668
v 0.01932615 -0.04175608 -0.00847363
v 0.01812643 -0.04178715 0.00112337
v 0.00612921 -0.04180362 0.00232416
v 0.00012834 -0.04172656 -0.00247434
v -0.00084545 -0.04168493 -0.00344737
v -0.00084545 -0.03932317 -0.00870139
v 0.01212782 -0.03871727 0.00427331
v 0.01342695 -0.03871727 0.00466221
v 0.01408668 -0.03871727 0.00516886
v 0.01458374 -0.03871727 0.00582891
v 0.01462667 -0.03871727 0.00592807
v 0.01932615 -0.03886207 0.00112337
v 0.02052587 -0.03889252 0.00112337
v 0.00253004 -0.03908019 -0.00607360
v 0.00372976 -0.03884964 0.00112337
v 0.00253004 -0.03883069 0.00232416
v 0.00972837 -0.03884622 -0.00127665
v 0.01086935 -0.03871727 0.00470094
v 0.02223621 -0.03898045 -0.00367358
v 0.02223621 -0.03913736 -0.00727439
v 0.02223621 -0.03918055 -0.00778259
v 0.02223621 -0.03925232 -0.00847363
v 0.02223621 -0.03941980 -0.00988668
v 0.02193797 -0.03940302 -0.00988668
v 0.01932615 -0.04167126 -0.00988668
v 0.01932615 -0.04171103 -0.00967442
v 0.02172785 -0.04167001 -0.00367358
v 0.02172785 -0.04171444 -0.00007587
v 0.02223621 -0.04162558 0.00403160
v 0.00253004 -0.04157835 0.00472418
v -0.00084545 -0.04169673 -0.00247434
v -0.00084545 -0.03907056 -0.00270055
v 0.00132806 -0.03910536 -0.00607360
v 0.01463119 -0.03871727 0.00594202
v 0.02049424 -0.03886766 0.00594202
v -0.00084545 -0.03879526 0.00594202
v 0.01056660 -0.03871727 0.00592342
v 0.02223621 -0.03898791 -0.00247434
v 0.02223621 -0.04106722 -0.00988668
v 0.02052587 -0.04149228 -0.00988668
v 0.02052587 -0.04151031 -0.00967442
v 0.02223621 -0.04162744 -0.00316537
v 0.02223621 -0.04166753 -0.00007587
v 0.02223621 -0.04148669 0.00532225
v 0.00253004 -0.04125955 0.00568791
v -0.00084545 -0.04109053 0.00542606
v -0.00084545 -0.04123563 0.00484349
v -0.00084545 -0.04126484 0.00472418
v 0.02223621 -0.04130337 0.00592342
v 0.01107269 -0.03871727 0.00594202
v 0.02223621 -0.03919640 0.00594202
v 0.02223621 -0.03906993 0.00232416
v 0.02223621 -0.03902799 0.00112337
v 0.01057111 -0.03871727 0.00594047
v -0.00084545 -0.04059524 0.00594202
v 0.02223621 -0.04119555 -0.00970386
v 0.00253004 -0.04104672 0.00594202
v -0.00084545 -0.04099731 0.00553917
v 0.02223621 -0.04129591 0.00594202
f 1 2 8
f 1 8 17
f 1 17 42
f 1 42 41
f 1 41 57
f 1 57 58
f 1 58 43
f 1 43 18
f 1 18 10
f 1 10 3
f 1 3 4
f 1 4 5
f 1 5 13
f 1 13 23
f 1 23 49
f 1 49 66
f 1 66 65
f 1 65 64
f 1 64 76
f 1 76 73
f 1 73 54
f 1 54 50
f 1 50 24
f 1 24 14
f 1 14 6
f 1 6 2
f 2 6 7
f 2 7 8
f 3 9 4
f 3 10 9
f 4 9 11
f 4 11 12
f 4 12 5
f 5 12 13
f 6 14 7
f 7 15 16
f 7 16 17
f 7 17 8
f 7 14 15
f 9 10 11
f 10 18 19
f 10 19 20
f 10 20 21
f 10 21 22
f 10 22 23
f 10 23 11
f 11 23 12
f 12 23 13
f 14 24 15
f 15 25 26
f 15 26 27
f 15 27 28
f 15 28 29
f 15 29 30
f 15 30 31
f 15 31 16
f 15 24 32
f 15 32 33
f 15 33 34
f 15 34 35
f 15 35 36
f 15 36 25
f 16 31 37
f 16 37 38
f 16 38 39
f 16 39 40
f 16 40 41
f 16 41 42
f 16 42 17
f 18 43 44
f 18 44 19
f 19 44 45
f 19 45 46
f 19 46 20
f 20 46 47
f 20 47 21
f 21 48 49
f 21 49 22
f 21 47 48
f 22 49 23
f 24 50 51
f 24 51 32
f 25 36 55
f 25 55 72
f 25 72 68
f 25 68 52
f 25 52 29
f 25 29 28
f 25 28 27
f 25 27 26
f 29 52 30
f 30 52 31
f 31 52 53
f 31 53 37
f 32 51 34
f 32 34 33
f 34 51 54
f 34 54 36
f 34 36 35
f 36 54 55
f 37 56 71
f 37 71 70
f 37 70 69
f 37 69 77
f 37 77 67
f 37 67 62
f 37 62 47
f 37 47 61
f 37 61 60
f 37 60 74
f 37 74 57
f 37 57 41
f 37 41 40
f 37 40 39
f 37 39 38
f 37 53 56
f 43 58 44
f 44 58 59
f 44 59 60
f 44 60 45
f 45 60 61
f 45 61 46
f 46 61 47
f 47 62 48
f 48 63 64
f 48 64 65
f 48 65 66
f 48 66 49
f 48 62 67
f 48 67 63
f 50 54 51
f 52 68 54
f 52 54 73
f 52 73 75
f 52 75 77
f 52 77 69
f 52 69 53
f 53 69 70
f 53 70 71
f 53 71 56
f 54 72 55
f 54 68 72
f 57 74 58
f 58 74 59
f 59 74 60
f 63 75 76
f 63 76 64
f 63 67 77
f 63 77 75
f 73 76 75

