# https://github.com/mikedh/trimesh
v 0.03453345 0.03285662 0.00290367
v 0.03616638 0.03285662 0.00290367
v 0.02928787 0.03285662 0.00399474
v 0.02928787 0.03811922 0.00290367
v 0.03616638 0.03353420 0.00290367
v 0.03616638 0.03285662 0.01196852
v 0.02928787 0.03285662 0.00827685
v 0.02928787 0.04038662 0.00290367
v 0.03590444 0.03383224 0.00290367
v 0.03552802 0.03582630 0.01132362
v 0.03616638 0.03470001 0.00952460
v 0.03616638 0.03385118 0.01263347
v 0.03616571 0.03285662 0.01199431
v 0.03537315 0.03436821 0.01263730
v 0.02949796 0.03940853 0.01254176
v 0.02928787 0.03969175 0.01258475
v 0.02949998 0.04030017 0.00290367
v 0.02928787 0.04103951 0.00482116
v 0.03476442 0.03511990 0.00290367
v 0.03434760 0.03704480 0.01128063
v 0.03554890 0.03585018 0.01192457
v 0.03450584 0.03540971 0.00290367
v 0.02966024 0.04091601 0.00502084
v 0.03616638 0.03479963 0.01078764
v 0.03616638 0.03397879 0.01263156
v 0.03495498 0.03527139 0.01265927
v 0.03012824 0.03922328 0.01264207
v 0.02928787 0.04003671 0.01264016
v 0.02993430 0.04004659 0.00290367
v 0.02928787 0.04122393 0.00548039
v 0.03309512 0.03818427 0.01192457
v 0.03434760 0.03704480 0.01192457
v 0.03555563 0.03585758 0.01255131
v 0.02972691 0.04095553 0.00592560
v 0.03616638 0.03486961 0.01192457
v 0.03421090 0.03572009 0.00290367
v 0.02928787 0.04126674 0.00592560
v 0.03571724 0.03522611 0.01262965
v 0.03099756 0.03962753 0.01266405
v 0.03005955 0.04002601 0.01264494
v 0.02928787 0.04073241 0.01260959
v 0.03116591 0.03975761 0.01192457
v 0.03433413 0.03703163 0.01252934
v 0.03481155 0.03632523 0.01259526
v 0.02928787 0.04099505 0.01072458
v 0.02975990 0.04078428 0.01072458
v 0.03031611 0.04035781 0.01192457
v 0.03228505 0.03848148 0.01264590
v 0.02961311 0.04066737 0.01256946
v 0.02928787 0.04091436 0.01192457
v 0.02971613 0.04073077 0.01192457
f 1 2 6
f 1 6 13
f 1 13 7
f 1 7 3
f 1 3 4
f 1 4 8
f 1 8 17
f 1 17 29
f 1 29 36
f 1 36 22
f 1 22 19
f 1 19 9
f 1 9 5
f 1 5 2
f 2 5 11
f 2 11 24
f 2 24 35
f 2 35 25
f 2 25 12
f 2 12 6
f 3 7 16
f 3 16 28
f 3 28 41
f 3 41 50
f 3 50 45
f 3 45 37
f 3 37 30
f 3 30 18
f 3 18 8
f 3 8 4
f 5 9 10
f 5 10 11
f 6 12 13
f 7 13 14
f 7 14 15
f 7 15 16
f 8 18 17
f 9 19 10
f 10 20 21
f 10 21 11
f 10 19 22
f 10 22 23
f 10 23 20
f 11 21 24
f 12 25 26
f 12 26 14
f 12 14 13
f 14 26 27
f 14 27 16
f 14 16 15
f 16 27 28
f 17 18 23
f 17 23 29
f 18 30 23
f 20 31 32
f 20 32 33
f 20 33 21
f 20 23 34
f 20 34 31
f 21 33 35
f 21 35 24
f 22 36 23
f 23 30 37
f 23 37 34
f 23 36 29
f 25 33 38
f 25 38 26
f 25 35 33
f 26 39 27
f 26 38 39
f 27 39 28
f 28 39 40
f 28 40 41
f 31 42 43
f 31 43 32
f 31 34 42
f 32 43 33
f 33 43 39
f 33 39 44
f 33 44 38
f 34 37 42
f 37 45 46
f 37 46 47
f 37 47 42
f 38 48 39
f 38 44 48
f 39 48 44
f 39 43 42
f 39 42 49
f 39 49 41
f 39 41 40
f 41 49 50
f 42 47 49
f 45 50 51
f 45 51 46
f 46 51 47
f 47 51 49
f 49 51 50

