# https://github.com/mikedh/trimesh
v -0.01062752 0.00030136 -0.02047516
v -0.01082522 0.00030136 -0.02167499
v -0.01068401 0.00030136 -0.01963574
v -0.00519228 -0.00898600 -0.01963574
v -0.00518381 -0.00898600 -0.01980213
v -0.00518946 -0.00898600 -0.02047516
v -0.01117684 0.00030136 -0.02235494
v -0.01224722 0.00030136 -0.01963574
v -0.00776940 -0.00898600 -0.01963574
v -0.00534903 -0.00898600 -0.02077944
v -0.01187301 0.00030136 -0.02245483
v -0.00597601 -0.00898600 -0.02191997
v -0.00635445 -0.00898600 -0.02227923
v -0.00701674 -0.00898600 -0.02244072
v -0.01224864 -0.00016683 -0.01963574
v -0.01961001 0.00030136 -0.02049560
v -0.01961001 -0.00898600 -0.02039254
v -0.00794450 -0.00883782 -0.01963574
v -0.01187301 -0.00197503 -0.02257631
v -0.01639038 0.00030136 -0.02231809
v -0.00709158 -0.00898600 -0.02244821
v -0.01212155 -0.00122956 -0.01963574
v -0.01961001 0.00030136 -0.02176596
v -0.00922811 -0.00770054 -0.01963574
v -0.00998360 -0.00683326 -0.01963574
v -0.01028156 -0.00639689 -0.01963574
v -0.01055833 -0.00588325 -0.01963574
v -0.01125874 -0.00446051 -0.01963574
v -0.01146067 -0.00403686 -0.01963574
v -0.01165272 -0.00350322 -0.01963574
v -0.01175439 -0.00319867 -0.01963574
v -0.01195209 -0.00233958 -0.01963574
v -0.01961001 -0.00898600 -0.02172911
v -0.00827635 -0.00898600 -0.02255760
v -0.00846133 -0.00898600 -0.02256508
v -0.01187301 -0.00317504 -0.02257314
v -0.01847608 -0.00737963 -0.02227606
v -0.01847608 -0.00736508 -0.02227606
v -0.01664033 -0.00197503 -0.02235868
v -0.01657537 -0.00077501 -0.02234947
v -0.01961001 -0.00077501 -0.02179820
v -0.01961001 -0.00791508 -0.02190759
v -0.01620539 -0.00868782 -0.02230514
v -0.01563913 -0.00898600 -0.02230283
v -0.01961001 -0.00731872 -0.02192602
v -0.01961001 -0.00683144 -0.02193120
f 1 2 7
f 1 7 11
f 1 11 20
f 1 20 23
f 1 23 16
f 1 16 8
f 1 8 3
f 1 3 4
f 1 4 5
f 1 5 6
f 1 6 2
f 2 6 7
f 3 8 15
f 3 15 22
f 3 22 32
f 3 32 31
f 3 31 30
f 3 30 29
f 3 29 28
f 3 28 27
f 3 27 26
f 3 26 25
f 3 25 24
f 3 24 18
f 3 18 9
f 3 9 4
f 4 9 17
f 4 17 33
f 4 33 44
f 4 44 35
f 4 35 34
f 4 34 21
f 4 21 14
f 4 14 13
f 4 13 12
f 4 12 10
f 4 10 6
f 4 6 5
f 6 10 7
f 7 10 12
f 7 12 13
f 7 13 14
f 7 14 11
f 8 16 17
f 8 17 15
f 9 18 17
f 11 14 19
f 11 19 20
f 14 21 19
f 15 17 22
f 16 23 41
f 16 41 46
f 16 46 45
f 16 45 42
f 16 42 33
f 16 33 17
f 17 18 24
f 17 24 25
f 17 25 26
f 17 26 27
f 17 27 28
f 17 28 29
f 17 29 30
f 17 30 31
f 17 31 32
f 17 32 22
f 19 21 34
f 19 34 35
f 19 35 36
f 19 36 37
f 19 37 38
f 19 38 39
f 19 39 40
f 19 40 20
f 20 40 23
f 23 38 41
f 23 40 38
f 33 42 37
f 33 37 43
f 33 43 44
f 35 44 43
f 35 43 37
f 35 37 36
f 37 42 45
f 37 45 46
f 37 46 38
f 38 46 41
f 38 40 39

