# https://github.com/mikedh/trimesh
v 0.01335370 -0.02713851 0.02186858
v 0.01335370 -0.02713212 0.02154987
v 0.01367204 -0.02705971 0.02186858
v 0.01335370 -0.01749536 0.02186858
v 0.01335370 -0.02709592 0.01974883
v 0.01435971 -0.02681693 0.01974883
v 0.01492060 -0.02665294 0.02186858
v 0.01730678 -0.00595467 0.02186858
v 0.01335370 -0.01633256 0.01974883
v 0.01495987 -0.02643359 0.01974883
v 0.01511078 -0.02657202 0.02186858
v 0.01778429 -0.00586096 0.02186858
v 0.01812743 -0.00578855 0.02152476
v 0.01730746 -0.00595041 0.02152476
v 0.01688714 -0.00737942 0.01974883
v 0.01525685 -0.02612266 0.01974883
v 0.02039234 -0.02068773 0.01974883
v 0.02039234 -0.02070264 0.01996068
v 0.02039234 -0.02077079 0.02124714
v 0.02039234 -0.02078144 0.02152476
v 0.02039234 -0.02069199 0.02186858
v 0.01812743 -0.00584392 0.02186858
v 0.02039234 -0.00538178 0.01974883
v 0.01983972 -0.00556706 0.01974883
v 0.01745630 -0.00609309 0.02080559
v 0.01715932 -0.00688533 0.01974883
v 0.02039234 -0.00686404 0.02186858
v 0.02039234 -0.00558410 0.02044871
v 0.01877376 -0.00597383 0.02186858
v 0.01815362 -0.00636143 0.01974883
v 0.01771745 -0.00657866 0.01974883
v 0.02039234 -0.00674264 0.02181193
v 0.01907143 -0.00603772 0.02186858
v 0.02039234 -0.00597809 0.02120439
f 1 2 3
f 1 3 7
f 1 7 11
f 1 11 21
f 1 21 27
f 1 27 33
f 1 33 29
f 1 29 22
f 1 22 12
f 1 12 8
f 1 8 4
f 1 4 9
f 1 9 5
f 1 5 2
f 2 5 3
f 3 5 6
f 3 6 7
f 4 8 9
f 5 9 15
f 5 15 26
f 5 26 31
f 5 31 30
f 5 30 24
f 5 24 23
f 5 23 17
f 5 17 16
f 5 16 10
f 5 10 6
f 6 10 11
f 6 11 7
f 8 12 13
f 8 13 14
f 8 14 9
f 9 14 15
f 10 16 11
f 11 16 17
f 11 17 18
f 11 18 19
f 11 19 20
f 11 20 21
f 12 22 23
f 12 23 13
f 13 23 14
f 14 23 24
f 14 24 25
f 14 25 26
f 14 26 15
f 17 23 28
f 17 28 34
f 17 34 32
f 17 32 27
f 17 27 21
f 17 21 20
f 17 20 19
f 17 19 18
f 22 28 23
f 22 29 28
f 24 30 25
f 25 30 31
f 25 31 26
f 27 32 33
f 28 29 33
f 28 33 34
f 32 34 33

