# https://github.com/mikedh/trimesh
v -0.04431208 -0.04160649 -0.01006221
v -0.04506727 -0.04122871 -0.01011535
v -0.04393889 -0.04236584 -0.01010059
v -0.04344388 -0.04236584 -0.01010059
v -0.04348577 -0.04157353 -0.01012815
v -0.04546471 -0.03920163 -0.01008681
v -0.04546912 -0.04033750 -0.01006812
v -0.04733892 -0.04378441 -0.01360305
v -0.04661625 -0.03906345 -0.01012716
v -0.04617967 -0.03991536 -0.01017145
v -0.04636819 -0.04487211 -0.01367194
v -0.04514665 -0.04607517 -0.01372213
v -0.04424869 -0.04660254 -0.01359321
v -0.04170803 -0.04393274 -0.01080915
v -0.04170803 -0.04391626 -0.01080522
v -0.04170803 -0.04389471 -0.01080325
v -0.04170803 -0.04297308 -0.01074322
v -0.04365170 -0.04093460 -0.01025411
v -0.04475031 -0.03961871 -0.01019507
v -0.04431924 -0.04047062 -0.01011831
v -0.04585995 -0.03833452 -0.01014488
v -0.04733892 -0.04435615 -0.01447596
v -0.04728049 -0.03858933 -0.01026297
v -0.04733892 -0.03801379 -0.01078947
v -0.04667193 -0.03836494 -0.01016849
v -0.04728049 -0.03853609 -0.01026297
v -0.04719119 -0.04449814 -0.01447596
v -0.04495978 -0.04660254 -0.01447596
v -0.04307565 -0.04660254 -0.01330979
v -0.04187230 -0.04660254 -0.01328420
v -0.04170803 -0.04660254 -0.01331864
v -0.04170803 -0.03365159 -0.01544334
v -0.04505955 -0.03881879 -0.01041059
v -0.04478504 -0.03729880 -0.01140946
v -0.04547188 -0.03708836 -0.01120575
v -0.04705338 -0.03607546 -0.01135238
v -0.04733892 -0.03599686 -0.01130613
v -0.04733892 -0.04436376 -0.01474757
v -0.04500113 -0.04660254 -0.01807487
v -0.04170803 -0.04660254 -0.01972620
v -0.04170803 -0.03365159 -0.01942999
v -0.04218375 -0.03365159 -0.01545811
v -0.04733892 -0.03551893 -0.01201961
v -0.04733892 -0.04435362 -0.01806896
v -0.04490466 -0.04660254 -0.01834254
v -0.04733892 -0.04429911 -0.01825988
v -0.04234471 -0.04660254 -0.01988071
v -0.04227085 -0.04637435 -0.01988465
v -0.04170803 -0.04277405 -0.02007950
v -0.04259552 -0.03365159 -0.01939948
v -0.04170803 -0.03558485 -0.01962288
v -0.04354862 -0.03365159 -0.01561458
v -0.04427239 -0.03365159 -0.01584683
v -0.04733892 -0.03365159 -0.01683094
v -0.04642718 -0.04489747 -0.01892317
v -0.04519020 -0.04609292 -0.01887987
v -0.04428727 -0.04660254 -0.01911015
v -0.04733892 -0.04378061 -0.01909539
v -0.04250567 -0.04660254 -0.01988071
v -0.04607494 -0.04337621 -0.01987481
v -0.04170803 -0.04157353 -0.02011493
v -0.04379502 -0.03365159 -0.01931091
v -0.04419577 -0.04038821 -0.01992697
v -0.04511468 -0.04079769 -0.01990335
v -0.04170803 -0.04037427 -0.02004408
v -0.04733892 -0.03365159 -0.01894285
v -0.04416380 -0.04660254 -0.01918002
v -0.04733892 -0.04328874 -0.01938767
v -0.04288051 -0.04660254 -0.01977443
v -0.04733892 -0.04282095 -0.01955792
v -0.04733892 -0.04210596 -0.01972620
v -0.04607494 -0.04336607 -0.01987481
v -0.04307235 -0.04157353 -0.02004506
v -0.04187230 -0.04157353 -0.02010706
v -0.04170803 -0.04053907 -0.02005392
v -0.04499451 -0.03365159 -0.01921250
v -0.04733892 -0.04037427 -0.01962189
v -0.04667193 -0.03365159 -0.01903241
v -0.04733892 -0.04157353 -0.01972030
v -0.04733892 -0.04090671 -0.01967011
v -0.04733892 -0.03437545 -0.01902945
f 1 2 3
f 1 3 4
f 1 4 5
f 1 5 6
f 1 6 7
f 1 7 2
f 2 8 3
f 2 7 9
f 2 9 10
f 2 10 8
f 3 8 11
f 3 11 12
f 3 12 13
f 3 13 14
f 3 14 4
f 4 14 15
f 4 15 16
f 4 16 17
f 4 17 5
f 5 18 19
f 5 19 20
f 5 20 6
f 5 17 18
f 6 20 21
f 6 21 9
f 6 9 7
f 8 22 11
f 8 10 23
f 8 23 24
f 8 24 37
f 8 37 43
f 8 43 54
f 8 54 66
f 8 66 81
f 8 81 77
f 8 77 80
f 8 80 79
f 8 79 71
f 8 71 70
f 8 70 68
f 8 68 58
f 8 58 46
f 8 46 44
f 8 44 38
f 8 38 22
f 9 21 25
f 9 25 26
f 9 26 23
f 9 23 10
f 11 22 12
f 12 22 27
f 12 27 28
f 12 28 13
f 13 28 39
f 13 39 45
f 13 45 57
f 13 57 67
f 13 67 69
f 13 69 59
f 13 59 47
f 13 47 40
f 13 40 31
f 13 31 30
f 13 30 29
f 13 29 14
f 14 29 30
f 14 30 31
f 14 31 40
f 14 40 49
f 14 49 61
f 14 61 75
f 14 75 65
f 14 65 51
f 14 51 41
f 14 41 32
f 14 32 17
f 14 17 16
f 14 16 15
f 17 32 18
f 18 32 19
f 19 32 33
f 19 33 21
f 19 21 20
f 21 33 34
f 21 34 32
f 21 32 35
f 21 35 36
f 21 36 37
f 21 37 25
f 22 38 27
f 23 26 24
f 24 26 37
f 25 37 26
f 27 38 28
f 28 38 39
f 32 41 50
f 32 50 62
f 32 62 76
f 32 76 78
f 32 78 66
f 32 66 54
f 32 54 53
f 32 53 52
f 32 52 42
f 32 42 43
f 32 43 37
f 32 37 36
f 32 36 35
f 32 34 33
f 38 44 39
f 39 44 46
f 39 46 45
f 40 47 48
f 40 48 49
f 41 51 50
f 42 52 43
f 43 52 53
f 43 53 54
f 45 46 55
f 45 55 56
f 45 56 57
f 46 58 55
f 47 59 49
f 47 49 48
f 49 60 61
f 49 59 60
f 50 51 63
f 50 63 64
f 50 64 62
f 51 65 63
f 55 57 56
f 55 58 57
f 57 58 67
f 58 68 67
f 59 69 60
f 60 68 70
f 60 70 71
f 60 71 72
f 60 72 73
f 60 73 74
f 60 74 61
f 60 69 68
f 61 74 63
f 61 63 75
f 62 64 76
f 63 65 75
f 63 74 64
f 64 77 78
f 64 78 76
f 64 74 73
f 64 73 72
f 64 72 79
f 64 79 80
f 64 80 77
f 66 78 81
f 67 68 69
f 71 79 72
f 77 81 78

