# https://github.com/mikedh/trimesh
v -0.02611661 0.03826078 0.00349449
v -0.03347494 0.03587952 0.00349609
v -0.02611661 0.04049904 0.00349449
v -0.01078038 0.03817467 0.00349449
v -0.03347494 0.03587952 0.00890035
v -0.03347494 0.03917926 0.00349609
v -0.02826918 0.03587952 0.00349609
v -0.02610384 0.04051446 0.00349449
v -0.00988295 0.03820975 0.00349449
v -0.03347494 0.03717220 0.01098832
v -0.03172797 0.03587952 0.00893554
v -0.01629913 0.03698617 0.01137937
v -0.03347494 0.03921753 0.00952410
v -0.03305976 0.03965976 0.00349609
v -0.02747075 0.03587952 0.00352328
v -0.00084792 0.03858341 0.00349449
v -0.02545232 0.04097742 0.00349449
v -0.03216870 0.04034596 0.00349609
v -0.03347494 0.03759583 0.01153291
v -0.03157787 0.03587952 0.00892034
v -0.00707248 0.03680704 0.01034618
v -0.01600850 0.03698617 0.01137937
v -0.03347494 0.03918298 0.00975281
v -0.03306933 0.03956887 0.00952410
v -0.02626991 0.03587952 0.00366882
v -0.00084792 0.04038849 0.00349449
v -0.00084792 0.03731465 0.00834457
v -0.00751960 0.03688784 0.00630938
v -0.01422002 0.03665237 0.00473560
v -0.02611661 0.03587952 0.00369281
v -0.02517447 0.04106034 0.00349449
v -0.03227091 0.04009030 0.00712585
v -0.03107007 0.04039274 0.00712585
v -0.03107007 0.04058303 0.00349609
v -0.02986923 0.03904319 0.01166326
v -0.02986923 0.03967571 0.01166326
v -0.03107007 0.03964328 0.01159288
v -0.03347494 0.03794505 0.01151452
v -0.01906808 0.03791741 0.01159209
v -0.02986923 0.03587952 0.00874521
v -0.00587483 0.03683574 0.01030539
v -0.02867159 0.03587952 0.00859807
v -0.02611661 0.03587952 0.00822542
v -0.00492311 0.03691122 0.01023022
v -0.01597975 0.03762613 0.01138737
v -0.01668876 0.03756447 0.01144334
v -0.01787043 0.03782652 0.01154170
v -0.03347494 0.03892625 0.01071963
v -0.03298949 0.03951625 0.01031579
v -0.03227091 0.03992446 0.00952410
v -0.03227091 0.04000950 0.00832378
v -0.00084792 0.03989416 0.00570481
v -0.00707248 0.04114645 0.00349449
v -0.00707248 0.04114113 0.00352568
v -0.00084792 0.03736409 0.00847972
v -0.00258211 0.03699893 0.00899231
v -0.00258211 0.03699893 0.00887876
v -0.00827332 0.03684000 0.00620862
v -0.01240599 0.03665237 0.00536575
v -0.01187583 0.03665237 0.00559206
v -0.01168740 0.03665237 0.00573600
v -0.00587483 0.03683574 0.00957608
v -0.02504033 0.04108798 0.00349449
v -0.03107007 0.04014398 0.00952410
v -0.02386824 0.04130803 0.00352568
v -0.02386824 0.04130910 0.00349449
v -0.01906808 0.03857225 0.01159209
v -0.02867159 0.03964541 0.01162567
v -0.02867159 0.04001482 0.01072363
v -0.02986923 0.04004777 0.01072363
v -0.03107007 0.04000525 0.01072363
v -0.03189724 0.03954495 0.01145614
v -0.03347494 0.03845319 0.01148653
v -0.03346855 0.03845372 0.01148733
v -0.00492311 0.03722589 0.01023022
v -0.00084792 0.03762932 0.00907308
v -0.00084792 0.03779090 0.00907388
v -0.01667279 0.03833519 0.01143135
v -0.01787043 0.03846913 0.01154170
v -0.03347494 0.03891349 0.01076681
v -0.03269887 0.03931055 0.01111547
v -0.03228687 0.03969590 0.01071883
v -0.00084792 0.03963212 0.00662605
v -0.02146976 0.03968846 0.01064606
v -0.02302509 0.03944555 0.01134738
v -0.02386824 0.03947691 0.01138657
v -0.00587483 0.03737259 0.01030539
v -0.00084792 0.03834954 0.00907388
v -0.02222667 0.03938018 0.01130420
v -0.00084792 0.03956355 0.00679798
v -0.00084792 0.03842980 0.00893074
f 1 2 6
f 1 6 3
f 1 3 8
f 1 8 17
f 1 17 31
f 1 31 63
f 1 63 66
f 1 66 53
f 1 53 26
f 1 26 16
f 1 16 9
f 1 9 4
f 1 4 2
f 2 5 10
f 2 10 19
f 2 19 38
f 2 38 73
f 2 73 80
f 2 80 48
f 2 48 23
f 2 23 13
f 2 13 6
f 2 4 7
f 2 7 15
f 2 15 25
f 2 25 30
f 2 30 43
f 2 43 42
f 2 42 40
f 2 40 20
f 2 20 11
f 2 11 5
f 3 6 8
f 4 9 7
f 5 11 12
f 5 12 10
f 6 13 14
f 6 14 8
f 7 9 16
f 7 16 15
f 8 14 18
f 8 18 17
f 10 12 19
f 11 20 21
f 11 21 22
f 11 22 12
f 12 22 19
f 13 23 24
f 13 24 14
f 14 24 18
f 15 16 25
f 16 26 52
f 16 52 83
f 16 83 90
f 16 90 91
f 16 91 88
f 16 88 77
f 16 77 76
f 16 76 55
f 16 55 27
f 16 27 28
f 16 28 29
f 16 29 30
f 16 30 25
f 17 18 31
f 18 32 33
f 18 33 34
f 18 34 31
f 18 24 32
f 19 35 36
f 19 36 37
f 19 37 38
f 19 22 39
f 19 39 35
f 20 40 21
f 21 41 22
f 21 40 42
f 21 42 43
f 21 43 41
f 22 41 44
f 22 44 45
f 22 45 46
f 22 46 47
f 22 47 39
f 23 48 49
f 23 49 24
f 24 49 50
f 24 50 51
f 24 51 32
f 26 53 54
f 26 54 52
f 27 55 56
f 27 56 57
f 27 57 28
f 28 58 59
f 28 59 29
f 28 57 58
f 29 59 30
f 30 59 60
f 30 60 61
f 30 61 57
f 30 57 62
f 30 62 41
f 30 41 43
f 31 34 63
f 32 51 33
f 33 51 50
f 33 50 64
f 33 64 65
f 33 65 34
f 34 65 66
f 34 66 63
f 35 39 67
f 35 67 36
f 36 67 68
f 36 68 69
f 36 69 70
f 36 70 71
f 36 71 37
f 37 71 72
f 37 72 73
f 37 73 74
f 37 74 38
f 38 74 73
f 39 47 79
f 39 79 67
f 41 62 57
f 41 57 56
f 41 56 44
f 44 75 45
f 44 56 76
f 44 76 77
f 44 77 88
f 44 88 75
f 45 78 79
f 45 79 47
f 45 47 46
f 45 75 78
f 48 80 49
f 49 80 81
f 49 81 82
f 49 82 50
f 50 82 71
f 50 71 64
f 52 54 83
f 53 66 65
f 53 65 54
f 54 84 83
f 54 65 70
f 54 70 69
f 54 69 84
f 55 76 56
f 57 61 58
f 58 61 60
f 58 60 59
f 64 71 65
f 65 71 70
f 67 79 85
f 67 85 68
f 68 85 86
f 68 86 84
f 68 84 69
f 71 82 72
f 72 82 81
f 72 81 73
f 73 81 80
f 75 87 78
f 75 88 87
f 78 87 88
f 78 88 79
f 79 89 85
f 79 88 89
f 83 84 90
f 84 86 85
f 84 85 88
f 84 88 91
f 84 91 90
f 85 89 88

