# https://github.com/mikedh/trimesh
v -0.00016226 -0.01193808 -0.01977642
v -0.00006664 -0.01193808 -0.01977642
v 0.00279952 -0.01232365 -0.01646775
v 0.00277132 -0.01231871 -0.01567513
v -0.00016226 -0.01170204 -0.01567513
v -0.00016226 -0.01042792 -0.01977642
v 0.00012827 -0.01193684 -0.01977642
v 0.00372875 -0.01231253 -0.01646619
v 0.00373733 -0.01231006 -0.01566838
v 0.00334382 -0.01221737 -0.01503885
v 0.00298095 -0.01221737 -0.01503885
v -0.00016226 -0.01132759 -0.01483316
v -0.00016226 -0.00568119 -0.01536816
v 0.00497427 0.00030136 -0.01573174
v 0.00552470 0.00030136 -0.01627298
v 0.00967561 0.00030136 -0.01977642
v 0.00132843 -0.01176136 -0.01977642
v 0.00439197 -0.01220996 -0.01633686
v 0.00439197 -0.01220996 -0.01606417
v 0.00414433 -0.01210862 -0.01526376
v 0.00462366 -0.01130782 -0.01493029
v 0.00373733 -0.01165384 -0.01486848
v 0.00256047 -0.01163654 -0.01484667
v 0.00012827 -0.01133130 -0.01482589
v -0.00016226 -0.00677364 -0.01447061
v -0.00016226 -0.00568119 -0.01473032
v 0.00487497 0.00030136 -0.01503106
v 0.01120186 0.00030136 -0.01977642
v 0.00257886 -0.01141781 -0.01977642
v 0.00560561 -0.01108043 -0.01646672
v 0.00496446 -0.01031423 -0.01977642
v 0.00637057 -0.00964813 -0.01977642
v 0.00659001 -0.00951343 -0.01977642
v 0.00719316 -0.00909943 -0.01977642
v 0.00560561 -0.01108043 -0.01605794
v 0.00490807 -0.01159453 -0.01566111
v 0.00542295 -0.01069980 -0.01525804
v 0.00498530 -0.01033029 -0.01490900
v 0.00372875 -0.01037355 -0.01471474
v 0.00673467 -0.00858904 -0.01507105
v 0.00132843 -0.01137455 -0.01480771
v 0.00012827 -0.00677364 -0.01447113
v 0.00487497 0.00030136 -0.01497860
v 0.01200237 -0.00195646 -0.01977642
v 0.01118102 0.00030136 -0.01687290
v 0.01194353 -0.00411665 -0.01977642
v 0.00896459 -0.00708753 -0.01687549
v 0.00816530 -0.00766713 -0.01609793
v 0.00492891 -0.00197500 -0.01485550
v 0.00673467 -0.00854579 -0.01507105
v 0.00917299 -0.00625213 -0.01624908
v 0.01059013 -0.00290680 -0.01604547
v 0.01075686 -0.00197500 -0.01593536
v 0.00972710 -0.00197500 -0.01560605
v 0.00572820 0.00030136 -0.01499107
v 0.01236156 -0.00317497 -0.01977642
v 0.01197786 -0.00197500 -0.01807482
v 0.01075931 0.00030136 -0.01595302
v 0.01180868 -0.00197500 -0.01709417
v 0.01163705 -0.00114454 -0.01723129
v 0.01179274 -0.00291916 -0.01721051
v 0.01145562 -0.00371872 -0.01764371
v 0.00583853 0.00030136 -0.01499574
v 0.01135632 -0.00197500 -0.01649424
v 0.01082673 -0.00077503 -0.01594107
v 0.01064530 0.00030136 -0.01592912
f 1 2 3
f 1 3 4
f 1 4 5
f 1 5 12
f 1 12 25
f 1 25 26
f 1 26 13
f 1 13 6
f 1 6 16
f 1 16 28
f 1 28 44
f 1 44 56
f 1 56 46
f 1 46 34
f 1 34 33
f 1 33 32
f 1 32 31
f 1 31 29
f 1 29 17
f 1 17 7
f 1 7 2
f 2 7 3
f 3 8 9
f 3 9 4
f 3 7 8
f 4 9 10
f 4 10 11
f 4 11 5
f 5 11 12
f 6 13 14
f 6 14 15
f 6 15 16
f 7 17 8
f 8 17 18
f 8 18 19
f 8 19 9
f 9 19 20
f 9 20 10
f 10 20 21
f 10 21 22
f 10 22 23
f 10 23 11
f 11 23 12
f 12 23 24
f 12 24 25
f 13 26 43
f 13 43 27
f 13 27 14
f 14 27 43
f 14 43 55
f 14 55 63
f 14 63 66
f 14 66 58
f 14 58 45
f 14 45 28
f 14 28 16
f 14 16 15
f 17 29 18
f 18 30 35
f 18 35 19
f 18 29 31
f 18 31 32
f 18 32 33
f 18 33 34
f 18 34 30
f 19 35 36
f 19 36 20
f 20 36 37
f 20 37 21
f 21 38 39
f 21 39 22
f 21 37 40
f 21 40 38
f 22 39 23
f 23 39 41
f 23 41 24
f 24 41 25
f 25 41 39
f 25 39 42
f 25 42 43
f 25 43 26
f 28 45 44
f 30 34 46
f 30 46 35
f 35 47 48
f 35 48 37
f 35 37 36
f 35 46 47
f 37 48 40
f 38 40 39
f 39 40 49
f 39 49 42
f 40 50 49
f 40 48 51
f 40 51 52
f 40 52 53
f 40 53 54
f 40 54 50
f 42 49 55
f 42 55 43
f 44 45 57
f 44 57 56
f 45 58 59
f 45 59 60
f 45 60 57
f 46 56 61
f 46 61 62
f 46 62 47
f 47 62 61
f 47 61 51
f 47 51 48
f 49 63 55
f 49 50 63
f 50 54 63
f 51 61 52
f 52 61 64
f 52 64 53
f 53 64 65
f 53 65 54
f 54 65 58
f 54 58 66
f 54 66 63
f 56 57 59
f 56 59 61
f 57 60 59
f 58 65 64
f 58 64 59
f 59 64 61

