# https://github.com/mikedh/trimesh
v 0.03450024 -0.03424189 -0.01965431
v 0.03252714 -0.03111083 -0.01962590
v 0.03450024 -0.03111083 -0.01947024
v 0.03450024 -0.03424189 -0.01567873
v 0.02892721 -0.03424189 -0.01958154
v 0.01988303 -0.03111083 -0.01956130
v 0.03012767 -0.03111083 -0.01963680
v 0.03450024 -0.03111083 -0.01730344
v 0.03263159 -0.03424189 -0.01567873
v 0.03450024 -0.03264572 -0.01567873
v 0.01988303 -0.03424189 -0.01945351
v 0.01988303 -0.03111083 -0.01775097
v 0.02972561 -0.03111083 -0.01567873
v 0.02708862 -0.03147341 -0.01567873
v 0.01988303 -0.03424189 -0.01677848
v 0.01988303 -0.03124783 -0.01769260
v 0.02676668 -0.03111083 -0.01567873
v 0.01988303 -0.03317440 -0.01704621
v 0.01988303 -0.03199872 -0.01743186
f 1 2 3
f 1 3 8
f 1 8 10
f 1 10 4
f 1 4 9
f 1 9 15
f 1 15 11
f 1 11 5
f 1 5 6
f 1 6 7
f 1 7 2
f 2 7 6
f 2 6 12
f 2 12 17
f 2 17 13
f 2 13 8
f 2 8 3
f 4 10 13
f 4 13 17
f 4 17 14
f 4 14 9
f 5 11 6
f 6 11 15
f 6 15 18
f 6 18 19
f 6 19 16
f 6 16 12
f 8 13 10
f 9 14 15
f 12 16 17
f 14 17 15
f 15 17 18
f 16 19 17
f 17 19 18

