# https://github.com/mikedh/trimesh
v 0.01428156 -0.02738567 0.00947923
v 0.01428156 -0.02721307 0.01072476
v 0.01428156 -0.02714531 0.00827195
v 0.01437899 -0.02838309 0.00832525
v 0.01428156 -0.02687954 0.01299241
v 0.01428156 -0.02642953 0.00762015
v 0.01476103 -0.02838309 0.00713984
v 0.01482086 -0.02838309 0.00946420
v 0.01583708 -0.02838309 0.01030184
v 0.01692167 -0.02838309 0.01050339
v 0.01692850 -0.02838309 0.01050203
v 0.01789344 -0.02838309 0.01030594
v 0.01429865 -0.02687531 0.01299241
v 0.01428156 -0.02524893 0.01299241
v 0.01428156 -0.02289196 0.00639648
v 0.01479266 -0.02838309 0.00707288
v 0.01428156 -0.02243348 0.00624958
v 0.01794216 -0.02838309 0.01027861
v 0.02002587 -0.02668577 0.01138818
v 0.01443967 -0.02683295 0.01299241
v 0.01624647 -0.02288666 0.01299241
v 0.01428156 -0.01781906 0.01107458
v 0.01491915 -0.02838309 0.00692940
v 0.01428156 -0.02117558 0.00606716
v 0.01554905 -0.02838309 0.00643201
v 0.01523367 -0.02814379 0.00660760
v 0.02301213 -0.02838309 0.00726828
v 0.01502428 -0.02649624 0.01299241
v 0.02239077 -0.02421021 0.01135265
v 0.02301213 -0.02342879 0.01144694
v 0.02301213 -0.01834637 0.01299241
v 0.02275401 -0.01861002 0.01299241
v 0.01742678 -0.02167535 0.01299241
v 0.01864129 -0.02048734 0.01299241
v 0.02112670 -0.01817695 0.01299241
v 0.02153011 -0.01780212 0.01299241
v 0.02178737 -0.01756706 0.01299241
v 0.01428156 -0.01756706 0.01094408
v 0.01452856 -0.02117558 0.00603163
v 0.01692850 -0.02838309 0.00612387
v 0.01569349 -0.02838309 0.00636163
v 0.01428156 -0.01972815 0.00619629
v 0.02301213 -0.02838309 0.00620381
v 0.02301213 -0.01756706 0.01299241
v 0.01428156 -0.01756706 0.00646822
v 0.01572853 -0.01997486 0.00601455
v 0.01932760 -0.02477351 0.00601250
v 0.01812848 -0.02597423 0.00604871
v 0.01693705 -0.02838309 0.00612387
v 0.01428156 -0.01858037 0.00630971
v 0.01933614 -0.02838309 0.00614027
v 0.02301213 -0.02717390 0.00617648
v 0.02301213 -0.01756706 0.00703394
v 0.01572853 -0.01756706 0.00635139
v 0.01428156 -0.01760306 0.00645797
v 0.01691996 -0.01756706 0.00626598
v 0.01812848 -0.01756706 0.00618673
v 0.01932760 -0.01756706 0.00612319
v 0.02301213 -0.02117558 0.00611909
v 0.02301213 -0.02237524 0.00610201
v 0.02301213 -0.02357385 0.00611840
v 0.01813702 -0.02838309 0.00612455
v 0.02301213 -0.02245995 0.00610269
v 0.01428156 -0.01767083 0.00643952
v 0.02054894 -0.01756706 0.00628784
v 0.02301213 -0.01764541 0.00699636
v 0.02301213 -0.01997486 0.00618331
v 0.02301213 -0.01839189 0.00665064
v 0.02301213 -0.01898802 0.00637940
f 1 2 5
f 1 5 14
f 1 14 22
f 1 22 38
f 1 38 45
f 1 45 55
f 1 55 64
f 1 64 50
f 1 50 42
f 1 42 24
f 1 24 17
f 1 17 15
f 1 15 6
f 1 6 3
f 1 3 4
f 1 4 2
f 2 4 5
f 3 6 4
f 4 7 16
f 4 16 23
f 4 23 25
f 4 25 41
f 4 41 40
f 4 40 49
f 4 49 62
f 4 62 51
f 4 51 43
f 4 43 27
f 4 27 18
f 4 18 12
f 4 12 11
f 4 11 10
f 4 10 9
f 4 9 8
f 4 8 5
f 4 6 7
f 5 8 9
f 5 9 10
f 5 10 11
f 5 11 12
f 5 12 13
f 5 13 20
f 5 20 28
f 5 28 32
f 5 32 31
f 5 31 44
f 5 44 37
f 5 37 36
f 5 36 35
f 5 35 34
f 5 34 33
f 5 33 21
f 5 21 14
f 6 15 7
f 7 15 17
f 7 17 16
f 12 18 19
f 12 19 20
f 12 20 13
f 14 21 22
f 16 17 23
f 17 24 25
f 17 25 26
f 17 26 23
f 18 27 19
f 19 28 20
f 19 27 29
f 19 29 30
f 19 30 31
f 19 31 32
f 19 32 28
f 21 33 22
f 22 33 34
f 22 34 35
f 22 35 36
f 22 36 37
f 22 37 38
f 23 26 25
f 24 39 40
f 24 40 41
f 24 41 25
f 24 42 39
f 27 43 52
f 27 52 61
f 27 61 63
f 27 63 60
f 27 60 59
f 27 59 67
f 27 67 69
f 27 69 68
f 27 68 66
f 27 66 53
f 27 53 44
f 27 44 31
f 27 31 30
f 27 30 29
f 37 44 53
f 37 53 65
f 37 65 58
f 37 58 57
f 37 57 56
f 37 56 54
f 37 54 45
f 37 45 38
f 39 42 46
f 39 46 47
f 39 47 48
f 39 48 40
f 40 48 49
f 42 50 46
f 43 51 47
f 43 47 52
f 45 54 55
f 46 50 56
f 46 56 57
f 46 57 58
f 46 58 59
f 46 59 60
f 46 60 47
f 47 61 52
f 47 51 62
f 47 62 48
f 47 60 63
f 47 63 61
f 48 62 49
f 50 64 56
f 53 66 65
f 54 56 64
f 54 64 55
f 58 65 67
f 58 67 59
f 65 66 68
f 65 68 69
f 65 69 67

