# https://github.com/mikedh/trimesh
v -0.04787189 -0.01397328 -0.01006853
v -0.04832730 -0.01459906 -0.01007987
v -0.04782392 -0.01459906 -0.01009309
v -0.04693968 -0.01037326 -0.01012331
v -0.04690944 -0.00917423 -0.01010536
v -0.04689693 -0.00797373 -0.01010725
v -0.04787189 0.00029990 -0.01013464
v -0.04869825 -0.01459906 -0.01010348
v -0.04747434 -0.01459906 -0.01016958
v -0.04699964 -0.01157375 -0.01015730
v -0.04632134 -0.01397328 -0.01060210
v -0.04632134 -0.01157375 -0.01051899
v -0.04632134 -0.01037326 -0.01047933
v -0.04632134 -0.00917423 -0.01045572
v -0.04632134 -0.00802187 -0.01043872
v -0.04632134 -0.00677470 -0.01043872
v -0.04690136 -0.00677470 -0.01011386
v -0.04709088 0.00029990 -0.01015069
v -0.04848501 0.00029990 -0.01025835
v -0.04898422 -0.00917423 -0.01359763
v -0.04898422 -0.01037326 -0.01355985
v -0.04898422 -0.01459906 -0.01369773
v -0.04898422 0.00029990 -0.01403675
v -0.04898422 -0.00242929 -0.01385544
v -0.04720297 -0.01459906 -0.01024891
v -0.04715136 -0.01397328 -0.01022624
v -0.04707393 -0.01277425 -0.01019036
v -0.04632134 -0.01459906 -0.01064082
v -0.04632134 0.00029990 -0.01052183
v -0.04691778 -0.00557566 -0.01012047
v -0.04699938 0.00029990 -0.01015258
v -0.04898422 -0.01459906 -0.01971522
v -0.04898422 0.00029990 -0.01931859
v -0.04632134 -0.01459906 -0.01949235
v -0.04632134 0.00029990 -0.01934975
v -0.04667222 0.00029990 -0.01939886
v -0.04632134 -0.01397328 -0.01949235
v -0.04898422 -0.00077515 -0.01941775
v -0.04787189 0.00029990 -0.01936297
v -0.04632134 0.00007381 -0.01935636
v -0.04654813 0.00029990 -0.01938564
f 1 2 3
f 1 3 4
f 1 4 5
f 1 5 6
f 1 6 7
f 1 7 2
f 2 8 22
f 2 22 32
f 2 32 34
f 2 34 28
f 2 28 25
f 2 25 9
f 2 9 3
f 2 7 8
f 3 9 4
f 4 10 11
f 4 11 12
f 4 12 13
f 4 13 5
f 4 9 10
f 5 13 14
f 5 14 15
f 5 15 6
f 6 15 16
f 6 16 17
f 6 17 7
f 7 17 18
f 7 18 31
f 7 31 29
f 7 29 35
f 7 35 41
f 7 41 36
f 7 36 39
f 7 39 33
f 7 33 23
f 7 23 19
f 7 19 8
f 8 20 21
f 8 21 22
f 8 19 23
f 8 23 24
f 8 24 20
f 9 25 26
f 9 26 27
f 9 27 10
f 10 27 11
f 11 27 26
f 11 26 28
f 11 28 34
f 11 34 37
f 11 37 40
f 11 40 35
f 11 35 29
f 11 29 16
f 11 16 15
f 11 15 14
f 11 14 13
f 11 13 12
f 16 29 17
f 17 29 30
f 17 30 31
f 17 31 18
f 20 24 23
f 20 23 33
f 20 33 38
f 20 38 32
f 20 32 22
f 20 22 21
f 25 28 26
f 29 31 30
f 32 36 37
f 32 37 34
f 32 38 36
f 33 39 38
f 35 40 41
f 36 38 39
f 36 41 37
f 37 41 40

