# https://github.com/mikedh/trimesh
v -0.02589967 0.01499033 0.02032464
v -0.02587364 0.01496232 0.01752344
v -0.02586181 0.01470863 0.02141093
v -0.02586891 0.01474910 0.02186858
v -0.02589967 0.01586811 0.02032464
v -0.02587837 0.01583543 0.01752344
v -0.02540863 0.01439425 0.01752344
v -0.02566657 0.01382462 0.02186858
v -0.02573757 0.01396469 0.02186858
v -0.02584169 0.01571404 0.02186858
v -0.02586891 0.01576539 0.02152449
v -0.02553168 0.01646731 0.02032464
v -0.02553996 0.01644864 0.01912522
v -0.02553878 0.01644085 0.01792494
v -0.02553405 0.01643463 0.01752344
v -0.02520037 0.01423083 0.01752344
v -0.02532106 0.01344487 0.02186858
v -0.02553523 0.01614203 0.02186858
v -0.02543821 0.01636615 0.02152449
v -0.01608584 0.02624121 0.02186858
v -0.01612015 0.02628168 0.02032464
v -0.01612252 0.02628324 0.01912522
v -0.02493296 0.01705873 0.01752344
v -0.02107440 0.01161149 0.01752344
v -0.02171453 0.01112279 0.02186858
v -0.02539206 0.01631323 0.02186858
v -0.02522049 0.01650155 0.02186858
v -0.01564922 0.02648868 0.02186858
v -0.01547292 0.02658828 0.02186858
v -0.01547292 0.02664275 0.02032464
v -0.01547292 0.02663030 0.01912522
v -0.01557467 0.02649646 0.01752344
v -0.01609057 0.02624588 0.01832730
v -0.01604206 0.02619764 0.01752344
v -0.02027097 0.01125041 0.01752344
v -0.01907235 0.01114458 0.01752344
v -0.02143765 0.01112279 0.02152662
v -0.01860023 0.01112279 0.02186858
v -0.01461625 0.02682018 0.02186858
v -0.01427310 0.02695558 0.02032464
v -0.01427310 0.02680306 0.01752344
v -0.01787964 0.01152122 0.01752344
v -0.01642543 0.01112279 0.02011325
v -0.01662185 0.01112279 0.02007625
v -0.01771162 0.01112279 0.01993929
v -0.01777314 0.01112279 0.01993759
v -0.01781456 0.01112279 0.01994100
v -0.01889604 0.01112279 0.02003840
v -0.02009112 0.01112279 0.02039269
v -0.02077859 0.01112279 0.02091372
v -0.01685849 0.01112279 0.02186220
v -0.01683128 0.01115392 0.02186858
v -0.01381164 0.02697893 0.02186858
v -0.01381164 0.02699138 0.02172865
v -0.01381164 0.02700850 0.02151088
v -0.01427310 0.02691200 0.02152449
v -0.01381164 0.02702250 0.02035654
v -0.01381164 0.02678905 0.01752344
v -0.01787254 0.01152433 0.01752344
v -0.01599473 0.01112279 0.02056920
v -0.01671059 0.01112279 0.02181711
v -0.01581132 0.01145429 0.02186858
v -0.01381164 0.01659805 0.02186858
v -0.01381164 0.01599574 0.01752344
v -0.01588113 0.01112279 0.02147473
v -0.01381164 0.01631168 0.02143474
v -0.01381164 0.01589146 0.01906737
v -0.01381164 0.01591636 0.01965305
v -0.01381164 0.01595683 0.02028551
v -0.01381164 0.01610624 0.02086353
f 1 2 3
f 1 3 4
f 1 4 5
f 1 5 6
f 1 6 2
f 2 7 8
f 2 8 9
f 2 9 3
f 2 6 15
f 2 15 23
f 2 23 34
f 2 34 32
f 2 32 41
f 2 41 58
f 2 58 64
f 2 64 59
f 2 59 42
f 2 42 36
f 2 36 35
f 2 35 24
f 2 24 16
f 2 16 7
f 3 9 4
f 4 9 8
f 4 8 17
f 4 17 25
f 4 25 38
f 4 38 52
f 4 52 62
f 4 62 63
f 4 63 53
f 4 53 39
f 4 39 29
f 4 29 28
f 4 28 20
f 4 20 27
f 4 27 26
f 4 26 18
f 4 18 10
f 4 10 11
f 4 11 5
f 5 11 12
f 5 12 13
f 5 13 14
f 5 14 6
f 6 14 15
f 7 16 17
f 7 17 8
f 10 18 11
f 11 18 19
f 11 19 12
f 12 14 13
f 12 19 20
f 12 20 21
f 12 21 22
f 12 22 14
f 14 22 15
f 15 22 23
f 16 24 25
f 16 25 17
f 18 26 19
f 19 27 20
f 19 26 27
f 20 28 21
f 21 28 29
f 21 29 30
f 21 30 22
f 22 30 31
f 22 31 32
f 22 32 33
f 22 33 23
f 23 33 34
f 24 35 25
f 25 35 36
f 25 36 37
f 25 37 50
f 25 50 49
f 25 49 48
f 25 48 47
f 25 47 46
f 25 46 45
f 25 45 44
f 25 44 43
f 25 43 60
f 25 60 65
f 25 65 61
f 25 61 51
f 25 51 38
f 29 39 30
f 30 39 40
f 30 40 31
f 31 40 41
f 31 41 32
f 32 34 33
f 36 42 43
f 36 43 44
f 36 44 45
f 36 45 46
f 36 46 47
f 36 47 48
f 36 48 49
f 36 49 50
f 36 50 37
f 38 51 52
f 39 53 54
f 39 54 55
f 39 55 56
f 39 56 40
f 40 56 55
f 40 55 57
f 40 57 41
f 41 57 58
f 42 59 60
f 42 60 43
f 51 61 62
f 51 62 52
f 53 63 66
f 53 66 70
f 53 70 69
f 53 69 68
f 53 68 67
f 53 67 64
f 53 64 58
f 53 58 57
f 53 57 55
f 53 55 54
f 59 64 60
f 60 64 65
f 61 65 62
f 62 65 66
f 62 66 63
f 64 67 65
f 65 67 68
f 65 68 69
f 65 69 70
f 65 70 66

