# https://github.com/mikedh/trimesh
v 0.01606903 0.01541324 -0.02176518
v 0.01634251 0.01541324 -0.02178501
v 0.01606903 0.01541324 -0.02048468
v 0.01606903 0.01842631 -0.02208572
v 0.02532625 0.02322621 -0.02389331
v 0.02352729 0.01542598 -0.02227491
v 0.02351623 0.01541324 -0.02227078
v 0.01988352 0.01541324 -0.01623008
v 0.01606903 0.02089793 -0.01596820
v 0.01606903 0.02464834 -0.02221543
v 0.01626505 0.02481874 -0.02228400
v 0.02422443 0.02442379 -0.02379004
v 0.02532625 0.02562616 -0.02395196
v 0.03012718 0.02322621 -0.02390239
v 0.02652767 0.02219425 -0.02376856
v 0.02352887 0.01542598 -0.02227491
v 0.03221859 0.01541324 -0.02111171
v 0.02047791 0.01541324 -0.01595002
v 0.01606903 0.02202703 -0.01564849
v 0.01606903 0.02517069 -0.02221873
v 0.01626505 0.02524554 -0.02228400
v 0.01606903 0.02659919 -0.02216173
v 0.01606903 0.02686515 -0.02213777
v 0.02532783 0.02682693 -0.02378921
v 0.02652767 0.02682374 -0.02395609
v 0.03102824 0.02322621 -0.02371651
v 0.03012718 0.02222928 -0.02369834
v 0.02892734 0.02210347 -0.02374047
v 0.02892734 0.02682374 -0.02389496
v 0.03108041 0.02562616 -0.02371734
v 0.03109937 0.02498914 -0.02373799
v 0.03111360 0.02442379 -0.02375451
v 0.03221859 0.01842631 -0.02180649
v 0.03221859 0.01541324 -0.01684307
v 0.03086541 0.02243631 -0.02358681
v 0.02169829 0.01541324 -0.01599876
v 0.02053007 0.01602637 -0.01585998
v 0.02053007 0.01722714 -0.01573688
v 0.01692899 0.02202703 -0.01559561
v 0.01606903 0.02236783 -0.01564683
v 0.01606903 0.02541276 -0.02221873
v 0.01606903 0.02758179 -0.02203202
v 0.01606903 0.02795444 -0.02193702
v 0.02652767 0.02766619 -0.02370247
v 0.02772434 0.02772352 -0.02374543
v 0.02892734 0.02768689 -0.02372643
v 0.03162895 0.02322621 -0.02317622
v 0.03221859 0.01994400 -0.02209977
v 0.03221859 0.01874004 -0.02187588
v 0.03171589 0.02442379 -0.02325223
v 0.03014773 0.02685400 -0.02374956
v 0.03093497 0.02647338 -0.02363307
v 0.03167953 0.02562616 -0.02320844
v 0.03221859 0.01866997 -0.01604586
v 0.03132701 0.01962549 -0.01578397
v 0.03012718 0.01962549 -0.01574101
v 0.02172833 0.01842631 -0.01564188
v 0.01813198 0.02442379 -0.01551795
v 0.01692899 0.02322621 -0.01559065
v 0.01606903 0.02322621 -0.01564601
v 0.01606903 0.02895614 -0.02135625
v 0.01606903 0.03167938 -0.01924052
v 0.02412800 0.03167938 -0.01936609
v 0.02532625 0.03167938 -0.01937518
v 0.03221859 0.03167938 -0.01932313
v 0.02975885 0.02756268 -0.02361655
v 0.03221859 0.02322621 -0.02262436
v 0.03221859 0.02442379 -0.02274415
v 0.03221859 0.02333450 -0.02263758
v 0.03221859 0.02885263 -0.02122076
v 0.03221859 0.02801814 -0.02167679
v 0.03221859 0.02660397 -0.02230960
v 0.03221859 0.02562616 -0.02264089
v 0.03221859 0.02459738 -0.02273176
v 0.03221859 0.01968123 -0.01595250
v 0.03128433 0.02328035 -0.01551630
v 0.02892734 0.01962549 -0.01571292
v 0.03012718 0.02287744 -0.01551630
v 0.02397782 0.02459579 -0.01551630
v 0.02319532 0.02530128 -0.01551630
v 0.02291394 0.02567712 -0.01551630
v 0.02254245 0.02682374 -0.01551630
v 0.02213144 0.02809299 -0.01551630
v 0.02211563 0.02817739 -0.01551630
v 0.02194174 0.03161408 -0.01551630
v 0.01606903 0.02442379 -0.01568153
v 0.01606903 0.02356542 -0.01565509
v 0.02532625 0.02377722 -0.01551630
v 0.02427343 0.02434258 -0.01551630
v 0.01606903 0.03167938 -0.01598720
v 0.03221859 0.03167938 -0.01776422
v 0.03221859 0.02607684 -0.01551630
v 0.02204291 0.03165708 -0.01551630
v 0.02209824 0.03167938 -0.01551630
v 0.03099979 0.03167938 -0.01551630
v 0.03101717 0.03167619 -0.01551630
v 0.03129381 0.03159815 -0.01551630
v 0.03221859 0.03019036 -0.01551630
f 1 2 7
f 1 7 17
f 1 17 34
f 1 34 36
f 1 36 18
f 1 18 8
f 1 8 3
f 1 3 9
f 1 9 19
f 1 19 40
f 1 40 60
f 1 60 87
f 1 87 86
f 1 86 90
f 1 90 62
f 1 62 61
f 1 61 43
f 1 43 42
f 1 42 23
f 1 23 22
f 1 22 41
f 1 41 20
f 1 20 10
f 1 10 4
f 1 4 5
f 1 5 2
f 2 6 7
f 2 5 6
f 3 8 9
f 4 10 11
f 4 11 12
f 4 12 5
f 5 12 13
f 5 13 14
f 5 14 15
f 5 15 6
f 6 16 7
f 6 15 16
f 7 16 17
f 8 18 9
f 9 18 19
f 10 20 11
f 11 20 41
f 11 41 21
f 11 21 12
f 12 21 13
f 13 21 22
f 13 22 23
f 13 23 24
f 13 24 25
f 13 25 14
f 14 26 27
f 14 27 28
f 14 28 15
f 14 25 29
f 14 29 30
f 14 30 31
f 14 31 32
f 14 32 26
f 15 28 16
f 16 28 27
f 16 27 17
f 17 33 49
f 17 49 48
f 17 48 67
f 17 67 69
f 17 69 68
f 17 68 74
f 17 74 73
f 17 73 72
f 17 72 71
f 17 71 70
f 17 70 65
f 17 65 91
f 17 91 98
f 17 98 92
f 17 92 75
f 17 75 54
f 17 54 34
f 17 27 35
f 17 35 26
f 17 26 33
f 18 36 37
f 18 37 19
f 19 37 38
f 19 38 39
f 19 39 40
f 21 41 22
f 23 42 24
f 24 42 43
f 24 43 44
f 24 44 25
f 25 44 45
f 25 45 46
f 25 46 29
f 26 47 48
f 26 48 49
f 26 49 33
f 26 35 27
f 26 32 50
f 26 50 47
f 29 46 51
f 29 51 30
f 30 50 31
f 30 51 52
f 30 52 53
f 30 53 50
f 31 50 32
f 34 54 36
f 36 54 55
f 36 55 37
f 37 55 56
f 37 56 57
f 37 57 38
f 38 57 39
f 39 57 58
f 39 58 59
f 39 59 40
f 40 59 60
f 43 61 44
f 44 61 62
f 44 62 45
f 45 62 63
f 45 63 64
f 45 64 65
f 45 65 46
f 46 66 51
f 46 65 66
f 47 50 67
f 47 67 48
f 50 68 69
f 50 69 67
f 50 53 68
f 51 66 52
f 52 66 65
f 52 65 70
f 52 70 71
f 52 71 72
f 52 72 53
f 53 72 73
f 53 73 74
f 53 74 68
f 54 75 55
f 55 75 76
f 55 76 56
f 56 77 57
f 56 76 78
f 56 78 77
f 57 77 78
f 57 78 58
f 58 79 80
f 58 80 81
f 58 81 82
f 58 82 83
f 58 83 84
f 58 84 85
f 58 85 86
f 58 86 87
f 58 87 60
f 58 60 59
f 58 78 88
f 58 88 89
f 58 89 79
f 62 90 94
f 62 94 95
f 62 95 91
f 62 91 65
f 62 65 64
f 62 64 63
f 75 92 76
f 76 92 98
f 76 98 97
f 76 97 96
f 76 96 95
f 76 95 94
f 76 94 93
f 76 93 85
f 76 85 84
f 76 84 83
f 76 83 82
f 76 82 81
f 76 81 80
f 76 80 79
f 76 79 89
f 76 89 88
f 76 88 78
f 85 93 90
f 85 90 86
f 90 93 94
f 91 95 96
f 91 96 97
f 91 97 98

