# https://github.com/mikedh/trimesh
v -0.01379003 0.01516942 0.01568201
v -0.00955490 0.01325024 0.01568201
v -0.00954751 0.01325024 0.01634911
v -0.00953828 0.01325024 0.01672475
v -0.00951612 0.01325024 0.01752344
v -0.01379003 0.01600473 0.01752344
v -0.01379003 0.01775916 0.01568201
v -0.00796773 0.01325024 0.01568201
v -0.00812534 0.01325024 0.01752344
v -0.01379003 0.02063143 0.01752344
v -0.01069511 0.01764210 0.01568201
v -0.00750106 0.01362020 0.01568201
v -0.00796773 0.01325024 0.01570526
v -0.00806131 0.01325024 0.01710291
v -0.00750106 0.01389623 0.01653621
v -0.00750106 0.01405448 0.01685309
v -0.00750106 0.01442010 0.01752344
v -0.00750106 0.01762910 0.01752344
v -0.00750106 0.01761754 0.01713175
v -0.00750106 0.01760887 0.01698791
v -0.00750106 0.01759152 0.01670222
v -0.00750106 0.01726997 0.01568201
v -0.00964109 0.01754600 0.01568201
f 1 2 3
f 1 3 4
f 1 4 5
f 1 5 6
f 1 6 10
f 1 10 7
f 1 7 11
f 1 11 23
f 1 23 22
f 1 22 12
f 1 12 8
f 1 8 2
f 2 8 13
f 2 13 14
f 2 14 9
f 2 9 5
f 2 5 4
f 2 4 3
f 5 9 17
f 5 17 18
f 5 18 10
f 5 10 6
f 7 10 11
f 8 12 13
f 9 14 12
f 9 12 15
f 9 15 16
f 9 16 17
f 10 18 19
f 10 19 20
f 10 20 21
f 10 21 22
f 10 22 23
f 10 23 11
f 12 14 13
f 12 22 21
f 12 21 20
f 12 20 19
f 12 19 18
f 12 18 17
f 12 17 16
f 12 16 15

