# https://github.com/mikedh/trimesh
v -0.03710716 0.03426059 -0.01991626
v -0.03736449 0.03426059 -0.01990774
v -0.03770450 0.03466931 -0.01989269
v -0.03707185 0.03475758 -0.01991233
v -0.03660643 0.03426059 -0.01991429
v -0.03757258 0.03426059 -0.01989858
v -0.03770450 0.03434508 -0.01989269
v -0.04096248 0.03431623 -0.01949530
v -0.04096248 0.03552006 -0.01920986
v -0.04096248 0.03776904 -0.01861607
v -0.03467226 0.03776904 -0.01948679
v -0.03640205 0.03475792 -0.01990709
v -0.03347200 0.03776904 -0.01952018
v -0.03639183 0.03426059 -0.01991233
v -0.03768963 0.03426059 -0.01989007
v -0.04096248 0.03426059 -0.01949268
v -0.04096248 0.03776904 -0.01368243
v -0.03147281 0.03762514 -0.01937811
v -0.03147281 0.03642543 -0.01943310
v -0.03147281 0.03522572 -0.01945209
v -0.03147281 0.03776904 -0.01936175
v -0.03147281 0.03426059 -0.01943834
v -0.04096248 0.03426059 -0.01365559
v -0.04096248 0.03762514 -0.01364970
v -0.03548235 0.03776904 -0.01322809
v -0.03147281 0.03776904 -0.01547690
v -0.03147281 0.03426059 -0.01322809
v -0.04096248 0.03640104 -0.01357703
v -0.03919832 0.03426059 -0.01322809
v -0.03338654 0.03776904 -0.01322809
v -0.03147281 0.03491214 -0.01322809
f 1 2 3
f 1 3 4
f 1 4 5
f 1 5 14
f 1 14 22
f 1 22 27
f 1 27 29
f 1 29 23
f 1 23 16
f 1 16 15
f 1 15 6
f 1 6 2
f 2 6 3
f 3 6 7
f 3 7 8
f 3 8 9
f 3 9 10
f 3 10 11
f 3 11 4
f 4 12 5
f 4 11 13
f 4 13 12
f 5 12 14
f 6 15 7
f 7 15 16
f 7 16 8
f 8 16 23
f 8 23 28
f 8 28 24
f 8 24 17
f 8 17 10
f 8 10 9
f 10 17 25
f 10 25 30
f 10 30 26
f 10 26 21
f 10 21 13
f 10 13 11
f 12 13 18
f 12 18 19
f 12 19 20
f 12 20 14
f 13 21 18
f 14 20 22
f 17 24 25
f 18 21 26
f 18 26 31
f 18 31 27
f 18 27 22
f 18 22 20
f 18 20 19
f 23 29 28
f 24 28 29
f 24 29 25
f 25 29 27
f 25 27 31
f 25 31 30
f 26 30 31

