# https://github.com/mikedh/trimesh
v 0.04452815 0.01602564 -0.01351714
v 0.04572811 0.01602564 -0.01359518
v 0.04567239 0.02081992 -0.01376552
v 0.04452815 0.01722650 -0.01356187
v 0.04363790 0.01633558 -0.01361136
v 0.04363790 0.01602564 -0.01359994
v 0.04363790 0.01518733 -0.01359423
v 0.04363790 0.01367997 -0.01369320
v 0.04365517 0.01362622 -0.01369701
v 0.04411304 0.01362622 -0.01369701
v 0.04453377 0.01485681 -0.01360755
v 0.04402795 0.01272615 -0.01379693
v 0.04805072 0.01483165 -0.01425562
v 0.04650693 0.01602564 -0.01378551
v 0.04648101 0.01681135 -0.01378075
v 0.04638814 0.02041620 -0.01382357
v 0.04603523 0.02121677 -0.01393016
v 0.04523569 0.02144551 -0.01385593
v 0.04510005 0.02144551 -0.01385593
v 0.04484607 0.02082449 -0.01377694
v 0.04443960 0.01970369 -0.01373602
v 0.04363790 0.01941091 -0.01378551
v 0.04363790 0.01849941 -0.01373317
v 0.04363790 0.01272615 -0.01384451
v 0.04376964 0.01272615 -0.01379693
v 0.04805072 0.01272843 -0.01630357
v 0.04805072 0.01292743 -0.01549277
v 0.04753152 0.01302693 -0.01508356
v 0.04805072 0.01343865 -0.01479616
v 0.04805072 0.01351070 -0.01475810
v 0.04805072 0.01272615 -0.01632831
v 0.04805072 0.02202535 -0.01501694
v 0.04763346 0.02263950 -0.01505691
v 0.04805072 0.02440991 -0.01663855
v 0.04692851 0.02440991 -0.01663570
v 0.04363790 0.02440991 -0.01673752
v 0.04363790 0.02002049 -0.01398345
v 0.04363790 0.01970598 -0.01386164
v 0.04363790 0.01272615 -0.01953347
v 0.04805072 0.01272615 -0.01942022
v 0.04805072 0.02300433 -0.01556890
v 0.04805072 0.02440991 -0.01948303
v 0.04363790 0.02440991 -0.01934504
v 0.04422751 0.01272615 -0.01959247
v 0.04363790 0.01331628 -0.01957344
v 0.04519033 0.01842621 -0.02208769
v 0.04595575 0.01722650 -0.02256827
v 0.04617000 0.01643164 -0.02242838
v 0.04692721 0.01602907 -0.02260158
v 0.04732677 0.01527082 -0.02243029
v 0.04805072 0.01510956 -0.02250261
v 0.04572811 0.01272615 -0.01963434
v 0.04805072 0.02214772 -0.02260539
v 0.04805072 0.02193614 -0.02287090
v 0.04712980 0.02171999 -0.02259778
v 0.04680886 0.02094343 -0.02282712
v 0.04606720 0.02062321 -0.02253021
v 0.04584820 0.01962478 -0.02265392
v 0.04363790 0.01451599 -0.01956677
v 0.04452815 0.01272615 -0.01960770
v 0.04363790 0.01362622 -0.01957915
v 0.04579032 0.01842621 -0.02264060
v 0.04805072 0.02094000 -0.02323919
v 0.04805072 0.01602564 -0.02276622
v 0.04805072 0.01515188 -0.02251593
v 0.04542748 0.01272615 -0.01965052
f 1 2 3
f 1 3 4
f 1 4 5
f 1 5 6
f 1 6 7
f 1 7 8
f 1 8 9
f 1 9 10
f 1 10 11
f 1 11 2
f 2 11 10
f 2 10 12
f 2 12 13
f 2 13 14
f 2 14 15
f 2 15 16
f 2 16 3
f 3 16 17
f 3 17 18
f 3 18 19
f 3 19 20
f 3 20 4
f 4 20 21
f 4 21 22
f 4 22 23
f 4 23 5
f 5 23 22
f 5 22 38
f 5 38 37
f 5 37 36
f 5 36 43
f 5 43 59
f 5 59 61
f 5 61 45
f 5 45 39
f 5 39 24
f 5 24 8
f 5 8 7
f 5 7 6
f 8 24 25
f 8 25 9
f 9 25 12
f 9 12 10
f 12 26 27
f 12 27 28
f 12 28 29
f 12 29 30
f 12 30 13
f 12 25 24
f 12 24 39
f 12 39 44
f 12 44 60
f 12 60 66
f 12 66 52
f 12 52 40
f 12 40 31
f 12 31 26
f 13 15 14
f 13 30 29
f 13 29 27
f 13 27 26
f 13 26 31
f 13 31 40
f 13 40 51
f 13 51 65
f 13 65 64
f 13 64 63
f 13 63 54
f 13 54 53
f 13 53 42
f 13 42 34
f 13 34 41
f 13 41 32
f 13 32 16
f 13 16 15
f 16 32 17
f 17 32 33
f 17 33 18
f 18 33 34
f 18 34 35
f 18 35 19
f 19 35 36
f 19 36 37
f 19 37 38
f 19 38 22
f 19 22 20
f 20 22 21
f 27 29 28
f 32 41 33
f 33 41 34
f 34 42 43
f 34 43 36
f 34 36 35
f 39 45 46
f 39 46 47
f 39 47 48
f 39 48 49
f 39 49 50
f 39 50 51
f 39 51 44
f 40 52 51
f 42 53 43
f 43 53 54
f 43 54 55
f 43 55 56
f 43 56 57
f 43 57 58
f 43 58 46
f 43 46 59
f 44 51 60
f 45 61 46
f 46 62 47
f 46 61 59
f 46 58 62
f 47 49 48
f 47 62 63
f 47 63 49
f 49 63 64
f 49 64 65
f 49 65 51
f 49 51 50
f 51 52 66
f 51 66 60
f 54 63 56
f 54 56 55
f 56 63 58
f 56 58 57
f 58 63 62

