# https://github.com/mikedh/trimesh
v -0.01048275 -0.02363510 0.03146068
v -0.00039201 -0.02363510 0.03146068
v -0.01048275 -0.02363510 0.03427758
v -0.01048275 -0.00250308 0.03146068
v -0.00039201 -0.02363510 0.03261382
v -0.00039201 -0.00452195 0.03146068
v -0.01048275 -0.02315727 0.03430900
v -0.00039201 -0.02340756 0.03282619
v -0.00039201 -0.02314899 0.03305573
v -0.00039201 -0.02237330 0.03331837
v -0.00039201 -0.01277535 0.03481750
v -0.00107256 -0.01277535 0.03486400
v -0.00467287 -0.00557483 0.03573944
v -0.01048275 -0.00250308 0.03426878
v -0.00898238 -0.00250308 0.03146068
v -0.00039201 -0.00254858 0.03527491
v -0.00565073 -0.00557483 0.03552288
v -0.00039201 -0.01209481 0.03489290
v -0.00039201 -0.01089507 0.03500558
v -0.00039201 -0.00373591 0.03555178
v -0.00039201 -0.00321672 0.03553377
v -0.00467287 -0.00471226 0.03559660
v -0.00550356 -0.00480741 0.03549314
v -0.00814478 -0.00250308 0.03456702
v -0.00719260 -0.00250308 0.03365304
v -0.00039201 -0.00254858 0.03538172
v -0.00051251 -0.00255065 0.03538005
v -0.00719260 -0.00250308 0.03456702
f 1 2 5
f 1 5 3
f 1 3 7
f 1 7 14
f 1 14 4
f 1 4 15
f 1 15 6
f 1 6 2
f 2 6 16
f 2 16 26
f 2 26 21
f 2 21 20
f 2 20 19
f 2 19 18
f 2 18 11
f 2 11 10
f 2 10 9
f 2 9 8
f 2 8 5
f 3 5 8
f 3 8 9
f 3 9 10
f 3 10 11
f 3 11 12
f 3 12 13
f 3 13 7
f 4 14 24
f 4 24 28
f 4 28 25
f 4 25 15
f 6 15 16
f 7 13 17
f 7 17 14
f 11 18 12
f 12 18 13
f 13 19 20
f 13 20 21
f 13 21 22
f 13 22 23
f 13 23 14
f 13 14 17
f 13 18 19
f 14 23 22
f 14 22 24
f 15 25 16
f 16 25 28
f 16 28 26
f 21 26 27
f 21 27 22
f 22 27 24
f 24 27 26
f 24 26 28

