# https://github.com/mikedh/trimesh
v -0.02094445 0.03697099 -0.01988333
v -0.02073477 0.03697099 -0.01988333
v -0.02387286 0.03426059 -0.01951341
v -0.02987104 0.03426059 -0.01946839
v -0.03147071 0.03426059 -0.01943806
v -0.02987104 0.03642525 -0.01958094
v -0.02987104 0.03697099 -0.01958387
v -0.01943784 0.03697099 -0.01961029
v -0.01943784 0.03439139 -0.01939597
v -0.02267251 0.03426059 -0.01949580
v -0.03147071 0.03522552 -0.01945176
v -0.03147071 0.03426059 -0.00988669
v -0.03147071 0.03642525 -0.01943316
v -0.03147071 0.03697099 -0.01939597
v -0.01943784 0.03697099 -0.01404192
v -0.01943784 0.03426059 -0.01935977
v -0.03147071 0.03487505 -0.00988669
v -0.02412494 0.03426059 -0.00988669
v -0.03147071 0.03697099 -0.01580541
v -0.01943784 0.03628066 -0.01361720
v -0.02028008 0.03697099 -0.01349194
v -0.01943784 0.03426059 -0.01707076
v -0.03107138 0.03500691 -0.00988669
v -0.01943784 0.03557520 -0.01360937
v -0.01943784 0.03599784 -0.01360937
v -0.02416146 0.03430516 -0.00988669
v -0.02987104 0.03524330 -0.00988669
v -0.02463146 0.03697099 -0.01329132
v -0.02089615 0.03697099 -0.01335884
v -0.02606033 0.03509552 -0.00988669
v -0.02510029 0.03483074 -0.00988669
v -0.02482112 0.03474213 -0.00988669
v -0.02450778 0.03461902 -0.00988669
v -0.02966018 0.03526161 -0.00988669
v -0.02342994 0.03697099 -0.01317095
v -0.02867187 0.03532899 -0.00988669
v -0.02209060 0.03697099 -0.01319737
v -0.02747153 0.03530618 -0.00988669
v -0.02725950 0.03528548 -0.00988669
v -0.02845984 0.03532714 -0.00988669
f 1 2 3
f 1 3 4
f 1 4 5
f 1 5 6
f 1 6 7
f 1 7 14
f 1 14 19
f 1 19 28
f 1 28 35
f 1 35 37
f 1 37 29
f 1 29 21
f 1 21 15
f 1 15 8
f 1 8 2
f 2 8 9
f 2 9 10
f 2 10 3
f 3 10 16
f 3 16 22
f 3 22 18
f 3 18 12
f 3 12 5
f 3 5 4
f 5 11 6
f 5 12 17
f 5 17 19
f 5 19 14
f 5 14 13
f 5 13 11
f 6 11 7
f 7 11 13
f 7 13 14
f 8 15 20
f 8 20 25
f 8 25 24
f 8 24 22
f 8 22 16
f 8 16 9
f 9 16 10
f 12 18 26
f 12 26 33
f 12 33 32
f 12 32 31
f 12 31 30
f 12 30 39
f 12 39 38
f 12 38 40
f 12 40 36
f 12 36 34
f 12 34 27
f 12 27 23
f 12 23 17
f 15 21 20
f 17 23 19
f 18 22 24
f 18 24 25
f 18 25 20
f 18 20 26
f 19 23 27
f 19 27 28
f 20 21 26
f 21 29 30
f 21 30 31
f 21 31 32
f 21 32 33
f 21 33 26
f 27 34 28
f 28 34 36
f 28 36 35
f 29 37 38
f 29 38 39
f 29 39 30
f 35 36 40
f 35 40 37
f 37 40 38

