# https://github.com/mikedh/trimesh
v 0.03616705 0.02494900 0.00556771
v 0.03616705 0.02494900 0.00442449
v 0.03527267 0.02494900 0.00556771
v 0.03616705 -0.00019937 0.00556771
v 0.03520650 0.02494900 0.00290393
v 0.03616705 0.01482417 0.00428211
v 0.03495155 0.02494900 0.00507433
v 0.03354701 0.02321353 0.00346041
v 0.03460221 0.01957026 0.00556771
v 0.03456527 -0.00019937 0.00556771
v 0.03616705 -0.00019937 0.00464953
v 0.03520034 0.02484561 0.00290393
v 0.03362627 0.02494900 0.00290393
v 0.03616705 0.01242405 0.00429280
v 0.03616705 0.01122768 0.00430010
v 0.03465453 -0.00019937 0.00321086
v 0.03434213 -0.00019937 0.00291410
v 0.03402536 0.02494900 0.00360358
v 0.03459785 0.01907793 0.00556771
v 0.03378683 0.02494900 0.00320825
v 0.03367089 0.02494900 0.00301580
v 0.03359574 0.02482100 0.00290393
v 0.03354701 0.02395449 0.00311959
v 0.03354701 0.02199993 0.00346433
v 0.03448422 0.00162718 0.00556771
v 0.03401100 -0.00019937 0.00443257
v 0.03435521 0.01804403 0.00290393
v 0.03427698 -0.00019937 0.00291410
v 0.03354701 0.02435328 0.00290393
v 0.03354701 0.02201962 0.00290393
v 0.03395970 -0.00019937 0.00352509
v 0.03397766 -0.00019937 0.00396423
v 0.03399535 0.00162718 0.00446751
v 0.03423389 0.01804403 0.00290393
v 0.03412232 -0.00019937 0.00320512
f 1 2 5
f 1 5 13
f 1 13 21
f 1 21 20
f 1 20 18
f 1 18 7
f 1 7 3
f 1 3 9
f 1 9 19
f 1 19 25
f 1 25 10
f 1 10 4
f 1 4 11
f 1 11 15
f 1 15 14
f 1 14 6
f 1 6 2
f 2 6 5
f 3 7 8
f 3 8 9
f 4 10 26
f 4 26 32
f 4 32 31
f 4 31 35
f 4 35 28
f 4 28 17
f 4 17 16
f 4 16 11
f 5 12 27
f 5 27 34
f 5 34 30
f 5 30 29
f 5 29 22
f 5 22 13
f 5 6 14
f 5 14 15
f 5 15 11
f 5 11 16
f 5 16 17
f 5 17 12
f 7 18 8
f 8 19 9
f 8 18 20
f 8 20 21
f 8 21 22
f 8 22 23
f 8 23 29
f 8 29 30
f 8 30 24
f 8 24 25
f 8 25 19
f 10 25 26
f 12 17 27
f 13 22 21
f 17 28 34
f 17 34 27
f 22 29 23
f 24 30 31
f 24 31 32
f 24 32 26
f 24 26 33
f 24 33 25
f 25 33 26
f 28 35 30
f 28 30 34
f 30 35 31

