# https://github.com/mikedh/trimesh
v -0.01569113 0.01807553 0.02609833
v -0.01569113 0.01471190 0.02878766
v -0.01569113 0.01405632 0.02609833
v -0.02276419 0.01573756 0.02609833
v -0.02276419 0.01417892 0.02878766
v -0.02141882 0.01432763 0.02878766
v -0.02034695 0.01442924 0.02878766
v -0.01569113 0.01279283 0.02878766
v -0.01787225 0.01385766 0.02634685
v -0.01787225 0.01401829 0.02609833
v -0.01569113 0.01397288 0.02624813
v -0.02276419 0.01236769 0.02860889
v -0.02276419 0.01399388 0.02609833
v -0.02276419 0.01227745 0.02878766
v -0.01730447 0.01257430 0.02878766
v -0.02276419 0.01389682 0.02617704
v -0.01779124 0.01251016 0.02878766
v -0.01795950 0.01249881 0.02878766
f 1 2 8
f 1 8 11
f 1 11 3
f 1 3 10
f 1 10 13
f 1 13 4
f 1 4 5
f 1 5 6
f 1 6 7
f 1 7 2
f 2 7 6
f 2 6 5
f 2 5 14
f 2 14 18
f 2 18 17
f 2 17 15
f 2 15 8
f 3 9 10
f 3 11 12
f 3 12 9
f 4 13 16
f 4 16 12
f 4 12 14
f 4 14 5
f 8 15 11
f 9 12 16
f 9 16 10
f 10 16 13
f 11 15 17
f 11 17 18
f 11 18 12
f 12 18 14

