# https://github.com/mikedh/trimesh
v -0.03701197 -0.03365159 -0.00988669
v -0.03714460 -0.03365159 -0.01087524
v -0.03950736 -0.03365159 -0.00988669
v -0.03371393 -0.03518385 -0.00988669
v -0.03396936 -0.03490239 -0.01013341
v -0.03396936 -0.03490239 -0.01044099
v -0.03765055 -0.03365159 -0.01411535
v -0.04070298 -0.03365159 -0.01325471
v -0.04028348 -0.03509980 -0.01374154
v -0.03253304 -0.04044461 -0.00988669
v -0.03220785 -0.03635060 -0.00988669
v -0.03194161 -0.03656806 -0.00988669
v -0.03146513 -0.03707239 -0.01087524
v -0.03595781 -0.03445821 -0.01411535
v -0.03621816 -0.03429241 -0.01411535
v -0.03707091 -0.03390607 -0.01411535
v -0.04091617 -0.03365159 -0.01411535
v -0.03432205 -0.03998500 -0.01304111
v -0.03179621 -0.04108697 -0.00988669
v -0.04028348 -0.03509980 -0.01411535
v -0.03142190 -0.03706314 -0.00988669
v -0.03088058 -0.03903496 -0.01114017
v -0.03088058 -0.03941050 -0.01230301
v -0.03088058 -0.03967578 -0.01304111
v -0.03160365 -0.03723587 -0.01153882
v -0.03529958 -0.03501035 -0.01411535
v -0.03578392 -0.03460087 -0.01411535
v -0.03242497 -0.04152961 -0.01304111
v -0.03123131 -0.04142859 -0.00988669
v -0.03479264 -0.03929329 -0.01411535
v -0.03088058 -0.03897712 -0.00988669
v -0.03088058 -0.03897789 -0.00991980
v -0.03088058 -0.03902108 -0.01091953
v -0.03088058 -0.04152961 -0.01304111
v -0.03245936 -0.03929329 -0.01411535
v -0.03476317 -0.03567507 -0.01411535
v -0.03238371 -0.04152961 -0.01297032
v -0.03088058 -0.04152190 -0.00988669
v -0.03108100 -0.04149337 -0.00988669
v -0.03088058 -0.04152961 -0.01196893
v -0.03112422 -0.04152961 -0.01197390
v -0.03104465 -0.04152961 -0.01196107
f 1 2 7
f 1 7 17
f 1 17 8
f 1 8 3
f 1 3 10
f 1 10 19
f 1 19 29
f 1 29 39
f 1 39 38
f 1 38 31
f 1 31 21
f 1 21 12
f 1 12 11
f 1 11 4
f 1 4 5
f 1 5 6
f 1 6 2
f 2 6 7
f 3 8 9
f 3 9 10
f 4 11 5
f 5 11 12
f 5 12 6
f 6 12 13
f 6 13 14
f 6 14 15
f 6 15 16
f 6 16 7
f 7 16 15
f 7 15 14
f 7 14 27
f 7 27 26
f 7 26 36
f 7 36 35
f 7 35 30
f 7 30 20
f 7 20 17
f 8 17 9
f 9 18 19
f 9 19 10
f 9 17 20
f 9 20 18
f 12 21 13
f 13 21 22
f 13 22 23
f 13 23 24
f 13 24 25
f 13 25 26
f 13 26 27
f 13 27 14
f 18 28 19
f 18 20 28
f 19 28 29
f 20 30 28
f 21 31 32
f 21 32 33
f 21 33 22
f 22 33 32
f 22 32 31
f 22 31 38
f 22 38 40
f 22 40 34
f 22 34 24
f 22 24 23
f 24 34 35
f 24 35 36
f 24 36 25
f 25 36 26
f 28 34 40
f 28 40 42
f 28 42 41
f 28 41 37
f 28 37 38
f 28 38 39
f 28 39 29
f 28 30 35
f 28 35 34
f 37 41 38
f 38 41 42
f 38 42 40

