# https://github.com/mikedh/trimesh
v -0.01057642 0.03818371 0.00349443
v -0.01081548 0.03818371 0.00345783
v -0.01086128 0.03818371 0.00349443
v -0.01272001 0.03399744 0.00349443
v -0.01354811 0.03338549 0.00288787
v -0.01354811 0.03355670 0.00288787
v -0.01085055 0.03818371 0.00346829
v -0.01427170 0.03360233 0.00288048
v -0.01547197 0.03352472 0.00290602
v -0.01612471 0.03345322 0.00292189
v -0.01788825 0.03511456 0.00331929
v -0.01788825 0.03535256 0.00349443
v -0.01311366 0.03340101 0.00349443
v -0.01335916 0.03339725 0.00349443
v -0.01427170 0.03337843 0.00315359
v -0.01427170 0.03337843 0.00288048
v -0.01547197 0.03340665 0.00290602
v -0.01612471 0.03342265 0.00292189
v -0.01788825 0.03509810 0.00331676
v -0.01788825 0.03432952 0.00349443
v -0.01384370 0.03342312 0.00349443
v -0.01612471 0.03342265 0.00293691
v -0.01547197 0.03340665 0.00301066
v -0.01788825 0.03432716 0.00342663
v -0.01558434 0.03357222 0.00349443
v -0.01469040 0.03349320 0.00349443
f 1 2 7
f 1 7 3
f 1 3 12
f 1 12 20
f 1 20 25
f 1 25 26
f 1 26 21
f 1 21 14
f 1 14 13
f 1 13 4
f 1 4 5
f 1 5 6
f 1 6 2
f 2 6 8
f 2 8 9
f 2 9 10
f 2 10 11
f 2 11 7
f 3 7 12
f 4 13 5
f 5 13 14
f 5 14 15
f 5 15 16
f 5 16 8
f 5 8 6
f 7 11 12
f 8 16 17
f 8 17 9
f 9 17 18
f 9 18 10
f 10 18 19
f 10 19 11
f 11 19 24
f 11 24 20
f 11 20 12
f 14 21 22
f 14 22 15
f 15 22 23
f 15 23 17
f 15 17 16
f 17 23 22
f 17 22 18
f 18 22 24
f 18 24 19
f 20 24 22
f 20 22 25
f 21 26 22
f 22 26 25

