# https://github.com/mikedh/trimesh
v 0.01932850 0.03426237 0.00349410
v 0.01932850 0.03522567 0.00372569
v 0.02928787 0.03769817 0.00567712
v 0.02029177 0.03426237 0.00363043
v 0.01918693 0.03426237 0.00349752
v 0.01917406 0.03522567 0.00372912
v 0.01932850 0.03605376 0.00400805
v 0.02635748 0.03769817 0.00532460
v 0.02928787 0.03769817 0.00932157
v 0.02928787 0.03426237 0.00574272
v 0.02762764 0.03426237 0.00499945
v 0.02052838 0.03426237 0.00367264
v 0.01917406 0.03426237 0.00349809
v 0.01917406 0.03604300 0.00401262
v 0.01917406 0.03769817 0.00467830
v 0.02652776 0.03769817 0.00900270
v 0.01917406 0.03426237 0.00701876
v 0.02928787 0.03515168 0.00834101
v 0.02928787 0.03426237 0.00790064
v 0.01917406 0.03769817 0.00661889
v 0.02532788 0.03769817 0.00881789
v 0.01917406 0.03522567 0.00698283
v 0.01917406 0.03627138 0.00683623
v 0.02411316 0.03769817 0.00839805
f 1 2 3
f 1 3 4
f 1 4 12
f 1 12 11
f 1 11 10
f 1 10 19
f 1 19 17
f 1 17 13
f 1 13 5
f 1 5 6
f 1 6 2
f 2 6 7
f 2 7 8
f 2 8 3
f 3 9 18
f 3 18 19
f 3 19 10
f 3 10 11
f 3 11 12
f 3 12 4
f 3 8 15
f 3 15 20
f 3 20 24
f 3 24 21
f 3 21 16
f 3 16 9
f 5 13 6
f 6 13 17
f 6 17 22
f 6 22 23
f 6 23 20
f 6 20 15
f 6 15 14
f 6 14 7
f 7 14 15
f 7 15 8
f 9 16 17
f 9 17 18
f 16 21 17
f 17 19 18
f 17 21 22
f 20 23 24
f 21 24 22
f 22 24 23

