# https://github.com/mikedh/trimesh
v -0.02075218 -0.01656312 0.00616452
v -0.01907141 -0.01656312 0.00620261
v -0.02075218 -0.01656312 0.01033304
v -0.02075218 -0.01277339 0.00621932
v -0.01888344 -0.01656312 0.00621665
v -0.02075218 -0.00557500 0.00639844
v -0.01328087 -0.00317554 0.00701065
v -0.01847093 -0.01656312 0.01299241
v -0.02075218 -0.01644491 0.01035910
v -0.01328087 -0.01656312 0.00664907
v -0.02075218 0.00146107 0.00667714
v -0.01427265 0.00146107 0.00707949
v -0.01328087 0.00146107 0.00715836
v -0.02075218 -0.01641669 0.01036512
v -0.01328087 -0.01656312 0.01299241
v -0.01811400 -0.01386196 0.01299241
v -0.02075218 -0.00673592 0.01116647
v -0.02075218 -0.00965056 0.01113172
v -0.02075218 -0.01085382 0.01110699
v -0.02075218 -0.01157366 0.01107491
v -0.02075218 0.00146107 0.01027823
v -0.01328087 0.00146107 0.01136631
v -0.01328087 -0.01003518 0.01299241
v -0.01759104 -0.01301157 0.01299241
v -0.01852213 -0.00005095 0.01134559
v -0.01905971 0.00146107 0.01101476
v -0.02075218 -0.00197581 0.01074274
v -0.02038429 0.00146107 0.01045735
v -0.01380455 0.00146107 0.01136230
f 1 2 5
f 1 5 10
f 1 10 15
f 1 15 8
f 1 8 3
f 1 3 9
f 1 9 14
f 1 14 20
f 1 20 19
f 1 19 18
f 1 18 17
f 1 17 27
f 1 27 21
f 1 21 11
f 1 11 6
f 1 6 4
f 1 4 2
f 2 4 6
f 2 6 7
f 2 7 5
f 3 8 9
f 5 7 10
f 6 11 12
f 6 12 7
f 7 12 13
f 7 13 22
f 7 22 23
f 7 23 15
f 7 15 10
f 8 14 9
f 8 15 23
f 8 23 24
f 8 24 16
f 8 16 17
f 8 17 18
f 8 18 19
f 8 19 20
f 8 20 14
f 11 21 28
f 11 28 26
f 11 26 29
f 11 29 22
f 11 22 13
f 11 13 12
f 16 24 25
f 16 25 26
f 16 26 27
f 16 27 17
f 21 27 28
f 22 29 23
f 23 29 25
f 23 25 24
f 25 29 26
f 26 28 27

