# https://github.com/mikedh/trimesh
v -0.03087960 -0.04397487 -0.01955762
v -0.03084335 -0.04660254 -0.01944818
v -0.03087960 -0.04656696 -0.01944969
v -0.03087960 -0.04346903 -0.01952278
v -0.02987160 -0.04346903 -0.01954966
v -0.02300068 -0.04346903 -0.01954360
v -0.02300068 -0.04364603 -0.01954133
v -0.02300068 -0.04397487 -0.01953679
v -0.03087960 -0.04660254 -0.01944704
v -0.02300068 -0.04660254 -0.01920242
v -0.03087960 -0.04346903 -0.01585008
v -0.02300068 -0.04346903 -0.01769154
v -0.03087960 -0.04660254 -0.01676646
v -0.02300068 -0.04660254 -0.01731742
v -0.03087960 -0.04617154 -0.01659568
v -0.02987777 -0.04346903 -0.01573951
v -0.02300068 -0.04346964 -0.01767640
v -0.02707588 -0.04346903 -0.01594134
v -0.03087960 -0.04637431 -0.01666157
v -0.02869084 -0.04660254 -0.01668126
v -0.02300068 -0.04657370 -0.01728978
v -0.02747306 -0.04660254 -0.01670587
v -0.02867156 -0.04637431 -0.01659416
v -0.02867156 -0.04346903 -0.01568953
v -0.02300068 -0.04539944 -0.01734847
v -0.02747306 -0.04346903 -0.01577322
v -0.02300068 -0.04643720 -0.01720798
v -0.02747152 -0.04637431 -0.01662067
v -0.02804532 -0.04346903 -0.01571301
f 1 2 3
f 1 3 9
f 1 9 13
f 1 13 19
f 1 19 15
f 1 15 11
f 1 11 4
f 1 4 5
f 1 5 6
f 1 6 7
f 1 7 8
f 1 8 2
f 2 9 3
f 2 8 10
f 2 10 14
f 2 14 22
f 2 22 20
f 2 20 13
f 2 13 9
f 4 11 16
f 4 16 24
f 4 24 29
f 4 29 26
f 4 26 18
f 4 18 12
f 4 12 6
f 4 6 5
f 6 12 17
f 6 17 25
f 6 25 27
f 6 27 21
f 6 21 14
f 6 14 10
f 6 10 8
f 6 8 7
f 11 15 16
f 12 18 17
f 13 20 19
f 14 21 22
f 15 19 23
f 15 23 24
f 15 24 16
f 17 18 25
f 18 26 25
f 19 20 23
f 20 22 23
f 21 27 22
f 22 28 23
f 22 27 28
f 23 28 24
f 24 28 29
f 25 26 27
f 26 29 28
f 26 28 27

