# https://github.com/mikedh/trimesh
v -0.00825634 -0.01748241 0.02186858
v -0.00102830 -0.01651689 0.02186858
v -0.00102830 -0.01658646 0.02609791
v -0.00114363 -0.01659341 0.02609791
v -0.00229559 -0.01665741 0.02609791
v -0.00707184 -0.01688418 0.02609791
v -0.00825634 -0.01667689 0.02609791
v -0.00825634 -0.00420864 0.02186858
v -0.00102830 -0.00384275 0.02186858
v -0.00102830 -0.00447715 0.02609791
v -0.00825634 -0.00468027 0.02609791
v -0.00822945 -0.00465384 0.02609791
v -0.00684258 -0.00404031 0.02609791
v -0.00550877 -0.00367719 0.02609791
v -0.00555617 -0.00365772 0.02539282
v -0.00451248 -0.00345460 0.02392507
v -0.00347232 -0.00329878 0.02272521
v -0.00261613 -0.00335999 0.02186858
v -0.00114929 -0.00373980 0.02186858
v -0.00102830 -0.00419612 0.02513570
v -0.00352680 -0.00355476 0.02506159
v -0.00396339 -0.00369945 0.02582299
v -0.00447851 -0.00367302 0.02609791
v -0.00536512 -0.00365632 0.02609791
v -0.00347232 -0.00326956 0.02392507
v -0.00149035 -0.00355476 0.02186858
v -0.00461508 -0.00364241 0.02609791
v -0.00478561 -0.00363963 0.02609791
f 1 2 3
f 1 3 4
f 1 4 5
f 1 5 6
f 1 6 7
f 1 7 11
f 1 11 8
f 1 8 18
f 1 18 26
f 1 26 19
f 1 19 9
f 1 9 2
f 2 9 20
f 2 20 10
f 2 10 3
f 3 10 23
f 3 23 27
f 3 27 28
f 3 28 24
f 3 24 14
f 3 14 13
f 3 13 12
f 3 12 11
f 3 11 7
f 3 7 6
f 3 6 5
f 3 5 4
f 8 11 12
f 8 12 13
f 8 13 14
f 8 14 15
f 8 15 16
f 8 16 17
f 8 17 18
f 9 19 20
f 10 20 21
f 10 21 22
f 10 22 23
f 14 24 25
f 14 25 15
f 15 25 16
f 16 25 17
f 17 25 18
f 18 25 26
f 19 26 20
f 20 26 25
f 20 25 21
f 21 25 27
f 21 27 22
f 22 27 23
f 24 28 25
f 25 28 27

