# https://github.com/mikedh/trimesh
v -0.02092959 0.03698021 -0.01988608
v -0.02092959 0.03709876 -0.01988608
v -0.02073179 0.03698021 -0.01988608
v -0.02091640 0.03697165 -0.01988314
v -0.02986318 0.03697165 -0.01958167
v -0.02746331 0.03762627 -0.01969325
v -0.03147189 0.04242459 -0.01950728
v -0.02146362 0.04242459 -0.01975198
v -0.02073179 0.03709876 -0.01988608
v -0.02072520 0.03697165 -0.01988314
v 0.01812110 0.03762693 -0.01977645
v 0.01812110 0.03714947 -0.01974709
v -0.03147189 0.03697165 -0.01939374
v -0.03147189 0.04162443 -0.01950141
v -0.02986318 0.03762627 -0.01958461
v -0.03147189 0.04302521 -0.01945736
v -0.03106971 0.04302521 -0.01946813
v -0.02146362 0.04302521 -0.01967759
v -0.01067079 0.04302521 -0.01970891
v 0.00724915 0.04369958 -0.01966487
v 0.00732826 0.04369958 -0.01966487
v 0.00732826 0.04362318 -0.01966976
v 0.03252034 0.04122468 -0.01970793
v -0.01547053 0.04122402 -0.01977939
v 0.03252034 0.04002609 -0.01972947
v -0.00181631 0.03697165 -0.01938298
v 0.03252034 0.03882618 -0.01971087
v 0.01846394 0.03714947 -0.01972164
v 0.03252034 0.03762627 -0.01958167
v 0.03252034 0.03723771 -0.01951316
v 0.03290933 0.03723771 -0.01950043
v -0.03147189 0.03697165 -0.01580449
v -0.03147189 0.04302521 -0.01572912
v -0.00181631 0.04369958 -0.01920190
v 0.00012864 0.04369958 -0.01949260
v 0.00125606 0.04369958 -0.01961789
v 0.00132858 0.04369958 -0.01962571
v 0.01812110 0.04369958 -0.01955916
v 0.03124788 0.04369892 -0.01958363
v 0.03132041 0.04362450 -0.01958852
v 0.03372028 0.04242459 -0.01964138
v 0.03372028 0.04122468 -0.01967857
v 0.03372028 0.03723771 -0.01941723
v 0.03407631 0.03723771 -0.01928607
v 0.03478176 0.03723771 -0.01893371
v 0.03497955 0.03723771 -0.01882115
v 0.03538173 0.03723771 -0.01856176
v 0.03588280 0.03723771 -0.01822506
v -0.00181631 0.03697165 -0.01329975
v 0.03588280 0.04362450 -0.01952392
v 0.03372028 0.03762627 -0.01945736
v -0.03147189 0.03880379 -0.00988766
v -0.02462170 0.03697165 -0.01329290
v -0.03147189 0.04112524 -0.00988766
v -0.03096422 0.04148613 -0.00988766
v -0.03082577 0.04157833 -0.00988766
v -0.03046974 0.04182727 -0.01023122
v 0.00258786 0.04369958 -0.01424429
v -0.00181631 0.04369958 -0.01507725
v 0.01846394 0.04369958 -0.01952000
v 0.03588280 0.04369892 -0.01951511
v 0.03132041 0.04369892 -0.01958265
v 0.03588280 0.03723771 -0.01655327
v -0.00347117 0.03697165 -0.01318034
v 0.03497296 0.03723771 -0.01272030
v 0.03425431 0.03723771 -0.00988669
v -0.02342176 0.03697165 -0.01317153
v 0.03201927 0.03723771 -0.00988669
v 0.02052757 0.03864244 -0.00988669
v 0.02030340 0.03869776 -0.00988669
v 0.01927489 0.03898424 -0.00988669
v 0.01846394 0.03944260 -0.00988669
v 0.01846394 0.04146901 -0.00988669
v -0.03008734 0.04175022 -0.00988766
v 0.01092148 0.04369958 -0.01362863
v 0.01846394 0.04369958 -0.01495685
v 0.03588280 0.04369892 -0.01928314
v 0.03588280 0.03756568 -0.01654544
v 0.03588280 0.03882618 -0.01654740
v 0.03588280 0.03987330 -0.01657872
v 0.03588280 0.04121480 -0.01661885
v 0.03588280 0.04233568 -0.01692228
v 0.03588280 0.04369628 -0.01776404
v 0.03279725 0.03883474 -0.00988669
v 0.01932763 0.04153157 -0.00988669
v 0.02911173 0.04188522 -0.00988669
v 0.01098741 0.04369958 -0.01362960
v 0.02964577 0.04188522 -0.00988669
v 0.03139952 0.04369892 -0.01599732
v 0.03240167 0.04369892 -0.01619601
v 0.03500593 0.04369892 -0.01806551
v 0.01206867 0.04369958 -0.01372259
v 0.03014025 0.04155133 -0.00988669
v 0.03024574 0.04147494 -0.00988669
v 0.03092482 0.04087564 -0.00988669
v 0.02967214 0.04310818 -0.01376566
v 0.03018640 0.04369892 -0.01582505
f 1 2 9
f 1 9 3
f 1 3 10
f 1 10 4
f 1 4 5
f 1 5 6
f 1 6 2
f 2 6 7
f 2 7 8
f 2 8 9
f 3 9 11
f 3 11 12
f 3 12 10
f 4 10 26
f 4 26 49
f 4 49 64
f 4 64 67
f 4 67 53
f 4 53 32
f 4 32 13
f 4 13 5
f 5 13 14
f 5 14 7
f 5 7 15
f 5 15 6
f 6 15 7
f 7 14 13
f 7 13 32
f 7 32 52
f 7 52 54
f 7 54 33
f 7 33 16
f 7 16 17
f 7 17 8
f 8 18 19
f 8 19 20
f 8 20 21
f 8 21 22
f 8 22 23
f 8 23 24
f 8 24 9
f 8 17 18
f 9 24 23
f 9 23 25
f 9 25 11
f 10 12 26
f 11 25 27
f 11 27 12
f 12 28 26
f 12 27 29
f 12 29 30
f 12 30 31
f 12 31 28
f 16 33 59
f 16 59 34
f 16 34 35
f 16 35 36
f 16 36 37
f 16 37 17
f 17 37 18
f 18 37 20
f 18 20 19
f 20 37 36
f 20 36 35
f 20 35 34
f 20 34 59
f 20 59 58
f 20 58 75
f 20 75 87
f 20 87 92
f 20 92 76
f 20 76 60
f 20 60 38
f 20 38 21
f 21 38 39
f 21 39 40
f 21 40 22
f 22 40 23
f 23 40 41
f 23 41 42
f 23 42 25
f 25 42 27
f 26 28 31
f 26 31 43
f 26 43 44
f 26 44 45
f 26 45 46
f 26 46 47
f 26 47 48
f 26 48 63
f 26 63 49
f 27 42 50
f 27 50 51
f 27 51 43
f 27 43 31
f 27 31 29
f 29 31 30
f 32 53 52
f 33 54 55
f 33 55 56
f 33 56 57
f 33 57 58
f 33 58 59
f 38 60 61
f 38 61 62
f 38 62 39
f 39 62 40
f 40 62 50
f 40 50 41
f 41 50 42
f 43 51 50
f 43 50 44
f 44 50 45
f 45 50 46
f 46 50 47
f 47 50 48
f 48 50 61
f 48 61 77
f 48 77 83
f 48 83 82
f 48 82 81
f 48 81 80
f 48 80 79
f 48 79 78
f 48 78 63
f 49 63 65
f 49 65 66
f 49 66 64
f 50 62 61
f 52 53 67
f 52 67 68
f 52 68 69
f 52 69 70
f 52 70 71
f 52 71 72
f 52 72 73
f 52 73 54
f 54 73 55
f 55 73 56
f 56 73 74
f 56 74 57
f 57 74 58
f 58 74 75
f 60 76 77
f 60 77 61
f 63 78 65
f 64 66 67
f 65 78 79
f 65 79 80
f 65 80 81
f 65 81 66
f 66 81 82
f 66 82 83
f 66 83 84
f 66 84 95
f 66 95 94
f 66 94 93
f 66 93 88
f 66 88 86
f 66 86 85
f 66 85 73
f 66 73 72
f 66 72 71
f 66 71 70
f 66 70 69
f 66 69 68
f 66 68 67
f 73 85 74
f 74 85 86
f 74 86 75
f 75 86 88
f 75 88 87
f 76 89 90
f 76 90 91
f 76 91 77
f 76 92 89
f 77 91 83
f 83 91 90
f 83 90 88
f 83 88 93
f 83 93 94
f 83 94 95
f 83 95 84
f 87 88 92
f 88 90 96
f 88 96 92
f 89 92 97
f 89 97 96
f 89 96 90
f 92 96 97

