# https://github.com/mikedh/trimesh
v 0.03928524 -0.03557459 -0.02020289
v 0.03928524 -0.03918556 -0.01998652
v 0.03928524 -0.03508536 -0.02015426
v 0.05426167 -0.03424189 -0.01973045
v 0.03928524 -0.03918556 -0.01514894
v 0.05052692 -0.03797432 -0.01955675
v 0.04932705 -0.03917443 -0.01948232
v 0.04932868 -0.03918556 -0.01947934
v 0.03928524 -0.03456321 -0.02004905
v 0.05523036 -0.03424189 -0.01934932
v 0.05424539 -0.03569218 -0.01929175
v 0.05304226 -0.03689035 -0.01931855
v 0.03928524 -0.03424189 -0.01988131
v 0.03928524 -0.03918362 -0.01508940
v 0.04307859 -0.03918556 -0.01173366
v 0.05061484 -0.03918556 -0.01921930
v 0.04948334 -0.03918556 -0.01944857
v 0.05535735 -0.03424189 -0.01925106
v 0.05527106 -0.03427819 -0.01930664
v 0.05500732 -0.03537086 -0.01899201
v 0.05392303 -0.03656807 -0.01906546
v 0.05271990 -0.03774930 -0.01901781
v 0.05149886 -0.03892666 -0.01897017
v 0.05082974 -0.03918556 -0.01914287
v 0.03928524 -0.03424189 -0.01621095
v 0.03928524 -0.03917443 -0.01508940
v 0.04308022 -0.03917443 -0.01173267
v 0.04367934 -0.03918556 -0.01131184
v 0.05581320 -0.03424189 -0.01808881
v 0.05508058 -0.03555136 -0.01807491
v 0.05470938 -0.03615142 -0.01807491
v 0.05152166 -0.03918556 -0.01807491
v 0.03928524 -0.03840790 -0.01519361
v 0.03968574 -0.03424189 -0.01567499
v 0.04251529 -0.03797432 -0.01244828
v 0.04452918 -0.03918556 -0.01098430
v 0.04368097 -0.03917443 -0.01131382
v 0.05591577 -0.03424189 -0.01562536
v 0.05514081 -0.03551120 -0.01567499
v 0.05466868 -0.03611125 -0.01567499
v 0.05355835 -0.03740766 -0.01497426
v 0.05355835 -0.03740766 -0.01521445
v 0.05236662 -0.03861357 -0.01526805
v 0.05170237 -0.03918556 -0.01563826
v 0.03972807 -0.03424189 -0.01562635
v 0.04264228 -0.03726635 -0.01260609
v 0.04473920 -0.03918556 -0.01091880
v 0.04387308 -0.03852985 -0.01145178
v 0.05578715 -0.03424189 -0.01060913
v 0.05499429 -0.03531860 -0.01014562
v 0.05236662 -0.03861357 -0.01483431
v 0.05170237 -0.03918556 -0.01562933
v 0.05460682 -0.03424189 -0.01024984
v 0.04593745 -0.03918556 -0.01054958
v 0.04663751 -0.03918556 -0.01033519
v 0.04692893 -0.03883908 -0.01039971
v 0.05553318 -0.03424189 -0.01017043
v 0.05297388 -0.03682599 -0.01007118
v 0.05387745 -0.03646112 -0.01011584
v 0.05169261 -0.03918556 -0.01446906
v 0.05437075 -0.03465371 -0.01014562
v 0.05534269 -0.03424189 -0.01016746
v 0.04692893 -0.03918556 -0.01024785
v 0.04713732 -0.03918556 -0.01019128
v 0.05180168 -0.03677228 -0.01009103
v 0.04932705 -0.03819741 -0.01007515
v 0.04927332 -0.03918556 -0.01006423
v 0.05172680 -0.03778753 -0.01006820
v 0.05260431 -0.03753444 -0.01012577
v 0.05168772 -0.03918556 -0.01444028
v 0.04772505 -0.03918556 -0.01009699
v 0.04796111 -0.03918556 -0.01007416
v 0.04928472 -0.03918556 -0.01006423
v 0.05032179 -0.03879407 -0.01009699
f 1 2 5
f 1 5 14
f 1 14 26
f 1 26 33
f 1 33 25
f 1 25 13
f 1 13 9
f 1 9 3
f 1 3 4
f 1 4 2
f 2 4 6
f 2 6 7
f 2 7 8
f 2 8 17
f 2 17 16
f 2 16 24
f 2 24 32
f 2 32 44
f 2 44 52
f 2 52 60
f 2 60 70
f 2 70 73
f 2 73 67
f 2 67 72
f 2 72 71
f 2 71 64
f 2 64 63
f 2 63 55
f 2 55 54
f 2 54 47
f 2 47 36
f 2 36 28
f 2 28 15
f 2 15 5
f 3 9 4
f 4 10 11
f 4 11 12
f 4 12 6
f 4 9 13
f 4 13 25
f 4 25 34
f 4 34 45
f 4 45 53
f 4 53 62
f 4 62 57
f 4 57 49
f 4 49 38
f 4 38 29
f 4 29 18
f 4 18 10
f 5 15 14
f 6 12 16
f 6 16 17
f 6 17 8
f 6 8 7
f 10 18 19
f 10 19 20
f 10 20 11
f 11 21 12
f 11 20 21
f 12 21 22
f 12 22 23
f 12 23 24
f 12 24 16
f 14 15 26
f 15 27 26
f 15 28 27
f 18 20 19
f 18 29 20
f 20 29 30
f 20 30 31
f 20 31 21
f 21 31 22
f 22 31 23
f 23 32 24
f 23 31 32
f 25 33 34
f 26 27 33
f 27 35 33
f 27 28 35
f 28 36 37
f 28 37 35
f 29 38 30
f 30 38 39
f 30 39 31
f 31 39 40
f 31 40 41
f 31 41 42
f 31 42 43
f 31 43 32
f 32 43 44
f 33 35 45
f 33 45 34
f 35 37 46
f 35 46 45
f 36 47 48
f 36 48 37
f 37 48 46
f 38 49 39
f 39 50 40
f 39 49 50
f 40 50 41
f 41 51 43
f 41 43 42
f 41 50 51
f 43 51 52
f 43 52 44
f 45 46 53
f 46 48 53
f 47 54 48
f 48 54 55
f 48 55 56
f 48 56 53
f 49 57 50
f 50 58 59
f 50 59 51
f 50 57 58
f 51 60 52
f 51 59 60
f 53 61 62
f 53 56 63
f 53 63 64
f 53 64 61
f 55 63 56
f 57 62 58
f 58 65 66
f 58 66 67
f 58 67 68
f 58 68 59
f 58 62 61
f 58 61 65
f 59 68 69
f 59 69 70
f 59 70 60
f 61 66 65
f 61 64 66
f 64 71 66
f 66 71 72
f 66 72 67
f 67 73 68
f 68 73 74
f 68 74 69
f 69 74 70
f 70 74 73

