# https://github.com/mikedh/trimesh
v -0.01842640 -0.02164357 0.01299241
v -0.01578963 -0.02164357 0.01065624
v -0.02053570 -0.02164357 0.01299241
v -0.01578963 -0.02481125 0.01299241
v -0.01578963 -0.02164357 0.00615286
v -0.02201873 -0.02164357 0.00999645
v -0.02201873 -0.02372412 0.01036457
v -0.02201873 -0.02473561 0.01054108
v -0.02201873 -0.02572792 0.01046652
v -0.02201873 -0.03317525 0.00723741
v -0.01615795 -0.02666942 0.01299241
v -0.01578963 -0.02682182 0.01299241
v -0.01620307 -0.02164357 0.00616701
v -0.01578963 -0.02205787 0.00619628
v -0.01593720 -0.03154851 0.00592537
v -0.01607136 -0.03138143 0.00532505
v -0.01607136 -0.03137353 0.00532505
v -0.01716595 -0.03245388 0.00402151
v -0.01787209 -0.03233648 0.00390069
v -0.02201873 -0.03095471 0.00334945
v -0.02201873 -0.02164357 0.00641337
v -0.02201873 -0.03317638 0.00645868
v -0.02147174 -0.03317638 0.00721664
v -0.02027165 -0.03317638 0.00713075
v -0.01907157 -0.03317638 0.00694196
v -0.01588842 -0.03052573 0.00912145
v -0.01580853 -0.03070861 0.00832479
v -0.01578963 -0.02733208 0.01035702
v -0.01578963 -0.02236380 0.00626424
v -0.01589330 -0.03159931 0.00689099
v -0.01688056 -0.03317638 0.00465393
v -0.01578963 -0.02294744 0.00641432
v -0.01693544 -0.03317638 0.00454349
v -0.01716595 -0.03287271 0.00402151
v -0.01903376 -0.03317638 0.00363640
v -0.01907157 -0.03317412 0.00362885
v -0.02193945 -0.03107889 0.00334945
v -0.02201873 -0.03283319 0.00334945
v -0.02201873 -0.03317638 0.00419330
v -0.01817029 -0.03317638 0.00667012
v -0.01757085 -0.03317638 0.00634258
v -0.01687568 -0.03317638 0.00574226
v -0.01578963 -0.02690310 0.00850319
v -0.01578963 -0.02723386 0.00913277
v -0.01578963 -0.02309871 0.00646718
v -0.01578963 -0.02597514 0.00799065
v -0.01687568 -0.03317638 0.00570922
v -0.01771659 -0.03317638 0.00391579
v -0.01907157 -0.03317638 0.00362885
v -0.02027165 -0.03317412 0.00347499
v -0.02164797 -0.03179235 0.00334945
v -0.02173578 -0.03290319 0.00334945
v -0.02201873 -0.03317525 0.00344762
v -0.02147174 -0.03317638 0.00340986
v -0.02027165 -0.03317638 0.00347593
v -0.02147174 -0.03317412 0.00340892
v -0.02164797 -0.03186460 0.00334945
f 1 2 5
f 1 5 13
f 1 13 21
f 1 21 6
f 1 6 3
f 1 3 11
f 1 11 12
f 1 12 4
f 1 4 2
f 2 4 12
f 2 12 28
f 2 28 44
f 2 44 43
f 2 43 46
f 2 46 45
f 2 45 32
f 2 32 29
f 2 29 14
f 2 14 5
f 3 6 7
f 3 7 8
f 3 8 9
f 3 9 10
f 3 10 11
f 5 14 15
f 5 15 16
f 5 16 17
f 5 17 18
f 5 18 19
f 5 19 20
f 5 20 13
f 6 21 20
f 6 20 38
f 6 38 53
f 6 53 39
f 6 39 22
f 6 22 10
f 6 10 9
f 6 9 8
f 6 8 7
f 10 22 23
f 10 23 12
f 10 12 11
f 12 23 24
f 12 24 25
f 12 25 26
f 12 26 27
f 12 27 28
f 13 20 21
f 14 29 15
f 15 27 30
f 15 30 31
f 15 31 16
f 15 29 32
f 15 32 27
f 16 31 33
f 16 33 34
f 16 34 18
f 16 18 17
f 18 34 35
f 18 35 36
f 18 36 19
f 19 37 20
f 19 36 37
f 20 37 51
f 20 51 57
f 20 57 52
f 20 52 38
f 22 39 54
f 22 54 55
f 22 55 49
f 22 49 35
f 22 35 48
f 22 48 33
f 22 33 31
f 22 31 47
f 22 47 42
f 22 42 41
f 22 41 40
f 22 40 25
f 22 25 24
f 22 24 23
f 25 40 26
f 26 40 41
f 26 41 42
f 26 42 30
f 26 30 27
f 27 43 44
f 27 44 28
f 27 32 45
f 27 45 46
f 27 46 43
f 30 42 47
f 30 47 31
f 33 48 34
f 34 48 35
f 35 49 36
f 36 50 51
f 36 51 37
f 36 49 50
f 38 52 53
f 39 53 54
f 49 55 50
f 50 55 54
f 50 54 56
f 50 56 52
f 50 52 57
f 50 57 51
f 52 56 53
f 53 56 54

