# https://github.com/mikedh/trimesh
v -0.01376486 -0.02344134 0.02186858
v -0.01376486 -0.02216514 0.02157042
v -0.01376486 -0.02731793 0.02186858
v -0.00947208 -0.02628447 0.02186858
v -0.01228191 -0.02216514 0.02097497
v -0.01376486 -0.02216514 0.01752344
v -0.00945648 -0.02628224 0.02186390
v -0.01376486 -0.02733355 0.02152449
v -0.01250545 -0.02779281 0.02152449
v -0.01248774 -0.02778332 0.02186858
v -0.00945648 -0.02632632 0.02186858
v -0.01189979 -0.02216514 0.02073168
v -0.01268808 -0.02216514 0.01752344
v -0.01376486 -0.02713378 0.01752344
v -0.00945648 -0.02567120 0.01903292
v -0.01120724 -0.02216514 0.01911671
v -0.01132745 -0.02216514 0.01984998
v -0.01151640 -0.02216514 0.02030380
v -0.01167077 -0.02216514 0.02052369
v -0.01376486 -0.02732463 0.02084652
v -0.01251389 -0.02779783 0.02088607
v -0.01187195 -0.02786312 0.02152449
v -0.01185888 -0.02784638 0.02186858
v -0.00945648 -0.02762373 0.02186858
v -0.01213809 -0.02216514 0.01784839
v -0.00945648 -0.02568180 0.01752344
v -0.01067202 -0.02716057 0.01752344
v -0.01067202 -0.02783689 0.02065895
v -0.01187195 -0.02783801 0.02074231
v -0.01376486 -0.02726938 0.01963306
v -0.00945648 -0.02564777 0.01892106
v -0.01172476 -0.02216514 0.01815972
v -0.00945648 -0.02562768 0.01803085
v -0.00945648 -0.02562656 0.01790198
v -0.01067202 -0.02786535 0.02152449
v -0.01067961 -0.02784917 0.02186858
v -0.01150712 -0.02784749 0.02186858
v -0.00969014 -0.02770352 0.02186858
v -0.00945648 -0.02765219 0.02166442
v -0.00945648 -0.02582745 0.01752344
v -0.00987361 -0.02714717 0.01752344
v -0.00947208 -0.02713378 0.01752344
v -0.00987319 -0.02779616 0.02077506
v -0.00989554 -0.02779504 0.02152449
v -0.01033249 -0.02781959 0.02186858
v -0.00997019 -0.02778667 0.02186858
v -0.00945648 -0.02766446 0.02152449
v -0.00945648 -0.02713155 0.01752896
v -0.00945648 -0.02759973 0.02035441
f 1 2 6
f 1 6 14
f 1 14 30
f 1 30 20
f 1 20 8
f 1 8 3
f 1 3 10
f 1 10 23
f 1 23 37
f 1 37 36
f 1 36 45
f 1 45 46
f 1 46 38
f 1 38 24
f 1 24 11
f 1 11 4
f 1 4 2
f 2 5 12
f 2 12 19
f 2 19 18
f 2 18 17
f 2 17 16
f 2 16 32
f 2 32 25
f 2 25 13
f 2 13 6
f 2 4 7
f 2 7 5
f 3 8 9
f 3 9 10
f 4 11 7
f 5 7 12
f 6 13 26
f 6 26 40
f 6 40 42
f 6 42 41
f 6 41 27
f 6 27 14
f 7 11 24
f 7 24 39
f 7 39 47
f 7 47 49
f 7 49 48
f 7 48 40
f 7 40 26
f 7 26 34
f 7 34 33
f 7 33 31
f 7 31 15
f 7 15 16
f 7 16 17
f 7 17 18
f 7 18 19
f 7 19 12
f 8 20 21
f 8 21 9
f 9 21 22
f 9 22 10
f 10 22 23
f 13 25 26
f 14 27 28
f 14 28 29
f 14 29 21
f 14 21 30
f 15 31 16
f 16 31 33
f 16 33 34
f 16 34 26
f 16 26 32
f 20 30 21
f 21 29 22
f 22 29 35
f 22 35 36
f 22 36 37
f 22 37 23
f 24 38 39
f 25 32 26
f 27 41 28
f 28 41 42
f 28 42 43
f 28 43 35
f 28 35 29
f 35 43 44
f 35 44 45
f 35 45 36
f 38 46 44
f 38 44 39
f 39 44 47
f 40 48 42
f 42 48 43
f 43 49 47
f 43 47 44
f 43 48 49
f 44 46 45

