# https://github.com/mikedh/trimesh
v 0.01061080 0.00169313 0.01160368
v 0.01092826 0.00142252 0.01160368
v 0.01061080 0.00287195 0.01299241
v 0.01061080 0.01537556 0.01160368
v 0.01126727 0.00162548 0.01160368
v 0.01071926 0.00288040 0.01299241
v 0.01061080 0.01765709 0.01299241
v 0.01061080 0.01722412 0.01265866
v 0.01129528 0.01787188 0.01246642
v 0.01572750 0.01798013 0.01230437
v 0.01092898 0.01538063 0.01160368
v 0.01207528 0.00282797 0.01160368
v 0.01785131 0.01271687 0.01299241
v 0.01095484 0.01794123 0.01299241
v 0.01061080 0.01723427 0.01266559
v 0.01573971 0.01870061 0.01299241
v 0.01654772 0.01798351 0.01231892
v 0.01212843 0.01535019 0.01160368
v 0.01511987 0.01362509 0.01160368
v 0.01758629 0.01297056 0.01248981
v 0.01794756 0.01342383 0.01299241
v 0.01670142 0.01832007 0.01299241
v 0.01758629 0.01311770 0.01248981
v 0.01446341 0.01472442 0.01160368
v 0.01333434 0.01509650 0.01160368
f 1 2 3
f 1 3 7
f 1 7 15
f 1 15 8
f 1 8 4
f 1 4 11
f 1 11 18
f 1 18 25
f 1 25 24
f 1 24 19
f 1 19 12
f 1 12 5
f 1 5 2
f 2 5 6
f 2 6 3
f 3 6 13
f 3 13 21
f 3 21 22
f 3 22 16
f 3 16 14
f 3 14 7
f 4 8 9
f 4 9 10
f 4 10 11
f 5 12 13
f 5 13 6
f 7 14 9
f 7 9 15
f 8 15 9
f 9 14 16
f 9 16 10
f 10 16 17
f 10 17 18
f 10 18 11
f 12 19 20
f 12 20 13
f 13 20 21
f 16 22 17
f 17 22 21
f 17 21 23
f 17 23 19
f 17 19 24
f 17 24 25
f 17 25 18
f 19 23 20
f 20 23 21

