# https://github.com/mikedh/trimesh
v 0.01133358 -0.03424189 -0.01905686
v 0.01133358 -0.03424189 -0.01697306
v 0.01133358 -0.03248242 -0.01930007
v 0.01318473 -0.03424189 -0.01930007
v 0.01212860 -0.03424189 -0.01667085
v 0.01133358 -0.02717338 -0.01586928
v 0.01133358 -0.02627527 -0.01930007
v 0.01988303 -0.03424189 -0.01930007
v 0.01465929 -0.03424189 -0.01618264
v 0.01133358 -0.02597318 -0.01577934
v 0.01133358 -0.02624669 -0.01925942
v 0.01370192 -0.02268896 -0.01930007
v 0.01988303 -0.03424189 -0.01677842
v 0.01988303 -0.01632873 -0.01930007
v 0.01565517 -0.03424189 -0.01616645
v 0.01452874 -0.02597318 -0.01562499
v 0.01452874 -0.02477298 -0.01564694
v 0.01988303 -0.01822088 -0.01568076
v 0.01988303 -0.01372218 -0.01621286
v 0.01133358 -0.02515876 -0.01606896
v 0.01133358 -0.02569354 -0.01807541
v 0.01133358 -0.02538533 -0.01740911
v 0.01133358 -0.02520367 -0.01699825
v 0.01133358 -0.02513223 -0.01682088
v 0.01988303 -0.01351194 -0.01753035
v 0.01982780 -0.01635527 -0.01930007
v 0.01988303 -0.02723461 -0.01605097
v 0.01932735 -0.02597318 -0.01582359
v 0.01985626 -0.01634098 -0.01930007
v 0.01812728 -0.02597318 -0.01569155
v 0.01988303 -0.01877607 -0.01568795
v 0.01988303 -0.01341396 -0.01633231
v 0.01988303 -0.01338947 -0.01687521
v 0.01988303 -0.02596298 -0.01592900
f 1 2 6
f 1 6 10
f 1 10 20
f 1 20 24
f 1 24 23
f 1 23 22
f 1 22 21
f 1 21 11
f 1 11 7
f 1 7 3
f 1 3 4
f 1 4 8
f 1 8 13
f 1 13 15
f 1 15 9
f 1 9 5
f 1 5 2
f 2 5 6
f 3 7 12
f 3 12 26
f 3 26 29
f 3 29 14
f 3 14 8
f 3 8 4
f 5 9 6
f 6 9 10
f 7 11 12
f 8 14 25
f 8 25 33
f 8 33 32
f 8 32 19
f 8 19 18
f 8 18 31
f 8 31 34
f 8 34 27
f 8 27 13
f 9 15 16
f 9 16 10
f 10 16 17
f 10 17 18
f 10 18 19
f 10 19 20
f 11 21 12
f 12 21 22
f 12 22 23
f 12 23 24
f 12 24 25
f 12 25 26
f 13 27 28
f 13 28 15
f 14 29 25
f 15 28 30
f 15 30 16
f 16 30 18
f 16 18 17
f 18 30 31
f 19 32 20
f 20 32 33
f 20 33 24
f 24 33 25
f 25 29 26
f 27 34 28
f 28 34 31
f 28 31 30

