# https://github.com/mikedh/trimesh
v -0.01361051 -0.05218411 -0.01613967
v -0.01361051 -0.05378810 -0.01613967
v -0.01361051 -0.05230455 -0.01329239
v -0.01065258 -0.05235201 -0.01613967
v -0.01361051 -0.05570749 -0.01527842
v -0.01073815 -0.05478735 -0.01613967
v -0.01361051 -0.05271180 -0.01247841
v -0.00165110 -0.05416780 -0.01267032
v -0.00117983 -0.05397132 -0.01324465
v -0.00347299 -0.05282356 -0.01613967
v -0.00445896 -0.05272456 -0.01613967
v -0.01361051 -0.05630765 -0.01488945
v -0.00706279 -0.05571974 -0.01613967
v -0.00634535 -0.05588662 -0.01613967
v -0.00587277 -0.05598562 -0.01613967
v -0.01361051 -0.05353906 -0.01192562
v -0.00227244 -0.05477459 -0.01233799
v -0.00117983 -0.05474856 -0.01248216
v -0.00016226 -0.05502414 -0.01251492
v -0.00085074 -0.05433161 -0.01282432
v -0.00022413 -0.05402235 -0.01362425
v -0.01361051 -0.05431630 -0.01151653
v -0.00246463 -0.05310067 -0.01613967
v -0.01361051 -0.05665264 -0.01455899
v -0.00513691 -0.05597287 -0.01613967
v -0.00107321 -0.05686698 -0.01428657
v -0.01361051 -0.05692924 -0.01428938
v -0.00347299 -0.05477459 -0.01223268
v -0.00016226 -0.05597440 -0.01243816
v -0.00016226 -0.05531351 -0.01248543
v -0.00016226 -0.05445563 -0.01311171
v -0.00016226 -0.05410145 -0.01356294
v -0.00016226 -0.05410196 -0.01448316
v -0.00023203 -0.05402133 -0.01447474
v -0.01361051 -0.05489043 -0.01135832
v -0.00246332 -0.05355181 -0.01613967
v -0.00039921 -0.05412289 -0.01515953
v -0.00020307 -0.05477459 -0.01528075
v -0.00467222 -0.05594020 -0.01613967
v -0.00354539 -0.05573300 -0.01613967
v -0.00107321 -0.05635205 -0.01488664
v -0.00016226 -0.05678481 -0.01414615
v -0.00107321 -0.05694659 -0.01327554
v -0.01361051 -0.05739722 -0.01327554
v -0.00227244 -0.05597440 -0.01225468
v -0.01307079 -0.05504507 -0.01138687
v -0.01220724 -0.05524818 -0.01144164
v -0.00016226 -0.05664243 -0.01260994
v -0.00016226 -0.05430916 -0.01497136
v -0.01361051 -0.05586008 -0.01136113
v -0.01307079 -0.05570953 -0.01138687
v -0.00018728 -0.05556204 -0.01526437
v -0.00016226 -0.05477153 -0.01522880
v -0.00107321 -0.05575189 -0.01538560
v -0.00016226 -0.05666029 -0.01429125
v -0.00016226 -0.05685320 -0.01327554
v -0.00016226 -0.05671337 -0.01277330
v -0.01361051 -0.05700732 -0.01207353
v -0.01361051 -0.05720839 -0.01265909
v -0.00347299 -0.05597440 -0.01215919
v -0.01220724 -0.05550437 -0.01144164
v -0.01361051 -0.05643217 -0.01151981
v -0.01361051 -0.05623773 -0.01146457
v -0.00016226 -0.05558858 -0.01522927
f 1 2 5
f 1 5 12
f 1 12 24
f 1 24 27
f 1 27 44
f 1 44 59
f 1 59 58
f 1 58 62
f 1 62 63
f 1 63 50
f 1 50 35
f 1 35 22
f 1 22 16
f 1 16 7
f 1 7 3
f 1 3 4
f 1 4 11
f 1 11 10
f 1 10 23
f 1 23 36
f 1 36 40
f 1 40 39
f 1 39 25
f 1 25 15
f 1 15 14
f 1 14 13
f 1 13 6
f 1 6 2
f 2 6 5
f 3 7 8
f 3 8 9
f 3 9 10
f 3 10 11
f 3 11 4
f 5 6 13
f 5 13 14
f 5 14 15
f 5 15 12
f 7 16 8
f 8 17 18
f 8 18 19
f 8 19 20
f 8 20 21
f 8 21 9
f 8 16 22
f 8 22 17
f 9 21 10
f 10 21 23
f 12 15 24
f 15 25 26
f 15 26 27
f 15 27 24
f 17 22 28
f 17 28 29
f 17 29 30
f 17 30 19
f 17 19 18
f 19 30 29
f 19 29 48
f 19 48 57
f 19 57 56
f 19 56 42
f 19 42 55
f 19 55 64
f 19 64 53
f 19 53 49
f 19 49 33
f 19 33 32
f 19 32 31
f 19 31 20
f 20 31 32
f 20 32 21
f 21 32 33
f 21 33 34
f 21 34 23
f 22 35 28
f 23 34 37
f 23 37 38
f 23 38 36
f 25 39 26
f 26 39 40
f 26 40 41
f 26 41 42
f 26 42 43
f 26 43 44
f 26 44 27
f 28 45 29
f 28 35 46
f 28 46 47
f 28 47 45
f 29 45 48
f 33 49 37
f 33 37 34
f 35 50 51
f 35 51 46
f 36 38 52
f 36 52 40
f 37 49 53
f 37 53 38
f 38 53 52
f 40 52 54
f 40 54 41
f 41 54 52
f 41 52 55
f 41 55 42
f 42 56 43
f 43 56 57
f 43 57 58
f 43 58 59
f 43 59 44
f 45 60 48
f 45 47 61
f 45 61 60
f 46 51 61
f 46 61 47
f 48 60 62
f 48 62 58
f 48 58 57
f 50 63 60
f 50 60 51
f 51 60 61
f 52 53 64
f 52 64 55
f 60 63 62

