# https://github.com/mikedh/trimesh
v -0.00181353 0.00987346 -0.02047542
v -0.00181353 0.00989130 -0.02001683
v -0.00181353 0.01000285 -0.02167484
v 0.00387892 0.00876025 -0.02047542
v 0.00389293 0.00876025 -0.02025365
v 0.00397345 0.00876025 -0.01979476
v -0.00181353 0.00990246 -0.01979476
v 0.00535805 0.00876025 -0.02223724
v 0.00459661 0.00876025 -0.02170816
v 0.00421501 0.00876025 -0.02106348
v -0.00181353 0.01039771 -0.02242156
v 0.00687919 0.00876025 -0.01979476
v 0.01092797 0.01842666 -0.01955676
v -0.00181353 0.02240209 -0.01955263
v 0.00613175 0.00876025 -0.02243807
v -0.00181353 0.01122760 -0.02252861
v -0.00107134 0.01122760 -0.02256518
v 0.00739207 0.00876025 -0.02250708
v 0.00732905 0.00876025 -0.02250443
v 0.00615625 0.00876025 -0.02244102
v 0.01606903 0.00876025 -0.02068481
v 0.01606903 0.02063523 -0.01955263
v 0.01243160 0.01998827 -0.01955263
v -0.00181353 0.03081028 -0.01955263
v -0.00181353 0.02802391 -0.02181462
v 0.00062309 0.02745057 -0.02228442
v 0.00732730 0.00882717 -0.02250944
v 0.01501351 0.02745726 -0.02228914
v 0.01524807 0.02745726 -0.02228914
v 0.01219179 0.00876025 -0.02234753
v 0.01606903 0.00876025 -0.02189425
v 0.01606903 0.03071881 -0.01955263
v 0.00132852 0.03155093 -0.01955263
v -0.00181353 0.03006293 -0.02045655
v -0.00181353 0.02861063 -0.02157663
v 0.00018548 0.02792129 -0.02205262
v 0.00128476 0.02792129 -0.02205616
v 0.01524807 0.02732118 -0.02228914
v 0.00132852 0.02904565 -0.02145719
v 0.01452688 0.02894972 -0.02137963
v 0.01572594 0.02895641 -0.02136193
v 0.01606903 0.02895641 -0.02135603
v 0.01606903 0.02795475 -0.02193878
v 0.01606903 0.02758219 -0.02203197
v 0.01606903 0.02686385 -0.02213962
v 0.01606903 0.02659837 -0.02216262
v 0.01606903 0.02541154 -0.02221866
v 0.01324031 0.00876025 -0.02229002
v 0.01324906 0.00876025 -0.02228943
v 0.01606903 0.00882717 -0.02189573
v 0.01606903 0.03056265 -0.01977205
v 0.01572594 0.03090397 -0.01955263
v 0.01452688 0.03142600 -0.01955263
v 0.00012947 0.02903450 -0.02144067
v -0.00107134 0.02900773 -0.02141797
v -0.00181353 0.02898542 -0.02139938
v 0.01606903 0.02516838 -0.02221866
v 0.01606903 0.02464858 -0.02221541
v 0.01606903 0.02955652 -0.02081192
v 0.01606903 0.02997370 -0.02038252
v 0.01512379 0.03118507 -0.01955263
f 1 2 7
f 1 7 14
f 1 14 24
f 1 24 34
f 1 34 56
f 1 56 35
f 1 35 25
f 1 25 16
f 1 16 11
f 1 11 3
f 1 3 4
f 1 4 5
f 1 5 6
f 1 6 2
f 2 6 7
f 3 8 9
f 3 9 10
f 3 10 4
f 3 11 8
f 4 10 9
f 4 9 8
f 4 8 15
f 4 15 20
f 4 20 19
f 4 19 18
f 4 18 30
f 4 30 48
f 4 48 49
f 4 49 31
f 4 31 21
f 4 21 12
f 4 12 6
f 4 6 5
f 6 12 13
f 6 13 7
f 7 13 14
f 8 11 15
f 11 16 17
f 11 17 18
f 11 18 19
f 11 19 20
f 11 20 15
f 12 21 22
f 12 22 13
f 13 22 23
f 13 23 14
f 14 23 22
f 14 22 32
f 14 32 52
f 14 52 61
f 14 61 53
f 14 53 33
f 14 33 24
f 16 25 26
f 16 26 17
f 17 27 18
f 17 26 28
f 17 28 29
f 17 29 27
f 18 27 30
f 21 31 50
f 21 50 58
f 21 58 57
f 21 57 47
f 21 47 46
f 21 46 45
f 21 45 44
f 21 44 43
f 21 43 42
f 21 42 59
f 21 59 60
f 21 60 51
f 21 51 32
f 21 32 22
f 24 33 34
f 25 35 36
f 25 36 26
f 26 36 37
f 26 37 28
f 27 29 38
f 27 38 30
f 28 37 29
f 29 37 39
f 29 39 40
f 29 40 41
f 29 41 42
f 29 42 43
f 29 43 44
f 29 44 45
f 29 45 46
f 29 46 47
f 29 47 57
f 29 57 38
f 30 38 48
f 31 49 50
f 32 51 52
f 33 53 39
f 33 39 54
f 33 54 55
f 33 55 56
f 33 56 34
f 35 56 36
f 36 56 55
f 36 55 54
f 36 54 39
f 36 39 37
f 38 57 58
f 38 58 48
f 39 53 41
f 39 41 40
f 41 53 42
f 42 53 59
f 48 58 49
f 49 58 50
f 51 60 61
f 51 61 52
f 53 61 59
f 59 61 60

