# https://github.com/mikedh/trimesh
v -0.05854353 -0.01757299 -0.01687608
v -0.05831803 -0.01757299 -0.01796930
v -0.05826376 -0.01877339 -0.01796182
v -0.05819451 -0.01976946 -0.01785334
v -0.05822165 -0.01976946 -0.01766724
v -0.05842563 -0.01877339 -0.01687608
v -0.05830680 -0.01976946 -0.01567624
v -0.05846774 -0.01757299 -0.01567624
v -0.05850142 -0.01637456 -0.01567624
v -0.05819826 -0.00197567 -0.01474386
v -0.05819826 -0.00197567 -0.01545928
v -0.05770047 0.00030136 -0.01807404
v -0.05807381 -0.01454154 -0.01867911
v -0.05800270 -0.01877339 -0.01855940
v -0.05807474 -0.01460048 -0.01868004
v -0.05807942 -0.01517416 -0.01868472
v -0.05807755 -0.01582642 -0.01868285
v -0.05798398 -0.01976946 -0.01845092
v -0.05802890 -0.01976946 -0.01834805
v -0.05831054 -0.01976946 -0.01687608
v -0.05819171 -0.01976946 -0.01474199
v -0.05824224 -0.01757299 -0.01462603
v -0.05828060 -0.01637456 -0.01463819
v -0.05794094 0.00030136 -0.01426131
v -0.05812060 0.00030136 -0.01479997
v -0.05812060 0.00030136 -0.01537979
v -0.05736736 0.00030136 -0.01921777
v -0.05748713 -0.01976946 -0.01907843
v -0.05744596 -0.00437646 -0.01927388
v -0.05457992 -0.01877339 -0.02238523
v -0.05690232 -0.00354345 -0.01989671
v -0.05690700 -0.00437646 -0.01989952
v -0.05455653 -0.01955335 -0.02236372
v -0.05740292 -0.01877339 -0.01924489
v -0.05815147 -0.01976946 -0.01463912
v -0.05797650 -0.01757299 -0.01402565
v -0.05796153 -0.01877339 -0.01408362
v -0.05790632 0.00030136 -0.01419959
v -0.05627072 0.00030136 -0.01977327
v -0.05738420 -0.01976946 -0.01919533
v -0.05453220 -0.01805433 -0.02233192
v -0.05388470 -0.01762211 -0.02251709
v -0.05387160 -0.01877339 -0.02262277
v -0.05420938 -0.01976946 -0.02244134
v -0.05449196 -0.01976946 -0.02226366
v -0.05789696 -0.01976946 -0.01414254
v -0.05736081 -0.01877339 -0.01356928
v -0.05730748 0.00030136 -0.01362913
v -0.05729625 -0.01976946 -0.01360949
v -0.04898539 0.00030136 -0.01931784
v -0.05105609 -0.01637456 -0.02276024
v -0.05147247 -0.01637456 -0.02276117
v -0.05267297 -0.01757299 -0.02284253
v -0.05287789 -0.01976946 -0.02264802
v -0.05389405 -0.01976946 -0.02252831
v -0.05627166 -0.01976946 -0.01334296
v -0.05627166 -0.01877339 -0.01328872
v -0.05636897 0.00030136 -0.01356460
v -0.04898539 0.00030136 -0.01403687
v -0.04898539 -0.00077723 -0.01941790
v -0.05105609 -0.01766533 -0.02263680
v -0.05267297 -0.01976946 -0.02265082
v -0.04898539 -0.01459852 -0.01971435
v -0.05507116 -0.01976946 -0.01343180
v -0.04898539 -0.01459852 -0.01369927
v -0.04898539 -0.01037256 -0.01356086
v -0.05627072 0.00030136 -0.01355899
v -0.04898539 -0.00243146 -0.01385544
v -0.05105609 -0.01976946 -0.02216359
v -0.05159973 -0.01976946 -0.02247875
v -0.05176254 -0.01976946 -0.02252177
v -0.05395488 -0.01976946 -0.01369833
v -0.05360773 -0.01976946 -0.01390875
v -0.05317450 -0.01976946 -0.01418743
v -0.05270104 -0.01976946 -0.01452410
v -0.05258595 -0.01976946 -0.01461761
v -0.05148183 -0.01976946 -0.01574544
v -0.05105609 -0.01976946 -0.01621864
v -0.04898539 -0.00917413 -0.01359827
f 1 2 3
f 1 3 4
f 1 4 5
f 1 5 6
f 1 6 7
f 1 7 8
f 1 8 9
f 1 9 10
f 1 10 11
f 1 11 12
f 1 12 13
f 1 13 2
f 2 14 3
f 2 13 15
f 2 15 16
f 2 16 17
f 2 17 14
f 3 18 19
f 3 19 4
f 3 14 18
f 4 19 18
f 4 18 28
f 4 28 40
f 4 40 45
f 4 45 44
f 4 44 55
f 4 55 54
f 4 54 62
f 4 62 71
f 4 71 70
f 4 70 69
f 4 69 78
f 4 78 77
f 4 77 76
f 4 76 75
f 4 75 74
f 4 74 73
f 4 73 72
f 4 72 64
f 4 64 56
f 4 56 49
f 4 49 46
f 4 46 35
f 4 35 21
f 4 21 7
f 4 7 20
f 4 20 5
f 5 20 6
f 6 20 7
f 7 21 8
f 8 22 23
f 8 23 9
f 8 21 22
f 9 23 10
f 10 24 25
f 10 25 26
f 10 26 11
f 10 23 24
f 11 26 12
f 12 27 13
f 12 26 25
f 12 25 24
f 12 24 38
f 12 38 48
f 12 48 58
f 12 58 67
f 12 67 59
f 12 59 50
f 12 50 39
f 12 39 27
f 13 27 15
f 14 17 28
f 14 28 18
f 15 27 29
f 15 29 16
f 16 30 17
f 16 29 31
f 16 31 32
f 16 32 30
f 17 30 33
f 17 33 34
f 17 34 28
f 21 35 22
f 22 36 23
f 22 35 37
f 22 37 36
f 23 36 24
f 24 36 38
f 27 39 31
f 27 31 29
f 28 34 40
f 30 32 31
f 30 31 39
f 30 39 41
f 30 41 42
f 30 42 43
f 30 43 33
f 33 44 45
f 33 45 40
f 33 40 34
f 33 43 44
f 35 46 37
f 36 37 47
f 36 47 48
f 36 48 38
f 37 46 49
f 37 49 47
f 39 50 51
f 39 51 52
f 39 52 53
f 39 53 42
f 39 42 41
f 42 53 43
f 43 53 54
f 43 54 55
f 43 55 44
f 47 49 56
f 47 56 57
f 47 57 48
f 48 57 58
f 50 59 68
f 50 68 79
f 50 79 66
f 50 66 65
f 50 65 63
f 50 63 60
f 50 60 51
f 51 61 62
f 51 62 53
f 51 53 52
f 51 60 63
f 51 63 61
f 53 62 54
f 56 64 57
f 57 64 65
f 57 65 66
f 57 66 67
f 57 67 58
f 59 67 68
f 61 69 70
f 61 70 71
f 61 71 62
f 61 63 69
f 63 65 78
f 63 78 69
f 64 72 65
f 65 72 73
f 65 73 74
f 65 74 75
f 65 75 76
f 65 76 77
f 65 77 78
f 66 79 67
f 67 79 68

