# https://github.com/mikedh/trimesh
v 0.02118503 0.01966955 0.01752365
v 0.02117972 0.01966955 0.01792490
v 0.02410017 0.01703987 0.01752365
v 0.00275880 0.01966955 0.01752365
v 0.02104153 0.01966955 0.01974883
v 0.02207791 0.01881510 0.01912474
v 0.02395402 0.01698838 0.01974883
v 0.02466619 0.01650126 0.01752365
v -0.00228223 0.01770323 0.01752365
v 0.00275880 0.01966955 0.01772667
v 0.02112126 0.01959826 0.01974883
v 0.00954308 0.01966955 0.01974883
v 0.02455458 0.01633690 0.01974883
v 0.02485752 0.01573691 0.01974883
v 0.02485487 0.01593592 0.01752365
v -0.00228223 0.01759729 0.01793688
v -0.00228223 0.00955478 0.01752365
v -0.00228223 0.01686759 0.01944125
v -0.00228223 0.01671215 0.01974883
v 0.02486550 0.01530523 0.01974883
v 0.02486018 0.01575770 0.01912474
v 0.02486018 0.01586166 0.01792490
v 0.02486284 0.01496365 0.01752365
v -0.00228223 0.00955478 0.01974883
v 0.01791381 0.00955478 0.01752365
v 0.02486550 0.01500919 0.01974883
v 0.02471934 0.01468840 0.01752365
v 0.01762681 0.00955478 0.01974883
v 0.02447752 0.01439831 0.01752365
v 0.01766401 0.00955478 0.01974491
v 0.02409220 0.01431217 0.01974883
v 0.01790052 0.00973003 0.01974883
f 1 2 3
f 1 3 8
f 1 8 15
f 1 15 23
f 1 23 27
f 1 27 29
f 1 29 25
f 1 25 17
f 1 17 9
f 1 9 4
f 1 4 10
f 1 10 12
f 1 12 5
f 1 5 2
f 2 5 6
f 2 6 3
f 3 6 7
f 3 7 8
f 4 9 10
f 5 11 6
f 5 12 19
f 5 19 24
f 5 24 28
f 5 28 32
f 5 32 31
f 5 31 26
f 5 26 20
f 5 20 14
f 5 14 13
f 5 13 7
f 5 7 11
f 6 11 7
f 7 13 8
f 8 13 14
f 8 14 15
f 9 16 10
f 9 17 24
f 9 24 19
f 9 19 18
f 9 18 16
f 10 16 18
f 10 18 19
f 10 19 12
f 14 20 21
f 14 21 22
f 14 22 15
f 15 22 23
f 17 25 30
f 17 30 28
f 17 28 24
f 20 23 22
f 20 22 21
f 20 26 23
f 23 26 27
f 25 29 30
f 26 29 27
f 26 31 29
f 28 30 32
f 29 31 32
f 29 32 30

