# https://github.com/mikedh/trimesh
v 0.03132881 -0.05597426 -0.01970108
v 0.03252853 -0.05597426 -0.01960734
v 0.03132881 -0.05693181 -0.01917462
v 0.03073238 -0.05645675 -0.01939524
v 0.03073238 -0.05597426 -0.01966037
v 0.03073238 -0.05023120 -0.01927783
v 0.03732741 -0.05117462 -0.01956946
v 0.03372825 -0.05477435 -0.01967268
v 0.03252853 -0.05682401 -0.01905626
v 0.03503161 -0.05487620 -0.01926173
v 0.03370968 -0.05600697 -0.01920208
v 0.03132881 -0.05723365 -0.01807435
v 0.03073238 -0.05705745 -0.01858471
v 0.03073238 -0.05690505 -0.01913864
v 0.03073238 -0.05023120 -0.01739544
v 0.03732741 -0.05023120 -0.01946626
v 0.03854375 -0.05023120 -0.01949087
v 0.03972782 -0.05023120 -0.01929013
v 0.03329706 -0.05667681 -0.01884700
v 0.03086829 -0.05781130 -0.01521005
v 0.03587053 -0.05454388 -0.01899377
v 0.03469917 -0.05562856 -0.01900797
v 0.04060683 -0.05023120 -0.01883090
v 0.03073238 -0.05782468 -0.01523751
v 0.03073238 -0.05719350 -0.01807435
v 0.03073238 -0.05251653 -0.01208915
v 0.03388274 -0.05023120 -0.01213460
v 0.03334399 -0.05670804 -0.01567496
v 0.03252853 -0.05710801 -0.01567496
v 0.03529072 -0.05523975 -0.01807435
v 0.03545401 -0.05531037 -0.01447527
v 0.03485366 -0.05573785 -0.01447527
v 0.03395900 -0.05633780 -0.01447527
v 0.03086829 -0.05781130 -0.01480763
v 0.03073238 -0.05782543 -0.01473472
v 0.04036923 -0.05061332 -0.01872391
v 0.03599862 -0.05463979 -0.01807435
v 0.04069678 -0.05023120 -0.01821070
v 0.03073238 -0.05295144 -0.01148978
v 0.03433545 -0.05023120 -0.01153617
v 0.03335866 -0.05670804 -0.01447527
v 0.03252853 -0.05708719 -0.01447527
v 0.04038488 -0.05062670 -0.01523845
v 0.04038488 -0.05062670 -0.01484550
v 0.04072025 -0.05023120 -0.01458985
v 0.04059998 -0.05023120 -0.01424424
v 0.04021866 -0.05052039 -0.01404539
v 0.03588716 -0.05450597 -0.01362971
v 0.03464539 -0.05558544 -0.01373198
v 0.03321786 -0.05661734 -0.01382572
v 0.03129264 -0.05757638 -0.01443456
v 0.03073238 -0.05770796 -0.01408800
v 0.03073238 -0.05296705 -0.01146894
v 0.03463366 -0.05023120 -0.01125306
v 0.04039074 -0.05023120 -0.01391567
v 0.03450753 -0.05314101 -0.01018403
v 0.03331759 -0.05434687 -0.01015468
v 0.03209832 -0.05551036 -0.01014521
v 0.03073922 -0.05658165 -0.01026641
v 0.03073238 -0.05658388 -0.01026830
v 0.03073238 -0.05320867 -0.01123885
v 0.03475490 -0.05023120 -0.01114227
v 0.03559187 -0.05188237 -0.01023327
v 0.03612769 -0.05023120 -0.01080802
v 0.03559187 -0.05153147 -0.01023327
v 0.03250996 -0.05475800 -0.01009219
v 0.03073238 -0.05595270 -0.01004958
v 0.03121540 -0.05593560 -0.01010450
v 0.03073238 -0.05630881 -0.01011112
v 0.03073238 -0.05357890 -0.01095384
v 0.03494264 -0.05023120 -0.01103054
v 0.03592138 -0.05023120 -0.01075121
v 0.03538165 -0.05153147 -0.01023327
v 0.03073238 -0.05535944 -0.01002875
v 0.03073238 -0.05408072 -0.01058835
v 0.03073238 -0.05436026 -0.01039803
v 0.03073238 -0.05452604 -0.01030523
v 0.03073238 -0.05492155 -0.01010639
f 1 2 3
f 1 3 4
f 1 4 5
f 1 5 6
f 1 6 7
f 1 7 8
f 1 8 2
f 2 9 3
f 2 8 10
f 2 10 11
f 2 11 9
f 3 9 12
f 3 12 13
f 3 13 14
f 3 14 4
f 4 14 13
f 4 13 25
f 4 25 24
f 4 24 35
f 4 35 52
f 4 52 60
f 4 60 69
f 4 69 67
f 4 67 74
f 4 74 78
f 4 78 77
f 4 77 76
f 4 76 75
f 4 75 70
f 4 70 61
f 4 61 53
f 4 53 39
f 4 39 26
f 4 26 15
f 4 15 6
f 4 6 5
f 6 15 27
f 6 27 40
f 6 40 54
f 6 54 62
f 6 62 71
f 6 71 72
f 6 72 64
f 6 64 55
f 6 55 46
f 6 46 45
f 6 45 38
f 6 38 23
f 6 23 18
f 6 18 17
f 6 17 16
f 6 16 7
f 7 16 17
f 7 17 18
f 7 18 8
f 8 18 10
f 9 11 19
f 9 19 20
f 9 20 12
f 10 21 22
f 10 22 11
f 10 18 23
f 10 23 21
f 11 22 19
f 12 20 24
f 12 24 25
f 12 25 13
f 15 26 27
f 19 28 29
f 19 29 20
f 19 22 30
f 19 30 31
f 19 31 32
f 19 32 33
f 19 33 28
f 20 34 35
f 20 35 24
f 20 29 34
f 21 23 36
f 21 36 22
f 22 36 37
f 22 37 30
f 23 38 36
f 26 39 40
f 26 40 27
f 28 41 29
f 28 33 41
f 29 41 42
f 29 42 34
f 30 37 31
f 31 37 36
f 31 36 43
f 31 43 44
f 31 44 45
f 31 45 46
f 31 46 47
f 31 47 48
f 31 48 49
f 31 49 32
f 32 49 50
f 32 50 33
f 33 50 41
f 34 42 51
f 34 51 52
f 34 52 35
f 36 38 43
f 38 45 43
f 39 53 40
f 40 53 54
f 41 50 42
f 42 50 52
f 42 52 51
f 43 45 44
f 46 55 47
f 47 55 56
f 47 56 57
f 47 57 48
f 48 57 58
f 48 58 49
f 49 58 59
f 49 59 50
f 50 59 52
f 52 59 60
f 53 61 62
f 53 62 54
f 55 63 56
f 55 64 65
f 55 65 63
f 56 63 66
f 56 66 57
f 57 66 58
f 58 66 67
f 58 67 68
f 58 68 69
f 58 69 59
f 59 69 60
f 61 70 71
f 61 71 62
f 63 65 66
f 64 72 65
f 65 72 73
f 65 73 74
f 65 74 66
f 66 74 67
f 67 69 68
f 70 75 71
f 71 73 72
f 71 75 76
f 71 76 77
f 71 77 78
f 71 78 73
f 73 78 74

