# https://github.com/mikedh/trimesh
v -0.04908551 0.01967139 -0.01109286
v -0.04921683 0.01967139 -0.01111428
v -0.04908551 0.01967139 -0.01193625
v -0.04908551 0.02088949 -0.01118255
v -0.05207234 0.02142534 -0.01027624
v -0.05207345 0.02142534 -0.01027624
v -0.05507140 0.02244403 -0.01012764
v -0.05756858 0.01967139 -0.01364445
v -0.05133454 0.01967139 -0.02167407
v -0.04908551 0.01967706 -0.02047458
v -0.04908551 0.02094551 -0.01119995
v -0.05317626 0.02274414 -0.01022938
v -0.05372600 0.02307759 -0.01013567
v -0.05388736 0.02307759 -0.01010890
v -0.05507140 0.02307759 -0.00998440
v -0.05387289 0.02223063 -0.01012095
v -0.05580364 0.02259542 -0.01023741
v -0.05616086 0.02307759 -0.01009819
v -0.05762645 0.01967139 -0.01367792
v -0.05164501 0.01967139 -0.02287623
v -0.05206010 0.01967139 -0.02348267
v -0.04908551 0.01988146 -0.02121355
v -0.04944162 0.02152571 -0.01139139
v -0.04908551 0.02192852 -0.01204468
v -0.05283240 0.02307759 -0.01062297
v -0.05974638 0.02307759 -0.01449989
v -0.05825520 0.01967139 -0.01433389
v -0.05267215 0.01967139 -0.02363127
v -0.05205898 0.02026193 -0.02348401
v -0.04908551 0.02102020 -0.02249068
v -0.04908551 0.02025360 -0.02175439
v -0.05216470 0.02307759 -0.01103797
v -0.05261873 0.02307759 -0.01075416
v -0.04908551 0.02199121 -0.01210760
v -0.06045414 0.02307759 -0.01567528
v -0.05827968 0.01967139 -0.01439279
v -0.05387289 0.01967139 -0.02365938
v -0.05267215 0.02045400 -0.02355362
v -0.04908551 0.02180114 -0.02249068
v -0.05161051 0.02307759 -0.01157212
v -0.04963637 0.02263777 -0.01265246
v -0.04908551 0.02200888 -0.01215178
v -0.05866249 0.01967139 -0.01567260
v -0.06038403 0.02307759 -0.01602201
v -0.05859238 0.01967139 -0.01687209
v -0.05859795 0.01967139 -0.01682658
v -0.05391852 0.01967139 -0.02365269
v -0.05387289 0.02042966 -0.02354961
v -0.05267215 0.02105388 -0.02333408
v -0.05032409 0.02210725 -0.02251746
v -0.05075920 0.02264144 -0.02229122
v -0.04995908 0.02256207 -0.02218947
v -0.04908551 0.02180948 -0.02248533
v -0.05103296 0.02307759 -0.01215580
v -0.04908551 0.02244003 -0.01329906
v -0.04908551 0.02307759 -0.01715054
v -0.06014923 0.02307759 -0.01697384
v -0.05828858 0.01967139 -0.01789755
v -0.05455950 0.01967139 -0.02351078
v -0.05447604 0.02022992 -0.02347732
v -0.05397416 0.02109723 -0.02294585
v -0.05364142 0.02164042 -0.02259377
v -0.05267215 0.02185283 -0.02273433
v -0.05099735 0.02264144 -0.02229122
v -0.05032409 0.02280383 -0.02174368
v -0.04929584 0.02274847 -0.02138892
v -0.04908551 0.02255041 -0.02161516
v -0.04908551 0.02245270 -0.02179723
v -0.04908551 0.02307759 -0.01971418
v -0.06006910 0.02307759 -0.01707022
v -0.05531511 0.01967139 -0.02282536
v -0.05799257 0.01967139 -0.01854147
v -0.05800481 0.01967139 -0.01851737
v -0.05946929 0.02307759 -0.01777305
v -0.05874261 0.02307759 -0.01839421
v -0.05819065 0.02307759 -0.01883733
v -0.05748401 0.02307759 -0.01929651
v -0.05733712 0.02307759 -0.01936880
v -0.05179747 0.02258042 -0.02217608
v -0.05627882 0.02307759 -0.01962985
v -0.05142690 0.02278449 -0.02173565
v -0.05027735 0.02307759 -0.02047190
v -0.05027290 0.02307659 -0.02047458
v -0.04912892 0.02307759 -0.01980656
f 1 2 8
f 1 8 19
f 1 19 27
f 1 27 36
f 1 36 43
f 1 43 46
f 1 46 45
f 1 45 58
f 1 58 73
f 1 73 72
f 1 72 71
f 1 71 59
f 1 59 47
f 1 47 37
f 1 37 28
f 1 28 21
f 1 21 20
f 1 20 9
f 1 9 3
f 1 3 10
f 1 10 22
f 1 22 31
f 1 31 30
f 1 30 39
f 1 39 53
f 1 53 68
f 1 68 67
f 1 67 69
f 1 69 56
f 1 56 55
f 1 55 42
f 1 42 34
f 1 34 24
f 1 24 11
f 1 11 4
f 1 4 5
f 1 5 6
f 1 6 2
f 2 6 7
f 2 7 8
f 3 9 10
f 4 11 12
f 4 12 5
f 5 12 13
f 5 13 14
f 5 14 15
f 5 15 16
f 5 16 6
f 6 16 7
f 7 17 8
f 7 16 15
f 7 15 18
f 7 18 17
f 8 17 19
f 9 20 10
f 10 20 21
f 10 21 22
f 11 23 13
f 11 13 12
f 11 24 23
f 13 23 25
f 13 25 33
f 13 33 32
f 13 32 40
f 13 40 54
f 13 54 56
f 13 56 69
f 13 69 84
f 13 84 82
f 13 82 80
f 13 80 78
f 13 78 77
f 13 77 76
f 13 76 75
f 13 75 74
f 13 74 70
f 13 70 57
f 13 57 44
f 13 44 35
f 13 35 26
f 13 26 18
f 13 18 15
f 13 15 14
f 17 18 19
f 18 26 27
f 18 27 19
f 21 28 29
f 21 29 30
f 21 30 31
f 21 31 22
f 23 32 33
f 23 33 25
f 23 24 32
f 24 34 32
f 26 35 27
f 27 35 36
f 28 37 38
f 28 38 29
f 29 38 39
f 29 39 30
f 32 34 41
f 32 41 40
f 34 42 41
f 35 43 36
f 35 44 45
f 35 45 46
f 35 46 43
f 37 47 48
f 37 48 38
f 38 48 49
f 38 49 39
f 39 50 51
f 39 51 52
f 39 52 53
f 39 49 50
f 40 41 54
f 41 42 55
f 41 55 56
f 41 56 54
f 44 57 45
f 45 57 58
f 47 59 60
f 47 60 48
f 48 60 61
f 48 61 62
f 48 62 63
f 48 63 49
f 49 63 64
f 49 64 51
f 49 51 50
f 51 64 65
f 51 65 52
f 52 65 66
f 52 66 67
f 52 67 68
f 52 68 53
f 57 70 71
f 57 71 72
f 57 72 73
f 57 73 58
f 59 71 60
f 60 71 74
f 60 74 75
f 60 75 76
f 60 76 77
f 60 77 61
f 61 77 62
f 62 77 78
f 62 78 63
f 63 78 79
f 63 79 64
f 64 79 78
f 64 78 80
f 64 80 81
f 64 81 65
f 65 81 82
f 65 82 83
f 65 83 84
f 65 84 66
f 66 84 69
f 66 69 67
f 70 74 71
f 80 82 81
f 82 84 83

