# https://github.com/mikedh/trimesh
v -0.03829864 0.05060992 -0.01866409
v -0.03829864 0.04302699 -0.01866409
v -0.03829864 0.05060992 -0.01916919
v -0.04123040 0.05060992 -0.01866409
v -0.03829864 0.04302699 -0.01951001
v -0.04846576 0.04302699 -0.01866409
v -0.03829864 0.04965760 -0.01926791
v -0.03908237 0.05060992 -0.01953811
v -0.04338345 0.05060992 -0.01973122
v -0.04741118 0.04679248 -0.01978790
v -0.04742246 0.04435935 -0.01866409
v -0.03829864 0.04362674 -0.01958471
v -0.03888925 0.04302699 -0.01959119
v -0.04359412 0.04776261 -0.02109304
v -0.04813471 0.04363268 -0.01866409
v -0.05110911 0.04302699 -0.01981840
v -0.03829864 0.04845143 -0.01937935
v -0.03993255 0.05060992 -0.01992264
v -0.04333580 0.05060992 -0.02037178
v -0.04382359 0.05035088 -0.01983233
v -0.04741118 0.04679248 -0.02011334
v -0.05103889 0.04314872 -0.01983089
v -0.04984511 0.04433857 -0.01979414
v -0.04067615 0.05060992 -0.02018828
v -0.04348502 0.04842471 -0.02111201
v -0.04288438 0.04842471 -0.02097175
v -0.04907142 0.04302699 -0.02060163
v -0.05026268 0.04302699 -0.02062036
v -0.04396905 0.04776261 -0.02109304
v -0.04433019 0.04835791 -0.02111778
v -0.05110911 0.04302699 -0.02029972
v -0.04331825 0.05060992 -0.02052693
v -0.04379601 0.05032415 -0.02047506
v -0.04439665 0.04977117 -0.02047506
v -0.05103889 0.04314872 -0.02026778
v -0.04187243 0.05060992 -0.02055528
v -0.04293203 0.04962495 -0.02095397
v -0.04353267 0.04962495 -0.02110024
v -0.04416091 0.04956705 -0.02110817
v -0.04493962 0.04912837 -0.02109688
v -0.04493962 0.04871345 -0.02109688
v -0.04326558 0.05060992 -0.02063694
v -0.04368691 0.05023137 -0.02107743
v -0.04365807 0.05023137 -0.02107743
f 1 2 5
f 1 5 12
f 1 12 17
f 1 17 7
f 1 7 3
f 1 3 8
f 1 8 18
f 1 18 24
f 1 24 36
f 1 36 42
f 1 42 32
f 1 32 19
f 1 19 9
f 1 9 4
f 1 4 11
f 1 11 15
f 1 15 6
f 1 6 2
f 2 6 16
f 2 16 31
f 2 31 28
f 2 28 27
f 2 27 13
f 2 13 5
f 3 7 8
f 4 9 10
f 4 10 11
f 5 13 14
f 5 14 12
f 6 15 16
f 7 17 8
f 8 17 18
f 9 19 20
f 9 20 10
f 10 21 35
f 10 35 22
f 10 22 23
f 10 23 11
f 10 20 21
f 11 23 15
f 12 24 18
f 12 18 17
f 12 14 25
f 12 25 26
f 12 26 24
f 13 27 14
f 14 27 28
f 14 28 29
f 14 29 30
f 14 30 25
f 15 23 22
f 15 22 16
f 16 22 35
f 16 35 31
f 19 32 33
f 19 33 20
f 20 33 34
f 20 34 21
f 21 34 35
f 24 26 37
f 24 37 36
f 25 38 26
f 25 30 39
f 25 39 38
f 26 38 37
f 28 31 40
f 28 40 41
f 28 41 30
f 28 30 29
f 30 41 40
f 30 40 39
f 31 35 40
f 32 42 43
f 32 43 33
f 33 43 40
f 33 40 34
f 34 40 35
f 36 37 44
f 36 44 42
f 37 38 44
f 38 39 44
f 39 40 43
f 39 43 44
f 42 44 43

