# https://github.com/mikedh/trimesh
v 0.03666402 0.03463085 -0.00368019
v 0.03440303 0.03713825 -0.00487534
v 0.03659582 0.03463085 -0.00257577
v 0.03666077 0.03463085 -0.00988582
v 0.03629950 0.03507401 -0.00988582
v 0.03560050 0.03590512 -0.00988582
v 0.03557533 0.03588289 -0.00607481
v 0.03443226 0.03715900 -0.00607481
v 0.03309921 0.03841622 -0.00390574
v 0.03434701 0.03705859 -0.00300440
v 0.03644157 0.03463085 -0.00127519
v 0.03476511 0.03463085 -0.00988582
v 0.03316334 0.03841622 -0.00988582
v 0.03310733 0.03841622 -0.00465930
v 0.03271764 0.03841622 -0.00127519
v 0.03263483 0.03841622 -0.00105828
v 0.03637906 0.03463085 -0.00111359
v 0.03022203 0.03841622 -0.00965336
v 0.03137160 0.03767997 -0.00988582
v 0.03257800 0.03463085 -0.00806933
v 0.03063445 0.03841622 -0.00988582
v 0.03635714 0.03463085 -0.00105828
v 0.02863731 0.03841622 -0.00105828
v 0.03018306 0.03841622 -0.00960410
v 0.03222647 0.03463085 -0.00702195
v 0.02930789 0.03841622 -0.00795698
v 0.02960828 0.03841622 -0.00868462
v 0.03297256 0.03463085 -0.00105828
v 0.03296038 0.03463085 -0.00106088
v 0.02837102 0.03841622 -0.00367587
v 0.03214935 0.03463085 -0.00609642
v 0.02905460 0.03841622 -0.00718960
f 1 2 3
f 1 3 11
f 1 11 17
f 1 17 22
f 1 22 28
f 1 28 29
f 1 29 31
f 1 31 25
f 1 25 20
f 1 20 12
f 1 12 4
f 1 4 5
f 1 5 6
f 1 6 7
f 1 7 8
f 1 8 2
f 2 9 10
f 2 10 3
f 2 8 9
f 3 10 11
f 4 12 19
f 4 19 21
f 4 21 13
f 4 13 6
f 4 6 5
f 6 13 8
f 6 8 7
f 8 13 14
f 8 14 9
f 9 14 13
f 9 13 21
f 9 21 18
f 9 18 24
f 9 24 27
f 9 27 26
f 9 26 32
f 9 32 30
f 9 30 23
f 9 23 16
f 9 16 15
f 9 15 10
f 10 15 11
f 11 15 16
f 11 16 17
f 12 18 19
f 12 20 18
f 16 22 17
f 16 23 28
f 16 28 22
f 18 21 19
f 18 20 24
f 20 25 26
f 20 26 27
f 20 27 24
f 23 29 28
f 23 30 31
f 23 31 29
f 25 31 30
f 25 30 32
f 25 32 26

