# https://github.com/mikedh/trimesh
v -0.02414440 0.02403783 -0.01824584
v -0.02439732 0.02143754 -0.01626433
v -0.02414440 0.02112193 -0.01618822
v -0.02414440 0.02403783 -0.02325048
v -0.03228455 0.02403783 -0.01662340
v -0.02414440 0.02086293 -0.01613940
v -0.02414440 0.02349324 -0.02318347
v -0.02446610 0.02381313 -0.02347966
v -0.02445279 0.02403783 -0.02349041
v -0.03265506 0.02403783 -0.01665567
v -0.02414440 0.01962625 -0.01607901
v -0.02414440 0.01630727 -0.02188535
v -0.02504295 0.02333801 -0.02374276
v -0.02468907 0.02403783 -0.02361866
v -0.03227124 0.02202500 -0.01673096
v -0.02487433 0.01962625 -0.01614272
v -0.03347152 0.02403783 -0.01687492
v -0.03347152 0.02322481 -0.01679715
v -0.02468242 0.01889470 -0.01622131
v -0.02414440 0.01938011 -0.01611127
v -0.02414440 0.01527642 -0.02157592
v -0.02747234 0.02202500 -0.02402571
v -0.02627207 0.02322481 -0.02414402
v -0.02542344 0.02234318 -0.02369229
v -0.02506180 0.02403783 -0.02381639
v -0.03547716 0.01527642 -0.01770641
v -0.03448654 0.02403783 -0.01724640
v -0.03447212 0.02322481 -0.01721992
v -0.02414440 0.01593078 -0.01699985
v -0.02414440 0.01891271 -0.01622793
v -0.02867262 0.02202500 -0.02417050
v -0.02414440 0.01527642 -0.01728777
v -0.03347152 0.01527642 -0.01968543
v -0.03308548 0.01652682 -0.02119617
v -0.03227124 0.01645735 -0.02127643
v -0.03227124 0.01722578 -0.02181751
v -0.02867262 0.02322481 -0.02444683
v -0.02874473 0.02403783 -0.02453122
v -0.02828658 0.02403783 -0.02447165
v -0.02627207 0.02403783 -0.02419283
v -0.03547716 0.02403783 -0.01770972
v -0.03547716 0.01527642 -0.01921301
v -0.02987179 0.02202500 -0.02404970
v -0.02987179 0.02322481 -0.02435913
v -0.03466847 0.01527642 -0.01942647
v -0.03332176 0.01722578 -0.02142038
v -0.03291464 0.01890328 -0.02229655
v -0.02979969 0.02403783 -0.02447579
v -0.02934154 0.02403783 -0.02450888
v -0.03547716 0.02403783 -0.01992370
v -0.03547716 0.01601482 -0.01931561
v -0.03412158 0.01870345 -0.02115149
v -0.03348594 0.01840329 -0.02168265
v -0.03107096 0.02322481 -0.02412747
v -0.03299118 0.01962625 -0.02234536
v -0.03263399 0.02322481 -0.02322649
v -0.03203385 0.02322481 -0.02373697
v -0.03185414 0.02239807 -0.02361617
v -0.03107096 0.02403783 -0.02421848
v -0.03434566 0.02403783 -0.02140466
v -0.03432125 0.02322481 -0.02137984
v -0.03426912 0.02202500 -0.02134427
v -0.03374552 0.02202500 -0.02194409
v -0.03267059 0.02403783 -0.02325545
v -0.03207045 0.02403783 -0.02377751
v -0.03381208 0.02403783 -0.02200449
v -0.03378656 0.02322481 -0.02197967
f 1 2 3
f 1 3 6
f 1 6 11
f 1 11 20
f 1 20 30
f 1 30 29
f 1 29 32
f 1 32 21
f 1 21 12
f 1 12 7
f 1 7 4
f 1 4 9
f 1 9 14
f 1 14 25
f 1 25 40
f 1 40 39
f 1 39 38
f 1 38 49
f 1 49 48
f 1 48 59
f 1 59 65
f 1 65 64
f 1 64 66
f 1 66 60
f 1 60 50
f 1 50 41
f 1 41 27
f 1 27 17
f 1 17 10
f 1 10 5
f 1 5 2
f 2 5 3
f 3 5 6
f 4 7 8
f 4 8 9
f 5 10 11
f 5 11 6
f 7 12 8
f 8 13 14
f 8 14 9
f 8 12 13
f 10 15 16
f 10 16 11
f 10 17 18
f 10 18 15
f 11 16 19
f 11 19 20
f 12 21 22
f 12 22 23
f 12 23 24
f 12 24 13
f 13 24 23
f 13 23 25
f 13 25 14
f 15 18 26
f 15 26 16
f 16 26 19
f 17 27 18
f 18 27 28
f 18 28 26
f 19 29 30
f 19 30 20
f 19 26 29
f 21 31 22
f 21 32 26
f 21 26 42
f 21 42 45
f 21 45 33
f 21 33 34
f 21 34 35
f 21 35 36
f 21 36 31
f 22 31 37
f 22 37 23
f 23 37 38
f 23 38 39
f 23 39 40
f 23 40 25
f 26 32 29
f 26 28 41
f 26 41 50
f 26 50 51
f 26 51 42
f 27 41 28
f 31 36 43
f 31 43 44
f 31 44 37
f 33 45 34
f 34 36 35
f 34 45 42
f 34 42 46
f 34 46 36
f 36 46 47
f 36 47 43
f 37 44 48
f 37 48 49
f 37 49 38
f 42 51 52
f 42 52 53
f 42 53 47
f 42 47 46
f 43 47 54
f 43 54 44
f 44 54 48
f 47 55 56
f 47 56 57
f 47 57 58
f 47 58 54
f 47 53 52
f 47 52 55
f 48 54 59
f 50 60 61
f 50 61 51
f 51 61 62
f 51 62 63
f 51 63 52
f 52 63 56
f 52 56 55
f 54 58 57
f 54 57 59
f 56 64 65
f 56 65 57
f 56 63 64
f 57 65 59
f 60 66 61
f 61 66 67
f 61 67 63
f 61 63 62
f 63 67 64
f 64 67 66

