# https://github.com/mikedh/trimesh
v 0.01182821 0.00041320 0.01568201
v 0.01644913 -0.01318298 0.01568201
v 0.01645554 -0.01316490 0.01552483
v 0.01641385 -0.01320940 0.01460733
v 0.01181217 0.00041320 0.01564462
v -0.01263607 0.00041320 0.01568201
v 0.01647157 -0.01379346 0.01568201
v 0.01648761 -0.01379346 0.01552483
v 0.01647478 -0.01379346 0.01530763
v 0.01640423 -0.01379346 0.01464866
v 0.01603546 -0.01379346 0.01386358
v 0.01550314 -0.01379346 0.01299241
v 0.01540373 -0.01308424 0.01299241
v 0.01143057 0.00041320 0.01506147
v -0.01236349 0.00041320 0.01518732
v -0.01627252 -0.01245985 0.01299241
v -0.01627252 -0.01020286 0.01497617
v -0.01627252 -0.00973283 0.01555274
v -0.01627252 -0.00965217 0.01566411
v -0.01627252 -0.00963966 0.01568201
v -0.00942611 -0.01379346 0.01568201
v -0.01627252 -0.01379346 0.01299241
v 0.01092070 -0.00437474 0.01299241
v 0.01081808 0.00041320 0.01456626
v 0.01141774 0.00041320 0.01504463
v -0.01233463 0.00041320 0.01513861
v -0.01169008 0.00041320 0.01425402
v -0.01126037 0.00041320 0.01372800
v -0.01074409 0.00041320 0.01335336
v -0.01072805 0.00041320 0.01334441
v -0.01003219 0.00041320 0.01299241
v -0.01627252 -0.01167832 0.01568201
v -0.01627252 -0.01379346 0.01565489
v 0.00734197 0.00041320 0.01299241
v 0.00734838 0.00041320 0.01299426
v 0.00972779 0.00041320 0.01399232
f 1 2 3
f 1 3 4
f 1 4 5
f 1 5 14
f 1 14 25
f 1 25 24
f 1 24 36
f 1 36 35
f 1 35 34
f 1 34 31
f 1 31 30
f 1 30 29
f 1 29 28
f 1 28 27
f 1 27 26
f 1 26 15
f 1 15 6
f 1 6 20
f 1 20 32
f 1 32 21
f 1 21 7
f 1 7 2
f 2 7 8
f 2 8 3
f 3 8 4
f 4 8 9
f 4 9 10
f 4 10 11
f 4 11 12
f 4 12 13
f 4 13 5
f 5 13 14
f 6 15 16
f 6 16 17
f 6 17 18
f 6 18 19
f 6 19 20
f 7 21 33
f 7 33 22
f 7 22 12
f 7 12 11
f 7 11 10
f 7 10 9
f 7 9 8
f 12 22 16
f 12 16 31
f 12 31 34
f 12 34 23
f 12 23 13
f 13 23 24
f 13 24 25
f 13 25 14
f 15 26 16
f 16 22 33
f 16 33 32
f 16 32 20
f 16 20 19
f 16 19 18
f 16 18 17
f 16 26 27
f 16 27 28
f 16 28 29
f 16 29 30
f 16 30 31
f 21 32 33
f 23 34 35
f 23 35 36
f 23 36 24

