# https://github.com/mikedh/trimesh
v 0.03732861 -0.04157440 -0.02047087
v 0.03612885 -0.04157440 -0.02039447
v 0.03392260 -0.03918556 -0.02016004
v 0.03732861 -0.04037464 -0.02036077
v 0.03852751 -0.04037464 -0.02032856
v 0.03852751 -0.04157440 -0.02043117
v 0.03823933 -0.04248624 -0.02038174
v 0.03690019 -0.04248624 -0.02024018
v 0.03307687 -0.04248624 -0.01960730
v 0.03398502 -0.04037464 -0.02008290
v 0.03391405 -0.03918556 -0.02015854
v 0.03863355 -0.03918556 -0.02002673
v 0.04181210 -0.03951353 -0.01992262
v 0.03972727 -0.04037464 -0.02023943
v 0.03972727 -0.04157440 -0.02034654
v 0.03972727 -0.04248624 -0.02031883
v 0.03943995 -0.04248624 -0.02033905
v 0.03852751 -0.04248624 -0.02037200
v 0.03307687 -0.04248624 -0.01544301
v 0.03307687 -0.04155856 -0.01969268
v 0.03307687 -0.03918556 -0.01965598
v 0.03958361 -0.03918556 -0.01997055
v 0.04181210 -0.03918556 -0.01982151
v 0.04181210 -0.04037464 -0.02003422
v 0.04181210 -0.04157440 -0.02013233
v 0.04181210 -0.04245846 -0.02012260
v 0.04063970 -0.04248624 -0.02023494
v 0.03427406 -0.04248624 -0.01380725
v 0.03307687 -0.03918556 -0.01282010
v 0.04181210 -0.03918556 -0.01794832
v 0.04181210 -0.04248624 -0.02012184
v 0.03502743 -0.04248624 -0.01332341
v 0.03624002 -0.04248624 -0.01324027
v 0.03978285 -0.03918556 -0.01522730
v 0.04080817 -0.03918556 -0.01564598
v 0.04181210 -0.04248624 -0.01896693
v 0.04071239 -0.03918556 -0.01558905
f 1 2 3
f 1 3 4
f 1 4 5
f 1 5 6
f 1 6 7
f 1 7 2
f 2 7 8
f 2 8 9
f 2 9 10
f 2 10 11
f 2 11 3
f 3 11 21
f 3 21 29
f 3 29 34
f 3 34 37
f 3 37 35
f 3 35 30
f 3 30 23
f 3 23 22
f 3 22 12
f 3 12 5
f 3 5 4
f 5 12 13
f 5 13 14
f 5 14 15
f 5 15 6
f 6 15 16
f 6 16 17
f 6 17 18
f 6 18 7
f 7 18 17
f 7 17 16
f 7 16 27
f 7 27 31
f 7 31 36
f 7 36 33
f 7 33 32
f 7 32 28
f 7 28 19
f 7 19 9
f 7 9 8
f 9 19 29
f 9 29 21
f 9 21 20
f 9 20 10
f 10 20 11
f 11 20 21
f 12 22 13
f 13 23 30
f 13 30 36
f 13 36 31
f 13 31 26
f 13 26 25
f 13 25 24
f 13 24 14
f 13 22 23
f 14 24 15
f 15 24 25
f 15 25 26
f 15 26 27
f 15 27 16
f 19 28 29
f 26 31 27
f 28 32 29
f 29 32 33
f 29 33 34
f 30 35 36
f 33 36 35
f 33 35 37
f 33 37 34

