# https://github.com/mikedh/trimesh
v 0.01414850 -0.02212795 0.01974883
v 0.01414850 -0.02687183 0.01974883
v 0.01414850 -0.02212795 0.01752365
v 0.01007098 -0.02212795 0.01974883
v 0.01332657 -0.02710400 0.01974883
v 0.01414850 -0.02688135 0.01962205
v 0.01414850 -0.02690885 0.01752365
v 0.00288746 -0.02212795 0.01752365
v 0.00284242 -0.02212795 0.01875681
v -0.00227580 -0.02468076 0.01974883
v 0.01332657 -0.02713044 0.01912474
v 0.01414850 -0.02691837 0.01912474
v 0.01096208 -0.02742449 0.01974883
v 0.01414850 -0.02692419 0.01792490
v 0.01332657 -0.02713097 0.01792490
v 0.01332657 -0.02711088 0.01752365
v -0.00228063 -0.02436292 0.01752365
v -0.00228063 -0.02406305 0.01789332
v 0.00270570 -0.02212795 0.01792490
v 0.00271374 -0.02212795 0.01807477
v -0.00228063 -0.02438883 0.01915850
v -0.00228063 -0.02444436 0.01920294
v -0.00228063 -0.02544920 0.01974883
v 0.00972676 -0.02753026 0.01974883
v 0.01052618 -0.02716270 0.01752365
v -0.00228063 -0.02627580 0.01752365
v -0.00228063 -0.02623879 0.01974883
v 0.00972676 -0.02717381 0.01752365
v 0.00928282 -0.02749007 0.01974883
v -0.00088285 -0.02656509 0.01752365
v -0.00070270 -0.02657567 0.01752365
v 0.00852683 -0.02710559 0.01752365
v -0.00144582 -0.02649105 0.01752365
v -0.00227580 -0.02623931 0.01974883
f 1 2 6
f 1 6 12
f 1 12 14
f 1 14 7
f 1 7 3
f 1 3 8
f 1 8 19
f 1 19 20
f 1 20 9
f 1 9 4
f 1 4 10
f 1 10 23
f 1 23 27
f 1 27 34
f 1 34 29
f 1 29 24
f 1 24 13
f 1 13 5
f 1 5 2
f 2 5 6
f 3 7 16
f 3 16 25
f 3 25 28
f 3 28 32
f 3 32 31
f 3 31 30
f 3 30 33
f 3 33 26
f 3 26 17
f 3 17 8
f 4 9 10
f 5 11 12
f 5 12 6
f 5 13 11
f 7 14 15
f 7 15 16
f 8 17 18
f 8 18 19
f 9 20 18
f 9 18 21
f 9 21 10
f 10 21 22
f 10 22 23
f 11 15 14
f 11 14 12
f 11 13 15
f 13 24 15
f 15 24 16
f 16 24 25
f 17 26 27
f 17 27 23
f 17 23 22
f 17 22 21
f 17 21 18
f 18 20 19
f 24 28 25
f 24 29 30
f 24 30 31
f 24 31 32
f 24 32 28
f 26 33 27
f 27 33 30
f 27 30 34
f 29 34 30

