# https://github.com/mikedh/trimesh
v 0.03362622 0.02494978 0.00290367
v 0.03305095 0.02692725 0.00360760
v 0.03305095 0.03003471 0.00290367
v 0.03520654 0.02494978 0.00290367
v 0.03305095 0.02494978 0.00716819
v 0.03305095 0.03223817 0.00290367
v 0.03616675 0.03085433 0.00290367
v 0.03616675 0.02494978 0.00442544
v 0.03305095 0.02494978 0.00853957
v 0.03305095 0.03224746 0.00292948
v 0.03306742 0.03224591 0.00290367
v 0.03616675 0.03285580 0.00290367
v 0.03616675 0.02494978 0.00873179
v 0.03616553 0.03285580 0.01199515
v 0.03305095 0.02617573 0.00894181
v 0.03453397 0.03285580 0.00290367
v 0.03305095 0.03285580 0.00482324
v 0.03616675 0.03285580 0.01196845
v 0.03616675 0.03282484 0.01197824
v 0.03305095 0.03285580 0.00916785
v 0.03305095 0.03284109 0.00916785
v 0.03305095 0.03214298 0.00914650
f 1 2 3
f 1 3 6
f 1 6 11
f 1 11 16
f 1 16 12
f 1 12 7
f 1 7 4
f 1 4 8
f 1 8 13
f 1 13 9
f 1 9 5
f 1 5 2
f 2 5 9
f 2 9 15
f 2 15 22
f 2 22 21
f 2 21 20
f 2 20 17
f 2 17 10
f 2 10 6
f 2 6 3
f 4 7 8
f 6 10 11
f 7 12 18
f 7 18 19
f 7 19 13
f 7 13 8
f 9 13 14
f 9 14 15
f 10 16 11
f 10 17 16
f 12 16 17
f 12 17 20
f 12 20 14
f 12 14 18
f 13 19 14
f 14 19 18
f 14 20 21
f 14 21 22
f 14 22 15

