# https://github.com/mikedh/trimesh
v -0.01588021 0.01112177 0.02147473
v -0.01480080 0.00953647 0.02104174
v -0.01480080 0.00953647 0.02077336
v -0.01599516 0.01112177 0.02056920
v -0.01671003 0.01112177 0.02181711
v -0.01480080 0.00928225 0.02104174
v -0.01480080 0.00928225 0.02077336
v -0.01590430 0.00920904 0.01752344
v -0.01593276 0.00969917 0.01752344
v -0.01642430 0.01112177 0.02011325
v -0.01681074 0.01112177 0.02184774
v -0.01598202 0.00813522 0.01769697
v -0.01685891 0.01112177 0.02186220
v -0.02419807 0.00073545 0.02186858
v -0.01598202 0.00813522 0.01752344
v -0.01660055 0.00976730 0.01752344
v -0.01662135 0.01112177 0.02007625
v -0.01811349 0.01092552 0.02186858
v -0.01817698 0.00965748 0.02186858
v -0.01833572 0.00918768 0.02186858
v -0.01859955 0.01112177 0.02186858
v -0.02531361 0.00073545 0.02186858
v -0.02432506 0.00073545 0.01752344
v -0.02009278 0.01112177 0.02039269
v -0.01889623 0.01112177 0.02003840
v -0.01781353 0.01112177 0.01994100
v -0.01777302 0.01112177 0.01993759
v -0.01771172 0.01112177 0.01993929
v -0.02565736 0.00595912 0.01752344
v -0.02171519 0.01112177 0.02186858
v -0.02572414 0.00309561 0.02186858
v -0.02567268 0.00073545 0.02020768
v -0.02550191 0.00073545 0.01752344
v -0.02077809 0.01112177 0.02091372
v -0.02572414 0.00590726 0.01752344
v -0.02143713 0.01112177 0.02152662
v -0.02532675 0.00677363 0.02186858
v -0.02584018 0.00400164 0.02186858
v -0.02569349 0.00073545 0.02005328
v -0.02570881 0.00073545 0.01913202
v -0.02577669 0.00258819 0.01752344
v -0.02585003 0.00528595 0.01752344
v -0.02576464 0.00623672 0.02186858
v -0.02585770 0.00436975 0.02186858
v -0.02587193 0.00402605 0.02152449
v -0.02570881 0.00073545 0.01938084
v -0.02595184 0.00402605 0.02032464
v -0.02598359 0.00402605 0.01912522
v -0.02596389 0.00402605 0.01792494
v -0.02589492 0.00366506 0.01752344
v -0.02591791 0.00399046 0.01752344
v -0.02590477 0.00522595 0.02152449
v -0.02586207 0.00560728 0.02186858
v -0.02588069 0.00522595 0.02186858
f 1 2 3
f 1 3 4
f 1 4 10
f 1 10 17
f 1 17 28
f 1 28 27
f 1 27 26
f 1 26 25
f 1 25 24
f 1 24 34
f 1 34 36
f 1 36 30
f 1 30 21
f 1 21 13
f 1 13 11
f 1 11 5
f 1 5 2
f 2 6 7
f 2 7 3
f 2 5 6
f 3 7 8
f 3 8 9
f 3 9 4
f 4 9 10
f 5 11 6
f 6 12 15
f 6 15 7
f 6 11 13
f 6 13 14
f 6 14 12
f 7 15 8
f 8 15 23
f 8 23 33
f 8 33 41
f 8 41 50
f 8 50 51
f 8 51 42
f 8 42 35
f 8 35 29
f 8 29 16
f 8 16 9
f 9 16 10
f 10 16 17
f 12 14 15
f 13 18 19
f 13 19 20
f 13 20 14
f 13 21 18
f 14 20 19
f 14 19 18
f 14 18 21
f 14 21 30
f 14 30 37
f 14 37 43
f 14 43 53
f 14 53 54
f 14 54 44
f 14 44 38
f 14 38 31
f 14 31 22
f 14 22 32
f 14 32 39
f 14 39 46
f 14 46 40
f 14 40 33
f 14 33 23
f 14 23 15
f 16 24 25
f 16 25 26
f 16 26 27
f 16 27 28
f 16 28 17
f 16 29 24
f 22 31 32
f 24 29 34
f 29 35 30
f 29 30 36
f 29 36 34
f 30 35 37
f 31 38 32
f 32 38 39
f 33 40 41
f 35 42 43
f 35 43 37
f 38 44 45
f 38 45 39
f 39 45 47
f 39 47 48
f 39 48 46
f 40 46 48
f 40 48 49
f 40 49 50
f 40 50 41
f 42 51 49
f 42 49 48
f 42 48 52
f 42 52 53
f 42 53 43
f 44 54 52
f 44 52 45
f 45 52 47
f 47 52 48
f 49 51 50
f 52 54 53

