# https://github.com/mikedh/trimesh
v 0.02069103 -0.02058944 0.01299241
v 0.01854274 -0.02058944 0.01299241
v 0.02018620 -0.02058944 0.01568201
v 0.01894470 -0.02201880 0.01568201
v 0.01848656 -0.02254037 0.01568201
v 0.01501527 -0.02646021 0.01568201
v 0.01502476 -0.02647176 0.01552483
v 0.01506274 -0.02651923 0.01432510
v 0.01502397 -0.02649678 0.01299241
v 0.01260823 -0.02582957 0.01299241
v 0.01260823 -0.02058944 0.01563936
v 0.01260823 -0.02058944 0.01568201
v 0.01493614 -0.02652116 0.01568201
v 0.01441469 -0.02684321 0.01568201
v 0.01442498 -0.02684193 0.01552483
v 0.01446296 -0.02685219 0.01432510
v 0.01443922 -0.02683359 0.01299241
v 0.01260823 -0.02714281 0.01299241
v 0.01260823 -0.02704594 0.01568201
v 0.01332828 -0.02706968 0.01568201
v 0.01332828 -0.02712677 0.01299241
v 0.01429838 -0.02687529 0.01299241
v 0.01319614 -0.02713576 0.01299241
f 1 2 11
f 1 11 12
f 1 12 3
f 1 3 4
f 1 4 5
f 1 5 6
f 1 6 7
f 1 7 8
f 1 8 9
f 1 9 17
f 1 17 22
f 1 22 21
f 1 21 23
f 1 23 18
f 1 18 10
f 1 10 2
f 2 10 11
f 3 12 19
f 3 19 20
f 3 20 14
f 3 14 13
f 3 13 6
f 3 6 5
f 3 5 4
f 6 13 7
f 7 13 8
f 8 13 14
f 8 14 15
f 8 15 16
f 8 16 17
f 8 17 9
f 10 18 19
f 10 19 12
f 10 12 11
f 14 16 15
f 14 20 21
f 14 21 16
f 16 21 22
f 16 22 17
f 18 23 20
f 18 20 19
f 20 23 21

