# https://github.com/mikedh/trimesh
v -0.00707268 -0.02357466 0.00608800
v -0.00107219 -0.02357466 0.00617721
v -0.00107219 -0.02459779 0.00635698
v -0.00707268 -0.02467335 0.00628129
v -0.01307171 -0.02357466 0.00628805
v -0.01427122 -0.02237481 0.00612990
v -0.01307171 -0.02237481 0.00611165
v -0.01500263 -0.02164357 0.00610760
v -0.01380165 -0.02164357 0.00610287
v -0.01307171 -0.02164357 0.00610489
v -0.00107219 -0.02237481 0.00625831
v -0.00084545 -0.02355821 0.00620897
v -0.00084545 -0.02374223 0.00622114
v -0.00261108 -0.02541191 0.00649823
v -0.00223659 -0.02487139 0.00638875
v -0.00084545 -0.02457219 0.00636712
v -0.00291534 -0.02541191 0.00649823
v -0.00707268 -0.02527236 0.00659353
v -0.01386602 -0.02424801 0.00646985
v -0.01426829 -0.02361548 0.00634684
v -0.01547073 -0.02237481 0.00621843
v -0.01578963 -0.02205733 0.00619613
v -0.01578963 -0.02164357 0.00615288
v -0.00107219 -0.02164357 0.00641916
v -0.00084545 -0.02164357 0.00644552
v -0.00084545 -0.02237481 0.00629210
v -0.00084545 -0.02256615 0.00627656
v -0.00181238 -0.02533574 0.00654622
v -0.00084545 -0.02673546 0.00761540
v -0.00347268 -0.02688536 0.00760864
v -0.00084545 -0.02468554 0.00641848
v -0.00467219 -0.02687805 0.00763635
v -0.01578963 -0.02690181 0.00850346
v -0.01578963 -0.02597435 0.00799050
v -0.01466618 -0.02404204 0.00660840
v -0.01578963 -0.02309813 0.00646647
v -0.01547073 -0.02319441 0.00642862
v -0.01578963 -0.02294701 0.00641375
v -0.01578963 -0.02236323 0.00626372
v -0.01578963 -0.02164357 0.01065670
v -0.00084545 -0.02164357 0.00961522
v -0.00084545 -0.02517181 0.00664151
v -0.00084545 -0.02534427 0.00673478
v -0.00084545 -0.02611695 0.00721530
v -0.00084545 -0.02726805 0.00832504
v -0.00347268 -0.02737225 0.00832504
v -0.00467219 -0.02737529 0.00832504
v -0.01497923 -0.02785426 0.00998221
v -0.01578963 -0.02723270 0.00913335
v -0.01578963 -0.02480985 0.01299241
v -0.01303221 -0.02164357 0.01102503
v -0.00084545 -0.02589574 0.01299241
v -0.01187073 -0.02164357 0.01100476
v -0.00084545 -0.02731558 0.00855145
v -0.00467219 -0.02785548 0.00983285
v -0.00467219 -0.02767206 0.00923405
v -0.01427122 -0.02786888 0.00996666
v -0.01497923 -0.02785426 0.01044313
v -0.01578963 -0.02733142 0.01035662
v -0.01578963 -0.02682077 0.01299241
v -0.00084545 -0.02717237 0.01299241
v -0.00084545 -0.02749534 0.00952534
v -0.00390714 -0.02781465 0.00992882
v -0.00467219 -0.02785548 0.01050801
v -0.01427122 -0.02786888 0.01055397
v -0.01427122 -0.02715287 0.01299241
v -0.01547073 -0.02696641 0.01299241
v -0.00240482 -0.02725890 0.01299241
v -0.00390714 -0.02781465 0.01033432
v -0.00084545 -0.02727292 0.01192458
v -0.00360579 -0.02727962 0.01299241
v -0.01080434 -0.02726317 0.01299241
v -0.01200385 -0.02722600 0.01299241
f 1 2 3
f 1 3 4
f 1 4 5
f 1 5 6
f 1 6 7
f 1 7 8
f 1 8 9
f 1 9 10
f 1 10 2
f 2 11 12
f 2 12 13
f 2 13 3
f 2 10 11
f 3 14 15
f 3 15 4
f 3 13 16
f 3 16 14
f 4 15 14
f 4 14 17
f 4 17 18
f 4 18 19
f 4 19 5
f 5 19 20
f 5 20 6
f 6 20 21
f 6 21 22
f 6 22 23
f 6 23 8
f 6 8 7
f 8 23 40
f 8 40 51
f 8 51 53
f 8 53 41
f 8 41 25
f 8 25 24
f 8 24 10
f 8 10 9
f 10 24 11
f 11 24 25
f 11 25 26
f 11 26 27
f 11 27 12
f 12 27 26
f 12 26 25
f 12 25 41
f 12 41 52
f 12 52 61
f 12 61 70
f 12 70 62
f 12 62 54
f 12 54 45
f 12 45 29
f 12 29 44
f 12 44 43
f 12 43 42
f 12 42 31
f 12 31 16
f 12 16 13
f 14 16 28
f 14 28 29
f 14 29 30
f 14 30 17
f 16 31 28
f 17 30 32
f 17 32 18
f 18 32 33
f 18 33 19
f 19 33 34
f 19 34 35
f 19 35 36
f 19 36 37
f 19 37 20
f 20 37 38
f 20 38 39
f 20 39 21
f 21 39 22
f 22 39 38
f 22 38 36
f 22 36 34
f 22 34 33
f 22 33 49
f 22 49 59
f 22 59 60
f 22 60 50
f 22 50 40
f 22 40 23
f 28 31 42
f 28 42 43
f 28 43 44
f 28 44 29
f 29 45 30
f 30 46 47
f 30 47 32
f 30 45 46
f 32 47 33
f 33 48 49
f 33 47 48
f 34 36 35
f 36 38 37
f 40 50 51
f 41 53 52
f 45 54 55
f 45 55 46
f 46 55 56
f 46 56 47
f 47 56 57
f 47 57 48
f 48 57 65
f 48 65 58
f 48 58 59
f 48 59 49
f 50 53 51
f 50 60 67
f 50 67 66
f 50 66 73
f 50 73 72
f 50 72 71
f 50 71 68
f 50 68 61
f 50 61 52
f 50 52 53
f 54 62 63
f 54 63 55
f 55 63 69
f 55 69 64
f 55 64 65
f 55 65 57
f 55 57 56
f 58 65 66
f 58 66 67
f 58 67 60
f 58 60 59
f 61 68 64
f 61 64 69
f 61 69 70
f 62 70 69
f 62 69 63
f 64 68 71
f 64 71 65
f 65 72 73
f 65 73 66
f 65 71 72

