# https://github.com/mikedh/trimesh
v 0.02039234 -0.01038404 0.02168433
v 0.02039234 -0.01038404 0.02186858
v 0.02039234 -0.01038300 0.02165175
v 0.02039278 -0.01038404 0.02165175
v 0.02060191 -0.01038404 0.02186858
v 0.02039234 -0.00686248 0.02186858
v 0.02039234 -0.00705993 0.01974883
v 0.02415038 -0.00633075 0.01974883
v 0.02439733 -0.00619286 0.01974883
v 0.02456552 -0.00606018 0.01974883
v 0.02437374 -0.00712261 0.02186858
v 0.02039234 -0.00674026 0.02181193
v 0.02321955 0.00028823 0.02186858
v 0.02039234 -0.00538115 0.01974883
v 0.02469678 -0.00588468 0.01974883
v 0.02478666 -0.00626285 0.02071139
v 0.02483471 -0.00657416 0.02186858
v 0.02039234 -0.00597661 0.02120439
v 0.02447653 0.00028823 0.02186858
v 0.02335125 0.00028823 0.01974883
v 0.02039234 -0.00558173 0.02044871
v 0.02487787 -0.00562560 0.01974883
v 0.02489567 -0.00595572 0.02186858
v 0.02474350 -0.00007113 0.02103902
v 0.02476040 0.00028823 0.02044622
v 0.02488321 -0.00558068 0.02186858
v 0.02475863 0.00028823 0.01974883
v 0.02493171 -0.00503015 0.01974883
v 0.02491258 -0.00557442 0.02152476
v 0.02476174 0.00028823 0.02040244
v 0.02493794 -0.00434171 0.01974883
v 0.02476174 0.00028823 0.02031591
f 1 2 6
f 1 6 12
f 1 12 18
f 1 18 21
f 1 21 14
f 1 14 7
f 1 7 3
f 1 3 4
f 1 4 5
f 1 5 2
f 2 5 11
f 2 11 17
f 2 17 23
f 2 23 26
f 2 26 19
f 2 19 13
f 2 13 6
f 3 7 4
f 4 7 8
f 4 8 9
f 4 9 5
f 5 9 10
f 5 10 11
f 6 13 12
f 7 14 20
f 7 20 27
f 7 27 31
f 7 31 28
f 7 28 22
f 7 22 15
f 7 15 10
f 7 10 9
f 7 9 8
f 10 15 16
f 10 16 11
f 11 16 17
f 12 13 18
f 13 19 25
f 13 25 30
f 13 30 32
f 13 32 27
f 13 27 20
f 13 20 14
f 13 14 21
f 13 21 18
f 15 22 16
f 16 22 17
f 17 22 23
f 19 24 25
f 19 26 24
f 22 28 23
f 23 28 29
f 23 29 26
f 24 26 29
f 24 29 25
f 25 29 31
f 25 31 30
f 27 32 31
f 28 31 29
f 30 31 32

