# https://github.com/mikedh/trimesh
v -0.03587192 -0.01277436 0.00681634
v -0.03508993 -0.01277436 0.00667584
v -0.03512721 -0.01157466 0.00664037
v -0.03587192 -0.01157466 0.00677338
v -0.03663760 -0.01157466 0.00665771
v -0.03664207 -0.01277436 0.00666540
v -0.03650129 -0.01365072 0.00655800
v -0.03587192 -0.01395204 0.00655958
v -0.03548238 -0.01395204 0.00653790
v -0.03522042 -0.01365571 0.00657436
v -0.03500973 -0.01395204 0.00613316
v -0.03494953 -0.01395204 0.00602104
v -0.03479321 -0.01277436 0.00592468
v -0.03498254 -0.01149096 0.00603522
v -0.03527013 -0.01097260 0.00652687
v -0.03587192 -0.01095586 0.00654382
v -0.03649546 -0.01095175 0.00654795
v -0.03677703 -0.01277436 0.00592468
v -0.03665994 -0.01154911 0.00598379
v -0.03665334 -0.01395204 0.00606478
v -0.03662576 -0.01395204 0.00612744
v -0.03492040 -0.01395204 0.00505449
v -0.03498254 -0.01183515 0.00510928
v -0.03527013 -0.01097260 0.00650894
v -0.03587192 -0.01095586 0.00643662
v -0.03649546 -0.01095175 0.00642302
v -0.03656420 -0.01193207 0.00521588
v -0.03667625 -0.01395204 0.00507400
v -0.03667936 -0.01395204 0.00508839
v -0.03666071 -0.01395204 0.00602419
v -0.03587192 -0.01395204 0.00480345
v -0.03497555 -0.01277436 0.00507164
v -0.03587192 -0.01173795 0.00508149
v -0.03587192 -0.01113795 0.00583660
v -0.03587192 -0.01277436 0.00490336
f 1 2 3
f 1 3 4
f 1 4 5
f 1 5 6
f 1 6 7
f 1 7 8
f 1 8 9
f 1 9 10
f 1 10 2
f 2 10 11
f 2 11 12
f 2 12 13
f 2 13 3
f 3 13 14
f 3 14 15
f 3 15 4
f 4 15 16
f 4 16 17
f 4 17 5
f 5 18 6
f 5 17 19
f 5 19 18
f 6 18 20
f 6 20 7
f 7 20 21
f 7 21 8
f 8 21 20
f 8 20 30
f 8 30 29
f 8 29 28
f 8 28 31
f 8 31 22
f 8 22 12
f 8 12 11
f 8 11 9
f 9 11 10
f 12 22 13
f 13 23 14
f 13 22 23
f 14 24 15
f 14 23 24
f 15 24 25
f 15 25 16
f 16 25 26
f 16 26 17
f 17 26 19
f 18 19 27
f 18 27 28
f 18 28 29
f 18 29 30
f 18 30 20
f 19 26 27
f 22 31 32
f 22 32 23
f 23 33 34
f 23 34 24
f 23 32 31
f 23 31 35
f 23 35 33
f 24 34 25
f 25 34 26
f 26 34 27
f 27 34 33
f 27 33 35
f 27 35 28
f 28 35 31

