# https://github.com/mikedh/trimesh
v -0.01961001 -0.02117515 -0.01568090
v -0.01961001 -0.02237476 -0.01570039
v -0.01961001 -0.02068910 -0.01577350
v -0.02027252 -0.02068910 -0.01581005
v -0.02385700 -0.02068910 -0.01610248
v -0.02468530 -0.02068910 -0.01617396
v -0.02392646 -0.02123546 -0.01608055
v -0.01961001 -0.02291277 -0.01571583
v -0.01961001 -0.02068910 -0.02136776
v -0.02468530 -0.02087659 -0.01617396
v -0.02630454 -0.02068910 -0.01673850
v -0.02103659 -0.02477399 -0.01613334
v -0.02027252 -0.02477399 -0.01600500
v -0.02027252 -0.02357497 -0.01584255
v -0.01961001 -0.02357497 -0.01578487
v -0.01961001 -0.02069089 -0.02194530
v -0.01961132 -0.02068910 -0.02194530
v -0.02630454 -0.02116798 -0.01680105
v -0.02630454 -0.02117754 -0.01680267
v -0.02091012 -0.02541350 -0.01624057
v -0.02630454 -0.02068910 -0.02304108
v -0.01961001 -0.02477399 -0.01596520
v -0.01961001 -0.02411238 -0.01585798
v -0.01961001 -0.02244702 -0.02235063
v -0.02630454 -0.02236402 -0.02374940
v -0.02266763 -0.02068910 -0.02247004
v -0.02589433 -0.02678927 -0.02010058
v -0.02630454 -0.02678927 -0.02036945
v -0.01961001 -0.02601958 -0.01682704
v -0.01961001 -0.02552576 -0.01620158
v -0.02491269 -0.02678927 -0.01968225
v -0.02629144 -0.02068910 -0.02304027
v -0.01961001 -0.02357497 -0.02252771
v -0.02502605 -0.02364066 -0.02374047
v -0.02539499 -0.02275990 -0.02364380
v -0.02630454 -0.02243149 -0.02376321
v -0.02315714 -0.02068910 -0.02254964
v -0.02630454 -0.02678927 -0.02376646
v -0.01961001 -0.02678927 -0.01807391
v -0.01961001 -0.02477399 -0.02265118
v -0.02496184 -0.02481400 -0.02377946
v -0.02627178 -0.02357497 -0.02397928
v -0.02630454 -0.02354213 -0.02397766
v -0.02630454 -0.02640233 -0.02379408
v -0.02628423 -0.02678927 -0.02376889
v -0.01961001 -0.02678927 -0.02244242
v -0.01961001 -0.02543619 -0.02263169
v -0.02515711 -0.02597420 -0.02379814
v -0.02535043 -0.02678927 -0.02368198
v -0.01961001 -0.02662207 -0.02248222
v -0.01961001 -0.02597420 -0.02257483
f 1 2 8
f 1 8 15
f 1 15 23
f 1 23 22
f 1 22 30
f 1 30 29
f 1 29 39
f 1 39 46
f 1 46 50
f 1 50 51
f 1 51 47
f 1 47 40
f 1 40 33
f 1 33 24
f 1 24 16
f 1 16 9
f 1 9 3
f 1 3 4
f 1 4 5
f 1 5 6
f 1 6 7
f 1 7 2
f 2 7 8
f 3 9 17
f 3 17 26
f 3 26 37
f 3 37 32
f 3 32 21
f 3 21 11
f 3 11 6
f 3 6 5
f 3 5 4
f 6 10 7
f 6 11 10
f 7 10 12
f 7 12 13
f 7 13 14
f 7 14 8
f 8 14 15
f 9 16 17
f 10 11 18
f 10 18 19
f 10 19 20
f 10 20 12
f 11 21 25
f 11 25 36
f 11 36 43
f 11 43 44
f 11 44 38
f 11 38 28
f 11 28 19
f 11 19 18
f 12 20 13
f 13 22 23
f 13 23 15
f 13 15 14
f 13 20 22
f 16 24 17
f 17 24 25
f 17 25 26
f 19 27 20
f 19 28 27
f 20 29 30
f 20 30 22
f 20 27 31
f 20 31 29
f 21 32 25
f 24 33 34
f 24 34 35
f 24 35 25
f 25 35 36
f 25 32 37
f 25 37 26
f 27 28 38
f 27 38 45
f 27 45 49
f 27 49 46
f 27 46 39
f 27 39 31
f 29 31 39
f 33 40 34
f 34 41 42
f 34 42 35
f 34 40 41
f 35 42 36
f 36 42 43
f 38 44 45
f 40 47 48
f 40 48 41
f 41 48 42
f 42 48 45
f 42 45 44
f 42 44 43
f 45 48 49
f 46 49 50
f 47 51 48
f 48 51 50
f 48 50 49

