# https://github.com/mikedh/trimesh
v 0.01092890 0.02717438 0.01974883
v 0.01138688 0.02714720 0.01974883
v 0.01332850 0.02690478 0.01752365
v 0.00972850 0.02716116 0.01974883
v 0.01270299 0.02706566 0.01974883
v 0.00887400 0.02678504 0.01752365
v 0.01332850 0.02699955 0.01974883
v 0.01452890 0.02666162 0.01752365
v 0.00887400 0.02709211 0.01974883
v 0.00887400 0.02553619 0.01752365
v 0.01390459 0.02687172 0.01974883
v 0.01452890 0.02670570 0.01912474
v 0.01517008 0.02627448 0.01752365
v 0.00887400 0.02531801 0.01974883
v 0.00973935 0.01967028 0.01790268
v 0.00973452 0.01967028 0.01791488
v 0.00951276 0.01967028 0.01912474
v 0.00995026 0.01967028 0.01752365
v 0.01452890 0.02672039 0.01974883
v 0.01484587 0.02652719 0.01974883
v 0.01518815 0.02630240 0.01912474
v 0.02118534 0.01967028 0.01752365
v 0.00951397 0.01967028 0.01925566
v 0.00951638 0.01967028 0.01937481
v 0.00954169 0.01967028 0.01974883
v 0.01518454 0.02630166 0.01974883
v 0.02118052 0.01967028 0.01792490
v 0.02104312 0.01967028 0.01974883
f 1 2 3
f 1 3 4
f 1 4 9
f 1 9 14
f 1 14 25
f 1 25 28
f 1 28 26
f 1 26 20
f 1 20 19
f 1 19 11
f 1 11 7
f 1 7 5
f 1 5 2
f 2 5 3
f 3 6 4
f 3 5 7
f 3 7 8
f 3 8 13
f 3 13 22
f 3 22 18
f 3 18 10
f 3 10 6
f 4 6 9
f 6 10 14
f 6 14 9
f 7 11 8
f 8 12 13
f 8 11 12
f 10 15 16
f 10 16 17
f 10 17 14
f 10 18 15
f 11 19 12
f 12 19 20
f 12 20 13
f 13 20 21
f 13 21 22
f 14 17 23
f 14 23 24
f 14 24 25
f 15 18 22
f 15 22 27
f 15 27 28
f 15 28 25
f 15 25 24
f 15 24 23
f 15 23 17
f 15 17 16
f 20 26 21
f 21 26 22
f 22 26 27
f 26 28 27

