# https://github.com/mikedh/trimesh
v -0.00016417 -0.01479905 -0.02093272
v -0.00263892 -0.02035000 -0.01979208
v -0.00016417 -0.01997538 -0.02006520
v -0.00016417 -0.01479905 -0.02230311
v -0.01638522 -0.01479905 -0.01978191
v -0.00347272 -0.02028172 -0.01974481
v -0.00016417 -0.02600428 -0.01959584
v -0.00016417 -0.01627168 -0.02230880
v -0.00035644 -0.01479905 -0.02230820
v -0.01654322 -0.01479905 -0.01978191
v -0.01787197 -0.01637502 -0.01960391
v -0.00016417 -0.03182465 -0.01959584
v -0.01961001 -0.01882386 -0.01959584
v -0.00016417 -0.02755257 -0.02233393
v -0.00587323 -0.01517552 -0.02243354
v -0.00585419 -0.01479905 -0.02241470
v -0.01901417 -0.01479905 -0.02035657
v -0.01852302 -0.01571991 -0.01984174
v -0.01787197 -0.01560918 -0.01977533
v -0.00016417 -0.02849556 -0.02194354
v -0.00585419 -0.03365159 -0.01959584
v -0.01961001 -0.01479905 -0.02052768
v -0.01961001 -0.03165303 -0.01959584
v -0.00016417 -0.02789396 -0.02233393
v -0.00624825 -0.01479905 -0.02241948
v -0.01961001 -0.02477340 -0.02265162
v -0.00590369 -0.03365159 -0.01959584
v -0.00587323 -0.03365159 -0.01959763
v -0.01961001 -0.01479905 -0.02194055
v -0.01961001 -0.02832209 -0.02184961
v -0.01667076 -0.02784598 -0.02231359
v -0.00560862 -0.02787366 -0.02232854
v -0.01961001 -0.02597291 -0.02257534
v -0.01961001 -0.02543590 -0.02263158
v -0.01614155 -0.01570699 -0.02230461
v -0.01904272 -0.01479905 -0.02197166
v -0.01961001 -0.01585277 -0.02205512
v -0.01860488 -0.01688988 -0.02229683
v -0.01859346 -0.02781092 -0.02229384
v -0.01787197 -0.02784229 -0.02230999
v -0.01961001 -0.02759686 -0.02219572
v -0.01961001 -0.02662064 -0.02248201
v -0.01961001 -0.02744922 -0.02224807
v -0.01961001 -0.02708753 -0.02237132
f 1 2 3
f 1 3 7
f 1 7 12
f 1 12 20
f 1 20 24
f 1 24 14
f 1 14 8
f 1 8 4
f 1 4 9
f 1 9 16
f 1 16 25
f 1 25 36
f 1 36 29
f 1 29 22
f 1 22 17
f 1 17 10
f 1 10 5
f 1 5 2
f 2 6 7
f 2 7 3
f 2 5 6
f 4 8 9
f 5 10 11
f 5 11 6
f 6 11 7
f 7 11 13
f 7 13 23
f 7 23 27
f 7 27 21
f 7 21 12
f 8 14 15
f 8 15 9
f 9 15 16
f 10 17 18
f 10 18 19
f 10 19 11
f 11 19 18
f 11 18 13
f 12 21 20
f 13 18 22
f 13 22 29
f 13 29 37
f 13 37 26
f 13 26 34
f 13 34 33
f 13 33 42
f 13 42 44
f 13 44 43
f 13 43 41
f 13 41 30
f 13 30 23
f 14 24 15
f 15 25 16
f 15 24 26
f 15 26 25
f 17 22 18
f 20 21 24
f 21 27 28
f 21 28 24
f 23 30 27
f 24 28 31
f 24 31 32
f 24 32 33
f 24 33 34
f 24 34 26
f 25 26 35
f 25 35 36
f 26 37 38
f 26 38 35
f 27 30 39
f 27 39 28
f 28 39 40
f 28 40 31
f 29 36 35
f 29 35 38
f 29 38 37
f 30 41 39
f 31 40 42
f 31 42 33
f 31 33 32
f 39 41 43
f 39 43 44
f 39 44 42
f 39 42 40

