# https://github.com/mikedh/trimesh
v -0.03450492 -0.03832710 -0.00988668
v -0.03467307 -0.03816414 -0.00988668
v -0.03112991 -0.03832710 -0.00988668
v -0.03461817 -0.03832710 -0.00761631
v -0.03536168 -0.03748673 -0.00988668
v -0.03142160 -0.03706148 -0.00988668
v -0.03109559 -0.03832710 -0.00967478
v -0.03463418 -0.03832710 -0.00727417
v -0.03656905 -0.03626571 -0.00988668
v -0.03483722 -0.03812489 -0.00727417
v -0.03194149 -0.03656724 -0.00988668
v -0.03141245 -0.03705910 -0.00967478
v -0.03105898 -0.03832710 -0.00921367
v -0.03463647 -0.03832710 -0.00647021
v -0.03483321 -0.03813381 -0.00607526
v -0.03665141 -0.03618066 -0.00988668
v -0.03659421 -0.03631507 -0.00487566
v -0.03220801 -0.03634897 -0.00988668
v -0.03204387 -0.03645900 -0.00967478
v -0.03379686 -0.03476992 -0.00487566
v -0.03161377 -0.03732436 -0.00269540
v -0.03122599 -0.03778291 -0.00269540
v -0.03080848 -0.03832710 -0.00269540
v -0.03463589 -0.03832710 -0.00607526
v -0.03459357 -0.03832710 -0.00269540
v -0.03665141 -0.03390694 -0.00988668
v -0.03665141 -0.03625441 -0.00487566
v -0.03657534 -0.03629069 -0.00392950
v -0.03371393 -0.03518327 -0.00988668
v -0.03635629 -0.03247717 -0.00344022
v -0.03635229 -0.03247241 -0.00269469
v -0.03384776 -0.03481928 -0.00367606
v -0.03390324 -0.03486448 -0.00269540
v -0.03565967 -0.03319384 -0.00269469
v -0.03665084 -0.03319384 -0.00269469
v -0.03665141 -0.03608610 -0.00269540
v -0.03665141 -0.03320513 -0.00480949
v -0.03665084 -0.03230469 -0.00360214
v -0.03665141 -0.03619969 -0.00387036
v -0.03665084 -0.03225473 -0.00304246
v -0.03646724 -0.03238736 -0.00269469
v -0.03588901 -0.03295415 -0.00269469
v -0.03665084 -0.03225176 -0.00269469
v -0.03665141 -0.03319384 -0.00269540
v -0.03665141 -0.03319384 -0.00365212
f 1 2 5
f 1 5 9
f 1 9 16
f 1 16 26
f 1 26 29
f 1 29 18
f 1 18 11
f 1 11 6
f 1 6 3
f 1 3 7
f 1 7 13
f 1 13 23
f 1 23 25
f 1 25 24
f 1 24 14
f 1 14 8
f 1 8 4
f 1 4 2
f 2 4 5
f 3 6 7
f 4 8 5
f 5 8 10
f 5 10 9
f 6 11 12
f 6 12 13
f 6 13 7
f 8 14 15
f 8 15 10
f 9 10 16
f 10 15 17
f 10 17 16
f 11 18 19
f 11 19 12
f 12 19 20
f 12 20 21
f 12 21 22
f 12 22 23
f 12 23 13
f 14 24 15
f 15 24 25
f 15 25 17
f 16 17 27
f 16 27 39
f 16 39 36
f 16 36 44
f 16 44 45
f 16 45 37
f 16 37 26
f 17 25 28
f 17 28 27
f 18 29 30
f 18 30 19
f 19 30 20
f 20 30 31
f 20 31 32
f 20 32 21
f 21 33 34
f 21 34 22
f 21 32 33
f 22 34 23
f 23 34 35
f 23 35 25
f 25 35 36
f 25 36 28
f 26 37 38
f 26 38 29
f 27 28 39
f 28 36 39
f 29 38 30
f 30 38 40
f 30 40 31
f 31 41 43
f 31 43 35
f 31 35 34
f 31 34 42
f 31 42 33
f 31 33 32
f 31 40 41
f 33 42 34
f 35 43 44
f 35 44 36
f 37 45 40
f 37 40 38
f 40 45 43
f 40 43 41
f 43 45 44

