# https://github.com/mikedh/trimesh
v 0.02287289 -0.05841815 -0.01447496
v 0.02287289 -0.05810569 -0.01113656
v 0.02287289 -0.05808585 -0.01559857
v 0.02892753 -0.05794996 -0.01539370
v 0.03012768 -0.05788449 -0.01535935
v 0.02892753 -0.05798666 -0.01447496
v 0.02772737 -0.05783589 -0.01021272
v 0.02652875 -0.05790136 -0.01016692
v 0.02287289 -0.05809081 -0.01108757
v 0.02287289 -0.05770892 -0.01619919
v 0.03012768 -0.05741630 -0.01647851
v 0.03073238 -0.05782399 -0.01523782
v 0.03017230 -0.05788648 -0.01443424
v 0.03073238 -0.05735282 -0.01647851
v 0.02834129 -0.05777736 -0.01027062
v 0.02881597 -0.05721097 -0.01006193
v 0.02772737 -0.05717427 -0.01002885
v 0.02652875 -0.05717427 -0.01007593
v 0.02553785 -0.05786366 -0.01020891
v 0.02287289 -0.05721593 -0.01067019
v 0.02287289 -0.05751351 -0.01647851
v 0.02292828 -0.05751351 -0.01647851
v 0.03073238 -0.05782597 -0.01473391
v 0.03073238 -0.05569332 -0.01647851
v 0.03060236 -0.05773769 -0.01400668
v 0.03073238 -0.05770793 -0.01408685
v 0.03073238 -0.05658308 -0.01026871
v 0.03012768 -0.05677552 -0.01011983
v 0.03012768 -0.05597404 -0.00998049
v 0.02892753 -0.05597404 -0.00997859
v 0.02550631 -0.05717427 -0.01020382
v 0.02652875 -0.05620218 -0.01018473
v 0.02575634 -0.05641148 -0.01024708
v 0.02287289 -0.05477381 -0.01075099
v 0.02287289 -0.05597404 -0.01064028
v 0.02287289 -0.05717427 -0.01065046
v 0.02287289 -0.04828461 -0.01647851
v 0.02637258 -0.05020300 -0.01647851
v 0.03073238 -0.05295064 -0.01508767
v 0.03073238 -0.05630832 -0.01011093
v 0.03073238 -0.05595321 -0.01004921
v 0.03073238 -0.05535904 -0.01002821
v 0.03073238 -0.05492160 -0.01010647
v 0.02287289 -0.05398423 -0.01103476
v 0.02287289 -0.04876967 -0.01573664
v 0.03073238 -0.05251618 -0.01208902
v 0.03073238 -0.05212536 -0.01327499
v 0.03073238 -0.05256677 -0.01445460
v 0.03073238 -0.05452582 -0.01030498
v 0.02287289 -0.05350414 -0.01120845
v 0.02287289 -0.04969315 -0.01445778
v 0.03073238 -0.05295164 -0.01148968
v 0.03073238 -0.05436017 -0.01039787
v 0.03073238 -0.05408045 -0.01058811
v 0.02287289 -0.05345256 -0.01124472
v 0.02317985 -0.05304686 -0.01156221
v 0.03073238 -0.05320855 -0.01123836
v 0.03073238 -0.05296750 -0.01146868
v 0.03073238 -0.05357853 -0.01095395
f 1 2 9
f 1 9 20
f 1 20 36
f 1 36 35
f 1 35 34
f 1 34 44
f 1 44 50
f 1 50 55
f 1 55 51
f 1 51 45
f 1 45 37
f 1 37 21
f 1 21 10
f 1 10 3
f 1 3 4
f 1 4 5
f 1 5 6
f 1 6 7
f 1 7 8
f 1 8 2
f 2 8 9
f 3 10 11
f 3 11 4
f 4 11 5
f 5 12 13
f 5 13 6
f 5 11 14
f 5 14 12
f 6 13 7
f 7 13 15
f 7 15 16
f 7 16 8
f 8 16 17
f 8 17 18
f 8 18 19
f 8 19 9
f 9 19 20
f 10 21 22
f 10 22 11
f 11 22 21
f 11 21 37
f 11 37 38
f 11 38 24
f 11 24 14
f 12 23 13
f 12 14 24
f 12 24 39
f 12 39 48
f 12 48 47
f 12 47 46
f 12 46 52
f 12 52 58
f 12 58 57
f 12 57 59
f 12 59 54
f 12 54 53
f 12 53 49
f 12 49 43
f 12 43 42
f 12 42 41
f 12 41 40
f 12 40 27
f 12 27 26
f 12 26 23
f 13 23 15
f 15 23 25
f 15 25 26
f 15 26 27
f 15 27 28
f 15 28 16
f 16 28 29
f 16 29 17
f 17 29 30
f 17 30 18
f 18 31 19
f 18 30 32
f 18 32 33
f 18 33 34
f 18 34 35
f 18 35 31
f 19 36 20
f 19 31 36
f 23 26 25
f 24 38 39
f 27 40 28
f 28 40 29
f 29 40 41
f 29 41 42
f 29 42 30
f 30 42 43
f 30 43 34
f 30 34 32
f 31 35 36
f 32 34 33
f 34 43 44
f 37 45 46
f 37 46 47
f 37 47 38
f 38 47 48
f 38 48 39
f 43 49 50
f 43 50 44
f 45 51 46
f 46 51 52
f 49 53 50
f 50 53 54
f 50 54 55
f 51 55 56
f 51 56 57
f 51 57 58
f 51 58 52
f 54 59 55
f 55 57 56
f 55 59 57

