# https://github.com/mikedh/trimesh
v -0.03829964 0.05060992 -0.01357923
v -0.03829964 0.04362377 -0.01347446
v -0.03829964 0.05060992 -0.01866409
v -0.03848757 0.05060992 -0.01352952
v -0.03829964 0.04302699 -0.01348194
v -0.03947219 0.04962495 -0.01342689
v -0.04187228 0.04602572 -0.01323019
v -0.03829964 0.04302699 -0.01866409
v -0.04123053 0.05060992 -0.01866409
v -0.03948119 0.05060992 -0.01357228
v -0.04547191 0.04302699 -0.01320399
v -0.04074271 0.04969026 -0.01352043
v -0.04187228 0.04722522 -0.01324515
v -0.04307282 0.04602572 -0.01320560
v -0.04846578 0.04302699 -0.01866409
v -0.04117255 0.05012152 -0.01447561
v -0.04065974 0.05060992 -0.01447561
v -0.04742218 0.04435935 -0.01866409
v -0.04849377 0.04304629 -0.01496469
v -0.04482216 0.04658019 -0.01447561
v -0.03977208 0.05060992 -0.01359152
v -0.04606969 0.04302699 -0.01321201
v -0.04017093 0.05060992 -0.01364657
v -0.04038984 0.05052234 -0.01365780
v -0.04436334 0.04612148 -0.01349851
v -0.04742218 0.04302699 -0.01348141
v -0.04850976 0.04302699 -0.01517262
v -0.04813490 0.04363268 -0.01866409
v -0.04048381 0.05060992 -0.01407847
v -0.04851076 0.04302699 -0.01495187
v -0.04834583 0.04302699 -0.01421316
v -0.04033186 0.05060992 -0.01375027
v -0.04827185 0.04302699 -0.01408060
v -0.04402546 0.04696171 -0.01368666
v -0.04519702 0.04578523 -0.01368078
v -0.04760511 0.04334097 -0.01365887
v -0.04773606 0.04302699 -0.01359152
f 1 2 5
f 1 5 8
f 1 8 3
f 1 3 9
f 1 9 17
f 1 17 29
f 1 29 32
f 1 32 23
f 1 23 21
f 1 21 10
f 1 10 4
f 1 4 2
f 2 4 6
f 2 6 7
f 2 7 5
f 3 8 15
f 3 15 28
f 3 28 18
f 3 18 9
f 4 10 6
f 5 7 11
f 5 11 22
f 5 22 26
f 5 26 37
f 5 37 33
f 5 33 31
f 5 31 30
f 5 30 27
f 5 27 15
f 5 15 8
f 6 10 12
f 6 12 13
f 6 13 7
f 7 14 11
f 7 13 14
f 9 16 17
f 9 18 19
f 9 19 20
f 9 20 16
f 10 21 12
f 11 14 22
f 12 21 23
f 12 23 24
f 12 24 25
f 12 25 14
f 12 14 13
f 14 25 26
f 14 26 22
f 15 27 28
f 16 24 17
f 16 20 24
f 17 24 29
f 18 28 19
f 19 28 30
f 19 30 20
f 20 30 31
f 20 31 24
f 23 32 24
f 24 32 29
f 24 31 33
f 24 33 34
f 24 34 35
f 24 35 36
f 24 36 37
f 24 37 25
f 25 37 26
f 27 30 28
f 33 37 36
f 33 36 35
f 33 35 34

