# https://github.com/mikedh/trimesh
v -0.02587459 -0.01397334 0.02392507
v -0.02584987 -0.01395329 0.02271445
v -0.02585261 -0.01517417 0.02272521
v -0.02569332 -0.01461010 0.02596501
v -0.02569881 -0.01397334 0.02595052
v -0.02573543 -0.00923772 0.02520692
v -0.02574092 -0.00807450 0.02505083
v -0.02583156 -0.00797673 0.02392507
v -0.02578395 -0.00556505 0.02186858
v -0.02581874 -0.01469033 0.02186858
v -0.02581965 -0.01510899 0.02186858
v -0.02578578 -0.01575076 0.02186858
v -0.02569789 -0.01582848 0.02340050
v -0.02548183 -0.01479813 0.02609791
v -0.02566951 -0.01446470 0.02609791
v -0.02463406 -0.01716970 0.02392507
v -0.02448941 -0.01699170 0.02455068
v -0.02567134 -0.01397334 0.02609791
v -0.02567134 -0.01366499 0.02609791
v -0.02568324 -0.00853828 0.02575013
v -0.02532985 -0.00197510 0.02609791
v -0.02576747 -0.00676838 0.02396068
v -0.02522640 -0.00038319 0.02512452
v -0.02526211 -0.00038319 0.02186858
v -0.02574184 -0.01594129 0.02186858
v -0.02547634 -0.01654045 0.02186858
v -0.02541958 -0.01644017 0.02272521
v -0.02481900 -0.01736775 0.02272521
v -0.02503689 -0.01534213 0.02609791
v -0.02425779 -0.01796941 0.02272521
v -0.01652169 -0.02570083 0.02388781
v -0.02566036 -0.01277502 0.02609791
v -0.02563381 -0.01189508 0.02609791
v -0.02518795 -0.00038319 0.02609791
v -0.02415891 -0.00038319 0.02186858
v -0.02487668 -0.01738780 0.02186858
v -0.02471554 -0.01756078 0.02186858
v -0.02481900 -0.01554018 0.02609791
v -0.01652169 -0.02599414 0.02186858
v -0.01652169 -0.02481086 0.02462934
v -0.02392363 -0.00038319 0.02609791
v -0.02411771 -0.00038319 0.02233354
v -0.01836188 -0.00708676 0.02186858
v -0.02440885 -0.01583851 0.02609791
v -0.01652169 -0.01163436 0.02186858
v -0.01652169 -0.02110309 0.02546403
v -0.01711953 -0.02063429 0.02575178
v -0.01733193 -0.02063429 0.02575178
v -0.02408476 -0.00038319 0.02272521
v -0.01652169 -0.01466526 0.02609791
v -0.02387144 -0.01610675 0.02609791
v -0.01652169 -0.01726997 0.02609791
v -0.02264648 -0.01640006 0.02609791
f 1 2 3
f 1 3 4
f 1 4 5
f 1 5 6
f 1 6 7
f 1 7 8
f 1 8 9
f 1 9 2
f 2 10 11
f 2 11 3
f 2 9 10
f 3 11 12
f 3 12 13
f 3 13 4
f 4 14 15
f 4 15 5
f 4 13 16
f 4 16 17
f 4 17 14
f 5 18 19
f 5 19 20
f 5 20 6
f 5 15 18
f 6 20 7
f 7 21 22
f 7 22 8
f 7 20 21
f 8 22 9
f 9 22 21
f 9 21 23
f 9 23 24
f 9 24 35
f 9 35 43
f 9 43 45
f 9 45 39
f 9 39 37
f 9 37 36
f 9 36 26
f 9 26 25
f 9 25 12
f 9 12 11
f 9 11 10
f 12 25 13
f 13 25 26
f 13 26 27
f 13 27 28
f 13 28 16
f 14 29 38
f 14 38 44
f 14 44 51
f 14 51 53
f 14 53 52
f 14 52 50
f 14 50 41
f 14 41 34
f 14 34 21
f 14 21 33
f 14 33 32
f 14 32 19
f 14 19 18
f 14 18 15
f 14 17 29
f 16 28 30
f 16 30 31
f 16 31 17
f 17 31 29
f 19 32 20
f 20 32 33
f 20 33 21
f 21 34 23
f 23 34 41
f 23 41 49
f 23 49 42
f 23 42 35
f 23 35 24
f 26 36 28
f 26 28 27
f 28 36 37
f 28 37 30
f 29 31 38
f 30 37 39
f 30 39 31
f 31 39 45
f 31 45 50
f 31 50 52
f 31 52 46
f 31 46 40
f 31 40 38
f 35 42 43
f 38 40 44
f 40 46 47
f 40 47 48
f 40 48 44
f 41 43 49
f 41 50 43
f 42 49 43
f 43 50 45
f 44 48 51
f 46 52 47
f 47 52 48
f 48 52 53
f 48 53 51

