# https://github.com/mikedh/trimesh
v 0.02223744 -0.04106724 -0.00988578
v 0.02223744 -0.03941980 -0.00988578
v 0.02284288 -0.04128330 -0.00988578
v 0.02223744 -0.04110895 -0.00982722
v 0.02223744 -0.03925248 -0.00847487
v 0.03050114 -0.03723150 -0.00988578
v 0.02223744 -0.04119566 -0.00970379
v 0.02388674 -0.04149468 -0.00988578
v 0.02223744 -0.03918030 -0.00778292
v 0.02914166 -0.03723150 -0.00068239
v 0.03432413 -0.03723150 -0.00988578
v 0.02223744 -0.03913765 -0.00727478
v 0.02223744 -0.03898064 -0.00367541
v 0.02223744 -0.04162732 -0.00316726
v 0.02412867 -0.04151999 -0.00988578
v 0.02412867 -0.04153593 -0.00967496
v 0.03474782 -0.03723150 -0.00068239
v 0.02223744 -0.03898814 -0.00247532
v 0.02223744 -0.03900126 -0.00178337
v 0.02223744 -0.03902423 -0.00068239
v 0.03454641 -0.03723150 -0.00712431
v 0.03329623 -0.03850539 -0.00988578
v 0.02223744 -0.04164185 -0.00127523
v 0.02532850 -0.04177496 -0.00727478
v 0.02292884 -0.04170559 -0.00127523
v 0.02892798 -0.04179277 -0.00988578
v 0.02892798 -0.04193571 -0.00847487
v 0.03211728 -0.03999816 -0.00068239
v 0.03214676 -0.04003940 -0.00127523
v 0.03478220 -0.03723150 -0.00247532
v 0.02223744 -0.04160717 -0.00068239
v 0.03472325 -0.03723150 -0.00367541
v 0.03309728 -0.03873551 -0.00988578
v 0.02892798 -0.04198493 -0.00727478
v 0.02292884 -0.04165544 -0.00068239
v 0.02892798 -0.04201164 -0.00367541
v 0.02892798 -0.04201961 -0.00247532
v 0.02892798 -0.04197415 -0.00127523
v 0.02892798 -0.04195118 -0.00068239
v 0.03012780 -0.04161420 -0.00988578
v 0.03012780 -0.04177214 -0.00847487
v 0.03151798 -0.04059808 -0.00068239
v 0.03154500 -0.04063979 -0.00127523
v 0.03094202 -0.04121112 -0.00847487
v 0.03098254 -0.04103771 -0.00988578
v 0.03012780 -0.04172199 -0.00487550
v 0.03012780 -0.04166341 -0.00127523
v 0.03012780 -0.04163388 -0.00068239
v 0.03074184 -0.04122659 -0.00988578
v 0.03087693 -0.04114082 -0.00988578
v 0.03094570 -0.04114973 -0.00127523
v 0.03122079 -0.04087132 -0.00068239
v 0.03091746 -0.04112957 -0.00068239
f 1 2 6
f 1 6 11
f 1 11 22
f 1 22 33
f 1 33 45
f 1 45 50
f 1 50 49
f 1 49 40
f 1 40 26
f 1 26 15
f 1 15 8
f 1 8 3
f 1 3 4
f 1 4 7
f 1 7 14
f 1 14 23
f 1 23 31
f 1 31 20
f 1 20 19
f 1 19 18
f 1 18 13
f 1 13 12
f 1 12 9
f 1 9 5
f 1 5 2
f 2 5 6
f 3 7 4
f 3 8 7
f 5 9 6
f 6 10 17
f 6 17 30
f 6 30 32
f 6 32 21
f 6 21 11
f 6 9 12
f 6 12 13
f 6 13 10
f 7 8 14
f 8 15 16
f 8 16 14
f 10 13 18
f 10 18 19
f 10 19 20
f 10 20 31
f 10 31 35
f 10 35 39
f 10 39 48
f 10 48 53
f 10 53 52
f 10 52 42
f 10 42 28
f 10 28 17
f 11 21 22
f 14 16 24
f 14 24 25
f 14 25 23
f 15 26 27
f 15 27 16
f 16 27 24
f 17 28 29
f 17 29 30
f 21 32 33
f 21 33 22
f 23 25 31
f 24 27 34
f 24 34 25
f 25 35 31
f 25 34 36
f 25 36 37
f 25 37 38
f 25 38 39
f 25 39 35
f 26 40 41
f 26 41 27
f 27 41 34
f 28 42 29
f 29 42 43
f 29 43 44
f 29 44 30
f 30 33 32
f 30 44 33
f 33 44 45
f 34 41 36
f 36 41 37
f 37 41 46
f 37 46 47
f 37 47 38
f 38 47 39
f 39 47 48
f 40 49 41
f 41 49 50
f 41 50 44
f 41 44 51
f 41 51 46
f 42 52 43
f 43 52 53
f 43 53 51
f 43 51 44
f 44 50 45
f 46 51 47
f 47 51 48
f 48 51 53

