# https://github.com/mikedh/trimesh
v -0.01361154 -0.04660346 -0.01692095
v -0.01361154 -0.05092136 -0.01680489
v -0.01361154 -0.04660346 -0.01920093
v -0.01476941 -0.04660346 -0.01680489
v -0.01361154 -0.05445185 -0.01680489
v -0.01404459 -0.04660346 -0.01927220
v -0.01361154 -0.04823624 -0.01938352
v -0.01605012 -0.05029676 -0.02230628
v -0.01655996 -0.04992789 -0.02274001
v -0.01683637 -0.04877529 -0.02272169
v -0.01756938 -0.04877529 -0.02332171
v -0.01838941 -0.04809826 -0.02350973
v -0.01799526 -0.04763648 -0.02282010
v -0.01840169 -0.04694197 -0.02234972
v -0.01907123 -0.04692541 -0.02238026
v -0.02235646 -0.04660346 -0.01680489
v -0.01361154 -0.05482164 -0.01693589
v -0.02262674 -0.05543887 -0.01680489
v -0.01952475 -0.04660346 -0.02009758
v -0.01361154 -0.04877529 -0.01941203
v -0.01361154 -0.05600000 -0.01956475
v -0.01605524 -0.05117524 -0.02229882
v -0.01742401 -0.04997481 -0.02343235
v -0.01816930 -0.04877529 -0.02354367
v -0.01907123 -0.04877529 -0.02363123
v -0.01907123 -0.04806422 -0.02352942
v -0.01907123 -0.04746446 -0.02298029
v -0.01980629 -0.04694197 -0.02234090
v -0.02027107 -0.04660346 -0.02018785
v -0.02406921 -0.04660346 -0.01740491
v -0.02387470 -0.04876057 -0.01680489
v -0.01361154 -0.05521443 -0.01708929
v -0.02311814 -0.05477380 -0.01680489
v -0.02406921 -0.05477380 -0.01699765
v -0.02406921 -0.05562101 -0.01724201
v -0.02406921 -0.05571944 -0.01732211
v -0.02406921 -0.05600000 -0.01757664
v -0.02351741 -0.05600000 -0.01750198
v -0.01361154 -0.05600000 -0.01763909
v -0.01361154 -0.05562193 -0.01727324
v -0.01607162 -0.05177500 -0.02227574
v -0.01893712 -0.05600000 -0.01995368
v -0.01830239 -0.05427799 -0.02238434
v -0.01712507 -0.05314010 -0.02237552
v -0.01670430 -0.05225518 -0.02247597
v -0.01782532 -0.05118445 -0.02328438
v -0.01819490 -0.05079074 -0.02353892
v -0.01802393 -0.04997481 -0.02356607
v -0.01667257 -0.05117524 -0.02274612
v -0.01907123 -0.04997481 -0.02369028
v -0.02027107 -0.04997481 -0.02373915
v -0.02022603 -0.04877345 -0.02359526
v -0.01979605 -0.04810470 -0.02351245
v -0.02020146 -0.04758589 -0.02285404
v -0.02060687 -0.04706800 -0.02202867
v -0.02406921 -0.04660346 -0.01910251
v -0.02128050 -0.04660346 -0.01994282
v -0.02406921 -0.04936125 -0.01680489
v -0.02406409 -0.05116145 -0.01680489
v -0.02406921 -0.05106854 -0.01680489
v -0.02406921 -0.05600000 -0.01959393
v -0.01907123 -0.05429731 -0.02240470
v -0.02267178 -0.05600000 -0.01973715
v -0.01789084 -0.05355405 -0.02251195
v -0.02027107 -0.05252103 -0.02330203
v -0.01954216 -0.05184492 -0.02350159
v -0.01911423 -0.05118445 -0.02358168
v -0.02027107 -0.05117524 -0.02365770
v -0.02116686 -0.05117524 -0.02357218
v -0.02131019 -0.04997481 -0.02361426
v -0.02112079 -0.04917268 -0.02355928
v -0.02059663 -0.04837238 -0.02336719
v -0.02119757 -0.04786829 -0.02256693
v -0.02228787 -0.04905125 -0.02259815
v -0.02236977 -0.04997481 -0.02278820
v -0.02155896 -0.04871181 -0.02298233
v -0.02191113 -0.04997481 -0.02338823
v -0.02176678 -0.05117524 -0.02323958
v -0.02092935 -0.05189919 -0.02350294
v -0.02115355 -0.05330476 -0.02258389
v -0.02028336 -0.05365248 -0.02265517
v -0.01989228 -0.05423384 -0.02233886
v -0.02027107 -0.05192035 -0.02351652
f 1 2 5
f 1 5 17
f 1 17 32
f 1 32 40
f 1 40 39
f 1 39 21
f 1 21 20
f 1 20 7
f 1 7 3
f 1 3 6
f 1 6 19
f 1 19 29
f 1 29 57
f 1 57 56
f 1 56 30
f 1 30 16
f 1 16 4
f 1 4 2
f 2 4 16
f 2 16 31
f 2 31 58
f 2 58 60
f 2 60 59
f 2 59 33
f 2 33 18
f 2 18 5
f 3 7 8
f 3 8 9
f 3 9 10
f 3 10 11
f 3 11 12
f 3 12 13
f 3 13 14
f 3 14 15
f 3 15 6
f 5 18 17
f 6 15 19
f 7 20 8
f 8 20 21
f 8 21 22
f 8 22 9
f 9 23 11
f 9 11 10
f 9 22 23
f 11 23 24
f 11 24 12
f 12 24 25
f 12 25 26
f 12 26 27
f 12 27 14
f 12 14 13
f 14 27 15
f 15 27 28
f 15 28 29
f 15 29 19
f 16 30 31
f 17 18 32
f 18 33 34
f 18 34 35
f 18 35 36
f 18 36 37
f 18 37 38
f 18 38 39
f 18 39 40
f 18 40 32
f 21 41 22
f 21 39 38
f 21 38 37
f 21 37 61
f 21 61 63
f 21 63 42
f 21 42 43
f 21 43 44
f 21 44 45
f 21 45 41
f 22 41 23
f 23 46 47
f 23 47 48
f 23 48 24
f 23 41 49
f 23 49 45
f 23 45 46
f 24 48 50
f 24 50 25
f 25 50 51
f 25 51 52
f 25 52 26
f 26 52 53
f 26 53 27
f 27 53 28
f 28 53 54
f 28 54 55
f 28 55 56
f 28 56 57
f 28 57 29
f 30 56 61
f 30 61 37
f 30 37 36
f 30 36 35
f 30 35 34
f 30 34 60
f 30 60 58
f 30 58 31
f 33 59 34
f 34 59 60
f 41 45 49
f 42 62 43
f 42 63 62
f 43 47 64
f 43 64 44
f 43 62 65
f 43 65 66
f 43 66 47
f 44 64 46
f 44 46 45
f 46 64 47
f 47 50 48
f 47 66 67
f 47 67 50
f 50 67 68
f 50 68 51
f 51 68 69
f 51 69 70
f 51 70 71
f 51 71 52
f 52 71 53
f 53 71 72
f 53 72 54
f 54 72 73
f 54 73 55
f 55 73 56
f 56 74 75
f 56 75 61
f 56 73 76
f 56 76 74
f 61 75 77
f 61 77 78
f 61 78 79
f 61 79 80
f 61 80 81
f 61 81 82
f 61 82 62
f 61 62 63
f 62 82 81
f 62 81 65
f 65 81 79
f 65 79 83
f 65 83 66
f 66 83 68
f 66 68 67
f 68 83 79
f 68 79 69
f 69 79 78
f 69 78 77
f 69 77 70
f 70 77 71
f 71 77 76
f 71 76 72
f 72 76 73
f 74 76 77
f 74 77 75
f 79 81 80

