# https://github.com/mikedh/trimesh
v 0.03472772 -0.00197507 -0.01111789
v 0.03473761 0.00029950 -0.01112766
v 0.03473212 -0.00077636 -0.01112278
v 0.03399082 -0.00197507 -0.01111789
v 0.03471857 -0.00317565 -0.01111985
v 0.03473395 -0.00437622 -0.01112571
v 0.03773210 -0.01513485 -0.01208063
v 0.03773210 -0.00557493 -0.01249561
v 0.03773210 0.00029950 -0.01343003
v 0.03400767 0.00029950 -0.01112766
v 0.03399668 -0.00077636 -0.01112278
v 0.03399082 -0.00134035 -0.01112082
v 0.03399082 -0.00317565 -0.01111985
v 0.03399082 -0.00437622 -0.01112571
v 0.03476142 -0.00557493 -0.01114914
v 0.03448563 -0.00890303 -0.01140105
v 0.03424427 -0.00890303 -0.01140105
v 0.03492367 -0.01871237 -0.01257274
v 0.03773210 -0.01626283 -0.01222612
v 0.03473175 -0.00677551 -0.01121651
v 0.03463067 -0.00797608 -0.01131318
v 0.03773210 0.00029950 -0.01961166
v 0.03399082 0.00029950 -0.01660042
v 0.03399082 -0.00557493 -0.01114914
v 0.03399082 -0.00561961 -0.01115109
v 0.03431459 -0.01871237 -0.01265671
v 0.03434096 -0.01871237 -0.01265281
v 0.03414867 -0.00797608 -0.01131318
v 0.03496213 -0.01871237 -0.01257274
v 0.03773210 -0.01667232 -0.01251806
v 0.03561699 -0.01871237 -0.01259129
v 0.03405015 -0.00677551 -0.01121651
v 0.03773210 0.00019526 -0.01961557
v 0.03710691 0.00029950 -0.02026195
v 0.03399082 0.00029950 -0.02079116
v 0.03399082 -0.01871237 -0.01686991
v 0.03773210 -0.01871237 -0.01412816
v 0.03773210 -0.00077636 -0.01964486
v 0.03773210 -0.00085826 -0.01964681
v 0.03713475 -0.00437622 -0.02029905
v 0.03704501 0.00029950 -0.02032444
v 0.03546316 0.00029950 -0.02109287
v 0.03399082 0.00014501 -0.02079897
v 0.03399082 -0.01871237 -0.02104210
v 0.03773210 -0.01871237 -0.01962143
v 0.03773210 -0.00317937 -0.01967122
v 0.03708164 -0.00557493 -0.02033713
v 0.03633448 0.00029950 -0.02086244
v 0.03773210 -0.01276720 -0.01970345
v 0.03773210 -0.01277279 -0.01970345
v 0.03713547 -0.01277279 -0.02025804
v 0.03399082 -0.00197507 -0.02086634
v 0.03399082 -0.00077636 -0.02083413
v 0.03399082 0.00005008 -0.02080288
v 0.03564372 0.00029950 -0.02109287
v 0.03550052 -0.01705204 -0.02108311
v 0.03555179 -0.01705204 -0.02108311
v 0.03498081 -0.01871237 -0.02102452
v 0.03707871 -0.01871237 -0.02020630
v 0.03624365 0.00029950 -0.02092395
v 0.03710728 -0.01397336 -0.02025902
v 0.03603012 -0.01871237 -0.02083901
v 0.03612791 -0.00557493 -0.02092493
v 0.03702963 -0.01871237 -0.02023656
f 1 2 3
f 1 3 11
f 1 11 4
f 1 4 13
f 1 13 5
f 1 5 6
f 1 6 7
f 1 7 2
f 2 8 9
f 2 9 22
f 2 22 34
f 2 34 41
f 2 41 48
f 2 48 60
f 2 60 55
f 2 55 42
f 2 42 35
f 2 35 23
f 2 23 10
f 2 10 11
f 2 11 3
f 2 7 8
f 4 11 12
f 4 12 23
f 4 23 35
f 4 35 43
f 4 43 54
f 4 54 53
f 4 53 52
f 4 52 44
f 4 44 36
f 4 36 25
f 4 25 24
f 4 24 14
f 4 14 13
f 5 13 14
f 5 14 6
f 6 14 24
f 6 24 15
f 6 15 7
f 7 16 17
f 7 17 18
f 7 18 19
f 7 19 30
f 7 30 37
f 7 37 45
f 7 45 50
f 7 50 49
f 7 49 46
f 7 46 39
f 7 39 38
f 7 38 33
f 7 33 22
f 7 22 9
f 7 9 8
f 7 15 20
f 7 20 21
f 7 21 16
f 10 23 12
f 10 12 11
f 15 24 25
f 15 25 20
f 16 21 28
f 16 28 17
f 17 26 27
f 17 27 18
f 17 28 26
f 18 27 26
f 18 26 36
f 18 36 44
f 18 44 58
f 18 58 62
f 18 62 64
f 18 64 59
f 18 59 45
f 18 45 37
f 18 37 31
f 18 31 29
f 18 29 19
f 19 29 31
f 19 31 30
f 20 25 32
f 20 32 28
f 20 28 21
f 22 33 34
f 25 36 26
f 25 26 32
f 26 28 32
f 30 31 37
f 33 38 34
f 34 38 39
f 34 39 40
f 34 40 41
f 35 42 43
f 39 46 40
f 40 47 48
f 40 48 41
f 40 46 49
f 40 49 50
f 40 50 51
f 40 51 47
f 42 52 53
f 42 53 54
f 42 54 43
f 42 55 57
f 42 57 56
f 42 56 44
f 42 44 52
f 44 56 57
f 44 57 58
f 45 59 51
f 45 51 50
f 47 60 48
f 47 51 60
f 51 59 61
f 51 61 62
f 51 62 60
f 55 60 57
f 57 60 63
f 57 63 62
f 57 62 58
f 59 64 61
f 60 62 63
f 61 64 62

