# https://github.com/mikedh/trimesh
v -0.03517743 -0.00077571 -0.01139771
v -0.03515764 0.00030136 -0.01198816
v -0.03521373 0.00019896 -0.01142866
v -0.03542267 -0.00077571 -0.01139771
v -0.03518330 -0.00197530 -0.01140088
v -0.03510485 -0.00077571 -0.01207546
v -0.03506600 0.00030136 -0.01639359
v -0.03517047 0.00030136 -0.01186912
v -0.03536292 0.00019896 -0.01142866
v -0.03520016 0.00030136 -0.01159611
v -0.03550002 0.00030136 -0.01155960
v -0.03542084 -0.00197530 -0.01140088
v -0.03881057 0.00030136 -0.01318733
v -0.03881057 -0.00077571 -0.01315559
v -0.03881057 -0.00797509 -0.01297940
v -0.03512501 -0.00197530 -0.01207546
v -0.03522179 -0.00269945 -0.01143263
v -0.03506600 -0.01356343 -0.01615867
v -0.03506600 -0.01277711 -0.01599757
v -0.03506600 -0.01158849 -0.01591424
v -0.03506600 0.00030136 -0.01931731
v -0.03536072 -0.00269945 -0.01143263
v -0.03881057 -0.01637405 -0.01303734
v -0.03881057 0.00030136 -0.01924350
v -0.03881057 -0.01713477 -0.01313495
v -0.03881057 -0.01757364 -0.01319130
v -0.03881057 -0.01822464 -0.01332384
v -0.03646412 -0.01463318 -0.01386747
v -0.03506600 -0.01838008 -0.01789830
v -0.03574819 0.00030136 -0.01934350
v -0.03506600 -0.01838008 -0.01950460
v -0.03827170 0.00030136 -0.01929826
v -0.03881057 -0.00023626 -0.01927366
v -0.03881057 -0.01838008 -0.01337463
v -0.03795388 -0.01838008 -0.01404683
v -0.03730468 -0.01838008 -0.01464681
v -0.03827170 -0.00077571 -0.01935778
v -0.03587210 0.00030136 -0.01934191
v -0.03866614 -0.01838008 -0.01922445
v -0.03881057 -0.01463501 -0.01935857
v -0.03881057 -0.01397304 -0.01937048
v -0.03881057 -0.00029295 -0.01927524
v -0.03881057 -0.01838008 -0.01919588
v -0.03881057 -0.00197530 -0.01931493
v -0.03881057 -0.01823561 -0.01920858
v -0.03881057 -0.01703419 -0.01926413
f 1 2 3
f 1 3 9
f 1 9 4
f 1 4 12
f 1 12 5
f 1 5 6
f 1 6 2
f 2 7 21
f 2 21 30
f 2 30 38
f 2 38 32
f 2 32 24
f 2 24 13
f 2 13 11
f 2 11 10
f 2 10 8
f 2 8 3
f 2 6 7
f 3 8 10
f 3 10 11
f 3 11 9
f 4 9 13
f 4 13 14
f 4 14 15
f 4 15 12
f 5 16 6
f 5 12 22
f 5 22 17
f 5 17 18
f 5 18 16
f 6 16 18
f 6 18 19
f 6 19 20
f 6 20 7
f 7 20 19
f 7 19 18
f 7 18 29
f 7 29 31
f 7 31 21
f 9 11 13
f 12 15 23
f 12 23 22
f 13 24 33
f 13 33 42
f 13 42 44
f 13 44 41
f 13 41 40
f 13 40 46
f 13 46 45
f 13 45 43
f 13 43 34
f 13 34 27
f 13 27 26
f 13 26 25
f 13 25 23
f 13 23 15
f 13 15 14
f 17 22 23
f 17 23 25
f 17 25 26
f 17 26 27
f 17 27 28
f 17 28 29
f 17 29 18
f 21 31 30
f 24 32 33
f 27 34 28
f 28 34 35
f 28 35 36
f 28 36 29
f 29 36 35
f 29 35 34
f 29 34 43
f 29 43 39
f 29 39 31
f 30 37 38
f 30 31 37
f 31 39 40
f 31 40 41
f 31 41 37
f 32 38 37
f 32 37 33
f 33 37 42
f 37 44 42
f 37 41 44
f 39 43 45
f 39 45 46
f 39 46 40

