# https://github.com/mikedh/trimesh
v 0.01436507 -0.01592532 0.02609833
v 0.01572844 -0.01610932 0.02609833
v 0.01436507 -0.01483455 0.02878766
v 0.01436507 -0.01413694 0.02609833
v 0.02172761 -0.01685856 0.02609833
v 0.02217162 -0.01627479 0.02667726
v 0.02217162 -0.01412503 0.02878766
v 0.01436507 -0.01179126 0.02878766
v 0.01452861 -0.01413297 0.02609833
v 0.01528978 -0.00747586 0.02878766
v 0.01552745 -0.00653997 0.02878766
v 0.01572844 -0.00583574 0.02878766
v 0.01692828 -0.00333650 0.02878766
v 0.02217162 -0.01681223 0.02609833
v 0.02217162 -0.01236709 0.02878766
v 0.01572844 -0.01412900 0.02609833
v 0.02217162 -0.01237768 0.02805997
v 0.02217162 -0.01277216 0.02679758
v 0.02217162 -0.01295351 0.02663645
v 0.02217162 -0.01392911 0.02623444
v 0.02217162 -0.01444140 0.02609938
v 0.02217162 -0.01608549 0.02609833
v 0.01875936 -0.01428388 0.02609833
v 0.02170239 -0.01455657 0.02609833
v 0.02052778 -0.01441890 0.02609833
v 0.01932794 -0.01431962 0.02609833
f 1 2 3
f 1 3 8
f 1 8 4
f 1 4 9
f 1 9 16
f 1 16 23
f 1 23 26
f 1 26 25
f 1 25 24
f 1 24 22
f 1 22 14
f 1 14 5
f 1 5 2
f 2 5 3
f 3 5 6
f 3 6 7
f 3 7 15
f 3 15 13
f 3 13 12
f 3 12 11
f 3 11 10
f 3 10 8
f 4 8 10
f 4 10 11
f 4 11 12
f 4 12 13
f 4 13 9
f 5 14 6
f 6 14 22
f 6 22 21
f 6 21 20
f 6 20 19
f 6 19 18
f 6 18 17
f 6 17 15
f 6 15 7
f 9 13 16
f 13 15 17
f 13 17 18
f 13 18 19
f 13 19 20
f 13 20 21
f 13 21 16
f 16 21 23
f 21 22 24
f 21 24 25
f 21 25 26
f 21 26 23

