# https://github.com/mikedh/trimesh
v -0.03964480 0.02884377 -0.00988763
v -0.03900380 0.02884377 -0.01445817
v -0.04184796 0.02884377 -0.00988763
v -0.03960805 0.02802429 -0.00988763
v -0.03900380 0.02830055 -0.01434102
v -0.03900380 0.02884377 -0.01934897
v -0.04387930 0.02884377 -0.01350306
v -0.04387930 0.02647829 -0.01264715
v -0.04387930 0.02641852 -0.01263109
v -0.04387930 0.02235429 -0.01195372
v -0.04387930 0.02121471 -0.01179218
v -0.04387930 0.02012427 -0.01175250
v -0.04387930 0.01721556 -0.01170526
v -0.04387930 0.01543580 -0.01170432
v -0.04387930 0.01527642 -0.01170432
v -0.04164845 0.01527642 -0.00988763
v -0.03939709 0.02082555 -0.00988763
v -0.03900380 0.02823547 -0.01432874
v -0.04067240 0.02884377 -0.01946706
v -0.03900380 0.02082555 -0.01925166
v -0.04387930 0.02884377 -0.01948501
v -0.04387930 0.01527642 -0.01922332
v -0.03964671 0.01527642 -0.00988763
v -0.03949541 0.01743736 -0.00988763
v -0.03900380 0.01722618 -0.01274067
v -0.03900380 0.01842553 -0.01284648
v -0.03900380 0.02802429 -0.01429001
v -0.04187182 0.02884377 -0.01953791
v -0.03900380 0.01962621 -0.01923372
v -0.04307173 0.02884377 -0.01951713
v -0.04307173 0.02802429 -0.01952374
v -0.04387930 0.02857681 -0.01948501
v -0.04352276 0.01527642 -0.01928567
v -0.04387930 0.01563370 -0.01929796
v -0.03900380 0.01527642 -0.01308266
v -0.03957368 0.01623802 -0.00988763
v -0.04187182 0.02082555 -0.01940849
v -0.04307173 0.01842553 -0.01943305
v -0.04387930 0.01842553 -0.01944533
v -0.03900380 0.01527642 -0.01898147
v -0.03947202 0.01527642 -0.01902304
v -0.04307173 0.01602551 -0.01935842
v -0.04307173 0.01722618 -0.01940754
v -0.04387930 0.02802429 -0.01948406
v -0.04307173 0.01527642 -0.01930362
v -0.04387930 0.01683437 -0.01939715
v -0.04387930 0.01803372 -0.01943683
v -0.04387930 0.01722618 -0.01941321
f 1 2 6
f 1 6 19
f 1 19 28
f 1 28 30
f 1 30 21
f 1 21 7
f 1 7 3
f 1 3 16
f 1 16 23
f 1 23 36
f 1 36 24
f 1 24 17
f 1 17 4
f 1 4 2
f 2 5 18
f 2 18 27
f 2 27 26
f 2 26 25
f 2 25 35
f 2 35 40
f 2 40 29
f 2 29 20
f 2 20 6
f 2 4 5
f 3 7 8
f 3 8 9
f 3 9 10
f 3 10 11
f 3 11 12
f 3 12 13
f 3 13 14
f 3 14 15
f 3 15 16
f 4 17 5
f 5 17 18
f 6 20 19
f 7 21 32
f 7 32 44
f 7 44 39
f 7 39 47
f 7 47 48
f 7 48 46
f 7 46 34
f 7 34 22
f 7 22 15
f 7 15 14
f 7 14 13
f 7 13 12
f 7 12 11
f 7 11 10
f 7 10 9
f 7 9 8
f 15 22 33
f 15 33 45
f 15 45 41
f 15 41 40
f 15 40 35
f 15 35 23
f 15 23 16
f 17 24 25
f 17 25 26
f 17 26 27
f 17 27 18
f 19 20 28
f 20 29 28
f 21 30 31
f 21 31 32
f 22 34 33
f 23 35 36
f 24 36 35
f 24 35 25
f 28 31 30
f 28 29 37
f 28 37 38
f 28 38 39
f 28 39 31
f 29 38 37
f 29 40 41
f 29 41 42
f 29 42 43
f 29 43 38
f 31 44 32
f 31 39 44
f 33 34 46
f 33 46 45
f 38 43 39
f 39 43 47
f 41 45 42
f 42 45 46
f 42 46 48
f 42 48 43
f 43 48 47

