# https://github.com/mikedh/trimesh
v 0.01812798 0.03714858 -0.01974938
v 0.01846947 0.03714858 -0.01972457
v 0.01846947 0.03488354 -0.01966434
v 0.01812798 0.03522493 -0.01968702
v 0.00852651 0.03402579 -0.01965371
v -0.00059448 0.03714858 -0.01952191
v 0.01846947 0.03714858 -0.01559972
v 0.01846947 0.03402579 -0.01954742
v 0.01452644 0.03168263 -0.01950915
v 0.00852651 0.03282558 -0.01960198
v 0.00132939 0.03168263 -0.01953608
v 0.00127181 0.03168263 -0.01953183
v -0.00107098 0.03714858 -0.01948152
v 0.01846947 0.03489799 -0.01367228
v 0.00445840 0.03714858 -0.01341222
v 0.01846947 0.03368440 -0.01945813
v 0.01572761 0.03168263 -0.01935680
v 0.00012821 0.03168263 -0.01943262
v -0.00181353 0.03168263 -0.01926114
v -0.00179367 0.03714858 -0.01940782
v 0.01846947 0.03396639 -0.01365102
v 0.00252858 0.03590503 -0.01261715
v 0.00012424 0.03714858 -0.01329105
v 0.00132939 0.03597566 -0.01257038
v 0.01846947 0.03168263 -0.01852985
v -0.00181353 0.03168263 -0.01722812
v -0.00181353 0.03714858 -0.01940570
v 0.00252858 0.03570063 -0.01261715
v 0.00132939 0.03555455 -0.01257038
v -0.00181353 0.03455767 -0.01258101
v 0.01846947 0.03346448 -0.01381400
v -0.00181353 0.03714858 -0.01337324
v -0.00181353 0.03591252 -0.01260014
v 0.00012821 0.03596870 -0.01257534
v -0.00181353 0.03549515 -0.01252007
v -0.00181353 0.03519229 -0.01251086
v 0.01846947 0.03168263 -0.01666123
v -0.00107098 0.03168263 -0.01716080
v -0.00181353 0.03474656 -0.01255479
v 0.00747821 0.03168263 -0.01648620
v 0.01572761 0.03168263 -0.01589805
v 0.01579115 0.03168263 -0.01591080
v 0.01666274 0.03168263 -0.01615173
v -0.00107098 0.03593178 -0.01258951
f 1 2 3
f 1 3 4
f 1 4 5
f 1 5 6
f 1 6 13
f 1 13 20
f 1 20 27
f 1 27 32
f 1 32 23
f 1 23 15
f 1 15 7
f 1 7 2
f 2 7 14
f 2 14 21
f 2 21 31
f 2 31 37
f 2 37 25
f 2 25 16
f 2 16 8
f 2 8 3
f 3 8 9
f 3 9 4
f 4 9 10
f 4 10 5
f 5 10 11
f 5 11 6
f 6 11 12
f 6 12 13
f 7 15 14
f 8 16 17
f 8 17 9
f 9 17 25
f 9 25 37
f 9 37 43
f 9 43 42
f 9 42 41
f 9 41 40
f 9 40 38
f 9 38 26
f 9 26 19
f 9 19 18
f 9 18 12
f 9 12 11
f 9 11 10
f 12 18 13
f 13 19 20
f 13 18 19
f 14 15 22
f 14 22 21
f 15 23 24
f 15 24 22
f 16 25 17
f 19 26 30
f 19 30 39
f 19 39 36
f 19 36 35
f 19 35 33
f 19 33 32
f 19 32 27
f 19 27 20
f 21 28 29
f 21 29 30
f 21 30 31
f 21 22 28
f 22 24 29
f 22 29 28
f 23 32 33
f 23 33 34
f 23 34 24
f 24 34 35
f 24 35 36
f 24 36 29
f 26 38 30
f 29 36 39
f 29 39 30
f 30 38 40
f 30 40 41
f 30 41 31
f 31 41 42
f 31 42 43
f 31 43 37
f 33 35 44
f 33 44 34
f 34 44 35

