# https://github.com/mikedh/trimesh
v -0.01389332 0.00883048 0.02399712
v -0.01389332 0.00883048 0.02492620
v -0.01040712 0.00883048 0.02186858
v -0.01389275 0.00882507 0.02399298
v -0.01371013 0.00364103 0.02186858
v -0.01371013 0.00341916 0.02186858
v -0.01384838 0.00762466 0.02486493
v -0.01312758 0.00762466 0.02609791
v -0.01315261 0.00882507 0.02609791
v -0.01315261 0.00883048 0.02609791
v -0.01370501 0.00327035 0.02186858
v -0.00917545 0.00883048 0.02186858
v -0.01375792 0.00529509 0.02387994
v -0.01376873 0.00642515 0.02471463
v -0.01302746 0.00642515 0.02609791
v -0.00929208 0.00883048 0.02609791
v -0.01369819 0.00335332 0.02221844
v -0.01228562 -0.00038229 0.02186858
v -0.00808146 0.00557287 0.02272521
v -0.00808146 0.00557197 0.02271734
v -0.00808146 0.00531403 0.02186858
v -0.00808146 0.00542406 0.02609791
v -0.01371355 0.00449692 0.02344935
v -0.01369819 0.00574152 0.02457883
v -0.01283517 0.00529779 0.02609791
v -0.01354857 0.00369785 0.02301876
v -0.01044410 -0.00038229 0.02186858
v -0.01208480 -0.00038229 0.02210251
v -0.01133101 0.00217726 0.02609791
v -0.01151135 0.00239552 0.02609791
v -0.01180717 0.00278333 0.02609791
v -0.01245856 0.00344802 0.02570127
v -0.00808146 0.00202936 0.02186858
v -0.00808146 0.00138180 0.02609791
v -0.01262126 0.00424709 0.02600393
v -0.01264288 0.00451586 0.02609791
v -0.00808146 0.00111484 0.02415403
v -0.00808146 0.00106614 0.02478543
v -0.00808146 0.00106614 0.02493241
v -0.00808146 0.00111304 0.02518332
v -0.01076211 -0.00038229 0.02242214
v -0.00808146 0.00119331 0.02388822
v -0.01166665 -0.00038229 0.02238156
v -0.01110458 0.00206453 0.02609791
v -0.01235673 0.00372671 0.02609791
v -0.00827091 0.00140435 0.02609791
v -0.01134637 -0.00038229 0.02242421
v -0.01253593 0.00416412 0.02609791
v -0.01259396 0.00432917 0.02609791
v -0.00947242 0.00157480 0.02609791
v -0.00969884 0.00162260 0.02609791
v -0.01067791 0.00188415 0.02609791
f 1 2 10
f 1 10 16
f 1 16 12
f 1 12 3
f 1 3 4
f 1 4 5
f 1 5 6
f 1 6 2
f 2 7 8
f 2 8 9
f 2 9 10
f 2 6 11
f 2 11 7
f 3 12 21
f 3 21 33
f 3 33 27
f 3 27 18
f 3 18 11
f 3 11 6
f 3 6 5
f 3 5 4
f 7 13 14
f 7 14 15
f 7 15 8
f 7 11 13
f 8 15 25
f 8 25 36
f 8 36 49
f 8 49 48
f 8 48 45
f 8 45 31
f 8 31 30
f 8 30 29
f 8 29 44
f 8 44 52
f 8 52 51
f 8 51 50
f 8 50 46
f 8 46 34
f 8 34 22
f 8 22 16
f 8 16 10
f 8 10 9
f 11 17 13
f 11 18 17
f 12 19 20
f 12 20 21
f 12 16 22
f 12 22 19
f 13 23 24
f 13 24 14
f 13 17 23
f 14 24 25
f 14 25 15
f 17 18 26
f 17 26 23
f 18 27 41
f 18 41 47
f 18 47 43
f 18 43 28
f 18 28 29
f 18 29 30
f 18 30 31
f 18 31 32
f 18 32 26
f 19 22 34
f 19 34 40
f 19 40 39
f 19 39 38
f 19 38 37
f 19 37 42
f 19 42 33
f 19 33 21
f 19 21 20
f 23 26 32
f 23 32 35
f 23 35 24
f 24 35 36
f 24 36 25
f 27 37 38
f 27 38 39
f 27 39 40
f 27 40 41
f 27 33 42
f 27 42 37
f 28 43 44
f 28 44 29
f 31 45 32
f 32 45 35
f 34 46 43
f 34 43 47
f 34 47 41
f 34 41 40
f 35 45 48
f 35 48 49
f 35 49 36
f 43 46 50
f 43 50 51
f 43 51 52
f 43 52 44

