# https://github.com/mikedh/trimesh
v 0.00712679 -0.01802944 0.01793057
v 0.00712679 -0.01795342 0.01883197
v 0.00712679 -0.01801826 0.01765566
v 0.01007157 -0.02212742 0.01974883
v 0.00712679 -0.01777904 0.01974883
v 0.00712679 -0.01800037 0.01752365
v 0.01010251 -0.02211625 0.01912474
v 0.01009769 -0.02212742 0.01926219
v 0.01415011 -0.02212742 0.01974883
v 0.00712679 -0.00460199 0.01974883
v 0.01112214 -0.02212742 0.01752365
v 0.01041397 -0.02212742 0.01820591
v 0.01018914 -0.02199328 0.01834075
v 0.00712679 0.00071220 0.01752365
v 0.01011419 -0.02212742 0.01912474
v 0.01415011 -0.02212742 0.01752365
v 0.01415011 -0.01669474 0.01974883
v 0.00837126 0.00071220 0.01974883
v 0.00712679 0.00071220 0.01767766
v 0.01029433 -0.02212742 0.01848452
v 0.01269044 0.00071220 0.01752365
v 0.01415011 -0.01595697 0.01752365
v 0.01415011 -0.01630573 0.01912474
v 0.01288296 0.00071220 0.01912474
v 0.01285546 0.00071220 0.01959962
v 0.01284652 0.00071220 0.01974883
v 0.01275507 0.00071220 0.01773778
v 0.01385103 -0.01226811 0.01752365
v 0.01287471 0.00071220 0.01883807
v 0.01415011 -0.01600392 0.01774279
v 0.01279358 0.00071220 0.01800267
f 1 2 5
f 1 5 10
f 1 10 19
f 1 19 14
f 1 14 6
f 1 6 3
f 1 3 4
f 1 4 2
f 2 4 5
f 3 6 7
f 3 7 8
f 3 8 4
f 4 8 15
f 4 15 20
f 4 20 12
f 4 12 11
f 4 11 16
f 4 16 9
f 4 9 17
f 4 17 26
f 4 26 18
f 4 18 10
f 4 10 5
f 6 11 12
f 6 12 13
f 6 13 7
f 6 14 21
f 6 21 28
f 6 28 22
f 6 22 16
f 6 16 11
f 7 13 15
f 7 15 8
f 9 16 22
f 9 22 30
f 9 30 23
f 9 23 17
f 10 18 19
f 12 20 13
f 13 20 15
f 14 19 18
f 14 18 26
f 14 26 25
f 14 25 24
f 14 24 29
f 14 29 31
f 14 31 27
f 14 27 21
f 17 23 24
f 17 24 25
f 17 25 26
f 21 27 28
f 22 28 29
f 22 29 24
f 22 24 30
f 23 30 24
f 27 31 28
f 28 31 29

