# https://github.com/mikedh/trimesh
v -0.04108973 -0.02477396 0.01265088
v -0.04003582 -0.02305584 0.01256438
v -0.04003582 -0.02288029 0.01256438
v -0.04143021 -0.02378791 0.01264268
v -0.04160726 -0.02477396 0.01265088
v -0.04219183 -0.02717187 0.01263813
v -0.04226936 -0.02837455 0.01262083
v -0.04238198 -0.02914398 0.01255437
v -0.04122907 -0.03383147 0.01138350
v -0.03739005 -0.03435438 0.00913553
v -0.03752834 -0.00677473 0.01146453
v -0.03747596 -0.00557578 0.01150823
v -0.03746024 -0.00437683 0.01152007
v -0.03744610 -0.00317787 0.01153008
v -0.03743248 -0.00197519 0.01154010
v -0.03741938 -0.00077623 0.01154829
v -0.03739895 0.00146107 0.01156377
v -0.04258574 -0.02717187 0.01263813
v -0.03804219 0.00146107 0.01156377
v -0.04257264 -0.02837455 0.01262083
v -0.04250350 -0.02914398 0.01255437
v -0.04155540 -0.03383147 0.01138350
v -0.03739005 -0.03544875 0.00832338
v -0.03739005 -0.03531055 0.00857012
v -0.03739005 -0.03469053 0.00900624
v -0.03739005 -0.03318157 0.00922111
v -0.03740681 0.00042272 0.01155558
v -0.03739005 -0.02265619 0.00849728
v -0.03739005 -0.01994454 0.00817224
v -0.03739005 -0.01880534 0.00797467
v -0.03739005 -0.01767362 0.00767968
v -0.03739005 -0.01559693 0.00664173
v -0.03739005 -0.01542512 0.00628847
v -0.03739895 0.00146107 0.01079624
v -0.04252131 -0.02627919 0.01257804
v -0.04201373 -0.00077623 0.00352517
v -0.04210540 -0.00197519 0.00352517
v -0.04261717 -0.02717187 0.01192432
v -0.04274078 -0.03317410 0.00832429
v -0.03864196 0.00146107 0.01111490
v -0.04271984 -0.03437305 0.00832429
v -0.04249617 -0.03388003 0.01035830
v -0.04252026 -0.03502295 0.00908545
v -0.04066021 -0.03669626 0.00334945
v -0.03739005 -0.03567285 0.00712520
v -0.03739005 -0.01542512 0.00622200
v -0.03957382 0.00146107 0.00334945
v -0.03739005 -0.01575007 0.00580410
v -0.03739005 -0.01630659 0.00532063
v -0.03739005 -0.01671371 0.00511304
v -0.03919301 0.00146107 0.01051490
v -0.03984097 0.00146107 0.00945602
v -0.04029616 0.00146107 0.00843901
v -0.04184454 0.00042272 0.00352517
v -0.04202474 -0.00077623 0.00334945
v -0.04210959 -0.00197519 0.00334945
v -0.04273345 -0.03317410 0.00712520
v -0.04256845 -0.03431703 0.00950063
v -0.04269102 -0.03437305 0.00712520
v -0.04255378 -0.03505283 0.00712520
v -0.04256164 -0.03506030 0.00832429
v -0.04150721 -0.03649457 0.00352517
v -0.04070787 -0.03668505 0.00334945
v -0.03739005 -0.03550104 0.00334945
v -0.04137783 0.00146107 0.00334945
v -0.03739005 -0.01757651 0.00499013
v -0.03739005 -0.02927470 0.00334945
v -0.04031711 0.00146107 0.00836435
v -0.04184193 0.00042272 0.00334945
v -0.04188016 0.00024717 0.00334945
v -0.04147526 0.00123696 0.00434733
v -0.04152083 0.00130419 0.00352517
v -0.04156535 0.00117720 0.00334945
v -0.04258940 -0.02985737 0.00334945
v -0.04258940 -0.03038028 0.00334945
v -0.04251031 -0.03501175 0.00632216
v -0.04148626 -0.03648709 0.00334945
v -0.04139250 0.00146107 0.00352517
v -0.04144226 0.00138263 0.00334945
v -0.04064921 0.00146107 0.00712520
v -0.04132388 0.00146107 0.00407510
v -0.04150983 0.00129299 0.00334945
v -0.04181207 -0.03556453 0.00334945
v -0.04186340 -0.03557201 0.00352517
v -0.04176754 -0.03575876 0.00334945
f 1 2 3
f 1 3 4
f 1 4 5
f 1 5 18
f 1 18 6
f 1 6 7
f 1 7 2
f 2 7 8
f 2 8 9
f 2 9 10
f 2 10 11
f 2 11 12
f 2 12 13
f 2 13 14
f 2 14 15
f 2 15 16
f 2 16 17
f 2 17 3
f 3 17 4
f 4 18 5
f 4 17 19
f 4 19 18
f 6 18 20
f 6 20 7
f 7 20 21
f 7 21 8
f 8 21 22
f 8 22 9
f 9 22 23
f 9 23 24
f 9 24 25
f 9 25 10
f 10 25 24
f 10 24 23
f 10 23 45
f 10 45 64
f 10 64 67
f 10 67 66
f 10 66 50
f 10 50 49
f 10 49 48
f 10 48 46
f 10 46 33
f 10 33 32
f 10 32 31
f 10 31 30
f 10 30 29
f 10 29 28
f 10 28 26
f 10 26 12
f 10 12 11
f 12 26 13
f 13 26 14
f 14 26 15
f 15 26 16
f 16 26 27
f 16 27 17
f 17 27 26
f 17 26 28
f 17 28 29
f 17 29 30
f 17 30 31
f 17 31 32
f 17 32 33
f 17 33 46
f 17 46 34
f 17 34 47
f 17 47 65
f 17 65 78
f 17 78 81
f 17 81 80
f 17 80 68
f 17 68 53
f 17 53 52
f 17 52 51
f 17 51 40
f 17 40 19
f 18 19 35
f 18 35 36
f 18 36 37
f 18 37 38
f 18 38 39
f 18 39 20
f 19 40 35
f 20 39 41
f 20 41 42
f 20 42 21
f 21 42 22
f 22 42 43
f 22 43 23
f 23 43 44
f 23 44 45
f 34 46 48
f 34 48 49
f 34 49 50
f 34 50 47
f 35 40 51
f 35 51 52
f 35 52 53
f 35 53 36
f 36 54 55
f 36 55 37
f 36 53 54
f 37 55 56
f 37 56 38
f 38 56 39
f 39 57 41
f 39 56 57
f 41 58 42
f 41 57 59
f 41 59 60
f 41 60 61
f 41 61 43
f 41 43 58
f 42 58 43
f 43 61 62
f 43 62 44
f 44 62 63
f 44 63 77
f 44 77 85
f 44 85 83
f 44 83 75
f 44 75 74
f 44 74 56
f 44 56 55
f 44 55 70
f 44 70 69
f 44 69 73
f 44 73 82
f 44 82 79
f 44 79 65
f 44 65 47
f 44 47 67
f 44 67 64
f 44 64 45
f 47 50 66
f 47 66 67
f 53 68 54
f 54 69 70
f 54 70 55
f 54 68 71
f 54 71 72
f 54 72 73
f 54 73 69
f 56 74 57
f 57 74 75
f 57 75 59
f 59 76 60
f 59 75 76
f 60 76 62
f 60 62 61
f 62 77 63
f 62 76 77
f 65 79 78
f 68 80 71
f 71 80 81
f 71 81 78
f 71 78 72
f 72 78 79
f 72 79 82
f 72 82 73
f 75 83 84
f 75 84 76
f 76 84 85
f 76 85 77
f 83 85 84

