# https://github.com/mikedh/trimesh
v -0.00105528 -0.03872136 -0.01981721
v -0.00051105 -0.03872136 -0.01981527
v -0.00587215 -0.04277446 -0.01974527
v -0.01786923 -0.03917491 -0.01976277
v -0.01786923 -0.03872136 -0.01973361
v -0.00030659 -0.03872136 -0.01981430
v -0.00016227 -0.03916375 -0.01980166
v -0.00347274 -0.04277446 -0.01972097
v -0.00347274 -0.04346826 -0.01968305
v -0.00587215 -0.04346826 -0.01970152
v -0.02147136 -0.04277446 -0.01965972
v -0.02986932 -0.03917491 -0.01969666
v -0.02986932 -0.03872136 -0.01963445
v -0.00016227 -0.03885194 -0.01980944
v -0.00016227 -0.03872136 -0.01980944
v -0.00016227 -0.04346826 -0.01961792
v -0.02986932 -0.04346826 -0.01954987
v -0.03087659 -0.04346826 -0.01952265
v -0.03087659 -0.03917491 -0.01966847
v -0.03087659 -0.03872136 -0.01957612
v -0.00016227 -0.03872136 -0.01527532
v -0.00016227 -0.04346826 -0.01310451
v -0.03087659 -0.04346826 -0.01584986
v -0.03087659 -0.03872136 -0.01590041
v -0.00016227 -0.03945373 -0.00988669
v -0.00221590 -0.03872136 -0.01462787
v -0.00016227 -0.04088825 -0.00988669
v -0.00587215 -0.04149654 -0.00988669
v -0.00707487 -0.04162340 -0.00988669
v -0.00107332 -0.04346826 -0.01308895
v -0.02707902 -0.04343387 -0.01378890
v -0.03087659 -0.04152163 -0.00988669
v -0.02027166 -0.04346826 -0.01338935
v -0.03087659 -0.03897834 -0.00988669
v -0.02924090 -0.03872136 -0.01500700
v -0.00086285 -0.03942631 -0.00988669
v -0.01187370 -0.03913541 -0.00988669
v -0.01909299 -0.03872136 -0.01338935
v -0.01427312 -0.04164850 -0.00988669
v -0.00633520 -0.04346826 -0.01308992
v -0.03007979 -0.04163502 -0.00988669
v -0.01906293 -0.04346826 -0.01317742
v -0.02120075 -0.03872136 -0.01335824
v -0.02147136 -0.03872136 -0.01336990
v -0.02243053 -0.03872136 -0.01344282
v -0.02249367 -0.03872136 -0.01345545
v -0.02854633 -0.03872136 -0.01476008
v -0.02897029 -0.03872136 -0.01489521
v -0.02987834 -0.04164246 -0.00988669
f 1 2 3
f 1 3 4
f 1 4 5
f 1 5 13
f 1 13 20
f 1 20 24
f 1 24 35
f 1 35 48
f 1 48 47
f 1 47 46
f 1 46 45
f 1 45 44
f 1 44 43
f 1 43 38
f 1 38 26
f 1 26 21
f 1 21 15
f 1 15 6
f 1 6 2
f 2 6 3
f 3 6 7
f 3 7 8
f 3 8 9
f 3 9 10
f 3 10 11
f 3 11 4
f 4 11 12
f 4 12 5
f 5 12 13
f 6 14 7
f 6 15 14
f 7 14 15
f 7 15 21
f 7 21 25
f 7 25 27
f 7 27 22
f 7 22 16
f 7 16 8
f 8 16 9
f 9 16 22
f 9 22 30
f 9 30 40
f 9 40 42
f 9 42 33
f 9 33 23
f 9 23 18
f 9 18 17
f 9 17 10
f 10 17 11
f 11 17 12
f 12 17 18
f 12 18 19
f 12 19 13
f 13 19 20
f 18 23 32
f 18 32 34
f 18 34 24
f 18 24 20
f 18 20 19
f 21 26 25
f 22 27 28
f 22 28 29
f 22 29 30
f 23 31 32
f 23 33 31
f 24 34 35
f 25 26 36
f 25 36 37
f 25 37 34
f 25 34 32
f 25 32 41
f 25 41 49
f 25 49 39
f 25 39 29
f 25 29 28
f 25 28 27
f 26 37 36
f 26 38 34
f 26 34 37
f 29 39 30
f 30 39 40
f 31 41 32
f 31 33 42
f 31 42 41
f 34 38 43
f 34 43 44
f 34 44 45
f 34 45 46
f 34 46 47
f 34 47 48
f 34 48 35
f 39 49 40
f 40 49 42
f 41 42 49

