# https://github.com/mikedh/trimesh
v -0.01328087 -0.01656312 0.00664930
v -0.01307145 -0.01656312 0.00664806
v -0.01328087 -0.01656312 0.01299241
v -0.01328087 -0.00317554 0.00701074
v -0.01187189 -0.01656312 0.00672383
v -0.01307145 -0.00317554 0.00701633
v -0.00827244 0.00146107 0.00731566
v -0.01279983 -0.01656312 0.01299241
v -0.01328087 -0.01003518 0.01299241
v -0.01328087 0.00146107 0.00715854
v -0.01170345 -0.01656312 0.00674556
v -0.00810779 0.00146107 0.00732622
v -0.00707212 0.00042542 0.00737404
v -0.00707212 -0.00077608 0.00735106
v -0.00587255 -0.00197581 0.00746346
v -0.00553036 -0.00197581 0.00750197
v -0.00553036 -0.01656312 0.01024129
v -0.00553036 -0.01648373 0.01299241
v -0.01100921 0.00146107 0.01299241
v -0.01328087 0.00146107 0.01136658
v -0.01068143 -0.01656312 0.00688840
v -0.00707212 0.00146107 0.00743055
v -0.00553036 0.00042718 0.00757959
v -0.00553036 0.00008137 0.00756158
v -0.00553036 -0.00077608 0.00751936
v -0.00553036 -0.01482528 0.00770256
v -0.00553036 -0.01656312 0.00800996
v -0.00553036 0.00146107 0.01299241
v -0.00631717 -0.01656312 0.00766343
v -0.00690823 0.00146107 0.00745353
v -0.00553036 0.00111879 0.00764729
v -0.00553036 0.00146107 0.00771436
v -0.00578530 0.00146107 0.00765722
v -0.00553036 0.00131463 0.00767647
v -0.00553036 0.00117348 0.00765287
f 1 2 5
f 1 5 11
f 1 11 21
f 1 21 29
f 1 29 27
f 1 27 17
f 1 17 8
f 1 8 3
f 1 3 9
f 1 9 20
f 1 20 10
f 1 10 4
f 1 4 2
f 2 4 6
f 2 6 7
f 2 7 5
f 3 8 18
f 3 18 28
f 3 28 19
f 3 19 9
f 4 10 6
f 5 7 12
f 5 12 13
f 5 13 14
f 5 14 15
f 5 15 16
f 5 16 11
f 6 10 7
f 7 10 20
f 7 20 19
f 7 19 28
f 7 28 32
f 7 32 33
f 7 33 30
f 7 30 22
f 7 22 12
f 8 17 18
f 9 19 20
f 11 16 21
f 12 22 13
f 13 22 23
f 13 23 24
f 13 24 25
f 13 25 14
f 14 25 15
f 15 25 16
f 16 26 21
f 16 25 24
f 16 24 23
f 16 23 31
f 16 31 35
f 16 35 34
f 16 34 32
f 16 32 28
f 16 28 18
f 16 18 17
f 16 17 27
f 16 27 26
f 21 26 29
f 22 30 23
f 23 30 31
f 26 27 29
f 30 33 34
f 30 34 35
f 30 35 31
f 32 34 33

