# https://github.com/mikedh/trimesh
v -0.04201171 0.00642627 0.00472530
v -0.04200329 0.00642627 0.00352512
v -0.04139264 0.00146303 0.00352512
v -0.04132357 0.00146303 0.00407481
v -0.04064890 0.00146303 0.00712456
v -0.04031704 0.00146303 0.00836428
v -0.04029598 0.00146303 0.00843947
v -0.04011658 0.00185616 0.00901478
v -0.04126461 0.02154202 0.00918408
v -0.04199487 0.01482347 0.00472530
v -0.04198728 0.00642627 0.00349449
v -0.04139011 0.00146303 0.00349449
v -0.04190895 0.01602448 0.00352512
v -0.04189716 0.01602448 0.00349449
v -0.03996076 0.00146303 0.00918408
v -0.04001214 0.00173036 0.00918408
v -0.04004583 0.00210383 0.00918408
v -0.04009384 0.00282718 0.00918408
v -0.04014606 0.00282718 0.00908161
v -0.03846066 0.02154202 0.00918408
v -0.04156867 0.02154202 0.00423855
v -0.04175229 0.02082457 0.00352512
v -0.04175650 0.02079312 0.00349449
v -0.03975861 0.00146303 0.00349449
v -0.03842359 0.00146303 0.00918408
v -0.03721155 0.02154202 0.00884157
v -0.03796203 0.01879406 0.00918408
v -0.04157373 0.02154202 0.00357246
v -0.04175061 0.02082653 0.00349449
v -0.03957668 0.00146696 0.00349449
v -0.03477904 0.00146303 0.00398849
v -0.03346593 0.00146303 0.00670742
v -0.03340781 0.00152003 0.00673304
v -0.03340781 0.00153379 0.00673749
v -0.03340781 0.00282129 0.00708390
v -0.03340781 0.00402622 0.00714461
v -0.03340781 0.01962356 0.00774943
v -0.03792328 0.01242146 0.00918408
v -0.03647708 0.02154202 0.00862548
v -0.04157036 0.02154202 0.00349449
v -0.03490370 0.00522723 0.00362091
v -0.03485401 0.00402622 0.00366937
v -0.03476136 0.00282718 0.00379356
v -0.03473356 0.00162618 0.00396120
v -0.03496771 0.01192023 0.00349449
v -0.03393845 0.00146303 0.00482165
v -0.03343645 0.00146303 0.00587258
v -0.03340781 0.00155542 0.00586590
v -0.03340781 0.02154202 0.00754448
v -0.03518081 0.02154202 0.00349449
v -0.03493150 0.01367751 0.00349449
v -0.03359396 0.00146303 0.00540810
v -0.03492813 0.01487655 0.00349449
v -0.03340781 0.01242540 0.00586590
v -0.03340781 0.00158097 0.00583972
v -0.03340781 0.02154202 0.00620061
v -0.03500898 0.01727659 0.00349449
v -0.03340781 0.00282718 0.00580352
v -0.03340781 0.01122636 0.00585197
v -0.03496098 0.01607559 0.00349449
v -0.03340781 0.02150271 0.00619894
v -0.03340781 0.01362443 0.00590432
f 1 2 3
f 1 3 4
f 1 4 5
f 1 5 6
f 1 6 7
f 1 7 8
f 1 8 9
f 1 9 10
f 1 10 2
f 2 11 12
f 2 12 3
f 2 10 13
f 2 13 14
f 2 14 11
f 3 12 24
f 3 24 31
f 3 31 46
f 3 46 52
f 3 52 47
f 3 47 32
f 3 32 25
f 3 25 15
f 3 15 7
f 3 7 6
f 3 6 5
f 3 5 4
f 7 15 8
f 8 15 16
f 8 16 17
f 8 17 18
f 8 18 19
f 8 19 9
f 9 20 26
f 9 26 39
f 9 39 49
f 9 49 56
f 9 56 50
f 9 50 40
f 9 40 28
f 9 28 21
f 9 21 22
f 9 22 23
f 9 23 10
f 9 19 18
f 9 18 17
f 9 17 16
f 9 16 15
f 9 15 25
f 9 25 38
f 9 38 27
f 9 27 20
f 10 23 13
f 11 14 23
f 11 23 29
f 11 29 40
f 11 40 50
f 11 50 57
f 11 57 60
f 11 60 53
f 11 53 51
f 11 51 45
f 11 45 30
f 11 30 24
f 11 24 12
f 13 23 14
f 20 27 26
f 21 28 22
f 22 28 29
f 22 29 23
f 24 30 31
f 25 32 33
f 25 33 34
f 25 34 35
f 25 35 36
f 25 36 37
f 25 37 38
f 26 27 39
f 27 37 39
f 27 38 37
f 28 40 29
f 30 41 42
f 30 42 43
f 30 43 44
f 30 44 31
f 30 45 41
f 31 44 46
f 32 47 33
f 33 47 48
f 33 48 55
f 33 55 58
f 33 58 59
f 33 59 54
f 33 54 62
f 33 62 61
f 33 61 56
f 33 56 49
f 33 49 37
f 33 37 36
f 33 36 35
f 33 35 34
f 37 49 39
f 41 45 51
f 41 51 42
f 42 51 43
f 43 51 46
f 43 46 44
f 46 51 53
f 46 53 54
f 46 54 52
f 47 52 55
f 47 55 48
f 50 56 57
f 52 58 55
f 52 54 59
f 52 59 58
f 53 60 56
f 53 56 61
f 53 61 62
f 53 62 54
f 56 60 57

