# https://github.com/mikedh/trimesh
v -0.00808077 0.00106582 0.02478543
v -0.00808077 0.00106582 0.02493241
v -0.00808077 0.00111507 0.02415403
v -0.00785982 0.00099591 0.02438589
v -0.00707199 0.00105470 0.02555180
v -0.00808077 0.00111348 0.02518332
v -0.00785982 0.00099591 0.02471049
v -0.00808077 0.00119293 0.02388822
v -0.00732885 0.00110792 0.02358640
v -0.00652928 0.00101577 0.02329989
v -0.00587195 0.00095460 0.02312889
v -0.00698637 0.00095381 0.02396192
v -0.00587195 0.00082670 0.02392507
v -0.00707199 0.00094348 0.02495187
v -0.00587195 0.00089740 0.02510299
v -0.00587195 0.00103086 0.02570293
v -0.00707199 0.00124377 0.02609791
v -0.00808077 0.00138120 0.02609791
v -0.00808077 0.00202866 0.02186858
v -0.00798480 0.00199450 0.02186858
v -0.00416855 0.00100624 0.02206276
v -0.00474648 0.00118816 0.02186858
v -0.00435636 0.00110872 0.02186858
v -0.00460907 0.00090137 0.02270327
v -0.00467191 0.00073931 0.02392507
v -0.00347255 0.00071469 0.02392507
v -0.00467191 0.00087993 0.02508105
v -0.00467191 0.00103881 0.02568098
v -0.00587195 0.00119769 0.02609791
v -0.00808077 0.00542401 0.02609791
v -0.00808077 0.00531438 0.02186858
v -0.00347255 0.00098638 0.02199527
v -0.00347255 0.00082114 0.02272521
v -0.00347255 0.00102530 0.02186858
v -0.00227251 0.00081717 0.02272521
v -0.00227251 0.00073137 0.02392507
v -0.00347255 0.00087993 0.02502681
v -0.00347255 0.00105549 0.02562674
v -0.00142530 0.00132639 0.02609791
v -0.00324608 0.00542004 0.02609791
v -0.00102759 0.00883048 0.02376277
v -0.00337865 0.00883048 0.02354789
v -0.00344217 0.00883048 0.02353299
v -0.00435084 0.00883048 0.02281091
v -0.00437293 0.00883048 0.02275212
v -0.00460838 0.00883048 0.02186858
v -0.00808077 0.00557336 0.02272521
v -0.00808077 0.00557177 0.02271734
v -0.00227251 0.00101974 0.02186858
v -0.00227251 0.00098717 0.02198534
v -0.00102759 0.00078857 0.02392507
v -0.00107247 0.00078618 0.02392507
v -0.00143566 0.00100783 0.02204951
v -0.00105037 0.00090296 0.02263785
v -0.00102759 0.00090376 0.02264323
v -0.00102759 0.00079254 0.02395695
v -0.00102759 0.00092680 0.02486782
v -0.00227251 0.00090137 0.02495477
v -0.00227251 0.00107615 0.02555470
v -0.00102759 0.00134387 0.02609791
v -0.00227251 0.00537475 0.02609791
v -0.00102759 0.00883048 0.02186858
v -0.00204604 0.00533821 0.02609791
v -0.00102759 0.00511975 0.02609791
v -0.00166282 0.00104755 0.02186858
v -0.00102759 0.00091011 0.02261301
v -0.00128099 0.00108806 0.02186858
v -0.00102759 0.00112858 0.02186858
v -0.00102759 0.00093315 0.02489018
v -0.00102759 0.00110157 0.02546776
v -0.00102759 0.00111428 0.02550253
f 1 2 6
f 1 6 18
f 1 18 30
f 1 30 47
f 1 47 48
f 1 48 31
f 1 31 19
f 1 19 8
f 1 8 3
f 1 3 4
f 1 4 7
f 1 7 2
f 2 5 6
f 2 7 5
f 3 8 4
f 4 8 9
f 4 9 10
f 4 10 11
f 4 11 12
f 4 12 13
f 4 13 7
f 5 7 14
f 5 14 15
f 5 15 16
f 5 16 17
f 5 17 18
f 5 18 6
f 7 13 14
f 8 19 20
f 8 20 9
f 9 20 10
f 10 21 11
f 10 20 22
f 10 22 23
f 10 23 21
f 11 21 24
f 11 24 13
f 11 13 12
f 13 24 25
f 13 25 14
f 14 25 15
f 15 25 26
f 15 26 27
f 15 27 16
f 16 28 29
f 16 29 17
f 16 27 28
f 17 29 39
f 17 39 60
f 17 60 64
f 17 64 63
f 17 63 61
f 17 61 40
f 17 40 30
f 17 30 18
f 19 31 46
f 19 46 62
f 19 62 68
f 19 68 67
f 19 67 65
f 19 65 49
f 19 49 34
f 19 34 23
f 19 23 22
f 19 22 20
f 21 32 33
f 21 33 24
f 21 23 34
f 21 34 32
f 24 33 25
f 25 33 26
f 26 33 35
f 26 35 36
f 26 36 37
f 26 37 27
f 27 37 28
f 28 38 39
f 28 39 29
f 28 37 38
f 30 40 41
f 30 41 42
f 30 42 43
f 30 43 44
f 30 44 45
f 30 45 46
f 30 46 47
f 31 48 46
f 32 34 49
f 32 49 50
f 32 50 35
f 32 35 33
f 35 51 52
f 35 52 36
f 35 50 53
f 35 53 54
f 35 54 55
f 35 55 51
f 36 52 56
f 36 56 57
f 36 57 58
f 36 58 37
f 37 58 59
f 37 59 38
f 38 59 39
f 39 59 60
f 40 61 41
f 41 62 46
f 41 46 45
f 41 45 44
f 41 44 43
f 41 43 42
f 41 61 63
f 41 63 64
f 41 64 60
f 41 60 71
f 41 71 70
f 41 70 69
f 41 69 57
f 41 57 56
f 41 56 51
f 41 51 55
f 41 55 66
f 41 66 68
f 41 68 62
f 46 48 47
f 49 65 50
f 50 65 53
f 51 56 52
f 53 66 54
f 53 65 67
f 53 67 68
f 53 68 66
f 54 66 55
f 57 69 58
f 58 69 59
f 59 69 70
f 59 70 71
f 59 71 60

