# https://github.com/mikedh/trimesh
v 0.04352785 -0.01377533 -0.01937565
v 0.04910068 -0.01377533 -0.01964284
v 0.04352785 -0.01377533 -0.01351119
v 0.04352785 -0.01297338 -0.01941537
v 0.05019769 -0.01377533 -0.01961817
v 0.04352785 -0.01037328 -0.01947434
v 0.04352785 -0.00097458 -0.01941296
v 0.05240735 0.00030136 -0.01940754
v 0.04413024 -0.01377533 -0.01371339
v 0.05238996 -0.00994061 -0.01622587
v 0.04352785 -0.01157343 -0.01349554
v 0.05046976 -0.01377533 -0.01961094
v 0.04352785 0.00030136 -0.01934616
v 0.05240735 -0.01037328 -0.01947976
v 0.05240735 0.00030136 -0.01622166
v 0.05240735 -0.01377533 -0.01801259
v 0.05208746 -0.01074118 -0.01639377
v 0.05240735 -0.00997093 -0.01626980
v 0.05240735 -0.00988412 -0.01626318
v 0.05240735 -0.00421679 -0.01621624
v 0.04352785 -0.01125376 -0.01351059
v 0.05240735 -0.01377533 -0.01942740
v 0.04352785 0.00030136 -0.01513903
v 0.04352785 -0.01015832 -0.01358521
v 0.04352785 -0.01037328 -0.01356655
f 1 2 5
f 1 5 12
f 1 12 22
f 1 22 16
f 1 16 9
f 1 9 3
f 1 3 11
f 1 11 21
f 1 21 25
f 1 25 24
f 1 24 23
f 1 23 13
f 1 13 7
f 1 7 6
f 1 6 4
f 1 4 2
f 2 4 6
f 2 6 7
f 2 7 8
f 2 8 5
f 3 9 10
f 3 10 11
f 5 8 12
f 7 13 8
f 8 14 12
f 8 13 23
f 8 23 15
f 8 15 20
f 8 20 19
f 8 19 18
f 8 18 16
f 8 16 22
f 8 22 14
f 9 16 17
f 9 17 10
f 10 17 16
f 10 16 18
f 10 18 19
f 10 19 20
f 10 20 11
f 11 20 15
f 11 15 21
f 12 14 22
f 15 23 24
f 15 24 25
f 15 25 21

