# https://github.com/mikedh/trimesh
v -0.01427877 -0.02715093 0.01299241
v -0.01427877 -0.02591428 0.01299241
v -0.01426820 -0.02715254 0.01299241
v -0.01426820 -0.02716983 0.01568193
v -0.01427877 -0.02716782 0.01568060
v -0.01427877 -0.02584714 0.01299419
v -0.01426820 -0.02584955 0.01299241
v -0.01199982 -0.02722571 0.01299241
v -0.01080093 -0.02726310 0.01299241
v -0.01306667 -0.02720642 0.01552448
v -0.01378759 -0.02716380 0.01672465
v -0.01378759 -0.02713566 0.01752344
v -0.01427877 -0.02708460 0.01568193
v -0.01427877 -0.02583307 0.01312547
v -0.00437077 -0.02317240 0.01708878
v 0.01260643 -0.02582985 0.01299241
v -0.00466917 -0.02727758 0.01299241
v -0.00360232 -0.02727959 0.01299241
v -0.00346765 -0.02724903 0.01432564
v -0.01066890 -0.02716018 0.01752344
v -0.01378759 -0.02564572 0.01752344
v -0.01427877 -0.02571004 0.01568193
v -0.01427877 -0.02565979 0.01568104
v -0.00456619 -0.02317240 0.01752344
v -0.00344388 -0.02317240 0.01709100
v -0.00287876 -0.02317240 0.01736998
v 0.01260643 -0.02581940 0.01307225
v 0.01269886 -0.02576874 0.01568193
v 0.01260643 -0.02714249 0.01299241
v 0.00479254 -0.02727717 0.01299241
v 0.00972541 -0.02717385 0.01752344
v -0.00282595 -0.02317240 0.01752344
v 0.01260643 -0.02581256 0.01312547
v 0.01269886 -0.02561155 0.01721120
v 0.01269886 -0.02704842 0.01568193
v 0.01052290 -0.02716219 0.01752344
v 0.00732763 -0.02725667 0.01299241
v 0.01269886 -0.02709184 0.01752344
v 0.00612610 -0.02727637 0.01299241
v 0.01269886 -0.02560994 0.01752344
f 1 2 7
f 1 7 16
f 1 16 29
f 1 29 37
f 1 37 39
f 1 39 30
f 1 30 18
f 1 18 17
f 1 17 9
f 1 9 8
f 1 8 3
f 1 3 4
f 1 4 5
f 1 5 13
f 1 13 22
f 1 22 23
f 1 23 14
f 1 14 6
f 1 6 2
f 2 6 7
f 3 8 4
f 4 8 9
f 4 9 10
f 4 10 11
f 4 11 12
f 4 12 5
f 5 12 13
f 6 14 15
f 6 15 16
f 6 16 7
f 9 17 10
f 10 17 18
f 10 18 19
f 10 19 20
f 10 20 11
f 11 20 12
f 12 21 22
f 12 22 13
f 12 20 31
f 12 31 36
f 12 36 38
f 12 38 40
f 12 40 32
f 12 32 24
f 12 24 21
f 14 23 24
f 14 24 15
f 15 24 32
f 15 32 26
f 15 26 25
f 15 25 16
f 16 25 26
f 16 26 27
f 16 27 28
f 16 28 35
f 16 35 29
f 18 30 31
f 18 31 19
f 19 31 20
f 21 24 23
f 21 23 22
f 26 32 33
f 26 33 27
f 27 33 28
f 28 34 40
f 28 40 38
f 28 38 35
f 28 33 34
f 29 36 37
f 29 35 38
f 29 38 36
f 30 39 31
f 31 39 36
f 32 40 34
f 32 34 33
f 36 39 37

