# https://github.com/mikedh/trimesh
v 0.01000504 -0.01922987 0.01752344
v 0.01269886 -0.01922987 0.01752344
v 0.01103685 -0.01922987 0.01568201
v 0.01074125 -0.02115787 0.01752344
v 0.01269886 -0.01922987 0.01568201
v 0.01269886 -0.02319814 0.01752344
v 0.01106401 -0.01927260 0.01568201
v 0.01149144 -0.02061711 0.01607549
v 0.01162197 -0.02290873 0.01740952
v 0.01146112 -0.02279724 0.01752344
v 0.01117739 -0.02227008 0.01752344
v 0.01269886 -0.02076862 0.01568201
v 0.01226272 -0.02312705 0.01752344
v 0.01242199 -0.02305324 0.01725685
v 0.01269886 -0.02317445 0.01746089
v 0.01212798 -0.02025195 0.01568201
v 0.01269886 -0.02096480 0.01576745
v 0.01173482 -0.02298798 0.01752344
v 0.01269886 -0.02306257 0.01724459
v 0.01269886 -0.02311112 0.01733832
f 1 2 5
f 1 5 3
f 1 3 4
f 1 4 11
f 1 11 10
f 1 10 18
f 1 18 13
f 1 13 6
f 1 6 2
f 2 6 15
f 2 15 20
f 2 20 19
f 2 19 17
f 2 17 12
f 2 12 5
f 3 5 12
f 3 12 16
f 3 16 7
f 3 7 8
f 3 8 9
f 3 9 10
f 3 10 11
f 3 11 4
f 6 13 14
f 6 14 15
f 7 16 8
f 8 12 17
f 8 17 9
f 8 16 12
f 9 14 18
f 9 18 10
f 9 17 14
f 13 18 14
f 14 19 20
f 14 20 15
f 14 17 19

