# https://github.com/mikedh/trimesh
v -0.01427096 0.03642525 -0.01966262
v -0.01943783 0.03439139 -0.01939611
v -0.01943783 0.03697099 -0.01961034
v -0.01427096 0.03697099 -0.01965681
v -0.00827255 0.03522552 -0.01956677
v -0.00827255 0.03426059 -0.01956822
v -0.01930672 0.03426059 -0.01938449
v -0.01943783 0.03426059 -0.01936053
v -0.01943783 0.03697099 -0.01404122
v -0.00181353 0.03697099 -0.01938449
v -0.00707356 0.03522552 -0.01954425
v -0.00707356 0.03426059 -0.01953627
v -0.01943783 0.03426059 -0.01707014
v -0.01943783 0.03628066 -0.01361713
v -0.00947327 0.03503636 -0.01224391
v -0.00530354 0.03697099 -0.01317924
v -0.00181353 0.03697099 -0.01329833
v -0.00181353 0.03426059 -0.01924579
v -0.01943783 0.03557520 -0.01360914
v -0.01670172 0.03426059 -0.01688278
v -0.00947327 0.03426696 -0.01224391
v -0.01067053 0.03436035 -0.01237898
v -0.01943783 0.03599784 -0.01360914
v -0.01067053 0.03494376 -0.01237898
v -0.00827255 0.03507456 -0.01224972
v -0.00707356 0.03516211 -0.01227949
v -0.00181353 0.03591267 -0.01260047
v -0.00347314 0.03697099 -0.01317924
v -0.00181353 0.03426059 -0.01699534
v -0.00560199 0.03426059 -0.01615660
v -0.00467213 0.03426059 -0.01617257
v -0.00827255 0.03429906 -0.01224972
v -0.00707356 0.03433886 -0.01227949
v -0.00467213 0.03522552 -0.01236300
v -0.00181353 0.03549561 -0.01251986
v -0.00181353 0.03455827 -0.01258086
v -0.00227242 0.03453227 -0.01254528
v -0.00347314 0.03447019 -0.01245959
v -0.00467213 0.03441951 -0.01238842
v -0.00587284 0.03438051 -0.01233105
v -0.00347314 0.03522552 -0.01241166
v -0.00227242 0.03522552 -0.01247702
v -0.00181353 0.03519289 -0.01251115
v -0.00181353 0.03474690 -0.01255544
f 1 2 3
f 1 3 4
f 1 4 5
f 1 5 6
f 1 6 2
f 2 7 8
f 2 8 13
f 2 13 19
f 2 19 23
f 2 23 14
f 2 14 9
f 2 9 3
f 2 6 7
f 3 9 16
f 3 16 28
f 3 28 17
f 3 17 10
f 3 10 4
f 4 10 11
f 4 11 5
f 5 11 6
f 6 11 12
f 6 12 18
f 6 18 29
f 6 29 31
f 6 31 30
f 6 30 20
f 6 20 13
f 6 13 8
f 6 8 7
f 9 14 15
f 9 15 16
f 10 17 27
f 10 27 35
f 10 35 43
f 10 43 44
f 10 44 36
f 10 36 29
f 10 29 18
f 10 18 12
f 10 12 11
f 13 20 21
f 13 21 22
f 13 22 19
f 14 23 24
f 14 24 15
f 15 21 32
f 15 32 25
f 15 25 26
f 15 26 16
f 15 24 22
f 15 22 21
f 16 26 27
f 16 27 28
f 17 28 27
f 19 22 24
f 19 24 23
f 20 30 21
f 21 30 31
f 21 31 29
f 21 29 32
f 25 32 33
f 25 33 26
f 26 33 34
f 26 34 27
f 27 34 35
f 29 36 37
f 29 37 38
f 29 38 39
f 29 39 33
f 29 33 32
f 33 40 41
f 33 41 34
f 33 39 40
f 34 41 35
f 35 42 43
f 35 41 42
f 36 44 37
f 37 44 38
f 38 44 43
f 38 43 42
f 38 42 39
f 39 42 41
f 39 41 40

