# https://github.com/mikedh/trimesh
v -0.00170174 -0.03772338 -0.01988303
v -0.00170174 -0.03731248 -0.01988303
v -0.00140106 -0.03772338 -0.01988303
v -0.00105528 -0.03872136 -0.01981788
v -0.01786923 -0.03872136 -0.01973356
v -0.02986932 -0.03872136 -0.01963455
v -0.01427312 -0.03437464 -0.01963391
v -0.00587215 -0.03365159 -0.01959750
v -0.00140106 -0.03731248 -0.01988303
v -0.02866961 -0.03437464 -0.01957259
v -0.02939425 -0.03365159 -0.01954193
v -0.00016227 -0.03802809 -0.01981021
v -0.00016227 -0.03872136 -0.01980957
v -0.00030659 -0.03872136 -0.01981404
v -0.00051105 -0.03872136 -0.01981532
v -0.03087659 -0.03872136 -0.01957642
v -0.02986932 -0.03365159 -0.01953107
v -0.00227303 -0.03365159 -0.01957579
v -0.00107332 -0.03365159 -0.01950297
v -0.00103123 -0.03685742 -0.01981277
v -0.00016227 -0.03768964 -0.01980382
v -0.00016227 -0.03872136 -0.01527632
v -0.03087659 -0.03365159 -0.01927749
v -0.03087659 -0.03872136 -0.01590102
v -0.00016227 -0.03365159 -0.01916123
v -0.00016227 -0.03528477 -0.01947231
v -0.00016227 -0.03648423 -0.01966521
v -0.00016227 -0.03679538 -0.01970482
v -0.00016227 -0.03631848 -0.01377524
v -0.00221590 -0.03872136 -0.01462734
v -0.03087659 -0.03365159 -0.01492436
v -0.02924090 -0.03872136 -0.01500804
v -0.00016227 -0.03365159 -0.01609776
v -0.00016227 -0.03589120 -0.01376502
v -0.00347274 -0.03530363 -0.01351527
v -0.01909299 -0.03872136 -0.01338943
v -0.02897029 -0.03872136 -0.01489562
v -0.02854633 -0.03872136 -0.01476021
v -0.02249367 -0.03872136 -0.01345523
v -0.02243053 -0.03872136 -0.01344309
v -0.02388581 -0.03365159 -0.01362130
v -0.00707487 -0.03367988 -0.01357467
v -0.00587215 -0.03368931 -0.01359895
v -0.00515353 -0.03375332 -0.01380015
v -0.00227303 -0.03474584 -0.01360661
v -0.00149728 -0.03489571 -0.01377077
v -0.02264702 -0.03365159 -0.01357915
v -0.00347274 -0.03459051 -0.01351527
v -0.02120075 -0.03872136 -0.01335813
v -0.02147136 -0.03872136 -0.01337027
f 1 2 9
f 1 9 3
f 1 3 4
f 1 4 5
f 1 5 6
f 1 6 2
f 2 7 8
f 2 8 9
f 2 6 10
f 2 10 11
f 2 11 7
f 3 9 12
f 3 12 13
f 3 13 14
f 3 14 15
f 3 15 4
f 4 15 14
f 4 14 13
f 4 13 22
f 4 22 30
f 4 30 36
f 4 36 49
f 4 49 50
f 4 50 40
f 4 40 39
f 4 39 38
f 4 38 37
f 4 37 32
f 4 32 24
f 4 24 16
f 4 16 6
f 4 6 5
f 6 16 17
f 6 17 11
f 6 11 10
f 7 11 8
f 8 18 9
f 8 11 17
f 8 17 23
f 8 23 31
f 8 31 41
f 8 41 47
f 8 47 33
f 8 33 25
f 8 25 19
f 8 19 18
f 9 18 19
f 9 19 20
f 9 20 21
f 9 21 12
f 12 21 28
f 12 28 27
f 12 27 26
f 12 26 25
f 12 25 33
f 12 33 34
f 12 34 29
f 12 29 22
f 12 22 13
f 16 23 17
f 16 24 31
f 16 31 23
f 19 25 26
f 19 26 27
f 19 27 28
f 19 28 21
f 19 21 20
f 22 29 30
f 24 32 31
f 29 34 35
f 29 35 36
f 29 36 30
f 31 32 37
f 31 37 38
f 31 38 39
f 31 39 40
f 31 40 41
f 33 42 43
f 33 43 44
f 33 44 45
f 33 45 46
f 33 46 34
f 33 47 42
f 34 48 35
f 34 46 45
f 34 45 48
f 35 49 36
f 35 48 49
f 40 50 41
f 41 50 49
f 41 49 47
f 42 48 43
f 42 47 48
f 43 48 45
f 43 45 44
f 47 49 48

