# https://github.com/mikedh/trimesh
v 0.04352698 -0.03424189 -0.01906858
v 0.04452814 -0.03424189 -0.01921653
v 0.04352698 -0.03424189 -0.01621893
v 0.04352698 -0.03077429 -0.01937017
v 0.04572830 -0.03424189 -0.01930717
v 0.04352698 -0.02977344 -0.01945634
v 0.04986005 -0.03424189 -0.01694079
v 0.04352698 -0.02956998 -0.01542187
v 0.04932754 -0.03317419 -0.01923685
v 0.04986005 -0.03373033 -0.01905070
v 0.04986005 -0.03424189 -0.01891128
v 0.04572830 -0.03197376 -0.01942789
v 0.04692784 -0.03197376 -0.01941813
v 0.04352698 -0.02957385 -0.01945308
v 0.04692784 -0.03077429 -0.01947259
v 0.04986005 -0.03384175 -0.01691478
v 0.04352698 -0.02844415 -0.01532107
v 0.04986005 -0.03320714 -0.01913971
v 0.04986005 -0.03365379 -0.01906411
v 0.04986005 -0.03197376 -0.01929416
v 0.04352698 -0.02857398 -0.01943601
v 0.04986005 -0.02957385 -0.01934619
v 0.04986005 -0.03010577 -0.01933846
v 0.04352698 -0.02837536 -0.01943195
v 0.04529746 -0.02434387 -0.01933481
v 0.04649762 -0.02434387 -0.01931489
v 0.04986005 -0.02837536 -0.01932587
v 0.04986005 -0.02434387 -0.01696070
v 0.04754838 -0.02535150 -0.01626567
v 0.04754838 -0.02538831 -0.01626567
v 0.04352698 -0.02717492 -0.01541659
v 0.04352698 -0.02434387 -0.01930595
v 0.04452814 -0.02434387 -0.01932790
v 0.04986005 -0.02434387 -0.01915028
v 0.04352698 -0.02434387 -0.01572631
f 1 2 5
f 1 5 11
f 1 11 7
f 1 7 3
f 1 3 8
f 1 8 17
f 1 17 31
f 1 31 35
f 1 35 32
f 1 32 24
f 1 24 21
f 1 21 14
f 1 14 6
f 1 6 4
f 1 4 2
f 2 4 6
f 2 6 5
f 3 7 8
f 5 9 10
f 5 10 11
f 5 6 12
f 5 12 13
f 5 13 9
f 6 14 15
f 6 15 12
f 7 11 10
f 7 10 19
f 7 19 18
f 7 18 20
f 7 20 23
f 7 23 22
f 7 22 27
f 7 27 34
f 7 34 28
f 7 28 16
f 7 16 17
f 7 17 8
f 9 18 19
f 9 19 10
f 9 13 20
f 9 20 18
f 12 15 13
f 13 15 20
f 14 21 15
f 15 22 23
f 15 23 20
f 15 21 24
f 15 24 25
f 15 25 26
f 15 26 27
f 15 27 22
f 16 28 29
f 16 29 30
f 16 30 17
f 17 30 29
f 17 29 31
f 24 32 33
f 24 33 25
f 25 33 32
f 25 32 35
f 25 35 28
f 25 28 34
f 25 34 26
f 26 34 27
f 28 35 29
f 29 35 31

