# https://github.com/mikedh/trimesh
v -0.02027203 0.00652180 0.02878792
v -0.02013039 0.00642535 0.02878792
v -0.02027203 0.00642535 0.02875604
v -0.02065233 0.00642535 0.02878792
v -0.02011470 0.00626805 0.02878792
v -0.02027203 0.00522546 0.02877903
v -0.02147196 0.00522546 0.02878338
v -0.02158510 0.00522546 0.02878792
v -0.02022367 0.00522546 0.02878792
v -0.02027203 0.00514011 0.02878792
v -0.02147196 0.00518109 0.02878792
v -0.02022899 0.00518231 0.02878792
f 1 2 3
f 1 3 4
f 1 4 8
f 1 8 11
f 1 11 10
f 1 10 12
f 1 12 9
f 1 9 5
f 1 5 2
f 2 5 3
f 3 5 6
f 3 6 7
f 3 7 8
f 3 8 4
f 5 9 6
f 6 10 11
f 6 11 7
f 6 9 12
f 6 12 10
f 7 11 8

