# https://github.com/mikedh/trimesh
v 0.03251991 -0.03468988 0.00950881
v 0.03086609 -0.04091527 0.01139747
v 0.03251991 -0.04056637 0.01045592
v 0.03251991 -0.03468988 0.00821674
v 0.03221185 -0.03468988 0.00947104
v 0.02301298 -0.03845223 0.01147579
v 0.03086609 -0.04125602 0.01139747
v 0.02772875 -0.04069600 0.01161689
v 0.03251991 -0.04124120 0.01045592
v 0.03251991 -0.03644698 0.00594202
v 0.03091634 -0.03468988 0.00763237
v 0.03132771 -0.03468988 0.00930939
v 0.02301298 -0.03468988 0.00737351
v 0.02301298 -0.03915744 0.01146802
v 0.02772875 -0.04137528 0.01161689
v 0.03012712 -0.04146788 0.01144302
v 0.03009548 -0.04200567 0.01082754
v 0.03251991 -0.04124269 0.01044814
v 0.02925042 -0.03468988 0.00708632
v 0.03251991 -0.04062859 0.00594202
v 0.02338991 -0.03477063 0.00594202
v 0.02329591 -0.03468988 0.00596701
v 0.02358349 -0.03468988 0.00599034
v 0.02412887 -0.03468988 0.00603534
v 0.02638857 -0.03468988 0.00625031
v 0.02301298 -0.03468988 0.00594757
v 0.02301298 -0.03920188 0.01146357
v 0.02301857 -0.03920114 0.01146635
v 0.02892747 -0.04209531 0.01117194
v 0.02892747 -0.04149528 0.01152523
v 0.02412887 -0.03994635 0.01147635
v 0.02652817 -0.04117528 0.01152579
v 0.02967388 -0.04221309 0.01049647
v 0.03251991 -0.04138639 0.00952436
v 0.02954824 -0.04218568 0.00638418
v 0.02934349 -0.04215975 0.00594202
v 0.02301298 -0.03470396 0.00594202
v 0.02301298 -0.03958189 0.01072255
v 0.02347832 -0.03978782 0.01134303
v 0.02892747 -0.04223383 0.01057201
v 0.02767384 -0.04198938 0.01073977
v 0.02803681 -0.04221457 0.01034926
v 0.02583761 -0.04102712 0.01138636
v 0.02898890 -0.04225753 0.00948159
v 0.02967388 -0.04221309 0.00985321
v 0.02882510 -0.04218716 0.00594202
v 0.02301298 -0.04160270 0.00594202
v 0.02301298 -0.04158788 0.00599090
v 0.02767384 -0.04224568 0.00954047
v 0.02652817 -0.04158936 0.01072477
v 0.02723828 -0.04213086 0.00995042
v 0.02772875 -0.04223309 0.00868446
v 0.02856544 -0.04218494 0.00594202
v 0.02708193 -0.04219383 0.00887722
v 0.02708193 -0.04219383 0.00915052
v 0.02830950 -0.04218197 0.00594202
f 1 2 3
f 1 3 9
f 1 9 18
f 1 18 34
f 1 34 20
f 1 20 10
f 1 10 4
f 1 4 11
f 1 11 19
f 1 19 25
f 1 25 24
f 1 24 23
f 1 23 22
f 1 22 26
f 1 26 13
f 1 13 12
f 1 12 5
f 1 5 6
f 1 6 2
f 2 7 9
f 2 9 3
f 2 6 8
f 2 8 15
f 2 15 7
f 4 10 11
f 5 12 6
f 6 13 26
f 6 26 37
f 6 37 47
f 6 47 48
f 6 48 38
f 6 38 27
f 6 27 14
f 6 14 15
f 6 15 8
f 6 12 13
f 7 15 16
f 7 16 17
f 7 17 9
f 9 17 18
f 10 19 11
f 10 20 36
f 10 36 46
f 10 46 53
f 10 53 56
f 10 56 47
f 10 47 37
f 10 37 21
f 10 21 22
f 10 22 23
f 10 23 24
f 10 24 25
f 10 25 19
f 14 27 28
f 14 28 15
f 15 29 30
f 15 30 16
f 15 28 31
f 15 31 32
f 15 32 29
f 16 30 29
f 16 29 17
f 17 29 33
f 17 33 18
f 18 33 34
f 20 34 35
f 20 35 36
f 21 37 22
f 22 37 26
f 27 38 39
f 27 39 28
f 28 39 31
f 29 40 33
f 29 32 41
f 29 41 42
f 29 42 40
f 31 39 43
f 31 43 32
f 32 43 41
f 33 44 45
f 33 45 34
f 33 40 44
f 34 45 35
f 35 45 44
f 35 44 46
f 35 46 36
f 38 48 39
f 39 48 43
f 40 42 49
f 40 49 44
f 41 43 50
f 41 50 51
f 41 51 42
f 42 51 49
f 43 48 50
f 44 49 52
f 44 52 46
f 46 52 53
f 47 54 55
f 47 55 51
f 47 51 48
f 47 56 54
f 48 51 50
f 49 51 55
f 49 55 54
f 49 54 52
f 52 56 53
f 52 54 56

