# https://github.com/mikedh/trimesh
v -0.01104375 0.00073443 0.02186858
v -0.01104375 0.00073443 0.02020768
v -0.01258175 0.00073443 0.02186858
v -0.01104375 -0.00318748 0.02186858
v -0.01104375 0.00052139 0.02015664
v -0.01188372 0.00046169 0.01752344
v -0.01195031 0.00073443 0.01752344
v -0.01273271 0.00073443 0.02174481
v -0.01359099 -0.00345693 0.02186858
v -0.01282769 -0.00460760 0.02186858
v -0.01323043 -0.00450464 0.01752344
v -0.01307973 -0.00434855 0.01752344
v -0.01291869 -0.00418041 0.01752344
v -0.01241619 -0.00365081 0.01752344
v -0.01104375 -0.00311025 0.02158446
v -0.01104375 0.00045731 0.02014132
v -0.01104375 0.00042500 0.02013367
v -0.01186462 -0.00077496 0.01752344
v -0.01335115 0.00073443 0.01752344
v -0.01325033 0.00073443 0.02063385
v -0.01369844 -0.00404021 0.02186858
v -0.01302561 -0.00471221 0.02186858
v -0.01331374 -0.00486063 0.02186858
v -0.01373876 -0.00456215 0.01752344
v -0.01218962 -0.00306808 0.01752344
v -0.01104375 -0.00187251 0.02042970
v -0.01104375 -0.00077496 0.02016684
v -0.01194660 -0.00197492 0.01752344
v -0.01338060 0.00073443 0.01766507
v -0.01372921 -0.00341093 0.01752344
v -0.01335221 0.00073443 0.02034038
v -0.01374487 -0.00345201 0.02130077
v -0.01373558 -0.00433322 0.02186858
v -0.01373346 -0.00471878 0.02186858
v -0.01374964 -0.00444494 0.01752344
v -0.01210048 -0.00269731 0.01752344
v -0.01104375 -0.00158005 0.02035952
v -0.01343445 0.00073443 0.01792494
v -0.01373531 -0.00365903 0.01752344
v -0.01373956 -0.00190372 0.01905334
v -0.01371595 -0.00197492 0.01835793
v -0.01344639 0.00073443 0.01946123
v -0.01372603 -0.00225588 0.02002691
v -0.01375415 -0.00296512 0.01912522
v -0.01374487 -0.00389781 0.02065980
v -0.01373770 -0.00425106 0.02166102
v -0.01348141 0.00073443 0.01912522
v -0.01367535 -0.00134783 0.01850467
f 1 2 7
f 1 7 19
f 1 19 29
f 1 29 38
f 1 38 47
f 1 47 42
f 1 42 31
f 1 31 20
f 1 20 8
f 1 8 3
f 1 3 9
f 1 9 21
f 1 21 33
f 1 33 34
f 1 34 23
f 1 23 22
f 1 22 10
f 1 10 4
f 1 4 15
f 1 15 26
f 1 26 37
f 1 37 27
f 1 27 17
f 1 17 16
f 1 16 5
f 1 5 2
f 2 5 6
f 2 6 7
f 3 8 9
f 4 10 11
f 4 11 12
f 4 12 13
f 4 13 14
f 4 14 15
f 5 16 6
f 6 16 17
f 6 17 18
f 6 18 28
f 6 28 36
f 6 36 25
f 6 25 14
f 6 14 13
f 6 13 12
f 6 12 11
f 6 11 24
f 6 24 35
f 6 35 39
f 6 39 30
f 6 30 19
f 6 19 7
f 8 20 9
f 9 20 21
f 10 22 11
f 11 22 23
f 11 23 24
f 14 25 15
f 15 25 26
f 17 27 18
f 18 27 28
f 19 30 29
f 20 31 21
f 21 31 32
f 21 32 33
f 23 34 24
f 24 34 35
f 25 36 26
f 26 36 28
f 26 28 37
f 27 37 28
f 29 30 38
f 30 39 40
f 30 40 41
f 30 41 38
f 31 42 32
f 32 43 40
f 32 40 44
f 32 44 45
f 32 45 46
f 32 46 33
f 32 42 47
f 32 47 43
f 33 46 34
f 34 46 45
f 34 45 35
f 35 45 44
f 35 44 40
f 35 40 39
f 38 41 48
f 38 48 47
f 40 43 47
f 40 47 48
f 40 48 41

