# https://github.com/mikedh/trimesh
v 0.02652883 -0.02237438 -0.02391161
v 0.02532492 -0.02341718 -0.02387538
v 0.02530226 -0.02234768 -0.02374252
v 0.02568392 -0.02162532 -0.02359230
v 0.02652883 -0.02157514 -0.02364590
v 0.02772822 -0.02158296 -0.02364891
v 0.02772822 -0.02237438 -0.02387160
v 0.02997105 -0.02341718 -0.02382480
v 0.02524333 -0.02341718 -0.02385575
v 0.02523880 -0.02237761 -0.02373120
v 0.02523880 -0.01871423 -0.02234298
v 0.02611454 -0.01871423 -0.02236638
v 0.02652883 -0.01871423 -0.02236109
v 0.02720513 -0.01871423 -0.02231354
v 0.02892851 -0.01871423 -0.02217615
v 0.02892851 -0.02167044 -0.02356588
v 0.02892851 -0.02237438 -0.02377951
v 0.03000822 -0.02244344 -0.02359003
v 0.03011066 -0.02341718 -0.02379763
v 0.02523880 -0.02341718 -0.02233392
v 0.02523880 -0.01871423 -0.01780012
v 0.02911616 -0.01871423 -0.02215350
v 0.02974532 -0.01927177 -0.02231731
v 0.03013786 -0.01883301 -0.02205009
v 0.03132727 -0.01877500 -0.02177305
v 0.03132727 -0.01965390 -0.02216105
v 0.03204527 -0.02042092 -0.02233769
v 0.02952865 -0.02177403 -0.02347529
v 0.03080237 -0.02288911 -0.02353568
v 0.03091660 -0.02341718 -0.02360740
v 0.02523880 -0.02341718 -0.02199120
v 0.02523880 -0.01871883 -0.01677727
v 0.02532855 -0.01871423 -0.01679991
v 0.02963562 -0.01871423 -0.02207273
v 0.03013242 -0.01871423 -0.02198894
v 0.03132727 -0.01871423 -0.02174361
v 0.03449933 -0.01871423 -0.02101892
v 0.03449933 -0.01880124 -0.02103779
v 0.03449933 -0.01992323 -0.02123180
v 0.03449933 -0.02117367 -0.02137824
v 0.03449933 -0.02237438 -0.02135484
v 0.03449933 -0.02341718 -0.02130955
v 0.02523880 -0.02201988 -0.01711017
v 0.02797117 -0.02341718 -0.01689729
v 0.02523880 -0.01877500 -0.01675839
v 0.03012789 -0.02037488 -0.01620054
v 0.03378768 -0.01871423 -0.01686257
v 0.03449933 -0.01871423 -0.01689050
v 0.03449933 -0.02341718 -0.01714263
v 0.02523880 -0.02117689 -0.01684143
v 0.02819600 -0.02341718 -0.01680671
v 0.02892851 -0.02341718 -0.01651985
v 0.02523880 -0.01886386 -0.01675462
v 0.02938723 -0.02046696 -0.01623602
v 0.02938179 -0.02117413 -0.01623677
v 0.03007802 -0.02122017 -0.01620884
v 0.03132727 -0.02078233 -0.01623074
v 0.03132727 -0.02045591 -0.01623074
v 0.03449933 -0.01920271 -0.01684671
v 0.03192742 -0.02057469 -0.01627527
v 0.03449933 -0.02117413 -0.01676141
v 0.03192742 -0.02057515 -0.01627527
v 0.03044518 -0.02165064 -0.01630698
v 0.02523880 -0.01997480 -0.01678708
v 0.02947335 -0.02180349 -0.01626319
v 0.02964560 -0.02180349 -0.01626319
v 0.03449933 -0.01997480 -0.01679085
f 1 2 3
f 1 3 4
f 1 4 5
f 1 5 6
f 1 6 7
f 1 7 8
f 1 8 2
f 2 9 10
f 2 10 3
f 2 8 19
f 2 19 30
f 2 30 42
f 2 42 49
f 2 49 52
f 2 52 51
f 2 51 44
f 2 44 31
f 2 31 20
f 2 20 9
f 3 10 11
f 3 11 4
f 4 11 5
f 5 11 12
f 5 12 6
f 6 12 13
f 6 13 14
f 6 14 15
f 6 15 16
f 6 16 17
f 6 17 7
f 7 17 8
f 8 17 18
f 8 18 19
f 9 20 10
f 10 20 31
f 10 31 43
f 10 43 50
f 10 50 64
f 10 64 53
f 10 53 45
f 10 45 32
f 10 32 21
f 10 21 11
f 11 21 33
f 11 33 47
f 11 47 48
f 11 48 37
f 11 37 36
f 11 36 35
f 11 35 34
f 11 34 22
f 11 22 15
f 11 15 14
f 11 14 13
f 11 13 12
f 15 22 16
f 16 22 23
f 16 23 24
f 16 24 25
f 16 25 26
f 16 26 27
f 16 27 28
f 16 28 18
f 16 18 17
f 18 28 27
f 18 27 29
f 18 29 19
f 19 29 30
f 21 32 33
f 22 34 23
f 23 34 24
f 24 35 36
f 24 36 25
f 24 34 35
f 25 36 37
f 25 37 27
f 25 27 26
f 27 37 29
f 29 37 30
f 30 37 38
f 30 38 39
f 30 39 40
f 30 40 41
f 30 41 42
f 31 44 43
f 32 45 46
f 32 46 47
f 32 47 33
f 37 48 59
f 37 59 67
f 37 67 61
f 37 61 49
f 37 49 42
f 37 42 41
f 37 41 40
f 37 40 39
f 37 39 38
f 43 44 51
f 43 51 52
f 43 52 50
f 45 53 54
f 45 54 46
f 46 54 55
f 46 55 56
f 46 56 57
f 46 57 58
f 46 58 48
f 46 48 47
f 48 58 60
f 48 60 59
f 49 61 62
f 49 62 57
f 49 57 63
f 49 63 52
f 50 52 65
f 50 65 55
f 50 55 64
f 52 63 66
f 52 66 65
f 53 64 55
f 53 55 54
f 55 65 56
f 56 65 66
f 56 66 57
f 57 62 60
f 57 60 58
f 57 66 63
f 59 60 67
f 60 62 61
f 60 61 67

