# https://github.com/mikedh/trimesh
v -0.01757813 0.01139133 0.02186858
v -0.01040612 0.00883228 0.02186858
v -0.01389249 0.00883228 0.02399712
v -0.01389249 0.00883228 0.02492620
v -0.01757813 0.01403484 0.02609791
v -0.01757813 0.02404641 0.02186858
v -0.00102759 0.00883228 0.02186858
v -0.01315212 0.00883228 0.02609791
v -0.01757813 0.01676282 0.02609791
v -0.01757813 0.02397094 0.02259893
v -0.01609091 0.02624785 0.02361579
v -0.01608443 0.02624245 0.02186858
v -0.00102759 0.00883228 0.02376277
v -0.00102759 0.01631714 0.02186858
v -0.00929314 0.00883228 0.02609791
v -0.01375641 0.02562246 0.02609791
v -0.01496011 0.02529359 0.02577165
v -0.01551093 0.02574646 0.02518207
v -0.01616544 0.02539962 0.02467364
v -0.01757813 0.02322335 0.02347875
v -0.01757813 0.02396375 0.02263371
v -0.01606175 0.02620112 0.02441529
v -0.01558546 0.02653718 0.02397931
v -0.01564702 0.02648865 0.02186858
v -0.00102759 0.01326389 0.02609791
v -0.00125278 0.02425488 0.02186858
v -0.00102759 0.02442740 0.02251612
v -0.01215741 0.02629996 0.02609791
v -0.01393623 0.02627121 0.02577869
v -0.01473654 0.02609330 0.02569092
v -0.01757813 0.02367981 0.02318189
v -0.01757813 0.02394398 0.02272438
v -0.01526144 0.02647787 0.02489060
v -0.01427159 0.02678877 0.02392507
v -0.01340161 0.02706372 0.02186858
v -0.01461504 0.02681932 0.02186858
v -0.01547043 0.02658929 0.02272521
v -0.01547043 0.02658749 0.02186858
v -0.00102759 0.02550565 0.02609791
v -0.00207577 0.02480658 0.02186858
v -0.00102759 0.02511748 0.02313883
v -0.00102759 0.02509771 0.02311730
v -0.01180099 0.02633950 0.02609791
v -0.01431047 0.02645631 0.02522430
v -0.01187066 0.02655874 0.02512452
v -0.01187066 0.02718952 0.02186858
v -0.00102759 0.02569434 0.02512452
v -0.00405062 0.02623167 0.02573356
v -0.00433899 0.02588663 0.02609791
v -0.00263631 0.02512107 0.02186858
v -0.00102759 0.02547869 0.02389112
v -0.00487847 0.02624425 0.02186858
v -0.01086136 0.02634848 0.02609791
v -0.01067181 0.02677259 0.02392507
v -0.01067181 0.02717334 0.02186858
v -0.00102759 0.02568715 0.02508022
v -0.00587319 0.02657491 0.02186858
v -0.00382543 0.02629457 0.02422525
v -0.00386918 0.02628199 0.02512452
v -0.00555404 0.02598727 0.02609791
v -0.00985368 0.02714459 0.02186858
v -0.00505020 0.02631434 0.02186858
v -0.00102759 0.02549127 0.02392507
v -0.00707204 0.02683190 0.02186858
v -0.00948107 0.02710506 0.02186858
f 1 2 3
f 1 3 4
f 1 4 5
f 1 5 9
f 1 9 20
f 1 20 31
f 1 31 32
f 1 32 21
f 1 21 10
f 1 10 6
f 1 6 12
f 1 12 24
f 1 24 38
f 1 38 36
f 1 36 35
f 1 35 46
f 1 46 55
f 1 55 61
f 1 61 65
f 1 65 64
f 1 64 57
f 1 57 62
f 1 62 52
f 1 52 50
f 1 50 40
f 1 40 26
f 1 26 14
f 1 14 7
f 1 7 2
f 2 7 13
f 2 13 15
f 2 15 8
f 2 8 4
f 2 4 3
f 4 8 5
f 5 8 15
f 5 15 25
f 5 25 39
f 5 39 49
f 5 49 60
f 5 60 53
f 5 53 43
f 5 43 28
f 5 28 16
f 5 16 9
f 6 10 11
f 6 11 12
f 7 14 27
f 7 27 42
f 7 42 41
f 7 41 51
f 7 51 63
f 7 63 56
f 7 56 47
f 7 47 39
f 7 39 25
f 7 25 13
f 9 16 17
f 9 17 18
f 9 18 19
f 9 19 20
f 10 21 22
f 10 22 11
f 11 22 23
f 11 23 12
f 12 23 24
f 13 25 15
f 14 26 27
f 16 28 29
f 16 29 30
f 16 30 17
f 17 30 18
f 18 30 22
f 18 22 19
f 19 22 20
f 20 22 31
f 21 32 22
f 22 30 33
f 22 33 23
f 22 32 31
f 23 33 34
f 23 34 35
f 23 35 36
f 23 36 37
f 23 37 38
f 23 38 24
f 26 40 41
f 26 41 42
f 26 42 27
f 28 43 29
f 29 43 44
f 29 44 33
f 29 33 30
f 33 44 34
f 34 45 46
f 34 46 35
f 34 44 43
f 34 43 45
f 36 38 37
f 39 47 48
f 39 48 49
f 40 50 41
f 41 50 52
f 41 52 51
f 43 53 45
f 45 54 55
f 45 55 46
f 45 53 54
f 47 56 57
f 47 57 58
f 47 58 59
f 47 59 48
f 48 60 49
f 48 59 61
f 48 61 55
f 48 55 54
f 48 54 53
f 48 53 60
f 51 52 62
f 51 62 63
f 56 63 57
f 57 64 58
f 57 63 62
f 58 64 59
f 59 64 65
f 59 65 61

