# https://github.com/mikedh/trimesh
v -0.01284967 0.00042645 -0.01687554
v -0.01260982 0.00120679 -0.01807500
v -0.01263683 0.00037366 -0.01817317
v -0.01283670 0.00030136 -0.01687315
v -0.01279565 0.00030136 -0.01565652
v -0.01275027 0.00049759 -0.01565319
v -0.01201453 0.00402637 -0.01687554
v -0.01250070 0.00107253 -0.01873264
v -0.01170986 0.00510164 -0.01687554
v -0.01225113 0.00030136 -0.01950131
v -0.01260550 0.00030136 -0.01824990
v -0.01262927 0.00030136 -0.01813791
v -0.01250070 0.00073858 -0.01873264
v -0.01271030 0.00030136 -0.01520952
v -0.01168825 0.00507984 -0.01567559
v -0.01213121 0.00156139 -0.01950131
v -0.01225113 0.00039087 -0.01950131
v -0.01059706 0.00522558 -0.01950131
v -0.01142356 0.00364538 -0.01950131
v -0.00542309 0.01194001 -0.01730490
v -0.00542309 0.01194001 -0.01778574
v -0.01020380 0.00596806 -0.01950131
v -0.01069214 0.00030136 -0.01950131
v -0.01248990 0.00030136 -0.01494980
v -0.01144084 0.00484574 -0.01494551
v -0.01107783 0.00568002 -0.01567559
v -0.01023405 0.00593134 -0.01499269
v -0.00347300 0.01087851 -0.01614117
v -0.00467223 0.01202493 -0.01719101
v -0.00467223 0.01202493 -0.01797827
v -0.00347300 0.01130426 -0.01950131
v -0.00441726 0.01095769 -0.01950131
v -0.00597949 0.00987898 -0.01950131
v -0.00792203 0.00847435 -0.01950131
v -0.00181461 0.00538854 -0.01546162
v -0.00626796 0.00068350 -0.01526385
v -0.00698209 0.00030136 -0.01547782
v -0.00181461 0.00991570 -0.01950131
v -0.01187192 0.00030136 -0.01490739
v -0.01064892 0.00523820 -0.01486259
v -0.00947130 0.00597035 -0.01496124
v -0.00181461 0.01002472 -0.01564509
v -0.00227269 0.01002472 -0.01567082
v -0.00227269 0.01098294 -0.01602537
v -0.00347300 0.01198247 -0.01719005
v -0.00181461 0.01097491 -0.01600297
v -0.00347300 0.01198247 -0.01781243
v -0.00181461 0.01143164 -0.01950131
v -0.00314672 0.01136049 -0.01950131
v -0.00181461 0.00538854 -0.01489929
v -0.00626796 0.00068350 -0.01486498
v -0.00698209 0.00030136 -0.01470247
v -0.00827099 0.00030136 -0.01469437
v -0.00707284 0.00162566 -0.01463338
v -0.00181461 0.00642479 -0.01486212
v -0.00227269 0.00642479 -0.01487165
v -0.00181461 0.00677710 -0.01493217
v -0.00181461 0.01148443 -0.01688602
v -0.00270160 0.01188493 -0.01730443
v -0.00270160 0.01188493 -0.01756414
v -0.00181461 0.01147983 -0.01850342
v -0.00181461 0.00576264 -0.01488214
v -0.00702639 0.00030136 -0.01470152
v -0.00181461 0.01149246 -0.01735494
f 1 2 3
f 1 3 4
f 1 4 5
f 1 5 6
f 1 6 7
f 1 7 2
f 2 8 3
f 2 7 9
f 2 9 8
f 3 10 11
f 3 11 12
f 3 12 4
f 3 8 13
f 3 13 10
f 4 12 11
f 4 11 10
f 4 10 23
f 4 23 37
f 4 37 52
f 4 52 63
f 4 63 53
f 4 53 39
f 4 39 24
f 4 24 14
f 4 14 5
f 5 14 6
f 6 14 15
f 6 15 7
f 7 15 9
f 8 9 16
f 8 16 17
f 8 17 10
f 8 10 13
f 9 18 19
f 9 19 16
f 9 15 20
f 9 20 21
f 9 21 22
f 9 22 18
f 10 17 16
f 10 16 19
f 10 19 18
f 10 18 22
f 10 22 34
f 10 34 33
f 10 33 32
f 10 32 31
f 10 31 49
f 10 49 48
f 10 48 38
f 10 38 23
f 14 24 25
f 14 25 15
f 15 25 26
f 15 26 20
f 20 26 25
f 20 25 27
f 20 27 28
f 20 28 29
f 20 29 30
f 20 30 21
f 21 30 31
f 21 31 32
f 21 32 33
f 21 33 34
f 21 34 22
f 23 35 36
f 23 36 37
f 23 38 35
f 24 39 40
f 24 40 25
f 25 40 27
f 27 41 42
f 27 42 43
f 27 43 44
f 27 44 28
f 27 40 41
f 28 44 29
f 29 45 47
f 29 47 30
f 29 44 46
f 29 46 45
f 30 47 48
f 30 48 49
f 30 49 31
f 35 50 51
f 35 51 36
f 35 38 48
f 35 48 61
f 35 61 64
f 35 64 58
f 35 58 46
f 35 46 42
f 35 42 57
f 35 57 55
f 35 55 62
f 35 62 50
f 36 51 52
f 36 52 37
f 39 53 40
f 40 53 54
f 40 54 55
f 40 55 56
f 40 56 41
f 41 56 57
f 41 57 42
f 42 46 44
f 42 44 43
f 45 58 59
f 45 59 60
f 45 60 47
f 45 46 58
f 47 60 48
f 48 60 61
f 50 54 52
f 50 52 51
f 50 62 54
f 52 54 63
f 53 63 54
f 54 62 55
f 55 57 56
f 58 64 59
f 59 64 60
f 60 64 61

