# https://github.com/mikedh/trimesh
v 0.01717047 -0.00677569 0.02186858
v 0.01728753 -0.00677569 0.02237825
v 0.01718112 -0.00643460 0.02186858
v 0.01717276 -0.00749162 0.02186858
v 0.02267749 -0.00437552 0.02609791
v 0.01730653 -0.00595981 0.02234720
v 0.01729665 -0.00871482 0.02186858
v 0.01733542 -0.00902593 0.02186858
v 0.01748136 -0.00881228 0.02217745
v 0.02234608 -0.01410864 0.02609791
v 0.01730805 -0.00595481 0.02186858
v 0.02309175 -0.00134439 0.02609791
v 0.01757637 -0.00983806 0.02186858
v 0.01849155 -0.01233194 0.02186858
v 0.01901147 -0.01277799 0.02186858
v 0.02080305 -0.01410864 0.02186858
v 0.02459829 -0.01410864 0.02609791
v 0.02314724 -0.00134439 0.02392507
v 0.02323997 -0.00134439 0.02215509
v 0.02325973 -0.00134439 0.02186858
v 0.02443030 -0.00134439 0.02609791
v 0.02488029 -0.01410864 0.02186858
v 0.02466290 -0.01410864 0.02600020
v 0.02460437 -0.01402993 0.02609791
v 0.02447211 -0.00134439 0.02186858
v 0.02445463 -0.00134439 0.02578532
v 0.02476019 -0.00243764 0.02609791
v 0.02488181 -0.01410864 0.02187520
v 0.02489549 -0.00595731 0.02186858
v 0.02477387 -0.01410864 0.02556878
v 0.02476475 -0.00919460 0.02609791
v 0.02447591 -0.00134439 0.02209505
v 0.02488257 -0.00558248 0.02186858
v 0.02477159 -0.00292992 0.02609791
v 0.02491450 -0.00677569 0.02392507
v 0.02489017 -0.01410864 0.02191826
v 0.02492742 -0.00797390 0.02392507
v 0.02492894 -0.01387000 0.02261839
v 0.02491526 -0.01410864 0.02408489
v 0.02493502 -0.01397370 0.02392507
v 0.02476931 -0.00900719 0.02609791
v 0.02477159 -0.00300239 0.02609791
v 0.02490537 -0.01410864 0.02234513
v 0.02491450 -0.01410864 0.02262543
v 0.02491678 -0.01410864 0.02392507
f 1 2 3
f 1 3 11
f 1 11 20
f 1 20 25
f 1 25 33
f 1 33 29
f 1 29 22
f 1 22 16
f 1 16 15
f 1 15 14
f 1 14 13
f 1 13 8
f 1 8 7
f 1 7 4
f 1 4 2
f 2 5 6
f 2 6 3
f 2 4 7
f 2 7 8
f 2 8 9
f 2 9 10
f 2 10 5
f 3 6 11
f 5 12 6
f 5 10 17
f 5 17 24
f 5 24 31
f 5 31 41
f 5 41 42
f 5 42 34
f 5 34 27
f 5 27 21
f 5 21 12
f 6 12 11
f 8 13 9
f 9 13 10
f 10 13 14
f 10 14 15
f 10 15 16
f 10 16 22
f 10 22 28
f 10 28 36
f 10 36 43
f 10 43 44
f 10 44 45
f 10 45 39
f 10 39 30
f 10 30 23
f 10 23 17
f 11 12 18
f 11 18 19
f 11 19 20
f 12 21 26
f 12 26 32
f 12 32 25
f 12 25 20
f 12 20 19
f 12 19 18
f 17 23 24
f 21 27 26
f 22 29 28
f 23 30 31
f 23 31 24
f 25 32 27
f 25 27 33
f 26 27 32
f 27 34 35
f 27 35 29
f 27 29 33
f 28 29 36
f 29 35 37
f 29 37 38
f 29 38 36
f 30 39 40
f 30 40 41
f 30 41 31
f 34 42 40
f 34 40 37
f 34 37 35
f 36 38 43
f 37 40 38
f 38 40 44
f 38 44 43
f 39 45 40
f 40 45 44
f 40 42 41

