# https://github.com/mikedh/trimesh
v -0.01381164 0.02161599 0.01807891
v -0.01350756 0.02161599 0.01833198
v -0.01381164 0.02161599 0.02186858
v -0.01381164 0.02548672 0.01752344
v -0.00810179 0.02525539 0.01752344
v -0.01350309 0.02161599 0.01834176
v -0.01346005 0.02161599 0.02186858
v -0.01381164 0.02697947 0.02186858
v -0.01381164 0.02678937 0.01752344
v -0.00810179 0.02526169 0.01775822
v -0.01317442 0.02161599 0.02031231
v -0.01331919 0.02161599 0.01912522
v -0.00810179 0.02679223 0.01752344
v -0.01334043 0.02161599 0.02164230
v -0.00810179 0.02547699 0.02186858
v -0.01340192 0.02706421 0.02186858
v -0.01257744 0.02745014 0.02106216
v -0.01381164 0.02700925 0.02151088
v -0.01381164 0.02702242 0.02035654
v -0.01257744 0.02745014 0.02086906
v -0.01187146 0.02686896 0.01752344
v -0.01327838 0.02161599 0.02152449
v -0.00827228 0.02683403 0.01752344
v -0.00827228 0.02695485 0.01912522
v -0.00810179 0.02691019 0.01912522
v -0.00810179 0.02692107 0.02186858
v -0.01187146 0.02718904 0.02186858
v -0.01187146 0.02745587 0.02106216
v -0.01187146 0.02745587 0.02085630
v -0.01067248 0.02746503 0.02079208
v -0.01147013 0.02687526 0.01752344
v -0.00947238 0.02688786 0.01752344
v -0.00989719 0.02746217 0.02078357
v -0.00810179 0.02695428 0.02032464
v -0.00810179 0.02693137 0.02181967
v -0.00989719 0.02746217 0.02105365
v -0.00948244 0.02710544 0.02186858
v -0.01067248 0.02717473 0.02186858
v -0.01067248 0.02746503 0.02105620
v -0.00810179 0.02699092 0.02152449
v -0.00985527 0.02714552 0.02186858
f 1 2 6
f 1 6 12
f 1 12 11
f 1 11 22
f 1 22 14
f 1 14 7
f 1 7 3
f 1 3 8
f 1 8 18
f 1 18 19
f 1 19 9
f 1 9 4
f 1 4 5
f 1 5 2
f 2 5 6
f 3 7 15
f 3 15 26
f 3 26 37
f 3 37 41
f 3 41 38
f 3 38 27
f 3 27 16
f 3 16 8
f 4 9 21
f 4 21 31
f 4 31 32
f 4 32 23
f 4 23 13
f 4 13 5
f 5 10 11
f 5 11 12
f 5 12 6
f 5 13 25
f 5 25 34
f 5 34 40
f 5 40 35
f 5 35 26
f 5 26 15
f 5 15 10
f 7 14 15
f 8 16 17
f 8 17 18
f 9 19 20
f 9 20 21
f 10 15 11
f 11 15 22
f 13 23 24
f 13 24 25
f 14 22 15
f 16 27 17
f 17 28 29
f 17 29 20
f 17 20 19
f 17 19 18
f 17 27 28
f 20 29 30
f 20 30 31
f 20 31 21
f 23 32 33
f 23 33 24
f 24 33 25
f 25 33 34
f 26 35 36
f 26 36 37
f 27 38 36
f 27 36 39
f 27 39 28
f 28 39 30
f 28 30 29
f 30 39 36
f 30 36 33
f 30 33 32
f 30 32 31
f 33 40 34
f 33 36 40
f 35 40 36
f 36 38 41
f 36 41 37

