# https://github.com/mikedh/trimesh
v 0.00192367 -0.02451638 0.01752344
v 0.00253511 -0.02451638 0.01682427
v 0.00469097 -0.02451638 0.01752344
v 0.00269982 -0.01922948 0.01752344
v 0.00264834 -0.01922948 0.01719115
v 0.00257357 -0.01922948 0.01670771
v 0.00380646 -0.02451638 0.01678381
v 0.00460103 -0.02451638 0.01711376
v 0.00373874 -0.01922948 0.01670176
v 0.00374172 -0.01922948 0.01674906
v 0.00374415 -0.01922948 0.01678888
v 0.00371571 -0.01922948 0.01752344
f 1 2 7
f 1 7 8
f 1 8 3
f 1 3 12
f 1 12 4
f 1 4 5
f 1 5 6
f 1 6 2
f 2 6 7
f 3 8 9
f 3 9 10
f 3 10 11
f 3 11 12
f 4 12 11
f 4 11 10
f 4 10 9
f 4 9 6
f 4 6 5
f 6 9 7
f 7 9 8

