# https://github.com/mikedh/trimesh
v -0.03073675 -0.04130832 0.01152152
v -0.03294718 -0.04203857 0.01140152
v -0.03073675 -0.04150362 0.01152152
v -0.03073675 -0.04077053 0.01151512
v -0.03738888 -0.03317927 0.00922150
v -0.03294718 -0.04223953 0.01140152
v -0.03107216 -0.04082431 0.01148632
v -0.03738888 -0.01994693 0.00817269
v -0.03738888 -0.02265850 0.00849670
v -0.03073675 -0.04175270 0.01096152
v -0.03227246 -0.04225652 0.01142952
v -0.03154433 -0.04221972 0.01138792
v -0.03073675 -0.02835053 0.00980151
v -0.03738888 -0.03435391 0.00913510
v -0.03738888 -0.03469073 0.00900630
v -0.03535820 -0.04231879 0.00801189
v -0.03472711 -0.04248012 0.00837669
v -0.03347210 -0.04272920 0.00832469
v -0.03738888 -0.01880909 0.00797349
v -0.03073675 -0.04181780 0.01069832
v -0.03347210 -0.04286789 0.00712548
v -0.03227246 -0.04266127 0.00712548
v -0.03150265 -0.04231029 0.00712548
v -0.03073675 -0.01794297 0.00739189
v -0.03738888 -0.03531060 0.00857030
v -0.03656566 -0.04128001 0.00426866
v -0.03541095 -0.04238672 0.00712548
v -0.03467176 -0.04272637 0.00712548
v -0.03738888 -0.01767691 0.00767829
v -0.03073675 -0.04136493 0.00334945
v -0.03149679 -0.04230746 0.00625668
v -0.03467176 -0.04269240 0.00592547
v -0.03347210 -0.04270090 0.00592547
v -0.03225096 -0.04244050 0.00588387
v -0.03073675 -0.01783541 0.00706388
v -0.03155996 -0.01683626 0.00660068
v -0.03500912 -0.01395204 0.00613347
v -0.03548194 -0.01395204 0.00653828
v -0.03587140 -0.01395204 0.00655988
v -0.03738888 -0.03544929 0.00832309
v -0.03684506 -0.04041106 0.00334945
v -0.03683399 -0.04045918 0.00334945
v -0.03656566 -0.04128001 0.00377025
v -0.03551776 -0.04239804 0.00592547
v -0.03738888 -0.01559653 0.00664148
v -0.03073675 -0.02222827 0.00334945
v -0.03107216 -0.04150079 0.00334945
v -0.03544482 -0.04229331 0.00472546
v -0.03467176 -0.04242068 0.00472546
v -0.03357371 -0.04233011 0.00465826
v -0.03324090 -0.04214613 0.00421426
v -0.03073675 -0.01781843 0.00677748
v -0.03155996 -0.01683626 0.00622228
v -0.03274463 -0.01568993 0.00550147
v -0.03494920 -0.01395204 0.00602147
v -0.03662558 -0.01395204 0.00612788
v -0.03738888 -0.03567290 0.00712548
v -0.03738888 -0.03550024 0.00334945
v -0.03606223 -0.04137342 0.00334945
v -0.03586098 -0.04161400 0.00354785
v -0.03527353 -0.04217443 0.00412546
v -0.03665294 -0.01395204 0.00606547
v -0.03738888 -0.01542387 0.00628868
v -0.03106239 -0.02237545 0.00334945
v -0.03347210 -0.01997523 0.00339585
v -0.03347210 -0.01877512 0.00343425
v -0.03347210 -0.01757501 0.00356625
v -0.03270751 -0.01637490 0.00396866
v -0.03284102 -0.01575503 0.00409906
v -0.03073675 -0.02183484 0.00354225
v -0.03226464 -0.04162816 0.00334945
v -0.03467176 -0.04217443 0.00412146
v -0.03404067 -0.04217443 0.00412066
v -0.03073675 -0.01783258 0.00613188
v -0.03275375 -0.01569276 0.00472546
v -0.03491989 -0.01395204 0.00505507
v -0.03738888 -0.02927608 0.00334945
v -0.03581084 -0.04150362 0.00334945
v -0.03467176 -0.04184610 0.00352145
v -0.03487951 -0.04169892 0.00334945
v -0.03467176 -0.04173571 0.00334945
v -0.03666075 -0.01395204 0.00602467
v -0.03738888 -0.01542387 0.00622228
v -0.03667899 -0.01395204 0.00508867
v -0.03467176 -0.01877512 0.00362625
v -0.03467176 -0.01757501 0.00372785
v -0.03478964 -0.01625602 0.00397026
v -0.03347210 -0.01637490 0.00384225
v -0.03347210 -0.01571258 0.00407346
v -0.03587140 -0.01395204 0.00480386
v -0.03073675 -0.02167350 0.00364145
v -0.03354505 -0.04169326 0.00334945
v -0.03357371 -0.04187723 0.00364225
v -0.03738888 -0.01757501 0.00499026
v -0.03713814 -0.01648812 0.00492946
v -0.03707170 -0.01757501 0.00473186
v -0.03628171 -0.01757501 0.00419586
v -0.03568188 -0.01757501 0.00398066
v -0.03738888 -0.01574937 0.00580387
v -0.03667573 -0.01395204 0.00507427
v -0.03553274 -0.01657869 0.00403586
v -0.03526832 -0.01577768 0.00412546
v -0.03446856 -0.01571541 0.00408226
v -0.03588573 -0.01395204 0.00480866
v -0.03587140 -0.01517479 0.00445106
v -0.03738888 -0.01671172 0.00511267
v -0.03684441 -0.01517479 0.00492946
v -0.03590853 -0.01625602 0.00421266
v -0.03738888 -0.01630414 0.00531987
f 1 2 6
f 1 6 3
f 1 3 10
f 1 10 20
f 1 20 30
f 1 30 46
f 1 46 70
f 1 70 91
f 1 91 74
f 1 74 52
f 1 52 35
f 1 35 24
f 1 24 13
f 1 13 4
f 1 4 2
f 2 5 6
f 2 4 7
f 2 7 8
f 2 8 9
f 2 9 5
f 3 6 11
f 3 11 12
f 3 12 10
f 4 13 8
f 4 8 7
f 5 14 6
f 5 9 8
f 5 8 19
f 5 19 29
f 5 29 45
f 5 45 63
f 5 63 83
f 5 83 99
f 5 99 109
f 5 109 106
f 5 106 94
f 5 94 77
f 5 77 58
f 5 58 57
f 5 57 40
f 5 40 25
f 5 25 15
f 5 15 14
f 6 14 15
f 6 15 16
f 6 16 17
f 6 17 18
f 6 18 11
f 8 13 19
f 10 12 20
f 11 18 12
f 12 18 21
f 12 21 22
f 12 22 23
f 12 23 20
f 13 24 19
f 15 25 16
f 16 26 27
f 16 27 28
f 16 28 17
f 16 25 26
f 17 28 18
f 18 28 21
f 19 24 29
f 20 23 31
f 20 31 30
f 21 28 32
f 21 32 33
f 21 33 22
f 22 33 34
f 22 34 31
f 22 31 23
f 24 35 36
f 24 36 37
f 24 37 38
f 24 38 39
f 24 39 29
f 25 40 26
f 26 41 42
f 26 42 43
f 26 43 44
f 26 44 27
f 26 40 41
f 27 44 28
f 28 44 32
f 29 39 45
f 30 31 47
f 30 47 71
f 30 71 92
f 30 92 81
f 30 81 80
f 30 80 78
f 30 78 59
f 30 59 42
f 30 42 41
f 30 41 58
f 30 58 77
f 30 77 64
f 30 64 46
f 31 34 47
f 32 44 48
f 32 48 49
f 32 49 33
f 33 49 50
f 33 50 51
f 33 51 47
f 33 47 34
f 35 52 36
f 36 52 53
f 36 53 54
f 36 54 55
f 36 55 37
f 37 55 76
f 37 76 90
f 37 90 104
f 37 104 100
f 37 100 84
f 37 84 82
f 37 82 62
f 37 62 56
f 37 56 39
f 37 39 38
f 39 56 45
f 40 57 41
f 41 57 58
f 42 59 43
f 43 59 60
f 43 60 61
f 43 61 48
f 43 48 44
f 45 56 62
f 45 62 63
f 46 64 65
f 46 65 66
f 46 66 67
f 46 67 68
f 46 68 69
f 46 69 70
f 47 51 71
f 48 61 49
f 49 61 72
f 49 72 73
f 49 73 50
f 50 73 51
f 51 73 71
f 52 74 53
f 53 74 75
f 53 75 54
f 54 75 76
f 54 76 55
f 59 78 60
f 60 78 61
f 61 79 72
f 61 78 80
f 61 80 81
f 61 81 79
f 62 82 63
f 63 82 84
f 63 84 83
f 64 77 65
f 65 77 66
f 66 77 85
f 66 85 86
f 66 86 67
f 67 86 87
f 67 87 88
f 67 88 68
f 68 88 69
f 69 89 90
f 69 90 76
f 69 76 75
f 69 75 74
f 69 74 91
f 69 91 70
f 69 88 89
f 71 73 93
f 71 93 92
f 72 79 73
f 73 79 93
f 77 94 95
f 77 95 96
f 77 96 97
f 77 97 98
f 77 98 86
f 77 86 85
f 79 81 92
f 79 92 93
f 83 84 100
f 83 100 99
f 86 98 101
f 86 101 102
f 86 102 87
f 87 102 88
f 88 102 103
f 88 103 89
f 89 103 90
f 90 103 102
f 90 102 105
f 90 105 104
f 94 106 95
f 95 97 96
f 95 106 107
f 95 107 97
f 97 107 108
f 97 108 101
f 97 101 98
f 99 100 109
f 100 104 105
f 100 105 108
f 100 108 107
f 100 107 106
f 100 106 109
f 101 108 102
f 102 108 105

