# https://github.com/mikedh/trimesh
v -0.02406921 -0.05792407 -0.01306709
v -0.02387163 -0.05792629 -0.01307647
v -0.02406921 -0.05792407 -0.01236094
v -0.02406921 -0.05766246 -0.01366709
v -0.02387163 -0.05766689 -0.01367647
v -0.02267178 -0.05791853 -0.01308058
v -0.02387163 -0.05792629 -0.01236153
v -0.02267178 -0.05767797 -0.01368058
v -0.02406921 -0.05756379 -0.01176094
v -0.02406921 -0.05756379 -0.01378849
v -0.02262674 -0.05543872 -0.01680430
v -0.01787241 -0.05781433 -0.01283601
v -0.02267178 -0.05791853 -0.01239378
v -0.01787241 -0.05759151 -0.01343600
v -0.01427288 -0.05694412 -0.01431107
v -0.01361154 -0.05692860 -0.01428937
v -0.02387163 -0.05755714 -0.01176153
v -0.02406921 -0.05696297 -0.01118910
v -0.02406921 -0.05706273 -0.01438614
v -0.02406921 -0.05644528 -0.01498613
v -0.02406921 -0.05584556 -0.01536209
v -0.02311814 -0.05477360 -0.01680430
v -0.01361154 -0.05445212 -0.01680430
v -0.01694694 -0.05779215 -0.01275624
v -0.01787241 -0.05781433 -0.01257677
v -0.01659681 -0.05762366 -0.01320375
v -0.01787241 -0.05743410 -0.01197678
v -0.01547273 -0.05753165 -0.01327530
v -0.01361154 -0.05739641 -0.01327530
v -0.01427288 -0.05744740 -0.01327530
v -0.01787241 -0.05683327 -0.01130582
v -0.02406921 -0.05614154 -0.01090934
v -0.02406921 -0.05106885 -0.01680430
v -0.02406409 -0.05116086 -0.01680430
v -0.01361154 -0.05092142 -0.01680430
v -0.01694694 -0.05779215 -0.01262780
v -0.01659681 -0.05745405 -0.01216680
v -0.01667257 -0.05678006 -0.01134394
v -0.01361154 -0.05720795 -0.01265888
v -0.01667257 -0.05597415 -0.01106359
v -0.01787241 -0.05597415 -0.01102723
v -0.02406921 -0.05597415 -0.01085362
v -0.02406921 -0.04936059 -0.01680430
v -0.01476941 -0.04660254 -0.01680430
v -0.01361154 -0.05230377 -0.01329231
v -0.01361154 -0.05700731 -0.01207355
v -0.01547273 -0.05724454 -0.01207531
v -0.01547273 -0.05668251 -0.01140728
v -0.01466908 -0.05661267 -0.01145186
v -0.01547273 -0.05597415 -0.01116681
v -0.01667257 -0.05477360 -0.01102488
v -0.01787241 -0.05477360 -0.01098676
v -0.02387163 -0.05477360 -0.01081609
v -0.02406921 -0.05497092 -0.01081784
v -0.02387470 -0.04875976 -0.01680430
v -0.02406921 -0.04976853 -0.01447470
v -0.02235646 -0.04660254 -0.01680430
v -0.01656815 -0.04660254 -0.01482719
v -0.01592523 -0.04803034 -0.01379729
v -0.01512465 -0.04855357 -0.01425711
v -0.01486564 -0.04816337 -0.01505710
v -0.01361154 -0.05271060 -0.01247883
v -0.01361154 -0.05643197 -0.01151989
v -0.01386952 -0.05649073 -0.01150171
v -0.01427084 -0.05604399 -0.01132986
v -0.01361154 -0.05585997 -0.01136153
v -0.01547273 -0.05477360 -0.01114394
v -0.01547273 -0.05382247 -0.01138441
v -0.01667257 -0.05371716 -0.01130523
v -0.02267178 -0.05357416 -0.01115215
v -0.02406921 -0.05477360 -0.01081315
v -0.02373547 -0.04877528 -0.01447470
v -0.02337818 -0.04799708 -0.01447470
v -0.02340889 -0.04794499 -0.01542894
v -0.02406921 -0.05299772 -0.01149878
v -0.02232882 -0.04673335 -0.01471282
v -0.02213943 -0.04660254 -0.01506942
v -0.01673400 -0.04660254 -0.01469230
v -0.01486257 -0.04935283 -0.01386650
v -0.01797376 -0.04660254 -0.01412163
v -0.01885215 -0.04660254 -0.01394157
v -0.01902004 -0.04660254 -0.01390990
v -0.01547273 -0.05322275 -0.01154452
v -0.01425241 -0.05359633 -0.01167004
v -0.01361154 -0.05431577 -0.01151696
v -0.01361154 -0.05353757 -0.01192575
v -0.01361154 -0.05623798 -0.01146476
v -0.01361154 -0.05488999 -0.01135801
v -0.01463836 -0.05401203 -0.01144130
v -0.01907123 -0.04660254 -0.01390755
v -0.02386139 -0.05347771 -0.01120259
v -0.02406921 -0.05351208 -0.01119203
v -0.02406921 -0.05369942 -0.01113338
v -0.02327682 -0.04816891 -0.01387060
v -0.02204524 -0.04660254 -0.01464479
v -0.02044306 -0.04660254 -0.01409289
v -0.02267178 -0.04795718 -0.01383776
v -0.02179237 -0.04660254 -0.01447939
f 1 2 7
f 1 7 3
f 1 3 9
f 1 9 18
f 1 18 32
f 1 32 42
f 1 42 54
f 1 54 71
f 1 71 93
f 1 93 92
f 1 92 75
f 1 75 56
f 1 56 43
f 1 43 33
f 1 33 21
f 1 21 20
f 1 20 19
f 1 19 10
f 1 10 4
f 1 4 5
f 1 5 2
f 2 6 13
f 2 13 7
f 2 5 8
f 2 8 6
f 3 7 9
f 4 10 11
f 4 11 5
f 5 11 8
f 6 12 25
f 6 25 13
f 6 8 14
f 6 14 12
f 7 13 9
f 8 15 16
f 8 16 14
f 8 11 15
f 9 13 17
f 9 17 18
f 10 19 11
f 11 16 15
f 11 19 20
f 11 20 21
f 11 21 22
f 11 22 34
f 11 34 33
f 11 33 43
f 11 43 55
f 11 55 57
f 11 57 44
f 11 44 35
f 11 35 23
f 11 23 16
f 12 24 36
f 12 36 25
f 12 14 26
f 12 26 24
f 13 25 27
f 13 27 17
f 14 28 26
f 14 16 28
f 16 29 30
f 16 30 28
f 16 23 35
f 16 35 45
f 16 45 62
f 16 62 86
f 16 86 85
f 16 85 88
f 16 88 66
f 16 66 87
f 16 87 63
f 16 63 46
f 16 46 39
f 16 39 29
f 17 27 31
f 17 31 18
f 18 31 32
f 21 33 34
f 21 34 22
f 24 26 28
f 24 28 30
f 24 30 29
f 24 29 36
f 25 36 27
f 27 37 38
f 27 38 31
f 27 36 37
f 29 39 36
f 31 38 40
f 31 40 41
f 31 41 42
f 31 42 32
f 35 44 45
f 36 39 46
f 36 46 37
f 37 46 47
f 37 47 38
f 38 47 48
f 38 48 40
f 40 48 49
f 40 49 50
f 40 50 51
f 40 51 52
f 40 52 41
f 41 52 53
f 41 53 42
f 42 53 54
f 43 56 55
f 44 57 77
f 44 77 95
f 44 95 98
f 44 98 96
f 44 96 90
f 44 90 82
f 44 82 81
f 44 81 80
f 44 80 78
f 44 78 58
f 44 58 59
f 44 59 60
f 44 60 61
f 44 61 62
f 44 62 45
f 46 48 47
f 46 63 64
f 46 64 49
f 46 49 48
f 49 64 50
f 50 64 65
f 50 65 66
f 50 66 67
f 50 67 51
f 51 67 68
f 51 68 69
f 51 69 70
f 51 70 52
f 52 70 53
f 53 71 54
f 53 70 71
f 55 56 72
f 55 72 73
f 55 73 74
f 55 74 57
f 56 75 72
f 57 76 77
f 57 74 76
f 58 78 59
f 59 62 79
f 59 79 60
f 59 78 80
f 59 80 81
f 59 81 82
f 59 82 83
f 59 83 84
f 59 84 85
f 59 85 86
f 59 86 62
f 60 79 61
f 61 79 62
f 63 87 64
f 64 87 66
f 64 66 65
f 66 88 67
f 67 88 89
f 67 89 68
f 68 83 69
f 68 89 83
f 69 83 90
f 69 90 70
f 70 91 92
f 70 92 93
f 70 93 71
f 70 90 91
f 72 94 73
f 72 75 94
f 73 94 76
f 73 76 74
f 75 92 94
f 76 95 77
f 76 94 95
f 82 90 83
f 83 89 85
f 83 85 84
f 85 89 88
f 90 96 92
f 90 92 91
f 92 96 97
f 92 97 94
f 94 97 96
f 94 96 98
f 94 98 95

