# https://github.com/mikedh/trimesh
v -0.02601561 -0.00197195 0.02992510
v -0.02597510 -0.00197195 0.02878792
v -0.02597637 -0.00310935 0.02878792
v -0.02592701 -0.00917244 0.02992510
v -0.02578651 -0.00917244 0.03068100
v -0.02578651 -0.00077438 0.03065370
v -0.02574347 0.00042319 0.03061631
v -0.02568145 0.00589652 0.02934378
v -0.02568145 0.00589652 0.02928964
v -0.02538652 0.01238989 0.02878792
v -0.02581435 -0.01257559 0.02878792
v -0.02578018 -0.01247027 0.02992510
v -0.02577385 -0.01013230 0.03064705
v -0.02507135 -0.00917244 0.03091798
v -0.02507135 0.00042319 0.03085352
v -0.02453846 0.01212811 0.03057960
v -0.02479415 0.01248618 0.03002398
v -0.02500679 0.01350622 0.02878792
v -0.02555487 -0.01317437 0.02878792
v -0.02548905 -0.01306906 0.02992510
v -0.02568778 -0.01223557 0.03054565
v -0.02507768 -0.01268993 0.03073514
v -0.02387140 -0.01277418 0.03105242
v -0.02387140 -0.01157360 0.03106297
v -0.02267146 0.00762367 0.03100470
v -0.02395494 0.01248618 0.03068399
v -0.02441188 0.01292850 0.03049036
v -0.02468023 0.01322638 0.02969042
v -0.02387140 0.01409297 0.02878792
v -0.02498654 -0.01364077 0.02878792
v -0.02488908 -0.01357156 0.02992510
v -0.02468276 -0.01347527 0.03063397
v -0.02387140 -0.01355050 0.03071450
v -0.01308454 -0.01478719 0.03081681
v -0.01308454 -0.01398078 0.03111550
v -0.01308454 -0.01397175 0.03111780
v -0.02147151 -0.01157360 0.03113156
v -0.02147151 0.00882425 0.03107215
v -0.02267146 0.01242299 0.03079433
v -0.02361192 0.01313311 0.03062594
v -0.02395494 0.01338586 0.03002398
v -0.02106647 0.01427050 0.02938851
v -0.01308454 0.01519727 0.02878792
v -0.02495490 -0.01366484 0.02878792
v -0.02378153 -0.01419442 0.02878792
v -0.02298283 -0.01445921 0.02878792
v -0.02246134 -0.01462771 0.02878792
v -0.02210059 -0.01458558 0.02934332
v -0.01427310 -0.01475409 0.03072803
v -0.01308454 -0.01518738 0.02992510
v -0.01308454 0.01357844 0.03096409
v -0.02027156 0.00882425 0.03106251
v -0.02027156 0.01002483 0.03102145
v -0.01308454 0.01427953 0.03073354
v -0.01308454 0.01461653 0.03014166
v -0.01308454 -0.01554244 0.02878792
f 1 2 3
f 1 3 4
f 1 4 5
f 1 5 6
f 1 6 7
f 1 7 8
f 1 8 9
f 1 9 2
f 2 9 10
f 2 10 18
f 2 18 29
f 2 29 43
f 2 43 56
f 2 56 47
f 2 47 46
f 2 46 45
f 2 45 44
f 2 44 30
f 2 30 19
f 2 19 11
f 2 11 3
f 3 11 4
f 4 11 12
f 4 12 13
f 4 13 5
f 5 13 14
f 5 14 6
f 6 14 15
f 6 15 16
f 6 16 7
f 7 16 17
f 7 17 10
f 7 10 8
f 8 10 9
f 10 17 18
f 11 19 12
f 12 19 20
f 12 20 21
f 12 21 13
f 13 21 22
f 13 22 14
f 14 22 23
f 14 23 24
f 14 24 15
f 15 25 26
f 15 26 16
f 15 24 25
f 16 26 27
f 16 27 17
f 17 27 18
f 18 28 29
f 18 27 28
f 19 30 31
f 19 31 20
f 20 31 32
f 20 32 21
f 21 32 22
f 22 32 23
f 23 32 33
f 23 33 34
f 23 34 35
f 23 35 36
f 23 36 37
f 23 37 24
f 24 37 38
f 24 38 25
f 25 38 26
f 26 38 39
f 26 39 40
f 26 40 27
f 27 40 41
f 27 41 29
f 27 29 28
f 29 41 40
f 29 40 42
f 29 42 43
f 30 44 31
f 31 44 45
f 31 45 46
f 31 46 32
f 32 46 47
f 32 47 48
f 32 48 33
f 33 48 49
f 33 49 34
f 34 49 50
f 34 50 56
f 34 56 43
f 34 43 55
f 34 55 54
f 34 54 51
f 34 51 36
f 34 36 35
f 36 51 52
f 36 52 38
f 36 38 37
f 38 52 51
f 38 51 53
f 38 53 39
f 39 51 40
f 39 53 51
f 40 51 54
f 40 54 42
f 42 54 55
f 42 55 43
f 47 56 48
f 48 56 50
f 48 50 49

