# https://github.com/mikedh/trimesh
v -0.04096248 0.03963806 -0.01996854
v -0.04096248 0.03882749 -0.01996392
v -0.04096248 0.04302648 -0.01946638
v -0.04067170 0.04302648 -0.01957724
v -0.04016076 0.04302648 -0.01963531
v -0.03147281 0.04302648 -0.01945913
v -0.03227267 0.04242537 -0.01952841
v -0.03147281 0.04242537 -0.01950927
v -0.04096248 0.03793253 -0.01923676
v -0.03147281 0.04162510 -0.01950268
v -0.03347200 0.03776990 -0.01951983
v -0.03467226 0.03776990 -0.01948684
v -0.04096248 0.04302648 -0.01511462
v -0.03147281 0.04302648 -0.01573093
v -0.04096248 0.03776990 -0.01861649
v -0.03147281 0.03776990 -0.01936213
v -0.04096248 0.03815125 -0.01377115
v -0.04079526 0.04302648 -0.01475170
v -0.03147281 0.04195190 -0.01353294
v -0.03345993 0.04302648 -0.01474510
v -0.04096248 0.03776990 -0.01368273
v -0.03147281 0.03776990 -0.01547688
v -0.04057137 0.04302648 -0.01447060
v -0.03147281 0.04176200 -0.01322809
v -0.03827118 0.04302648 -0.01347949
v -0.03945101 0.04302648 -0.01359563
v -0.04004928 0.04302648 -0.01390048
v -0.03548235 0.03776990 -0.01322809
v -0.03147281 0.03919598 -0.01322809
v -0.03338654 0.03776990 -0.01322809
v -0.03222715 0.04132918 -0.01322809
v -0.03477910 0.03864634 -0.01322809
v -0.03356583 0.04011050 -0.01322809
v -0.03352681 0.04015322 -0.01322809
v -0.03230147 0.04128286 -0.01322809
f 1 2 9
f 1 9 15
f 1 15 21
f 1 21 17
f 1 17 13
f 1 13 3
f 1 3 4
f 1 4 5
f 1 5 6
f 1 6 7
f 1 7 8
f 1 8 2
f 2 8 10
f 2 10 11
f 2 11 12
f 2 12 9
f 3 13 18
f 3 18 23
f 3 23 27
f 3 27 26
f 3 26 25
f 3 25 20
f 3 20 14
f 3 14 6
f 3 6 5
f 3 5 4
f 6 14 19
f 6 19 24
f 6 24 29
f 6 29 22
f 6 22 16
f 6 16 10
f 6 10 8
f 6 8 7
f 9 12 15
f 10 16 11
f 11 16 22
f 11 22 30
f 11 30 28
f 11 28 21
f 11 21 15
f 11 15 12
f 13 17 18
f 14 20 19
f 17 21 23
f 17 23 18
f 19 20 25
f 19 25 24
f 21 25 26
f 21 26 27
f 21 27 23
f 21 28 25
f 22 29 30
f 24 31 35
f 24 35 34
f 24 34 33
f 24 33 32
f 24 32 28
f 24 28 30
f 24 30 29
f 24 25 31
f 25 28 32
f 25 32 33
f 25 33 34
f 25 34 35
f 25 35 31

