# https://github.com/mikedh/trimesh
v 0.01606903 0.00875942 -0.02068473
v 0.01126408 0.00165929 -0.01979467
v 0.01120560 0.00030219 -0.01979467
v 0.01606903 0.00030219 -0.02083157
v 0.01606903 0.00875942 -0.02189422
v 0.00687686 0.00875942 -0.01979467
v 0.00709646 0.00858554 -0.01979467
v 0.00746047 0.00821790 -0.01979467
v 0.00825533 0.00735926 -0.01979467
v 0.00856563 0.00691794 -0.01979467
v 0.01095617 0.00337325 -0.01979467
v 0.01111609 0.00278454 -0.01979467
v 0.01117935 0.00238462 -0.01979467
v 0.00967556 0.00030219 -0.01979467
v 0.01606903 0.00030219 -0.02209603
v 0.01606903 0.00607917 -0.02199141
v 0.01529088 0.00244755 -0.02229703
v 0.01445544 0.00522467 -0.02238280
v 0.01411530 0.00829325 -0.02228376
v 0.01324884 0.00875942 -0.02228960
v 0.00397432 0.00875942 -0.01979467
v 0.00962305 0.00030219 -0.02047522
v 0.00389316 0.00875942 -0.02025351
v 0.01606903 0.00036429 -0.02209576
v 0.01541739 0.00030219 -0.02232014
v 0.01542216 0.00042556 -0.02232067
v 0.01606903 0.00492576 -0.02201876
v 0.01534936 0.00162617 -0.02230606
v 0.01440174 0.00402572 -0.02239316
v 0.01332761 0.00522467 -0.02243724
v 0.01219261 0.00875942 -0.02234775
v 0.01324168 0.00875942 -0.02229040
v 0.00982236 0.00030219 -0.02167489
v 0.00387645 0.00875942 -0.02047522
v 0.01463805 0.00030219 -0.02236262
v 0.01452705 0.00042556 -0.02236926
v 0.01092752 0.00042556 -0.02245449
v 0.00739363 0.00875942 -0.02250707
v 0.01021382 0.00030219 -0.02235704
v 0.00421540 0.00875942 -0.02106364
v 0.01453660 0.00030219 -0.02236581
v 0.01092752 0.00030219 -0.02245317
v 0.00733157 0.00875942 -0.02250442
v 0.01028424 0.00030219 -0.02236926
v 0.00459612 0.00875942 -0.02170835
v 0.00535756 0.00875942 -0.02223729
v 0.00613093 0.00875942 -0.02243830
v 0.00615600 0.00875942 -0.02244122
f 1 2 3
f 1 3 4
f 1 4 15
f 1 15 24
f 1 24 27
f 1 27 16
f 1 16 5
f 1 5 20
f 1 20 32
f 1 32 31
f 1 31 38
f 1 38 43
f 1 43 48
f 1 48 47
f 1 47 46
f 1 46 45
f 1 45 40
f 1 40 34
f 1 34 23
f 1 23 21
f 1 21 6
f 1 6 7
f 1 7 8
f 1 8 9
f 1 9 10
f 1 10 11
f 1 11 12
f 1 12 13
f 1 13 2
f 2 13 12
f 2 12 11
f 2 11 10
f 2 10 9
f 2 9 8
f 2 8 7
f 2 7 6
f 2 6 21
f 2 21 14
f 2 14 3
f 3 14 22
f 3 22 33
f 3 33 39
f 3 39 44
f 3 44 42
f 3 42 41
f 3 41 35
f 3 35 25
f 3 25 15
f 3 15 4
f 5 16 17
f 5 17 18
f 5 18 19
f 5 19 20
f 14 21 23
f 14 23 22
f 15 25 26
f 15 26 24
f 16 27 26
f 16 26 28
f 16 28 17
f 17 28 18
f 18 29 30
f 18 30 19
f 18 28 26
f 18 26 29
f 19 30 31
f 19 31 32
f 19 32 20
f 22 23 34
f 22 34 33
f 24 26 27
f 25 35 26
f 26 35 36
f 26 36 29
f 29 36 30
f 30 36 37
f 30 37 38
f 30 38 31
f 33 34 39
f 34 40 39
f 35 41 36
f 36 41 42
f 36 42 37
f 37 42 38
f 38 42 43
f 39 40 45
f 39 45 46
f 39 46 47
f 39 47 44
f 42 44 47
f 42 47 48
f 42 48 43

