# https://github.com/mikedh/trimesh
v -0.03548385 0.00146099 0.00398841
v -0.03477869 0.00146099 0.00398841
v -0.03535159 0.00094753 0.00407334
v -0.03611784 0.00146099 0.00461003
v -0.03492135 0.00094753 0.00407334
v -0.03393803 0.00146099 0.00482141
v -0.03379668 0.00133211 0.00493881
v -0.03379668 0.00069349 0.00493881
v -0.03458144 0.00065283 0.00461323
v -0.03562520 0.00080876 0.00472504
v -0.03615098 0.00146099 0.00466514
v -0.03359358 0.00146099 0.00540789
v -0.03343630 0.00146099 0.00587217
v -0.03365954 0.00075497 0.00592462
v -0.03469648 0.00068242 0.00603324
v -0.03566322 0.00081446 0.00570552
v -0.03675573 0.00146099 0.00591290
v -0.03346522 0.00146099 0.00670757
v -0.03379733 0.00099682 0.00654065
v -0.03431303 0.00099682 0.00654065
v -0.03511242 0.00105608 0.00650551
v -0.03598655 0.00109801 0.00603324
v -0.03591864 0.00146099 0.00647729
v -0.03351819 0.00146099 0.00670757
v -0.03465098 0.00146099 0.00667030
v -0.03475237 0.00146099 0.00666337
f 1 2 5
f 1 5 3
f 1 3 4
f 1 4 11
f 1 11 17
f 1 17 23
f 1 23 26
f 1 26 25
f 1 25 24
f 1 24 18
f 1 18 13
f 1 13 12
f 1 12 6
f 1 6 2
f 2 6 7
f 2 7 8
f 2 8 5
f 3 5 9
f 3 9 10
f 3 10 4
f 4 10 11
f 5 8 9
f 6 12 7
f 7 12 8
f 8 12 13
f 8 13 14
f 8 14 15
f 8 15 9
f 9 15 16
f 9 16 10
f 10 16 17
f 10 17 11
f 13 18 14
f 14 19 15
f 14 18 19
f 15 19 20
f 15 20 21
f 15 21 16
f 16 21 22
f 16 22 17
f 17 22 23
f 18 24 20
f 18 20 19
f 20 24 25
f 20 25 26
f 20 26 21
f 21 26 23
f 21 23 22

