# https://github.com/mikedh/trimesh
v -0.02430264 0.00041320 0.01568201
v -0.02430394 0.00041320 0.01552483
v -0.02552161 0.00041320 0.01568201
v -0.02341683 -0.00572365 0.01568201
v -0.02341683 -0.00571113 0.01568069
v -0.02441214 0.00041320 0.01454625
v -0.02569726 0.00041320 0.01509965
v -0.02571750 0.00018792 0.01517810
v -0.02574423 -0.00195643 0.01568201
v -0.02341683 -0.01379346 0.01568201
v -0.02341683 -0.00599899 0.01548982
v -0.02446325 -0.00123192 0.01299241
v -0.02472271 0.00041320 0.01299241
v -0.02575435 0.00041320 0.01467499
v -0.02596218 0.00041320 0.01299241
v -0.02580027 -0.00300775 0.01568201
v -0.02470300 -0.01379346 0.01568201
v -0.02341683 -0.01379346 0.01502172
v -0.02341683 -0.00727142 0.01485296
v -0.02341683 -0.00791806 0.01454730
v -0.02341683 -0.00916267 0.01414292
v -0.02341683 -0.01037391 0.01388465
v -0.02401049 -0.01037391 0.01330229
v -0.02436958 -0.01037391 0.01299241
v -0.02580702 -0.00317462 0.01568201
v -0.02604728 -0.00557485 0.01299241
v -0.02600810 -0.00797368 0.01432510
v -0.02547828 -0.01379346 0.01568096
v -0.02507144 -0.01326363 0.01568201
v -0.02477513 -0.01379346 0.01299241
v -0.02341683 -0.01377260 0.01499750
v -0.02341683 -0.01157402 0.01394678
v -0.02407743 -0.01157402 0.01330887
v -0.02440850 -0.01157402 0.01299241
v -0.02581532 -0.00437474 0.01568201
v -0.02606752 -0.00810579 0.01299241
v -0.02606544 -0.00797368 0.01312510
v -0.02605974 -0.00917380 0.01312510
v -0.02594168 -0.01379346 0.01432089
v -0.02580390 -0.01379346 0.01536082
v -0.02580935 -0.00661782 0.01568201
v -0.02575979 -0.00774701 0.01568201
v -0.02577095 -0.00761073 0.01568201
v -0.02341683 -0.01276162 0.01430272
v -0.02341683 -0.01348057 0.01476319
v -0.02341683 -0.01372810 0.01496143
v -0.02600732 -0.01379346 0.01299241
v -0.02606181 -0.00930590 0.01299241
f 1 2 6
f 1 6 13
f 1 13 15
f 1 15 14
f 1 14 7
f 1 7 3
f 1 3 9
f 1 9 16
f 1 16 25
f 1 25 35
f 1 35 41
f 1 41 43
f 1 43 42
f 1 42 29
f 1 29 17
f 1 17 10
f 1 10 4
f 1 4 5
f 1 5 2
f 2 5 6
f 3 7 8
f 3 8 9
f 4 10 18
f 4 18 31
f 4 31 46
f 4 46 45
f 4 45 44
f 4 44 32
f 4 32 22
f 4 22 21
f 4 21 20
f 4 20 19
f 4 19 11
f 4 11 5
f 5 11 12
f 5 12 6
f 6 12 13
f 7 14 8
f 8 14 15
f 8 15 16
f 8 16 9
f 10 17 28
f 10 28 40
f 10 40 39
f 10 39 47
f 10 47 30
f 10 30 18
f 11 19 12
f 12 19 20
f 12 20 21
f 12 21 22
f 12 22 23
f 12 23 24
f 12 24 34
f 12 34 30
f 12 30 47
f 12 47 48
f 12 48 36
f 12 36 26
f 12 26 15
f 12 15 13
f 15 25 16
f 15 26 27
f 15 27 25
f 17 29 28
f 18 30 31
f 22 32 23
f 23 32 33
f 23 33 34
f 23 34 24
f 25 27 35
f 26 36 37
f 26 37 27
f 27 37 38
f 27 38 39
f 27 39 40
f 27 40 41
f 27 41 35
f 28 29 42
f 28 42 43
f 28 43 40
f 30 34 33
f 30 33 32
f 30 32 44
f 30 44 45
f 30 45 46
f 30 46 31
f 36 48 38
f 36 38 37
f 38 48 47
f 38 47 39
f 40 43 41

