# https://github.com/mikedh/trimesh
v 0.03399046 -0.00197466 -0.01111789
v 0.03399046 -0.00134013 -0.01112033
v 0.03398388 -0.00197466 -0.01111789
v 0.03399046 -0.00317463 -0.01111939
v 0.03399046 -0.00134013 -0.01204975
v 0.03398388 -0.00197466 -0.01205986
v 0.03397690 -0.00317463 -0.01111939
v 0.03399046 -0.00434696 -0.01112492
v 0.03399046 -0.00198849 -0.01207129
v 0.03399046 -0.00210157 -0.01207438
v 0.03399046 -0.00551887 -0.01197738
v 0.03398816 -0.00557415 -0.01196923
v 0.03397353 -0.00437418 -0.01112510
v 0.03399046 -0.00437418 -0.01112510
v 0.03399046 -0.00558044 -0.01197223
v 0.03399046 -0.00561897 -0.01196849
v 0.03398816 -0.00557415 -0.01114860
v 0.03399046 -0.00557415 -0.01114860
v 0.03399046 -0.00561897 -0.01115113
f 1 2 3
f 1 3 7
f 1 7 4
f 1 4 8
f 1 8 14
f 1 14 18
f 1 18 19
f 1 19 16
f 1 16 15
f 1 15 11
f 1 11 10
f 1 10 9
f 1 9 5
f 1 5 2
f 2 5 6
f 2 6 3
f 3 6 7
f 4 7 8
f 5 9 6
f 6 9 10
f 6 10 11
f 6 11 12
f 6 12 13
f 6 13 7
f 7 13 8
f 8 13 14
f 11 15 12
f 12 15 16
f 12 16 19
f 12 19 17
f 12 17 13
f 13 17 18
f 13 18 14
f 17 19 18

