# https://github.com/mikedh/trimesh
v 0.04092682 -0.04635275 -0.01977928
v 0.04212601 -0.04635275 -0.01968406
v 0.04212736 -0.04637477 -0.01968312
v 0.04092682 -0.04757483 -0.01970086
v 0.03852710 -0.04997456 -0.01955803
v 0.03252846 -0.04877450 -0.01948615
v 0.03132928 -0.04757483 -0.01942920
v 0.03073372 -0.04697916 -0.01939839
v 0.03073372 -0.04635275 -0.01937132
v 0.04347745 -0.04635275 -0.01908659
v 0.04220955 -0.04765493 -0.01928077
v 0.04092682 -0.04877450 -0.01944507
v 0.03972763 -0.04997456 -0.01944134
v 0.03854327 -0.05023081 -0.01949081
v 0.03732926 -0.05023081 -0.01946654
v 0.03073372 -0.05023081 -0.01927796
v 0.03073372 -0.04997456 -0.01932464
v 0.03132928 -0.04877450 -0.01940866
v 0.03073372 -0.04877450 -0.01936385
v 0.03073372 -0.04635275 -0.01680126
v 0.04415655 -0.04635275 -0.01807462
v 0.04299509 -0.04730831 -0.01899883
v 0.04083250 -0.04986560 -0.01893348
v 0.03972763 -0.05023081 -0.01929010
v 0.03073372 -0.05023081 -0.01739593
v 0.03388260 -0.05023081 -0.01213444
v 0.03433533 -0.05023081 -0.01153697
v 0.03592122 -0.04635275 -0.01184504
v 0.04449744 -0.04635275 -0.01463262
v 0.04393288 -0.04697992 -0.01508352
v 0.04154528 -0.04939332 -0.01869636
v 0.04060614 -0.05023081 -0.01883079
v 0.03463311 -0.05023081 -0.01125317
v 0.03651947 -0.04635275 -0.01129704
v 0.03475437 -0.05023081 -0.01114207
v 0.04393288 -0.04697992 -0.01502097
v 0.04449474 -0.04635275 -0.01462328
v 0.04274177 -0.04819175 -0.01386151
v 0.04276468 -0.04821605 -0.01447578
v 0.04276333 -0.04821301 -0.01521702
v 0.04157897 -0.04942635 -0.01527677
v 0.04069641 -0.05023081 -0.01821092
v 0.03786418 -0.04688463 -0.01024213
v 0.03741145 -0.04644083 -0.01069024
v 0.03740606 -0.04635275 -0.01072944
v 0.03494301 -0.05023081 -0.01103005
v 0.04414846 -0.04635275 -0.01379989
v 0.04388976 -0.04693626 -0.01422186
v 0.04039056 -0.05023081 -0.01391565
v 0.04149543 -0.04934738 -0.01399874
v 0.04059940 -0.05023081 -0.01424426
v 0.04072067 -0.05023081 -0.01458967
v 0.04157897 -0.04942635 -0.01479879
v 0.03675122 -0.04944002 -0.01026360
v 0.03748825 -0.04635275 -0.01070051
v 0.03670002 -0.04929575 -0.01026360
v 0.03786418 -0.04730794 -0.01024213
v 0.03809593 -0.04688463 -0.01024213
v 0.03592257 -0.05023081 -0.01075092
v 0.03670002 -0.04944002 -0.01026360
v 0.04371460 -0.04635275 -0.01351422
v 0.03612872 -0.05023081 -0.01080786
v 0.03809593 -0.04730794 -0.01024213
v 0.03852440 -0.04635275 -0.01077706
v 0.03878580 -0.04635275 -0.01086388
v 0.03862276 -0.04635275 -0.01078452
f 1 2 3
f 1 3 4
f 1 4 5
f 1 5 6
f 1 6 7
f 1 7 8
f 1 8 9
f 1 9 20
f 1 20 28
f 1 28 34
f 1 34 45
f 1 45 55
f 1 55 64
f 1 64 66
f 1 66 65
f 1 65 61
f 1 61 47
f 1 47 37
f 1 37 29
f 1 29 21
f 1 21 10
f 1 10 2
f 2 10 3
f 3 10 11
f 3 11 12
f 3 12 4
f 4 12 13
f 4 13 5
f 5 13 14
f 5 14 15
f 5 15 16
f 5 16 17
f 5 17 6
f 6 17 18
f 6 18 7
f 7 18 8
f 8 18 19
f 8 19 17
f 8 17 16
f 8 16 25
f 8 25 20
f 8 20 9
f 10 21 22
f 10 22 11
f 11 22 23
f 11 23 12
f 12 23 13
f 13 24 14
f 13 23 24
f 14 24 32
f 14 32 42
f 14 42 52
f 14 52 51
f 14 51 49
f 14 49 62
f 14 62 59
f 14 59 46
f 14 46 35
f 14 35 33
f 14 33 27
f 14 27 26
f 14 26 25
f 14 25 16
f 14 16 15
f 17 19 18
f 20 25 26
f 20 26 27
f 20 27 28
f 21 29 30
f 21 30 31
f 21 31 22
f 22 31 23
f 23 32 24
f 23 31 32
f 27 33 28
f 28 33 35
f 28 35 34
f 29 36 30
f 29 37 38
f 29 38 39
f 29 39 36
f 30 36 39
f 30 39 40
f 30 40 31
f 31 41 42
f 31 42 32
f 31 40 41
f 34 35 43
f 34 43 44
f 34 44 45
f 35 46 43
f 37 47 48
f 37 48 38
f 38 49 50
f 38 50 51
f 38 51 52
f 38 52 53
f 38 53 39
f 38 48 47
f 38 47 54
f 38 54 49
f 39 53 41
f 39 41 40
f 41 53 52
f 41 52 42
f 43 55 45
f 43 45 44
f 43 46 56
f 43 56 60
f 43 60 57
f 43 57 63
f 43 63 58
f 43 58 55
f 46 59 60
f 46 60 56
f 47 61 54
f 49 51 50
f 49 54 62
f 54 60 59
f 54 59 62
f 54 61 63
f 54 63 57
f 54 57 60
f 55 58 64
f 58 63 61
f 58 61 65
f 58 65 66
f 58 66 64

