# https://github.com/mikedh/trimesh
v -0.03414431 0.03818371 -0.00988668
v -0.03440051 0.03818371 0.00232481
v -0.03308668 0.03971915 0.00232481
v -0.03186154 0.04083114 -0.00988668
v -0.03219985 0.03818371 -0.00988668
v -0.03435124 0.03818371 0.00321419
v -0.03306041 0.03966031 0.00349449
v -0.03256772 0.04031872 0.00232481
v -0.03191738 0.04085983 -0.00367418
v -0.03118164 0.04145977 -0.00367418
v -0.03173016 0.04093718 -0.00988668
v -0.00107209 0.03896378 -0.00988668
v -0.01001266 0.03822075 0.00169872
v -0.01067285 0.03821058 0.00163585
v -0.01057760 0.03818371 0.00349449
v -0.03429869 0.03818371 0.00349449
v -0.03420344 0.03833260 0.00349449
v -0.03307355 0.03964506 0.00349449
v -0.03216701 0.04034632 0.00349449
v -0.03181227 0.04072619 0.00317489
v -0.03196665 0.04083078 0.00232481
v -0.03058056 0.04189375 -0.00367418
v -0.03097143 0.04148737 -0.00988668
v -0.00084545 0.03897830 -0.00988668
v -0.00084545 0.03855050 0.00232481
v -0.00988127 0.03820949 0.00349449
v -0.03106996 0.04058347 0.00349449
v -0.03055100 0.04187486 -0.00298783
v -0.02387021 0.04130979 0.00349449
v -0.03005175 0.04189375 -0.00367418
v -0.03056414 0.04188067 -0.00487398
v -0.03083019 0.04157925 -0.00988668
v -0.00084545 0.04023883 -0.00988668
v -0.00084545 0.03858282 0.00349449
v -0.03024882 0.04187486 -0.00298783
v -0.02387021 0.04158506 0.00112371
v -0.02387021 0.04170381 -0.00007609
v -0.00707298 0.04114709 0.00349449
v -0.00707298 0.04136825 0.00232481
v -0.03007146 0.04188067 -0.00487398
v -0.00107209 0.04135373 -0.00487398
v -0.02324943 0.04182874 -0.00906804
v -0.02324943 0.04182874 -0.00909686
v -0.02327899 0.04182874 -0.00909686
v -0.03052144 0.04185271 -0.00607509
v -0.03048203 0.04182910 -0.00695137
v -0.03009445 0.04175139 -0.00988668
v -0.00107209 0.04134973 -0.00607509
v -0.00084545 0.04128763 -0.00606854
v -0.00347310 0.04093682 -0.00988668
v -0.00084545 0.04038881 0.00349449
v -0.00084545 0.04050757 0.00334648
v -0.00084545 0.04129562 -0.00488053
v -0.02273047 0.04164897 -0.00988668
v -0.00587411 0.04126221 -0.00847469
v -0.00440920 0.04098912 -0.00988668
v -0.00353222 0.04094663 -0.00988668
f 1 2 3
f 1 3 4
f 1 4 11
f 1 11 23
f 1 23 32
f 1 32 47
f 1 47 54
f 1 54 56
f 1 56 57
f 1 57 50
f 1 50 33
f 1 33 24
f 1 24 12
f 1 12 5
f 1 5 15
f 1 15 16
f 1 16 6
f 1 6 2
f 2 6 3
f 3 6 7
f 3 7 8
f 3 8 4
f 4 8 9
f 4 9 10
f 4 10 11
f 5 12 13
f 5 13 14
f 5 14 15
f 6 16 17
f 6 17 18
f 6 18 7
f 7 18 17
f 7 17 16
f 7 16 15
f 7 15 26
f 7 26 34
f 7 34 51
f 7 51 38
f 7 38 29
f 7 29 27
f 7 27 19
f 7 19 20
f 7 20 21
f 7 21 8
f 8 21 9
f 9 21 10
f 10 21 22
f 10 22 23
f 10 23 11
f 12 24 25
f 12 25 13
f 13 15 14
f 13 25 15
f 15 25 26
f 19 27 20
f 20 28 21
f 20 27 29
f 20 29 28
f 21 28 22
f 22 28 35
f 22 35 30
f 22 30 40
f 22 40 31
f 22 31 23
f 23 31 32
f 24 33 49
f 24 49 53
f 24 53 52
f 24 52 51
f 24 51 34
f 24 34 25
f 25 34 26
f 28 29 36
f 28 36 37
f 28 37 35
f 29 38 39
f 29 39 36
f 30 35 37
f 30 37 39
f 30 39 41
f 30 41 42
f 30 42 43
f 30 43 40
f 31 40 43
f 31 43 44
f 31 44 45
f 31 45 32
f 32 45 46
f 32 46 47
f 33 48 49
f 33 50 48
f 36 39 37
f 38 51 52
f 38 52 39
f 39 52 41
f 41 52 53
f 41 53 48
f 41 48 43
f 41 43 42
f 43 54 47
f 43 47 44
f 43 48 55
f 43 55 56
f 43 56 54
f 44 47 46
f 44 46 45
f 48 53 49
f 48 50 57
f 48 57 55
f 55 57 56

