# https://github.com/mikedh/trimesh
v 0.05170292 -0.03918556 -0.01562985
v 0.05170292 -0.03918556 -0.01563779
v 0.05169324 -0.03918556 -0.01446837
v 0.05115489 -0.03980153 -0.01487504
v 0.05152283 -0.03918556 -0.01807482
v 0.05115489 -0.03980153 -0.01522913
v 0.05168743 -0.03918556 -0.01443960
v 0.04872261 -0.04217002 -0.01392185
v 0.04755972 -0.04340618 -0.01479073
v 0.05104547 -0.03969139 -0.01807482
v 0.05028442 -0.04013898 -0.01892981
v 0.05082955 -0.03918556 -0.01914306
v 0.04755972 -0.04340618 -0.01535114
v 0.04752099 -0.04336689 -0.01807482
v 0.05108324 -0.03971524 -0.01407559
v 0.04928517 -0.03918556 -0.01006347
v 0.04885332 -0.03986116 -0.01018943
v 0.04750937 -0.04335637 -0.01399029
v 0.04513809 -0.04578308 -0.01503274
v 0.04792088 -0.04257202 -0.01897047
v 0.04704557 -0.04289263 -0.01922836
v 0.05062137 -0.03926624 -0.01919662
v 0.05061556 -0.03918556 -0.01921844
v 0.04513809 -0.04578308 -0.01510416
v 0.04627483 -0.04452167 -0.01807482
v 0.04550797 -0.04496295 -0.01894072
v 0.04927452 -0.03918556 -0.01006347
v 0.04692744 -0.04037471 -0.01000098
v 0.04579361 -0.04163753 -0.01002776
v 0.04543728 -0.04241977 -0.01009719
v 0.04753938 -0.04098507 -0.01026482
v 0.04414949 -0.04635205 -0.01379985
v 0.04449613 -0.04635205 -0.01462310
v 0.04449807 -0.04635205 -0.01463302
v 0.04672508 -0.04374924 -0.01896651
v 0.04583621 -0.04407898 -0.01924125
v 0.04572873 -0.04277407 -0.01970843
v 0.04948366 -0.03918556 -0.01944856
v 0.04415821 -0.04635205 -0.01807482
v 0.04567451 -0.04504153 -0.01807482
v 0.04430828 -0.04601249 -0.01883062
v 0.04347848 -0.04635205 -0.01908652
v 0.04212775 -0.04635205 -0.01968462
v 0.04796155 -0.03918556 -0.01007339
v 0.04692744 -0.03943953 -0.01013686
v 0.04578102 -0.04039436 -0.01011504
v 0.04452324 -0.04158632 -0.01009917
v 0.04443610 -0.04280073 -0.01012595
v 0.04397424 -0.04339215 -0.01025787
v 0.04181307 -0.04520218 -0.01080241
v 0.04371668 -0.04635205 -0.01351419
v 0.04451065 -0.04388745 -0.01974612
v 0.04409914 -0.04342933 -0.01988399
v 0.04484858 -0.04277407 -0.01983836
v 0.04932874 -0.03918556 -0.01947931
v 0.04181307 -0.04635205 -0.01970942
v 0.04772432 -0.03918556 -0.01009719
v 0.04713659 -0.03918556 -0.01019142
v 0.04692744 -0.03918556 -0.01024795
v 0.04621577 -0.03968437 -0.01024200
v 0.04492023 -0.04080688 -0.01021225
v 0.04412044 -0.04119344 -0.01034913
v 0.04386288 -0.04199393 -0.01022217
v 0.04181307 -0.04471670 -0.01057230
v 0.04388128 -0.04339215 -0.01025787
v 0.04181307 -0.04635205 -0.01297957
v 0.04196509 -0.04635205 -0.01297759
v 0.04203771 -0.04635205 -0.01298651
v 0.04342039 -0.04635205 -0.01339417
v 0.04353948 -0.04635205 -0.01343781
v 0.04181307 -0.04277407 -0.02011708
v 0.04424825 -0.04277407 -0.01990184
v 0.04181307 -0.04157509 -0.02013295
v 0.04181307 -0.04037471 -0.02003376
v 0.04212872 -0.03953073 -0.01990978
v 0.04181307 -0.03951389 -0.01992168
v 0.04212872 -0.03918556 -0.01982646
v 0.04663696 -0.03918556 -0.01033524
v 0.04593788 -0.03918556 -0.01054948
v 0.04578102 -0.03924028 -0.01057329
v 0.04473820 -0.03918556 -0.01091945
v 0.04452808 -0.03918556 -0.01098491
v 0.04367891 -0.03918556 -0.01131124
v 0.04181307 -0.04434066 -0.01061991
v 0.04181307 -0.04245906 -0.02012204
v 0.04181307 -0.03918556 -0.01982150
v 0.04307859 -0.03918556 -0.01173378
v 0.04250344 -0.03918556 -0.01233287
v 0.04227202 -0.03918556 -0.01327515
v 0.04181307 -0.04341109 -0.01192025
v 0.04181307 -0.03918556 -0.01794885
f 1 2 5
f 1 5 12
f 1 12 23
f 1 23 38
f 1 38 55
f 1 55 77
f 1 77 86
f 1 86 91
f 1 91 89
f 1 89 88
f 1 88 87
f 1 87 83
f 1 83 82
f 1 82 81
f 1 81 79
f 1 79 78
f 1 78 59
f 1 59 58
f 1 58 57
f 1 57 44
f 1 44 27
f 1 27 16
f 1 16 7
f 1 7 3
f 1 3 4
f 1 4 6
f 1 6 2
f 2 6 5
f 3 7 8
f 3 8 4
f 4 9 13
f 4 13 6
f 4 8 9
f 5 6 10
f 5 10 11
f 5 11 12
f 6 13 14
f 6 14 10
f 7 15 8
f 7 16 17
f 7 17 15
f 8 18 9
f 8 15 17
f 8 17 18
f 9 18 19
f 9 19 24
f 9 24 13
f 10 14 11
f 11 14 20
f 11 20 12
f 12 20 21
f 12 21 22
f 12 22 23
f 13 24 14
f 14 25 26
f 14 26 20
f 14 24 25
f 16 27 28
f 16 28 29
f 16 29 30
f 16 30 17
f 17 30 31
f 17 31 32
f 17 32 18
f 18 32 33
f 18 33 34
f 18 34 19
f 19 34 24
f 20 26 35
f 20 35 36
f 20 36 21
f 21 36 37
f 21 37 22
f 22 37 23
f 23 37 38
f 24 34 39
f 24 39 40
f 24 40 25
f 25 40 26
f 26 36 35
f 26 40 39
f 26 39 41
f 26 41 42
f 26 42 43
f 26 43 36
f 27 44 28
f 28 44 45
f 28 45 46
f 28 46 47
f 28 47 29
f 29 47 48
f 29 48 30
f 30 48 49
f 30 49 50
f 30 50 32
f 30 32 31
f 32 51 70
f 32 70 69
f 32 69 68
f 32 68 67
f 32 67 66
f 32 66 56
f 32 56 43
f 32 43 42
f 32 42 39
f 32 39 34
f 32 34 33
f 32 50 51
f 36 43 52
f 36 52 37
f 37 52 53
f 37 53 54
f 37 54 55
f 37 55 38
f 39 42 41
f 43 56 53
f 43 53 52
f 44 57 45
f 45 57 58
f 45 58 59
f 45 59 60
f 45 60 46
f 46 60 61
f 46 61 47
f 47 61 62
f 47 62 63
f 47 63 64
f 47 64 48
f 48 65 49
f 48 64 65
f 49 65 64
f 49 64 50
f 50 64 84
f 50 84 90
f 50 90 91
f 50 91 86
f 50 86 76
f 50 76 74
f 50 74 73
f 50 73 85
f 50 85 71
f 50 71 56
f 50 56 66
f 50 66 67
f 50 67 68
f 50 68 69
f 50 69 70
f 50 70 51
f 53 71 72
f 53 72 54
f 53 56 71
f 54 72 55
f 55 72 73
f 55 73 74
f 55 74 75
f 55 75 76
f 55 76 77
f 59 78 60
f 60 78 79
f 60 79 80
f 60 80 81
f 60 81 82
f 60 82 61
f 61 82 62
f 62 82 83
f 62 83 63
f 63 83 84
f 63 84 64
f 71 85 72
f 72 85 73
f 74 76 75
f 76 86 77
f 79 81 80
f 83 87 84
f 84 87 88
f 84 88 89
f 84 89 90
f 89 91 90

