# https://github.com/mikedh/trimesh
v 0.03660184 -0.03791931 0.01065120
v 0.03252084 -0.04056406 0.01045575
v 0.03252084 -0.04124138 0.01045575
v 0.03571302 -0.03995126 0.01026906
v 0.03660184 -0.03866920 0.01040550
v 0.03660184 -0.00797639 0.00818044
v 0.03252084 -0.00020340 0.00725990
v 0.03252084 -0.04138652 0.00952461
v 0.03350274 -0.04109221 0.01029626
v 0.03591715 -0.04006817 0.00952461
v 0.03651715 -0.03952794 0.00952461
v 0.03660184 -0.03934248 0.00968041
v 0.03660184 -0.03888690 0.01022573
v 0.03660184 -0.00019937 0.00735486
v 0.03492766 -0.00019937 0.00739497
v 0.03252803 -0.00019937 0.00725944
v 0.03252084 -0.00019937 0.00724607
v 0.03350234 -0.04108818 0.00952461
v 0.03252084 -0.04062857 0.00594202
v 0.03374522 -0.04047537 0.00594202
v 0.03492766 -0.04024960 0.00594202
v 0.03494164 -0.04024557 0.00594202
v 0.03492766 -0.04053987 0.00952461
v 0.03597827 -0.04006817 0.00832472
v 0.03657827 -0.03964082 0.00832472
v 0.03660184 -0.03960857 0.00838142
v 0.03660184 -0.03943521 0.00952461
v 0.03660184 -0.00019937 0.00594202
v 0.03252084 -0.00019937 0.00613885
v 0.03492766 -0.04037458 0.00712530
v 0.03588359 -0.04001576 0.00712530
v 0.03252084 -0.03644374 0.00594202
v 0.03573299 -0.03991497 0.00594202
v 0.03648360 -0.03956019 0.00712530
v 0.03660184 -0.03944730 0.00712530
v 0.03660184 -0.03961663 0.00832472
v 0.03419103 -0.00019937 0.00594202
v 0.03660184 -0.03916106 0.00594202
v 0.03315281 -0.00019937 0.00603467
v 0.03252084 -0.01037118 0.00603006
v 0.03373483 -0.00020744 0.00594202
v 0.03633300 -0.03942311 0.00594202
v 0.03634178 -0.03941505 0.00594202
v 0.03660184 -0.03926185 0.00634259
v 0.03372804 -0.00019937 0.00594524
f 1 2 3
f 1 3 4
f 1 4 5
f 1 5 13
f 1 13 12
f 1 12 27
f 1 27 26
f 1 26 36
f 1 36 35
f 1 35 44
f 1 44 38
f 1 38 28
f 1 28 14
f 1 14 6
f 1 6 7
f 1 7 2
f 2 7 17
f 2 17 29
f 2 29 40
f 2 40 32
f 2 32 19
f 2 19 8
f 2 8 3
f 3 8 9
f 3 9 4
f 4 9 10
f 4 10 11
f 4 11 12
f 4 12 13
f 4 13 5
f 6 14 15
f 6 15 7
f 7 15 16
f 7 16 17
f 8 18 9
f 8 19 20
f 8 20 21
f 8 21 22
f 8 22 18
f 9 18 23
f 9 23 10
f 10 23 24
f 10 24 25
f 10 25 11
f 11 25 26
f 11 26 27
f 11 27 12
f 14 28 37
f 14 37 45
f 14 45 39
f 14 39 29
f 14 29 17
f 14 17 16
f 14 16 15
f 18 22 30
f 18 30 31
f 18 31 24
f 18 24 23
f 19 32 41
f 19 41 37
f 19 37 28
f 19 28 38
f 19 38 43
f 19 43 42
f 19 42 33
f 19 33 22
f 19 22 21
f 19 21 20
f 22 33 31
f 22 31 30
f 24 31 25
f 25 31 34
f 25 34 35
f 25 35 36
f 25 36 26
f 29 39 40
f 31 33 34
f 32 40 41
f 33 42 34
f 34 42 43
f 34 43 44
f 34 44 35
f 37 41 45
f 38 44 43
f 39 45 41
f 39 41 40

