# https://github.com/mikedh/trimesh
v 0.00729780 -0.01781308 0.01974883
v 0.01008180 -0.02216314 0.01974883
v 0.01024717 -0.02303658 0.02186858
v 0.00729780 -0.01750101 0.02186858
v 0.00729780 -0.00521391 0.01974883
v 0.01076342 -0.02276446 0.01974883
v 0.01222981 -0.02465405 0.02042899
v 0.01189255 -0.02465405 0.02169657
v 0.01188663 -0.02465405 0.02186858
v 0.00729780 -0.00521391 0.02186858
v 0.00937587 -0.00521391 0.01974883
v 0.01105148 -0.02292811 0.01974883
v 0.01335301 -0.02465405 0.01994678
v 0.01335301 -0.02465405 0.02186858
v 0.00943040 -0.00521391 0.02186858
v 0.01296359 -0.01075709 0.02186858
v 0.01307562 -0.01182082 0.01974883
v 0.01175386 -0.02323067 0.01974883
v 0.01335301 -0.02361887 0.01974883
v 0.01335301 -0.01749530 0.02186858
v 0.01311415 -0.01155060 0.02186858
v 0.01331982 -0.01277608 0.01974883
v 0.01335301 -0.01633262 0.01974883
v 0.01330144 -0.01277608 0.02032504
f 1 2 3
f 1 3 4
f 1 4 10
f 1 10 5
f 1 5 11
f 1 11 17
f 1 17 22
f 1 22 23
f 1 23 19
f 1 19 18
f 1 18 12
f 1 12 6
f 1 6 2
f 2 6 7
f 2 7 3
f 3 7 8
f 3 8 9
f 3 9 14
f 3 14 20
f 3 20 21
f 3 21 16
f 3 16 15
f 3 15 10
f 3 10 4
f 5 10 15
f 5 15 11
f 6 12 13
f 6 13 7
f 7 13 14
f 7 14 9
f 7 9 8
f 11 15 16
f 11 16 17
f 12 18 13
f 13 18 19
f 13 19 23
f 13 23 20
f 13 20 14
f 16 21 22
f 16 22 17
f 20 23 22
f 20 22 24
f 20 24 21
f 21 24 22

