# https://github.com/mikedh/trimesh
v -0.03964964 0.00030136 -0.00988762
v -0.03881140 0.00030136 -0.01318709
v -0.04131352 0.00030136 -0.00988762
v -0.03916198 -0.00797509 -0.00988762
v -0.03881140 -0.00077571 -0.01315510
v -0.03881140 0.00030136 -0.01924317
v -0.04357321 0.00030136 -0.01168083
v -0.04148881 0.00010752 -0.00988762
v -0.03881140 -0.00797509 -0.01298011
v -0.03943005 -0.01838008 -0.00988762
v -0.03881140 -0.01757364 -0.01319180
v -0.03881140 -0.01713477 -0.01313441
v -0.03881140 -0.01637405 -0.01303750
v -0.03881140 -0.00023626 -0.01927328
v -0.04187156 -0.00197530 -0.01934949
v -0.04187156 -0.00077571 -0.01927705
v -0.04187156 0.00030136 -0.01915192
v -0.04357321 0.00030136 -0.01894776
v -0.04357321 -0.00077571 -0.01166014
v -0.04230560 -0.00919479 -0.00988762
v -0.04179930 -0.00077571 -0.00988762
v -0.04156900 -0.00009546 -0.00988762
v -0.04099370 -0.01838008 -0.00988762
v -0.03881140 -0.01838008 -0.01337432
v -0.03881140 -0.01822464 -0.01332351
v -0.03881140 -0.00029295 -0.01927516
v -0.04357321 -0.00387344 -0.01935796
v -0.04357321 -0.00317489 -0.01934572
v -0.04357321 -0.00197530 -0.01931185
v -0.03881140 -0.00197530 -0.01931468
v -0.04067202 -0.00917285 -0.01947650
v -0.04067202 -0.01037427 -0.01949814
v -0.04307157 -0.00077571 -0.01923377
v -0.04357321 -0.00024906 -0.01908135
v -0.04357321 -0.00077571 -0.01918296
v -0.04357321 -0.00632016 -0.01163473
v -0.04233637 -0.01277345 -0.00988762
v -0.04357321 -0.01838008 -0.01175045
v -0.04228648 -0.01305689 -0.00988762
v -0.03881140 -0.01838008 -0.01919519
v -0.04307157 -0.01277345 -0.01946897
v -0.04357321 -0.01397304 -0.01946803
v -0.03881140 -0.01397304 -0.01937019
v -0.03947201 -0.01037427 -0.01944827
v -0.03947201 -0.01397304 -0.01942193
v -0.04067202 -0.01397304 -0.01946521
v -0.04187156 -0.01397304 -0.01949061
v -0.04357321 -0.01517446 -0.01159898
v -0.04357321 -0.01560602 -0.01160463
v -0.04357321 -0.01698665 -0.01165637
v -0.04357321 -0.01838008 -0.01923565
v -0.04187156 -0.01838008 -0.01923283
v -0.04187156 -0.01757364 -0.01932032
v -0.03881140 -0.01823561 -0.01920836
v -0.04357321 -0.01587117 -0.01937677
v -0.03881140 -0.01463501 -0.01935796
v -0.03881140 -0.01703419 -0.01926387
v -0.03947201 -0.01517446 -0.01937395
v -0.04357321 -0.01637405 -0.01934949
f 1 2 6
f 1 6 17
f 1 17 18
f 1 18 7
f 1 7 3
f 1 3 8
f 1 8 22
f 1 22 21
f 1 21 20
f 1 20 37
f 1 37 39
f 1 39 23
f 1 23 10
f 1 10 4
f 1 4 2
f 2 5 9
f 2 9 13
f 2 13 12
f 2 12 11
f 2 11 25
f 2 25 24
f 2 24 40
f 2 40 54
f 2 54 57
f 2 57 56
f 2 56 43
f 2 43 30
f 2 30 26
f 2 26 14
f 2 14 6
f 2 4 5
f 3 7 8
f 4 9 5
f 4 10 11
f 4 11 12
f 4 12 13
f 4 13 9
f 6 14 15
f 6 15 16
f 6 16 17
f 7 18 34
f 7 34 35
f 7 35 29
f 7 29 28
f 7 28 27
f 7 27 42
f 7 42 55
f 7 55 59
f 7 59 51
f 7 51 38
f 7 38 50
f 7 50 49
f 7 49 48
f 7 48 36
f 7 36 19
f 7 19 20
f 7 20 21
f 7 21 22
f 7 22 8
f 10 23 38
f 10 38 51
f 10 51 52
f 10 52 40
f 10 40 24
f 10 24 25
f 10 25 11
f 14 26 15
f 15 27 28
f 15 28 29
f 15 29 16
f 15 26 30
f 15 30 31
f 15 31 32
f 15 32 27
f 16 29 33
f 16 33 17
f 17 34 18
f 17 33 35
f 17 35 34
f 19 36 37
f 19 37 20
f 23 39 38
f 27 32 41
f 27 41 42
f 29 35 33
f 30 43 44
f 30 44 32
f 30 32 31
f 32 44 45
f 32 45 46
f 32 46 47
f 32 47 42
f 32 42 41
f 36 48 37
f 37 48 49
f 37 49 50
f 37 50 38
f 37 38 39
f 40 52 53
f 40 53 54
f 42 47 53
f 42 53 55
f 43 56 45
f 43 45 44
f 45 56 57
f 45 57 58
f 45 58 46
f 46 58 54
f 46 54 53
f 46 53 47
f 51 53 52
f 51 59 53
f 53 59 55
f 54 58 57

