# https://github.com/mikedh/trimesh
v 0.01917211 0.02535392 0.00615016
v 0.01917211 0.02535392 0.01111575
v 0.01917211 0.01939985 0.00660225
v 0.01914075 0.01939985 0.00658953
v 0.01884093 0.01939985 0.00648772
v 0.01854503 0.01939985 0.00639329
v 0.01833535 0.01939985 0.00634506
v 0.01715369 0.01939985 0.00622719
v 0.01332655 0.02202570 0.00616490
v 0.00372831 0.02442540 0.00628278
v -0.00084545 0.02535392 0.00638592
v 0.01917211 0.02196450 0.01299241
v 0.01599164 0.02535392 0.01299241
v 0.01917211 0.01939985 0.00890488
v 0.01692638 0.01939985 0.00623455
v -0.00084545 0.02442773 0.00637788
v -0.00084545 0.02535392 0.01094697
v 0.01917211 0.01977289 0.01299241
v 0.01396147 0.02535392 0.01299241
v 0.01676961 0.01939985 0.01018680
v -0.00084349 0.01939985 0.00717489
v -0.00084545 0.01962601 0.00713672
v -0.00084545 0.01939985 0.00977021
v 0.01915251 0.01979213 0.01299241
v 0.01638552 0.02268668 0.01299241
v 0.01332655 0.01939985 0.01055382
v 0.01452780 0.01939985 0.01050560
v 0.01656581 0.01939985 0.01025779
v 0.00972672 0.01939985 0.01054713
v 0.01070065 0.01939985 0.01061678
v 0.01092797 0.01939985 0.01063152
v -0.00084545 0.01939985 0.00929066
f 1 2 12
f 1 12 18
f 1 18 14
f 1 14 3
f 1 3 4
f 1 4 5
f 1 5 6
f 1 6 7
f 1 7 8
f 1 8 9
f 1 9 10
f 1 10 11
f 1 11 17
f 1 17 19
f 1 19 13
f 1 13 2
f 2 13 12
f 3 14 20
f 3 20 28
f 3 28 27
f 3 27 26
f 3 26 31
f 3 31 30
f 3 30 29
f 3 29 23
f 3 23 32
f 3 32 21
f 3 21 15
f 3 15 8
f 3 8 7
f 3 7 6
f 3 6 5
f 3 5 4
f 8 15 16
f 8 16 9
f 9 16 10
f 10 16 11
f 11 16 22
f 11 22 32
f 11 32 23
f 11 23 17
f 12 13 19
f 12 19 25
f 12 25 24
f 12 24 18
f 14 18 20
f 15 21 22
f 15 22 16
f 17 23 18
f 17 18 24
f 17 24 25
f 17 25 19
f 18 26 27
f 18 27 28
f 18 28 20
f 18 23 29
f 18 29 30
f 18 30 31
f 18 31 26
f 21 32 22

