# https://github.com/mikedh/trimesh
v -0.01569044 -0.01740928 0.02609833
v -0.01567759 -0.02597354 0.02609833
v -0.01569044 -0.01697430 0.02676335
v -0.01569044 -0.01468342 0.02609833
v -0.01569044 -0.01680031 0.02692790
v -0.01565350 -0.02615720 0.02609833
v -0.01569044 -0.01458917 0.02878766
v -0.01569044 -0.01459159 0.02617836
v -0.01283974 -0.00564310 0.02609833
v -0.01547042 -0.02639885 0.02609833
v -0.01185042 -0.02601462 0.02878766
v -0.01239326 -0.02501175 0.02878766
v -0.01569044 -0.01282509 0.02878766
v -0.01569044 -0.01418561 0.02653773
v -0.01265505 -0.00506313 0.02609833
v -0.01526484 -0.02662117 0.02609833
v -0.01183276 -0.02603395 0.02878766
v -0.01569044 -0.01316341 0.02815870
v -0.01265665 -0.00474173 0.02878766
v -0.01569044 -0.01407686 0.02665620
v -0.01234187 -0.00390560 0.02878766
v -0.01243984 -0.00454116 0.02609833
v -0.01569044 -0.01338090 0.02777248
v -0.01443453 -0.02683625 0.02609833
v -0.01067160 -0.02658009 0.02878766
v -0.01165128 -0.00342471 0.02878766
v -0.01148264 -0.00302356 0.02609833
v -0.01173318 -0.00335705 0.02609833
v -0.01225354 -0.00418109 0.02609833
v -0.01427071 -0.02685558 0.02609833
v -0.00999867 -0.02658009 0.02878766
v -0.00821758 -0.00216810 0.02878766
v -0.01067160 -0.00262000 0.02609833
v 0.00012735 -0.02675892 0.02609833
v -0.00707248 -0.02653418 0.02878766
v 0.00071676 -0.00216810 0.02878766
v -0.00805859 -0.00216810 0.02872342
v -0.01018818 -0.00261033 0.02609833
v -0.00596593 -0.00216810 0.02812052
v 0.00036665 -0.02672992 0.02609833
v 0.00071676 -0.02634569 0.02878766
v 0.00071676 -0.00216810 0.02836484
v -0.00462650 -0.00216810 0.02800521
v 0.00071516 -0.00216810 0.02808998
v 0.00071676 -0.00385244 0.02609833
v 0.00071676 -0.02667434 0.02609833
f 1 2 3
f 1 3 5
f 1 5 7
f 1 7 13
f 1 13 18
f 1 18 23
f 1 23 20
f 1 20 14
f 1 14 8
f 1 8 4
f 1 4 9
f 1 9 15
f 1 15 22
f 1 22 29
f 1 29 28
f 1 28 27
f 1 27 33
f 1 33 38
f 1 38 45
f 1 45 46
f 1 46 40
f 1 40 34
f 1 34 30
f 1 30 24
f 1 24 16
f 1 16 10
f 1 10 6
f 1 6 2
f 2 5 3
f 2 6 7
f 2 7 5
f 4 8 9
f 6 10 11
f 6 11 12
f 6 12 7
f 7 12 11
f 7 11 17
f 7 17 25
f 7 25 31
f 7 31 35
f 7 35 41
f 7 41 36
f 7 36 32
f 7 32 26
f 7 26 21
f 7 21 19
f 7 19 13
f 8 14 9
f 9 14 15
f 10 16 17
f 10 17 11
f 13 19 15
f 13 15 18
f 14 20 15
f 15 19 21
f 15 21 22
f 15 20 23
f 15 23 18
f 16 24 25
f 16 25 17
f 21 26 27
f 21 27 28
f 21 28 29
f 21 29 22
f 24 30 25
f 25 30 31
f 26 32 33
f 26 33 27
f 30 34 31
f 31 34 35
f 32 36 42
f 32 42 44
f 32 44 43
f 32 43 39
f 32 39 37
f 32 37 33
f 33 37 39
f 33 39 38
f 34 40 41
f 34 41 35
f 36 41 46
f 36 46 45
f 36 45 42
f 38 39 43
f 38 43 44
f 38 44 45
f 40 46 41
f 42 45 44

