# https://github.com/mikedh/trimesh
v -0.02624543 0.00642591 0.01072474
v -0.02619227 0.00282604 0.00952552
v -0.02618433 0.00146226 0.01072474
v -0.02610737 0.00402560 0.01192461
v -0.02600581 0.00509306 0.01299241
v -0.02598359 0.01109205 0.01299241
v -0.02609944 0.01002459 0.01192461
v -0.02621131 0.01002459 0.01072474
v -0.02597645 0.00282604 0.00832499
v -0.02615180 0.00162648 0.00952552
v -0.02614466 0.00642591 0.00952552
v -0.02614466 0.00146226 0.00952552
v -0.02606929 0.00146226 0.01192461
v -0.02598042 0.00402560 0.01299241
v -0.02591615 0.01361851 0.01299241
v -0.02600978 0.01361851 0.01198008
v -0.02601533 0.01361851 0.01191735
v -0.02611451 0.01361851 0.01072474
v -0.02608833 0.01002459 0.00952552
v -0.02572493 0.00282604 0.00766859
v -0.02572414 0.00205728 0.00766925
v -0.02585903 0.00146226 0.00830055
v -0.02611055 0.00146226 0.00936836
v -0.02570986 0.00961402 0.00766991
v -0.02591377 0.00146226 0.01299241
v -0.02474663 0.01361851 0.01299241
v -0.02611372 0.01361851 0.01071747
v -0.02596217 0.01361851 0.00952552
v -0.02465379 0.01002459 0.00637759
v -0.02443798 0.00230004 0.00653938
v -0.02513938 0.00146226 0.00730143
v -0.02562020 0.00146226 0.00782906
v -0.02451097 0.00310094 0.00649315
v -0.02573763 0.01361851 0.00876611
v -0.02544406 0.01361851 0.00816584
v -0.02457207 0.01122534 0.00644362
v -0.02531076 0.01001864 0.00721228
v -0.02467363 0.00146226 0.01299241
v -0.01814126 0.01242490 0.01066530
v -0.01814126 0.01361851 0.01052597
v -0.02440545 0.01072076 0.01299241
v -0.01814126 0.00454565 0.01132302
v -0.02387146 0.01122534 0.00627787
v -0.02387146 0.01002459 0.00625740
v -0.02397144 0.00275107 0.00642513
v -0.02363740 0.00187401 0.00644957
v -0.02391510 0.00146226 0.00660475
v -0.02396509 0.00146226 0.00661796
v -0.02484343 0.01361851 0.00739784
v -0.02447527 0.01183226 0.00652221
v -0.02343111 0.01361851 0.00643768
v -0.02466649 0.00158840 0.01299241
v -0.01814126 0.00146226 0.01102058
v -0.01814126 0.00347937 0.01131708
v -0.01814126 0.00380068 0.01133623
v -0.01814126 0.01361851 0.00708285
v -0.02434832 0.00882503 0.01299241
v -0.01814126 0.00396610 0.01133623
v -0.02267179 0.01122534 0.00624617
v -0.02342476 0.01361851 0.00643636
v -0.02267179 0.01361851 0.00630495
v -0.02267179 0.00762428 0.00625806
v -0.02267179 0.00282604 0.00630957
v -0.02275113 0.00153485 0.00636240
v -0.02273605 0.00146226 0.00636900
v -0.02341444 0.00146226 0.00649645
v -0.02403015 0.01361851 0.00679890
v -0.02460698 0.00272013 0.01299241
v -0.01814126 0.00146226 0.00705908
v -0.01814126 0.01242490 0.00703266
v -0.02149194 0.01361851 0.00637495
v -0.02168158 0.00162648 0.00637825
v -0.02269242 0.00146226 0.00636900
v -0.02170538 0.00146226 0.00639013
v -0.02080959 0.01122534 0.00650702
f 1 2 3
f 1 3 4
f 1 4 5
f 1 5 6
f 1 6 7
f 1 7 8
f 1 8 2
f 2 9 10
f 2 10 3
f 2 8 11
f 2 11 9
f 3 10 12
f 3 12 23
f 3 23 22
f 3 22 32
f 3 32 31
f 3 31 48
f 3 48 47
f 3 47 66
f 3 66 65
f 3 65 73
f 3 73 74
f 3 74 69
f 3 69 53
f 3 53 38
f 3 38 25
f 3 25 13
f 3 13 4
f 4 13 5
f 5 13 14
f 5 14 25
f 5 25 38
f 5 38 52
f 5 52 68
f 5 68 57
f 5 57 41
f 5 41 26
f 5 26 15
f 5 15 6
f 6 15 16
f 6 16 8
f 6 8 7
f 8 16 17
f 8 17 18
f 8 18 19
f 8 19 11
f 9 20 21
f 9 21 22
f 9 22 23
f 9 23 12
f 9 12 10
f 9 11 19
f 9 19 24
f 9 24 20
f 13 25 14
f 15 26 40
f 15 40 56
f 15 56 71
f 15 71 61
f 15 61 60
f 15 60 51
f 15 51 67
f 15 67 49
f 15 49 35
f 15 35 34
f 15 34 28
f 15 28 27
f 15 27 18
f 15 18 17
f 15 17 16
f 18 27 19
f 19 27 28
f 19 28 24
f 20 24 29
f 20 29 21
f 21 30 31
f 21 31 32
f 21 32 22
f 21 29 33
f 21 33 30
f 24 28 34
f 24 34 35
f 24 35 36
f 24 36 37
f 24 37 29
f 26 39 40
f 26 41 42
f 26 42 39
f 29 37 36
f 29 36 43
f 29 43 44
f 29 44 33
f 30 45 46
f 30 46 47
f 30 47 48
f 30 48 31
f 30 33 45
f 33 44 45
f 35 49 36
f 36 49 50
f 36 50 51
f 36 51 43
f 38 53 54
f 38 54 55
f 38 55 52
f 39 42 58
f 39 58 55
f 39 55 54
f 39 54 53
f 39 53 69
f 39 69 70
f 39 70 56
f 39 56 40
f 41 57 58
f 41 58 42
f 43 59 44
f 43 51 60
f 43 60 61
f 43 61 59
f 44 59 62
f 44 62 63
f 44 63 45
f 45 63 64
f 45 64 46
f 46 64 65
f 46 65 66
f 46 66 47
f 49 67 50
f 50 67 51
f 52 55 68
f 55 58 57
f 55 57 68
f 56 70 71
f 59 61 71
f 59 71 72
f 59 72 62
f 62 72 63
f 63 72 64
f 64 72 73
f 64 73 65
f 69 74 72
f 69 72 75
f 69 75 70
f 70 75 71
f 71 75 72
f 72 74 73

