# https://github.com/mikedh/trimesh
v -0.01308454 -0.01553748 0.02878792
v -0.01239407 -0.02501380 0.02878792
v -0.01308454 -0.01519021 0.02992494
v -0.01308454 0.01519609 0.02878792
v -0.01185019 -0.02601352 0.02878792
v -0.01146522 -0.02676068 0.03112475
v -0.01144620 -0.02674489 0.03146067
v -0.01173269 -0.02597143 0.03146067
v -0.01308454 -0.01478506 0.03081682
v -0.01308454 0.01461730 0.03014156
v -0.01219599 0.02434617 0.02878792
v -0.01183340 -0.02603457 0.02878792
v -0.01141822 -0.02669228 0.02992494
v -0.01067179 -0.02700798 0.03112475
v -0.01067179 -0.02699746 0.03146067
v -0.01124253 -0.02681856 0.03146067
v -0.01175954 -0.02563468 0.03146067
v -0.01308454 -0.01396950 0.03111768
v -0.01308454 -0.01398002 0.03111533
v -0.01308454 0.01428055 0.03073336
v -0.01218032 0.02449350 0.02878792
v -0.01067179 -0.02657652 0.02878792
v -0.01132534 -0.02659757 0.02920913
v -0.01067179 -0.02688170 0.02992494
v -0.00947101 -0.02702903 0.03112475
v -0.00947101 -0.02703429 0.03146067
v -0.01033606 -0.02701324 0.03146067
v -0.01181102 -0.02477176 0.03146067
v -0.01234707 -0.01396950 0.03146067
v -0.01237728 -0.00917083 0.03146067
v -0.01251269 0.01361231 0.03146067
v -0.01308454 0.01357548 0.03096385
v -0.01183340 0.02442510 0.03146067
v -0.01168345 0.02562476 0.03146067
v -0.01184124 0.02562476 0.02992494
v -0.01190726 0.02562476 0.02878792
v -0.00999810 -0.02657652 0.02878792
v -0.00947101 -0.02666597 0.02906236
v -0.01067179 -0.02665544 0.02903777
v -0.00947101 -0.02690275 0.02992494
v -0.00165195 -0.02700798 0.03112475
v -0.00165195 -0.02697115 0.03146067
v -0.01161742 0.02582997 0.03146067
v -0.01140703 0.02636666 0.03146067
v -0.01147977 0.02640876 0.02992494
v -0.01188824 0.02566160 0.02878792
v -0.00707281 -0.02662914 0.02905216
v -0.00707281 -0.02653443 0.02878792
v -0.00165195 -0.02680277 0.03000473
v -0.00165195 0.02663501 0.03146067
v -0.01067179 0.02662449 0.03146067
v -0.01148761 0.02637719 0.02878792
v -0.01067179 0.02662975 0.03112475
v -0.00165195 -0.02629765 0.02878792
v -0.00165195 0.02661923 0.03128696
v -0.00947101 0.02669815 0.03112475
v -0.00947101 0.02671920 0.03146067
v -0.01067179 0.02659292 0.02992494
v -0.01068858 0.02638245 0.02878792
v -0.00165195 0.02592994 0.02878792
v -0.00165195 0.02660344 0.03112475
v -0.00165195 0.02642454 0.03006151
f 1 2 3
f 1 3 9
f 1 9 19
f 1 19 18
f 1 18 32
f 1 32 20
f 1 20 10
f 1 10 4
f 1 4 11
f 1 11 21
f 1 21 36
f 1 36 46
f 1 46 52
f 1 52 59
f 1 59 60
f 1 60 54
f 1 54 48
f 1 48 37
f 1 37 22
f 1 22 12
f 1 12 5
f 1 5 2
f 2 5 6
f 2 6 7
f 2 7 8
f 2 8 9
f 2 9 3
f 4 10 11
f 5 12 13
f 5 13 6
f 6 13 14
f 6 14 15
f 6 15 16
f 6 16 7
f 7 16 15
f 7 15 27
f 7 27 26
f 7 26 42
f 7 42 50
f 7 50 57
f 7 57 51
f 7 51 44
f 7 44 43
f 7 43 34
f 7 34 33
f 7 33 31
f 7 31 30
f 7 30 29
f 7 29 28
f 7 28 17
f 7 17 8
f 8 17 18
f 8 18 19
f 8 19 9
f 10 20 11
f 11 20 21
f 12 22 23
f 12 23 13
f 13 23 24
f 13 24 14
f 14 25 26
f 14 26 27
f 14 27 15
f 14 24 40
f 14 40 25
f 17 28 18
f 18 28 29
f 18 29 30
f 18 30 31
f 18 31 32
f 20 32 33
f 20 33 21
f 21 33 34
f 21 34 35
f 21 35 36
f 22 37 38
f 22 38 39
f 22 39 23
f 23 39 24
f 24 39 40
f 25 40 41
f 25 41 26
f 26 41 42
f 31 33 32
f 34 43 35
f 35 43 44
f 35 44 45
f 35 45 36
f 36 45 46
f 37 47 38
f 37 48 47
f 38 47 40
f 38 40 39
f 40 47 49
f 40 49 41
f 41 49 54
f 41 54 60
f 41 60 62
f 41 62 61
f 41 61 55
f 41 55 50
f 41 50 42
f 44 51 45
f 45 52 46
f 45 51 53
f 45 53 52
f 47 48 49
f 48 54 49
f 50 55 56
f 50 56 57
f 51 57 53
f 52 53 58
f 52 58 59
f 53 57 58
f 55 61 56
f 56 61 58
f 56 58 57
f 58 61 62
f 58 62 59
f 59 62 60

