# https://github.com/mikedh/trimesh
v 0.02223717 -0.04160713 -0.00068239
v 0.02223717 -0.04166752 -0.00007481
v 0.02223717 -0.03902420 -0.00068239
v 0.02292848 -0.04165536 -0.00068239
v 0.02223717 -0.04162536 0.00403303
v 0.02892719 -0.04195127 -0.00068239
v 0.02832146 -0.04217746 0.00531239
v 0.02830992 -0.04218232 0.00592451
v 0.02292848 -0.04173279 0.00472426
v 0.02223717 -0.03902217 -0.00058318
v 0.02401304 -0.03804689 0.00594072
v 0.02882143 -0.03804689 -0.00068239
v 0.02223717 -0.04148673 0.00532276
v 0.02292848 -0.04161442 0.00592451
v 0.03012713 -0.04163388 -0.00068239
v 0.02934352 -0.04216003 0.00594137
v 0.02882528 -0.04218760 0.00594137
v 0.02837915 -0.04217746 0.00531239
v 0.02830992 -0.04218232 0.00594137
v 0.02223717 -0.03902785 0.00112545
v 0.02223717 -0.03919647 0.00594137
v 0.02410149 -0.03804689 0.00594137
v 0.03205876 -0.03804689 -0.00068239
v 0.02223717 -0.04130351 0.00592451
v 0.02292848 -0.04160672 0.00594137
v 0.03091747 -0.04112961 -0.00068239
v 0.03205876 -0.04079601 0.00472426
v 0.03205876 -0.04073358 0.00594137
v 0.02223717 -0.04129581 0.00594137
v 0.03205876 -0.03804689 0.00594137
v 0.03205876 -0.04005745 -0.00068239
v 0.03122130 -0.04087140 -0.00068239
v 0.03205876 -0.04074899 0.00413742
v 0.03151744 -0.04059819 -0.00068239
f 1 2 5
f 1 5 13
f 1 13 24
f 1 24 29
f 1 29 21
f 1 21 20
f 1 20 10
f 1 10 3
f 1 3 12
f 1 12 23
f 1 23 31
f 1 31 34
f 1 34 32
f 1 32 26
f 1 26 15
f 1 15 6
f 1 6 4
f 1 4 2
f 2 4 6
f 2 6 7
f 2 7 8
f 2 8 9
f 2 9 5
f 3 10 11
f 3 11 12
f 5 9 14
f 5 14 13
f 6 15 16
f 6 16 17
f 6 17 18
f 6 18 7
f 7 18 17
f 7 17 8
f 8 17 19
f 8 19 9
f 9 19 14
f 10 20 11
f 11 20 21
f 11 21 22
f 11 22 30
f 11 30 23
f 11 23 12
f 13 14 24
f 14 25 29
f 14 29 24
f 14 19 25
f 15 26 27
f 15 27 16
f 16 27 28
f 16 28 30
f 16 30 22
f 16 22 21
f 16 21 29
f 16 29 25
f 16 25 19
f 16 19 17
f 23 30 28
f 23 28 27
f 23 27 33
f 23 33 31
f 26 32 33
f 26 33 27
f 31 33 34
f 32 34 33

