# https://github.com/mikedh/trimesh
v -0.00039106 -0.02559694 0.03146067
v 0.00131408 -0.02559694 0.03146067
v -0.00039106 -0.02559694 0.03435006
v -0.00039106 -0.00452361 0.03146067
v 0.00132831 -0.02559197 0.03146067
v 0.00132831 -0.02559694 0.03146152
v 0.00012864 -0.02559694 0.03431063
v 0.00492732 -0.01037593 0.03579200
v -0.00039106 -0.00373585 0.03555161
v -0.00039106 -0.00254799 0.03527475
v 0.00802939 -0.00020955 0.03146067
v 0.00441805 -0.02303733 0.03146067
v 0.00443417 -0.02305969 0.03151537
v 0.00167541 -0.02559694 0.03348643
v 0.00127330 -0.02559694 0.03376031
v 0.00929640 -0.01269201 0.03339654
v 0.00929640 -0.01157622 0.03369036
v 0.00548400 -0.01211548 0.03529129
v 0.00565850 -0.01131529 0.03541085
v 0.00502121 -0.01165823 0.03559104
v 0.00575998 -0.01037593 0.03546045
v 0.00577800 -0.00917565 0.03544731
v 0.00726028 -0.00020955 0.03454467
v 0.00492732 -0.00917565 0.03572756
v 0.00012864 -0.00317671 0.03556009
v -0.00039106 -0.00321647 0.03553380
v -0.00039106 -0.00254799 0.03538202
v 0.00631856 -0.00020955 0.03369587
v 0.00929640 -0.00020955 0.03146067
v 0.00547168 -0.02172521 0.03146067
v 0.00554754 -0.02179976 0.03167775
v 0.00443417 -0.02305969 0.03186727
v 0.00554754 -0.02179976 0.03176042
v 0.00929640 -0.01584804 0.03146067
v 0.00929640 -0.01037593 0.03379296
v 0.00929640 -0.00020955 0.03369926
v 0.00631856 -0.00020955 0.03454467
v 0.00012864 -0.00253805 0.03538965
v 0.00333787 -0.00373585 0.03535276
v 0.00556746 -0.00591773 0.03534132
v 0.00492732 -0.00797536 0.03562750
v 0.00563195 -0.02148913 0.03146067
f 1 2 6
f 1 6 14
f 1 14 15
f 1 15 7
f 1 7 3
f 1 3 9
f 1 9 26
f 1 26 27
f 1 27 10
f 1 10 4
f 1 4 11
f 1 11 29
f 1 29 34
f 1 34 42
f 1 42 30
f 1 30 12
f 1 12 5
f 1 5 2
f 2 5 6
f 3 7 8
f 3 8 9
f 4 10 11
f 5 12 6
f 6 12 13
f 6 13 14
f 7 15 16
f 7 16 17
f 7 17 18
f 7 18 19
f 7 19 20
f 7 20 8
f 8 21 22
f 8 22 23
f 8 23 24
f 8 24 25
f 8 25 9
f 8 20 19
f 8 19 21
f 9 25 26
f 10 27 37
f 10 37 28
f 10 28 11
f 11 28 37
f 11 37 23
f 11 23 36
f 11 36 29
f 12 30 31
f 12 31 13
f 13 32 14
f 13 31 33
f 13 33 32
f 14 32 33
f 14 33 16
f 14 16 15
f 16 34 29
f 16 29 36
f 16 36 35
f 16 35 17
f 16 33 34
f 17 19 18
f 17 35 21
f 17 21 19
f 21 35 22
f 22 35 36
f 22 36 23
f 23 37 38
f 23 38 25
f 23 25 39
f 23 39 40
f 23 40 24
f 24 40 41
f 24 41 25
f 25 38 27
f 25 27 26
f 25 41 39
f 27 38 37
f 30 42 31
f 31 42 34
f 31 34 33
f 39 41 40

