# https://github.com/mikedh/trimesh
v -0.02368348 0.05682282 -0.01323837
v -0.01515555 0.05682282 -0.01324046
v -0.02368348 0.05802224 -0.01325296
v -0.02368348 0.04842689 -0.01435001
v -0.02334787 0.04842689 -0.01381763
v -0.02213484 0.04519833 -0.01385514
v -0.02147198 0.04510632 -0.01380721
v -0.01787214 0.04602805 -0.01362072
v -0.01547280 0.04722747 -0.01352592
v -0.01515555 0.05714233 -0.01324671
v -0.02368348 0.05821127 -0.01325608
v -0.01515555 0.04754531 -0.01354780
v -0.02368348 0.04302867 -0.01572731
v -0.02327774 0.04781798 -0.01387076
v -0.02329862 0.04302867 -0.01556061
v -0.02147198 0.04450577 -0.01405204
v -0.01742215 0.04415281 -0.01382180
v -0.01784208 0.04482027 -0.01372387
v -0.01667247 0.04602805 -0.01361239
v -0.01715167 0.04415281 -0.01382180
v -0.01515555 0.04722747 -0.01357176
v -0.01515555 0.05802391 -0.01328005
v -0.02368348 0.05922333 -0.01334464
v -0.02368348 0.04302867 -0.01948623
v -0.01931892 0.04302699 -0.01714732
v -0.01904258 0.04302699 -0.01636699
v -0.01882803 0.04302699 -0.01588983
v -0.02267415 0.04302867 -0.01544705
v -0.01787214 0.04302699 -0.01562833
v -0.01515555 0.04562323 -0.01396245
v -0.01515555 0.04615351 -0.01376762
v -0.01547697 0.04302699 -0.01555124
v -0.01515555 0.04302699 -0.01561479
v -0.01515555 0.05922333 -0.01351758
v -0.02368348 0.05935883 -0.01336860
v -0.02207390 0.05021682 -0.02347748
v -0.02177753 0.04941720 -0.02329516
v -0.02097859 0.04894379 -0.02351603
v -0.02027231 0.04818265 -0.02327849
v -0.01931892 0.04813581 -0.02335871
v -0.02267081 0.04302867 -0.01960292
v -0.01931892 0.04302699 -0.01948102
v -0.02368348 0.05562340 -0.01963000
v -0.01515555 0.04302699 -0.01934975
v -0.01515555 0.05991086 -0.01378325
v -0.02368348 0.06011662 -0.01361135
v -0.02141521 0.04974006 -0.02356395
v -0.02207390 0.05023354 -0.02347748
v -0.02145612 0.05071030 -0.02361396
v -0.02027231 0.05082572 -0.02385775
v -0.02027231 0.04962631 -0.02371502
v -0.02027231 0.04878153 -0.02354937
v -0.01931892 0.04825960 -0.02341393
v -0.01907180 0.04812411 -0.02337851
v -0.02207307 0.04302867 -0.01964771
v -0.01847406 0.04302699 -0.01946539
v -0.02147198 0.04302867 -0.01967897
v -0.02368348 0.05673416 -0.01919869
v -0.01547280 0.04302699 -0.01937371
v -0.01846821 0.04662525 -0.02227729
v -0.01787547 0.04845031 -0.02326391
v -0.01747725 0.04919137 -0.02341601
v -0.01682691 0.04842689 -0.02266798
v -0.01718005 0.04999098 -0.02353687
v -0.01608056 0.04910940 -0.02223458
v -0.01605218 0.04991069 -0.02231063
v -0.01515555 0.04843525 -0.01971126
v -0.01515555 0.05991086 -0.01407705
v -0.01547280 0.05991922 -0.01378012
v -0.02368348 0.06011662 -0.01422082
v -0.02089093 0.05264242 -0.02348582
v -0.02101699 0.05202347 -0.02357646
v -0.02027231 0.05202347 -0.02376086
v -0.01907180 0.05202347 -0.02381920
v -0.01931892 0.05082740 -0.02387650
v -0.01931892 0.04962631 -0.02371606
v -0.01931892 0.04891034 -0.02358271
v -0.01907180 0.05082740 -0.02388067
v -0.01907180 0.04872465 -0.02354832
v -0.01827787 0.04886684 -0.02351499
v -0.01898749 0.04711706 -0.02267944
v -0.01607472 0.04302699 -0.01940080
v -0.01971296 0.05983057 -0.01507929
v -0.01515555 0.05729790 -0.01882883
v -0.01907180 0.05401247 -0.02254504
v -0.01931892 0.05400243 -0.02252942
v -0.02007111 0.05397232 -0.02248045
v -0.02027231 0.05274613 -0.02354312
v -0.01787547 0.04960456 -0.02360042
v -0.01787214 0.05082740 -0.02372856
v -0.01718589 0.05082740 -0.02353374
v -0.01605218 0.05035231 -0.02231063
v -0.01515555 0.04962631 -0.01970293
v -0.01547280 0.05991922 -0.01409997
v -0.01945500 0.05983057 -0.01507929
v -0.01667247 0.05994599 -0.01427708
v -0.01907180 0.05280970 -0.02357958
v -0.01830792 0.05272773 -0.02353478
v -0.01789384 0.05194150 -0.02361292
v -0.01931892 0.05279632 -0.02357229
v -0.01907180 0.04962631 -0.02371606
v -0.01515555 0.05689642 -0.01919556
v -0.01907180 0.05341025 -0.02314514
v -0.01931892 0.05354909 -0.02298157
v -0.01724934 0.05148984 -0.02349102
v -0.01651384 0.05078223 -0.02277633
v -0.01515555 0.05562507 -0.01955082
v -0.01750814 0.05228778 -0.02330975
f 1 2 3
f 1 3 11
f 1 11 23
f 1 23 35
f 1 35 46
f 1 46 70
f 1 70 58
f 1 58 43
f 1 43 24
f 1 24 13
f 1 13 4
f 1 4 5
f 1 5 6
f 1 6 7
f 1 7 8
f 1 8 9
f 1 9 2
f 2 10 11
f 2 11 3
f 2 9 12
f 2 12 21
f 2 21 31
f 2 31 30
f 2 30 33
f 2 33 44
f 2 44 67
f 2 67 93
f 2 93 107
f 2 107 102
f 2 102 84
f 2 84 68
f 2 68 45
f 2 45 34
f 2 34 22
f 2 22 10
f 4 13 5
f 5 13 14
f 5 14 6
f 6 13 15
f 6 15 16
f 6 16 7
f 6 14 13
f 7 16 17
f 7 17 18
f 7 18 8
f 8 18 19
f 8 19 9
f 9 19 20
f 9 20 21
f 9 21 12
f 10 22 11
f 11 22 23
f 13 24 42
f 13 42 25
f 13 25 26
f 13 26 27
f 13 27 15
f 15 28 16
f 15 27 29
f 15 29 28
f 16 28 17
f 17 20 18
f 17 28 20
f 18 20 19
f 20 30 31
f 20 31 21
f 20 28 32
f 20 32 33
f 20 33 30
f 22 34 35
f 22 35 23
f 24 36 37
f 24 37 38
f 24 38 39
f 24 39 40
f 24 40 41
f 24 41 42
f 24 43 36
f 25 42 56
f 25 56 82
f 25 82 59
f 25 59 44
f 25 44 33
f 25 33 32
f 25 32 29
f 25 29 27
f 25 27 26
f 28 29 32
f 34 45 46
f 34 46 35
f 36 47 38
f 36 38 37
f 36 43 48
f 36 48 49
f 36 49 50
f 36 50 47
f 38 47 51
f 38 51 52
f 38 52 39
f 39 52 40
f 40 52 53
f 40 53 54
f 40 54 41
f 41 55 42
f 41 54 55
f 42 55 57
f 42 57 56
f 43 58 48
f 44 59 60
f 44 60 54
f 44 54 61
f 44 61 62
f 44 62 63
f 44 63 64
f 44 64 65
f 44 65 66
f 44 66 67
f 45 68 94
f 45 94 69
f 45 69 46
f 46 69 94
f 46 94 70
f 47 50 51
f 48 58 71
f 48 71 72
f 48 72 49
f 49 72 73
f 49 73 50
f 50 73 74
f 50 74 75
f 50 75 51
f 51 76 77
f 51 77 52
f 51 75 78
f 51 78 76
f 52 77 79
f 52 79 53
f 53 79 54
f 54 79 80
f 54 80 61
f 54 60 81
f 54 81 55
f 55 81 57
f 56 57 82
f 57 81 60
f 57 60 59
f 57 59 82
f 58 70 83
f 58 83 84
f 58 84 85
f 58 85 86
f 58 86 87
f 58 87 88
f 58 88 71
f 61 80 62
f 62 80 89
f 62 89 64
f 62 64 63
f 64 66 65
f 64 89 90
f 64 90 91
f 64 91 92
f 64 92 66
f 66 92 67
f 67 92 93
f 68 84 95
f 68 95 96
f 68 96 94
f 70 94 96
f 70 96 95
f 70 95 83
f 71 88 73
f 71 73 72
f 73 88 74
f 74 97 98
f 74 98 99
f 74 99 90
f 74 90 78
f 74 78 75
f 74 88 100
f 74 100 97
f 76 101 79
f 76 79 77
f 76 78 101
f 78 90 89
f 78 89 101
f 79 101 80
f 80 101 89
f 83 95 84
f 84 102 103
f 84 103 85
f 85 103 104
f 85 104 86
f 86 104 87
f 87 104 88
f 88 104 103
f 88 103 97
f 88 97 100
f 90 99 105
f 90 105 91
f 91 105 106
f 91 106 92
f 92 106 102
f 92 102 107
f 92 107 93
f 97 103 98
f 98 108 105
f 98 105 99
f 98 103 102
f 98 102 108
f 102 106 105
f 102 105 108

