# https://github.com/mikedh/trimesh
v 0.00459741 0.00614260 0.03641917
v 0.00459741 0.00601390 0.03641917
v 0.00623515 0.00636953 0.03563572
v 0.00607471 0.00762607 0.03568086
v 0.00492815 0.00882503 0.03617355
v 0.00459741 0.01002400 0.03626335
v 0.00459741 0.00548893 0.03624200
v 0.00631913 -0.00020785 0.03454451
v 0.00726068 -0.00020785 0.03454451
v 0.00939007 -0.00020785 0.03370959
v 0.00675354 0.00431706 0.03534447
v 0.00675214 0.00522644 0.03534350
v 0.00939007 0.00642710 0.03382512
v 0.00939007 0.01002400 0.03366397
v 0.00602967 0.00882503 0.03564785
v 0.00492815 0.01002400 0.03610851
v 0.00492815 0.01122466 0.03591386
v 0.00459741 0.01065566 0.03616093
v 0.00459741 0.00519257 0.03588764
v 0.00631913 -0.00020785 0.03369649
v 0.00939007 -0.00020785 0.03146068
v 0.00939007 0.00042211 0.03374600
v 0.00939007 0.00162277 0.03378483
v 0.00939007 0.01112136 0.03345378
v 0.00579745 0.01122466 0.03550465
v 0.00594710 0.01002400 0.03559785
v 0.00564780 0.01204260 0.03540709
v 0.00459741 0.01122466 0.03606531
v 0.00459741 0.00532805 0.03500274
v 0.00802912 -0.00020785 0.03146068
v 0.00459741 0.01281820 0.03146068
v 0.00939007 0.01709079 0.03146068
v 0.00939007 0.01611705 0.03233927
v 0.00459741 0.01242363 0.03577163
v 0.00459741 0.01479785 0.03146068
v 0.00459741 0.01484865 0.03169901
v 0.00459741 0.01498074 0.03232520
v 0.00459741 0.01500953 0.03265576
v 0.00459741 0.01489268 0.03352514
v 0.00459741 0.01477922 0.03387124
v 0.00939007 0.01686556 0.03195822
v 0.00459741 0.01328898 0.03542408
v 0.00459741 0.01322294 0.03545611
v 0.00459741 0.01447609 0.03449354
v 0.00459741 0.01429150 0.03472799
v 0.00459741 0.01382919 0.03509545
f 1 2 3
f 1 3 4
f 1 4 5
f 1 5 6
f 1 6 18
f 1 18 28
f 1 28 34
f 1 34 43
f 1 43 42
f 1 42 46
f 1 46 45
f 1 45 44
f 1 44 40
f 1 40 39
f 1 39 38
f 1 38 37
f 1 37 36
f 1 36 35
f 1 35 31
f 1 31 29
f 1 29 19
f 1 19 7
f 1 7 2
f 2 7 8
f 2 8 9
f 2 9 10
f 2 10 11
f 2 11 3
f 3 11 12
f 3 12 13
f 3 13 4
f 4 13 14
f 4 14 15
f 4 15 5
f 5 15 16
f 5 16 6
f 6 16 17
f 6 17 18
f 7 19 8
f 8 20 30
f 8 30 21
f 8 21 10
f 8 10 9
f 8 19 20
f 10 21 32
f 10 32 41
f 10 41 33
f 10 33 24
f 10 24 14
f 10 14 13
f 10 13 23
f 10 23 22
f 10 22 11
f 11 22 23
f 11 23 13
f 11 13 12
f 14 24 25
f 14 25 26
f 14 26 15
f 15 26 16
f 16 26 25
f 16 25 17
f 17 25 27
f 17 27 28
f 17 28 18
f 19 29 20
f 20 29 31
f 20 31 30
f 21 30 31
f 21 31 35
f 21 35 32
f 24 33 25
f 25 33 27
f 27 34 28
f 27 33 34
f 32 35 36
f 32 36 37
f 32 37 38
f 32 38 39
f 32 39 40
f 32 40 41
f 33 41 42
f 33 42 43
f 33 43 34
f 40 44 41
f 41 44 45
f 41 45 46
f 41 46 42

