# https://github.com/mikedh/trimesh
v 0.00887399 0.02709261 0.01974883
v 0.00887399 0.02678525 0.01752365
v 0.00852782 0.02679397 0.01752365
v 0.00772845 0.02678307 0.01752365
v 0.00732767 0.02676781 0.01752365
v 0.00855949 0.02707590 0.01974883
v 0.00887399 0.02531822 0.01974883
v 0.00887399 0.02553621 0.01752365
v 0.00255657 0.02642122 0.01752365
v 0.00732767 0.02697562 0.01974883
v 0.00381351 0.01967027 0.01776305
v 0.00381351 0.01967027 0.01752365
v -0.00228223 0.02319289 0.01974883
v 0.00153661 0.02632313 0.01752365
v 0.00252818 0.02643575 0.01792490
v 0.00293333 0.02626064 0.01974883
v 0.00184347 0.02624901 0.01863156
v 0.00258278 0.02630569 0.01906875
v 0.00275860 0.01967027 0.01772667
v 0.00275860 0.01967027 0.01752365
v -0.00228223 0.02389407 0.01974883
v -0.00228223 0.02306355 0.01915502
v -0.00228223 0.02559797 0.01752365
v -0.00227677 0.02473839 0.01974883
v -0.00228223 0.02306718 0.01909163
v -0.00228223 0.02329607 0.01799831
v -0.00228223 0.02330478 0.01796912
v -0.00228223 0.02334402 0.01790966
v -0.00228223 0.02364484 0.01752409
v -0.00187054 0.02394638 0.01752365
v -0.00228223 0.02479797 0.01917419
v -0.00228223 0.02445065 0.01752365
f 1 2 3
f 1 3 4
f 1 4 5
f 1 5 6
f 1 6 10
f 1 10 16
f 1 16 24
f 1 24 21
f 1 21 13
f 1 13 7
f 1 7 8
f 1 8 2
f 2 8 12
f 2 12 20
f 2 20 30
f 2 30 32
f 2 32 23
f 2 23 14
f 2 14 9
f 2 9 5
f 2 5 4
f 2 4 3
f 5 9 6
f 6 9 10
f 7 11 12
f 7 12 8
f 7 13 11
f 9 14 15
f 9 15 10
f 10 15 17
f 10 17 18
f 10 18 16
f 11 13 19
f 11 19 20
f 11 20 12
f 13 21 31
f 13 31 23
f 13 23 32
f 13 32 29
f 13 29 28
f 13 28 27
f 13 27 26
f 13 26 25
f 13 25 22
f 13 22 19
f 14 17 15
f 14 23 17
f 16 18 17
f 16 17 23
f 16 23 24
f 19 22 20
f 20 22 25
f 20 25 26
f 20 26 27
f 20 27 28
f 20 28 29
f 20 29 30
f 21 24 31
f 23 31 24
f 29 32 30

