# https://github.com/mikedh/trimesh
v -0.03793229 0.02209280 0.00900545
v -0.03793229 0.02200479 0.00900545
v -0.03646149 0.02264631 0.00892993
v -0.03793229 0.03081088 0.00890295
v -0.03793229 0.02154203 0.00897524
v -0.03646149 0.02260547 0.00892993
v -0.03347537 0.02922207 0.00854368
v -0.03347537 0.03081088 0.00843633
v -0.03793229 0.03081088 0.00551794
v -0.03761814 0.02154203 0.00892561
v -0.03793229 0.02154203 0.00491053
v -0.03721063 0.02154203 0.00884146
v -0.03647676 0.02154203 0.00862568
v -0.03347537 0.02154203 0.00754787
v -0.03383882 0.02227246 0.00784025
v -0.03347537 0.02326877 0.00786992
v -0.03347537 0.02682205 0.00837915
v -0.03347537 0.02802161 0.00851455
v -0.03347537 0.03081088 0.00349503
v -0.03597413 0.03081088 0.00349503
v -0.03662816 0.02802524 0.00349503
v -0.03667179 0.02781110 0.00349503
v -0.03683933 0.02691188 0.00349503
v -0.03793229 0.02802524 0.00500008
v -0.03682101 0.02154203 0.00375990
v -0.03793229 0.02286045 0.00474007
v -0.03347537 0.02154203 0.00621167
v -0.03347537 0.02620232 0.00349503
v -0.03684980 0.02683657 0.00349503
v -0.03793229 0.02791000 0.00498174
v -0.03652213 0.02154203 0.00351822
v -0.03793229 0.02322612 0.00470338
v -0.03686856 0.02519785 0.00349503
v -0.03680094 0.02442567 0.00349503
v -0.03518047 0.02154203 0.00349503
v -0.03347537 0.02154384 0.00619818
v -0.03793229 0.02682478 0.00482584
v -0.03689038 0.02560889 0.00349503
v -0.03793229 0.02442567 0.00463218
v -0.03793229 0.02562613 0.00472442
v -0.03649290 0.02154203 0.00349503
v -0.03793229 0.02396745 0.00465429
f 1 2 6
f 1 6 3
f 1 3 4
f 1 4 9
f 1 9 24
f 1 24 30
f 1 30 37
f 1 37 40
f 1 40 39
f 1 39 42
f 1 42 32
f 1 32 26
f 1 26 11
f 1 11 5
f 1 5 2
f 2 5 6
f 3 6 7
f 3 7 4
f 4 7 8
f 4 8 19
f 4 19 20
f 4 20 9
f 5 10 6
f 5 11 25
f 5 25 31
f 5 31 41
f 5 41 35
f 5 35 27
f 5 27 14
f 5 14 13
f 5 13 12
f 5 12 10
f 6 10 12
f 6 12 13
f 6 13 14
f 6 14 15
f 6 15 16
f 6 16 17
f 6 17 18
f 6 18 7
f 7 18 17
f 7 17 16
f 7 16 14
f 7 14 27
f 7 27 36
f 7 36 28
f 7 28 19
f 7 19 8
f 9 20 21
f 9 21 22
f 9 22 23
f 9 23 24
f 11 26 25
f 14 16 15
f 19 28 35
f 19 35 41
f 19 41 34
f 19 34 33
f 19 33 38
f 19 38 29
f 19 29 23
f 19 23 22
f 19 22 21
f 19 21 20
f 23 29 24
f 24 29 30
f 25 26 32
f 25 32 33
f 25 33 34
f 25 34 31
f 27 35 36
f 28 36 35
f 29 37 30
f 29 38 39
f 29 39 40
f 29 40 37
f 31 34 41
f 32 42 33
f 33 42 38
f 38 42 39

