# https://github.com/mikedh/trimesh
v 0.03205876 -0.04025649 0.00266281
v 0.03205876 -0.04005611 -0.00068239
v 0.03447177 -0.03874291 0.00266281
v 0.03205876 -0.02614585 0.00266281
v 0.03211834 -0.03999707 -0.00068239
v 0.03205876 -0.02290579 -0.00068239
v 0.03458304 -0.03861410 0.00266281
v 0.03930566 -0.03272974 -0.00068239
v 0.03960970 -0.03242023 -0.00068239
v 0.03990585 -0.03209640 -0.00068239
v 0.04042630 -0.03149705 -0.00068239
v 0.03378834 -0.02198082 0.00266281
v 0.03205876 -0.02290758 -0.00051603
v 0.03382514 -0.02198082 0.00243652
v 0.03253715 -0.02277697 -0.00068239
v 0.03936612 -0.03275837 0.00232485
v 0.03934860 -0.03274405 0.00266281
v 0.04062257 -0.03112313 -0.00068239
v 0.04040703 -0.03148095 -0.00007491
v 0.03959743 -0.02198082 0.00266281
v 0.03805097 -0.02198082 -0.00068239
v 0.04036585 -0.03142728 0.00065078
v 0.03956414 -0.03225742 0.00266281
v 0.04067163 -0.03078678 -0.00068239
v 0.04084512 -0.02237621 -0.00007491
v 0.04040177 -0.02198082 0.00062458
v 0.03965526 -0.02237621 0.00266281
v 0.04050604 -0.02237621 0.00077620
v 0.04086176 -0.02198082 -0.00068239
v 0.03961496 -0.03195864 0.00266281
v 0.04091959 -0.02357491 -0.00007491
v 0.04098794 -0.02357491 -0.00068239
v 0.04097216 -0.02237621 -0.00068239
v 0.04081708 -0.02198082 -0.00046953
v 0.04067339 -0.02198082 -0.00007491
v 0.04057876 -0.02357491 0.00086200
v 0.04100984 -0.02296841 -0.00068239
v 0.03967278 -0.02357491 0.00266281
f 1 2 3
f 1 3 7
f 1 7 17
f 1 17 23
f 1 23 30
f 1 30 38
f 1 38 27
f 1 27 20
f 1 20 12
f 1 12 4
f 1 4 13
f 1 13 6
f 1 6 2
f 2 5 3
f 2 6 15
f 2 15 21
f 2 21 29
f 2 29 33
f 2 33 37
f 2 37 32
f 2 32 24
f 2 24 18
f 2 18 11
f 2 11 10
f 2 10 9
f 2 9 8
f 2 8 5
f 3 5 8
f 3 8 9
f 3 9 10
f 3 10 11
f 3 11 7
f 4 12 13
f 6 13 12
f 6 12 14
f 6 14 15
f 7 11 16
f 7 16 17
f 11 18 19
f 11 19 16
f 12 20 26
f 12 26 35
f 12 35 34
f 12 34 29
f 12 29 21
f 12 21 14
f 14 21 15
f 16 19 17
f 17 19 22
f 17 22 23
f 18 22 19
f 18 24 22
f 20 25 26
f 20 27 28
f 20 28 25
f 22 30 23
f 22 24 31
f 22 31 30
f 24 32 31
f 25 33 29
f 25 29 34
f 25 34 35
f 25 35 26
f 25 28 36
f 25 36 31
f 25 31 37
f 25 37 33
f 27 38 36
f 27 36 28
f 30 31 36
f 30 36 38
f 31 32 37

