# https://github.com/mikedh/trimesh
v -0.01047832 -0.01855778 0.01752344
v -0.00437324 -0.02317240 0.01708921
v -0.00456754 -0.02317240 0.01752344
v -0.01047832 -0.01657500 0.01752344
v -0.01047832 -0.01778013 0.01568201
v -0.00343324 -0.01877309 0.01568201
v -0.00344403 -0.02317240 0.01709102
v -0.00282695 -0.02317240 0.01752344
v -0.00962377 -0.01249553 0.01752344
v -0.01047832 -0.01628861 0.01672475
v -0.01047832 -0.01602731 0.01568201
v -0.00227824 -0.01873651 0.01568201
v -0.00287913 -0.02317240 0.01737022
v -0.00129057 -0.01858809 0.01568201
v -0.00286114 -0.02317240 0.01742232
v -0.00129057 -0.01844385 0.01645996
v -0.00129057 -0.01782194 0.01752344
v -0.00129057 -0.01249553 0.01752344
v -0.00954641 -0.01249553 0.01568201
v -0.00129057 -0.01249553 0.01568201
f 1 2 3
f 1 3 8
f 1 8 17
f 1 17 18
f 1 18 9
f 1 9 4
f 1 4 10
f 1 10 11
f 1 11 5
f 1 5 2
f 2 6 7
f 2 7 13
f 2 13 15
f 2 15 8
f 2 8 3
f 2 5 6
f 4 9 10
f 5 11 19
f 5 19 20
f 5 20 14
f 5 14 12
f 5 12 6
f 6 12 7
f 7 12 14
f 7 14 13
f 8 15 14
f 8 14 16
f 8 16 17
f 9 18 20
f 9 20 19
f 9 19 11
f 9 11 10
f 13 14 15
f 14 20 18
f 14 18 17
f 14 17 16

