# https://github.com/mikedh/trimesh
v 0.01343735 0.02526689 0.01542646
v 0.01343735 0.02528504 0.01568193
v 0.01343735 0.02531615 0.01443076
v 0.01673552 0.00738019 0.01752344
v 0.01343735 0.02690568 0.01568193
v 0.01343735 0.02551582 0.01299241
v 0.01673552 0.00784693 0.01672643
v 0.01689883 0.00710274 0.01752344
v 0.01673552 0.02416744 0.01752344
v 0.01462163 0.02658674 0.01568193
v 0.01452227 0.02670083 0.01299241
v 0.01343735 0.02690827 0.01552049
v 0.01343735 0.02690827 0.01299241
v 0.01674922 0.01198281 0.01299241
v 0.01777362 0.00754096 0.01544465
v 0.02373613 0.00042051 0.01299241
v 0.01734536 0.00675008 0.01698145
v 0.01724372 0.00662303 0.01752344
v 0.02466574 0.01649727 0.01752344
v 0.01492084 0.02640263 0.01568193
v 0.01521663 0.02633262 0.01299241
v 0.02499236 0.00042051 0.01299241
v 0.02356369 0.00042051 0.01374596
v 0.01750068 0.00628075 0.01752344
v 0.02469886 0.01655432 0.01694286
v 0.01530685 0.02602664 0.01568193
v 0.02485418 0.01593199 0.01752344
v 0.02475254 0.01664766 0.01483968
v 0.02407760 0.01718442 0.01299241
v 0.02472741 0.01662433 0.01614319
v 0.02474683 0.01664248 0.01552448
v 0.02499579 0.00056312 0.01299241
v 0.02493755 0.00402741 0.01752344
v 0.02477309 0.00071870 0.01667675
v 0.02478794 0.00042051 0.01568193
v 0.02345977 0.00042051 0.01434959
v 0.01768911 0.00607071 0.01752344
v 0.02486217 0.01495961 0.01752344
v 0.02503690 0.01482217 0.01552448
v 0.02492156 0.01602275 0.01552448
v 0.02483705 0.01598904 0.01299241
v 0.02482905 0.01602015 0.01299241
v 0.02481992 0.01605127 0.01299241
v 0.02467602 0.01649727 0.01299241
v 0.02474226 0.01663729 0.01568193
v 0.02506888 0.00403000 0.01299241
v 0.02494668 0.00443192 0.01752344
v 0.02486902 0.00321060 0.01752344
v 0.02483248 0.00277757 0.01752344
v 0.02476167 0.00197114 0.01752344
v 0.02456182 0.00071870 0.01752344
v 0.02344834 0.00042051 0.01568193
v 0.01791295 0.00584771 0.01752344
v 0.02510314 0.01122824 0.01299241
v 0.02499236 0.01482217 0.01299241
v 0.02498094 0.01495442 0.01299241
v 0.02335241 0.00071870 0.01752344
f 1 2 5
f 1 5 12
f 1 12 13
f 1 13 6
f 1 6 3
f 1 3 4
f 1 4 2
f 2 4 9
f 2 9 5
f 3 6 4
f 4 7 8
f 4 8 18
f 4 18 24
f 4 24 37
f 4 37 53
f 4 53 57
f 4 57 51
f 4 51 50
f 4 50 49
f 4 49 48
f 4 48 33
f 4 33 47
f 4 47 38
f 4 38 27
f 4 27 19
f 4 19 9
f 4 6 7
f 5 10 11
f 5 11 12
f 5 9 10
f 6 13 11
f 6 11 21
f 6 21 29
f 6 29 44
f 6 44 43
f 6 43 42
f 6 42 41
f 6 41 56
f 6 56 55
f 6 55 54
f 6 54 46
f 6 46 32
f 6 32 22
f 6 22 16
f 6 16 14
f 6 14 7
f 7 14 15
f 7 15 16
f 7 16 17
f 7 17 8
f 8 17 18
f 9 19 20
f 9 20 10
f 10 20 21
f 10 21 11
f 11 13 12
f 14 16 15
f 16 22 35
f 16 35 52
f 16 52 36
f 16 36 23
f 16 23 24
f 16 24 17
f 17 24 18
f 19 25 26
f 19 26 20
f 19 27 25
f 20 26 21
f 21 28 29
f 21 26 30
f 21 30 31
f 21 31 28
f 22 32 33
f 22 33 34
f 22 34 35
f 23 36 37
f 23 37 24
f 25 30 26
f 25 27 30
f 27 38 39
f 27 39 40
f 27 40 30
f 28 31 40
f 28 40 41
f 28 41 42
f 28 42 43
f 28 43 44
f 28 44 29
f 30 40 45
f 30 45 31
f 31 45 40
f 32 46 47
f 32 47 33
f 33 48 34
f 34 48 49
f 34 49 50
f 34 50 51
f 34 51 35
f 35 51 57
f 35 57 52
f 36 52 53
f 36 53 37
f 38 47 39
f 39 47 54
f 39 54 55
f 39 55 56
f 39 56 40
f 40 56 41
f 46 54 47
f 52 57 53

