# https://github.com/mikedh/trimesh
v 0.03229905 -0.02259132 -0.00247532
v 0.03165766 -0.02259132 -0.00247532
v 0.03253563 -0.02277740 -0.00068239
v 0.03322636 -0.02284889 -0.00068239
v 0.03331997 -0.02274990 -0.00727478
v 0.03179556 -0.02279115 -0.00127523
v 0.03267225 -0.02274990 -0.00727478
v 0.03169309 -0.02265915 -0.00367541
v 0.02652906 -0.02468855 -0.00727478
v 0.02652906 -0.02461155 -0.00068239
v 0.03190056 -0.02293414 -0.00068239
v 0.03676729 -0.02935780 -0.00068239
v 0.03676729 -0.02931197 -0.00091844
v 0.03676729 -0.02928172 -0.00107521
v 0.03676729 -0.02924414 -0.00127523
v 0.03423968 -0.02316696 -0.00988578
v 0.03391455 -0.02293505 -0.00988578
v 0.03379817 -0.02286998 -0.00988578
v 0.03291388 -0.02281498 -0.00847487
v 0.02652906 -0.02494612 -0.00988578
v 0.03371088 -0.02286998 -0.00988578
v 0.02599899 -0.02525410 -0.00988578
v 0.02588767 -0.02532010 -0.00988578
v 0.02583580 -0.02525318 -0.00847487
v 0.02580797 -0.02521194 -0.00727478
v 0.02572574 -0.02513952 -0.00068239
v 0.02612550 -0.02487004 -0.00068239
v 0.03676729 -0.03195550 -0.00068239
v 0.03676729 -0.02909656 -0.00247532
v 0.03444462 -0.02361885 -0.00988578
v 0.02578140 -0.02542551 -0.00988578
v 0.02468711 -0.02654378 -0.00988578
v 0.02489332 -0.02621380 -0.00068239
v 0.03676729 -0.03195550 -0.00988578
v 0.02478832 -0.03195550 -0.00068239
v 0.03676729 -0.02905257 -0.00367541
v 0.03676729 -0.02912223 -0.00487550
v 0.03676729 -0.02925697 -0.00607469
v 0.03676729 -0.02941096 -0.00666212
v 0.03676729 -0.02959337 -0.00735496
v 0.03676729 -0.03179326 -0.00988578
v 0.02462006 -0.02665744 -0.00988578
v 0.02466940 -0.02651812 -0.00068239
v 0.02491356 -0.03195550 -0.00988578
v 0.02447964 -0.03162185 -0.00068239
v 0.02465042 -0.03195550 -0.00127523
v 0.02432277 -0.02717533 -0.00988578
v 0.02434175 -0.02717533 -0.00068239
v 0.02446699 -0.03157418 -0.00988578
v 0.02441512 -0.03169885 -0.00127523
v 0.02432024 -0.03124237 -0.00068239
v 0.02394578 -0.02837427 -0.00988578
v 0.02418994 -0.02778122 -0.00068239
v 0.02400018 -0.03077398 -0.00988578
v 0.02413934 -0.03077398 -0.00068239
v 0.02405964 -0.03077398 -0.00127523
v 0.02392680 -0.02858601 -0.00988578
v 0.02394831 -0.02837427 -0.00967496
v 0.02405964 -0.02837427 -0.00068239
v 0.02386734 -0.02978586 -0.00988578
v 0.02405837 -0.03018092 -0.00068239
v 0.02384710 -0.02957412 -0.00967496
v 0.02384331 -0.02957412 -0.00988578
v 0.02403560 -0.02898107 -0.00068239
f 1 2 3
f 1 3 4
f 1 4 5
f 1 5 7
f 1 7 2
f 2 6 3
f 2 7 8
f 2 8 9
f 2 9 10
f 2 10 6
f 3 6 11
f 3 11 10
f 3 10 27
f 3 27 26
f 3 26 33
f 3 33 43
f 3 43 48
f 3 48 53
f 3 53 59
f 3 59 64
f 3 64 61
f 3 61 55
f 3 55 51
f 3 51 45
f 3 45 35
f 3 35 28
f 3 28 12
f 3 12 4
f 4 12 13
f 4 13 14
f 4 14 15
f 4 15 16
f 4 16 17
f 4 17 18
f 4 18 5
f 5 18 21
f 5 21 7
f 6 10 11
f 7 19 20
f 7 20 8
f 7 21 19
f 8 20 9
f 9 20 22
f 9 22 23
f 9 23 24
f 9 24 25
f 9 25 26
f 9 26 27
f 9 27 10
f 12 28 34
f 12 34 41
f 12 41 40
f 12 40 39
f 12 39 38
f 12 38 37
f 12 37 36
f 12 36 29
f 12 29 15
f 12 15 14
f 12 14 13
f 15 29 16
f 16 30 41
f 16 41 34
f 16 34 44
f 16 44 49
f 16 49 54
f 16 54 60
f 16 60 63
f 16 63 57
f 16 57 52
f 16 52 47
f 16 47 42
f 16 42 32
f 16 32 31
f 16 31 23
f 16 23 22
f 16 22 20
f 16 20 21
f 16 21 18
f 16 18 17
f 16 29 30
f 19 21 20
f 23 31 24
f 24 31 32
f 24 32 25
f 25 32 26
f 26 32 33
f 28 35 46
f 28 46 44
f 28 44 34
f 29 36 30
f 30 36 37
f 30 37 38
f 30 38 39
f 30 39 40
f 30 40 41
f 32 42 43
f 32 43 33
f 35 45 46
f 42 47 43
f 43 47 48
f 44 46 49
f 45 50 46
f 45 51 50
f 46 50 49
f 47 52 48
f 48 52 53
f 49 50 54
f 50 51 55
f 50 55 56
f 50 56 54
f 52 57 58
f 52 58 53
f 53 58 59
f 54 56 60
f 55 61 56
f 56 61 62
f 56 62 63
f 56 63 60
f 57 63 59
f 57 59 58
f 59 63 62
f 59 62 64
f 61 64 62

