# https://github.com/mikedh/trimesh
v -0.02589737 0.01495758 0.01568201
v -0.02587366 0.01496251 0.01752344
v -0.02587840 0.01583497 0.01752344
v -0.02588314 0.01582511 0.01672475
v -0.02582270 0.01577582 0.01568201
v -0.02589499 0.01481792 0.01568201
v -0.02540793 0.01439402 0.01752344
v -0.02581085 0.01383867 0.01568201
v -0.02578360 0.01377952 0.01568201
v -0.02544704 0.01315517 0.01568201
v -0.02506307 0.01264747 0.01568201
v -0.02553355 0.01643467 0.01752344
v -0.02557976 0.01629666 0.01568201
v -0.02520054 0.01423136 0.01752344
v -0.02234688 0.01002846 0.01568201
v -0.02493390 0.01705903 0.01752344
v -0.02493271 0.01706396 0.01568201
v -0.02552170 0.01642482 0.01672475
v -0.02553236 0.01637553 0.01568201
v -0.02119025 0.01002846 0.01635614
v -0.02107411 0.01161071 0.01752344
v -0.01625679 0.01002846 0.01568201
v -0.01604229 0.02619761 0.01752344
v -0.01609088 0.02624855 0.01632820
v -0.01609088 0.02624855 0.01604485
v -0.01602451 0.02619926 0.01568201
v -0.02027182 0.01002846 0.01669321
v -0.02027182 0.01124924 0.01752344
v -0.01583372 0.01002846 0.01590191
v -0.01452184 0.01140862 0.01568201
v -0.01557419 0.02649665 0.01752344
v -0.01557419 0.02650650 0.01672673
v -0.01562514 0.02642928 0.01568201
v -0.01660757 0.01002846 0.01702829
v -0.01907252 0.01114409 0.01752344
v -0.01582898 0.01002846 0.01664923
v -0.01583135 0.01002846 0.01673124
v -0.01582898 0.01002846 0.01668095
v -0.01419832 0.01242073 0.01568201
v -0.01379065 0.01600584 0.01752344
v -0.01427298 0.02680225 0.01752344
v -0.01427298 0.02681375 0.01672475
v -0.01427298 0.02678418 0.01568201
v -0.01444244 0.02674310 0.01568201
v -0.01551967 0.02647364 0.01568201
v -0.01787323 0.01152363 0.01752344
v -0.01379065 0.01516953 0.01568201
v -0.01379065 0.02678911 0.01752344
v -0.01379065 0.02679568 0.01672475
v -0.01379065 0.02679075 0.01630657
v -0.01379065 0.02678911 0.01624367
v -0.01379065 0.02677432 0.01568201
f 1 2 3
f 1 3 4
f 1 4 5
f 1 5 13
f 1 13 19
f 1 19 17
f 1 17 26
f 1 26 33
f 1 33 45
f 1 45 44
f 1 44 43
f 1 43 52
f 1 52 47
f 1 47 39
f 1 39 30
f 1 30 22
f 1 22 15
f 1 15 11
f 1 11 10
f 1 10 9
f 1 9 8
f 1 8 6
f 1 6 2
f 2 7 14
f 2 14 21
f 2 21 28
f 2 28 35
f 2 35 46
f 2 46 40
f 2 40 48
f 2 48 41
f 2 41 31
f 2 31 23
f 2 23 16
f 2 16 12
f 2 12 3
f 2 6 8
f 2 8 9
f 2 9 10
f 2 10 11
f 2 11 7
f 3 12 4
f 4 12 13
f 4 13 5
f 7 11 15
f 7 15 14
f 12 16 17
f 12 17 18
f 12 18 19
f 12 19 13
f 14 15 20
f 14 20 21
f 15 22 29
f 15 29 36
f 15 36 38
f 15 38 37
f 15 37 34
f 15 34 27
f 15 27 20
f 16 23 24
f 16 24 17
f 17 19 18
f 17 24 25
f 17 25 26
f 20 27 21
f 21 27 28
f 22 30 29
f 23 31 24
f 24 31 32
f 24 32 25
f 25 32 33
f 25 33 26
f 27 34 28
f 28 34 35
f 29 30 36
f 30 37 38
f 30 38 36
f 30 39 40
f 30 40 37
f 31 41 42
f 31 42 32
f 32 42 43
f 32 43 44
f 32 44 45
f 32 45 33
f 34 46 35
f 34 37 40
f 34 40 46
f 39 47 40
f 40 47 52
f 40 52 51
f 40 51 50
f 40 50 49
f 40 49 48
f 41 48 42
f 42 48 49
f 42 49 50
f 42 50 51
f 42 51 52
f 42 52 43

