# https://github.com/mikedh/trimesh
v 0.04611339 0.04173049 -0.01991046
v 0.04616478 0.04242502 -0.01990214
v 0.04641226 0.04242502 -0.01990214
v 0.04698063 0.04118208 -0.01989381
v 0.04752278 0.04061026 -0.01987623
v 0.04446701 0.03762594 -0.01951917
v 0.04452888 0.04122509 -0.01965700
v 0.04452888 0.04242502 -0.01967643
v 0.04446701 0.04248637 -0.01966718
v 0.04632522 0.04302593 -0.01987531
v 0.04632941 0.04302593 -0.01987531
v 0.04753641 0.04063303 -0.01987623
v 0.04753641 0.04061026 -0.01987623
v 0.04731619 0.03723756 -0.01954692
v 0.05091516 0.03723756 -0.01959502
v 0.04446701 0.03725781 -0.01948124
v 0.04446701 0.04122509 -0.01963665
v 0.04446701 0.04128581 -0.01963850
v 0.04446701 0.04368630 -0.01950530
v 0.04446701 0.04369895 -0.01950160
v 0.04572644 0.04369895 -0.01930919
v 0.04579146 0.04369895 -0.01926571
v 0.04655487 0.04323910 -0.01927496
v 0.05266221 0.03738115 -0.01898080
v 0.05271884 0.03723756 -0.01902613
v 0.05229099 0.03723756 -0.01924906
v 0.05178449 0.03723756 -0.01939244
v 0.04446701 0.03723756 -0.01947847
v 0.04446701 0.04369895 -0.01056207
v 0.04627279 0.04369895 -0.01856639
v 0.05242207 0.04071083 -0.01274145
v 0.05366052 0.03956088 -0.01276828
v 0.04786883 0.04213531 -0.01895582
v 0.04905905 0.04096385 -0.01895028
v 0.05483816 0.03834514 -0.01275255
v 0.05285831 0.03723756 -0.01872827
v 0.04446701 0.03723756 -0.01794847
v 0.04450581 0.04369895 -0.01055838
v 0.04446701 0.04348832 -0.01070731
v 0.05298729 0.03723756 -0.01242602
v 0.05412717 0.03723756 -0.01210595
v 0.04644476 0.04369895 -0.01807427
v 0.05104938 0.04179754 -0.01250279
v 0.05116684 0.04185004 -0.01170264
v 0.05242207 0.04071083 -0.01238254
v 0.05366052 0.03956088 -0.01246394
v 0.05483816 0.03834514 -0.01247782
v 0.05506152 0.03762594 -0.01288298
v 0.05517897 0.03723756 -0.01295606
v 0.04446701 0.03828631 -0.01529454
v 0.05251435 0.03723756 -0.01265728
v 0.04572854 0.04369895 -0.01046125
v 0.04446701 0.04274698 -0.01122902
v 0.04446701 0.03885180 -0.01446016
v 0.04446701 0.03881702 -0.01449347
v 0.05517897 0.03723756 -0.01233074
v 0.05412717 0.03762594 -0.01204028
v 0.04589318 0.04369895 -0.01047050
v 0.04662933 0.04369895 -0.01527327
v 0.05116684 0.04185004 -0.01145566
v 0.04666918 0.04369895 -0.01447589
v 0.05506152 0.03762594 -0.01233814
v 0.05116684 0.04174188 -0.01145566
v 0.04660626 0.04369895 -0.01086826
v 0.04661150 0.04369895 -0.01098944
f 1 2 3
f 1 3 4
f 1 4 5
f 1 5 6
f 1 6 7
f 1 7 8
f 1 8 9
f 1 9 2
f 2 10 11
f 2 11 3
f 2 9 10
f 3 11 12
f 3 12 4
f 4 12 13
f 4 13 5
f 5 14 6
f 5 13 15
f 5 15 14
f 6 16 28
f 6 28 37
f 6 37 50
f 6 50 55
f 6 55 54
f 6 54 53
f 6 53 39
f 6 39 29
f 6 29 20
f 6 20 19
f 6 19 9
f 6 9 18
f 6 18 17
f 6 17 7
f 6 14 16
f 7 17 18
f 7 18 9
f 7 9 8
f 9 19 10
f 10 19 20
f 10 20 11
f 11 20 21
f 11 21 22
f 11 22 23
f 11 23 24
f 11 24 25
f 11 25 26
f 11 26 27
f 11 27 15
f 11 15 12
f 12 15 13
f 14 28 16
f 14 15 27
f 14 27 26
f 14 26 25
f 14 25 36
f 14 36 49
f 14 49 56
f 14 56 41
f 14 41 40
f 14 40 51
f 14 51 37
f 14 37 28
f 20 29 38
f 20 38 52
f 20 52 58
f 20 58 64
f 20 64 65
f 20 65 61
f 20 61 59
f 20 59 42
f 20 42 30
f 20 30 22
f 20 22 21
f 22 30 23
f 23 30 31
f 23 31 32
f 23 32 33
f 23 33 34
f 23 34 24
f 24 34 32
f 24 32 35
f 24 35 36
f 24 36 25
f 29 39 40
f 29 40 41
f 29 41 38
f 30 42 43
f 30 43 31
f 31 43 44
f 31 44 60
f 31 60 45
f 31 45 46
f 31 46 32
f 32 46 47
f 32 47 35
f 32 34 33
f 35 47 62
f 35 62 48
f 35 48 36
f 36 48 49
f 37 51 50
f 38 41 52
f 39 53 40
f 40 53 54
f 40 54 55
f 40 55 51
f 41 56 57
f 41 57 58
f 41 58 52
f 42 59 44
f 42 44 43
f 44 59 61
f 44 61 60
f 45 60 46
f 46 60 47
f 47 60 62
f 48 62 56
f 48 56 49
f 50 51 55
f 56 62 60
f 56 60 57
f 57 60 63
f 57 63 58
f 58 63 60
f 58 60 64
f 60 61 65
f 60 65 64

