# https://github.com/mikedh/trimesh
v -0.01380694 0.00282667 0.01792494
v -0.01370992 0.00341962 0.02186858
v -0.01370992 0.00364127 0.02186858
v -0.01375053 0.00371750 0.01752344
v -0.01378325 0.00282667 0.01752344
v -0.01374602 0.00237209 0.01752344
v -0.01371218 0.00198667 0.01752344
v -0.01372459 0.00190338 0.01792494
v -0.01373699 0.00183702 0.01912522
v -0.01372007 0.00195702 0.02002351
v -0.01370541 0.00326997 0.02186858
v -0.01023536 0.01515565 0.02186858
v -0.00964762 0.01515565 0.01752344
v -0.01335118 0.00073584 0.01752344
v -0.01338051 0.00073584 0.01766507
v -0.01343354 0.00073584 0.01792494
v -0.01348092 0.00073584 0.01912522
v -0.01344594 0.00073584 0.01946123
v -0.01335231 0.00073584 0.02034038
v -0.01324966 0.00073584 0.02063385
v -0.01273185 0.00073584 0.02174481
v -0.01272734 0.00086855 0.02186858
v -0.00228336 0.01515565 0.02186858
v -0.00228336 0.01515565 0.01752344
v -0.00228336 0.00073584 0.01752344
v -0.01258182 0.00073584 0.02186858
v -0.00228336 0.00342950 0.02186858
v -0.00228336 0.00073584 0.01880537
v -0.00985970 0.00073584 0.02186858
v -0.00251011 0.00102385 0.02186858
v -0.00228336 0.00102102 0.02186433
f 1 2 3
f 1 3 4
f 1 4 5
f 1 5 6
f 1 6 7
f 1 7 8
f 1 8 9
f 1 9 10
f 1 10 2
f 2 10 11
f 2 11 22
f 2 22 26
f 2 26 29
f 2 29 30
f 2 30 27
f 2 27 23
f 2 23 12
f 2 12 3
f 3 12 4
f 4 12 13
f 4 13 24
f 4 24 25
f 4 25 14
f 4 14 7
f 4 7 6
f 4 6 5
f 7 14 15
f 7 15 16
f 7 16 8
f 8 16 17
f 8 17 9
f 9 17 10
f 10 17 18
f 10 18 19
f 10 19 11
f 11 19 20
f 11 20 21
f 11 21 22
f 12 23 24
f 12 24 13
f 14 25 28
f 14 28 29
f 14 29 26
f 14 26 21
f 14 21 20
f 14 20 19
f 14 19 18
f 14 18 17
f 14 17 16
f 14 16 15
f 21 26 22
f 23 27 31
f 23 31 28
f 23 28 25
f 23 25 24
f 27 30 31
f 28 31 29
f 29 31 30

