# https://github.com/mikedh/trimesh
v -0.04135028 0.02154202 0.01018065
v -0.04135028 0.02154202 0.01046371
v -0.04134011 0.02154202 0.00970967
v -0.04009412 0.00282718 0.00918432
v -0.04004638 0.00210383 0.00918432
v -0.04116518 0.02154202 0.01108700
v -0.04126536 0.02154202 0.00918432
v -0.04001233 0.00173036 0.00918432
v -0.04115932 0.02154202 0.01110528
v -0.03846150 0.02154202 0.00918432
v -0.03996068 0.00146303 0.00918432
v -0.03984054 0.00146303 0.00945637
v -0.04044553 0.02082457 0.01156268
v -0.04057467 0.02154202 0.01149378
v -0.03919328 0.00146303 0.01051503
v -0.03864229 0.00146303 0.01111512
v -0.03804200 0.00146303 0.01156385
v -0.03796295 0.01879406 0.00918432
v -0.03992820 0.02154202 0.01147691
v -0.03887201 0.01902404 0.01132484
v -0.03763228 0.01437531 0.01135858
v -0.03842433 0.00146303 0.00918432
v -0.03981393 0.02082457 0.01156268
v -0.03809365 0.00282718 0.01157533
v -0.03816214 0.00402622 0.01157791
v -0.03739905 0.00146303 0.01156385
v -0.03804396 0.00162618 0.01156525
v -0.03745423 0.01362443 0.01072474
v -0.03735248 0.01242540 0.01072474
v -0.03752740 0.01242540 0.00986338
v -0.03787295 0.01242540 0.00926352
v -0.03792343 0.01242146 0.00918432
v -0.03877339 0.01842452 0.01142724
v -0.03754697 0.01362443 0.01141740
v -0.03773402 0.00146303 0.01019658
v -0.03864856 0.01722352 0.01150152
v -0.03742566 0.00402622 0.01157791
v -0.03745423 0.00522723 0.01156783
v -0.03740374 0.00282718 0.01157533
v -0.03739905 0.00146303 0.01079645
v -0.03739787 0.00162618 0.01156525
v -0.03739787 0.00162618 0.01079809
v -0.03749766 0.01242540 0.01145137
f 1 2 6
f 1 6 9
f 1 9 14
f 1 14 19
f 1 19 10
f 1 10 7
f 1 7 3
f 1 3 4
f 1 4 5
f 1 5 2
f 2 5 6
f 3 7 4
f 4 7 10
f 4 10 18
f 4 18 32
f 4 32 22
f 4 22 11
f 4 11 8
f 4 8 5
f 5 8 9
f 5 9 6
f 8 11 12
f 8 12 9
f 9 13 14
f 9 12 15
f 9 15 16
f 9 16 17
f 9 17 13
f 10 19 20
f 10 20 21
f 10 21 18
f 11 22 35
f 11 35 40
f 11 40 26
f 11 26 17
f 11 17 16
f 11 16 15
f 11 15 12
f 13 23 14
f 13 17 24
f 13 24 25
f 13 25 37
f 13 37 23
f 14 23 19
f 17 26 41
f 17 41 27
f 17 27 24
f 18 28 29
f 18 29 30
f 18 30 31
f 18 31 32
f 18 21 28
f 19 23 33
f 19 33 20
f 20 33 21
f 21 34 28
f 21 33 34
f 22 32 35
f 23 36 33
f 23 37 38
f 23 38 36
f 24 39 37
f 24 37 25
f 24 27 41
f 24 41 39
f 26 40 42
f 26 42 41
f 28 34 29
f 29 42 40
f 29 40 30
f 29 34 43
f 29 43 39
f 29 39 41
f 29 41 42
f 30 40 35
f 30 35 31
f 31 35 32
f 33 36 34
f 34 36 43
f 36 38 43
f 37 39 43
f 37 43 38

