# https://github.com/mikedh/trimesh
v 0.02287289 -0.05751318 -0.01647851
v 0.02287289 -0.05672764 -0.01932357
v 0.02331448 -0.05661838 -0.01991225
v 0.03073238 -0.05719306 -0.01807524
v 0.02292828 -0.05751318 -0.01647851
v 0.02287289 -0.04828548 -0.01647851
v 0.02287289 -0.05627641 -0.01985244
v 0.02308215 -0.05597377 -0.01993084
v 0.02361991 -0.05661838 -0.01991225
v 0.03073238 -0.05690463 -0.01913872
v 0.03073238 -0.05705649 -0.01858485
v 0.03073238 -0.05735258 -0.01647851
v 0.03012768 -0.05741703 -0.01647851
v 0.02637258 -0.05020291 -0.01647851
v 0.02765813 -0.04635275 -0.01648560
v 0.02647951 -0.04635275 -0.01655454
v 0.02639258 -0.04635275 -0.01656299
v 0.02559324 -0.04635275 -0.01667822
v 0.02535091 -0.04635275 -0.01671405
v 0.02287289 -0.04635275 -0.01733449
v 0.02287289 -0.05597377 -0.01988488
v 0.02375224 -0.05597377 -0.01993084
v 0.02314831 -0.05523521 -0.01991191
v 0.02732886 -0.05661620 -0.01990921
v 0.03073238 -0.05645668 -0.01939589
v 0.03073238 -0.05569408 -0.01647851
v 0.02863518 -0.04635275 -0.01658225
v 0.02287289 -0.04635275 -0.01940535
v 0.02732886 -0.05642828 -0.01990921
v 0.02373454 -0.05523521 -0.01991191
v 0.03073238 -0.05597377 -0.01966083
v 0.03073238 -0.04635275 -0.01680225
v 0.02895445 -0.04635275 -0.01661537
v 0.03073238 -0.04635275 -0.01937156
v 0.03073238 -0.04697988 -0.01939893
f 1 2 3
f 1 3 4
f 1 4 5
f 1 5 13
f 1 13 12
f 1 12 26
f 1 26 14
f 1 14 6
f 1 6 20
f 1 20 28
f 1 28 21
f 1 21 7
f 1 7 2
f 2 7 3
f 3 7 8
f 3 8 22
f 3 22 9
f 3 9 10
f 3 10 11
f 3 11 4
f 4 12 13
f 4 13 5
f 4 11 10
f 4 10 25
f 4 25 31
f 4 31 35
f 4 35 34
f 4 34 32
f 4 32 26
f 4 26 12
f 6 14 15
f 6 15 16
f 6 16 17
f 6 17 18
f 6 18 19
f 6 19 20
f 7 21 8
f 8 21 23
f 8 23 30
f 8 30 22
f 9 22 24
f 9 24 10
f 10 24 25
f 14 26 15
f 15 27 33
f 15 33 32
f 15 32 34
f 15 34 28
f 15 28 20
f 15 20 19
f 15 19 18
f 15 18 17
f 15 17 16
f 15 26 27
f 21 28 23
f 22 29 24
f 22 30 29
f 23 28 30
f 24 29 31
f 24 31 25
f 26 32 33
f 26 33 27
f 28 34 30
f 29 30 34
f 29 34 35
f 29 35 31

