# https://github.com/mikedh/trimesh
v 0.02217263 0.04369958 -0.01943500
v 0.02285446 0.04369958 -0.01949623
v 0.02217263 0.04369958 -0.01731413
v 0.02217263 0.04842585 -0.01955321
v 0.02292838 0.04369958 -0.01950162
v 0.02617563 0.04369958 -0.01626602
v 0.02217263 0.04620455 -0.01572501
v 0.02525460 0.04369958 -0.01957054
v 0.02217263 0.05562421 -0.01956900
v 0.02412845 0.05562421 -0.01965217
v 0.02652776 0.04369958 -0.01618169
v 0.02757501 0.04369958 -0.01595297
v 0.02761322 0.04369958 -0.01594527
v 0.02892208 0.04369958 -0.01577584
v 0.02408692 0.04776809 -0.01572501
v 0.02217263 0.05768655 -0.01572501
v 0.03065699 0.04429704 -0.01954744
v 0.03065699 0.04369958 -0.01953358
v 0.02532852 0.05562421 -0.01965833
v 0.03065699 0.05562421 -0.01964332
v 0.02217263 0.05646833 -0.01927097
v 0.02217263 0.05687943 -0.01912349
v 0.02292838 0.05676706 -0.01919203
v 0.02900264 0.04369958 -0.01577815
v 0.03065699 0.05497604 -0.01572501
v 0.03065699 0.05711376 -0.01572501
v 0.03065699 0.05739468 -0.01740808
v 0.03065699 0.05740838 -0.01752552
v 0.02217263 0.05769889 -0.01707001
v 0.03065699 0.04369958 -0.01589598
v 0.03012796 0.05673006 -0.01921514
v 0.03065699 0.05624223 -0.01940728
v 0.02217263 0.05741112 -0.01867799
v 0.03019191 0.04369958 -0.01582667
v 0.03065699 0.04724189 -0.01583784
v 0.03065699 0.05740838 -0.01754978
v 0.02217263 0.05769889 -0.01733723
v 0.03065699 0.05669444 -0.01920359
v 0.02217263 0.05742208 -0.01866066
v 0.03023925 0.05727271 -0.01796564
v 0.03065699 0.05724120 -0.01796564
v 0.02217263 0.05755774 -0.01819128
v 0.02217263 0.05759611 -0.01803957
f 1 2 5
f 1 5 8
f 1 8 18
f 1 18 30
f 1 30 34
f 1 34 24
f 1 24 14
f 1 14 13
f 1 13 12
f 1 12 11
f 1 11 6
f 1 6 3
f 1 3 7
f 1 7 16
f 1 16 29
f 1 29 37
f 1 37 43
f 1 43 42
f 1 42 39
f 1 39 33
f 1 33 22
f 1 22 21
f 1 21 9
f 1 9 4
f 1 4 2
f 2 4 5
f 3 6 7
f 4 8 5
f 4 9 10
f 4 10 8
f 6 11 7
f 7 11 12
f 7 12 13
f 7 13 14
f 7 14 15
f 7 15 25
f 7 25 26
f 7 26 16
f 8 17 18
f 8 10 19
f 8 19 20
f 8 20 17
f 9 21 10
f 10 21 22
f 10 22 23
f 10 23 19
f 14 24 25
f 14 25 15
f 16 26 27
f 16 27 28
f 16 28 29
f 17 20 32
f 17 32 38
f 17 38 41
f 17 41 36
f 17 36 28
f 17 28 27
f 17 27 26
f 17 26 25
f 17 25 35
f 17 35 30
f 17 30 18
f 19 23 31
f 19 31 32
f 19 32 20
f 22 33 31
f 22 31 23
f 24 34 25
f 25 34 35
f 28 36 37
f 28 37 29
f 30 35 34
f 31 38 32
f 31 33 39
f 31 39 40
f 31 40 41
f 31 41 38
f 36 41 40
f 36 40 39
f 36 39 42
f 36 42 43
f 36 43 37

