# https://github.com/mikedh/trimesh
v -0.01611237 0.01527495 -0.02026911
v -0.01611237 0.01330486 -0.01971122
v -0.01611237 0.01527495 -0.02195382
v -0.02183458 0.01527495 -0.01617014
v -0.01611237 0.01295012 -0.01964194
v -0.01611237 0.01362441 -0.02206724
v -0.02267334 0.01527495 -0.02206846
v -0.02230801 0.01527495 -0.01613274
v -0.02191472 0.01482494 -0.01617259
v -0.01611237 0.01179064 -0.01956592
v -0.01611237 0.01244294 -0.01955059
v -0.01611237 0.01311283 -0.02208747
v -0.02267334 0.01362441 -0.02208256
v -0.02312440 0.01527495 -0.02197282
v -0.01611237 0.00282554 -0.02236212
v -0.02267334 0.01527495 -0.01613274
v -0.02267334 0.01482494 -0.01611373
v -0.02200046 0.01404511 -0.01621857
v -0.01611237 0.00030283 -0.02090118
v -0.02746173 0.00038345 -0.01616523
v -0.02680749 0.00075431 -0.01620999
v -0.02267334 0.00522659 -0.02201390
v -0.03515409 0.00162648 -0.01940223
v -0.03466761 0.01527495 -0.01942614
v -0.01611237 0.00030283 -0.02232411
v -0.01639195 0.00030283 -0.02231798
v -0.03515409 0.01527495 -0.01773652
v -0.03515409 0.01299703 -0.01682490
v -0.03515409 0.01242535 -0.01663668
v -0.03227062 0.01080853 -0.01619956
v -0.03227062 0.01002430 -0.01609902
v -0.02694729 0.00030283 -0.01627436
v -0.03515409 0.00129520 -0.01615542
v -0.03116532 0.00034387 -0.01616401
v -0.03114295 0.00030283 -0.01616646
v -0.02751205 0.00030283 -0.01617504
v -0.02738344 0.00030283 -0.01619527
v -0.02267334 0.00030283 -0.02193604
v -0.03515409 0.00042596 -0.01933970
v -0.03515409 0.01527495 -0.01926613
v -0.03310192 0.01002430 -0.01617198
v -0.03294908 0.01070005 -0.01623574
v -0.03515409 0.00089209 -0.01622961
v -0.03467133 0.00030283 -0.01634793
v -0.03515409 0.00030283 -0.01932069
v -0.03515409 0.00030283 -0.01640494
f 1 2 5
f 1 5 11
f 1 11 10
f 1 10 19
f 1 19 25
f 1 25 15
f 1 15 12
f 1 12 6
f 1 6 3
f 1 3 7
f 1 7 14
f 1 14 24
f 1 24 40
f 1 40 27
f 1 27 16
f 1 16 8
f 1 8 4
f 1 4 2
f 2 4 5
f 3 6 7
f 4 8 9
f 4 9 10
f 4 10 11
f 4 11 5
f 6 12 7
f 7 13 14
f 7 12 15
f 7 15 13
f 8 16 17
f 8 17 9
f 9 18 19
f 9 19 10
f 9 17 20
f 9 20 21
f 9 21 18
f 13 22 23
f 13 23 24
f 13 24 14
f 13 15 22
f 15 25 26
f 15 26 22
f 16 27 28
f 16 28 29
f 16 29 30
f 16 30 31
f 16 31 17
f 17 31 20
f 18 21 19
f 19 21 32
f 19 32 37
f 19 37 36
f 19 36 35
f 19 35 44
f 19 44 46
f 19 46 45
f 19 45 38
f 19 38 26
f 19 26 25
f 20 31 33
f 20 33 34
f 20 34 35
f 20 35 36
f 20 36 37
f 20 37 21
f 21 37 32
f 22 26 38
f 22 38 23
f 23 39 45
f 23 45 46
f 23 46 43
f 23 43 33
f 23 33 29
f 23 29 28
f 23 28 27
f 23 27 40
f 23 40 24
f 23 38 39
f 29 33 41
f 29 41 42
f 29 42 30
f 30 42 31
f 31 42 41
f 31 41 33
f 33 43 35
f 33 35 34
f 35 43 44
f 38 45 39
f 43 46 44

