# https://github.com/mikedh/trimesh
v 0.05062365 -0.03424189 -0.01333575
v 0.05070795 -0.03424189 -0.01430167
v 0.05064786 -0.03424189 -0.01326144
v 0.05306578 -0.02434387 -0.01570745
v 0.05092948 -0.03424189 -0.01459888
v 0.05283708 -0.02598320 -0.01570745
v 0.05069898 -0.03424189 -0.01314701
v 0.05350703 -0.02772621 -0.01264967
v 0.05312766 -0.02434387 -0.01561905
v 0.05943254 -0.02434387 -0.01570745
v 0.05099764 -0.03424189 -0.01258079
v 0.05159315 -0.03424189 -0.01515642
v 0.05310166 -0.03424189 -0.01570745
v 0.05180480 -0.03424189 -0.01532184
v 0.05422541 -0.02845384 -0.01191587
v 0.05416443 -0.02726599 -0.01242948
v 0.05458864 -0.02645408 -0.01259055
v 0.05378865 -0.02692689 -0.01292302
v 0.05403976 -0.02434387 -0.01454248
v 0.05157162 -0.03424189 -0.01193377
v 0.05158507 -0.03424189 -0.01191912
v 0.05217341 -0.03424189 -0.01137840
v 0.05965496 -0.02435065 -0.01570745
v 0.05899398 -0.02434387 -0.01522747
v 0.05588728 -0.03424189 -0.01570745
v 0.05468998 -0.02890630 -0.01145596
v 0.05541464 -0.02434387 -0.01364814
v 0.05437070 -0.02434387 -0.01431795
v 0.05532765 -0.02820193 -0.01163222
v 0.05532765 -0.02717492 -0.01211112
v 0.05285143 -0.03424189 -0.01102641
v 0.05969173 -0.02473529 -0.01570745
v 0.05968456 -0.02506955 -0.01493893
v 0.05978590 -0.02597545 -0.01477189
v 0.05687472 -0.02434387 -0.01401802
v 0.05591688 -0.03424189 -0.01562555
v 0.05601912 -0.03396673 -0.01570745
v 0.05957693 -0.02783957 -0.01512117
v 0.05963075 -0.02906132 -0.01399416
v 0.05532765 -0.02957385 -0.01118478
v 0.05532765 -0.02880166 -0.01140769
v 0.05288551 -0.03424189 -0.01101068
v 0.05403976 -0.03424189 -0.01049111
v 0.05460927 -0.03424189 -0.01024977
v 0.05563078 -0.03339413 -0.01018468
v 0.05598414 -0.03259481 -0.01029912
v 0.05568639 -0.02434387 -0.01364814
v 0.05619131 -0.02881329 -0.01140443
v 0.05627472 -0.02434387 -0.01369532
v 0.05978590 -0.02597545 -0.01549376
v 0.05969442 -0.02578846 -0.01570745
v 0.05648997 -0.02434387 -0.01380054
v 0.05840206 -0.03007767 -0.01141419
v 0.05954286 -0.02895377 -0.01266323
v 0.05968815 -0.02848193 -0.01330266
v 0.05975721 -0.02715360 -0.01443346
v 0.05858053 -0.03168794 -0.01169893
v 0.05858053 -0.03168794 -0.01123685
v 0.05611329 -0.03400840 -0.01018468
v 0.05578773 -0.03424189 -0.01060826
v 0.05914376 -0.02731444 -0.01570745
v 0.05970429 -0.02717492 -0.01526272
v 0.05970788 -0.02829397 -0.01442641
v 0.05961730 -0.02905260 -0.01327500
v 0.05678414 -0.03247467 -0.01024597
v 0.05719310 -0.03247467 -0.01024597
v 0.05534289 -0.03424189 -0.01016679
v 0.05772763 -0.02985386 -0.01130030
v 0.05772763 -0.03077429 -0.01093259
v 0.05947201 -0.02653352 -0.01570745
v 0.05857246 -0.03077429 -0.01125040
v 0.05954286 -0.02899253 -0.01266323
v 0.05719310 -0.03266166 -0.01024597
v 0.05553392 -0.03424189 -0.01017058
v 0.05920385 -0.02717492 -0.01570745
f 1 2 5
f 1 5 12
f 1 12 14
f 1 14 13
f 1 13 25
f 1 25 36
f 1 36 60
f 1 60 74
f 1 74 67
f 1 67 44
f 1 44 43
f 1 43 42
f 1 42 31
f 1 31 22
f 1 22 21
f 1 21 20
f 1 20 11
f 1 11 7
f 1 7 3
f 1 3 4
f 1 4 2
f 2 4 6
f 2 6 5
f 3 7 4
f 4 8 9
f 4 9 19
f 4 19 28
f 4 28 27
f 4 27 47
f 4 47 49
f 4 49 52
f 4 52 35
f 4 35 24
f 4 24 10
f 4 10 23
f 4 23 32
f 4 32 51
f 4 51 70
f 4 70 75
f 4 75 61
f 4 61 37
f 4 37 25
f 4 25 13
f 4 13 6
f 4 7 11
f 4 11 8
f 5 6 12
f 6 13 14
f 6 14 12
f 8 15 16
f 8 16 17
f 8 17 18
f 8 18 19
f 8 19 9
f 8 11 20
f 8 20 21
f 8 21 22
f 8 22 15
f 10 24 23
f 15 26 16
f 15 22 26
f 16 26 17
f 17 27 28
f 17 28 19
f 17 19 18
f 17 26 29
f 17 29 30
f 17 30 27
f 22 31 26
f 23 24 33
f 23 33 34
f 23 34 32
f 24 35 33
f 25 37 38
f 25 38 39
f 25 39 36
f 26 40 41
f 26 41 29
f 26 31 42
f 26 42 43
f 26 43 44
f 26 44 45
f 26 45 46
f 26 46 40
f 27 30 47
f 29 41 48
f 29 48 30
f 30 48 49
f 30 49 47
f 32 34 50
f 32 50 51
f 33 35 52
f 33 52 49
f 33 49 53
f 33 53 54
f 33 54 34
f 34 54 55
f 34 55 56
f 34 56 50
f 36 57 58
f 36 58 59
f 36 59 60
f 36 39 57
f 37 61 38
f 38 61 62
f 38 62 63
f 38 63 39
f 39 63 55
f 39 55 64
f 39 64 58
f 39 58 57
f 40 46 65
f 40 65 41
f 41 65 66
f 41 66 48
f 44 67 45
f 45 67 59
f 45 59 66
f 45 66 65
f 45 65 46
f 48 68 49
f 48 66 69
f 48 69 68
f 49 68 53
f 50 56 63
f 50 63 62
f 50 62 51
f 51 62 70
f 53 68 69
f 53 69 71
f 53 71 54
f 54 71 58
f 54 58 72
f 54 72 55
f 55 72 64
f 55 63 56
f 58 64 72
f 58 71 66
f 58 66 73
f 58 73 59
f 59 67 74
f 59 74 60
f 59 73 66
f 61 75 62
f 62 75 70
f 66 71 69

