# https://github.com/mikedh/trimesh
v 0.02532855 -0.02357503 -0.02389451
v 0.02892851 -0.02717463 -0.02383740
v 0.02529954 -0.02723788 -0.02367654
v 0.02523880 -0.02721152 -0.02367494
v 0.02523880 -0.02357503 -0.02387923
v 0.02532492 -0.02341764 -0.02387520
v 0.02997105 -0.02341764 -0.02382453
v 0.03012789 -0.02357503 -0.02383177
v 0.03012789 -0.02477464 -0.02389290
v 0.02892851 -0.02800976 -0.02367574
v 0.02772822 -0.02806473 -0.02370469
v 0.03012789 -0.02597501 -0.02386153
v 0.03018500 -0.02723261 -0.02368539
v 0.02652883 -0.02801051 -0.02365724
v 0.02567939 -0.02789680 -0.02357038
v 0.02523880 -0.02777631 -0.02346743
v 0.02523880 -0.02348466 -0.02386234
v 0.02524333 -0.02341764 -0.02385590
v 0.03011066 -0.02341764 -0.02379799
v 0.03091660 -0.02341764 -0.02360738
v 0.03095014 -0.02357503 -0.02362829
v 0.03107071 -0.02477464 -0.02369183
v 0.02982419 -0.02789304 -0.02358486
v 0.03449933 -0.03044062 -0.02012643
v 0.03449933 -0.03111008 -0.01947094
v 0.02784426 -0.03111008 -0.01960686
v 0.02666482 -0.03111008 -0.01958193
v 0.02523880 -0.03111008 -0.01953287
v 0.03252756 -0.03111008 -0.01962617
v 0.03012789 -0.03111008 -0.01963743
v 0.03100997 -0.02597501 -0.02366770
v 0.03086855 -0.02687114 -0.02358647
v 0.02523880 -0.02341764 -0.02233339
v 0.03449933 -0.02341764 -0.02130953
v 0.03449933 -0.02438757 -0.02132723
v 0.03449933 -0.02716032 -0.02122750
v 0.03062378 -0.02767013 -0.02336851
v 0.03449933 -0.02957385 -0.02063796
v 0.03449933 -0.03012433 -0.02032348
v 0.03449933 -0.03111008 -0.01730339
v 0.02523880 -0.03111008 -0.01791706
v 0.03449933 -0.02826053 -0.02106664
v 0.03449933 -0.02928091 -0.02076021
v 0.02523880 -0.02341764 -0.02199077
v 0.03449933 -0.02341764 -0.01714253
v 0.03449933 -0.02837424 -0.01705567
v 0.03169624 -0.02955653 -0.01567874
v 0.03159289 -0.02984796 -0.01567874
v 0.03120307 -0.03071473 -0.01567874
v 0.03014783 -0.03103854 -0.01567874
v 0.02972719 -0.03111008 -0.01567874
v 0.02532855 -0.03001815 -0.01567874
v 0.02523880 -0.02994586 -0.01567874
v 0.02676636 -0.03111008 -0.01567874
v 0.02523880 -0.02533642 -0.01612511
v 0.02564131 -0.02515795 -0.01567874
v 0.02797117 -0.02341764 -0.01689723
v 0.02892851 -0.02341764 -0.01652002
v 0.02892851 -0.02413154 -0.01567874
v 0.02925759 -0.02416919 -0.01567874
v 0.02992935 -0.02465792 -0.01567874
v 0.02994658 -0.02469557 -0.01567874
v 0.02523880 -0.02555405 -0.01567874
v 0.02652883 -0.02479121 -0.01567874
v 0.02688511 -0.02468051 -0.01567874
v 0.02819600 -0.02341764 -0.01680634
v 0.02779984 -0.02439887 -0.01567874
v 0.02778986 -0.02440188 -0.01567874
f 1 2 3
f 1 3 4
f 1 4 5
f 1 5 6
f 1 6 7
f 1 7 8
f 1 8 9
f 1 9 2
f 2 10 11
f 2 11 3
f 2 9 12
f 2 12 13
f 2 13 10
f 3 11 14
f 3 14 4
f 4 14 15
f 4 15 16
f 4 16 28
f 4 28 41
f 4 41 53
f 4 53 63
f 4 63 55
f 4 55 44
f 4 44 33
f 4 33 17
f 4 17 5
f 5 17 18
f 5 18 6
f 6 18 33
f 6 33 44
f 6 44 57
f 6 57 66
f 6 66 58
f 6 58 45
f 6 45 34
f 6 34 20
f 6 20 19
f 6 19 7
f 7 19 8
f 8 19 20
f 8 20 21
f 8 21 22
f 8 22 9
f 9 22 12
f 10 13 23
f 10 23 24
f 10 24 25
f 10 25 11
f 11 26 27
f 11 27 28
f 11 28 14
f 11 25 29
f 11 29 30
f 11 30 26
f 12 22 31
f 12 31 32
f 12 32 13
f 13 32 23
f 14 28 15
f 15 28 16
f 17 33 18
f 20 34 21
f 21 34 22
f 22 34 35
f 22 35 36
f 22 36 31
f 23 32 37
f 23 37 38
f 23 38 39
f 23 39 24
f 24 39 38
f 24 38 43
f 24 43 42
f 24 42 36
f 24 36 35
f 24 35 34
f 24 34 45
f 24 45 46
f 24 46 40
f 24 40 25
f 25 40 51
f 25 51 54
f 25 54 41
f 25 41 28
f 25 28 27
f 25 27 26
f 25 26 30
f 25 30 29
f 31 36 42
f 31 42 32
f 32 42 43
f 32 43 38
f 32 38 37
f 40 46 47
f 40 47 48
f 40 48 49
f 40 49 50
f 40 50 51
f 41 52 53
f 41 54 52
f 44 55 56
f 44 56 57
f 45 58 59
f 45 59 60
f 45 60 61
f 45 61 62
f 45 62 47
f 45 47 46
f 47 62 61
f 47 61 60
f 47 60 59
f 47 59 67
f 47 67 68
f 47 68 65
f 47 65 64
f 47 64 56
f 47 56 63
f 47 63 53
f 47 53 52
f 47 52 54
f 47 54 51
f 47 51 50
f 47 50 49
f 47 49 48
f 55 63 56
f 56 64 57
f 57 64 65
f 57 65 66
f 58 66 67
f 58 67 59
f 65 68 66
f 66 68 67

