# https://github.com/mikedh/trimesh
v -0.03073524 -0.02628633 0.00335016
v -0.03073524 -0.02628633 0.00883653
v -0.03073524 -0.02222760 0.00335016
v -0.02312429 -0.02628633 0.00335016
v -0.03073524 -0.02164357 0.00716563
v -0.03010043 -0.02628633 0.00881606
v -0.02202019 -0.02572683 0.01046649
v -0.02268743 -0.02480419 0.01056109
v -0.02393231 -0.02364748 0.01050602
v -0.02477020 -0.02329614 0.01037119
v -0.02475143 -0.02237486 0.01033307
v -0.03073524 -0.02183264 0.00354216
v -0.02978729 -0.02174310 0.00335016
v -0.02313112 -0.02626088 0.00335016
v -0.02202019 -0.02164357 0.00641312
v -0.02202019 -0.02178673 0.00639477
v -0.02202019 -0.02597454 0.00592957
v -0.02202019 -0.02628633 0.00590910
v -0.03073524 -0.02164357 0.00576721
v -0.02454665 -0.02172856 0.01015589
v -0.02466355 -0.02164357 0.01001400
v -0.02202019 -0.02628633 0.00720728
v -0.02202019 -0.02473510 0.01054132
v -0.02261063 -0.02349794 0.01046861
v -0.02393829 -0.02236350 0.01036625
v -0.03073524 -0.02167175 0.00364170
v -0.02961749 -0.02173947 0.00335016
v -0.02336576 -0.02575319 0.00335016
v -0.02202019 -0.02164357 0.00999635
v -0.02341354 -0.02565684 0.00335016
v -0.02403812 -0.02472829 0.00335016
v -0.02419597 -0.02453103 0.00335016
v -0.02447668 -0.02418061 0.00335016
v -0.02523266 -0.02342522 0.00335016
v -0.02571219 -0.02298117 0.00335016
v -0.02607055 -0.02277346 0.00335016
v -0.02763881 -0.02201171 0.00335016
v -0.02828472 -0.02181401 0.00335016
v -0.02886920 -0.02175492 0.00335016
v -0.02940247 -0.02164357 0.00583074
v -0.03060299 -0.02164357 0.00576086
v -0.02438197 -0.02172856 0.01015589
v -0.02443488 -0.02164357 0.01009165
v -0.02202019 -0.02372338 0.01036484
v -0.02942210 -0.02173901 0.00335016
v -0.02430092 -0.02164357 0.01009165
f 1 2 5
f 1 5 19
f 1 19 26
f 1 26 12
f 1 12 3
f 1 3 13
f 1 13 27
f 1 27 45
f 1 45 39
f 1 39 38
f 1 38 37
f 1 37 36
f 1 36 35
f 1 35 34
f 1 34 33
f 1 33 32
f 1 32 31
f 1 31 30
f 1 30 28
f 1 28 14
f 1 14 4
f 1 4 18
f 1 18 22
f 1 22 6
f 1 6 2
f 2 6 7
f 2 7 8
f 2 8 9
f 2 9 10
f 2 10 11
f 2 11 5
f 3 12 13
f 4 14 15
f 4 15 16
f 4 16 17
f 4 17 18
f 5 11 20
f 5 20 21
f 5 21 43
f 5 43 46
f 5 46 29
f 5 29 15
f 5 15 40
f 5 40 41
f 5 41 19
f 6 22 7
f 7 22 18
f 7 18 17
f 7 17 16
f 7 16 15
f 7 15 29
f 7 29 44
f 7 44 23
f 7 23 8
f 8 23 24
f 8 24 9
f 9 25 11
f 9 11 10
f 9 24 25
f 11 25 20
f 12 26 13
f 13 26 27
f 14 28 15
f 15 28 30
f 15 30 31
f 15 31 32
f 15 32 33
f 15 33 34
f 15 34 35
f 15 35 36
f 15 36 37
f 15 37 38
f 15 38 39
f 15 39 26
f 15 26 40
f 19 41 26
f 20 42 46
f 20 46 43
f 20 43 21
f 20 25 42
f 23 44 24
f 24 44 29
f 24 29 25
f 25 29 42
f 26 39 45
f 26 45 27
f 26 41 40
f 29 46 42

