# https://github.com/mikedh/trimesh
v -0.05822207 -0.02357472 -0.01549846
v -0.05822207 -0.02357472 -0.01472686
v -0.05821625 -0.02296929 -0.01512798
v -0.05821293 -0.02296929 -0.01561703
v -0.05812234 -0.02837422 -0.01529932
v -0.05810073 -0.02957358 -0.01521875
v -0.05790126 -0.02477512 -0.01419412
v -0.05788630 -0.02357472 -0.01412661
v -0.05821625 -0.02296929 -0.01474559
v -0.05810073 -0.02957358 -0.01494699
v -0.05812234 -0.02837422 -0.01489083
v -0.05787217 -0.02957358 -0.01434674
v -0.05803257 -0.02296929 -0.01603517
v -0.05792370 -0.02853525 -0.01603517
v -0.05785305 -0.03070497 -0.01603517
v -0.05808161 -0.03026266 -0.01512628
v -0.05730119 -0.02477512 -0.01362734
v -0.05336170 -0.02430039 -0.01023914
v -0.05336170 -0.02404735 -0.01023914
v -0.05757380 -0.02296929 -0.01386960
v -0.05787633 -0.02296929 -0.01414533
v -0.05727210 -0.02957358 -0.01366309
v -0.05808161 -0.03026266 -0.01502756
v -0.05783228 -0.03070706 -0.01456630
v -0.05705767 -0.03317373 -0.01369145
v -0.05715242 -0.03197438 -0.01367330
v -0.05602376 -0.02296929 -0.01603517
v -0.05766356 -0.03197438 -0.01603517
v -0.05768101 -0.03197438 -0.01567490
v -0.05322622 -0.02430039 -0.01023914
v -0.05361768 -0.02957358 -0.01096705
v -0.05132712 -0.03365159 -0.01124675
v -0.05055335 -0.03365159 -0.01121952
v -0.05322622 -0.02404735 -0.01023914
v -0.05308327 -0.02296929 -0.01089670
v -0.05727709 -0.02296929 -0.01362167
v -0.05730119 -0.03317373 -0.01447496
v -0.05759790 -0.03197438 -0.01447496
v -0.05697207 -0.03365159 -0.01376181
v -0.05346974 -0.03077398 -0.01115087
v -0.05153739 -0.02296929 -0.01393598
v -0.05388696 -0.02725643 -0.01603517
v -0.05757879 -0.03233408 -0.01603517
v -0.05735106 -0.03317373 -0.01567490
v -0.05227542 -0.03286527 -0.01125923
v -0.05002975 -0.03365159 -0.01194062
v -0.05093317 -0.02296929 -0.01209210
v -0.05182994 -0.02296929 -0.01119739
v -0.05214245 -0.02296929 -0.01091485
v -0.05267935 -0.02296929 -0.01090294
v -0.05711336 -0.03365159 -0.01447496
v -0.05071043 -0.02296929 -0.01289546
v -0.05089244 -0.03365159 -0.01503663
v -0.05099716 -0.03365159 -0.01511209
v -0.05388696 -0.02830416 -0.01603517
v -0.05116256 -0.03365159 -0.01519095
v -0.05734773 -0.03317373 -0.01603517
v -0.05715076 -0.03365159 -0.01567490
v -0.04974135 -0.03365159 -0.01253577
v -0.05074700 -0.02296929 -0.01257151
v -0.04973220 -0.03365159 -0.01284213
v -0.04975631 -0.03365159 -0.01320353
v -0.05041705 -0.03365159 -0.01441879
v -0.05071043 -0.02296929 -0.01272072
v -0.05219564 -0.03365159 -0.01543321
v -0.05511203 -0.03365159 -0.01603517
v -0.05714494 -0.03365159 -0.01603517
f 1 2 9
f 1 9 3
f 1 3 4
f 1 4 5
f 1 5 6
f 1 6 10
f 1 10 2
f 2 7 8
f 2 8 9
f 2 10 11
f 2 11 12
f 2 12 7
f 3 9 21
f 3 21 20
f 3 20 36
f 3 36 35
f 3 35 50
f 3 50 49
f 3 49 48
f 3 48 47
f 3 47 60
f 3 60 64
f 3 64 52
f 3 52 41
f 3 41 27
f 3 27 13
f 3 13 4
f 4 13 14
f 4 14 5
f 5 14 15
f 5 15 6
f 6 15 16
f 6 16 23
f 6 23 10
f 7 12 8
f 8 17 18
f 8 18 19
f 8 19 20
f 8 20 21
f 8 21 9
f 8 12 22
f 8 22 17
f 10 23 12
f 10 12 11
f 12 23 24
f 12 24 25
f 12 25 26
f 12 26 22
f 13 27 42
f 13 42 55
f 13 55 66
f 13 66 67
f 13 67 57
f 13 57 43
f 13 43 28
f 13 28 15
f 13 15 14
f 15 28 16
f 16 28 29
f 16 29 23
f 17 22 18
f 18 30 34
f 18 34 19
f 18 22 26
f 18 26 25
f 18 25 31
f 18 31 32
f 18 32 33
f 18 33 30
f 19 34 35
f 19 35 36
f 19 36 20
f 23 29 37
f 23 37 38
f 23 38 24
f 24 38 25
f 25 39 40
f 25 40 31
f 25 38 39
f 27 41 42
f 28 43 29
f 29 43 44
f 29 44 37
f 30 33 34
f 31 40 45
f 31 45 32
f 32 45 39
f 32 39 51
f 32 51 58
f 32 58 67
f 32 67 66
f 32 66 65
f 32 65 56
f 32 56 54
f 32 54 53
f 32 53 63
f 32 63 62
f 32 62 61
f 32 61 59
f 32 59 46
f 32 46 33
f 33 46 47
f 33 47 48
f 33 48 49
f 33 49 34
f 34 49 50
f 34 50 35
f 37 44 51
f 37 51 39
f 37 39 38
f 39 45 40
f 41 52 53
f 41 53 54
f 41 54 42
f 42 54 56
f 42 56 55
f 43 57 44
f 44 57 58
f 44 58 51
f 46 59 47
f 47 59 60
f 52 61 62
f 52 62 63
f 52 63 53
f 52 64 61
f 55 56 65
f 55 65 66
f 57 67 58
f 59 61 64
f 59 64 60

