# https://github.com/mikedh/trimesh
v -0.03347494 0.02154203 0.00621174
v -0.03347494 0.02154203 0.00754790
v -0.03347494 0.02154343 0.00619839
v -0.03347134 0.02154203 0.00619778
v -0.03347494 0.02326966 0.00787026
v -0.03152286 0.02154203 0.00752969
v -0.02987176 0.02682596 0.00964412
v -0.03107138 0.02802590 0.00969087
v -0.03217955 0.02802590 0.00929445
v -0.03264111 0.02519377 0.00349449
v -0.03262743 0.02517973 0.00349449
v -0.03347494 0.02620284 0.00349449
v -0.03319555 0.02577900 0.00349449
v -0.02747253 0.02154203 0.00614861
v -0.03202762 0.02481624 0.00349449
v -0.03107138 0.02454398 0.00349449
v -0.02987176 0.02452012 0.00349449
v -0.03347494 0.02682315 0.00837898
v -0.02611882 0.02154203 0.00738217
v -0.02867215 0.02682596 0.00947171
v -0.02867215 0.02802590 0.00965990
v -0.02987176 0.02802590 0.00968115
v -0.02747253 0.02922443 0.00967326
v -0.03107138 0.02922443 0.00969572
v -0.03223644 0.02922443 0.00933876
v -0.03347494 0.02802309 0.00851436
v -0.03347494 0.03587812 0.00349449
v -0.02698865 0.02154203 0.00615407
v -0.02871031 0.02478958 0.00349449
v -0.02611882 0.02154203 0.00618382
v -0.02627219 0.02154203 0.00617228
v -0.02611882 0.02922443 0.00904919
v -0.02640468 0.02922443 0.00928413
v -0.02658614 0.02822659 0.00921371
v -0.02735228 0.02790661 0.00939826
v -0.02611882 0.03587812 0.00822600
v -0.02867215 0.03587812 0.00859874
v -0.02987176 0.03587812 0.00874566
v -0.03157974 0.03587812 0.00892110
v -0.03173095 0.03587812 0.00893567
v -0.02867215 0.03042437 0.00956399
v -0.03107138 0.03042437 0.00958463
v -0.03347494 0.03587812 0.00890107
v -0.02826963 0.03587812 0.00349449
v -0.02863326 0.02481344 0.00349449
v -0.02748621 0.02559515 0.00349449
v -0.02630244 0.02674877 0.00349449
v -0.02611882 0.02693122 0.00349449
v -0.02611882 0.02986159 0.00903280
v -0.02611882 0.03587812 0.00369179
v -0.02747253 0.03587812 0.00352241
v -0.02747253 0.03585987 0.00349449
v -0.02611882 0.03573637 0.00349449
v -0.02627219 0.03587812 0.00366811
v -0.02627219 0.03575321 0.00349449
f 1 2 5
f 1 5 18
f 1 18 26
f 1 26 43
f 1 43 27
f 1 27 12
f 1 12 3
f 1 3 4
f 1 4 14
f 1 14 28
f 1 28 31
f 1 31 30
f 1 30 19
f 1 19 6
f 1 6 2
f 2 6 7
f 2 7 8
f 2 8 9
f 2 9 5
f 3 10 11
f 3 11 4
f 3 12 13
f 3 13 10
f 4 11 15
f 4 15 16
f 4 16 17
f 4 17 14
f 5 9 18
f 6 19 7
f 7 20 21
f 7 21 22
f 7 22 8
f 7 19 20
f 8 22 23
f 8 23 24
f 8 24 25
f 8 25 9
f 9 25 26
f 9 26 18
f 10 13 12
f 10 12 27
f 10 27 44
f 10 44 52
f 10 52 55
f 10 55 53
f 10 53 48
f 10 48 47
f 10 47 46
f 10 46 45
f 10 45 29
f 10 29 17
f 10 17 16
f 10 16 15
f 10 15 11
f 14 17 28
f 17 29 30
f 17 30 31
f 17 31 28
f 19 30 48
f 19 48 53
f 19 53 50
f 19 50 36
f 19 36 49
f 19 49 32
f 19 32 33
f 19 33 34
f 19 34 35
f 19 35 20
f 20 35 23
f 20 23 21
f 21 23 22
f 23 35 34
f 23 34 33
f 23 33 36
f 23 36 37
f 23 37 38
f 23 38 39
f 23 39 40
f 23 40 41
f 23 41 42
f 23 42 24
f 24 42 43
f 24 43 25
f 25 43 26
f 27 43 40
f 27 40 39
f 27 39 38
f 27 38 37
f 27 37 36
f 27 36 50
f 27 50 54
f 27 54 51
f 27 51 44
f 29 45 30
f 30 45 46
f 30 46 47
f 30 47 48
f 32 49 33
f 33 49 36
f 40 43 42
f 40 42 41
f 44 51 52
f 50 53 54
f 51 54 52
f 52 54 55
f 53 55 54

