# https://github.com/mikedh/trimesh
v 0.02506914 -0.01379346 0.01299241
v 0.02504551 -0.01379346 0.01414397
v 0.02501322 -0.01517501 0.01552483
v 0.02503764 -0.01517501 0.01432510
v 0.02499274 -0.01517501 0.01299241
v 0.02383410 -0.01379346 0.01299241
v 0.02502188 -0.01379346 0.01432510
v 0.02499432 -0.01517169 0.01568201
v 0.02499747 -0.01529940 0.01568201
v 0.02489113 -0.01612421 0.01568201
v 0.02489113 -0.01612421 0.01552483
v 0.02485096 -0.01614549 0.01299241
v 0.01854341 -0.02058813 0.01299241
v 0.01702245 -0.01757427 0.01435959
v 0.01702245 -0.01681731 0.01476898
v 0.01702245 -0.01628185 0.01562146
v 0.01708310 -0.01621001 0.01568201
v 0.02148531 -0.01379346 0.01567911
v 0.02487932 -0.01379346 0.01521917
v 0.02485884 -0.01426839 0.01568201
v 0.02461388 -0.01673283 0.01299241
v 0.02459576 -0.01664569 0.01568201
v 0.02069214 -0.02058813 0.01299241
v 0.01809288 -0.02058813 0.01365744
v 0.01702245 -0.01967819 0.01429904
v 0.01702245 -0.01900903 0.01400865
v 0.01702245 -0.01884207 0.01401181
v 0.01702245 -0.01626855 0.01568201
v 0.02151288 -0.01379346 0.01568201
v 0.02483836 -0.01379346 0.01536292
v 0.02482418 -0.01420520 0.01568201
v 0.02455086 -0.01672419 0.01568201
v 0.02411923 -0.01730155 0.01299241
v 0.02092450 -0.02037794 0.01299241
v 0.02395146 -0.01734478 0.01568201
v 0.02334969 -0.01786627 0.01568201
v 0.02018725 -0.02058813 0.01568201
v 0.01702245 -0.02058813 0.01541084
v 0.01702245 -0.02058813 0.01568201
v 0.02452487 -0.01379346 0.01568201
v 0.02456504 -0.01379346 0.01564120
v 0.02401368 -0.01741862 0.01299241
v 0.02156565 -0.01978195 0.01299241
v 0.02215954 -0.01920991 0.01299241
f 1 2 3
f 1 3 4
f 1 4 5
f 1 5 12
f 1 12 21
f 1 21 33
f 1 33 42
f 1 42 44
f 1 44 43
f 1 43 34
f 1 34 23
f 1 23 13
f 1 13 6
f 1 6 18
f 1 18 29
f 1 29 40
f 1 40 41
f 1 41 30
f 1 30 19
f 1 19 7
f 1 7 2
f 2 7 8
f 2 8 3
f 3 8 9
f 3 9 4
f 4 9 10
f 4 10 11
f 4 11 12
f 4 12 5
f 6 13 14
f 6 14 15
f 6 15 16
f 6 16 17
f 6 17 18
f 7 19 8
f 8 19 20
f 8 20 31
f 8 31 40
f 8 40 29
f 8 29 17
f 8 17 28
f 8 28 39
f 8 39 37
f 8 37 36
f 8 36 35
f 8 35 32
f 8 32 22
f 8 22 10
f 8 10 9
f 10 21 11
f 10 22 21
f 11 21 12
f 13 23 37
f 13 37 39
f 13 39 38
f 13 38 24
f 13 24 25
f 13 25 26
f 13 26 27
f 13 27 14
f 14 27 26
f 14 26 25
f 14 25 38
f 14 38 39
f 14 39 28
f 14 28 16
f 14 16 15
f 16 28 17
f 17 29 18
f 19 30 20
f 20 30 31
f 21 22 32
f 21 32 33
f 23 34 35
f 23 35 36
f 23 36 37
f 24 38 25
f 30 41 31
f 31 41 40
f 32 35 42
f 32 42 33
f 34 43 35
f 35 43 44
f 35 44 42

