# https://github.com/mikedh/trimesh
v 0.03776371 0.03203702 0.00290242
v 0.03809254 0.03181890 0.00290242
v 0.03776371 0.03294219 0.00077925
v 0.03773067 -0.00319938 -0.00003823
v 0.03776371 0.02986677 0.00290242
v 0.03881166 0.03133905 0.00290242
v 0.03936138 0.03231511 -0.00050517
v 0.03776371 0.03325846 -0.00007703
v 0.03787972 -0.02197903 -0.00920567
v 0.03785860 -0.02197903 -0.00209004
v 0.03785860 -0.02197903 -0.00192604
v 0.03786167 -0.02197903 -0.00153671
v 0.03831035 -0.01866914 0.00242671
v 0.03790585 0.00329498 0.00178325
v 0.03776371 0.03367287 -0.00151042
v 0.03776371 0.03372740 -0.00247687
v 0.03776371 0.03370559 -0.00988668
v 0.03776371 0.03157898 -0.00988668
v 0.03777869 0.01633823 -0.00826802
v 0.03823890 0.00284785 0.00290242
v 0.03943513 0.03073378 0.00290242
v 0.03938827 0.03118637 0.00209997
v 0.03937905 0.03237509 -0.00127632
v 0.03803338 0.03352565 -0.00167692
v 0.04018575 0.03082103 0.00112351
v 0.04068246 0.03022667 0.00112351
v 0.04160748 0.02995402 -0.00268718
v 0.04119721 0.03064108 -0.00367365
v 0.03818090 -0.02197903 -0.00988668
v 0.03840370 -0.02197903 0.00242671
v 0.03786551 0.03362380 -0.00988668
v 0.03831112 0.00101023 0.00290242
v 0.03952541 0.03045023 0.00290242
v 0.04046464 0.03000310 0.00179702
v 0.04059717 0.03126816 -0.00367365
v 0.03930760 0.03240781 -0.00727403
v 0.03862036 0.03300217 -0.00727403
v 0.03801226 0.03350384 -0.00988668
v 0.04108619 0.02922334 0.00112351
v 0.04140273 0.02922334 -0.00007703
v 0.04165435 0.03003581 -0.00367365
v 0.04160748 0.02952325 -0.00268718
v 0.04165281 0.03005763 -0.00487420
v 0.04122141 0.03054293 -0.00727403
v 0.04062138 0.03119182 -0.00727403
v 0.03963220 -0.02197903 -0.00988668
v 0.03962759 -0.02197903 0.00242671
v 0.03846209 -0.00019485 0.00290242
v 0.03837758 -0.00018940 0.00290242
v 0.03976166 0.02922334 0.00290242
v 0.04052611 0.03114275 -0.00847332
v 0.04094560 0.03036299 -0.00988668
v 0.04064596 0.02203101 0.00290242
v 0.04102012 0.01784322 0.00290242
v 0.04104010 0.01722159 0.00290242
v 0.04112230 0.01242307 0.00290242
v 0.04117493 0.01242307 0.00232280
v 0.04165435 0.02933785 -0.00367365
v 0.04112576 -0.02197903 -0.00247687
v 0.04165281 0.02931058 -0.00487420
v 0.04154486 0.02910883 -0.00988668
v 0.04153756 0.02984497 -0.00921318
v 0.04161747 0.03003036 -0.00607349
v 0.04112614 0.03047205 -0.00847332
v 0.04074008 -0.02197903 -0.00720643
v 0.04108581 -0.01396878 -0.00988668
v 0.04075045 -0.01757312 -0.00945228
v 0.04116456 -0.01757312 -0.00847457
v 0.04040203 -0.02197903 0.00062276
v 0.04083880 -0.00685825 0.00242671
v 0.04076044 0.00762455 0.00290242
v 0.03954500 -0.00019485 0.00290242
v 0.04133166 0.02969774 -0.00988668
v 0.04107620 -0.02197903 -0.00167191
v 0.04117762 -0.02197903 -0.00607474
v 0.04150875 0.02932694 -0.00988668
v 0.04154064 0.02869441 -0.00988668
v 0.04067324 -0.02197903 -0.00007703
v 0.04081652 -0.02197903 -0.00047137
f 1 2 3
f 1 3 4
f 1 4 5
f 1 5 20
f 1 20 32
f 1 32 49
f 1 49 48
f 1 48 72
f 1 72 71
f 1 71 56
f 1 56 55
f 1 55 54
f 1 54 53
f 1 53 50
f 1 50 33
f 1 33 21
f 1 21 6
f 1 6 2
f 2 6 3
f 3 6 7
f 3 7 8
f 3 8 4
f 4 9 10
f 4 10 11
f 4 11 12
f 4 12 13
f 4 13 14
f 4 14 5
f 4 8 15
f 4 15 16
f 4 16 17
f 4 17 18
f 4 18 19
f 4 19 9
f 5 14 13
f 5 13 20
f 6 21 22
f 6 22 7
f 7 23 24
f 7 24 15
f 7 15 8
f 7 22 25
f 7 25 26
f 7 26 27
f 7 27 28
f 7 28 23
f 9 29 46
f 9 46 65
f 9 65 75
f 9 75 59
f 9 59 74
f 9 74 79
f 9 79 78
f 9 78 69
f 9 69 47
f 9 47 30
f 9 30 12
f 9 12 11
f 9 11 10
f 9 19 18
f 9 18 29
f 12 30 13
f 13 30 20
f 15 24 16
f 16 24 17
f 17 24 31
f 17 31 38
f 17 38 52
f 17 52 73
f 17 73 76
f 17 76 61
f 17 61 77
f 17 77 66
f 17 66 46
f 17 46 29
f 17 29 18
f 20 30 32
f 21 33 34
f 21 34 26
f 21 26 25
f 21 25 22
f 23 28 35
f 23 35 36
f 23 36 37
f 23 37 24
f 24 37 38
f 24 38 31
f 26 34 39
f 26 39 40
f 26 40 27
f 27 41 28
f 27 40 42
f 27 42 58
f 27 58 41
f 28 41 43
f 28 43 44
f 28 44 45
f 28 45 35
f 30 47 72
f 30 72 48
f 30 48 49
f 30 49 32
f 33 50 34
f 34 50 39
f 35 45 36
f 36 38 37
f 36 45 38
f 38 45 51
f 38 51 52
f 39 50 53
f 39 53 54
f 39 54 40
f 40 54 55
f 40 55 56
f 40 56 57
f 40 57 42
f 41 58 60
f 41 60 43
f 42 57 59
f 42 59 58
f 43 60 61
f 43 61 62
f 43 62 63
f 43 63 44
f 44 51 45
f 44 63 62
f 44 62 64
f 44 64 51
f 46 66 67
f 46 67 68
f 46 68 65
f 47 69 70
f 47 70 71
f 47 71 72
f 51 64 52
f 52 64 62
f 52 62 73
f 56 71 70
f 56 70 74
f 56 74 57
f 57 74 59
f 58 59 75
f 58 75 60
f 60 75 61
f 61 76 62
f 61 75 68
f 61 68 77
f 62 76 73
f 65 68 75
f 66 77 68
f 66 68 67
f 69 78 70
f 70 78 79
f 70 79 74

