# https://github.com/mikedh/trimesh
v -0.00165060 -0.02700865 0.03112475
v -0.00107078 -0.02703500 0.03112475
v -0.00107078 -0.02700338 0.03146067
v -0.00165060 -0.02697176 0.03146067
v -0.00165060 -0.02680311 0.03000473
v -0.00107078 -0.02682946 0.02997046
v 0.00252817 -0.02704027 0.03112475
v 0.00852732 -0.02705608 0.03146067
v 0.00252817 -0.02702973 0.03146067
v 0.00972741 -0.02689797 0.02992494
v -0.00165060 0.02663690 0.03146067
v -0.00165060 -0.02629717 0.02878792
v 0.00972741 -0.02665027 0.02910396
v 0.00252817 -0.02645001 0.02878792
v 0.00852732 -0.02702973 0.03112475
v 0.00972741 -0.02700338 0.03112475
v 0.00972741 -0.02700338 0.03146067
v 0.01043264 -0.02665027 0.02914451
v 0.01054591 -0.02676095 0.02992494
v -0.00140653 0.02665271 0.03146067
v -0.00107078 0.02664217 0.03112475
v -0.00165060 0.02660001 0.03112475
v -0.00165060 0.02593069 0.02878792
v 0.00972741 -0.02653433 0.02878792
v 0.01053243 -0.02677149 0.03112475
v 0.01051085 -0.02676095 0.03146067
v 0.01004025 -0.02652379 0.02878792
v 0.01071311 -0.02610217 0.02878792
v 0.01074548 -0.02605474 0.02878792
v 0.01089515 -0.02597042 0.02992494
v 0.01129968 -0.02491110 0.02878792
v -0.00107078 0.02667379 0.03146067
v -0.00020778 0.02668960 0.03146067
v 0.00012932 0.02666325 0.03112475
v 0.00852732 0.02660528 0.02992494
v -0.00165060 0.02642609 0.03006151
v 0.00972741 0.02629434 0.02878792
v 0.01081694 -0.02597042 0.03112475
v 0.01071581 -0.02618122 0.03146067
v 0.01131047 -0.02482151 0.02878792
v 0.01078458 -0.02597042 0.03146067
v 0.00012932 0.02669487 0.03146067
v 0.00852732 0.02676865 0.03112475
v 0.00972741 0.02657893 0.02992494
v 0.00972741 0.02633650 0.02890670
v 0.01041646 0.02629961 0.02894987
v 0.01072525 0.02596231 0.02878792
v 0.01146014 -0.02357247 0.02878792
v 0.01088841 -0.02477408 0.03146067
v 0.01212222 -0.01482917 0.03077129
v 0.01212222 -0.01397540 0.03100597
v 0.00852732 0.02678447 0.03146067
v 0.00972741 0.02664217 0.03112475
v 0.01049737 0.02637866 0.02992494
v 0.01093021 0.02571988 0.02878792
v 0.01212222 -0.01592011 0.02878792
v 0.01212222 -0.01588849 0.02886301
v 0.01212222 -0.01537201 0.02990349
v 0.01126462 -0.01406499 0.03146067
v 0.01212357 -0.01163015 0.02878792
v 0.01126732 -0.01397013 0.03146067
v 0.01212222 0.01362473 0.03112030
v 0.00939166 0.02668960 0.03146067
v 0.00972741 0.02664744 0.03146067
v 0.01027488 0.02645244 0.03146067
v 0.01048253 0.02637339 0.03146067
v 0.01048793 0.02637339 0.03112475
v 0.01153161 0.02482395 0.02878792
v 0.01212222 0.01573809 0.02878792
v 0.01212222 0.01449959 0.03085527
v 0.01212222 0.01449432 0.03085711
v 0.01131721 0.01002517 0.03146067
v 0.01098954 0.02442341 0.03146067
v 0.01129698 0.01362473 0.03146067
v 0.01081559 0.02562502 0.03146067
v 0.01163948 0.02442341 0.02878792
v 0.01086684 0.02528773 0.03146067
f 1 2 3
f 1 3 4
f 1 4 11
f 1 11 22
f 1 22 36
f 1 36 23
f 1 23 12
f 1 12 5
f 1 5 6
f 1 6 2
f 2 7 8
f 2 8 9
f 2 9 3
f 2 6 10
f 2 10 7
f 3 9 8
f 3 8 17
f 3 17 26
f 3 26 39
f 3 39 41
f 3 41 49
f 3 49 59
f 3 59 61
f 3 61 72
f 3 72 74
f 3 74 73
f 3 73 77
f 3 77 75
f 3 75 66
f 3 66 65
f 3 65 64
f 3 64 63
f 3 63 52
f 3 52 42
f 3 42 33
f 3 33 32
f 3 32 20
f 3 20 11
f 3 11 4
f 5 12 6
f 6 13 10
f 6 12 14
f 6 14 13
f 7 10 15
f 7 15 8
f 8 15 16
f 8 16 17
f 10 13 18
f 10 18 19
f 10 19 16
f 10 16 15
f 11 20 21
f 11 21 22
f 12 23 37
f 12 37 47
f 12 47 55
f 12 55 68
f 12 68 76
f 12 76 69
f 12 69 60
f 12 60 56
f 12 56 48
f 12 48 40
f 12 40 31
f 12 31 29
f 12 29 28
f 12 28 27
f 12 27 24
f 12 24 14
f 13 24 18
f 13 14 24
f 16 19 25
f 16 25 17
f 17 25 26
f 18 24 27
f 18 27 28
f 18 28 29
f 18 29 19
f 19 30 25
f 19 29 31
f 19 31 30
f 20 32 21
f 21 32 33
f 21 33 34
f 21 34 35
f 21 35 36
f 21 36 22
f 23 36 37
f 25 30 38
f 25 38 26
f 26 38 39
f 30 31 38
f 31 40 41
f 31 41 38
f 33 42 34
f 34 42 43
f 34 43 35
f 35 43 44
f 35 44 45
f 35 45 36
f 36 45 37
f 37 45 46
f 37 46 47
f 38 41 39
f 40 48 41
f 41 48 50
f 41 50 51
f 41 51 49
f 42 52 43
f 43 52 53
f 43 53 44
f 44 54 46
f 44 46 45
f 44 53 54
f 46 54 47
f 47 54 55
f 48 56 57
f 48 57 58
f 48 58 50
f 49 51 59
f 50 60 51
f 50 58 60
f 51 61 59
f 51 60 62
f 51 62 61
f 52 63 53
f 53 63 64
f 53 64 54
f 54 64 65
f 54 65 66
f 54 66 67
f 54 67 68
f 54 68 55
f 56 60 57
f 57 60 58
f 60 69 70
f 60 70 71
f 60 71 62
f 61 62 72
f 62 71 73
f 62 73 74
f 62 74 72
f 66 75 68
f 66 68 67
f 68 75 76
f 69 76 70
f 70 76 73
f 70 73 71
f 73 76 77
f 75 77 76

