# https://github.com/mikedh/trimesh
v -0.03506599 -0.03365159 -0.01928009
v -0.02987224 -0.03365159 -0.01953117
v -0.03506599 -0.03365159 -0.01534675
v -0.03506599 -0.03036402 -0.01998698
v -0.03504455 -0.03036910 -0.01998698
v -0.03467149 -0.03045665 -0.01998698
v -0.02939541 -0.03365159 -0.01954173
v -0.03394766 -0.03365159 -0.01531049
v -0.03506599 -0.03099336 -0.01529764
v -0.03506599 -0.02410609 -0.01998698
v -0.03347168 -0.03057592 -0.01998698
v -0.02867243 -0.03365159 -0.01947425
v -0.03313892 -0.03060256 -0.01998698
v -0.03227187 -0.03065332 -0.01998698
v -0.02630540 -0.03046933 -0.01998698
v -0.03128732 -0.03365159 -0.01529764
v -0.03339964 -0.03309076 -0.01529764
v -0.03506599 -0.02603600 -0.01529764
v -0.03506599 -0.02068910 -0.01959452
v -0.03474867 -0.02068910 -0.01998698
v -0.02630540 -0.03365159 -0.01909235
v -0.02630540 -0.02068910 -0.01998698
v -0.02630540 -0.03365159 -0.01529764
v -0.03116125 -0.02244517 -0.01529764
v -0.03506599 -0.02068910 -0.01791542
v -0.02630540 -0.02068910 -0.01673850
v -0.02630540 -0.02868407 -0.01529764
v -0.02987224 -0.02218252 -0.01529764
v -0.02867243 -0.02068910 -0.01604263
v -0.02910210 -0.02068910 -0.01610505
v -0.02944515 -0.02068910 -0.01620374
v -0.02665274 -0.02068910 -0.01628912
v -0.02672821 -0.02398555 -0.01529764
v -0.02668361 -0.02426216 -0.01529764
v -0.02659270 -0.02508817 -0.01529764
v -0.02887054 -0.02223074 -0.01529764
v -0.02796061 -0.02068910 -0.01602472
v -0.02672220 -0.02068910 -0.01621660
v -0.02757382 -0.02272305 -0.01529764
v -0.02867243 -0.02225485 -0.01529764
v -0.02744346 -0.02068910 -0.01608073
v -0.02690831 -0.02068910 -0.01616932
v -0.02777193 -0.02256952 -0.01529764
f 1 2 7
f 1 7 12
f 1 12 21
f 1 21 23
f 1 23 16
f 1 16 8
f 1 8 3
f 1 3 9
f 1 9 18
f 1 18 25
f 1 25 19
f 1 19 10
f 1 10 4
f 1 4 5
f 1 5 6
f 1 6 2
f 2 6 7
f 3 8 9
f 4 10 20
f 4 20 22
f 4 22 15
f 4 15 14
f 4 14 13
f 4 13 11
f 4 11 6
f 4 6 5
f 6 11 7
f 7 11 13
f 7 13 14
f 7 14 15
f 7 15 12
f 8 16 17
f 8 17 9
f 9 17 16
f 9 16 23
f 9 23 27
f 9 27 35
f 9 35 34
f 9 34 33
f 9 33 39
f 9 39 43
f 9 43 40
f 9 40 36
f 9 36 28
f 9 28 24
f 9 24 18
f 10 19 20
f 12 15 21
f 15 22 26
f 15 26 27
f 15 27 23
f 15 23 21
f 18 24 25
f 19 25 31
f 19 31 30
f 19 30 29
f 19 29 37
f 19 37 41
f 19 41 42
f 19 42 38
f 19 38 32
f 19 32 26
f 19 26 22
f 19 22 20
f 24 28 29
f 24 29 30
f 24 30 31
f 24 31 25
f 26 32 33
f 26 33 34
f 26 34 35
f 26 35 27
f 28 36 37
f 28 37 29
f 32 38 33
f 33 38 39
f 36 40 37
f 37 40 41
f 38 42 43
f 38 43 39
f 40 43 41
f 41 43 42

