# https://github.com/mikedh/trimesh
v -0.00102759 -0.01658715 0.02609791
v -0.00102759 -0.01651620 0.02186858
v 0.00825735 -0.02147887 0.02609791
v -0.00102759 -0.00447808 0.02609791
v 0.00960859 -0.02147887 0.02186858
v -0.00102759 -0.00384346 0.02186858
v 0.01208031 -0.02147887 0.02609791
v -0.00084548 -0.00436771 0.02609791
v -0.00058829 -0.00367002 0.02474361
v -0.00102759 -0.00447020 0.02607307
v 0.01208587 -0.02147887 0.02186858
v -0.00102759 -0.00419625 0.02513570
v -0.00058829 -0.00367002 0.02428114
v 0.00008733 -0.00350447 0.02389899
v 0.00909145 -0.00134439 0.02186858
v 0.01209144 -0.02147887 0.02542884
v 0.01317438 -0.01908426 0.02186858
v 0.01317438 -0.01880636 0.02272521
v 0.01317438 -0.01842992 0.02365016
v 0.01317438 -0.01801407 0.02416066
v 0.01317438 -0.01620283 0.02609791
v 0.00033478 -0.00388682 0.02609791
v 0.00050577 -0.00367002 0.02592153
v -0.00029358 -0.00387499 0.02554394
v 0.00011513 -0.00353600 0.02513612
v 0.00965447 -0.00134439 0.02253269
v 0.01148393 -0.00134439 0.02186858
v 0.01317438 -0.01745828 0.02186858
v 0.01317438 -0.01410779 0.02609791
v 0.00132875 -0.00375674 0.02609791
v 0.00132875 -0.00362863 0.02595259
v 0.01015771 -0.00134439 0.02252730
v 0.00959608 -0.00363849 0.02609791
v 0.00972676 -0.00359513 0.02603167
v 0.01188569 -0.00205390 0.02186858
v 0.01112527 -0.00134439 0.02233436
v 0.01047467 -0.00365623 0.02590829
v 0.01071517 -0.00409967 0.02609791
v 0.01095984 -0.00439136 0.02609791
v 0.01127541 -0.00412727 0.02533030
v 0.01153120 -0.00377054 0.02453039
v 0.01317438 -0.01435809 0.02547645
v 0.01311321 -0.01154762 0.02186858
v 0.01316186 -0.01157324 0.02272521
v 0.01303119 -0.00917468 0.02392507
v 0.01286298 -0.00676430 0.02397641
v 0.01285186 -0.00797639 0.02481897
v 0.01255992 -0.00797639 0.02541931
v 0.01213870 -0.00797639 0.02609791
v 0.01081387 -0.00134439 0.02250950
v 0.00972676 -0.00364046 0.02609791
v 0.01197327 -0.00221354 0.02186858
v 0.01168133 -0.00446626 0.02500818
v 0.01027866 -0.00374689 0.02609791
v 0.01110581 -0.00459239 0.02609791
v 0.01155761 -0.00492744 0.02577911
v 0.01280737 -0.00461801 0.02186858
v 0.01280737 -0.00557586 0.02354209
v 0.01278374 -0.00715453 0.02466412
v 0.01193852 -0.00686678 0.02609791
v 0.01253629 -0.00340790 0.02186858
v 0.01226382 -0.00449385 0.02380749
v 0.01272952 -0.00497277 0.02332928
v 0.01145057 -0.00519154 0.02609791
v 0.01168411 -0.00557586 0.02596376
v 0.01279347 -0.00444063 0.02186858
v 0.01276845 -0.00476583 0.02272521
v 0.01246122 -0.00676430 0.02508809
v 0.01172304 -0.00601931 0.02609791
v 0.01262804 -0.00364440 0.02186858
v 0.01269755 -0.00383163 0.02186858
v 0.01159653 -0.00557586 0.02609791
f 1 2 3
f 1 3 7
f 1 7 21
f 1 21 29
f 1 29 49
f 1 49 60
f 1 60 69
f 1 69 72
f 1 72 64
f 1 64 55
f 1 55 39
f 1 39 38
f 1 38 54
f 1 54 51
f 1 51 33
f 1 33 30
f 1 30 22
f 1 22 8
f 1 8 4
f 1 4 10
f 1 10 12
f 1 12 6
f 1 6 2
f 2 5 3
f 2 6 15
f 2 15 27
f 2 27 35
f 2 35 52
f 2 52 61
f 2 61 70
f 2 70 71
f 2 71 66
f 2 66 57
f 2 57 43
f 2 43 28
f 2 28 17
f 2 17 11
f 2 11 5
f 3 5 11
f 3 11 16
f 3 16 7
f 4 8 9
f 4 9 10
f 6 12 9
f 6 9 13
f 6 13 14
f 6 14 15
f 7 16 17
f 7 17 18
f 7 18 19
f 7 19 20
f 7 20 21
f 8 22 23
f 8 23 24
f 8 24 9
f 9 24 23
f 9 23 25
f 9 25 15
f 9 15 14
f 9 14 13
f 9 12 10
f 11 17 16
f 15 26 32
f 15 32 50
f 15 50 36
f 15 36 27
f 15 25 26
f 17 28 42
f 17 42 29
f 17 29 21
f 17 21 20
f 17 20 19
f 17 19 18
f 22 30 23
f 23 31 26
f 23 26 25
f 23 30 31
f 26 31 33
f 26 33 34
f 26 34 32
f 27 36 37
f 27 37 38
f 27 38 39
f 27 39 40
f 27 40 41
f 27 41 35
f 28 43 44
f 28 44 42
f 29 42 44
f 29 44 45
f 29 45 46
f 29 46 47
f 29 47 48
f 29 48 49
f 30 33 31
f 32 34 50
f 33 51 34
f 34 51 50
f 35 41 53
f 35 53 52
f 36 50 37
f 37 50 54
f 37 54 38
f 39 55 40
f 40 55 56
f 40 56 41
f 41 56 53
f 43 57 44
f 44 57 45
f 45 57 58
f 45 58 46
f 46 58 47
f 47 58 59
f 47 59 48
f 48 59 60
f 48 60 49
f 50 51 54
f 52 53 62
f 52 62 63
f 52 63 61
f 53 56 62
f 55 64 56
f 56 64 65
f 56 65 63
f 56 63 62
f 57 66 58
f 58 63 59
f 58 66 67
f 58 67 63
f 59 63 65
f 59 65 68
f 59 68 60
f 60 68 65
f 60 65 69
f 61 63 70
f 63 67 71
f 63 71 70
f 64 72 65
f 65 72 69
f 66 71 67

