# https://github.com/mikedh/trimesh
v 0.02518452 0.05928315 -0.01243248
v 0.02518452 0.05964763 -0.01248437
v 0.02443413 0.05997540 -0.01255044
v 0.02434302 0.05922467 -0.01251435
v 0.02518452 0.05798434 -0.01244312
v 0.02500643 0.05997540 -0.01255044
v 0.02518452 0.05964763 -0.01308577
v 0.02292803 0.06008012 -0.01351925
v 0.02217292 0.06001620 -0.01365300
v 0.02217292 0.05927227 -0.01348154
v 0.02217292 0.05726897 -0.01338163
v 0.02217292 0.05606943 -0.01340258
v 0.02217292 0.04786853 -0.01375259
v 0.02518452 0.05788369 -0.01247664
v 0.02217292 0.04747821 -0.01378385
v 0.02245981 0.04764141 -0.01381189
v 0.02500643 0.05997540 -0.01296749
v 0.02381907 0.05997404 -0.01400075
v 0.02518452 0.05633328 -0.01571889
v 0.02217292 0.06003660 -0.01437752
v 0.02292803 0.06008012 -0.01416126
v 0.02518452 0.05677256 -0.01296426
v 0.02452317 0.04842614 -0.01572469
v 0.02217292 0.04688388 -0.01403137
v 0.02356963 0.04777197 -0.01499341
v 0.02217292 0.05922467 -0.01485483
v 0.02518452 0.05490662 -0.01572469
v 0.02417760 0.05642575 -0.01572469
v 0.02217292 0.05768649 -0.01572469
v 0.02518452 0.05578247 -0.01354471
v 0.02518452 0.05473390 -0.01572469
v 0.02518452 0.05473254 -0.01568602
v 0.02518452 0.05475429 -0.01495087
v 0.02518452 0.05475838 -0.01485128
v 0.02518452 0.05479237 -0.01469626
v 0.02518452 0.05512966 -0.01416255
v 0.02518452 0.05570631 -0.01360788
v 0.02408620 0.04776789 -0.01572469
v 0.02217292 0.04685260 -0.01405458
v 0.02245922 0.04647044 -0.01484355
v 0.02217292 0.04620523 -0.01572469
v 0.02217292 0.04618755 -0.01525608
v 0.02217292 0.04627867 -0.01466339
f 1 2 3
f 1 3 4
f 1 4 5
f 1 5 14
f 1 14 22
f 1 22 30
f 1 30 37
f 1 37 36
f 1 36 35
f 1 35 34
f 1 34 33
f 1 33 32
f 1 32 31
f 1 31 27
f 1 27 19
f 1 19 7
f 1 7 2
f 2 6 3
f 2 7 17
f 2 17 6
f 3 6 8
f 3 8 9
f 3 9 10
f 3 10 4
f 4 10 11
f 4 11 12
f 4 12 13
f 4 13 5
f 5 13 15
f 5 15 16
f 5 16 14
f 6 17 21
f 6 21 8
f 7 18 17
f 7 19 18
f 8 20 9
f 8 21 20
f 9 20 26
f 9 26 29
f 9 29 41
f 9 41 42
f 9 42 43
f 9 43 39
f 9 39 24
f 9 24 15
f 9 15 13
f 9 13 12
f 9 12 11
f 9 11 10
f 14 16 23
f 14 23 22
f 15 24 16
f 16 24 25
f 16 25 23
f 17 18 21
f 18 26 20
f 18 20 21
f 18 19 26
f 19 27 28
f 19 28 29
f 19 29 26
f 22 23 30
f 23 31 32
f 23 32 33
f 23 33 34
f 23 34 35
f 23 35 36
f 23 36 37
f 23 37 30
f 23 25 38
f 23 38 41
f 23 41 29
f 23 29 28
f 23 28 27
f 23 27 31
f 24 39 25
f 25 39 40
f 25 40 38
f 38 40 42
f 38 42 41
f 39 43 40
f 40 43 42

