# https://github.com/mikedh/trimesh
v -0.05859111 0.02884510 -0.02114751
v -0.05838245 0.02884510 -0.02114751
v -0.05837959 0.02841776 -0.02110586
v -0.05925568 0.02884510 -0.02104229
v -0.05776933 0.02884510 -0.02113765
v -0.05787366 0.02841776 -0.02110586
v -0.05867114 0.02682523 -0.02065429
v -0.05917994 0.02868647 -0.02102147
v -0.05027752 0.02307792 -0.02047125
v -0.05747063 0.02682523 -0.02081650
v -0.05998742 0.02670781 -0.02022792
v -0.06063342 0.02702959 -0.02005036
v -0.05991025 0.02884510 -0.02069484
v -0.04612573 0.02884510 -0.01943109
v -0.05865685 0.02559514 -0.02016435
v -0.05747063 0.02562562 -0.02050523
v -0.04612573 0.02387785 -0.01932477
v -0.04612573 0.02307792 -0.01929737
v -0.05627868 0.02307792 -0.01963058
v -0.06046620 0.02622966 -0.01986842
v -0.06049336 0.02499109 -0.01870441
v -0.06057197 0.02562562 -0.01899267
v -0.06060198 0.02353462 -0.01666465
v -0.06072489 0.02343301 -0.01567491
v -0.06072489 0.02413358 -0.01567491
v -0.06061198 0.02802541 -0.02007448
v -0.06054481 0.02884510 -0.02009640
v -0.04612573 0.02884510 -0.01673261
v -0.05733771 0.02307792 -0.01936862
v -0.04612573 0.02307792 -0.01785606
v -0.05819094 0.02307792 -0.01883703
v -0.05874260 0.02307792 -0.01839532
v -0.05748349 0.02307792 -0.01929628
v -0.05946863 0.02307792 -0.01777386
v -0.06006889 0.02307792 -0.01707019
v -0.06014893 0.02307792 -0.01697483
v -0.06020752 0.02317107 -0.01698799
v -0.06038331 0.02307792 -0.01602017
v -0.06045334 0.02307792 -0.01567491
v -0.06069916 0.02358882 -0.01447583
v -0.06067058 0.02446157 -0.01439801
v -0.06061198 0.02802541 -0.01967003
v -0.06054481 0.02884510 -0.01978183
v -0.05216548 0.02307792 -0.01103860
v -0.05161096 0.02307792 -0.01157238
v -0.05103356 0.02307792 -0.01215548
v -0.05437644 0.02884510 -0.01140907
v -0.06047907 0.02381801 -0.01264323
v -0.05974589 0.02307792 -0.01449994
v -0.05955295 0.02362212 -0.01116136
v -0.06059197 0.02442544 -0.01327565
v -0.06049908 0.02510626 -0.01261144
v -0.05929141 0.02870679 -0.01263336
v -0.05926569 0.02884510 -0.01277146
v -0.05261853 0.02307792 -0.01075363
v -0.05443503 0.02884510 -0.01138605
v -0.05372472 0.02307792 -0.01013545
v -0.05283291 0.02307792 -0.01062320
v -0.06023610 0.02442544 -0.01200313
v -0.06049765 0.02442544 -0.01260377
v -0.05616006 0.02307792 -0.01009819
v -0.05963727 0.02442544 -0.01110765
v -0.05833528 0.02358317 -0.01017381
v -0.06006603 0.02555393 -0.01215767
v -0.05915278 0.02884510 -0.01249087
v -0.05501957 0.02884510 -0.01117342
v -0.05388765 0.02317728 -0.01010805
v -0.05388622 0.02307792 -0.01010915
v -0.05429783 0.02412737 -0.01020231
v -0.05747063 0.02342736 -0.01009161
v -0.05507102 0.02307792 -0.00998529
v -0.05946006 0.02562562 -0.01131371
v -0.05833528 0.02420979 -0.01017381
v -0.05870973 0.02453609 -0.01046975
v -0.05826668 0.02884510 -0.01132686
v -0.05627154 0.02442544 -0.00995899
v -0.05931571 0.02634369 -0.01143647
v -0.05888266 0.02884510 -0.01208314
v -0.05501528 0.02448697 -0.01009599
v -0.05627154 0.02884510 -0.01092461
v -0.05537830 0.02531062 -0.01020889
v -0.05507102 0.02322583 -0.00995132
v -0.05757353 0.02453609 -0.01009709
v -0.05804087 0.02500972 -0.01029109
v -0.05747063 0.02884510 -0.01102983
v -0.05845677 0.02884510 -0.01152087
v -0.05665170 0.02884510 -0.01095092
v -0.05724053 0.02531852 -0.01022314
f 1 2 6
f 1 6 3
f 1 3 4
f 1 4 13
f 1 13 27
f 1 27 43
f 1 43 54
f 1 54 65
f 1 65 78
f 1 78 86
f 1 86 75
f 1 75 85
f 1 85 87
f 1 87 80
f 1 80 66
f 1 66 56
f 1 56 47
f 1 47 28
f 1 28 14
f 1 14 5
f 1 5 2
f 2 5 6
f 3 7 8
f 3 8 4
f 3 6 9
f 3 9 10
f 3 10 7
f 4 8 11
f 4 11 12
f 4 12 13
f 5 14 9
f 5 9 6
f 7 15 11
f 7 11 8
f 7 10 16
f 7 16 15
f 9 14 17
f 9 17 18
f 9 18 30
f 9 30 46
f 9 46 45
f 9 45 44
f 9 44 55
f 9 55 58
f 9 58 57
f 9 57 68
f 9 68 71
f 9 71 61
f 9 61 49
f 9 49 39
f 9 39 38
f 9 38 36
f 9 36 35
f 9 35 34
f 9 34 32
f 9 32 31
f 9 31 33
f 9 33 29
f 9 29 19
f 9 19 16
f 9 16 10
f 11 20 12
f 11 15 20
f 12 20 21
f 12 21 22
f 12 22 23
f 12 23 24
f 12 24 25
f 12 25 26
f 12 26 13
f 13 26 27
f 14 28 30
f 14 30 18
f 14 18 17
f 15 16 29
f 15 29 20
f 16 19 29
f 20 31 32
f 20 32 21
f 20 29 33
f 20 33 31
f 21 32 34
f 21 34 35
f 21 35 36
f 21 36 37
f 21 37 23
f 21 23 22
f 23 37 36
f 23 36 38
f 23 38 39
f 23 39 24
f 24 40 25
f 24 39 40
f 25 40 41
f 25 41 42
f 25 42 26
f 26 42 43
f 26 43 27
f 28 44 45
f 28 45 46
f 28 46 30
f 28 47 44
f 39 48 40
f 39 49 50
f 39 50 48
f 40 51 41
f 40 48 51
f 41 43 42
f 41 51 52
f 41 52 43
f 43 52 53
f 43 53 54
f 44 47 55
f 47 56 57
f 47 57 58
f 47 58 55
f 48 59 60
f 48 60 51
f 48 50 59
f 49 61 50
f 50 62 59
f 50 61 63
f 50 63 62
f 51 60 52
f 52 60 59
f 52 59 62
f 52 62 64
f 52 64 53
f 53 64 65
f 53 65 54
f 56 66 57
f 57 67 68
f 57 66 69
f 57 69 67
f 61 70 63
f 61 71 70
f 62 72 64
f 62 63 73
f 62 73 74
f 62 74 75
f 62 75 72
f 63 70 76
f 63 76 73
f 64 72 77
f 64 77 78
f 64 78 65
f 66 79 69
f 66 80 81
f 66 81 79
f 67 69 79
f 67 79 82
f 67 82 68
f 68 82 71
f 70 71 82
f 70 82 76
f 72 75 77
f 73 76 83
f 73 83 84
f 73 84 85
f 73 85 75
f 73 75 74
f 75 86 77
f 76 81 80
f 76 80 87
f 76 87 88
f 76 88 83
f 76 82 79
f 76 79 81
f 77 86 78
f 83 88 85
f 83 85 84
f 85 88 87

