# https://github.com/mikedh/trimesh
v -0.00102759 -0.02697016 0.02186858
v -0.00102759 -0.02720117 0.02272521
v -0.00102759 -0.02596068 0.02186858
v 0.00132828 -0.02714839 0.02186858
v 0.00012824 -0.02725900 0.02272521
v 0.00132828 -0.02739364 0.02392507
v -0.00102759 -0.02720384 0.02276951
v -0.00102759 -0.02490079 0.02609791
v 0.00253076 -0.02447761 0.02609791
v 0.00096237 -0.02577771 0.02186858
v 0.00732762 -0.02736369 0.02186858
v 0.00132828 -0.02730052 0.02272521
v 0.00252831 -0.02734026 0.02392507
v 0.00012824 -0.02724684 0.02512452
v 0.00012824 -0.02732839 0.02392507
v 0.00733499 -0.02736398 0.02187396
v -0.00102759 -0.02723290 0.02392507
v -0.00102759 -0.02670652 0.02609791
v 0.00732762 -0.02436403 0.02609791
v 0.00733499 -0.02436433 0.02609708
v 0.00247183 -0.02578987 0.02186858
v 0.00733499 -0.02591679 0.02186858
v 0.00132828 -0.02719109 0.02512452
v 0.00733499 -0.02723261 0.02272521
v 0.00733499 -0.02700159 0.02392507
v 0.00012824 -0.02684560 0.02600186
v -0.00102759 -0.02677384 0.02601096
v -0.00102759 -0.02710509 0.02512452
v -0.00102759 -0.02722994 0.02396938
v 0.00012824 -0.02676049 0.02609791
v 0.00733499 -0.02438953 0.02609791
v 0.00733499 -0.02588506 0.02186858
v 0.00492756 -0.02581003 0.02186858
v 0.00733499 -0.02673766 0.02519739
v 0.00733499 -0.02673202 0.02522016
v 0.00733499 -0.02672461 0.02524832
v 0.00733499 -0.02646572 0.02609791
f 1 2 7
f 1 7 17
f 1 17 29
f 1 29 28
f 1 28 27
f 1 27 18
f 1 18 8
f 1 8 3
f 1 3 10
f 1 10 21
f 1 21 33
f 1 33 32
f 1 32 22
f 1 22 11
f 1 11 4
f 1 4 2
f 2 5 6
f 2 6 7
f 2 4 5
f 3 8 9
f 3 9 10
f 4 11 5
f 5 11 12
f 5 12 6
f 6 13 14
f 6 14 15
f 6 15 7
f 6 12 11
f 6 11 16
f 6 16 13
f 7 15 17
f 8 18 30
f 8 30 37
f 8 37 31
f 8 31 19
f 8 19 9
f 9 19 10
f 10 19 20
f 10 20 21
f 11 22 16
f 13 23 14
f 13 16 24
f 13 24 25
f 13 25 23
f 14 23 26
f 14 26 27
f 14 27 28
f 14 28 29
f 14 29 15
f 15 29 17
f 16 22 32
f 16 32 20
f 16 20 31
f 16 31 37
f 16 37 36
f 16 36 35
f 16 35 34
f 16 34 25
f 16 25 24
f 18 27 26
f 18 26 30
f 19 31 20
f 20 32 33
f 20 33 21
f 23 25 34
f 23 34 35
f 23 35 36
f 23 36 37
f 23 37 26
f 26 37 30

