# https://github.com/mikedh/trimesh
v 0.01631318 -0.00917349 0.01845860
v 0.01650827 -0.00917349 0.01785846
v 0.01632167 -0.00980009 0.01847494
v 0.01631318 -0.00917349 0.01863178
v 0.01631573 -0.00852724 0.01848648
v 0.01664653 -0.00917349 0.01752365
v 0.01664907 -0.00952841 0.01752365
v 0.01632167 -0.00980009 0.01856076
v 0.01671099 -0.01030877 0.01752365
v 0.01654305 -0.01026946 0.01801487
v 0.01679666 -0.01109837 0.01908879
v 0.01663550 -0.00917349 0.01974883
v 0.01631573 -0.00852724 0.01863178
v 0.01654474 -0.00806596 0.01906897
v 0.01688827 -0.00737809 0.01974883
v 0.01715969 -0.00688444 0.01974883
v 0.01711643 -0.00702201 0.01912474
v 0.01725808 -0.00715034 0.01813599
v 0.01686621 -0.00795613 0.01791118
v 0.01701210 -0.00804977 0.01752365
v 0.01690184 -0.00835383 0.01752365
v 0.01687809 -0.01109837 0.01974883
v 0.01670845 -0.01032726 0.01974883
v 0.01683992 -0.01064056 0.01752365
v 0.01704858 -0.01109837 0.01752365
v 0.01700616 -0.01109837 0.01768746
v 0.01692983 -0.01109837 0.01798285
v 0.01664144 -0.00860585 0.01974883
v 0.01667112 -0.00801625 0.01974883
v 0.02333970 0.00071220 0.01974883
v 0.02331510 0.00071220 0.01792490
v 0.02335327 0.00071220 0.01752365
v 0.01747268 -0.00732953 0.01752365
v 0.01842776 -0.01109837 0.01974883
v 0.01860927 -0.01109837 0.01752365
v 0.02476299 0.00071220 0.01974883
v 0.02456366 0.00071220 0.01752365
v 0.02476893 -0.00634339 0.01752365
v 0.02473415 -0.00617923 0.01856251
v 0.02456536 -0.00606015 0.01974883
v 0.02476299 0.00071220 0.01968849
v 0.02493772 -0.00434221 0.01974883
v 0.02497758 -0.00437458 0.01912474
v 0.02476214 0.00071220 0.01954625
v 0.02475875 0.00003820 0.01752365
v 0.02488852 -0.00557344 0.01752365
v 0.02487750 -0.00562546 0.01974883
v 0.02469683 -0.00588442 0.01974883
v 0.02493178 -0.00503008 0.01974883
v 0.02494026 -0.00437458 0.01792490
v 0.02491397 -0.00437458 0.01752365
f 1 2 3
f 1 3 8
f 1 8 4
f 1 4 13
f 1 13 5
f 1 5 2
f 2 6 7
f 2 7 3
f 2 5 6
f 3 7 9
f 3 9 10
f 3 10 11
f 3 11 8
f 4 8 12
f 4 12 13
f 5 13 14
f 5 14 15
f 5 15 16
f 5 16 17
f 5 17 18
f 5 18 19
f 5 19 20
f 5 20 21
f 5 21 6
f 6 21 20
f 6 20 33
f 6 33 32
f 6 32 37
f 6 37 45
f 6 45 51
f 6 51 46
f 6 46 38
f 6 38 35
f 6 35 25
f 6 25 24
f 6 24 9
f 6 9 7
f 8 11 22
f 8 22 23
f 8 23 12
f 9 24 10
f 10 24 25
f 10 25 26
f 10 26 27
f 10 27 11
f 11 27 26
f 11 26 25
f 11 25 35
f 11 35 34
f 11 34 22
f 12 28 13
f 12 23 22
f 12 22 34
f 12 34 40
f 12 40 48
f 12 48 47
f 12 47 49
f 12 49 42
f 12 42 36
f 12 36 30
f 12 30 16
f 12 16 15
f 12 15 29
f 12 29 28
f 13 28 29
f 13 29 15
f 13 15 14
f 16 30 31
f 16 31 32
f 16 32 17
f 17 32 18
f 18 33 20
f 18 20 19
f 18 32 33
f 30 36 41
f 30 41 44
f 30 44 37
f 30 37 32
f 30 32 31
f 34 35 38
f 34 38 39
f 34 39 40
f 36 42 43
f 36 43 41
f 37 44 45
f 38 46 47
f 38 47 39
f 39 47 48
f 39 48 40
f 41 43 44
f 42 49 43
f 43 49 46
f 43 46 50
f 43 50 45
f 43 45 44
f 45 50 51
f 46 51 50
f 46 49 47

