# https://github.com/mikedh/trimesh
v 0.01462280 -0.04635316 -0.01359574
v 0.01462280 -0.04635316 -0.01395774
v 0.01452728 -0.04635316 -0.01359726
v 0.01462280 -0.04637469 -0.01359170
v 0.01462280 -0.04635358 -0.01575032
v 0.01459096 -0.04635316 -0.01575032
v 0.01462280 -0.04747990 -0.01339415
v 0.01212775 -0.04635316 -0.01365005
v 0.01462280 -0.05058154 -0.01575032
v -0.00016226 -0.04635316 -0.01575032
v 0.01452728 -0.04757469 -0.01338102
v 0.01452728 -0.05058154 -0.01316983
v 0.01462280 -0.05058154 -0.01319231
v 0.01093667 -0.04635316 -0.01372129
v 0.01278190 -0.05058154 -0.01575032
v -0.00016226 -0.04664830 -0.01575032
v -0.00016226 -0.04635316 -0.01522967
v 0.01356197 -0.05058154 -0.01348509
v 0.01313793 -0.05058154 -0.01442584
f 1 2 6
f 1 6 10
f 1 10 17
f 1 17 14
f 1 14 8
f 1 8 3
f 1 3 4
f 1 4 7
f 1 7 13
f 1 13 9
f 1 9 5
f 1 5 2
f 2 5 6
f 3 7 4
f 3 8 7
f 5 9 15
f 5 15 16
f 5 16 10
f 5 10 6
f 7 8 11
f 7 11 12
f 7 12 13
f 8 14 11
f 9 13 12
f 9 12 18
f 9 18 19
f 9 19 15
f 10 16 17
f 11 14 12
f 12 14 17
f 12 17 18
f 15 19 16
f 16 19 18
f 16 18 17

