# https://github.com/mikedh/trimesh
v -0.01569044 0.01279042 0.02878766
v -0.01295698 0.00282646 0.02878766
v -0.01569044 0.01471055 0.02878766
v -0.01569044 0.01396989 0.02624813
v -0.01259402 0.00433014 0.02609833
v -0.01253459 0.00416523 0.02609833
v -0.01235632 0.00372643 0.02609833
v -0.01180706 0.00278453 0.02609833
v -0.01151155 0.00239604 0.02609833
v -0.01133007 0.00217803 0.02609833
v -0.00821758 -0.00216810 0.02878766
v -0.01569044 0.01405374 0.02609833
v -0.01190663 0.02562480 0.02878766
v -0.01375678 0.02562200 0.02609833
v -0.01411171 0.02446489 0.02609833
v -0.01569044 0.01807286 0.02609833
v -0.01110362 0.00206623 0.02609833
v -0.00805859 -0.00216810 0.02872342
v 0.00071676 -0.00216810 0.02878766
v -0.01188736 0.02566392 0.02878766
v -0.01148746 0.02637664 0.02878766
v -0.01215718 0.02629838 0.02609833
v -0.01067642 0.00188456 0.02609833
v -0.00596593 -0.00216810 0.02812052
v 0.00071676 -0.00216810 0.02836484
v 0.00071676 0.02590709 0.02878766
v -0.01068926 0.02638502 0.02878766
v -0.01180224 0.02634030 0.02609833
v -0.00969834 0.00162463 0.02609833
v -0.00462650 -0.00216810 0.02800521
v -0.00947189 0.00157432 0.02609833
v -0.00849703 0.00143737 0.02609833
v 0.00071516 -0.00216810 0.02808998
v 0.00071676 -0.00216531 0.02808972
v 0.00071676 0.02559685 0.02609833
v -0.01086111 0.02634869 0.02609833
v -0.00827058 0.00140663 0.02609833
v -0.00707248 0.00124452 0.02609833
v -0.00587278 0.00119980 0.02609833
v -0.00142568 0.00132837 0.02609833
v 0.00012735 0.00138706 0.02609833
v 0.00071676 0.00142060 0.02609833
f 1 2 11
f 1 11 19
f 1 19 26
f 1 26 27
f 1 27 21
f 1 21 20
f 1 20 13
f 1 13 3
f 1 3 16
f 1 16 12
f 1 12 4
f 1 4 2
f 2 5 6
f 2 6 7
f 2 7 8
f 2 8 9
f 2 9 10
f 2 10 11
f 2 4 12
f 2 12 5
f 3 13 14
f 3 14 15
f 3 15 16
f 5 12 16
f 5 16 15
f 5 15 14
f 5 14 22
f 5 22 28
f 5 28 36
f 5 36 35
f 5 35 42
f 5 42 41
f 5 41 40
f 5 40 39
f 5 39 38
f 5 38 37
f 5 37 32
f 5 32 31
f 5 31 29
f 5 29 23
f 5 23 17
f 5 17 10
f 5 10 9
f 5 9 8
f 5 8 7
f 5 7 6
f 10 17 11
f 11 18 24
f 11 24 30
f 11 30 33
f 11 33 25
f 11 25 19
f 11 17 18
f 13 20 14
f 14 20 21
f 14 21 22
f 17 23 18
f 18 23 24
f 19 25 34
f 19 34 42
f 19 42 35
f 19 35 26
f 21 27 28
f 21 28 22
f 23 29 24
f 24 29 31
f 24 31 32
f 24 32 30
f 25 33 34
f 26 35 36
f 26 36 27
f 27 36 28
f 30 32 37
f 30 37 38
f 30 38 39
f 30 39 33
f 33 39 40
f 33 40 41
f 33 41 42
f 33 42 34

