# https://github.com/mikedh/trimesh
v 0.00944303 0.02562573 0.05658673
v 0.00852597 0.02562573 0.05663611
v 0.00944303 0.02496140 0.05653488
v 0.00944303 0.02689725 0.05620901
v 0.00852597 0.02682507 0.05636948
v 0.00732611 0.02562573 0.05668301
v 0.00852597 0.02496140 0.05657192
v -0.00203994 0.02489945 0.05647070
v -0.00225413 0.02453887 0.03198530
v -0.00174257 0.02453887 0.03173348
v -0.00166771 0.02453887 0.03167670
v -0.00138490 0.02453887 0.03146192
v 0.00944303 0.02496140 0.05450308
v 0.00944303 0.02749150 0.05583128
v 0.00732611 0.02682507 0.05637935
v 0.00852597 0.02751917 0.05587572
v 0.00612624 0.02682507 0.05637442
v 0.00012689 0.02682507 0.05632998
v -0.00827011 0.02682507 0.05625591
v -0.00946790 0.02562603 0.05649539
v -0.00946790 0.02489945 0.05647564
v 0.00732611 0.02496140 0.05657932
v -0.00227077 0.02489945 0.05647316
v -0.01040159 0.02453887 0.03241734
v -0.00338122 0.02453887 0.03210874
v -0.00319198 0.02453887 0.03209639
v -0.00236642 0.02453887 0.03201986
v -0.01040159 0.02453887 0.03146192
v 0.00938897 0.02514185 0.03146192
v 0.00944303 0.02512861 0.04413912
v 0.00944303 0.02749391 0.05582141
v 0.00943887 0.02749361 0.05582881
v 0.00012689 0.02749451 0.05587325
v -0.00827011 0.02748278 0.05583869
v 0.00852597 0.02761089 0.05512027
v -0.00906240 0.02745902 0.05578684
v -0.00946582 0.02690537 0.05608310
v -0.01019780 0.02489945 0.05636701
v -0.01045774 0.02655922 0.05598188
v -0.01078422 0.02573129 0.05610038
v -0.01071144 0.02489945 0.05621641
v -0.01138520 0.02489945 0.05586091
v -0.01151828 0.02489945 0.05546590
v -0.01160562 0.02489945 0.05516224
v -0.01178446 0.02489945 0.05392291
v -0.01178862 0.02489945 0.05272308
v -0.01040159 0.02664523 0.03146192
v -0.01172415 0.02489945 0.04413912
v -0.01174079 0.02544108 0.04413912
v 0.00938897 0.02662688 0.03146192
v 0.00944303 0.02708701 0.04413912
v 0.00944303 0.02752759 0.05512027
v -0.00227077 0.02755436 0.05512027
v -0.00824100 0.02748098 0.05504621
v -0.00918925 0.02746293 0.05512027
v 0.00012689 0.02755165 0.05392291
v 0.00924132 0.02744940 0.05152078
v 0.00917686 0.02743406 0.05073324
v 0.00938897 0.02692010 0.03472812
v 0.00852390 0.02692461 0.03352829
v 0.00227917 0.02744669 0.04594133
v 0.00171147 0.02744669 0.04594133
v 0.00158878 0.02746053 0.04672641
v -0.00979022 0.02736008 0.05512027
v -0.01078422 0.02676161 0.05523137
v -0.01125835 0.02620104 0.05570537
v -0.01136024 0.02540138 0.05583128
v -0.01149957 0.02573129 0.05523137
v -0.01177614 0.02562603 0.05392291
v -0.01180109 0.02562603 0.05272308
v -0.01040159 0.02689965 0.03445902
v -0.00946998 0.02690928 0.03352829
v -0.00946998 0.02671891 0.03146192
v -0.01174079 0.02562603 0.04413912
v -0.01154324 0.02636795 0.04413912
v -0.01150789 0.02649967 0.04413912
v -0.01174495 0.02562603 0.04432675
v 0.00852390 0.02678417 0.03146192
v 0.00938897 0.02669305 0.03146439
v 0.00938897 0.02685334 0.03352829
v 0.00944303 0.02735978 0.05050118
v 0.00944303 0.02749902 0.05418707
v -0.00656284 0.02743827 0.04841999
v -0.01066985 0.02719738 0.05272308
v -0.00946998 0.02699138 0.03592795
v -0.01040159 0.02691138 0.03472812
v -0.01040159 0.02693815 0.03592795
v 0.00612624 0.02694115 0.03352829
v -0.00587037 0.02693273 0.03352829
v -0.00946998 0.02696220 0.03472812
v -0.01066985 0.02713122 0.05392291
v -0.01151412 0.02658208 0.05392291
v -0.01139767 0.02640614 0.05490302
v -0.01152452 0.02666508 0.05272308
v -0.01151412 0.02650268 0.04432675
v 0.00818910 0.02678327 0.03146192
f 1 2 3
f 1 3 13
f 1 13 30
f 1 30 51
f 1 51 81
f 1 81 82
f 1 82 52
f 1 52 31
f 1 31 14
f 1 14 4
f 1 4 5
f 1 5 2
f 2 6 7
f 2 7 3
f 2 5 6
f 3 7 8
f 3 8 9
f 3 9 10
f 3 10 11
f 3 11 12
f 3 12 13
f 4 14 5
f 5 15 6
f 5 14 16
f 5 16 15
f 6 15 17
f 6 17 18
f 6 18 19
f 6 19 20
f 6 20 21
f 6 21 22
f 6 22 7
f 7 22 23
f 7 23 8
f 8 23 24
f 8 24 25
f 8 25 26
f 8 26 27
f 8 27 9
f 9 27 26
f 9 26 25
f 9 25 24
f 9 24 28
f 9 28 12
f 9 12 11
f 9 11 10
f 12 28 47
f 12 47 73
f 12 73 96
f 12 96 78
f 12 78 50
f 12 50 29
f 12 29 13
f 13 29 30
f 14 31 32
f 14 32 16
f 15 16 33
f 15 33 17
f 16 34 33
f 16 32 35
f 16 35 34
f 17 33 34
f 17 34 18
f 18 34 19
f 19 34 36
f 19 36 37
f 19 37 20
f 20 38 21
f 20 37 39
f 20 39 40
f 20 40 38
f 21 38 24
f 21 24 23
f 21 23 22
f 24 38 41
f 24 41 42
f 24 42 43
f 24 43 44
f 24 44 45
f 24 45 46
f 24 46 28
f 28 46 48
f 28 48 49
f 28 49 74
f 28 74 47
f 29 50 51
f 29 51 30
f 31 52 35
f 31 35 32
f 34 35 53
f 34 53 54
f 34 54 55
f 34 55 36
f 35 56 53
f 35 52 57
f 35 57 58
f 35 58 59
f 35 59 60
f 35 60 61
f 35 61 62
f 35 62 63
f 35 63 56
f 36 55 64
f 36 64 65
f 36 65 39
f 36 39 37
f 38 40 41
f 39 65 66
f 39 66 40
f 40 66 67
f 40 67 41
f 41 67 42
f 42 67 43
f 43 67 68
f 43 68 44
f 44 68 69
f 44 69 45
f 45 69 70
f 45 70 46
f 46 70 49
f 46 49 48
f 47 71 72
f 47 72 73
f 47 74 75
f 47 75 76
f 47 76 71
f 49 70 77
f 49 77 74
f 50 78 79
f 50 79 51
f 51 79 80
f 51 80 59
f 51 59 81
f 52 82 59
f 52 59 57
f 53 56 83
f 53 83 54
f 54 83 55
f 55 84 64
f 55 83 85
f 55 85 86
f 55 86 87
f 55 87 84
f 56 63 83
f 57 59 58
f 59 80 60
f 59 82 81
f 60 80 78
f 60 78 88
f 60 88 61
f 61 88 62
f 62 83 63
f 62 88 89
f 62 89 90
f 62 90 83
f 64 84 91
f 64 91 65
f 65 91 92
f 65 92 93
f 65 93 66
f 66 93 68
f 66 68 67
f 68 93 69
f 69 92 94
f 69 94 70
f 69 93 92
f 70 94 95
f 70 95 77
f 71 86 90
f 71 90 72
f 71 76 86
f 72 90 89
f 72 89 73
f 73 89 96
f 74 77 95
f 74 95 75
f 75 95 76
f 76 95 86
f 78 96 89
f 78 89 88
f 78 80 79
f 83 90 85
f 84 94 91
f 84 87 86
f 84 86 95
f 84 95 94
f 85 90 86
f 91 94 92

