# https://github.com/mikedh/trimesh
v 0.02772760 0.02890866 0.01146785
v 0.02709330 0.02868188 0.01135216
v 0.02772760 0.02840929 0.01146785
v 0.02892757 0.02888575 0.01145695
v 0.02928736 0.03426204 0.00790084
v 0.02652814 0.03426204 0.00718576
v 0.02564607 0.03426204 0.00692840
v 0.02534128 0.03426204 0.00682864
v 0.02413273 0.02256226 0.00736264
v 0.02709330 0.02857994 0.01135216
v 0.02413273 0.03426204 0.00630973
v 0.02413273 0.03371800 0.00664505
v 0.02413273 0.03282462 0.00697031
v 0.02413273 0.03162429 0.00717738
v 0.02413273 0.02923165 0.00724025
v 0.02892757 0.02841158 0.01145695
v 0.02928736 0.02256226 0.00741546
v 0.02928736 0.02874716 0.01138654
v 0.02928736 0.03426204 0.00574303
v 0.02413273 0.02256226 0.00610685
v 0.02413273 0.03426204 0.00630302
v 0.02928736 0.02851351 0.01138654
v 0.02928736 0.02256226 0.00626781
v 0.02762769 0.03426204 0.00499945
v 0.02928736 0.03246727 0.00290367
v 0.02892757 0.03260013 0.00290367
v 0.02422003 0.02339837 0.00290367
v 0.02532160 0.02285661 0.00290367
v 0.02598567 0.02264358 0.00290367
v 0.02603412 0.02262983 0.00290367
v 0.02605935 0.02262525 0.00290367
v 0.02682182 0.02259433 0.00290367
v 0.02532816 0.02256226 0.00607416
v 0.02413273 0.02346365 0.00290367
v 0.02511471 0.03426204 0.00497346
v 0.02413273 0.03425746 0.00463143
v 0.02839218 0.02256226 0.00617979
v 0.02712509 0.02259433 0.00290367
v 0.02719927 0.02259662 0.00290367
v 0.02738901 0.02265961 0.00290367
v 0.02789463 0.02287609 0.00290367
v 0.02892757 0.02341211 0.00290367
v 0.02928736 0.02362286 0.00290367
v 0.02742685 0.03426204 0.00499190
v 0.02772760 0.03292197 0.00290367
v 0.02652814 0.02256226 0.00606997
v 0.02413273 0.03161742 0.00290367
v 0.02650341 0.03426204 0.00497849
v 0.02652814 0.03291625 0.00290367
v 0.02587617 0.03276506 0.00290367
v 0.02539124 0.03256463 0.00290367
v 0.02510159 0.03236992 0.00290367
v 0.02434720 0.03182358 0.00290367
v 0.02414081 0.03162887 0.00290367
v 0.02719221 0.02256226 0.00609176
f 1 2 10
f 1 10 3
f 1 3 16
f 1 16 4
f 1 4 5
f 1 5 6
f 1 6 7
f 1 7 8
f 1 8 2
f 2 9 10
f 2 8 11
f 2 11 12
f 2 12 13
f 2 13 14
f 2 14 15
f 2 15 9
f 3 10 9
f 3 9 17
f 3 17 16
f 4 16 22
f 4 22 18
f 4 18 5
f 5 19 24
f 5 24 44
f 5 44 48
f 5 48 35
f 5 35 21
f 5 21 11
f 5 11 8
f 5 8 7
f 5 7 6
f 5 18 22
f 5 22 17
f 5 17 23
f 5 23 43
f 5 43 25
f 5 25 19
f 9 20 33
f 9 33 46
f 9 46 55
f 9 55 37
f 9 37 23
f 9 23 17
f 9 15 14
f 9 14 13
f 9 13 12
f 9 12 11
f 9 11 21
f 9 21 36
f 9 36 47
f 9 47 34
f 9 34 20
f 16 17 22
f 19 25 26
f 19 26 24
f 20 27 28
f 20 28 29
f 20 29 30
f 20 30 31
f 20 31 32
f 20 32 33
f 20 34 27
f 21 35 36
f 23 37 38
f 23 38 39
f 23 39 40
f 23 40 41
f 23 41 42
f 23 42 43
f 24 36 44
f 24 26 45
f 24 45 36
f 25 43 42
f 25 42 41
f 25 41 40
f 25 40 39
f 25 39 38
f 25 38 32
f 25 32 31
f 25 31 30
f 25 30 29
f 25 29 28
f 25 28 27
f 25 27 34
f 25 34 47
f 25 47 54
f 25 54 53
f 25 53 52
f 25 52 51
f 25 51 50
f 25 50 49
f 25 49 45
f 25 45 26
f 32 38 46
f 32 46 33
f 35 48 36
f 36 48 44
f 36 45 49
f 36 49 50
f 36 50 51
f 36 51 52
f 36 52 53
f 36 53 54
f 36 54 47
f 37 55 38
f 38 55 46

