# https://github.com/mikedh/trimesh
v -0.01961001 0.00030136 -0.02049528
v -0.01961001 -0.01037369 -0.02031254
v -0.01961001 0.00030136 -0.02176540
v -0.02694918 0.00030136 -0.01627453
v -0.02680092 -0.00597505 -0.01622413
v -0.01961001 -0.01211227 -0.02030465
v -0.01961001 -0.00077464 -0.02179818
v -0.02267216 -0.00077464 -0.02199550
v -0.02267216 0.00030136 -0.02193600
v -0.02738490 0.00030136 -0.01619560
v -0.02751199 0.00030136 -0.01617496
v -0.02680092 -0.00625902 -0.01622413
v -0.01961001 -0.01277346 -0.02036475
v -0.01961001 -0.00683112 -0.02193115
v -0.02276142 -0.01391905 -0.02211693
v -0.03506448 0.00030136 -0.01931685
v -0.03114300 0.00030136 -0.01616646
v -0.03506448 -0.01158889 -0.01591450
v -0.02507316 -0.01391905 -0.01793563
v -0.02411095 -0.01391905 -0.01832419
v -0.03038805 -0.01340820 -0.01625388
v -0.01961001 -0.01391905 -0.02052200
v -0.01961001 -0.01391905 -0.02196393
v -0.03506448 -0.01391905 -0.01934660
v -0.03506448 0.00030136 -0.01639413
v -0.03467112 0.00030136 -0.01634799
v -0.03347138 -0.00557556 -0.01606021
v -0.03506448 -0.01277763 -0.01599828
v -0.02678881 -0.01391905 -0.01746571
v -0.03347138 -0.01365319 -0.01619074
v -0.03347138 -0.01391905 -0.01630974
v -0.03309920 -0.01391905 -0.01634617
v -0.02999015 -0.01391905 -0.01674627
v -0.02993720 -0.01391905 -0.01675416
v -0.02937893 -0.01391905 -0.01687680
v -0.02717915 -0.01391905 -0.01736493
v -0.03506448 -0.01391905 -0.01636135
v -0.03506448 -0.01356410 -0.01615978
f 1 2 6
f 1 6 13
f 1 13 22
f 1 22 23
f 1 23 14
f 1 14 7
f 1 7 3
f 1 3 9
f 1 9 16
f 1 16 25
f 1 25 26
f 1 26 17
f 1 17 11
f 1 11 10
f 1 10 4
f 1 4 5
f 1 5 2
f 2 5 6
f 3 7 8
f 3 8 9
f 4 10 5
f 5 10 11
f 5 11 12
f 5 12 6
f 6 12 13
f 7 14 8
f 8 14 15
f 8 15 16
f 8 16 9
f 11 17 18
f 11 18 12
f 12 19 20
f 12 20 13
f 12 18 21
f 12 21 19
f 13 20 22
f 14 23 15
f 15 23 22
f 15 22 20
f 15 20 19
f 15 19 29
f 15 29 36
f 15 36 35
f 15 35 34
f 15 34 33
f 15 33 32
f 15 32 31
f 15 31 37
f 15 37 24
f 15 24 16
f 16 24 37
f 16 37 38
f 16 38 28
f 16 28 18
f 16 18 25
f 17 26 27
f 17 27 18
f 18 27 26
f 18 26 25
f 18 28 21
f 19 21 29
f 21 28 30
f 21 30 31
f 21 31 32
f 21 32 33
f 21 33 34
f 21 34 35
f 21 35 36
f 21 36 29
f 28 38 30
f 30 38 31
f 31 38 37

