# https://github.com/mikedh/trimesh
v -0.02597702 -0.00310899 0.02878766
v -0.02597607 -0.00197363 0.02878766
v -0.02597387 -0.00197363 0.02872474
v -0.02597481 -0.00317350 0.02872474
v -0.02579461 -0.01062300 0.02878766
v -0.02538640 0.01238865 0.02878766
v -0.02568454 0.01310857 0.02815212
v -0.02581065 0.01355498 0.02758792
v -0.02582417 0.01441682 0.02723040
v -0.02582512 0.01354982 0.02623391
v -0.02581505 0.01354982 0.02609833
v -0.02552635 -0.00914445 0.02609833
v -0.02549962 -0.01062300 0.02609833
v -0.02349035 -0.01062300 0.02878766
v -0.02500776 0.01350595 0.02878766
v -0.02548358 0.01390849 0.02803022
v -0.02468352 0.01429554 0.02821399
v -0.02507883 0.01454067 0.02758792
v -0.02483510 0.01516770 0.02609833
v -0.02504298 0.01503610 0.02609833
v -0.02570341 0.01457938 0.02609833
v -0.02579587 0.01448133 0.02609833
v -0.02581380 0.01442714 0.02632500
v -0.02580090 0.01424651 0.02609833
v -0.02375892 -0.01062300 0.02609833
v -0.02340480 -0.01037271 0.02878766
v -0.02387213 0.01409427 0.02878766
v -0.02387213 0.01436005 0.02834931
v -0.02276419 0.01573796 0.02609833
v -0.02387213 0.01547218 0.02609833
v -0.02374288 -0.01037271 0.02609833
v -0.02281702 0.00402313 0.02878766
v -0.02276419 0.01417684 0.02878766
v -0.02276419 0.01399106 0.02609833
v -0.02277236 0.00522299 0.02878766
v -0.02276419 0.01227512 0.02878766
v -0.02276419 0.01389558 0.02617704
v -0.02276419 0.01236543 0.02860889
f 1 2 3
f 1 3 4
f 1 4 5
f 1 5 14
f 1 14 26
f 1 26 32
f 1 32 35
f 1 35 36
f 1 36 33
f 1 33 27
f 1 27 15
f 1 15 6
f 1 6 2
f 2 6 7
f 2 7 8
f 2 8 9
f 2 9 10
f 2 10 3
f 3 10 4
f 4 10 11
f 4 11 12
f 4 12 13
f 4 13 5
f 5 13 25
f 5 25 14
f 6 15 7
f 7 15 16
f 7 16 9
f 7 9 8
f 9 17 18
f 9 18 19
f 9 19 20
f 9 20 21
f 9 21 22
f 9 22 23
f 9 23 10
f 9 16 17
f 10 23 24
f 10 24 11
f 11 24 22
f 11 22 21
f 11 21 20
f 11 20 19
f 11 19 30
f 11 30 29
f 11 29 34
f 11 34 31
f 11 31 25
f 11 25 13
f 11 13 12
f 14 25 26
f 15 27 17
f 15 17 16
f 17 28 29
f 17 29 18
f 17 27 28
f 18 29 30
f 18 30 19
f 22 24 23
f 25 31 26
f 26 31 32
f 27 33 28
f 28 33 29
f 29 33 36
f 29 36 38
f 29 38 37
f 29 37 34
f 31 34 32
f 32 34 35
f 34 37 35
f 35 37 38
f 35 38 36

