# https://github.com/mikedh/trimesh
v -0.03661797 0.02287806 0.00349439
v -0.03511675 0.02287806 0.00349439
v -0.03556264 0.02287806 0.00247763
v -0.03598679 0.01482637 0.00338790
v -0.03609724 0.01482637 0.00349439
v -0.03508832 0.02287806 0.00340256
v -0.03492821 0.01487849 0.00349439
v -0.03486879 0.02287806 0.00243931
v -0.03529312 0.01283706 0.00291019
v -0.03533627 0.01362648 0.00287993
v -0.03538695 0.01482637 0.00284554
v -0.03593611 0.01362648 0.00342560
v -0.03600922 0.01362648 0.00349439
v -0.03507633 0.02287806 0.00336383
v -0.03493130 0.01367969 0.00349439
v -0.03486879 0.02287806 0.00264227
v -0.03496743 0.01192167 0.00349439
v -0.03511589 0.01482637 0.00284554
v -0.03516966 0.01362648 0.00287993
v -0.03523267 0.01283706 0.00291019
v -0.03531349 0.01178594 0.00349439
v -0.03584004 0.01200854 0.00349439
f 1 2 6
f 1 6 14
f 1 14 16
f 1 16 8
f 1 8 3
f 1 3 4
f 1 4 5
f 1 5 13
f 1 13 22
f 1 22 21
f 1 21 17
f 1 17 15
f 1 15 7
f 1 7 2
f 2 7 6
f 3 8 9
f 3 9 10
f 3 10 11
f 3 11 4
f 4 11 10
f 4 10 12
f 4 12 13
f 4 13 5
f 6 7 14
f 7 15 16
f 7 16 14
f 8 15 17
f 8 17 18
f 8 18 19
f 8 19 20
f 8 20 9
f 8 16 15
f 9 21 22
f 9 22 12
f 9 12 10
f 9 20 21
f 12 22 13
f 17 21 20
f 17 20 19
f 17 19 18

