# https://github.com/mikedh/trimesh
v -0.02987145 0.02884510 -0.02149045
v -0.03346993 0.02884510 -0.02120396
v -0.04930975 0.03402523 -0.01935614
v -0.04906799 0.03426006 -0.01934816
v -0.03757052 0.03426006 -0.01989877
v -0.03736131 0.03426006 -0.01990783
v -0.03710560 0.03426006 -0.01991582
v -0.00181353 0.02884510 -0.02146756
v -0.04930975 0.02884510 -0.01930768
v -0.04930975 0.02922571 -0.01934602
v -0.04930975 0.02946320 -0.01935934
v -0.04930975 0.03426006 -0.01932419
v -0.03660349 0.03426006 -0.01991422
v -0.00827591 0.03426006 -0.01956808
v -0.00707642 0.03426006 -0.01953667
v -0.00181353 0.03426006 -0.01924591
v -0.00181353 0.02884510 -0.01936946
v -0.03638963 0.03426006 -0.01991262
v -0.04930975 0.02884510 -0.01649762
v -0.04930975 0.03426006 -0.01745401
v -0.00181353 0.03426006 -0.01699605
v -0.00181353 0.02918224 -0.01885026
v -0.01102824 0.02884510 -0.01772027
v -0.04462336 0.02913772 -0.01605031
v -0.04930975 0.02898770 -0.01646992
v -0.04386089 0.02884510 -0.01609025
v -0.04383764 0.02884669 -0.01605031
v -0.04930975 0.03419274 -0.01738958
v -0.04878904 0.03426006 -0.01728840
v -0.00467278 0.03426006 -0.01617332
v -0.00181353 0.03328786 -0.01705090
v -0.00181353 0.02955278 -0.01829644
v -0.00526323 0.02981200 -0.01746998
v -0.00587228 0.02976907 -0.01743803
v -0.02518505 0.02884510 -0.01605031
v -0.04512083 0.02948758 -0.01605031
v -0.04930975 0.02922571 -0.01648910
v -0.04534864 0.02969644 -0.01605031
v -0.04537188 0.03034634 -0.01605031
v -0.04454432 0.03426006 -0.01605031
v -0.04322860 0.02884510 -0.01605031
v -0.04930975 0.03398282 -0.01718935
v -0.00560262 0.03426006 -0.01615734
v -0.00524928 0.03218897 -0.01626065
v -0.00181353 0.03157352 -0.01722876
v -0.00181353 0.02980988 -0.01806746
v -0.00181353 0.03031189 -0.01767340
v -0.00181353 0.03078420 -0.01738105
v -0.00587228 0.03042586 -0.01705729
v -0.02519900 0.02897975 -0.01605031
v -0.02147499 0.03282508 -0.01605829
v -0.04930975 0.03282508 -0.01678890
v -0.04930975 0.03372095 -0.01709456
v -0.02726790 0.03426006 -0.01605031
v -0.00181353 0.03097504 -0.01733047
v -0.02523155 0.02922783 -0.01605031
f 1 2 3
f 1 3 4
f 1 4 5
f 1 5 6
f 1 6 7
f 1 7 8
f 1 8 17
f 1 17 23
f 1 23 35
f 1 35 41
f 1 41 26
f 1 26 19
f 1 19 9
f 1 9 2
f 2 9 10
f 2 10 11
f 2 11 3
f 3 11 10
f 3 10 9
f 3 9 19
f 3 19 25
f 3 25 37
f 3 37 52
f 3 52 53
f 3 53 42
f 3 42 28
f 3 28 20
f 3 20 12
f 3 12 4
f 4 12 20
f 4 20 29
f 4 29 40
f 4 40 54
f 4 54 43
f 4 43 30
f 4 30 21
f 4 21 16
f 4 16 15
f 4 15 14
f 4 14 18
f 4 18 13
f 4 13 7
f 4 7 6
f 4 6 5
f 7 13 8
f 8 14 15
f 8 15 16
f 8 16 21
f 8 21 31
f 8 31 45
f 8 45 55
f 8 55 48
f 8 48 47
f 8 47 46
f 8 46 32
f 8 32 22
f 8 22 17
f 8 13 18
f 8 18 14
f 17 22 23
f 19 24 25
f 19 26 27
f 19 27 24
f 20 28 29
f 21 30 31
f 22 32 23
f 23 32 33
f 23 33 34
f 23 34 35
f 24 36 25
f 24 27 41
f 24 41 35
f 24 35 50
f 24 50 56
f 24 56 54
f 24 54 40
f 24 40 39
f 24 39 38
f 24 38 36
f 25 36 38
f 25 38 39
f 25 39 40
f 25 40 37
f 26 41 27
f 28 42 29
f 29 42 40
f 30 43 35
f 30 35 44
f 30 44 45
f 30 45 31
f 32 46 33
f 33 46 47
f 33 47 48
f 33 48 49
f 33 49 35
f 33 35 34
f 35 49 44
f 35 43 51
f 35 51 50
f 37 40 52
f 40 42 53
f 40 53 52
f 43 54 51
f 44 49 48
f 44 48 55
f 44 55 45
f 50 51 56
f 51 54 56

