# https://github.com/mikedh/trimesh
v 0.03522442 0.02916422 0.00290350
v 0.03527098 0.02721817 0.00290350
v 0.03494107 0.02916422 0.00115454
v 0.02172864 0.02916422 0.00290350
v 0.03527231 0.02596869 0.00290350
v 0.03494107 0.02802467 0.00115454
v 0.02403004 0.02916422 0.00115454
v 0.02168341 0.02916422 0.00251433
v 0.02206254 0.02469201 0.00115454
v 0.02210644 0.02572925 0.00231384
v 0.02230732 0.02617222 0.00290350
v 0.03519915 0.02484656 0.00290350
v 0.03486392 0.02679478 0.00115454
v 0.03493974 0.02799528 0.00115454
v 0.02196809 0.02626147 0.00115454
v 0.02197341 0.02682526 0.00131634
v 0.02211043 0.02765462 0.00157881
v 0.02197075 0.02586747 0.00115454
v 0.02197874 0.02574231 0.00115454
v 0.02206787 0.02467024 0.00115454
v 0.02222218 0.02479758 0.00190669
v 0.02246030 0.02539838 0.00270660
v 0.02254810 0.02549089 0.00290350
v 0.03435441 0.01804627 0.00290350
v 0.03465905 0.02562476 0.00115454
v 0.02207984 0.02465718 0.00115454
v 0.02323453 0.02353722 0.00209074
v 0.02284741 0.02432631 0.00239876
v 0.02305095 0.02450045 0.00290350
v 0.03423336 0.01804627 0.00290350
v 0.03014405 0.02176967 0.00115454
v 0.03260109 0.02225183 0.00115454
v 0.03265697 0.02228230 0.00115454
v 0.03318110 0.02257072 0.00115454
v 0.03355491 0.02309860 0.00115454
v 0.03359349 0.02315410 0.00115454
v 0.03362408 0.02320199 0.00115454
v 0.03415088 0.02411189 0.00115454
v 0.03441827 0.02473554 0.00115454
v 0.03465240 0.02558993 0.00115454
v 0.02449697 0.02249889 0.00146359
v 0.02323453 0.02353722 0.00144167
v 0.02867541 0.02201455 0.00115454
v 0.02532840 0.02234651 0.00127748
v 0.02449697 0.02249889 0.00191046
v 0.02403004 0.02315737 0.00240047
v 0.02356178 0.02385503 0.00289083
v 0.02357109 0.02385830 0.00290350
v 0.03005226 0.02176967 0.00115454
v 0.02422027 0.02339899 0.00290350
v 0.02899734 0.02194599 0.00115454
f 1 2 3
f 1 3 7
f 1 7 8
f 1 8 4
f 1 4 11
f 1 11 23
f 1 23 29
f 1 29 48
f 1 48 50
f 1 50 30
f 1 30 24
f 1 24 12
f 1 12 5
f 1 5 2
f 2 5 3
f 3 5 6
f 3 6 14
f 3 14 13
f 3 13 25
f 3 25 40
f 3 40 39
f 3 39 38
f 3 38 37
f 3 37 36
f 3 36 35
f 3 35 34
f 3 34 33
f 3 33 32
f 3 32 31
f 3 31 49
f 3 49 51
f 3 51 43
f 3 43 26
f 3 26 20
f 3 20 9
f 3 9 19
f 3 19 18
f 3 18 15
f 3 15 7
f 4 8 9
f 4 9 10
f 4 10 11
f 5 12 13
f 5 13 14
f 5 14 6
f 7 15 16
f 7 16 17
f 7 17 8
f 8 17 16
f 8 16 15
f 8 15 18
f 8 18 19
f 8 19 9
f 9 20 21
f 9 21 10
f 10 21 22
f 10 22 11
f 11 22 23
f 12 24 13
f 13 24 25
f 20 26 27
f 20 27 21
f 21 27 28
f 21 28 29
f 21 29 22
f 22 29 23
f 24 30 49
f 24 49 31
f 24 31 32
f 24 32 33
f 24 33 34
f 24 34 35
f 24 35 36
f 24 36 37
f 24 37 38
f 24 38 39
f 24 39 40
f 24 40 25
f 26 41 42
f 26 42 27
f 26 43 44
f 26 44 41
f 27 45 46
f 27 46 47
f 27 47 29
f 27 29 28
f 27 42 41
f 27 41 45
f 29 47 48
f 30 50 45
f 30 45 41
f 30 41 44
f 30 44 49
f 43 51 44
f 44 51 49
f 45 50 46
f 46 50 47
f 47 50 48

