# https://github.com/mikedh/trimesh
v 0.03173327 0.03841622 0.00115454
v 0.03139682 0.03841622 0.00290350
v 0.03193709 0.03828496 0.00115454
v 0.02847921 0.03841622 0.00115454
v 0.03179646 0.03809155 0.00290350
v 0.02885570 0.03841622 0.00290350
v 0.03447197 0.03594423 0.00115454
v 0.03447554 0.03294344 0.00290350
v 0.03454229 0.03294344 0.00115454
v 0.03448087 0.03294344 0.00183067
v 0.03421030 0.03571921 0.00290350
v 0.03757205 0.03294344 0.00115454
v 0.03677812 0.03294344 0.00290350
v 0.03450580 0.03540954 0.00290350
f 1 2 3
f 1 3 7
f 1 7 12
f 1 12 9
f 1 9 4
f 1 4 6
f 1 6 2
f 2 5 3
f 2 6 8
f 2 8 13
f 2 13 14
f 2 14 11
f 2 11 5
f 3 5 7
f 4 8 6
f 4 9 10
f 4 10 8
f 5 11 12
f 5 12 7
f 8 10 9
f 8 9 12
f 8 12 13
f 11 14 12
f 12 14 13

