# https://github.com/mikedh/trimesh
v 0.00366563 -0.00019745 0.00791196
v 0.00394915 -0.00019745 0.00766228
v 0.00366563 -0.00019745 0.01299241
v 0.00366563 0.00288738 0.00764041
v 0.00612823 0.00162697 0.00737555
v 0.00492821 -0.00019745 0.00755111
v 0.00367243 0.00287970 0.00763920
v 0.00366563 0.01939735 0.00728139
v 0.00643078 -0.00019745 0.01299241
v 0.00366563 0.01451304 0.01299241
v 0.00732757 0.00042603 0.00729050
v 0.00395459 0.01939735 0.00725223
v 0.00795240 -0.00019745 0.00735368
v 0.00366563 0.01939735 0.00917311
v 0.01061080 -0.00019745 0.01142691
v 0.00653481 -0.00014758 0.01299241
v 0.00368331 0.01620893 0.01299241
v 0.00366563 0.01620317 0.01298816
v 0.01061080 -0.00019745 0.00718662
v 0.00852759 0.01939735 0.00687741
v 0.00972761 0.01939735 0.00678628
v 0.00612823 0.01939735 0.00988084
v 0.00734729 0.00041644 0.01299241
v 0.01061080 0.00287203 0.01299241
v 0.00997578 0.00232144 0.01299241
v 0.01061080 0.01765734 0.01299241
v 0.01061080 0.01939735 0.00690414
v 0.00950121 0.01939735 0.01051992
v 0.01061080 0.01939735 0.01061044
v 0.00972761 0.01939735 0.01054726
f 1 2 6
f 1 6 13
f 1 13 19
f 1 19 15
f 1 15 9
f 1 9 3
f 1 3 10
f 1 10 18
f 1 18 14
f 1 14 8
f 1 8 4
f 1 4 2
f 2 5 6
f 2 4 7
f 2 7 8
f 2 8 5
f 3 9 16
f 3 16 23
f 3 23 25
f 3 25 24
f 3 24 26
f 3 26 17
f 3 17 10
f 4 8 7
f 5 11 6
f 5 8 12
f 5 12 11
f 6 11 13
f 8 14 22
f 8 22 28
f 8 28 30
f 8 30 29
f 8 29 27
f 8 27 21
f 8 21 20
f 8 20 12
f 9 15 16
f 10 17 18
f 11 19 13
f 11 12 20
f 11 20 21
f 11 21 19
f 14 18 17
f 14 17 22
f 15 23 16
f 15 19 27
f 15 27 29
f 15 29 26
f 15 26 24
f 15 24 25
f 15 25 23
f 17 26 22
f 19 21 27
f 22 26 28
f 26 29 30
f 26 30 28

