# https://github.com/mikedh/trimesh
v 0.01218512 -0.03236050 0.00594170
v 0.01141627 -0.03371324 0.00405817
v 0.01166074 -0.03258201 0.00594170
v 0.01572893 -0.03317501 0.00594203
v 0.01329213 -0.03248246 0.00594170
v 0.02223507 -0.03471815 0.00262187
v 0.01572893 -0.03481834 0.00283249
v 0.01503776 -0.03487434 0.00286792
v 0.01137628 -0.03437468 0.00403022
v 0.01083705 -0.03437468 0.00472480
v 0.01116036 -0.03354835 0.00472480
v 0.01113180 -0.03302256 0.00594170
v 0.02049629 -0.03811744 0.00594170
v 0.02223507 -0.03780943 0.00594170
v 0.02223507 -0.03462358 0.00594170
v 0.01111581 -0.03309412 0.00594170
v 0.01104612 -0.03438899 0.00594170
v 0.01107582 -0.03871727 0.00594170
v 0.01463335 -0.03871727 0.00594170
v 0.02223507 -0.03468767 0.00306359
v 0.02223507 -0.03518981 0.00262187
v 0.01572893 -0.03511452 0.00283249
v 0.01503776 -0.03505976 0.00286792
v 0.01143797 -0.03509523 0.00406565
v 0.01087133 -0.03871727 0.00470140
v 0.01056516 -0.03871727 0.00592480
v 0.02223507 -0.03745849 0.00523899
v 0.02223507 -0.03780196 0.00592480
v 0.01462763 -0.03871727 0.00592838
v 0.01458422 -0.03871727 0.00582892
v 0.01408955 -0.03871727 0.00516944
v 0.01342922 -0.03871727 0.00466272
v 0.01057087 -0.03871727 0.00594040
v 0.02223507 -0.03636957 0.00387290
v 0.01212914 -0.03871727 0.00427496
f 1 2 3
f 1 3 4
f 1 4 5
f 1 5 6
f 1 6 2
f 2 7 8
f 2 8 9
f 2 9 10
f 2 10 11
f 2 11 3
f 2 6 7
f 3 11 12
f 3 12 4
f 4 13 14
f 4 14 15
f 4 15 5
f 4 12 16
f 4 16 17
f 4 17 18
f 4 18 19
f 4 19 13
f 5 15 20
f 5 20 6
f 6 20 15
f 6 15 14
f 6 14 28
f 6 28 27
f 6 27 34
f 6 34 21
f 6 21 22
f 6 22 7
f 7 22 23
f 7 23 8
f 8 23 9
f 9 24 25
f 9 25 10
f 9 23 24
f 10 25 26
f 10 26 16
f 10 16 12
f 10 12 11
f 13 27 28
f 13 28 14
f 13 19 29
f 13 29 30
f 13 30 31
f 13 31 32
f 13 32 27
f 16 26 33
f 16 33 17
f 17 33 18
f 18 33 26
f 18 26 25
f 18 25 35
f 18 35 32
f 18 32 31
f 18 31 30
f 18 30 29
f 18 29 19
f 21 34 35
f 21 35 22
f 22 35 23
f 23 35 24
f 24 35 25
f 27 32 35
f 27 35 34

