# https://github.com/mikedh/trimesh
v 0.02301298 -0.02838309 0.00726816
v 0.02301298 -0.03718446 0.00803705
v 0.02301298 -0.02838309 0.00620412
v 0.01794079 -0.02838309 0.01027854
v 0.02301298 -0.03718446 0.00594246
v 0.01789276 -0.02838309 0.01030622
v 0.01692166 -0.02838309 0.01050358
v 0.01552066 -0.03050955 0.01040535
v 0.01452848 -0.03060088 0.01037677
v 0.01408920 -0.03718446 0.00717439
v 0.02301298 -0.03077493 0.00602417
v 0.01933593 -0.02838309 0.00614027
v 0.02301298 -0.03470302 0.00594246
v 0.01201464 -0.03718446 0.00594246
v 0.01583694 -0.02838309 0.01030220
v 0.01463039 -0.02965483 0.01034016
v 0.01584397 -0.02969016 0.01045491
v 0.01385492 -0.03010804 0.01017986
v 0.01385492 -0.03040788 0.01017986
v 0.01150742 -0.03139356 0.00893498
v 0.01241057 -0.03718446 0.00679798
v 0.01294474 -0.03718446 0.00697703
v 0.01332896 -0.03718446 0.00707080
v 0.01813641 -0.02838309 0.00612464
v 0.02301298 -0.03197515 0.00598086
v 0.02292747 -0.03197515 0.00597997
v 0.01218566 -0.03236115 0.00594246
v 0.01329147 -0.03248264 0.00594246
v 0.01128017 -0.03557410 0.00594246
v 0.01482016 -0.02838309 0.00946365
v 0.01150742 -0.03135565 0.00893498
v 0.01136451 -0.03123158 0.00832460
v 0.01106111 -0.03438939 0.00603087
v 0.01108571 -0.03480813 0.00594246
v 0.01122862 -0.03540006 0.00594246
v 0.01693689 -0.02838309 0.00612375
v 0.01166087 -0.03258259 0.00594246
v 0.01437971 -0.02838309 0.00832460
v 0.01271045 -0.03016318 0.00894525
v 0.01133054 -0.03120401 0.00744051
v 0.01125088 -0.03190450 0.00707437
v 0.01111617 -0.03309353 0.00594246
v 0.01104588 -0.03438853 0.00594246
v 0.01692869 -0.02838309 0.00612419
v 0.01113257 -0.03302201 0.00594246
v 0.01126728 -0.03225776 0.00626395
v 0.01569403 -0.02838309 0.00636174
v 0.01682326 -0.02838309 0.00614384
v 0.01476159 -0.02838309 0.00713956
v 0.01479322 -0.02838309 0.00707303
v 0.01491973 -0.02838309 0.00692925
v 0.01554877 -0.02838309 0.00643184
f 1 2 5
f 1 5 13
f 1 13 25
f 1 25 11
f 1 11 3
f 1 3 12
f 1 12 24
f 1 24 36
f 1 36 44
f 1 44 48
f 1 48 47
f 1 47 52
f 1 52 51
f 1 51 50
f 1 50 49
f 1 49 38
f 1 38 30
f 1 30 15
f 1 15 7
f 1 7 6
f 1 6 4
f 1 4 2
f 2 4 6
f 2 6 7
f 2 7 8
f 2 8 9
f 2 9 10
f 2 10 23
f 2 23 22
f 2 22 21
f 2 21 14
f 2 14 5
f 3 11 12
f 5 14 29
f 5 29 35
f 5 35 34
f 5 34 43
f 5 43 42
f 5 42 45
f 5 45 37
f 5 37 27
f 5 27 28
f 5 28 13
f 7 15 16
f 7 16 9
f 7 9 17
f 7 17 8
f 8 17 9
f 9 16 18
f 9 18 19
f 9 19 20
f 9 20 21
f 9 21 22
f 9 22 23
f 9 23 10
f 11 24 12
f 11 25 26
f 11 26 27
f 11 27 24
f 13 26 25
f 13 28 26
f 14 21 29
f 15 30 18
f 15 18 16
f 18 31 20
f 18 20 19
f 18 30 31
f 20 31 32
f 20 32 33
f 20 33 34
f 20 34 35
f 20 35 29
f 20 29 21
f 24 27 36
f 26 28 27
f 27 37 36
f 30 38 39
f 30 39 31
f 31 39 32
f 32 40 41
f 32 41 42
f 32 42 43
f 32 43 33
f 32 39 38
f 32 38 40
f 33 43 34
f 36 37 44
f 37 45 46
f 37 46 47
f 37 47 48
f 37 48 44
f 38 49 40
f 40 46 45
f 40 45 42
f 40 42 41
f 40 49 50
f 40 50 51
f 40 51 46
f 46 51 52
f 46 52 47

