# https://github.com/mikedh/trimesh
v -0.03665077 -0.03832601 0.00067999
v -0.03459351 -0.03832601 -0.00269469
v -0.03665077 -0.03832601 0.00247146
v -0.03665077 -0.03608600 -0.00269469
v -0.03080852 -0.03832601 -0.00269469
v -0.03499163 -0.03832601 0.00334886
v -0.03665077 -0.03603963 0.00334886
v -0.03665077 -0.03225031 -0.00269469
v -0.03052901 -0.03832601 -0.00240657
v -0.03010204 -0.03307213 -0.00269469
v -0.03010845 -0.03832601 0.00334886
v -0.03665077 -0.02942831 0.00334886
v -0.03199005 -0.02499785 -0.00269469
v -0.03043669 -0.03832601 -0.00127477
v -0.03010204 -0.03307373 -0.00268700
v -0.03012768 -0.03832601 0.00255488
v -0.03010204 -0.02462372 -0.00269469
v -0.03010204 -0.03324001 0.00334886
v -0.03106239 -0.02237411 0.00334886
v -0.03107201 -0.02458215 -0.00269469
v -0.03010204 -0.02199358 0.00334886
v -0.03034501 -0.02205114 0.00334886
f 1 2 5
f 1 5 9
f 1 9 14
f 1 14 16
f 1 16 11
f 1 11 6
f 1 6 3
f 1 3 7
f 1 7 12
f 1 12 8
f 1 8 4
f 1 4 2
f 2 4 8
f 2 8 13
f 2 13 20
f 2 20 17
f 2 17 10
f 2 10 5
f 3 6 7
f 5 10 9
f 6 11 18
f 6 18 21
f 6 21 22
f 6 22 19
f 6 19 12
f 6 12 7
f 8 12 13
f 9 10 14
f 10 15 11
f 10 11 16
f 10 16 14
f 10 17 21
f 10 21 18
f 10 18 15
f 11 15 18
f 12 19 13
f 13 19 20
f 17 20 21
f 19 22 20
f 20 22 21

