# https://github.com/mikedh/trimesh
v 0.04149360 0.04658710 -0.01987925
v 0.04149360 0.04674460 -0.01987925
v 0.04162839 0.04658710 -0.01987925
v 0.03125415 0.04370006 -0.01958470
v 0.04162839 0.04674460 -0.01987925
v 0.03065699 0.04861968 -0.01943404
v 0.03252840 0.04861968 -0.01949778
v 0.03953285 0.04861968 -0.01968900
v 0.04445274 0.04370006 -0.01950647
v 0.03732917 0.04482569 -0.01969865
v 0.03065699 0.04370006 -0.01953351
v 0.03065699 0.04429683 -0.01954703
v 0.03974131 0.04861968 -0.01964457
v 0.04093876 0.04861968 -0.01935291
v 0.04103123 0.04852865 -0.01935678
v 0.04215658 0.04726238 -0.01945045
v 0.04572542 0.04370006 -0.01930848
v 0.03065699 0.04861968 -0.01642279
v 0.03065699 0.04370006 -0.01589548
v 0.04099518 0.04861968 -0.01932490
v 0.04188543 0.04819775 -0.01905352
v 0.04578969 0.04370006 -0.01926599
v 0.03065699 0.04814718 -0.01598240
v 0.03183877 0.04861968 -0.01463033
v 0.03432144 0.04861968 -0.01237720
v 0.03395782 0.04861968 -0.01260995
v 0.03352366 0.04861968 -0.01290837
v 0.03297509 0.04861968 -0.01338546
v 0.03280112 0.04861968 -0.01354674
v 0.03230584 0.04861968 -0.01406149
v 0.03065699 0.04724118 -0.01583753
v 0.03802507 0.04370006 -0.01243128
v 0.03770220 0.04384408 -0.01250951
v 0.03849998 0.04479535 -0.01170310
v 0.03808149 0.04557948 -0.01155630
v 0.03774138 0.04637903 -0.01137184
v 0.03740283 0.04861968 -0.01062821
v 0.03618501 0.04861968 -0.01124243
v 0.03606119 0.04861968 -0.01131583
v 0.04165347 0.04861968 -0.01851173
v 0.04267381 0.04777390 -0.01807424
v 0.04627243 0.04370006 -0.01856581
v 0.04301079 0.04698061 -0.01904773
v 0.04539001 0.04448275 -0.01886134
v 0.03065699 0.04771802 -0.01590514
v 0.03844355 0.04370006 -0.01224296
v 0.03887927 0.04517537 -0.01136991
v 0.03849998 0.04599803 -0.01119124
v 0.03752509 0.04861968 -0.01057798
v 0.04181177 0.04861968 -0.01807424
v 0.04197634 0.04861968 -0.01567818
v 0.04393239 0.04663141 -0.01516922
v 0.04637587 0.04426745 -0.01150898
v 0.04644327 0.04370006 -0.01807424
v 0.03871783 0.04370006 -0.01215508
v 0.04161272 0.04546870 -0.01030757
v 0.04092779 0.04572783 -0.01040415
v 0.03982281 0.04612134 -0.01061758
v 0.03852819 0.04722529 -0.01070643
v 0.04028674 0.04658517 -0.01026218
v 0.03852819 0.04811009 -0.01038194
v 0.03852819 0.04861968 -0.01020617
v 0.04193089 0.04861968 -0.01468055
v 0.04522858 0.04550819 -0.01020327
v 0.04522858 0.04550819 -0.01041477
v 0.04638998 0.04429153 -0.01087544
v 0.04662821 0.04370006 -0.01527353
v 0.04344024 0.04370006 -0.01083971
v 0.04399664 0.04424192 -0.01028826
v 0.04332739 0.04441773 -0.01037517
v 0.04092779 0.04632700 -0.01015112
v 0.04241206 0.04526544 -0.01020520
v 0.03999835 0.04722529 -0.01015884
v 0.03876956 0.04861968 -0.01015305
v 0.04067388 0.04861968 -0.01016271
v 0.04452798 0.04571290 -0.01010669
v 0.04636177 0.04427227 -0.01025156
v 0.04660314 0.04371210 -0.01086288
v 0.04666896 0.04370006 -0.01447581
v 0.04444020 0.04370006 -0.01056639
v 0.04444804 0.04370729 -0.01055867
v 0.04479599 0.04416197 -0.01024383
v 0.04332739 0.04501787 -0.01010766
v 0.04205784 0.04593157 -0.01005647
v 0.04092779 0.04722529 -0.01001398
v 0.03960966 0.04830709 -0.01007869
v 0.03962219 0.04861968 -0.01008834
v 0.04084629 0.04833117 -0.01012987
v 0.04203590 0.04719446 -0.01007386
v 0.04338225 0.04608618 -0.01005551
v 0.04444804 0.04471539 -0.01012118
v 0.04636177 0.04416968 -0.01025156
v 0.04660470 0.04370006 -0.01086868
v 0.04660941 0.04370006 -0.01098940
v 0.04444961 0.04370006 -0.01056446
v 0.04450446 0.04370006 -0.01055867
v 0.04572699 0.04370006 -0.01046209
v 0.04572699 0.04413596 -0.01023321
v 0.04589156 0.04370006 -0.01047078
f 1 2 5
f 1 5 3
f 1 3 4
f 1 4 2
f 2 4 6
f 2 6 7
f 2 7 8
f 2 8 5
f 3 5 9
f 3 9 10
f 3 10 4
f 4 10 9
f 4 9 17
f 4 17 22
f 4 22 42
f 4 42 54
f 4 54 67
f 4 67 79
f 4 79 94
f 4 94 93
f 4 93 99
f 4 99 97
f 4 97 96
f 4 96 95
f 4 95 80
f 4 80 68
f 4 68 55
f 4 55 46
f 4 46 32
f 4 32 19
f 4 19 11
f 4 11 12
f 4 12 6
f 5 8 13
f 5 13 14
f 5 14 15
f 5 15 16
f 5 16 17
f 5 17 9
f 6 12 11
f 6 11 19
f 6 19 31
f 6 31 45
f 6 45 23
f 6 23 18
f 6 18 24
f 6 24 30
f 6 30 29
f 6 29 28
f 6 28 27
f 6 27 26
f 6 26 25
f 6 25 39
f 6 39 38
f 6 38 37
f 6 37 49
f 6 49 62
f 6 62 74
f 6 74 87
f 6 87 75
f 6 75 63
f 6 63 51
f 6 51 50
f 6 50 40
f 6 40 20
f 6 20 14
f 6 14 13
f 6 13 8
f 6 8 7
f 14 20 15
f 15 20 16
f 16 21 17
f 16 20 21
f 17 21 22
f 18 23 24
f 19 25 26
f 19 26 27
f 19 27 28
f 19 28 29
f 19 29 30
f 19 30 31
f 19 32 33
f 19 33 34
f 19 34 35
f 19 35 36
f 19 36 37
f 19 37 38
f 19 38 39
f 19 39 25
f 20 40 21
f 21 41 42
f 21 42 43
f 21 43 22
f 21 40 41
f 22 44 42
f 22 43 44
f 23 45 30
f 23 30 24
f 30 45 31
f 32 46 34
f 32 34 33
f 34 46 47
f 34 47 35
f 35 47 48
f 35 48 36
f 36 48 37
f 37 48 49
f 40 50 41
f 41 50 51
f 41 51 52
f 41 52 53
f 41 53 54
f 41 54 42
f 42 44 43
f 46 55 56
f 46 56 57
f 46 57 47
f 47 57 58
f 47 58 48
f 48 58 59
f 48 59 49
f 49 59 60
f 49 60 61
f 49 61 62
f 51 63 64
f 51 64 65
f 51 65 52
f 52 65 66
f 52 66 53
f 53 66 67
f 53 67 54
f 55 68 69
f 55 69 70
f 55 70 56
f 56 71 57
f 56 70 69
f 56 69 72
f 56 72 71
f 57 71 60
f 57 60 58
f 58 60 59
f 60 71 73
f 60 73 62
f 60 62 61
f 62 73 74
f 63 75 64
f 64 76 77
f 64 77 66
f 64 66 65
f 64 75 76
f 66 77 78
f 66 78 79
f 66 79 67
f 68 80 81
f 68 81 69
f 69 81 82
f 69 82 83
f 69 83 72
f 71 72 84
f 71 84 85
f 71 85 73
f 72 83 84
f 73 85 74
f 74 86 87
f 74 85 86
f 75 87 88
f 75 88 76
f 76 89 90
f 76 90 91
f 76 91 92
f 76 92 77
f 76 88 89
f 77 92 78
f 78 92 93
f 78 93 94
f 78 94 79
f 80 95 81
f 81 95 96
f 81 96 82
f 82 91 83
f 82 96 97
f 82 97 98
f 82 98 91
f 83 91 84
f 84 91 90
f 84 90 85
f 85 87 86
f 85 90 89
f 85 89 87
f 87 89 88
f 91 98 92
f 92 98 99
f 92 99 93
f 97 99 98

