# https://github.com/mikedh/trimesh
v -0.00102759 0.00078952 0.02392507
v -0.00102759 0.00079235 0.02395695
v -0.00102759 0.00090288 0.02266186
v 0.00909202 -0.00134155 0.02186858
v -0.00102759 0.00092838 0.02486782
v -0.00102759 0.00090571 0.02264323
v 0.01148375 -0.00134155 0.02186858
v 0.00965468 -0.00134155 0.02253269
v -0.00102759 0.00091138 0.02261301
v -0.00102759 0.00112392 0.02188555
v -0.00102759 0.00112959 0.02186858
v -0.00102759 0.00093405 0.02489018
v 0.01153686 0.00341085 0.02574267
v 0.01112524 -0.00134155 0.02233436
v 0.01592861 0.01243391 0.02186858
v 0.01592861 0.01420225 0.02609791
v 0.01015759 -0.00134155 0.02252730
v -0.00102759 0.00134496 0.02609791
v -0.00102759 0.00110125 0.02546776
v -0.00102759 0.01631348 0.02186858
v 0.01166300 0.00402581 0.02596294
v 0.01157836 0.00402581 0.02609791
v 0.01097918 0.00302261 0.02609791
v 0.01081320 -0.00134155 0.02250950
v 0.01087129 0.00289509 0.02609791
v 0.01072524 0.00273356 0.02609791
v 0.01039826 0.00217245 0.02583417
v 0.01592861 0.02497097 0.02186858
v 0.01592861 0.01654019 0.02609791
v 0.00350192 0.00150649 0.02609791
v -0.00102759 0.02550374 0.02609791
v -0.00102759 0.02442687 0.02251612
v 0.00043965 0.02451755 0.02186858
v 0.00972771 0.00206476 0.02609791
v 0.00492932 0.00158017 0.02609791
v 0.00470193 0.00156600 0.02609791
v 0.01568131 0.02537338 0.02186858
v 0.01592861 0.02499081 0.02231118
v 0.01592861 0.02431918 0.02382032
v 0.01525806 0.02539322 0.02475935
v 0.01424560 0.02562276 0.02599979
v 0.01411780 0.02542722 0.02609791
v 0.00294424 0.02592032 0.02609791
v 0.00372931 0.02619520 0.02566980
v 0.00372931 0.02642475 0.02506987
v 0.00276166 0.02638507 0.02487942
v -0.00102759 0.02551224 0.02606189
v -0.00102759 0.02509566 0.02311730
v 0.00098405 0.02519485 0.02186858
v 0.01547217 0.02570211 0.02186858
v 0.01548545 0.02570211 0.02279021
v 0.01592861 0.02499931 0.02274757
v 0.01592861 0.02433335 0.02381328
v 0.01510868 0.02619237 0.02436602
v 0.01489126 0.02572478 0.02514564
v 0.01406469 0.02634823 0.02584038
v 0.01378917 0.02608185 0.02609791
v 0.01407465 0.02562560 0.02609791
v 0.00968456 0.02638507 0.02609791
v 0.01092773 0.02756113 0.02256001
v 0.00972771 0.02747895 0.02233188
v 0.00910198 0.02742794 0.02214474
v 0.00271685 0.02641341 0.02392507
v -0.00102759 0.02569361 0.02512452
v -0.00102759 0.02511833 0.02313883
v 0.00120978 0.02535638 0.02186858
v 0.01505391 0.02615270 0.02186858
v 0.01514686 0.02624338 0.02323364
v 0.01514686 0.02624338 0.02356652
v 0.01539250 0.02572478 0.02394992
v 0.01463565 0.02654944 0.02394992
v 0.01431697 0.02650410 0.02512452
v 0.01332775 0.02665713 0.02512452
v 0.01332775 0.02638791 0.02595010
v 0.01309207 0.02632273 0.02609791
v 0.01122649 0.02638791 0.02609791
v 0.01170118 0.02753563 0.02244905
v 0.01092773 0.02760647 0.02186858
v 0.01041652 0.02756397 0.02186858
v 0.00972771 0.02750445 0.02186858
v 0.00938082 0.02747045 0.02186858
v 0.00907542 0.02743361 0.02186858
v 0.00294590 0.02631706 0.02306140
v -0.00102759 0.02549240 0.02392507
v 0.00880654 0.02738260 0.02186858
v 0.00812106 0.02724657 0.02186858
v 0.00732935 0.02708787 0.02186858
v -0.00102759 0.02547823 0.02389112
v 0.00253096 0.02584664 0.02186858
v 0.01478503 0.02641341 0.02186858
v 0.01460245 0.02657778 0.02186858
v 0.01172110 0.02753846 0.02186858
v 0.01219413 0.02636524 0.02609791
v 0.00391686 0.02630289 0.02186858
f 1 2 5
f 1 5 12
f 1 12 19
f 1 19 18
f 1 18 31
f 1 31 47
f 1 47 64
f 1 64 84
f 1 84 88
f 1 88 65
f 1 65 48
f 1 48 32
f 1 32 20
f 1 20 11
f 1 11 10
f 1 10 9
f 1 9 6
f 1 6 3
f 1 3 4
f 1 4 2
f 2 4 5
f 3 6 4
f 4 7 14
f 4 14 24
f 4 24 17
f 4 17 8
f 4 8 5
f 4 6 9
f 4 9 10
f 4 10 11
f 4 11 20
f 4 20 33
f 4 33 49
f 4 49 66
f 4 66 89
f 4 89 94
f 4 94 87
f 4 87 86
f 4 86 85
f 4 85 82
f 4 82 81
f 4 81 80
f 4 80 79
f 4 79 78
f 4 78 92
f 4 92 91
f 4 91 90
f 4 90 67
f 4 67 50
f 4 50 37
f 4 37 28
f 4 28 15
f 4 15 7
f 5 8 12
f 7 13 14
f 7 15 16
f 7 16 13
f 8 17 18
f 8 18 19
f 8 19 12
f 13 21 22
f 13 22 23
f 13 23 14
f 13 16 21
f 14 23 25
f 14 25 26
f 14 26 27
f 14 27 24
f 15 28 38
f 15 38 52
f 15 52 53
f 15 53 39
f 15 39 29
f 15 29 16
f 16 29 42
f 16 42 58
f 16 58 57
f 16 57 75
f 16 75 93
f 16 93 76
f 16 76 59
f 16 59 43
f 16 43 31
f 16 31 18
f 16 18 30
f 16 30 36
f 16 36 35
f 16 35 34
f 16 34 26
f 16 26 25
f 16 25 23
f 16 23 22
f 16 22 21
f 17 24 18
f 18 24 30
f 20 32 33
f 24 27 34
f 24 34 35
f 24 35 36
f 24 36 30
f 26 34 27
f 28 37 38
f 29 39 40
f 29 40 41
f 29 41 42
f 31 43 44
f 31 44 45
f 31 45 46
f 31 46 47
f 32 48 49
f 32 49 33
f 37 50 51
f 37 51 38
f 38 51 52
f 39 53 40
f 40 53 54
f 40 54 55
f 40 55 41
f 41 55 56
f 41 56 57
f 41 57 58
f 41 58 42
f 43 59 44
f 44 59 45
f 45 59 60
f 45 60 46
f 46 60 61
f 46 61 62
f 46 62 63
f 46 63 64
f 46 64 47
f 48 65 66
f 48 66 49
f 50 67 68
f 50 68 51
f 51 68 52
f 52 68 69
f 52 69 54
f 52 54 70
f 52 70 53
f 53 70 54
f 54 69 71
f 54 71 72
f 54 72 56
f 54 56 55
f 56 72 73
f 56 73 74
f 56 74 75
f 56 75 57
f 59 76 60
f 60 73 77
f 60 77 78
f 60 78 61
f 60 76 74
f 60 74 73
f 61 78 79
f 61 79 80
f 61 80 62
f 62 80 81
f 62 81 82
f 62 82 63
f 63 83 84
f 63 84 64
f 63 82 85
f 63 85 86
f 63 86 87
f 63 87 83
f 65 88 66
f 66 88 89
f 67 90 68
f 68 90 91
f 68 91 69
f 69 91 71
f 71 91 92
f 71 92 77
f 71 77 72
f 72 77 73
f 74 76 93
f 74 93 75
f 77 92 78
f 83 87 94
f 83 94 84
f 84 89 88
f 84 94 89

