# https://github.com/mikedh/trimesh
v -0.01204757 -0.02225131 0.02609791
v -0.01233119 -0.02225131 0.02528889
v -0.01364612 -0.02225131 0.02609791
v -0.00102759 -0.02490077 0.02609791
v -0.01254504 -0.02225131 0.02468855
v -0.01652169 -0.02225131 0.02502971
v -0.01522799 -0.02483666 0.02609791
v -0.00102759 -0.02670635 0.02609791
v -0.00102759 -0.02596055 0.02186858
v -0.01316080 -0.02225131 0.02395571
v -0.01652169 -0.02225131 0.02186858
v -0.01652169 -0.02392483 0.02482766
v -0.01610765 -0.02597425 0.02577745
v -0.01611220 -0.02529970 0.02577869
v -0.01542667 -0.02531888 0.02609791
v -0.00219086 -0.02674306 0.02609791
v -0.00102759 -0.02677375 0.02601096
v -0.00102759 -0.02696992 0.02186858
v -0.01423155 -0.02249955 0.02186858
v -0.01530231 -0.02225131 0.02186858
v -0.01652169 -0.02599398 0.02186858
v -0.01652169 -0.02481145 0.02462934
v -0.01632301 -0.02597425 0.02512452
v -0.01608035 -0.02658853 0.02574102
v -0.01565417 -0.02615892 0.02609791
v -0.01567692 -0.02597425 0.02609791
v -0.01427099 -0.02685540 0.02609791
v -0.00102759 -0.02710472 0.02512452
v -0.00102759 -0.02720117 0.02272521
v -0.00996976 -0.02778695 0.02186858
v -0.01652169 -0.02570136 0.02388781
v -0.01610613 -0.02660662 0.02186858
v -0.01616073 -0.02666525 0.02426541
v -0.01614405 -0.02665319 0.02512452
v -0.01547065 -0.02698527 0.02512452
v -0.01547065 -0.02676005 0.02596832
v -0.01547065 -0.02640003 0.02609791
v -0.01443478 -0.02683786 0.02609791
v -0.01427099 -0.02711294 0.02512452
v -0.01140300 -0.02780284 0.02339636
v -0.01111180 -0.02780284 0.02339636
v -0.00102759 -0.02722966 0.02396938
v -0.00102759 -0.02720336 0.02276951
v -0.01067956 -0.02784942 0.02186858
v -0.01033224 -0.02781928 0.02186858
v -0.01548885 -0.02689540 0.02186858
v -0.01248740 -0.02778312 0.02186858
v -0.01247375 -0.02777544 0.02213356
v -0.01526439 -0.02662196 0.02609791
v -0.01183069 -0.02781106 0.02261011
v -0.01185799 -0.02784668 0.02186858
v -0.01150613 -0.02784778 0.02186858
v -0.00102759 -0.02723295 0.02392507
f 1 2 5
f 1 5 10
f 1 10 20
f 1 20 11
f 1 11 6
f 1 6 3
f 1 3 7
f 1 7 15
f 1 15 26
f 1 26 25
f 1 25 37
f 1 37 49
f 1 49 38
f 1 38 27
f 1 27 16
f 1 16 8
f 1 8 4
f 1 4 2
f 2 4 5
f 3 6 7
f 4 8 17
f 4 17 28
f 4 28 42
f 4 42 53
f 4 53 43
f 4 43 29
f 4 29 18
f 4 18 9
f 4 9 10
f 4 10 5
f 6 11 21
f 6 21 31
f 6 31 22
f 6 22 12
f 6 12 13
f 6 13 14
f 6 14 15
f 6 15 7
f 8 16 17
f 9 18 30
f 9 30 45
f 9 45 44
f 9 44 52
f 9 52 51
f 9 51 47
f 9 47 46
f 9 46 32
f 9 32 21
f 9 21 11
f 9 11 20
f 9 20 19
f 9 19 10
f 10 19 20
f 12 22 23
f 12 23 13
f 13 24 25
f 13 25 26
f 13 26 14
f 13 23 24
f 14 26 15
f 16 27 17
f 17 27 28
f 18 29 30
f 21 32 33
f 21 33 34
f 21 34 31
f 22 31 23
f 23 34 24
f 23 31 34
f 24 34 35
f 24 35 36
f 24 36 25
f 25 36 37
f 27 38 35
f 27 35 39
f 27 39 40
f 27 40 41
f 27 41 28
f 28 41 42
f 29 43 44
f 29 44 45
f 29 45 30
f 32 46 33
f 33 46 35
f 33 35 34
f 35 47 48
f 35 48 40
f 35 40 39
f 35 38 36
f 35 46 47
f 36 38 49
f 36 49 37
f 40 48 50
f 40 50 51
f 40 51 52
f 40 52 44
f 40 44 41
f 41 44 53
f 41 53 42
f 43 53 44
f 47 51 48
f 48 51 50

