# https://github.com/mikedh/trimesh
v 0.00626061 0.01435921 0.01568201
v 0.00778966 0.00647990 0.01568201
v 0.00762894 0.00647990 0.01672475
v 0.00762516 0.00647990 0.01678153
v 0.00626061 0.01437677 0.01586568
v 0.00626061 0.01727351 0.01568201
v 0.00926135 0.00647990 0.01568201
v 0.00767810 0.00647990 0.01752344
v 0.00626061 0.01466513 0.01752344
v 0.00626061 0.01760871 0.01671610
v 0.01092527 0.02082601 0.01752344
v 0.01197530 0.02139248 0.01752344
v 0.01146793 0.02026540 0.01608865
v 0.01269886 0.02021417 0.01568201
v 0.00926072 0.00647990 0.01752344
v 0.01269886 0.01439873 0.01568201
v 0.00626061 0.01777850 0.01752344
v 0.01212783 0.02143346 0.01752344
v 0.01269886 0.02073819 0.01624294
v 0.01269886 0.02046739 0.01585288
v 0.01269886 0.02044690 0.01583865
v 0.01269886 0.01531210 0.01752344
v 0.01269886 0.02120366 0.01752344
v 0.01269886 0.02119780 0.01745981
v 0.01269886 0.02116267 0.01708002
f 1 2 3
f 1 3 4
f 1 4 5
f 1 5 9
f 1 9 17
f 1 17 10
f 1 10 6
f 1 6 14
f 1 14 16
f 1 16 7
f 1 7 2
f 2 7 15
f 2 15 8
f 2 8 4
f 2 4 3
f 4 8 9
f 4 9 5
f 6 10 11
f 6 11 12
f 6 12 13
f 6 13 14
f 7 16 15
f 8 15 22
f 8 22 23
f 8 23 18
f 8 18 12
f 8 12 11
f 8 11 17
f 8 17 9
f 10 17 11
f 12 18 19
f 12 19 13
f 13 19 20
f 13 20 21
f 13 21 14
f 14 21 20
f 14 20 19
f 14 19 25
f 14 25 24
f 14 24 23
f 14 23 22
f 14 22 16
f 15 16 22
f 18 23 24
f 18 24 25
f 18 25 19

