# https://github.com/mikedh/trimesh
v 0.03098833 0.02494900 0.00290367
v 0.03354675 0.02435499 0.00290367
v 0.02928828 0.02494900 0.00290367
v 0.03090788 0.02494900 0.00319038
v 0.03354675 0.02395600 0.00311956
v 0.03354675 0.02202020 0.00290367
v 0.03061397 0.02494900 0.00340191
v 0.03009203 0.02494900 0.00375029
v 0.02928828 0.02362250 0.00290367
v 0.02928828 0.02494900 0.00396608
v 0.03354675 0.02321457 0.00346025
v 0.03354675 0.02200173 0.00346399
v 0.03309318 0.02211223 0.00290367
v 0.02984107 0.02494900 0.00382651
v 0.02967223 0.02494900 0.00387778
f 1 2 6
f 1 6 13
f 1 13 9
f 1 9 3
f 1 3 10
f 1 10 15
f 1 15 14
f 1 14 8
f 1 8 7
f 1 7 4
f 1 4 2
f 2 5 11
f 2 11 12
f 2 12 6
f 2 4 7
f 2 7 8
f 2 8 5
f 3 9 10
f 5 8 11
f 6 12 13
f 8 14 11
f 9 13 12
f 9 12 10
f 10 12 11
f 10 11 15
f 11 14 15

