# https://github.com/mikedh/trimesh
v -0.01652169 -0.02225131 0.02186858
v -0.01530244 -0.02225131 0.02186858
v -0.01652169 -0.02225131 0.02502971
v -0.01652169 -0.01163192 0.02186858
v -0.01316086 -0.02225131 0.02395571
v -0.01314873 -0.02156419 0.02186858
v -0.01364630 -0.02225131 0.02609791
v -0.01652169 -0.02110183 0.02546403
v -0.01359047 -0.00345706 0.02186858
v -0.01652169 -0.01466511 0.02609791
v -0.01254598 -0.02225131 0.02468855
v -0.01200310 -0.02104617 0.02186858
v -0.01204921 -0.02225131 0.02609791
v -0.01652169 -0.01727020 0.02609791
v -0.01365439 -0.00380597 0.02210126
v -0.01368513 -0.00494262 0.02336530
v -0.01228627 -0.00038319 0.02186858
v -0.01265520 -0.00506249 0.02609791
v -0.01260908 -0.00468575 0.02594348
v -0.01370455 -0.00609211 0.02460202
v -0.01233319 -0.02225131 0.02528889
v -0.01208158 -0.02225131 0.02600517
v -0.00825715 -0.01748211 0.02186858
v -0.00825715 -0.01667726 0.02609791
v -0.01277009 -0.00432185 0.02516510
v -0.01130407 -0.00255159 0.02576958
v -0.01208562 -0.00038319 0.02210251
v -0.01044404 -0.00038319 0.02186858
v -0.01240682 -0.00388517 0.02559197
v -0.01173449 -0.00335645 0.02609791
v -0.01162688 -0.00321303 0.02609791
v -0.01148368 -0.00302466 0.02609791
v -0.01243999 -0.00454233 0.02609791
v -0.01225391 -0.00418271 0.02609791
v -0.00825715 -0.00420840 0.02186858
v -0.00825715 -0.00467933 0.02609791
v -0.01067219 -0.00262009 0.02609791
v -0.01166734 -0.00038319 0.02238156
v -0.00985019 -0.00123086 0.02186858
v -0.01076200 -0.00038319 0.02242214
v -0.00996184 -0.00248310 0.02591035
v -0.00982592 -0.00235038 0.02512452
v -0.00985990 -0.00278706 0.02609791
v -0.01018919 -0.00261153 0.02609791
v -0.01067219 -0.00248738 0.02589752
v -0.01134695 -0.00038319 0.02242421
f 1 2 5
f 1 5 11
f 1 11 21
f 1 21 22
f 1 22 13
f 1 13 7
f 1 7 3
f 1 3 8
f 1 8 14
f 1 14 10
f 1 10 4
f 1 4 9
f 1 9 17
f 1 17 28
f 1 28 39
f 1 39 35
f 1 35 23
f 1 23 12
f 1 12 6
f 1 6 2
f 2 6 5
f 3 7 8
f 4 10 9
f 5 6 11
f 6 12 11
f 7 13 24
f 7 24 36
f 7 36 43
f 7 43 44
f 7 44 37
f 7 37 32
f 7 32 31
f 7 31 30
f 7 30 34
f 7 34 33
f 7 33 18
f 7 18 10
f 7 10 14
f 7 14 8
f 9 15 16
f 9 16 17
f 9 10 15
f 10 18 19
f 10 19 20
f 10 20 16
f 10 16 15
f 11 12 21
f 12 13 22
f 12 22 21
f 12 23 13
f 13 23 24
f 16 20 25
f 16 25 17
f 17 26 27
f 17 27 38
f 17 38 46
f 17 46 40
f 17 40 28
f 17 25 29
f 17 29 30
f 17 30 31
f 17 31 32
f 17 32 26
f 18 33 19
f 19 33 34
f 19 34 29
f 19 29 25
f 19 25 20
f 23 35 36
f 23 36 24
f 26 37 38
f 26 38 27
f 26 32 37
f 28 40 41
f 28 41 42
f 28 42 36
f 28 36 39
f 29 34 30
f 35 39 36
f 36 42 41
f 36 41 43
f 37 44 41
f 37 41 45
f 37 45 38
f 38 45 46
f 40 46 41
f 41 46 45
f 41 44 43

