# https://github.com/mikedh/trimesh
v -0.00084545 0.03897840 -0.00988668
v 0.00012996 0.03845702 0.00232400
v -0.00084545 0.03855037 0.00232400
v -0.00084545 0.04023899 -0.00988668
v 0.03063407 0.03841622 -0.00988668
v 0.00132842 0.03844976 0.00232400
v 0.00132842 0.03847500 0.00290242
v 0.00070921 0.03847880 0.00290242
v 0.00012996 0.03848468 0.00290242
v -0.00084545 0.03856939 0.00290242
v -0.00084545 0.04128764 -0.00606811
v 0.00033636 0.04042569 -0.00988668
v 0.03316415 0.03841622 -0.00988668
v 0.03029118 0.03841622 -0.00969388
v 0.03022127 0.03841622 -0.00965256
v 0.03018132 0.03841622 -0.00960373
v 0.02960539 0.03841622 -0.00868477
v 0.02930578 0.03841622 -0.00795736
v 0.02905277 0.03841622 -0.00718989
v 0.02836699 0.03841622 -0.00367430
v 0.02829708 0.03841622 -0.00007607
v 0.02846686 0.03841622 0.00112459
v 0.02885303 0.03841622 0.00290242
v -0.00084545 0.04049968 0.00290242
v 0.00384518 0.04082607 -0.00988668
v -0.00084545 0.04129559 -0.00488122
v 0.01212454 0.04156769 -0.00988668
v 0.03279796 0.03883388 -0.00988668
v 0.03213548 0.03962841 -0.00487496
v 0.03310756 0.03841622 -0.00465836
v 0.03139310 0.03841622 0.00290242
v -0.00063239 0.04079253 0.00290242
v -0.00040269 0.04083851 0.00290242
v 0.00014328 0.04094154 0.00290242
v 0.00132842 0.04116351 0.00290242
v 0.00852916 0.04149854 -0.00127548
v 0.02970194 0.04194836 -0.00247614
v 0.02911602 0.04188577 -0.00988668
v 0.03212882 0.03962045 -0.00607437
v 0.03092703 0.04087585 -0.00988668
v 0.03210218 0.03962460 -0.00367430
v 0.03309757 0.03841622 -0.00390466
v 0.03092703 0.04087482 -0.00967510
v 0.03030783 0.04144841 -0.00607437
v 0.02968862 0.04193625 -0.00127548
v 0.03240846 0.03841622 -0.00010862
v 0.03221204 0.03885428 -0.00009235
v 0.03197901 0.03948838 -0.00050300
v 0.02953882 0.04183322 0.00173932
v 0.02993164 0.04004710 0.00290242
v 0.02052707 0.04115487 0.00290242
v 0.02948888 0.04183322 0.00173932
v 0.02933574 0.04186399 0.00112459
v 0.02907608 0.04190998 -0.00007607
v 0.02881641 0.04191966 -0.00121789
v 0.03024790 0.04147572 -0.00988668
v 0.02970527 0.04190756 -0.00607437
v 0.02964867 0.04188577 -0.00988668
v 0.03200897 0.03953160 -0.00127548
v 0.02965866 0.04190998 -0.00007607
v 0.03271806 0.03841622 -0.00127548
v 0.02958875 0.04186399 0.00112459
v 0.02628300 0.04088277 0.00290242
v 0.02893626 0.04052907 0.00290242
v 0.02949886 0.04030088 0.00290242
v 0.03014137 0.04155144 -0.00988668
f 1 2 3
f 1 3 10
f 1 10 24
f 1 24 26
f 1 26 11
f 1 11 4
f 1 4 12
f 1 12 25
f 1 25 27
f 1 27 38
f 1 38 58
f 1 58 66
f 1 66 56
f 1 56 40
f 1 40 28
f 1 28 13
f 1 13 5
f 1 5 2
f 2 6 7
f 2 7 8
f 2 8 9
f 2 9 10
f 2 10 3
f 2 5 6
f 4 11 12
f 5 13 30
f 5 30 42
f 5 42 61
f 5 61 46
f 5 46 31
f 5 31 23
f 5 23 22
f 5 22 21
f 5 21 20
f 5 20 19
f 5 19 18
f 5 18 17
f 5 17 16
f 5 16 15
f 5 15 14
f 5 14 6
f 6 14 15
f 6 15 16
f 6 16 17
f 6 17 18
f 6 18 19
f 6 19 20
f 6 20 21
f 6 21 22
f 6 22 23
f 6 23 7
f 7 23 31
f 7 31 50
f 7 50 65
f 7 65 64
f 7 64 63
f 7 63 51
f 7 51 35
f 7 35 34
f 7 34 33
f 7 33 32
f 7 32 24
f 7 24 10
f 7 10 9
f 7 9 8
f 11 25 12
f 11 26 27
f 11 27 25
f 13 28 29
f 13 29 30
f 24 32 26
f 26 32 33
f 26 33 34
f 26 34 35
f 26 35 36
f 26 36 27
f 27 36 37
f 27 37 38
f 28 39 29
f 28 40 39
f 29 41 42
f 29 42 30
f 29 39 40
f 29 40 43
f 29 43 44
f 29 44 45
f 29 45 41
f 31 46 47
f 31 47 48
f 31 48 49
f 31 49 50
f 35 51 49
f 35 49 52
f 35 52 53
f 35 53 54
f 35 54 36
f 36 54 55
f 36 55 37
f 37 55 45
f 37 45 44
f 37 44 56
f 37 56 57
f 37 57 58
f 37 58 38
f 40 56 44
f 40 44 43
f 41 59 42
f 41 45 60
f 41 60 59
f 42 59 48
f 42 48 61
f 45 55 54
f 45 54 60
f 46 61 47
f 47 61 48
f 48 59 60
f 48 60 62
f 48 62 49
f 49 62 53
f 49 53 52
f 49 51 63
f 49 63 64
f 49 64 65
f 49 65 50
f 53 62 60
f 53 60 54
f 56 66 57
f 57 66 58

