# https://github.com/mikedh/trimesh
v 0.01664584 -0.00917418 0.01752344
v 0.01697505 -0.00917418 0.01672475
v 0.01698400 -0.01037407 0.01672475
v 0.01664909 -0.00952902 0.01752344
v 0.01690189 -0.00835416 0.01752344
v 0.01739531 -0.00917418 0.01594031
v 0.01749611 -0.00852362 0.01607495
v 0.01671087 -0.01030924 0.01752344
v 0.01740994 -0.01037407 0.01596915
v 0.01749936 -0.01090179 0.01609226
v 0.01743758 -0.01090179 0.01620311
v 0.01718965 -0.01090179 0.01672475
v 0.01704903 -0.01090179 0.01717754
v 0.01684012 -0.01064134 0.01752344
v 0.01701245 -0.00805049 0.01752344
v 0.01764080 -0.00917418 0.01568201
v 0.01774729 -0.00887164 0.01568201
v 0.01731321 -0.00824497 0.01672475
v 0.02342523 0.00071496 0.01568201
v 0.01775216 -0.01037634 0.01568201
v 0.01813259 -0.01089042 0.01568201
v 0.01813259 -0.01090179 0.01568958
v 0.01695961 -0.01090179 0.01752344
v 0.01747253 -0.00732942 0.01752344
v 0.02335370 0.00071496 0.01752344
v 0.02477542 0.00071496 0.01568201
v 0.01814885 -0.01090179 0.01568201
v 0.01855610 -0.01090179 0.01752344
v 0.02456326 0.00071496 0.01752344
v 0.02477461 0.00071496 0.01667680
v 0.02478842 0.00042494 0.01568201
v 0.02165641 -0.01090179 0.01568201
v 0.02066307 -0.01090179 0.01627737
v 0.02476891 -0.00634335 0.01752344
v 0.02475916 0.00003825 0.01752344
v 0.02483557 -0.00077267 0.01568201
v 0.02491442 -0.00437462 0.01752344
v 0.02482663 -0.00774000 0.01568201
v 0.02478192 -0.00743633 0.01619986
v 0.02488841 -0.00557451 0.01752344
v 0.02495019 -0.00675961 0.01568201
f 1 2 3
f 1 3 4
f 1 4 8
f 1 8 14
f 1 14 23
f 1 23 28
f 1 28 34
f 1 34 40
f 1 40 37
f 1 37 35
f 1 35 29
f 1 29 25
f 1 25 24
f 1 24 15
f 1 15 5
f 1 5 2
f 2 6 3
f 2 5 7
f 2 7 6
f 3 8 4
f 3 6 9
f 3 9 10
f 3 10 11
f 3 11 12
f 3 12 13
f 3 13 14
f 3 14 8
f 5 15 7
f 6 16 9
f 6 7 16
f 7 17 16
f 7 15 18
f 7 18 19
f 7 19 17
f 9 16 20
f 9 20 10
f 10 21 22
f 10 22 27
f 10 27 32
f 10 32 33
f 10 33 28
f 10 28 23
f 10 23 13
f 10 13 12
f 10 12 11
f 10 20 21
f 13 23 14
f 15 24 19
f 15 19 18
f 16 17 19
f 16 19 26
f 16 26 31
f 16 31 36
f 16 36 41
f 16 41 38
f 16 38 32
f 16 32 27
f 16 27 21
f 16 21 20
f 19 25 29
f 19 29 30
f 19 30 26
f 19 24 25
f 21 27 22
f 26 30 31
f 28 33 34
f 29 35 30
f 30 36 31
f 30 35 37
f 30 37 36
f 32 38 39
f 32 39 34
f 32 34 33
f 34 39 38
f 34 38 40
f 36 37 41
f 37 40 41
f 38 41 40

