# https://github.com/mikedh/trimesh
v -0.01177101 -0.01379346 0.01310904
v -0.01209023 -0.01545704 0.01568201
v -0.01177101 -0.01573242 0.01568201
v -0.01177101 -0.01379346 0.01299241
v -0.01631813 -0.01379346 0.01568201
v -0.01177101 -0.01790618 0.01568201
v -0.01177101 -0.01616678 0.01299241
v -0.02600620 -0.01379346 0.01299241
v -0.02470145 -0.01379346 0.01568201
v -0.01177101 -0.01787026 0.01552483
v -0.01439028 -0.02023094 0.01568201
v -0.01177101 -0.01634637 0.01315485
v -0.01323050 -0.01855871 0.01299241
v -0.02601038 -0.01397505 0.01299241
v -0.02600620 -0.01379346 0.01301242
v -0.02547789 -0.01379346 0.01568096
v -0.02547928 -0.01379679 0.01568201
v -0.01177101 -0.01731219 0.01425428
v -0.01483356 -0.02058813 0.01568201
v -0.01177101 -0.01689979 0.01377091
v -0.01332947 -0.01860128 0.01299241
v -0.02600899 -0.01410742 0.01299241
v -0.02592674 -0.01517501 0.01552483
v -0.02596299 -0.01397505 0.01432510
v -0.02594068 -0.01379346 0.01432089
v -0.02580268 -0.01379346 0.01536082
v -0.02581383 -0.01409478 0.01568201
v -0.02131689 -0.02058813 0.01568201
v -0.01896388 -0.02058813 0.01299241
v -0.02597274 -0.01517501 0.01299241
v -0.02596020 -0.01530738 0.01299241
v -0.02584729 -0.01637497 0.01299241
v -0.02578177 -0.01623861 0.01568201
v -0.02591559 -0.01516836 0.01568201
v -0.02582917 -0.01400100 0.01547955
v -0.02365876 -0.01863321 0.01568201
v -0.02435992 -0.01806516 0.01552483
v -0.02141726 -0.02058813 0.01485507
v -0.02161799 -0.02058813 0.01299241
v -0.02571904 -0.01703548 0.01299241
v -0.02570371 -0.01701619 0.01393546
v -0.02562146 -0.01683859 0.01568201
v -0.02434877 -0.01805319 0.01568201
v -0.02441708 -0.01812635 0.01432510
v -0.02509873 -0.01739001 0.01568201
f 1 2 3
f 1 3 6
f 1 6 10
f 1 10 18
f 1 18 20
f 1 20 12
f 1 12 7
f 1 7 4
f 1 4 8
f 1 8 15
f 1 15 25
f 1 25 26
f 1 26 16
f 1 16 9
f 1 9 5
f 1 5 2
f 2 5 9
f 2 9 17
f 2 17 27
f 2 27 34
f 2 34 33
f 2 33 42
f 2 42 45
f 2 45 43
f 2 43 36
f 2 36 28
f 2 28 19
f 2 19 11
f 2 11 6
f 2 6 3
f 4 7 13
f 4 13 21
f 4 21 29
f 4 29 39
f 4 39 40
f 4 40 32
f 4 32 31
f 4 31 30
f 4 30 22
f 4 22 14
f 4 14 8
f 6 11 10
f 7 12 13
f 8 14 15
f 9 16 17
f 10 11 13
f 10 13 18
f 11 19 13
f 12 20 13
f 13 19 21
f 13 20 18
f 14 22 23
f 14 23 24
f 14 24 15
f 15 24 25
f 16 26 27
f 16 27 17
f 19 28 38
f 19 38 39
f 19 39 29
f 19 29 21
f 22 30 23
f 23 30 31
f 23 31 32
f 23 32 33
f 23 33 34
f 23 34 24
f 24 34 35
f 24 35 25
f 25 35 26
f 26 35 27
f 27 35 34
f 28 36 37
f 28 37 38
f 32 40 41
f 32 41 33
f 33 41 42
f 36 43 37
f 37 44 38
f 37 43 45
f 37 45 41
f 37 41 44
f 38 44 39
f 39 44 40
f 40 44 41
f 41 45 42

