# https://github.com/mikedh/trimesh
v -0.02584732 -0.01619312 0.02032464
v -0.02584259 -0.01625294 0.01912522
v -0.02562731 -0.01688568 0.01792494
v -0.02560839 -0.01685263 0.01912522
v -0.02556344 -0.01679281 0.02032464
v -0.02547591 -0.01654255 0.02186858
v -0.02574205 -0.01594286 0.02186858
v -0.02578581 -0.01575241 0.02186858
v -0.02582011 -0.01511022 0.02186858
v -0.02584732 -0.01534632 0.02032464
v -0.02583076 -0.01628599 0.01792494
v -0.02562850 -0.01688725 0.01752344
v -0.02584259 -0.01552103 0.01912522
v -0.02583431 -0.01534632 0.01752344
v -0.01610683 -0.02660662 0.02186858
v -0.02489870 -0.01739880 0.02152449
v -0.02487622 -0.01739093 0.02186858
v -0.02581893 -0.01469311 0.02186858
v -0.02582603 -0.01628756 0.01752344
v -0.01597909 -0.02648385 0.01752344
v -0.01610328 -0.02660190 0.02152449
v -0.02578108 -0.01429804 0.02186858
v -0.02567344 -0.01504411 0.01752344
v -0.01547284 -0.02693086 0.02152449
v -0.01548940 -0.02689466 0.02186858
v -0.02471536 -0.01756249 0.02186858
v -0.01537822 -0.02690253 0.01752344
v -0.02543215 -0.01476867 0.01752344
v -0.02528903 -0.01378335 0.02186858
v -0.01537230 -0.02691040 0.01792494
v -0.01427228 -0.02717640 0.01752344
v -0.01427228 -0.02721575 0.02152449
v -0.01376486 -0.02731806 0.02186858
v -0.01512864 -0.02698438 0.02186858
v -0.02513645 -0.01363225 0.02186858
v -0.02484429 -0.01437202 0.01752344
v -0.01376486 -0.02713391 0.01752344
v -0.01376486 -0.02726927 0.01963306
v -0.01376486 -0.02732436 0.02084652
v -0.01376486 -0.02733380 0.02152449
v -0.01376486 -0.01525503 0.02186858
v -0.02134670 -0.01133580 0.02186858
v -0.02105100 -0.01219520 0.01752344
v -0.01376486 -0.01611915 0.01752344
v -0.01449465 -0.01277600 0.02186858
v -0.02111132 -0.01125553 0.02186858
v -0.02019819 -0.01186309 0.01752344
v -0.02081444 -0.01208974 0.01752344
v -0.01898580 -0.01209761 0.01752344
v -0.01595188 -0.01125553 0.02002564
v -0.01584543 -0.01125553 0.02013239
v -0.01451003 -0.01274767 0.02186858
v -0.01720448 -0.01125553 0.02186858
v -0.01798041 -0.01125553 0.02020512
v -0.01939269 -0.01195280 0.01752344
v -0.01694781 -0.01125553 0.01985380
v -0.01657878 -0.01125553 0.01980872
v -0.01562543 -0.01125553 0.02113404
v -0.01496423 -0.01198901 0.02186858
v -0.01663437 -0.01125553 0.02175587
v -0.01573306 -0.01125553 0.02132076
f 1 2 3
f 1 3 4
f 1 4 5
f 1 5 6
f 1 6 7
f 1 7 8
f 1 8 9
f 1 9 10
f 1 10 13
f 1 13 2
f 2 11 12
f 2 12 3
f 2 13 14
f 2 14 11
f 3 12 15
f 3 15 4
f 4 15 16
f 4 16 5
f 5 16 17
f 5 17 6
f 6 17 26
f 6 26 15
f 6 15 25
f 6 25 34
f 6 34 33
f 6 33 41
f 6 41 45
f 6 45 52
f 6 52 59
f 6 59 53
f 6 53 46
f 6 46 42
f 6 42 35
f 6 35 29
f 6 29 22
f 6 22 18
f 6 18 9
f 6 9 8
f 6 8 7
f 9 18 10
f 10 18 14
f 10 14 13
f 11 14 19
f 11 19 12
f 12 19 14
f 12 14 23
f 12 23 28
f 12 28 36
f 12 36 43
f 12 43 48
f 12 48 47
f 12 47 55
f 12 55 49
f 12 49 44
f 12 44 37
f 12 37 31
f 12 31 27
f 12 27 20
f 12 20 21
f 12 21 15
f 14 18 22
f 14 22 23
f 15 21 24
f 15 24 25
f 15 26 16
f 16 26 17
f 20 27 21
f 21 27 24
f 22 28 23
f 22 29 28
f 24 27 30
f 24 30 31
f 24 31 32
f 24 32 33
f 24 33 34
f 24 34 25
f 27 31 30
f 28 29 35
f 28 35 36
f 31 37 38
f 31 38 39
f 31 39 40
f 31 40 32
f 32 40 33
f 33 40 39
f 33 39 38
f 33 38 37
f 33 37 44
f 33 44 41
f 35 42 36
f 36 42 43
f 41 44 45
f 42 46 47
f 42 47 48
f 42 48 43
f 44 49 50
f 44 50 51
f 44 51 52
f 44 52 45
f 46 53 60
f 46 60 61
f 46 61 58
f 46 58 51
f 46 51 50
f 46 50 57
f 46 57 56
f 46 56 54
f 46 54 47
f 47 54 56
f 47 56 57
f 47 57 55
f 49 55 50
f 50 55 57
f 51 58 59
f 51 59 52
f 53 59 60
f 58 61 59
f 59 61 60

