# https://github.com/mikedh/trimesh
v -0.02611882 0.02605243 0.00586861
v -0.02611882 0.02693073 0.00349449
v -0.02248782 0.02605243 0.00613670
v -0.02611882 0.02605243 0.00733409
v -0.02611882 0.03151028 0.00349449
v -0.02564393 0.02738537 0.00349449
v -0.02544025 0.02781010 0.00349449
v -0.02541573 0.02786993 0.00349449
v -0.02489747 0.02922531 0.00349449
v -0.02489462 0.02925577 0.00349449
v -0.02248782 0.02682548 0.00611712
v -0.02248782 0.02605243 0.00723893
v -0.02611882 0.02882249 0.00896052
v -0.02543954 0.03151028 0.00349449
v -0.02611882 0.03151028 0.00873051
v -0.02491524 0.03042523 0.00349449
v -0.02248782 0.02802593 0.00609917
v -0.02248782 0.02784108 0.00610026
v -0.02248782 0.03151028 0.00736780
v -0.02611882 0.02922531 0.00904970
v -0.02507342 0.03076501 0.00349449
v -0.02248782 0.03151028 0.00617911
v -0.02611882 0.03042523 0.00894095
v -0.02514807 0.03151028 0.00843904
v -0.02492804 0.03045568 0.00349449
v -0.02611882 0.02986267 0.00903285
f 1 2 3
f 1 3 12
f 1 12 4
f 1 4 13
f 1 13 20
f 1 20 26
f 1 26 23
f 1 23 15
f 1 15 5
f 1 5 2
f 2 5 14
f 2 14 21
f 2 21 25
f 2 25 16
f 2 16 10
f 2 10 9
f 2 9 8
f 2 8 7
f 2 7 6
f 2 6 3
f 3 6 7
f 3 7 8
f 3 8 9
f 3 9 10
f 3 10 11
f 3 11 18
f 3 18 17
f 3 17 22
f 3 22 19
f 3 19 12
f 4 12 13
f 5 15 24
f 5 24 19
f 5 19 22
f 5 22 14
f 10 16 17
f 10 17 18
f 10 18 11
f 12 19 20
f 12 20 13
f 14 22 21
f 15 23 24
f 16 25 22
f 16 22 17
f 19 24 26
f 19 26 20
f 21 22 25
f 23 26 24

