# https://github.com/mikedh/trimesh
v -0.03073524 -0.03317571 0.00334945
v -0.03073524 -0.03317571 0.00828761
v -0.03073524 -0.02628678 0.00334945
v -0.02977534 -0.03317571 0.00334945
v -0.03073524 -0.03139126 0.00911052
v -0.02867124 -0.03317571 0.00832041
v -0.02867124 -0.03184311 0.00925430
v -0.02987176 -0.03167721 0.00921033
v -0.03066016 -0.03152816 0.00907352
v -0.03073524 -0.02628678 0.00883621
v -0.02312429 -0.02628678 0.00334945
v -0.02202019 -0.03283379 0.00334945
v -0.02202019 -0.03317503 0.00344786
v -0.02267207 -0.03317571 0.00349393
v -0.03073524 -0.03078903 0.00935830
v -0.02949292 -0.02920083 0.01035919
v -0.02747158 -0.03317571 0.00830296
v -0.02747158 -0.03241971 0.00882854
v -0.02747158 -0.03181950 0.00916845
v -0.02867124 -0.02931346 0.01047994
v -0.03073524 -0.02645673 0.00904979
v -0.03073439 -0.02645471 0.00904910
v -0.03024036 -0.02645471 0.00904910
v -0.03010043 -0.02628678 0.00881597
v -0.02202019 -0.02628678 0.00590892
v -0.02294511 -0.02697871 0.00334945
v -0.02202019 -0.03095425 0.00334945
v -0.02202019 -0.03317571 0.00419330
v -0.03073524 -0.02957917 0.00975614
v -0.02949292 -0.02862827 0.01035919
v -0.03073524 -0.02834975 0.00980151
v -0.03073524 -0.02921028 0.00977569
v -0.02267207 -0.03317571 0.00726159
v -0.02202019 -0.03317503 0.00723646
v -0.02783591 -0.02920016 0.01036338
v -0.02786919 -0.02837470 0.01032918
v -0.02867551 -0.02828703 0.01042899
v -0.03073524 -0.02711157 0.00931084
v -0.02827875 -0.02774549 0.01015817
v -0.02803728 -0.02774549 0.01015817
v -0.02202019 -0.02628678 0.00720715
v -0.02202019 -0.03317571 0.00645822
f 1 2 5
f 1 5 15
f 1 15 29
f 1 29 32
f 1 32 31
f 1 31 38
f 1 38 21
f 1 21 10
f 1 10 3
f 1 3 11
f 1 11 26
f 1 26 27
f 1 27 12
f 1 12 4
f 1 4 14
f 1 14 28
f 1 28 42
f 1 42 33
f 1 33 17
f 1 17 6
f 1 6 2
f 2 6 7
f 2 7 8
f 2 8 9
f 2 9 5
f 3 10 24
f 3 24 41
f 3 41 25
f 3 25 11
f 4 12 13
f 4 13 14
f 5 9 16
f 5 16 15
f 6 17 7
f 7 17 18
f 7 18 19
f 7 19 20
f 7 20 8
f 8 16 9
f 8 20 16
f 10 21 22
f 10 22 23
f 10 23 24
f 11 25 26
f 12 27 25
f 12 25 41
f 12 41 34
f 12 34 42
f 12 42 28
f 12 28 13
f 13 28 14
f 15 16 29
f 16 30 31
f 16 31 32
f 16 32 29
f 16 20 30
f 17 33 34
f 17 34 18
f 18 34 19
f 19 35 20
f 19 34 35
f 20 35 36
f 20 36 37
f 20 37 30
f 21 38 30
f 21 30 37
f 21 37 22
f 22 37 39
f 22 39 40
f 22 40 23
f 23 40 41
f 23 41 24
f 25 27 26
f 30 38 31
f 33 42 34
f 34 41 35
f 35 41 36
f 36 40 37
f 36 41 40
f 37 40 39

