# https://github.com/mikedh/trimesh
v -0.00750123 0.01515706 0.02186135
v -0.00750123 0.01515706 0.02186858
v -0.00750123 0.01516339 0.01752344
v -0.00750021 0.01515706 0.01752344
v -0.00228274 0.01515706 0.02186858
v -0.00750123 0.01649413 0.02186858
v -0.00750123 0.01763015 0.01752344
v -0.00228274 0.01515706 0.01752344
v -0.00228274 0.01630953 0.02186858
v -0.00467206 0.02161478 0.01891808
v -0.00489173 0.02161478 0.01882451
v -0.00531422 0.02161478 0.01858207
v -0.00750123 0.01679757 0.02120507
v -0.00750123 0.01763331 0.01762551
v -0.00532546 0.02161478 0.01805382
v -0.00518548 0.02161478 0.01752344
v -0.00228274 0.01770349 0.01752344
v -0.00228274 0.01759854 0.01793685
v -0.00324573 0.02161478 0.01794026
v -0.00349401 0.02161478 0.01886960
v -0.00382249 0.02161478 0.01888831
v -0.00750123 0.01764280 0.01811464
v -0.00750123 0.01752900 0.01903973
v -0.00750123 0.01746958 0.01952077
v -0.00750123 0.01764217 0.01792494
v -0.00355633 0.02161478 0.01752344
f 1 2 6
f 1 6 13
f 1 13 24
f 1 24 23
f 1 23 22
f 1 22 25
f 1 25 14
f 1 14 7
f 1 7 3
f 1 3 4
f 1 4 8
f 1 8 5
f 1 5 2
f 2 5 9
f 2 9 6
f 3 7 16
f 3 16 26
f 3 26 17
f 3 17 8
f 3 8 4
f 5 8 17
f 5 17 18
f 5 18 9
f 6 9 10
f 6 10 11
f 6 11 12
f 6 12 13
f 7 14 15
f 7 15 16
f 9 18 19
f 9 19 20
f 9 20 21
f 9 21 10
f 10 21 20
f 10 20 19
f 10 19 26
f 10 26 16
f 10 16 15
f 10 15 12
f 10 12 11
f 12 15 22
f 12 22 23
f 12 23 24
f 12 24 13
f 14 25 15
f 15 25 22
f 17 26 19
f 17 19 18

