# https://github.com/mikedh/trimesh
v 0.02523827 -0.02555323 -0.01567874
v 0.02504273 -0.02574617 -0.01567874
v 0.02523827 -0.02994592 -0.01567874
v 0.02523827 -0.01877490 -0.01675846
v 0.02412791 -0.01877490 -0.01649595
v 0.02052839 -0.01871423 -0.01568114
v 0.02456041 -0.02634319 -0.01567874
v 0.02455360 -0.02945326 -0.01567874
v 0.01988303 -0.02723507 -0.01605122
v 0.01988303 -0.03111083 -0.01775148
v 0.02006967 -0.03111083 -0.01773141
v 0.02129223 -0.03111083 -0.01772498
v 0.02523827 -0.03111083 -0.01791685
v 0.02523827 -0.01871908 -0.01677692
v 0.02418610 -0.01871423 -0.01652967
v 0.01991554 -0.01871423 -0.01568676
v 0.02421650 -0.02837572 -0.01567874
v 0.02424377 -0.02717804 -0.01567874
v 0.02455622 -0.02634926 -0.01567874
v 0.01988303 -0.01871423 -0.01568757
v 0.01988303 -0.01877490 -0.01568837
v 0.01988303 -0.02596338 -0.01592920
v 0.01988303 -0.03111083 -0.01956171
v 0.02523827 -0.03111083 -0.01953281
v 0.02523827 -0.01871423 -0.01780045
v 0.01988303 -0.01871423 -0.02196198
v 0.02523827 -0.02777627 -0.02346797
v 0.02292789 -0.03111083 -0.01955047
v 0.01988303 -0.02917902 -0.02130452
v 0.02412791 -0.03111083 -0.01954164
v 0.02523827 -0.01871423 -0.02234330
v 0.01988303 -0.02171388 -0.02238986
v 0.02189250 -0.01871423 -0.02221405
v 0.02523827 -0.02237885 -0.02373128
v 0.02426579 -0.02357531 -0.02371040
v 0.01988303 -0.02789640 -0.02233848
v 0.02447758 -0.02687832 -0.02365582
v 0.02523827 -0.02721081 -0.02367509
v 0.01988303 -0.02849706 -0.02190498
v 0.02504063 -0.01871423 -0.02234570
v 0.01988303 -0.02357531 -0.02265156
v 0.02292789 -0.01871423 -0.02228470
v 0.02523827 -0.02357531 -0.02387899
v 0.02395857 -0.01871423 -0.02233286
v 0.02401939 -0.02481667 -0.02369596
v 0.01988303 -0.02717440 -0.02248699
v 0.02409750 -0.02586388 -0.02368713
v 0.01988303 -0.02477541 -0.02268608
v 0.01988303 -0.02597430 -0.02260500
v 0.01988303 -0.02532874 -0.02264995
f 1 2 7
f 1 7 19
f 1 19 18
f 1 18 17
f 1 17 8
f 1 8 3
f 1 3 13
f 1 13 24
f 1 24 27
f 1 27 38
f 1 38 43
f 1 43 34
f 1 34 31
f 1 31 25
f 1 25 14
f 1 14 4
f 1 4 5
f 1 5 6
f 1 6 2
f 2 6 7
f 3 8 9
f 3 9 10
f 3 10 11
f 3 11 12
f 3 12 13
f 4 14 15
f 4 15 5
f 5 15 6
f 6 15 25
f 6 25 31
f 6 31 40
f 6 40 44
f 6 44 42
f 6 42 33
f 6 33 26
f 6 26 20
f 6 20 16
f 6 16 8
f 6 8 17
f 6 17 18
f 6 18 19
f 6 19 7
f 8 16 20
f 8 20 21
f 8 21 22
f 8 22 9
f 9 22 21
f 9 21 20
f 9 20 26
f 9 26 32
f 9 32 41
f 9 41 48
f 9 48 50
f 9 50 49
f 9 49 46
f 9 46 36
f 9 36 39
f 9 39 29
f 9 29 23
f 9 23 10
f 10 23 28
f 10 28 30
f 10 30 24
f 10 24 13
f 10 13 12
f 10 12 11
f 14 25 15
f 23 27 28
f 23 29 27
f 24 30 27
f 26 33 34
f 26 34 35
f 26 35 32
f 27 36 37
f 27 37 38
f 27 30 28
f 27 29 39
f 27 39 36
f 31 34 40
f 32 35 41
f 33 42 34
f 34 43 35
f 34 42 44
f 34 44 40
f 35 43 45
f 35 45 41
f 36 46 37
f 37 46 47
f 37 47 43
f 37 43 38
f 41 45 48
f 43 47 45
f 45 47 48
f 46 49 47
f 47 49 50
f 47 50 48

