# https://github.com/mikedh/trimesh
v 0.00972826 0.01242142 0.05670523
v 0.01065815 0.02561943 0.05612702
v 0.00972826 0.02561943 0.05657180
v 0.00944321 0.02561943 0.05658663
v 0.00944321 0.01242142 0.05667558
v 0.00944321 0.00162069 0.05646060
v 0.00972826 0.00162069 0.05646555
v 0.01066585 -0.00010056 0.05607514
v 0.01070657 0.00642044 0.05613938
v 0.01068773 0.01242142 0.05618880
v 0.01099689 0.02561943 0.05512135
v 0.01055949 0.02658666 0.05600595
v 0.00979653 0.02691947 0.05614679
v 0.00944321 0.02688827 0.05620610
v 0.00924832 -0.02534733 0.05475070
v 0.00944321 -0.00010056 0.05642107
v 0.00972826 -0.00010056 0.05642601
v 0.01070435 0.00522440 0.05611467
v 0.01084028 -0.02534733 0.05475070
v 0.01090228 -0.02476491 0.05475070
v 0.01092456 -0.02356888 0.05475070
v 0.01092922 -0.02319447 0.05475070
v 0.01100844 -0.00010056 0.05512135
v 0.01104288 0.00522440 0.05512135
v 0.01104652 0.00642044 0.05512135
v 0.01129753 0.01362266 0.03146192
v 0.01099061 0.02441819 0.03146192
v 0.01084697 0.02561943 0.03472605
v 0.01067153 0.02674787 0.05512135
v 0.01131779 0.01002415 0.03146192
v 0.01014155 0.02735108 0.05512135
v 0.00944321 0.02749149 0.05582063
v 0.00944321 0.02748629 0.05583051
v 0.00930160 -0.02559694 0.03472605
v 0.00938082 -0.02559694 0.04413793
v 0.00939034 0.02708587 0.04413793
v 0.00929654 -0.00020456 0.03370308
v 0.00929654 -0.00020456 0.03146192
v 0.00929654 -0.01584144 0.03146192
v 0.01082185 -0.02559694 0.04413793
v 0.01087898 -0.02534733 0.05392293
v 0.01088911 -0.02477011 0.03146192
v 0.01126532 -0.01405779 0.03146192
v 0.01126755 -0.01396938 0.03146192
v 0.01099061 -0.01756790 0.05392293
v 0.01095961 -0.01959076 0.05475070
v 0.01086682 0.02528142 0.03146192
v 0.01081557 0.02561943 0.03146192
v 0.01056456 0.02654506 0.03712783
v 0.00972826 0.02690387 0.03472605
v 0.00954147 0.02751229 0.05512135
v 0.01054187 0.02652426 0.03472605
v 0.00944321 0.02752789 0.05512135
v 0.00936684 -0.02559694 0.03146192
v 0.00939034 0.02696107 0.03712783
v 0.00939034 0.02691427 0.03472605
v 0.00939034 0.02684667 0.03352764
v 0.00939034 0.02668546 0.03146439
v 0.00939034 0.02661786 0.03146192
v 0.01084656 -0.02559694 0.04312484
v 0.01085507 -0.02559694 0.04274678
v 0.01085163 -0.02559694 0.04154590
v 0.01081435 -0.02559694 0.03146192
v 0.01048291 0.02636825 0.03146192
v 0.00972826 0.02682067 0.03352764
v 0.00939257 0.02668546 0.03146192
v 0.01027647 0.02645146 0.03146192
v 0.00972826 0.02663866 0.03146192
f 1 2 3
f 1 3 4
f 1 4 5
f 1 5 6
f 1 6 7
f 1 7 8
f 1 8 9
f 1 9 10
f 1 10 2
f 2 10 11
f 2 11 12
f 2 12 3
f 3 12 13
f 3 13 14
f 3 14 4
f 4 14 15
f 4 15 5
f 5 15 6
f 6 15 16
f 6 16 17
f 6 17 7
f 7 17 8
f 8 18 9
f 8 17 19
f 8 19 20
f 8 20 21
f 8 21 22
f 8 22 18
f 9 18 22
f 9 22 23
f 9 23 24
f 9 24 25
f 9 25 10
f 10 25 11
f 11 26 27
f 11 27 28
f 11 28 29
f 11 29 12
f 11 25 30
f 11 30 26
f 12 29 31
f 12 31 32
f 12 32 33
f 12 33 13
f 13 33 14
f 14 33 15
f 15 34 35
f 15 35 40
f 15 40 19
f 15 19 17
f 15 17 16
f 15 33 36
f 15 36 37
f 15 37 38
f 15 38 39
f 15 39 34
f 19 40 41
f 19 41 20
f 20 41 42
f 20 42 43
f 20 43 44
f 20 44 21
f 21 44 22
f 22 45 46
f 22 46 23
f 22 44 45
f 23 46 24
f 24 46 45
f 24 45 25
f 25 45 44
f 25 44 30
f 26 30 44
f 26 44 43
f 26 43 42
f 26 42 63
f 26 63 54
f 26 54 39
f 26 39 38
f 26 38 59
f 26 59 66
f 26 66 68
f 26 68 67
f 26 67 64
f 26 64 48
f 26 48 47
f 26 47 27
f 27 47 28
f 28 47 48
f 28 48 29
f 29 48 49
f 29 49 31
f 31 50 51
f 31 51 32
f 31 49 52
f 31 52 50
f 32 51 53
f 32 53 36
f 32 36 33
f 34 54 63
f 34 63 62
f 34 62 61
f 34 61 60
f 34 60 40
f 34 40 35
f 34 39 54
f 36 53 55
f 36 55 38
f 36 38 37
f 38 55 56
f 38 56 57
f 38 57 58
f 38 58 59
f 40 60 41
f 41 60 61
f 41 61 42
f 42 61 62
f 42 62 63
f 48 64 52
f 48 52 49
f 50 65 57
f 50 57 56
f 50 56 53
f 50 53 51
f 50 52 64
f 50 64 65
f 53 56 55
f 57 65 66
f 57 66 58
f 58 66 59
f 64 67 65
f 65 68 66
f 65 67 68

