# https://github.com/mikedh/trimesh
v -0.03340697 0.00151913 0.00673337
v -0.03340697 0.00153430 0.00673783
v -0.03340697 0.00155452 0.00586569
v -0.03021654 0.00195908 0.00743252
v -0.03021654 0.00195908 0.00808645
v -0.03107165 0.00198942 0.00801211
v -0.03053441 0.00313157 0.00901236
v -0.03340697 0.00282093 0.00708449
v -0.03340697 0.00157981 0.00583966
v -0.03141987 0.00198220 0.00638363
v -0.03227179 0.00175391 0.00624455
v -0.02901852 0.00314674 0.00832486
v -0.03062067 0.00243515 0.00663266
v -0.02906059 0.00318647 0.00743834
v -0.02987204 0.00310556 0.00907402
v -0.02914578 0.00329339 0.00903600
v -0.02987204 0.00402593 0.00925626
v -0.03056103 0.00402593 0.00905826
v -0.03340697 0.00402593 0.00714478
v -0.03340697 0.00282598 0.00580369
v -0.03227179 0.00282598 0.00595304
v -0.02918039 0.00453523 0.00650626
v -0.03104077 0.00283176 0.00629799
v -0.03027191 0.00323560 0.00645659
v -0.02947217 0.00373479 0.00663814
v -0.02798824 0.00448250 0.00750103
v -0.02798824 0.00448250 0.00791140
v -0.02872035 0.00410900 0.00706976
v -0.02899989 0.00402593 0.00912266
v -0.02890032 0.00522514 0.00916719
v -0.02987204 0.00522514 0.00930284
v -0.03057114 0.00642509 0.00906340
v -0.03340697 0.00882497 0.00720849
v -0.03227179 0.00522514 0.00593694
v -0.03227179 0.00402593 0.00594208
v -0.03340697 0.00875995 0.00584137
v -0.03107165 0.00522514 0.00612980
v -0.03107165 0.00402593 0.00614556
v -0.02916761 0.00522514 0.00650318
v -0.02856807 0.00522514 0.00683374
v -0.02796747 0.00522514 0.00743389
v -0.02796747 0.00522514 0.00798574
v -0.02830025 0.00522514 0.00858589
v -0.02901320 0.00613539 0.00909594
v -0.02984489 0.00649155 0.00913808
v -0.03055357 0.00713595 0.00901955
v -0.03340697 0.00889721 0.00720746
v -0.03227179 0.00642509 0.00594825
v -0.03340697 0.00889938 0.00584857
v -0.02922512 0.00585004 0.00651448
v -0.02801699 0.00590855 0.00756063
v -0.02801699 0.00590855 0.00788606
v -0.02870012 0.00642220 0.00831904
v -0.02942691 0.00693511 0.00875237
v -0.03022718 0.00713595 0.00901955
v -0.03183039 0.00889938 0.00780316
v -0.03340537 0.00889938 0.00720781
v -0.03215465 0.00889938 0.00623325
v -0.03213708 0.00889938 0.00624010
v -0.03166373 0.00889938 0.00652682
v -0.02918678 0.00709477 0.00761852
v -0.02918678 0.00709477 0.00795217
v -0.03144915 0.00889938 0.00780316
v -0.03146406 0.00889938 0.00701632
v -0.03144969 0.00889938 0.00775143
f 1 2 8
f 1 8 19
f 1 19 33
f 1 33 47
f 1 47 49
f 1 49 36
f 1 36 20
f 1 20 9
f 1 9 3
f 1 3 4
f 1 4 5
f 1 5 6
f 1 6 7
f 1 7 2
f 2 7 8
f 3 9 10
f 3 10 11
f 3 11 4
f 4 12 5
f 4 11 10
f 4 10 13
f 4 13 14
f 4 14 12
f 5 15 6
f 5 12 16
f 5 16 15
f 6 15 7
f 7 15 17
f 7 17 18
f 7 18 8
f 8 18 19
f 9 20 21
f 9 21 22
f 9 22 23
f 9 23 10
f 10 23 24
f 10 24 25
f 10 25 13
f 12 14 26
f 12 26 27
f 12 27 16
f 13 25 14
f 14 25 28
f 14 28 26
f 15 16 17
f 16 27 29
f 16 29 17
f 17 29 30
f 17 30 31
f 17 31 18
f 18 31 32
f 18 32 33
f 18 33 19
f 20 34 35
f 20 35 21
f 20 36 34
f 21 35 37
f 21 37 38
f 21 38 22
f 22 37 39
f 22 39 40
f 22 40 26
f 22 26 28
f 22 28 25
f 22 25 24
f 22 24 23
f 22 38 37
f 26 40 41
f 26 41 42
f 26 42 27
f 27 42 43
f 27 43 29
f 29 43 30
f 30 43 44
f 30 44 31
f 31 44 45
f 31 45 46
f 31 46 32
f 32 46 47
f 32 47 33
f 34 37 35
f 34 36 48
f 34 48 37
f 36 49 50
f 36 50 48
f 37 48 50
f 37 50 39
f 39 50 40
f 40 50 51
f 40 51 41
f 41 51 52
f 41 52 42
f 42 52 43
f 43 52 44
f 44 52 53
f 44 53 54
f 44 54 55
f 44 55 45
f 45 55 46
f 46 55 63
f 46 63 56
f 46 56 57
f 46 57 47
f 47 57 49
f 49 57 56
f 49 56 63
f 49 63 65
f 49 65 64
f 49 64 60
f 49 60 59
f 49 59 58
f 49 58 50
f 50 58 59
f 50 59 60
f 50 60 51
f 51 61 62
f 51 62 52
f 51 60 61
f 52 62 53
f 53 62 54
f 54 62 63
f 54 63 55
f 60 64 61
f 61 64 65
f 61 65 63
f 61 63 62

