# https://github.com/mikedh/trimesh
v 0.02854656 0.01602438 0.01269535
v 0.02806607 0.01602438 0.01269535
v 0.02853636 0.01482353 0.01265510
v 0.02860264 -0.00019714 0.01160206
v 0.02873012 0.01482353 0.01192472
v 0.02928787 0.02255889 0.00741653
v 0.02844026 0.01722523 0.01262913
v 0.02732398 0.01937741 0.01264471
v 0.02816178 0.01482353 0.01265510
v 0.02695450 0.01937741 0.01264471
v 0.02528086 0.00402700 0.01192342
v 0.02528086 0.00282615 0.01185526
v 0.02790762 -0.00019714 0.01160206
v 0.02928787 -0.00019714 0.00742043
v 0.02928787 0.01158635 0.00779048
v 0.02928787 0.01244856 0.00779178
v 0.02928787 0.01501290 0.00775997
v 0.02928787 0.01538497 0.00774439
v 0.02928787 0.00088563 0.00748016
v 0.02928787 0.02255889 0.00626741
v 0.02528086 0.02255889 0.00724709
v 0.02528086 0.02129343 0.01165724
v 0.02835672 0.01789361 0.01255576
v 0.02528086 0.02091913 0.01169944
v 0.02528086 0.00074081 0.01160336
v 0.02528086 -0.00019714 0.01147481
v 0.02928787 -0.00019714 0.00621028
v 0.02928787 0.02166549 0.00624923
v 0.02839202 0.02255889 0.00617977
v 0.02528086 0.02255889 0.00607589
v 0.02528086 -0.00019714 0.00710621
v 0.02772798 -0.00019714 0.00615575
v 0.02928787 0.00402700 0.00607524
v 0.02928787 0.02082333 0.00623820
v 0.02719258 0.02255889 0.00609147
v 0.02928787 0.01002681 0.00613043
v 0.02532832 0.02255889 0.00607394
v 0.02772798 0.00402700 0.00608173
v 0.02652815 0.00162753 0.00619730
v 0.02575193 0.00162753 0.00641608
v 0.02528086 0.00254766 0.00669979
v 0.02530204 -0.00019714 0.00708283
v 0.02528086 0.00148048 0.00675692
v 0.02892780 0.00402700 0.00606291
v 0.02711453 -0.00019714 0.00623950
v 0.02772798 0.00282615 0.00610121
v 0.02652815 0.02255889 0.00606940
v 0.02645323 -0.00019714 0.00633298
v 0.02612808 -0.00019714 0.00650762
v 0.02600374 -0.00019714 0.00657449
v 0.02528086 0.00162753 0.00673031
v 0.02584214 -0.00019714 0.00668811
f 1 2 9
f 1 9 3
f 1 3 4
f 1 4 5
f 1 5 6
f 1 6 7
f 1 7 8
f 1 8 10
f 1 10 2
f 2 10 11
f 2 11 9
f 3 9 12
f 3 12 4
f 4 12 13
f 4 13 26
f 4 26 31
f 4 31 42
f 4 42 52
f 4 52 50
f 4 50 49
f 4 49 48
f 4 48 45
f 4 45 32
f 4 32 27
f 4 27 14
f 4 14 5
f 5 15 16
f 5 16 17
f 5 17 18
f 5 18 6
f 5 14 19
f 5 19 15
f 6 20 29
f 6 29 35
f 6 35 47
f 6 47 37
f 6 37 30
f 6 30 21
f 6 21 22
f 6 22 8
f 6 8 23
f 6 23 7
f 6 18 17
f 6 17 16
f 6 16 15
f 6 15 19
f 6 19 14
f 6 14 27
f 6 27 33
f 6 33 36
f 6 36 34
f 6 34 28
f 6 28 20
f 7 23 8
f 8 22 10
f 9 11 12
f 10 22 24
f 10 24 11
f 11 24 22
f 11 22 21
f 11 21 30
f 11 30 41
f 11 41 51
f 11 51 43
f 11 43 31
f 11 31 26
f 11 26 25
f 11 25 12
f 12 25 13
f 13 25 26
f 20 28 29
f 27 32 33
f 28 34 29
f 29 34 36
f 29 36 35
f 30 37 38
f 30 38 39
f 30 39 40
f 30 40 41
f 31 43 42
f 32 44 33
f 32 45 39
f 32 39 46
f 32 46 44
f 33 44 35
f 33 35 36
f 35 44 47
f 37 47 44
f 37 44 38
f 38 44 46
f 38 46 39
f 39 45 48
f 39 48 40
f 40 48 49
f 40 49 50
f 40 50 51
f 40 51 41
f 42 43 52
f 43 51 50
f 43 50 52

