# https://github.com/mikedh/trimesh
v 0.02518481 0.05473282 -0.01568593
v 0.02518481 0.05475873 -0.01485142
v 0.02518481 0.05473504 -0.01572501
v 0.03065699 0.05209429 -0.01374381
v 0.03065699 0.05208467 -0.01327531
v 0.02518481 0.05479352 -0.01469604
v 0.03065699 0.05393104 -0.01521935
v 0.03065699 0.05259031 -0.01449063
v 0.03065699 0.05222829 -0.01413890
v 0.02518481 0.05490827 -0.01572501
v 0.03065699 0.05497638 -0.01572501
v 0.03065699 0.05251480 -0.01256185
v 0.02518481 0.05513111 -0.01416226
v 0.02518481 0.05633340 -0.01571882
v 0.02532837 0.05632156 -0.01572501
v 0.03065699 0.05711370 -0.01572501
v 0.03065699 0.05315592 -0.01195895
v 0.02925252 0.05364083 -0.01246176
v 0.02518481 0.05570709 -0.01360750
v 0.02518481 0.05964784 -0.01308563
v 0.02772807 0.05695009 -0.01572501
v 0.03016902 0.05713369 -0.01572501
v 0.02984763 0.05884311 -0.01169444
v 0.03065699 0.05791326 -0.01175163
v 0.03065699 0.05376595 -0.01146758
v 0.02986906 0.05412279 -0.01166203
v 0.02518481 0.05578408 -0.01354459
v 0.02518481 0.05964784 -0.01248464
v 0.02897774 0.05713443 -0.01572501
v 0.02984763 0.05884311 -0.01128314
v 0.03065699 0.05791326 -0.01117591
v 0.03065699 0.05379927 -0.01144375
v 0.02943411 0.05492308 -0.01142612
v 0.02518481 0.05677315 -0.01296457
v 0.02518481 0.05928360 -0.01243269
v 0.02806821 0.05877500 -0.01138990
v 0.02892792 0.05890085 -0.01126741
v 0.03019955 0.05808872 -0.01109917
v 0.03065699 0.05682498 -0.01085611
v 0.03065699 0.05446112 -0.01118163
v 0.03021240 0.05448407 -0.01131650
v 0.03012777 0.05562565 -0.01100910
v 0.02923860 0.05562565 -0.01133271
v 0.02518481 0.05798433 -0.01244318
v 0.02518481 0.05788439 -0.01247654
v 0.02811534 0.05802505 -0.01140420
v 0.02892792 0.05802505 -0.01111728
v 0.03012777 0.05682498 -0.01086088
v 0.03065699 0.05562565 -0.01087708
v 0.02887275 0.05690715 -0.01127075
f 1 2 6
f 1 6 13
f 1 13 19
f 1 19 27
f 1 27 34
f 1 34 45
f 1 45 44
f 1 44 35
f 1 35 28
f 1 28 20
f 1 20 14
f 1 14 10
f 1 10 3
f 1 3 4
f 1 4 5
f 1 5 2
f 2 5 6
f 3 7 8
f 3 8 9
f 3 9 4
f 3 10 15
f 3 15 21
f 3 21 29
f 3 29 22
f 3 22 16
f 3 16 11
f 3 11 7
f 4 9 8
f 4 8 7
f 4 7 11
f 4 11 16
f 4 16 24
f 4 24 31
f 4 31 39
f 4 39 49
f 4 49 40
f 4 40 32
f 4 32 25
f 4 25 17
f 4 17 12
f 4 12 5
f 5 12 6
f 6 12 13
f 10 14 15
f 12 17 18
f 12 18 13
f 13 18 19
f 14 20 21
f 14 21 15
f 16 22 20
f 16 20 23
f 16 23 24
f 17 25 26
f 17 26 18
f 18 26 27
f 18 27 19
f 20 28 30
f 20 30 23
f 20 22 29
f 20 29 21
f 23 30 31
f 23 31 24
f 25 32 26
f 26 32 33
f 26 33 27
f 27 33 34
f 28 35 36
f 28 36 37
f 28 37 30
f 30 38 31
f 30 37 38
f 31 38 39
f 32 40 41
f 32 41 33
f 33 42 43
f 33 43 44
f 33 44 45
f 33 45 34
f 33 41 40
f 33 40 42
f 35 44 36
f 36 44 46
f 36 46 47
f 36 47 37
f 37 47 48
f 37 48 38
f 38 48 39
f 39 48 49
f 40 49 42
f 42 49 48
f 42 48 50
f 42 50 44
f 42 44 43
f 44 50 47
f 44 47 46
f 47 50 48

