# https://github.com/mikedh/trimesh
v 0.02294838 0.01598070 0.02609791
v 0.02179098 0.01594372 0.02609791
v 0.02387091 0.01569715 0.02609791
v 0.02103902 0.01915108 0.02346053
v 0.02103902 0.01898465 0.02361869
v 0.02103902 0.01850796 0.02406170
v 0.02103902 0.01792649 0.02457759
v 0.02103902 0.01574236 0.02609791
v 0.02408075 0.01590879 0.02512452
v 0.02246709 0.01797991 0.02353920
v 0.02134512 0.01929490 0.02272521
v 0.02122191 0.01909766 0.02340050
v 0.02432448 0.01485063 0.02609791
v 0.02103902 0.01953119 0.02273349
v 0.02103902 0.01391164 0.02609791
v 0.02475648 0.01546292 0.02368328
v 0.02322137 0.01748473 0.02272521
v 0.02262188 0.01807648 0.02272521
v 0.02136976 0.01934627 0.02186858
v 0.02103902 0.01964626 0.02186858
v 0.02369418 0.01712927 0.02186858
v 0.02438647 0.01472940 0.02609791
v 0.02103902 0.00842563 0.02403148
v 0.02309161 -0.00134439 0.02609791
v 0.02495670 0.01482391 0.02272521
v 0.02486506 0.01541155 0.02186858
v 0.02481693 0.01561291 0.02186858
v 0.02444114 0.01621288 0.02186858
v 0.02384088 0.01695668 0.02186858
v 0.02373423 0.01688476 0.02272521
v 0.02466099 0.01472940 0.02520236
v 0.02473145 0.01426504 0.02573232
v 0.02103902 0.00573194 0.02186858
v 0.02444076 0.01462050 0.02609791
v 0.02103902 0.00775375 0.02372303
v 0.02103902 0.00740651 0.02343445
v 0.02103902 0.00587166 0.02207311
v 0.02103902 0.00579358 0.02197002
v 0.02314783 -0.00134439 0.02392507
v 0.02443036 -0.00134439 0.02609791
v 0.02497248 0.01482391 0.02186858
v 0.02486737 0.01122411 0.02499120
v 0.02494014 0.00642643 0.02392507
v 0.02453432 0.01385616 0.02609791
v 0.02473992 0.01026046 0.02609791
v 0.02476341 0.00978583 0.02609791
v 0.02485967 0.01006321 0.02523466
v 0.02325987 -0.00134439 0.02186858
v 0.02323985 -0.00134439 0.02215509
v 0.02445462 -0.00134439 0.02578532
v 0.02473030 0.00093015 0.02453411
v 0.02476149 0.00913861 0.02609791
v 0.02492166 0.00522649 0.02186858
v 0.02485582 0.00890026 0.02518000
v 0.02476341 0.00937490 0.02609791
v 0.02447271 -0.00134439 0.02186858
v 0.02447580 -0.00134439 0.02209505
v 0.02473030 0.00093015 0.02441405
v 0.02449582 -0.00111632 0.02186858
f 1 2 8
f 1 8 15
f 1 15 24
f 1 24 40
f 1 40 52
f 1 52 55
f 1 55 46
f 1 46 45
f 1 45 44
f 1 44 34
f 1 34 22
f 1 22 13
f 1 13 3
f 1 3 4
f 1 4 5
f 1 5 6
f 1 6 7
f 1 7 2
f 2 7 8
f 3 9 10
f 3 10 11
f 3 11 12
f 3 12 4
f 3 13 9
f 4 12 14
f 4 14 20
f 4 20 33
f 4 33 38
f 4 38 37
f 4 37 36
f 4 36 35
f 4 35 23
f 4 23 15
f 4 15 8
f 4 8 7
f 4 7 6
f 4 6 5
f 9 13 16
f 9 16 17
f 9 17 18
f 9 18 10
f 10 18 11
f 11 19 20
f 11 20 14
f 11 14 12
f 11 18 21
f 11 21 19
f 13 22 16
f 15 23 24
f 16 25 26
f 16 26 27
f 16 27 28
f 16 28 29
f 16 29 21
f 16 21 30
f 16 30 17
f 16 22 31
f 16 31 32
f 16 32 25
f 17 30 21
f 17 21 18
f 19 21 29
f 19 29 28
f 19 28 27
f 19 27 26
f 19 26 41
f 19 41 53
f 19 53 59
f 19 59 56
f 19 56 48
f 19 48 33
f 19 33 20
f 22 34 32
f 22 32 31
f 23 35 24
f 24 35 36
f 24 36 37
f 24 37 38
f 24 38 33
f 24 33 39
f 24 39 49
f 24 49 48
f 24 48 56
f 24 56 57
f 24 57 50
f 24 50 40
f 25 41 26
f 25 32 42
f 25 42 43
f 25 43 41
f 32 34 44
f 32 44 45
f 32 45 46
f 32 46 47
f 32 47 42
f 33 48 49
f 33 49 39
f 40 50 51
f 40 51 52
f 41 43 53
f 42 47 43
f 43 47 54
f 43 54 52
f 43 52 51
f 43 51 53
f 46 55 47
f 47 55 52
f 47 52 54
f 50 57 51
f 51 57 58
f 51 58 53
f 53 58 59
f 56 59 57
f 57 59 58

