# https://github.com/mikedh/trimesh
v -0.03925929 -0.03365159 -0.01963121
v -0.04013038 -0.03365159 -0.01959401
v -0.04632133 -0.03112479 -0.01938701
v -0.04632133 -0.03077380 -0.01939463
v -0.04632133 -0.02957456 -0.01941658
v -0.04547168 -0.02957456 -0.01943947
v -0.04547168 -0.02837532 -0.01941562
v -0.04503406 -0.02401240 -0.01932405
v -0.04383389 -0.02401240 -0.01933454
v -0.04187256 -0.02401240 -0.01933549
v -0.03925929 -0.02477478 -0.01915901
v -0.03925929 -0.03365159 -0.00988669
v -0.04547168 -0.03197398 -0.01937270
v -0.04379449 -0.03365159 -0.01931069
v -0.04547168 -0.03317416 -0.01924678
v -0.04632133 -0.03232498 -0.01922770
v -0.04632133 -0.02401240 -0.01926776
v -0.03925929 -0.02401240 -0.01911417
v -0.03925929 -0.03135030 -0.00988669
v -0.03950886 -0.03365159 -0.00988669
v -0.04499465 -0.03365159 -0.01921243
v -0.04547168 -0.03365159 -0.01915710
v -0.04632133 -0.03365159 -0.01903023
v -0.04632133 -0.02401240 -0.01752395
v -0.03925929 -0.02401240 -0.01426815
v -0.03962777 -0.02401240 -0.00988669
v -0.03973078 -0.03346005 -0.00988669
v -0.04632133 -0.03365159 -0.01659291
v -0.04632133 -0.02639106 -0.01638685
v -0.04425354 -0.02401240 -0.01335713
v -0.04090468 -0.02401240 -0.00988669
v -0.04029146 -0.03285996 -0.00988669
v -0.04632133 -0.03317416 -0.01648797
v -0.04254108 -0.03029071 -0.00988669
v -0.04632133 -0.02668356 -0.01628383
v -0.04254316 -0.02950851 -0.00988669
v -0.04245674 -0.02906316 -0.00988669
v -0.04164649 -0.02588532 -0.00988669
v -0.04632133 -0.03169280 -0.01618271
v -0.04632133 -0.03077380 -0.01611593
v -0.04632133 -0.03153806 -0.01615600
f 1 2 3
f 1 3 4
f 1 4 5
f 1 5 6
f 1 6 7
f 1 7 8
f 1 8 9
f 1 9 10
f 1 10 11
f 1 11 18
f 1 18 25
f 1 25 19
f 1 19 12
f 1 12 20
f 1 20 28
f 1 28 23
f 1 23 22
f 1 22 21
f 1 21 14
f 1 14 2
f 2 13 3
f 2 14 15
f 2 15 13
f 3 13 15
f 3 15 16
f 3 16 23
f 3 23 28
f 3 28 33
f 3 33 39
f 3 39 41
f 3 41 40
f 3 40 35
f 3 35 29
f 3 29 24
f 3 24 17
f 3 17 5
f 3 5 4
f 5 8 7
f 5 7 6
f 5 17 8
f 8 17 24
f 8 24 30
f 8 30 31
f 8 31 26
f 8 26 25
f 8 25 18
f 8 18 10
f 8 10 9
f 10 18 11
f 12 19 26
f 12 26 31
f 12 31 38
f 12 38 37
f 12 37 36
f 12 36 34
f 12 34 32
f 12 32 27
f 12 27 20
f 14 21 15
f 15 21 22
f 15 22 23
f 15 23 16
f 19 25 26
f 20 27 28
f 24 29 30
f 27 32 28
f 28 32 34
f 28 34 33
f 29 35 30
f 30 35 36
f 30 36 37
f 30 37 38
f 30 38 31
f 33 34 39
f 34 36 40
f 34 40 41
f 34 41 39
f 35 40 36

