# https://github.com/mikedh/trimesh
v -0.00947111 0.02688765 0.01752344
v -0.00827191 0.02683405 0.01752344
v -0.00128967 0.02666887 0.01568201
v -0.00947111 0.02687751 0.01568201
v -0.00962896 0.02687799 0.01568201
v -0.01146935 0.02687510 0.01752344
v -0.00393646 0.02632260 0.01752344
v -0.00388996 0.02634433 0.01748793
v -0.00128967 0.02638828 0.01638624
v -0.00128967 0.02514998 0.01568201
v -0.01082815 0.02685047 0.01568201
v -0.01187194 0.02686882 0.01752344
v -0.00128967 0.02571118 0.01752344
v -0.00323652 0.02468248 0.01568201
v -0.00128967 0.02495777 0.01601385
v -0.00347391 0.02195428 0.01752344
v -0.00375903 0.02195428 0.01712418
v -0.01379065 0.02677416 0.01568201
v -0.01379065 0.02679010 0.01624367
v -0.01379065 0.02679106 0.01630657
v -0.01379065 0.02679686 0.01672475
v -0.01379065 0.02678961 0.01752344
v -0.00128967 0.02422320 0.01752344
v -0.00343965 0.02464481 0.01568201
v -0.00128967 0.02456320 0.01673232
v -0.00525557 0.02195428 0.01752344
v -0.00128967 0.02428115 0.01738843
v -0.00472450 0.02195428 0.01713806
v -0.00447732 0.02462646 0.01568201
v -0.01379065 0.02542430 0.01568201
v -0.01379065 0.02548757 0.01752344
v -0.00523844 0.02195428 0.01741529
v -0.01379065 0.02542334 0.01600628
f 1 2 3
f 1 3 4
f 1 4 5
f 1 5 6
f 1 6 12
f 1 12 22
f 1 22 31
f 1 31 26
f 1 26 16
f 1 16 23
f 1 23 13
f 1 13 7
f 1 7 2
f 2 7 8
f 2 8 3
f 3 8 9
f 3 9 13
f 3 13 23
f 3 23 27
f 3 27 25
f 3 25 15
f 3 15 10
f 3 10 14
f 3 14 24
f 3 24 29
f 3 29 30
f 3 30 18
f 3 18 11
f 3 11 5
f 3 5 4
f 5 11 12
f 5 12 6
f 7 13 8
f 8 13 9
f 10 15 16
f 10 16 17
f 10 17 14
f 11 18 19
f 11 19 12
f 12 19 20
f 12 20 21
f 12 21 22
f 14 17 24
f 15 25 16
f 16 26 32
f 16 32 28
f 16 28 17
f 16 25 27
f 16 27 23
f 17 28 29
f 17 29 24
f 18 30 33
f 18 33 31
f 18 31 22
f 18 22 21
f 18 21 20
f 18 20 19
f 26 31 33
f 26 33 30
f 26 30 32
f 28 32 30
f 28 30 29

