# https://github.com/mikedh/trimesh
v -0.01426300 0.01090116 0.01522655
v -0.01426300 0.01090116 0.01536819
v -0.01426300 0.01130300 0.01435564
v -0.01367470 0.00522663 0.01568201
v -0.01426300 0.01221454 0.01568201
v -0.01372364 0.00578851 0.01568201
v -0.01426300 0.01378191 0.01317934
v -0.01372264 0.00675572 0.01483954
v -0.01352887 0.00405067 0.01568201
v -0.01426300 0.01818480 0.01568201
v -0.01426300 0.01433684 0.01299241
v -0.01204063 0.00384888 0.01299241
v -0.01343298 0.00394281 0.01555116
v -0.01263792 0.00041494 0.01568201
v -0.00405907 0.01814653 0.01568201
v -0.01426300 0.01813261 0.01552483
v -0.01426300 0.01635823 0.01299241
v -0.01164110 0.00272510 0.01299241
v -0.01233728 0.00041494 0.01513861
v -0.01236425 0.00041494 0.01518732
v -0.00405907 0.00041494 0.01568201
v -0.00405907 0.01811870 0.01564304
v -0.01426300 0.01716192 0.01338364
v -0.01426300 0.01764553 0.01416292
v -0.01426300 0.01771163 0.01432510
v -0.00405907 0.01601728 0.01299241
v -0.01426300 0.01709756 0.01333914
v -0.01106878 0.00156132 0.01299241
v -0.01149627 0.00162569 0.01337732
v -0.01169004 0.00041494 0.01425402
v -0.00491506 0.00041494 0.01299241
v -0.00405907 0.00041667 0.01299241
v -0.00405907 0.01794126 0.01540083
v -0.00405907 0.01706277 0.01422005
v -0.00405907 0.01619297 0.01319171
v -0.01076414 0.00105684 0.01299241
v -0.01125955 0.00041494 0.01372800
v -0.01003400 0.00041494 0.01299241
v -0.01073018 0.00041494 0.01334441
v -0.01074416 0.00041494 0.01335336
f 1 2 5
f 1 5 10
f 1 10 16
f 1 16 25
f 1 25 24
f 1 24 23
f 1 23 27
f 1 27 17
f 1 17 11
f 1 11 7
f 1 7 3
f 1 3 4
f 1 4 2
f 2 4 6
f 2 6 5
f 3 7 8
f 3 8 9
f 3 9 4
f 4 9 14
f 4 14 21
f 4 21 15
f 4 15 10
f 4 10 5
f 4 5 6
f 7 11 12
f 7 12 8
f 8 12 9
f 9 12 13
f 9 13 14
f 10 15 16
f 11 17 26
f 11 26 32
f 11 32 31
f 11 31 38
f 11 38 36
f 11 36 28
f 11 28 18
f 11 18 12
f 12 18 19
f 12 19 20
f 12 20 14
f 12 14 13
f 14 20 19
f 14 19 30
f 14 30 37
f 14 37 40
f 14 40 39
f 14 39 38
f 14 38 31
f 14 31 21
f 15 22 23
f 15 23 24
f 15 24 25
f 15 25 16
f 15 21 32
f 15 32 26
f 15 26 35
f 15 35 34
f 15 34 33
f 15 33 22
f 17 27 26
f 18 28 29
f 18 29 30
f 18 30 19
f 21 31 32
f 22 33 23
f 23 33 34
f 23 34 35
f 23 35 26
f 23 26 27
f 28 36 37
f 28 37 29
f 29 37 30
f 36 38 39
f 36 39 40
f 36 40 37

