# https://github.com/mikedh/trimesh
v -0.01378428 0.00282470 0.01752344
v -0.01374881 0.00371829 0.01752344
v -0.01373781 0.00522559 0.01628819
v -0.01373781 0.00522559 0.01586947
v -0.01376838 -0.00557168 0.01586604
v -0.01377694 -0.00652934 0.01629305
v -0.01377450 -0.00550087 0.01670564
v -0.01374881 -0.00444542 0.01752344
v -0.01369255 0.00589325 0.01615174
v -0.00951341 0.01324767 0.01752344
v -0.01370356 0.00620685 0.01568201
v -0.01372191 0.00578535 0.01568201
v -0.01376105 -0.00628993 0.01568201
v -0.01375860 -0.00677887 0.01568201
v -0.00962226 -0.01249448 0.01752344
v -0.01371457 -0.00505576 0.01737906
v -0.01373781 -0.00456007 0.01752344
v -0.00750151 0.01762795 0.01752344
v -0.00525600 0.02195428 0.01752344
v -0.00523888 0.02195428 0.01741529
v -0.00750151 0.01727051 0.01568201
v -0.00954521 -0.01249448 0.01568201
v -0.00129089 -0.01249448 0.01752344
v -0.00347402 0.02195428 0.01752344
v -0.00472397 0.02195428 0.01713806
v -0.00445735 0.01805620 0.01568201
v -0.00129089 -0.01249448 0.01568201
v -0.00128967 0.01324767 0.01752344
v -0.00128967 0.01750656 0.01672475
v -0.00128967 0.01740877 0.01568201
v -0.00376022 0.02195428 0.01712418
v -0.00128967 0.01741888 0.01752344
v -0.00128967 0.01748295 0.01695078
v -0.00360733 0.01826527 0.01568201
v -0.00128967 0.01324767 0.01568201
v -0.00262523 0.01794155 0.01568201
v -0.00294811 0.01806969 0.01568201
v -0.00346668 0.01826189 0.01568201
f 1 2 3
f 1 3 4
f 1 4 5
f 1 5 6
f 1 6 7
f 1 7 8
f 1 8 17
f 1 17 15
f 1 15 23
f 1 23 28
f 1 28 32
f 1 32 24
f 1 24 19
f 1 19 18
f 1 18 10
f 1 10 2
f 2 9 3
f 2 10 9
f 3 9 11
f 3 11 12
f 3 12 4
f 4 12 13
f 4 13 5
f 5 13 6
f 6 14 15
f 6 15 16
f 6 16 17
f 6 17 8
f 6 8 7
f 6 13 14
f 9 10 18
f 9 18 11
f 11 18 19
f 11 19 20
f 11 20 21
f 11 21 26
f 11 26 34
f 11 34 38
f 11 38 37
f 11 37 36
f 11 36 30
f 11 30 35
f 11 35 27
f 11 27 22
f 11 22 14
f 11 14 13
f 11 13 12
f 14 22 15
f 15 22 27
f 15 27 23
f 15 17 16
f 19 24 31
f 19 31 25
f 19 25 20
f 20 25 21
f 21 25 26
f 23 27 35
f 23 35 28
f 24 29 30
f 24 30 31
f 24 32 33
f 24 33 29
f 25 31 34
f 25 34 26
f 28 35 30
f 28 30 29
f 28 29 33
f 28 33 32
f 30 36 31
f 31 36 37
f 31 37 38
f 31 38 34

