# https://github.com/mikedh/trimesh
v -0.00016226 -0.03262626 -0.01930043
v -0.00016226 -0.02789477 -0.02233378
v 0.00372867 -0.03423976 -0.01942573
v 0.00365608 -0.03423976 -0.01938164
v 0.00352657 -0.03423976 -0.01930043
v -0.00016226 -0.02611459 -0.01930043
v 0.01988303 -0.02477250 -0.02268681
v 0.01988303 -0.02532814 -0.02265068
v 0.00012813 -0.02789477 -0.02233577
v 0.00492951 -0.03423976 -0.01968130
v -0.00016226 -0.01241164 -0.02237555
v 0.00127991 -0.01241164 -0.02241367
v 0.01988303 -0.03423976 -0.01930043
v 0.01985556 -0.01634173 -0.01930043
v 0.01376898 -0.01310406 -0.01975190
v -0.00016226 -0.01241164 -0.02029984
v 0.01988303 -0.02357360 -0.02265200
v 0.00216484 -0.01241164 -0.02242063
v 0.00732922 -0.01397598 -0.02246505
v 0.01988303 -0.02597354 -0.02260493
v 0.01932775 -0.02789691 -0.02233975
v 0.01988303 -0.02717244 -0.02248726
v 0.01812691 -0.03423976 -0.01966738
v 0.01988303 -0.03423976 -0.01945391
v 0.01988303 -0.01632891 -0.01930043
v 0.01452637 -0.01301002 -0.01973831
v 0.01988303 -0.01397171 -0.01948374
v 0.01988303 -0.01275144 -0.01962064
v 0.00012813 -0.01241164 -0.02029188
v 0.00972892 -0.01277495 -0.02240969
v 0.01092779 -0.01241164 -0.02237390
v 0.01393380 -0.01335837 -0.02227876
v 0.01988303 -0.01517489 -0.02195689
v 0.00972892 -0.01241164 -0.02238947
v 0.01988303 -0.02789691 -0.02233876
v 0.01919432 -0.03423976 -0.01963025
v 0.01932775 -0.03423976 -0.01961534
v 0.01988303 -0.01241592 -0.01977710
v 0.01988107 -0.01241164 -0.01977776
v 0.01957694 -0.01241164 -0.01978505
v 0.01186178 -0.01241164 -0.02232384
v 0.01812691 -0.01241164 -0.02175768
v 0.01988303 -0.01241164 -0.02158166
v 0.01988303 -0.01241164 -0.02068037
f 1 2 3
f 1 3 4
f 1 4 5
f 1 5 13
f 1 13 25
f 1 25 14
f 1 14 6
f 1 6 16
f 1 16 11
f 1 11 2
f 2 7 8
f 2 8 9
f 2 9 10
f 2 10 3
f 2 11 12
f 2 12 7
f 3 10 23
f 3 23 36
f 3 36 37
f 3 37 24
f 3 24 13
f 3 13 5
f 3 5 4
f 6 14 15
f 6 15 16
f 7 17 33
f 7 33 43
f 7 43 44
f 7 44 38
f 7 38 28
f 7 28 27
f 7 27 25
f 7 25 13
f 7 13 24
f 7 24 35
f 7 35 22
f 7 22 20
f 7 20 8
f 7 12 18
f 7 18 19
f 7 19 17
f 8 20 9
f 9 21 10
f 9 20 22
f 9 22 21
f 10 21 23
f 11 16 29
f 11 29 40
f 11 40 39
f 11 39 44
f 11 44 43
f 11 43 42
f 11 42 41
f 11 41 31
f 11 31 34
f 11 34 18
f 11 18 12
f 14 25 15
f 15 26 16
f 15 25 27
f 15 27 26
f 16 26 28
f 16 28 29
f 17 19 30
f 17 30 31
f 17 31 32
f 17 32 33
f 18 34 30
f 18 30 19
f 21 35 23
f 21 22 35
f 23 35 36
f 24 37 35
f 26 27 28
f 28 38 39
f 28 39 40
f 28 40 29
f 30 34 31
f 31 41 32
f 32 41 42
f 32 42 33
f 33 42 43
f 35 37 36
f 38 44 39

