# https://github.com/mikedh/trimesh
v 0.03948557 -0.00019937 0.01292073
v 0.03945064 0.00642577 0.01291680
v 0.03873562 -0.00019937 0.01292073
v 0.04007059 -0.00019937 0.01192637
v 0.04049068 0.01122814 0.01267753
v 0.04053433 0.02082258 0.01273245
v 0.04051202 0.02202403 0.01273931
v 0.03874823 0.00642577 0.01291680
v 0.03854498 0.03044105 0.01274225
v 0.03616706 0.00522432 0.00818726
v 0.03616706 -0.00019937 0.00729391
v 0.03616706 0.03384973 0.01263340
v 0.04031265 -0.00019937 0.01148608
v 0.04088069 0.01122814 0.01192441
v 0.04083024 0.01962456 0.01192441
v 0.04081714 0.02082258 0.01192441
v 0.04048146 0.02322205 0.01272166
v 0.03735116 0.03169399 0.01270597
v 0.03937497 0.03042388 0.01267067
v 0.03845329 0.03153608 0.01270597
v 0.03616706 -0.00019937 0.00465016
v 0.03616706 0.03397674 0.01263144
v 0.04035291 -0.00019937 0.01138801
v 0.04112227 0.01242616 0.00290367
v 0.04109656 0.01482562 0.00592497
v 0.04110044 0.01602707 0.00592497
v 0.04063136 0.02682297 0.00698306
v 0.04075845 0.02202403 0.01192441
v 0.04033739 0.02868350 0.01253534
v 0.04036067 0.02802442 0.01256182
v 0.04039560 0.02682297 0.01260497
v 0.04042713 0.02562495 0.01264615
v 0.04045478 0.02442350 0.01268636
v 0.04111160 0.01722853 0.00352538
v 0.03917851 0.03107610 0.01258241
v 0.03685831 0.03363691 0.01262654
v 0.03837713 -0.00019251 0.00290367
v 0.03846202 -0.00019937 0.00290367
v 0.03616706 0.03085297 0.00290367
v 0.03616706 0.03486925 0.01192441
v 0.04035291 -0.00019937 0.01124778
v 0.04104029 0.01722853 0.00290367
v 0.04111402 0.01602707 0.00472567
v 0.04076087 0.00762722 0.00290367
v 0.04063136 0.02682297 0.00617797
v 0.04052948 0.02802442 0.00677517
v 0.04037135 0.02895468 0.01192441
v 0.04044265 0.02802442 0.01192441
v 0.04023164 0.02955541 0.01192441
v 0.04102040 0.01784641 0.00290367
v 0.03977614 0.03042388 0.01192441
v 0.03927213 0.03115162 0.01192441
v 0.03954426 -0.00019937 0.00290367
v 0.03616706 0.03353393 0.00290367
v 0.03697570 0.03377078 0.00832455
v 0.03616706 0.03479716 0.01078787
v 0.03930802 0.03116192 0.01072413
v 0.03918724 0.03110700 0.00493258
v 0.03943463 0.03073626 0.00290367
v 0.04052948 0.02802442 0.00623484
v 0.04064591 0.02203433 0.00290367
v 0.04037619 0.02900617 0.01100459
v 0.04028257 0.02933228 0.01065255
v 0.03988334 0.03042388 0.01072413
v 0.03616706 0.03469762 0.00952483
v 0.03881129 0.03134042 0.00290367
v 0.04035437 0.02864917 0.00641234
v 0.03952486 0.03045478 0.00290367
v 0.03976207 0.02922243 0.00290367
f 1 2 8
f 1 8 3
f 1 3 11
f 1 11 21
f 1 21 38
f 1 38 53
f 1 53 41
f 1 41 23
f 1 23 13
f 1 13 4
f 1 4 5
f 1 5 6
f 1 6 7
f 1 7 2
f 2 7 9
f 2 9 8
f 3 10 11
f 3 8 12
f 3 12 10
f 4 13 5
f 5 13 14
f 5 14 6
f 6 15 16
f 6 16 7
f 6 14 15
f 7 16 17
f 7 17 9
f 8 9 18
f 8 18 12
f 9 17 19
f 9 19 20
f 9 20 18
f 10 12 22
f 10 22 40
f 10 40 56
f 10 56 65
f 10 65 54
f 10 54 39
f 10 39 21
f 10 21 11
f 12 18 22
f 13 23 14
f 14 23 24
f 14 24 25
f 14 25 26
f 14 26 15
f 15 26 16
f 16 27 28
f 16 28 29
f 16 29 30
f 16 30 31
f 16 31 32
f 16 32 33
f 16 33 17
f 16 26 34
f 16 34 27
f 17 33 19
f 18 20 22
f 19 35 20
f 19 33 32
f 19 32 31
f 19 31 30
f 19 30 29
f 19 29 35
f 20 35 36
f 20 36 22
f 21 37 38
f 21 39 37
f 22 36 40
f 23 41 24
f 24 42 34
f 24 34 43
f 24 43 25
f 24 41 44
f 24 44 53
f 24 53 38
f 24 38 37
f 24 37 39
f 24 39 54
f 24 54 66
f 24 66 59
f 24 59 68
f 24 68 69
f 24 69 61
f 24 61 50
f 24 50 42
f 25 43 26
f 26 43 34
f 27 45 60
f 27 60 46
f 27 46 47
f 27 47 48
f 27 48 28
f 27 34 45
f 28 48 29
f 29 48 47
f 29 47 49
f 29 49 35
f 34 42 50
f 34 50 45
f 35 49 51
f 35 51 52
f 35 52 40
f 35 40 36
f 40 55 56
f 40 52 57
f 40 57 58
f 40 58 59
f 40 59 55
f 41 53 44
f 45 50 61
f 45 61 60
f 46 60 62
f 46 62 47
f 47 62 49
f 49 62 63
f 49 63 64
f 49 64 51
f 51 64 52
f 52 64 57
f 54 65 66
f 55 65 56
f 55 59 66
f 55 66 65
f 57 64 59
f 57 59 58
f 59 64 67
f 59 67 68
f 60 67 63
f 60 63 62
f 60 61 69
f 60 69 68
f 60 68 67
f 63 67 64

