# https://github.com/mikedh/trimesh
v 0.04181210 -0.04471711 -0.01057187
v 0.04181210 -0.04434094 -0.01061954
v 0.04159917 -0.04517427 -0.01023721
v 0.04159404 -0.04580098 -0.01024019
v 0.04181210 -0.04520266 -0.01080226
v 0.04155727 -0.04455817 -0.01026105
v 0.04181210 -0.04341186 -0.01192042
v 0.04143071 -0.04517427 -0.01023721
v 0.04143926 -0.04580098 -0.01024019
v 0.03748767 -0.04635275 -0.01070096
v 0.03862243 -0.04635275 -0.01078438
v 0.03878577 -0.04635275 -0.01086383
v 0.04181210 -0.04635275 -0.01297901
v 0.04148629 -0.04455817 -0.01026105
v 0.03624002 -0.04248656 -0.01324018
v 0.04181210 -0.04332482 -0.01208229
v 0.03852751 -0.04517427 -0.01083999
v 0.03774763 -0.04445939 -0.01140007
v 0.03548921 -0.04330514 -0.01265230
v 0.03740557 -0.04635275 -0.01072976
v 0.04181210 -0.04635275 -0.01970887
v 0.03612885 -0.04316020 -0.01252320
v 0.03502743 -0.04248656 -0.01332359
v 0.04181210 -0.04248656 -0.01896706
v 0.03651965 -0.04635275 -0.01129679
v 0.03427406 -0.04248656 -0.01380721
v 0.04092789 -0.04635275 -0.01977838
v 0.03972727 -0.04277494 -0.02030966
v 0.04092789 -0.04277494 -0.02019943
v 0.04181210 -0.04277494 -0.02011701
v 0.04181210 -0.04248656 -0.02012197
v 0.03592020 -0.04635275 -0.01184495
v 0.03307687 -0.04248656 -0.01544275
v 0.03426893 -0.04277494 -0.01379728
v 0.03533871 -0.04635275 -0.01244574
v 0.03852751 -0.04277494 -0.02035336
v 0.03307687 -0.04635275 -0.01937719
v 0.03852751 -0.04248656 -0.02037222
v 0.03943995 -0.04248656 -0.02033846
v 0.03972727 -0.04248656 -0.02031860
v 0.04063970 -0.04248656 -0.02023518
v 0.03307687 -0.04274050 -0.01548644
v 0.03307687 -0.04248656 -0.01960758
v 0.03307687 -0.04635275 -0.01668902
v 0.03823933 -0.04248656 -0.02038116
v 0.03307687 -0.04277494 -0.01959765
v 0.03690019 -0.04248656 -0.02024015
f 1 2 3
f 1 3 4
f 1 4 5
f 1 5 13
f 1 13 21
f 1 21 30
f 1 30 31
f 1 31 24
f 1 24 16
f 1 16 7
f 1 7 2
f 2 6 3
f 2 7 6
f 3 8 9
f 3 9 4
f 3 6 14
f 3 14 8
f 4 9 10
f 4 10 11
f 4 11 12
f 4 12 13
f 4 13 5
f 6 7 15
f 6 15 14
f 7 16 15
f 8 14 10
f 8 10 9
f 10 14 17
f 10 17 18
f 10 18 19
f 10 19 20
f 10 20 25
f 10 25 32
f 10 32 35
f 10 35 44
f 10 44 37
f 10 37 27
f 10 27 21
f 10 21 13
f 10 13 12
f 10 12 11
f 14 22 18
f 14 18 17
f 14 15 23
f 14 23 22
f 15 16 24
f 15 24 31
f 15 31 41
f 15 41 40
f 15 40 39
f 15 39 38
f 15 38 45
f 15 45 47
f 15 47 43
f 15 43 33
f 15 33 26
f 15 26 23
f 18 22 19
f 19 25 20
f 19 22 23
f 19 23 26
f 19 26 25
f 21 27 28
f 21 28 29
f 21 29 30
f 25 26 32
f 26 33 34
f 26 34 35
f 26 35 32
f 27 36 28
f 27 37 36
f 28 36 38
f 28 38 39
f 28 39 40
f 28 40 41
f 28 41 29
f 29 41 30
f 30 41 31
f 33 42 35
f 33 35 34
f 33 43 46
f 33 46 37
f 33 37 44
f 33 44 42
f 35 42 44
f 36 45 38
f 36 37 45
f 37 46 47
f 37 47 45
f 43 47 46

