# https://github.com/mikedh/trimesh
v -0.03234417 -0.03929348 -0.01304142
v -0.03087960 -0.03967697 -0.01304142
v -0.03245937 -0.03929348 -0.01411576
v -0.03455544 -0.03929348 -0.01304142
v -0.03087960 -0.04152961 -0.01304142
v -0.03087960 -0.03990111 -0.01411576
v -0.03479146 -0.03929348 -0.01411576
v -0.03462077 -0.03929348 -0.01317142
v -0.03805567 -0.04152961 -0.01411576
v -0.03777962 -0.04152961 -0.01374755
v -0.03723382 -0.04152961 -0.01317836
v -0.03577135 -0.04152961 -0.01305047
v -0.03432153 -0.03998603 -0.01304142
v -0.03087960 -0.04152961 -0.01411576
v -0.03242496 -0.04152961 -0.01304142
f 1 2 3
f 1 3 7
f 1 7 8
f 1 8 4
f 1 4 13
f 1 13 15
f 1 15 5
f 1 5 2
f 2 5 14
f 2 14 6
f 2 6 3
f 3 6 14
f 3 14 9
f 3 9 7
f 4 8 9
f 4 9 10
f 4 10 11
f 4 11 12
f 4 12 13
f 5 15 12
f 5 12 11
f 5 11 10
f 5 10 9
f 5 9 14
f 7 9 8
f 12 15 13

