# https://github.com/mikedh/trimesh
v -0.00518411 -0.00898657 -0.01980210
v -0.00518982 -0.00898657 -0.02047531
v -0.00519172 -0.00898657 -0.01963574
v -0.00016417 -0.01036700 -0.02047531
v -0.00534972 -0.00898657 -0.02077954
v -0.00776927 -0.00898657 -0.01963574
v -0.00016417 -0.01043927 -0.01963574
v -0.00016417 -0.01064240 -0.02177684
v -0.00597603 -0.00898657 -0.02191988
v -0.00707634 -0.00958916 -0.01963574
v -0.01961001 -0.00898657 -0.02039242
v -0.01961001 -0.00917492 -0.02035587
v -0.01646707 -0.01304023 -0.01964035
v -0.00016417 -0.01190732 -0.01963574
v -0.00016417 -0.01089562 -0.02204480
v -0.00635486 -0.00898657 -0.02227908
v -0.00664421 -0.00993455 -0.01963574
v -0.01961001 -0.00898657 -0.02172935
v -0.01961001 -0.01037497 -0.02031269
v -0.01961001 -0.01211217 -0.02030492
v -0.01639664 -0.01397455 -0.01968755
v -0.01579128 -0.01304023 -0.01964035
v -0.00112551 -0.01197333 -0.01963574
v -0.00168519 -0.01191529 -0.01963574
v -0.00220869 -0.01184871 -0.01963574
v -0.00272839 -0.01170589 -0.01963574
v -0.00617591 -0.01019004 -0.01963574
v -0.00016417 -0.01479905 -0.02093266
v -0.01581983 -0.01397455 -0.01968755
v -0.01638522 -0.01479905 -0.01978195
v -0.00016417 -0.01126092 -0.02230009
v -0.00034692 -0.01107201 -0.02224483
v -0.00133682 -0.01083473 -0.02235996
v -0.00701733 -0.00898657 -0.02244084
v -0.01850589 -0.01334295 -0.02228829
v -0.01961001 -0.01392277 -0.02196478
v -0.01563898 -0.00898657 -0.02230297
v -0.01961001 -0.01479905 -0.02052770
v -0.01901417 -0.01479905 -0.02035644
v -0.01654322 -0.01479905 -0.01978195
v -0.00016417 -0.01479905 -0.02230326
v -0.00016417 -0.01151300 -0.02238155
v -0.00827755 -0.00898657 -0.02255741
v -0.00709157 -0.00898657 -0.02244832
v -0.01850589 -0.01340554 -0.02228829
v -0.00827374 -0.00917492 -0.02257611
v -0.01961001 -0.01479905 -0.02194032
v -0.00846220 -0.00898657 -0.02256518
v -0.00035644 -0.01479905 -0.02230815
v -0.00107221 -0.01277450 -0.02240342
v -0.00016417 -0.01284449 -0.02237320
v -0.00227342 -0.01157502 -0.02246041
v -0.01904272 -0.01479905 -0.02197169
v -0.00624825 -0.01479905 -0.02241925
v -0.00585419 -0.01479905 -0.02241464
f 1 2 5
f 1 5 9
f 1 9 16
f 1 16 34
f 1 34 44
f 1 44 43
f 1 43 48
f 1 48 37
f 1 37 18
f 1 18 11
f 1 11 6
f 1 6 3
f 1 3 4
f 1 4 2
f 2 4 5
f 3 6 10
f 3 10 17
f 3 17 27
f 3 27 26
f 3 26 25
f 3 25 24
f 3 24 23
f 3 23 14
f 3 14 7
f 3 7 4
f 4 7 14
f 4 14 28
f 4 28 41
f 4 41 51
f 4 51 42
f 4 42 31
f 4 31 15
f 4 15 8
f 4 8 9
f 4 9 5
f 6 11 12
f 6 12 13
f 6 13 10
f 8 15 16
f 8 16 9
f 10 13 17
f 11 18 36
f 11 36 47
f 11 47 38
f 11 38 20
f 11 20 19
f 11 19 12
f 12 19 13
f 13 19 20
f 13 20 21
f 13 21 29
f 13 29 22
f 13 22 23
f 13 23 24
f 13 24 25
f 13 25 26
f 13 26 27
f 13 27 17
f 14 23 29
f 14 29 30
f 14 30 28
f 15 31 32
f 15 32 33
f 15 33 16
f 16 33 34
f 18 35 36
f 18 37 35
f 20 38 39
f 20 39 21
f 21 39 40
f 21 40 30
f 21 30 29
f 22 29 23
f 28 30 40
f 28 40 39
f 28 39 38
f 28 38 47
f 28 47 53
f 28 53 54
f 28 54 55
f 28 55 49
f 28 49 41
f 31 42 33
f 31 33 32
f 33 42 43
f 33 43 44
f 33 44 34
f 35 45 36
f 35 37 46
f 35 46 45
f 36 45 47
f 37 48 46
f 41 49 50
f 41 50 51
f 42 51 52
f 42 52 46
f 42 46 43
f 43 46 48
f 45 53 47
f 45 46 54
f 45 54 53
f 46 52 54
f 49 55 50
f 50 52 51
f 50 55 52
f 52 55 54

