# https://github.com/mikedh/trimesh
v 0.02301298 -0.03468988 0.00594747
v 0.02646302 -0.03370560 0.00594202
v 0.02772875 -0.03381217 0.00594202
v 0.02329591 -0.03468988 0.00596711
v 0.02301298 -0.03468988 0.00737318
v 0.02301298 -0.03197439 0.00598129
v 0.02436061 -0.03077407 0.00594202
v 0.02430942 -0.03198117 0.00594202
v 0.02559842 -0.03317858 0.00594202
v 0.02800051 -0.03369301 0.00594202
v 0.02925042 -0.03468988 0.00708630
v 0.02638857 -0.03468988 0.00625017
v 0.02412887 -0.03468988 0.00603528
v 0.02358349 -0.03468988 0.00599056
v 0.03132771 -0.03468988 0.00930940
v 0.02830299 -0.03019765 0.01133507
v 0.02815035 -0.02957472 0.01141797
v 0.02755099 -0.02957472 0.01105691
v 0.02301298 -0.02479282 0.00725374
v 0.02301298 -0.02479282 0.00614164
v 0.02495811 -0.02920174 0.00594202
v 0.02892375 -0.03327546 0.00594202
v 0.03091634 -0.03468988 0.00763280
v 0.03221185 -0.03468988 0.00947085
v 0.03251991 -0.03468988 0.00950848
v 0.02846865 -0.03019765 0.01133507
v 0.02889211 -0.02963381 0.01143815
v 0.02892747 -0.02837537 0.01151342
v 0.02810661 -0.02837537 0.01146215
v 0.02824435 -0.02771369 0.01139343
v 0.03130351 -0.02479282 0.00830039
v 0.02388875 -0.02479282 0.00610946
v 0.02581527 -0.02765266 0.00594202
v 0.03251991 -0.03468988 0.00821694
v 0.02905126 -0.03320377 0.00594202
v 0.03251991 -0.02837537 0.00943321
v 0.02959384 -0.02927343 0.01138907
v 0.02926903 -0.03007170 0.01129853
v 0.02958081 -0.02837537 0.01137652
v 0.02953242 -0.02777085 0.01132907
v 0.02892747 -0.02772532 0.01137925
v 0.03251991 -0.02479282 0.00844601
v 0.03250595 -0.02479282 0.00844492
v 0.02412887 -0.02479282 0.00610073
v 0.02414655 -0.02479282 0.00610019
v 0.02724201 -0.02671778 0.00594202
v 0.03021182 -0.03225630 0.00594202
v 0.03033374 -0.03215265 0.00594202
v 0.03043239 -0.03202283 0.00594202
v 0.03113413 -0.03101239 0.00594202
v 0.03120579 -0.03085739 0.00594202
v 0.03251991 -0.03196179 0.00737536
v 0.03251991 -0.02718183 0.00919977
v 0.03251991 -0.02637871 0.00897288
v 0.03251991 -0.02479282 0.00706775
v 0.02532852 -0.02479282 0.00608110
v 0.02851797 -0.02658409 0.00594202
v 0.03251991 -0.03076438 0.00701812
v 0.03251991 -0.03077504 0.00701812
v 0.03115460 -0.02957956 0.00594202
v 0.03106432 -0.02757322 0.00594202
v 0.03105874 -0.02755287 0.00594202
v 0.02964038 -0.02479282 0.00648634
v 0.02534714 -0.02479282 0.00608164
v 0.02892747 -0.02659281 0.00594202
v 0.03009269 -0.02696579 0.00594202
v 0.02893864 -0.02479282 0.00640180
v 0.02652817 -0.02479282 0.00614436
v 0.02654679 -0.02479282 0.00614600
v 0.02774644 -0.02479282 0.00627417
f 1 2 3
f 1 3 4
f 1 4 14
f 1 14 13
f 1 13 12
f 1 12 11
f 1 11 23
f 1 23 34
f 1 34 25
f 1 25 24
f 1 24 15
f 1 15 5
f 1 5 19
f 1 19 20
f 1 20 6
f 1 6 7
f 1 7 8
f 1 8 9
f 1 9 2
f 2 9 8
f 2 8 7
f 2 7 21
f 2 21 33
f 2 33 46
f 2 46 57
f 2 57 65
f 2 65 66
f 2 66 62
f 2 62 61
f 2 61 60
f 2 60 51
f 2 51 50
f 2 50 49
f 2 49 48
f 2 48 47
f 2 47 35
f 2 35 22
f 2 22 10
f 2 10 3
f 3 10 11
f 3 11 12
f 3 12 13
f 3 13 14
f 3 14 4
f 5 15 16
f 5 16 17
f 5 17 18
f 5 18 19
f 6 20 21
f 6 21 7
f 10 22 23
f 10 23 11
f 15 24 16
f 16 24 25
f 16 25 26
f 16 26 27
f 16 27 17
f 17 27 28
f 17 28 29
f 17 29 18
f 18 29 19
f 19 29 30
f 19 30 31
f 19 31 43
f 19 43 42
f 19 42 55
f 19 55 63
f 19 63 67
f 19 67 70
f 19 70 69
f 19 69 68
f 19 68 64
f 19 64 56
f 19 56 45
f 19 45 44
f 19 44 32
f 19 32 20
f 20 32 33
f 20 33 21
f 22 34 23
f 22 35 34
f 25 34 52
f 25 52 59
f 25 59 58
f 25 58 55
f 25 55 42
f 25 42 54
f 25 54 53
f 25 53 36
f 25 36 37
f 25 37 38
f 25 38 26
f 26 38 27
f 27 38 37
f 27 37 28
f 28 37 39
f 28 39 40
f 28 40 41
f 28 41 30
f 28 30 29
f 30 41 42
f 30 42 43
f 30 43 31
f 32 44 33
f 33 44 45
f 33 45 46
f 34 35 47
f 34 47 48
f 34 48 49
f 34 49 50
f 34 50 51
f 34 51 52
f 36 53 40
f 36 40 39
f 36 39 37
f 40 53 54
f 40 54 42
f 40 42 41
f 45 56 46
f 46 56 57
f 51 58 59
f 51 59 52
f 51 60 55
f 51 55 58
f 55 60 61
f 55 61 62
f 55 62 63
f 56 64 65
f 56 65 57
f 62 66 63
f 63 66 67
f 64 68 65
f 65 68 66
f 66 68 69
f 66 69 70
f 66 70 67

