# https://github.com/mikedh/trimesh
v 0.02491645 -0.01410941 0.02392507
v 0.02494064 -0.01517212 0.02186858
v 0.02491414 -0.01410941 0.02262543
v 0.02491530 -0.01410941 0.02408489
v 0.02488765 -0.01412547 0.02186858
v 0.02488996 -0.01410941 0.02191826
v 0.02490493 -0.01410941 0.02234513
v 0.02476440 -0.01483854 0.02582713
v 0.02478744 -0.01498008 0.02512452
v 0.02467686 -0.01557992 0.02512452
v 0.02479320 -0.01589513 0.02186858
v 0.02477362 -0.01410941 0.02556878
v 0.02476440 -0.01424636 0.02582713
v 0.02488074 -0.01410941 0.02186858
v 0.02466189 -0.01410941 0.02600020
v 0.02459853 -0.01410941 0.02609791
v 0.02453979 -0.01506960 0.02609791
v 0.02444188 -0.01526699 0.02609791
v 0.02401685 -0.01595711 0.02609791
v 0.02388669 -0.01611472 0.02609791
v 0.02398805 -0.01643299 0.02506118
v 0.02423224 -0.01675280 0.02186858
v 0.02467917 -0.01410941 0.02593395
v 0.02080200 -0.01410941 0.02186858
v 0.01317438 -0.01410941 0.02609791
v 0.02373003 -0.01625167 0.02609791
v 0.02356301 -0.01700834 0.02461899
v 0.02380375 -0.01725011 0.02186858
v 0.01317438 -0.01746051 0.02186858
v 0.01317438 -0.01435959 0.02547645
v 0.01317438 -0.01620500 0.02609791
v 0.02228560 -0.01815292 0.02447656
v 0.02275095 -0.01677729 0.02609791
v 0.01850173 -0.02192483 0.02254179
v 0.01877588 -0.02192483 0.02226605
v 0.02258163 -0.01840846 0.02272521
v 0.02318175 -0.01779486 0.02272521
v 0.02016272 -0.02080627 0.02233809
v 0.02022031 -0.02086824 0.02186858
v 0.02099897 -0.02009932 0.02186858
v 0.01317438 -0.01908557 0.02186858
v 0.01317438 -0.01801521 0.02416066
v 0.01447713 -0.02192483 0.02186858
v 0.01461766 -0.02192483 0.02204247
v 0.01621414 -0.02192483 0.02338311
v 0.01572805 -0.01948571 0.02470594
v 0.01572805 -0.01877418 0.02509181
v 0.02172695 -0.01685915 0.02609791
v 0.01887379 -0.02186974 0.02222216
v 0.01655163 -0.02192483 0.02338311
v 0.01715175 -0.02192483 0.02320507
v 0.01752726 -0.02192483 0.02308376
v 0.01881850 -0.02192483 0.02219070
v 0.01983674 -0.02121406 0.02186858
v 0.01883117 -0.02192483 0.02216751
v 0.01317438 -0.01880708 0.02272521
v 0.01317438 -0.01842989 0.02365016
v 0.01893253 -0.02192483 0.02186858
v 0.01646179 -0.01948418 0.02472084
v 0.01924008 -0.02168918 0.02186858
f 1 2 3
f 1 3 7
f 1 7 6
f 1 6 14
f 1 14 24
f 1 24 25
f 1 25 16
f 1 16 15
f 1 15 23
f 1 23 12
f 1 12 4
f 1 4 2
f 2 5 6
f 2 6 7
f 2 7 3
f 2 4 8
f 2 8 9
f 2 9 10
f 2 10 11
f 2 11 22
f 2 22 28
f 2 28 40
f 2 40 39
f 2 39 54
f 2 54 60
f 2 60 58
f 2 58 43
f 2 43 41
f 2 41 29
f 2 29 24
f 2 24 14
f 2 14 5
f 4 12 13
f 4 13 8
f 5 14 6
f 8 13 15
f 8 15 16
f 8 16 17
f 8 17 18
f 8 18 10
f 8 10 9
f 10 18 19
f 10 19 20
f 10 20 21
f 10 21 22
f 10 22 11
f 12 23 13
f 13 23 15
f 16 25 31
f 16 31 48
f 16 48 33
f 16 33 26
f 16 26 20
f 16 20 19
f 16 19 18
f 16 18 17
f 20 26 27
f 20 27 21
f 21 28 22
f 21 27 28
f 24 29 30
f 24 30 25
f 25 30 29
f 25 29 41
f 25 41 56
f 25 56 57
f 25 57 42
f 25 42 31
f 26 32 27
f 26 33 34
f 26 34 35
f 26 35 32
f 27 36 37
f 27 37 28
f 27 32 38
f 27 38 39
f 27 39 36
f 28 37 36
f 28 36 40
f 31 42 43
f 31 43 44
f 31 44 45
f 31 45 46
f 31 46 47
f 31 47 48
f 32 35 49
f 32 49 38
f 33 48 50
f 33 50 51
f 33 51 52
f 33 52 34
f 34 52 51
f 34 51 50
f 34 50 45
f 34 45 44
f 34 44 43
f 34 43 58
f 34 58 55
f 34 55 53
f 34 53 35
f 35 53 49
f 36 39 40
f 38 54 39
f 38 49 55
f 38 55 54
f 41 43 56
f 42 57 43
f 43 57 56
f 45 50 59
f 45 59 46
f 46 59 47
f 47 59 48
f 48 59 50
f 49 53 55
f 54 55 60
f 55 58 60

