# https://github.com/mikedh/trimesh
v -0.04096248 0.04302614 -0.01511483
v -0.04096248 0.03834048 -0.01382313
v -0.04096248 0.04302614 -0.01946618
v -0.04327621 0.04302614 -0.01366959
v -0.04096248 0.03815172 -0.01377143
v -0.04096248 0.03963695 -0.01996829
v -0.04097107 0.03962923 -0.01997456
v -0.04907428 0.04302614 -0.02060043
v -0.04369907 0.04302614 -0.01349413
v -0.04096248 0.03762661 -0.01365001
v -0.04096248 0.03882612 -0.01996359
v -0.04098998 0.03882440 -0.01999728
v -0.04190276 0.03889476 -0.02011399
v -0.05027240 0.04242380 -0.02084483
v -0.05026380 0.04302614 -0.02061923
v -0.04427321 0.04302614 -0.01333433
v -0.04096248 0.03640221 -0.01357795
v -0.04096248 0.03426059 -0.01949282
v -0.04196636 0.03766179 -0.02006229
v -0.05748174 0.03426059 -0.02119498
v -0.05761066 0.03426059 -0.02119419
v -0.05818308 0.03522672 -0.02111899
v -0.05808166 0.03584965 -0.02108061
v -0.05145161 0.04242981 -0.02045630
v -0.05110953 0.04302614 -0.02029807
v -0.04487141 0.04302614 -0.01324268
v -0.04096248 0.03426059 -0.01365550
v -0.04547305 0.04242380 -0.01319255
v -0.04547305 0.04122429 -0.01320587
v -0.05852343 0.03426059 -0.02115659
v -0.05812635 0.03603069 -0.02047432
v -0.05691276 0.03826412 -0.01994087
v -0.05110953 0.04302614 -0.01981711
v -0.04547305 0.04302614 -0.01320430
v -0.05483453 0.03426059 -0.01332258
v -0.04598014 0.04302614 -0.01321135
v -0.04667289 0.04242380 -0.01321057
v -0.05851827 0.03426059 -0.02057458
v -0.05813151 0.03607616 -0.01983591
v -0.05691276 0.03826412 -0.01983356
v -0.04840732 0.04296264 -0.01416622
v -0.04834716 0.04302614 -0.01421400
v -0.05507862 0.03426059 -0.01335078
v -0.04607124 0.04302614 -0.01321370
v -0.04795351 0.04250617 -0.01348003
v -0.05599999 0.03426059 -0.01351136
v -0.05663773 0.03426059 -0.01447642
v -0.05585044 0.03488094 -0.01373069
v -0.05554618 0.03568147 -0.01421087
v -0.04963122 0.04176913 -0.01409729
v -0.04827324 0.04302614 -0.01408162
v -0.04742407 0.04302614 -0.01348238
v -0.04869095 0.04221702 -0.01362494
v -0.05114907 0.03977767 -0.01365784
v -0.05474515 0.03610448 -0.01370484
v -0.05612719 0.03426059 -0.01356463
v -0.04883190 0.04216211 -0.01365315
v -0.04773864 0.04302614 -0.01359205
f 1 2 5
f 1 5 10
f 1 10 17
f 1 17 27
f 1 27 18
f 1 18 11
f 1 11 6
f 1 6 3
f 1 3 8
f 1 8 15
f 1 15 25
f 1 25 33
f 1 33 42
f 1 42 51
f 1 51 58
f 1 58 52
f 1 52 44
f 1 44 36
f 1 36 34
f 1 34 26
f 1 26 16
f 1 16 9
f 1 9 4
f 1 4 2
f 2 4 5
f 3 6 7
f 3 7 8
f 4 9 10
f 4 10 5
f 6 11 12
f 6 12 7
f 7 12 13
f 7 13 14
f 7 14 8
f 8 14 15
f 9 16 10
f 10 16 17
f 11 18 12
f 12 18 19
f 12 19 13
f 13 19 20
f 13 20 14
f 14 20 21
f 14 21 22
f 14 22 23
f 14 23 15
f 15 23 24
f 15 24 25
f 16 26 17
f 17 26 28
f 17 28 29
f 17 29 27
f 18 27 35
f 18 35 43
f 18 43 46
f 18 46 56
f 18 56 47
f 18 47 38
f 18 38 30
f 18 30 21
f 18 21 20
f 18 20 19
f 21 30 22
f 22 30 23
f 23 30 31
f 23 31 32
f 23 32 25
f 23 25 24
f 25 32 40
f 25 40 33
f 26 34 28
f 27 29 35
f 28 34 36
f 28 36 37
f 28 37 35
f 28 35 29
f 30 38 39
f 30 39 31
f 31 39 32
f 32 39 40
f 33 40 41
f 33 41 42
f 35 37 43
f 36 44 37
f 37 44 45
f 37 45 46
f 37 46 43
f 38 47 39
f 39 47 40
f 40 47 48
f 40 48 49
f 40 49 50
f 40 50 41
f 41 50 51
f 41 51 42
f 44 52 45
f 45 53 54
f 45 54 46
f 45 52 53
f 46 54 55
f 46 55 56
f 47 56 48
f 48 55 49
f 48 56 55
f 49 55 50
f 50 57 51
f 50 55 54
f 50 54 57
f 51 57 58
f 52 58 57
f 52 57 53
f 53 57 54

