# https://github.com/mikedh/trimesh
v 0.00733556 -0.02736400 0.02187396
v 0.00767223 -0.02741041 0.02186858
v 0.00854162 -0.02759602 0.02186858
v 0.00910464 -0.02771605 0.02186858
v 0.00733556 -0.02723222 0.02272521
v 0.00733556 -0.02591685 0.02186858
v 0.00933271 -0.02775936 0.02186858
v 0.00733556 -0.02723098 0.02273225
v 0.00733556 -0.02588468 0.02186858
v 0.00956077 -0.02777482 0.02186858
v 0.00942873 -0.02774822 0.02203088
v 0.00733556 -0.02700020 0.02393211
v 0.00733556 -0.02436452 0.02609708
v 0.00825811 -0.02147949 0.02609791
v 0.00960993 -0.02147949 0.02186858
v 0.01000433 -0.02779895 0.02186858
v 0.01022839 -0.02777730 0.02215923
v 0.00852848 -0.02665620 0.02609543
v 0.00733556 -0.02673725 0.02519739
v 0.00733556 -0.02438988 0.02609791
v 0.01208092 -0.02147949 0.02609791
v 0.01208664 -0.02147949 0.02186858
v 0.01007235 -0.02779895 0.02186858
v 0.01036614 -0.02777730 0.02215923
v 0.01317438 -0.02708249 0.02512452
v 0.01317438 -0.02683006 0.02609791
v 0.00733556 -0.02672426 0.02524832
v 0.00733556 -0.02673169 0.02522016
v 0.00852848 -0.02665497 0.02609791
v 0.00793574 -0.02657701 0.02609791
v 0.00733556 -0.02646564 0.02609791
v 0.01317438 -0.02412879 0.02512452
v 0.01317438 -0.02231907 0.02186858
v 0.01209235 -0.02147949 0.02542884
v 0.01311264 -0.02478400 0.02609791
v 0.01317438 -0.02478462 0.02605485
v 0.01317438 -0.02469305 0.02597908
v 0.01046789 -0.02779277 0.02186858
v 0.01317438 -0.02710971 0.02497092
v 0.01317438 -0.02501354 0.02609791
v 0.00769166 -0.02660856 0.02585198
v 0.00747046 -0.02649101 0.02609791
v 0.01317438 -0.02718705 0.02186858
v 0.01074282 -0.02774574 0.02186858
v 0.01145731 -0.02760282 0.02186858
v 0.01247132 -0.02738380 0.02186858
v 0.01317438 -0.02719881 0.02257160
f 1 2 3
f 1 3 4
f 1 4 5
f 1 5 8
f 1 8 12
f 1 12 19
f 1 19 28
f 1 28 27
f 1 27 31
f 1 31 20
f 1 20 13
f 1 13 9
f 1 9 6
f 1 6 2
f 2 6 9
f 2 9 15
f 2 15 22
f 2 22 33
f 2 33 43
f 2 43 46
f 2 46 45
f 2 45 44
f 2 44 38
f 2 38 23
f 2 23 16
f 2 16 10
f 2 10 7
f 2 7 4
f 2 4 3
f 4 7 5
f 5 7 8
f 7 10 11
f 7 11 8
f 8 11 12
f 9 13 14
f 9 14 15
f 10 16 17
f 10 17 11
f 11 17 18
f 11 18 19
f 11 19 12
f 13 20 14
f 14 21 34
f 14 34 22
f 14 22 15
f 14 20 31
f 14 31 42
f 14 42 30
f 14 30 29
f 14 29 26
f 14 26 40
f 14 40 35
f 14 35 21
f 16 23 24
f 16 24 17
f 17 24 25
f 17 25 26
f 17 26 18
f 18 27 28
f 18 28 19
f 18 26 29
f 18 29 30
f 18 30 27
f 21 32 33
f 21 33 34
f 21 35 36
f 21 36 37
f 21 37 32
f 22 34 33
f 23 38 24
f 24 38 39
f 24 39 25
f 25 39 47
f 25 47 43
f 25 43 33
f 25 33 32
f 25 32 37
f 25 37 36
f 25 36 40
f 25 40 26
f 27 30 41
f 27 41 31
f 30 42 41
f 31 41 42
f 35 40 36
f 38 44 39
f 39 44 45
f 39 45 46
f 39 46 47
f 43 47 46

