# https://github.com/mikedh/trimesh
v 0.01212483 -0.01592388 0.02878792
v 0.02292716 -0.01411370 0.02878792
v 0.02292716 -0.01390913 0.02992500
v 0.01212483 -0.01589289 0.02886304
v 0.01212483 0.01574185 0.02878792
v 0.02297654 -0.01409821 0.02878792
v 0.02387431 -0.01362396 0.02992500
v 0.02367424 -0.01349378 0.03063807
v 0.02292716 -0.01357747 0.03071296
v 0.01212483 -0.01537215 0.02990331
v 0.01212483 0.01450200 0.03085521
v 0.02365904 0.01310408 0.03059628
v 0.02292716 0.01397817 0.02880025
v 0.02293855 0.01398127 0.02878792
v 0.02416807 -0.01365806 0.02878792
v 0.02464292 -0.01318382 0.02904159
v 0.02445045 -0.01278087 0.02996176
v 0.02460366 -0.01187578 0.03038622
v 0.02474042 -0.01107608 0.03053920
v 0.02384392 -0.01277157 0.03066570
v 0.02292716 -0.01277157 0.03088740
v 0.01212483 -0.01397732 0.03100591
v 0.01212863 -0.01482352 0.03077507
v 0.01212483 -0.01482662 0.03077141
v 0.01212483 -0.01484831 0.03073716
v 0.01212483 0.01362481 0.03112053
v 0.02392116 0.01242526 0.03070611
v 0.02472142 0.01179294 0.03051409
v 0.02452136 0.01242526 0.03025996
v 0.02475308 0.01305138 0.02938249
v 0.02408577 0.01323736 0.02983960
v 0.02402372 0.01364341 0.02878792
v 0.02292716 0.01122261 0.03106299
v 0.02433522 -0.01351238 0.02878792
v 0.02476194 -0.01290485 0.02878792
v 0.02478980 -0.01238412 0.02958661
v 0.02497214 -0.01037246 0.02992500
v 0.02476448 -0.01037246 0.03056592
v 0.02412755 -0.01037246 0.03076730
v 0.02485185 -0.01151312 0.02996176
v 0.02292716 -0.00917291 0.03097234
v 0.02292716 -0.00797335 0.03099906
v 0.02292716 0.00882350 0.03111094
v 0.02424405 0.01132489 0.03078740
v 0.02476068 0.01099323 0.03057094
v 0.02488097 0.01132489 0.03003825
v 0.02482146 0.01242526 0.02966014
v 0.02491896 0.01242526 0.02878792
v 0.02478347 0.01308858 0.02878792
v 0.02412755 0.01002305 0.03095271
v 0.02481133 -0.01273127 0.02878792
v 0.02497087 -0.01163091 0.02878792
v 0.02497847 -0.01156891 0.02878792
v 0.02505951 -0.01037246 0.02878792
v 0.02498100 0.01002305 0.02992500
v 0.02480120 0.01002305 0.03062757
v 0.02423645 -0.00911401 0.03077278
v 0.02500759 0.01122880 0.02878792
v 0.02492402 0.01237256 0.02878792
v 0.02501139 0.01116061 0.02878792
f 1 2 3
f 1 3 4
f 1 4 10
f 1 10 25
f 1 25 24
f 1 24 22
f 1 22 26
f 1 26 11
f 1 11 5
f 1 5 14
f 1 14 32
f 1 32 49
f 1 49 48
f 1 48 59
f 1 59 58
f 1 58 60
f 1 60 54
f 1 54 53
f 1 53 52
f 1 52 51
f 1 51 35
f 1 35 34
f 1 34 15
f 1 15 6
f 1 6 2
f 2 6 7
f 2 7 3
f 3 7 8
f 3 8 9
f 3 9 4
f 4 9 10
f 5 11 12
f 5 12 13
f 5 13 14
f 6 15 7
f 7 15 16
f 7 16 8
f 8 16 17
f 8 17 18
f 8 18 19
f 8 19 20
f 8 20 21
f 8 21 9
f 9 22 23
f 9 23 24
f 9 24 25
f 9 25 10
f 9 21 22
f 11 26 12
f 12 27 28
f 12 28 29
f 12 29 30
f 12 30 31
f 12 31 32
f 12 32 14
f 12 14 13
f 12 26 33
f 12 33 27
f 15 34 16
f 16 34 35
f 16 35 36
f 16 36 17
f 17 36 18
f 18 36 19
f 19 37 38
f 19 38 39
f 19 39 20
f 19 36 40
f 19 40 37
f 20 39 21
f 21 39 41
f 21 41 22
f 22 24 23
f 22 41 42
f 22 42 43
f 22 43 26
f 26 43 33
f 27 33 44
f 27 44 28
f 28 44 45
f 28 45 46
f 28 46 47
f 28 47 30
f 28 30 29
f 30 47 48
f 30 48 49
f 30 49 32
f 30 32 31
f 33 43 50
f 33 50 44
f 35 51 36
f 36 51 52
f 36 52 53
f 36 53 40
f 37 40 53
f 37 53 54
f 37 54 55
f 37 55 56
f 37 56 38
f 38 57 39
f 38 56 50
f 38 50 57
f 39 57 42
f 39 42 41
f 42 57 50
f 42 50 43
f 44 50 45
f 45 50 56
f 45 56 46
f 46 58 59
f 46 59 47
f 46 56 55
f 46 55 58
f 47 59 48
f 54 60 55
f 55 60 58

