# https://github.com/mikedh/trimesh
v -0.04907189 0.01527642 -0.02266636
v -0.04908551 0.01527642 -0.02266510
v -0.04907189 0.01602556 -0.02291542
v -0.04825594 0.01529703 -0.02242736
v -0.04833420 0.01527642 -0.02244371
v -0.04908551 0.01602633 -0.02291291
v -0.04908551 0.01527642 -0.01356675
v -0.04786231 0.01602556 -0.02254938
v -0.04908551 0.02180109 -0.02249025
v -0.04907189 0.02179727 -0.02249025
v -0.04830289 0.02158498 -0.02237704
v -0.04709186 0.01842573 -0.02238711
v -0.04704316 0.01722603 -0.02243239
v -0.04822782 0.01527642 -0.02232924
v -0.04715679 0.01642572 -0.02236698
v -0.04612431 0.01527642 -0.01938451
v -0.04876319 0.01527642 -0.01006603
v -0.04908551 0.01961475 -0.01108870
v -0.04908551 0.02180949 -0.02248522
v -0.04701215 0.02082514 -0.02141350
v -0.04722172 0.01920619 -0.02230786
v -0.04908551 0.02245249 -0.02179715
v -0.04612431 0.02307716 -0.01929772
v -0.04685765 0.01961322 -0.02175690
v -0.04653301 0.01842573 -0.02167388
v -0.04655272 0.01722603 -0.02167388
v -0.04612431 0.01720617 -0.02042731
v -0.04612431 0.01527642 -0.01074907
v -0.04846782 0.01527642 -0.01006603
v -0.04873739 0.01602556 -0.01010629
v -0.04908551 0.02088929 -0.01118178
v -0.04908551 0.02255024 -0.02161476
v -0.04612431 0.02307716 -0.01785617
v -0.04612431 0.01962467 -0.02078706
v -0.04619184 0.01962467 -0.02088392
v -0.04908551 0.02307716 -0.01971408
v -0.04612431 0.01947118 -0.02082228
v -0.04612431 0.01842573 -0.02101977
v -0.04612431 0.01730774 -0.02048014
v -0.04612431 0.01544977 -0.01075410
v -0.04632054 0.01527642 -0.01067234
v -0.04782694 0.01527642 -0.01008742
v -0.04795216 0.01602556 -0.01010629
v -0.04861188 0.01699006 -0.01019685
v -0.04905334 0.02089234 -0.01118304
v -0.04908551 0.02094503 -0.01120065
v -0.04816318 0.01699006 -0.01019685
v -0.04787187 0.01962467 -0.01086605
v -0.04683765 0.02307716 -0.01765994
v -0.04612431 0.02266479 -0.01327618
v -0.04908551 0.02307716 -0.01715049
v -0.04612431 0.01657387 -0.01082328
v -0.04733418 0.01527642 -0.01027736
v -0.04612431 0.01777357 -0.01092392
v -0.04612431 0.01842573 -0.01098807
v -0.04612431 0.01896411 -0.01104719
v -0.04612431 0.01966056 -0.01115034
v -0.04667214 0.02062888 -0.01131386
v -0.04612431 0.02246013 -0.01235540
v -0.04908551 0.02192862 -0.01204470
v -0.04612431 0.02159261 -0.01177299
v -0.04667214 0.01962467 -0.01102455
v -0.04898812 0.02307716 -0.01714294
v -0.04612431 0.02261362 -0.01271516
v -0.04908551 0.02243951 -0.01329882
v -0.04612431 0.02011112 -0.01123713
v -0.04612431 0.02055328 -0.01136544
v -0.04612431 0.02072816 -0.01141701
v -0.04908551 0.02199124 -0.01210759
v -0.04908551 0.02200880 -0.01215288
f 1 2 3
f 1 3 4
f 1 4 5
f 1 5 14
f 1 14 16
f 1 16 28
f 1 28 41
f 1 41 53
f 1 53 42
f 1 42 29
f 1 29 17
f 1 17 7
f 1 7 2
f 2 6 3
f 2 7 18
f 2 18 31
f 2 31 46
f 2 46 60
f 2 60 69
f 2 69 70
f 2 70 65
f 2 65 51
f 2 51 36
f 2 36 32
f 2 32 22
f 2 22 19
f 2 19 9
f 2 9 6
f 3 8 4
f 3 6 9
f 3 9 10
f 3 10 11
f 3 11 12
f 3 12 13
f 3 13 8
f 4 14 5
f 4 8 15
f 4 15 16
f 4 16 14
f 7 17 18
f 8 13 15
f 9 19 10
f 10 19 11
f 11 20 21
f 11 21 12
f 11 19 22
f 11 22 23
f 11 23 20
f 12 21 24
f 12 24 25
f 12 25 13
f 13 25 26
f 13 26 15
f 15 26 16
f 16 26 27
f 16 27 39
f 16 39 38
f 16 38 37
f 16 37 34
f 16 34 23
f 16 23 33
f 16 33 50
f 16 50 64
f 16 64 59
f 16 59 61
f 16 61 68
f 16 68 67
f 16 67 66
f 16 66 57
f 16 57 56
f 16 56 55
f 16 55 54
f 16 54 52
f 16 52 40
f 16 40 28
f 17 29 43
f 17 43 30
f 17 30 31
f 17 31 18
f 20 24 21
f 20 23 24
f 22 32 23
f 23 34 35
f 23 35 24
f 23 32 36
f 23 36 51
f 23 51 63
f 23 63 49
f 23 49 33
f 24 35 25
f 25 35 34
f 25 34 37
f 25 37 38
f 25 38 26
f 26 38 39
f 26 39 27
f 28 40 41
f 29 42 43
f 30 43 47
f 30 47 44
f 30 44 31
f 31 45 46
f 31 44 47
f 31 47 48
f 31 48 45
f 33 49 50
f 40 52 42
f 40 42 53
f 40 53 41
f 42 52 54
f 42 54 43
f 43 54 55
f 43 55 56
f 43 56 57
f 43 57 47
f 45 58 46
f 45 48 58
f 46 59 60
f 46 58 61
f 46 61 59
f 47 57 62
f 47 62 48
f 48 62 58
f 49 63 50
f 50 63 64
f 51 65 64
f 51 64 63
f 57 66 62
f 58 62 66
f 58 66 67
f 58 67 68
f 58 68 61
f 59 64 69
f 59 69 60
f 64 65 70
f 64 70 69

