# https://github.com/mikedh/trimesh
v 0.01764013 -0.00917380 0.01568201
v 0.01774723 -0.00887203 0.01568201
v 0.01796510 -0.00917380 0.01534002
v 0.01775237 -0.01037669 0.01568201
v 0.01817710 -0.00816837 0.01568201
v 0.02346026 0.00041320 0.01434879
v 0.02356443 0.00041320 0.01374564
v 0.02373755 0.00041320 0.01299241
v 0.01856516 -0.00917380 0.01482453
v 0.01854609 -0.00998175 0.01481031
v 0.01813896 -0.01037808 0.01535818
v 0.01813309 -0.01088983 0.01568201
v 0.02344999 0.00041320 0.01568201
v 0.02345953 0.00041320 0.01442041
v 0.02499342 0.00041320 0.01299241
v 0.02353729 -0.00263784 0.01299241
v 0.02349474 -0.00329561 0.01299241
v 0.02341772 -0.01037391 0.01299241
v 0.02346687 -0.01107896 0.01299241
v 0.02352849 -0.01157402 0.01299241
v 0.02383438 -0.01379346 0.01299241
v 0.02148476 -0.01379346 0.01567911
v 0.02151337 -0.01379346 0.01568201
v 0.02478876 0.00041320 0.01568201
v 0.02483570 -0.00077301 0.01568201
v 0.02503817 -0.00077579 0.01299241
v 0.02506898 -0.01379346 0.01299241
v 0.02452467 -0.01379346 0.01568201
v 0.02495014 -0.00675827 0.01568201
v 0.02496995 -0.00677357 0.01552483
v 0.02513353 -0.01277413 0.01299241
v 0.02504550 -0.01379346 0.01414397
v 0.02456502 -0.01379346 0.01564120
v 0.02483790 -0.01379346 0.01536292
v 0.02487898 -0.01379346 0.01521917
v 0.02502130 -0.01379346 0.01432510
f 1 2 3
f 1 3 4
f 1 4 12
f 1 12 23
f 1 23 28
f 1 28 29
f 1 29 25
f 1 25 24
f 1 24 13
f 1 13 5
f 1 5 2
f 2 5 6
f 2 6 7
f 2 7 8
f 2 8 3
f 3 9 10
f 3 10 4
f 3 8 9
f 4 10 11
f 4 11 12
f 5 13 14
f 5 14 6
f 6 14 13
f 6 13 24
f 6 24 15
f 6 15 8
f 6 8 7
f 8 15 26
f 8 26 31
f 8 31 27
f 8 27 21
f 8 21 20
f 8 20 19
f 8 19 18
f 8 18 17
f 8 17 16
f 8 16 10
f 8 10 9
f 10 16 17
f 10 17 18
f 10 18 19
f 10 19 20
f 10 20 21
f 10 21 11
f 11 21 12
f 12 21 22
f 12 22 23
f 15 24 25
f 15 25 26
f 21 27 32
f 21 32 36
f 21 36 35
f 21 35 34
f 21 34 33
f 21 33 28
f 21 28 23
f 21 23 22
f 25 29 30
f 25 30 26
f 26 30 31
f 27 31 32
f 28 33 29
f 29 33 34
f 29 34 35
f 29 35 36
f 29 36 32
f 29 32 30
f 30 32 31

