# https://github.com/mikedh/trimesh
v 0.03205950 -0.04079612 0.00472463
v 0.03205950 -0.04074823 0.00413760
v 0.03252833 -0.04071139 0.00472463
v 0.03374550 -0.04047747 0.00594202
v 0.03205950 -0.04073349 0.00594202
v 0.03205950 -0.04039642 0.00294557
v 0.03372835 -0.04038353 0.00472463
v 0.03492838 -0.04024907 0.00592468
v 0.03492838 -0.04025091 0.00594202
v 0.03205950 -0.03670521 0.00594202
v 0.03205950 -0.04025644 0.00266345
v 0.03444539 -0.03983464 0.00401564
v 0.03487844 -0.03995989 0.00478978
v 0.03559100 -0.03981622 0.00523302
v 0.03573113 -0.03991384 0.00592468
v 0.03573336 -0.03991568 0.00594202
v 0.03494179 -0.04024539 0.00594202
v 0.03438725 -0.02198087 0.00594202
v 0.03205950 -0.02716957 0.00474164
v 0.03447222 -0.03874238 0.00266345
v 0.03454899 -0.03878658 0.00274209
v 0.03205950 -0.02614731 0.00266345
v 0.03524590 -0.03959150 0.00443320
v 0.03489707 -0.03918812 0.00356277
v 0.03606207 -0.03913287 0.00481289
v 0.03680966 -0.03867607 0.00519290
v 0.03633039 -0.03942205 0.00592468
v 0.03633263 -0.03942389 0.00594202
v 0.03936921 -0.02198087 0.00594202
v 0.03386103 -0.02198087 0.00352490
v 0.03205950 -0.02640149 0.00433403
v 0.03205950 -0.02652306 0.00442261
v 0.03458328 -0.03861344 0.00266345
v 0.03934908 -0.03274323 0.00266345
v 0.03573485 -0.03879027 0.00391005
v 0.03205950 -0.02616388 0.00351912
v 0.03376935 -0.02198087 0.00278445
v 0.03378873 -0.02198087 0.00266345
v 0.03753712 -0.03788957 0.00594202
v 0.03711972 -0.03855450 0.00594202
v 0.03694382 -0.03882158 0.00592468
v 0.03694680 -0.03882342 0.00594202
v 0.03937368 -0.02198087 0.00592468
v 0.03950859 -0.03077606 0.00594202
v 0.03956375 -0.03225696 0.00266345
v 0.03959729 -0.02198087 0.00266345
v 0.03758855 -0.03776800 0.00594202
v 0.03949890 -0.02198087 0.00472463
v 0.03928946 -0.03176517 0.00594202
v 0.03961518 -0.03195857 0.00266345
v 0.03956896 -0.02957512 0.00472463
v 0.03967331 -0.02357598 0.00266345
v 0.03788521 -0.03705333 0.00594202
v 0.03961369 -0.02209139 0.00266345
v 0.03965542 -0.02237505 0.00266345
f 1 2 3
f 1 3 4
f 1 4 5
f 1 5 10
f 1 10 19
f 1 19 32
f 1 32 31
f 1 31 36
f 1 36 22
f 1 22 11
f 1 11 6
f 1 6 2
f 2 6 7
f 2 7 8
f 2 8 3
f 3 8 9
f 3 9 4
f 4 9 17
f 4 17 16
f 4 16 28
f 4 28 42
f 4 42 40
f 4 40 39
f 4 39 47
f 4 47 53
f 4 53 49
f 4 49 44
f 4 44 29
f 4 29 18
f 4 18 10
f 4 10 5
f 6 11 12
f 6 12 13
f 6 13 7
f 7 13 14
f 7 14 8
f 8 14 15
f 8 15 16
f 8 16 17
f 8 17 9
f 10 18 19
f 11 20 21
f 11 21 12
f 11 22 38
f 11 38 46
f 11 46 54
f 11 54 55
f 11 55 52
f 11 52 50
f 11 50 45
f 11 45 34
f 11 34 33
f 11 33 20
f 12 23 14
f 12 14 13
f 12 21 24
f 12 24 23
f 14 23 25
f 14 25 26
f 14 26 27
f 14 27 15
f 15 27 28
f 15 28 16
f 18 29 43
f 18 43 48
f 18 48 46
f 18 46 38
f 18 38 37
f 18 37 30
f 18 30 31
f 18 31 32
f 18 32 19
f 20 33 21
f 21 33 34
f 21 34 35
f 21 35 24
f 22 36 37
f 22 37 38
f 23 24 35
f 23 35 25
f 25 35 26
f 26 39 40
f 26 40 41
f 26 41 27
f 26 35 34
f 26 34 39
f 27 41 42
f 27 42 28
f 29 44 43
f 30 37 36
f 30 36 31
f 34 45 39
f 39 45 47
f 40 42 41
f 43 44 48
f 44 49 45
f 44 45 50
f 44 50 51
f 44 51 52
f 44 52 48
f 45 53 47
f 45 49 53
f 46 48 54
f 48 52 55
f 48 55 54
f 50 52 51

