# https://github.com/mikedh/trimesh
v -0.01515431 0.04456290 -0.01480475
v -0.01188833 0.04411137 -0.01480475
v -0.01067125 0.04401980 -0.01458315
v -0.01067125 0.04446028 -0.01398314
v -0.01515431 0.04485813 -0.01449109
v -0.01515431 0.05680474 -0.01480475
v -0.01067517 0.04395823 -0.01480475
v -0.00707227 0.04432766 -0.01391361
v -0.00855574 0.04384456 -0.01480475
v -0.00734520 0.04379088 -0.01480475
v -0.00707227 0.04394402 -0.01451362
v -0.01067125 0.04506022 -0.01381678
v -0.01141691 0.04511231 -0.01383519
v -0.01515431 0.04615273 -0.01376718
v -0.01515431 0.04562226 -0.01396105
v -0.01515431 0.04507442 -0.01433752
v -0.01515431 0.05922500 -0.01442200
v -0.01067125 0.05689789 -0.01480475
v -0.00181353 0.04403401 -0.01453615
v -0.00181353 0.04486445 -0.01398011
v -0.00707227 0.04492918 -0.01377649
v -0.00709447 0.04378456 -0.01480475
v -0.00181353 0.04386824 -0.01480475
v -0.01515431 0.04722630 -0.01357136
v -0.01515431 0.05973653 -0.01416639
v -0.00947116 0.05990704 -0.01399657
v -0.00181353 0.05985652 -0.01389498
v -0.01067125 0.05922500 -0.01432192
v -0.00181353 0.05644636 -0.01480475
v -0.00258268 0.04602643 -0.01376588
v -0.00181353 0.05814354 -0.01264166
v -0.00347329 0.05735731 -0.01265141
v -0.00467208 0.05730837 -0.01263429
v -0.01515431 0.04754363 -0.01354710
v -0.01515431 0.05991335 -0.01407628
v -0.00947116 0.05990704 -0.01374746
v -0.00181353 0.05988177 -0.01327525
v -0.00232935 0.05798567 -0.01263386
v -0.00276812 0.05741099 -0.01267068
v -0.00181353 0.05849403 -0.01263234
v -0.00347329 0.05802513 -0.01259205
v -0.00467208 0.05802513 -0.01260245
v -0.00559533 0.05734468 -0.01264816
v -0.01515431 0.05682526 -0.01324037
v -0.01515431 0.05991335 -0.01378277
v -0.00181353 0.05986757 -0.01275040
v -0.00181353 0.05926921 -0.01262650
v -0.00231890 0.05930079 -0.01262411
v -0.00347329 0.05899450 -0.01261588
v -0.00554963 0.05802513 -0.01265184
v -0.00467208 0.05876242 -0.01264339
v -0.00531849 0.05864244 -0.01267133
v -0.01515431 0.05714260 -0.01324666
v -0.00194934 0.05985809 -0.01265422
v -0.01515431 0.05922500 -0.01351742
v -0.00181353 0.05985809 -0.01265400
v -0.00181353 0.05952813 -0.01263559
v -0.01515431 0.05802513 -0.01328002
f 1 2 3
f 1 3 4
f 1 4 5
f 1 5 16
f 1 16 15
f 1 15 14
f 1 14 24
f 1 24 34
f 1 34 44
f 1 44 53
f 1 53 58
f 1 58 55
f 1 55 45
f 1 45 35
f 1 35 25
f 1 25 17
f 1 17 6
f 1 6 18
f 1 18 29
f 1 29 23
f 1 23 22
f 1 22 10
f 1 10 9
f 1 9 7
f 1 7 2
f 2 7 3
f 3 8 4
f 3 7 9
f 3 9 10
f 3 10 11
f 3 11 8
f 4 8 12
f 4 12 13
f 4 13 14
f 4 14 15
f 4 15 16
f 4 16 5
f 6 17 18
f 8 11 19
f 8 19 20
f 8 20 21
f 8 21 12
f 10 22 11
f 11 22 23
f 11 23 19
f 12 21 24
f 12 24 14
f 12 14 13
f 17 25 26
f 17 26 27
f 17 27 28
f 17 28 29
f 17 29 18
f 19 23 29
f 19 29 27
f 19 27 37
f 19 37 46
f 19 46 56
f 19 56 57
f 19 57 47
f 19 47 40
f 19 40 31
f 19 31 20
f 20 30 21
f 20 31 30
f 21 30 32
f 21 32 33
f 21 33 24
f 24 33 34
f 25 35 26
f 26 35 45
f 26 45 36
f 26 36 37
f 26 37 27
f 27 29 28
f 30 31 38
f 30 38 39
f 30 39 32
f 31 40 41
f 31 41 38
f 32 39 38
f 32 38 41
f 32 41 33
f 33 41 42
f 33 42 43
f 33 43 34
f 34 43 44
f 36 45 46
f 36 46 37
f 40 47 41
f 41 47 48
f 41 48 49
f 41 49 42
f 42 50 43
f 42 49 51
f 42 51 52
f 42 52 50
f 43 50 44
f 44 50 53
f 45 54 46
f 45 55 54
f 46 54 56
f 47 57 48
f 48 57 54
f 48 54 49
f 49 54 51
f 50 58 53
f 50 52 58
f 51 54 58
f 51 58 52
f 54 57 56
f 54 55 58

