# https://github.com/mikedh/trimesh
v -0.00181353 0.02884377 -0.01945457
v -0.00181353 0.02266037 -0.01945457
v -0.00181353 0.02884377 -0.02146708
v -0.01668135 0.02884377 -0.01921594
v -0.01187258 0.01602676 -0.01945979
v -0.00227473 0.02082634 -0.01961620
v -0.00181353 0.02013309 -0.01982675
v -0.01668135 0.02048768 -0.01921594
v -0.01677315 0.02041730 -0.01921594
v -0.01906824 0.01868419 -0.01921594
v -0.02360596 0.01527774 -0.01921594
v -0.00181353 0.02861136 -0.02157657
v -0.02414367 0.02684771 -0.02279177
v -0.02414367 0.02758345 -0.02240916
v -0.02147043 0.02884377 -0.02142216
v -0.02414367 0.02884377 -0.01921594
v -0.01262231 0.01527774 -0.01951633
v -0.01191848 0.01527774 -0.01957730
v -0.00227473 0.02003880 -0.01977582
v -0.00181353 0.01527774 -0.02081335
v -0.02414367 0.01527774 -0.01921594
v -0.00181353 0.02802304 -0.02181479
v -0.02414367 0.02570028 -0.02317960
v -0.02414367 0.02818240 -0.02192829
v -0.02267044 0.02884377 -0.02139890
v -0.02414367 0.02884377 -0.02127177
v -0.00181353 0.01527774 -0.02231211
v -0.02414367 0.01527774 -0.02157617
v -0.00181353 0.01570006 -0.02231010
v -0.02414367 0.02481713 -0.02331315
v -0.02414367 0.02542006 -0.02325700
v -0.02414367 0.02879729 -0.02132831
v -0.02316443 0.02884377 -0.02135879
v -0.00227473 0.01527774 -0.02234018
v -0.02414367 0.01630831 -0.02188538
v -0.02392509 0.01527774 -0.02167042
v -0.02414367 0.02442402 -0.02330673
v -0.00277746 0.01527774 -0.02234219
v -0.02414367 0.02349173 -0.02318361
v -0.02312072 0.01527774 -0.02197281
v -0.00865290 0.01527774 -0.02229406
v -0.02267044 0.01527774 -0.02206867
f 1 2 7
f 1 7 20
f 1 20 27
f 1 27 29
f 1 29 22
f 1 22 12
f 1 12 3
f 1 3 15
f 1 15 25
f 1 25 33
f 1 33 26
f 1 26 16
f 1 16 4
f 1 4 8
f 1 8 2
f 2 5 6
f 2 6 7
f 2 8 9
f 2 9 10
f 2 10 11
f 2 11 5
f 3 12 13
f 3 13 14
f 3 14 15
f 4 16 21
f 4 21 11
f 4 11 10
f 4 10 9
f 4 9 8
f 5 17 18
f 5 18 6
f 5 11 17
f 6 19 7
f 6 18 19
f 7 19 20
f 11 21 28
f 11 28 36
f 11 36 40
f 11 40 42
f 11 42 41
f 11 41 38
f 11 38 34
f 11 34 27
f 11 27 20
f 11 20 18
f 11 18 17
f 12 22 13
f 13 23 31
f 13 31 30
f 13 30 37
f 13 37 39
f 13 39 35
f 13 35 28
f 13 28 21
f 13 21 16
f 13 16 26
f 13 26 32
f 13 32 24
f 13 24 14
f 13 22 23
f 14 24 15
f 15 24 25
f 18 20 19
f 22 29 30
f 22 30 31
f 22 31 23
f 24 32 25
f 25 32 33
f 26 33 32
f 27 34 29
f 28 35 36
f 29 34 30
f 30 34 37
f 34 38 37
f 35 39 40
f 35 40 36
f 37 38 41
f 37 41 39
f 39 41 42
f 39 42 40

