# https://github.com/mikedh/trimesh
v -0.01378962 -0.02288916 0.01752344
v -0.01378962 -0.02284944 0.01746846
v -0.01360719 -0.02279979 0.01752344
v -0.01378962 -0.01611845 0.01752344
v -0.01378962 -0.02227961 0.01712887
v -0.01307187 -0.02205504 0.01718330
v -0.01241731 -0.02182283 0.01729019
v -0.01307187 -0.02246217 0.01752344
v -0.01372644 -0.01611769 0.01752344
v -0.01378962 -0.01550050 0.01643058
v -0.01378962 -0.02151882 0.01673232
v -0.01047954 -0.01777981 0.01568201
v -0.01230065 -0.02196567 0.01752344
v -0.01307187 -0.01616581 0.01752344
v -0.01307187 -0.01552036 0.01644194
v -0.01378962 -0.01508650 0.01568201
v -0.01378962 -0.01933652 0.01568201
v -0.01047954 -0.01855893 0.01752344
v -0.01047954 -0.01602679 0.01568201
v -0.01047954 -0.01657446 0.01752344
v -0.01228769 -0.01555244 0.01628548
v -0.01307187 -0.01520795 0.01568201
v -0.01208970 -0.01545696 0.01568201
v -0.01047954 -0.01628879 0.01672475
f 1 2 3
f 1 3 8
f 1 8 13
f 1 13 18
f 1 18 20
f 1 20 14
f 1 14 9
f 1 9 4
f 1 4 10
f 1 10 16
f 1 16 17
f 1 17 11
f 1 11 5
f 1 5 2
f 2 5 6
f 2 6 7
f 2 7 3
f 3 7 8
f 4 9 10
f 5 11 6
f 6 11 12
f 6 12 7
f 7 13 8
f 7 12 13
f 9 14 15
f 9 15 10
f 10 15 16
f 11 17 12
f 12 18 13
f 12 17 16
f 12 16 22
f 12 22 23
f 12 23 19
f 12 19 24
f 12 24 20
f 12 20 18
f 14 20 15
f 15 21 16
f 15 20 21
f 16 21 22
f 19 23 24
f 20 24 21
f 21 24 23
f 21 23 22

