# https://github.com/mikedh/trimesh
v -0.01376486 -0.02216458 0.01752344
v -0.01268780 -0.02216458 0.01752344
v -0.01376486 -0.02216458 0.02157042
v -0.01376486 -0.01611831 0.01752344
v -0.01230060 -0.02196519 0.01752344
v -0.01213796 -0.02216458 0.01784839
v -0.01228229 -0.02216458 0.02097497
v -0.01209326 -0.02200656 0.02116254
v -0.01376486 -0.02205471 0.02167548
v -0.01376486 -0.01525427 0.02186858
v -0.00963381 -0.01523596 0.01752344
v -0.01114976 -0.02194552 0.01837026
v -0.01172437 -0.02216458 0.01815972
v -0.00826325 -0.01780571 0.01752344
v -0.01189993 -0.02216458 0.02073168
v -0.01129301 -0.02172103 0.02090011
v -0.01200225 -0.02104689 0.02186858
v -0.01314878 -0.02156504 0.02186858
v -0.01376486 -0.02144907 0.02186858
v -0.00944855 -0.01523596 0.02186858
v -0.00957026 -0.01523596 0.02026339
v -0.00962196 -0.01523596 0.01905164
v -0.00963165 -0.01523596 0.01783605
v -0.00826325 -0.01523596 0.01752344
v -0.01106306 -0.02206217 0.01912522
v -0.01120685 -0.02216458 0.01911671
v -0.00826325 -0.01790337 0.01798151
v -0.01167052 -0.02216458 0.02052369
v -0.01111530 -0.02198689 0.02010007
v -0.00826325 -0.01748830 0.02186858
v -0.00826325 -0.01523596 0.02186858
v -0.00826325 -0.01798747 0.01912522
v -0.00826325 -0.01796712 0.01937956
v -0.01132694 -0.02216458 0.01984998
v -0.01151596 -0.02216458 0.02030380
v -0.00826325 -0.01779689 0.02038419
v -0.00826325 -0.01757172 0.02155384
f 1 2 6
f 1 6 13
f 1 13 26
f 1 26 34
f 1 34 35
f 1 35 28
f 1 28 15
f 1 15 7
f 1 7 3
f 1 3 9
f 1 9 19
f 1 19 10
f 1 10 4
f 1 4 11
f 1 11 24
f 1 24 14
f 1 14 5
f 1 5 2
f 2 5 6
f 3 7 8
f 3 8 9
f 4 10 11
f 5 12 13
f 5 13 6
f 5 14 12
f 7 15 8
f 8 16 17
f 8 17 18
f 8 18 9
f 8 15 16
f 9 18 19
f 10 20 21
f 10 21 22
f 10 22 23
f 10 23 11
f 10 19 18
f 10 18 17
f 10 17 30
f 10 30 31
f 10 31 20
f 11 23 22
f 11 22 21
f 11 21 20
f 11 20 31
f 11 31 24
f 12 25 26
f 12 26 13
f 12 14 25
f 14 24 31
f 14 31 30
f 14 30 37
f 14 37 36
f 14 36 33
f 14 33 32
f 14 32 27
f 14 27 25
f 15 28 16
f 16 28 29
f 16 29 30
f 16 30 17
f 25 29 26
f 25 27 32
f 25 32 33
f 25 33 29
f 26 29 34
f 28 35 29
f 29 35 34
f 29 33 36
f 29 36 37
f 29 37 30

