# https://github.com/mikedh/trimesh
v -0.00560301 0.01002777 0.03683497
v -0.00560301 0.01013630 0.03683287
v -0.00569652 0.01002777 0.03680183
v -0.00560301 0.00895045 0.03682761
v -0.00560301 0.01122421 0.03679446
v -0.01040302 0.00762695 0.03400288
v -0.01040302 -0.00107899 0.03398867
v -0.00570967 0.00882604 0.03678868
v -0.00566221 0.01122421 0.03677237
v -0.01040302 0.01242330 0.03393869
v -0.00560301 0.00882604 0.03682656
v -0.00560301 0.01129568 0.03678868
v -0.01040302 -0.00228073 0.03395816
v -0.00571343 0.00762695 0.03676553
v -0.00560301 0.00762695 0.03680551
v -0.00560301 0.01194155 0.03671818
v -0.00560301 0.01242330 0.03665925
v -0.01040302 0.02453857 0.03241453
v -0.01040302 -0.00250308 0.03394606
v -0.00565282 0.00642787 0.03669713
v -0.00560301 0.00648875 0.03671976
v -0.00560301 0.01350856 0.03645670
v -0.00560301 0.01986399 0.03423542
v -0.00560301 0.02017104 0.03409600
v -0.00560301 0.02053632 0.03390344
v -0.00560301 0.02453857 0.03157274
v -0.01040302 0.02453857 0.03146068
v -0.00560301 0.01387914 0.03636410
v -0.00560301 0.01482412 0.03610630
v -0.01040302 -0.00250308 0.03146068
v -0.00814516 -0.00250308 0.03456688
v -0.00560301 0.00642787 0.03671292
v -0.00560301 0.02453857 0.03146068
v -0.00898205 -0.00250308 0.03146068
v -0.00719361 -0.00250308 0.03456688
v -0.00560301 0.00622934 0.03666872
v -0.00560301 0.01945106 0.03146068
v -0.00719361 -0.00250308 0.03365354
v -0.00560301 0.00552260 0.03611156
v -0.00560301 0.00568142 0.03641882
v -0.00560301 0.00642787 0.03543024
v -0.00560301 0.00552260 0.03601423
f 1 2 3
f 1 3 4
f 1 4 11
f 1 11 15
f 1 15 21
f 1 21 32
f 1 32 36
f 1 36 40
f 1 40 39
f 1 39 42
f 1 42 41
f 1 41 37
f 1 37 33
f 1 33 26
f 1 26 25
f 1 25 24
f 1 24 23
f 1 23 29
f 1 29 28
f 1 28 22
f 1 22 17
f 1 17 16
f 1 16 12
f 1 12 5
f 1 5 2
f 2 5 3
f 3 6 7
f 3 7 8
f 3 8 4
f 3 5 9
f 3 9 10
f 3 10 6
f 4 8 11
f 5 12 9
f 6 10 18
f 6 18 27
f 6 27 30
f 6 30 19
f 6 19 13
f 6 13 7
f 7 13 14
f 7 14 8
f 8 14 15
f 8 15 11
f 9 12 16
f 9 16 17
f 9 17 10
f 10 17 18
f 13 19 14
f 14 20 21
f 14 21 15
f 14 19 20
f 17 22 18
f 18 23 24
f 18 24 25
f 18 25 26
f 18 26 33
f 18 33 27
f 18 22 28
f 18 28 29
f 18 29 23
f 19 30 34
f 19 34 38
f 19 38 35
f 19 35 31
f 19 31 32
f 19 32 20
f 20 32 21
f 27 33 37
f 27 37 34
f 27 34 30
f 31 35 36
f 31 36 32
f 34 37 38
f 35 38 42
f 35 42 39
f 35 39 40
f 35 40 36
f 37 41 38
f 38 41 42

