# https://github.com/mikedh/trimesh
v -0.02341683 -0.01379267 0.01502172
v -0.02341683 -0.01379267 0.01568201
v -0.02341683 -0.01377289 0.01499750
v -0.01805440 -0.01379267 0.01299241
v -0.01631727 -0.01379267 0.01568201
v -0.02341683 -0.00572356 0.01568201
v -0.02341683 -0.01348013 0.01476319
v -0.01627252 -0.01379267 0.01299241
v -0.02341683 -0.01276168 0.01430272
v -0.02341683 -0.01157402 0.01394678
v -0.02341683 -0.01037450 0.01388465
v -0.01759215 -0.01301171 0.01299241
v -0.01627252 -0.01379267 0.01565489
v -0.01627252 -0.01167926 0.01568201
v -0.02341264 -0.00571169 0.01568201
v -0.02341683 -0.00571011 0.01568069
v -0.01627252 -0.01245943 0.01299241
v -0.02341683 -0.00916468 0.01414292
v -0.01668512 -0.01262005 0.01299241
v -0.01627252 -0.00964022 0.01568201
v -0.02027196 -0.00731080 0.01568201
v -0.02341683 -0.00599812 0.01548982
v -0.02341683 -0.00791847 0.01454730
v -0.02341683 -0.00727203 0.01485296
v -0.01627252 -0.01020359 0.01497617
v -0.01627252 -0.00965288 0.01566411
v -0.01627252 -0.00973438 0.01555274
f 1 2 6
f 1 6 16
f 1 16 22
f 1 22 24
f 1 24 23
f 1 23 18
f 1 18 11
f 1 11 10
f 1 10 9
f 1 9 7
f 1 7 3
f 1 3 4
f 1 4 8
f 1 8 13
f 1 13 5
f 1 5 2
f 2 5 14
f 2 14 20
f 2 20 21
f 2 21 15
f 2 15 6
f 3 7 4
f 4 7 9
f 4 9 10
f 4 10 11
f 4 11 12
f 4 12 19
f 4 19 17
f 4 17 8
f 5 13 14
f 6 15 16
f 8 17 25
f 8 25 27
f 8 27 26
f 8 26 20
f 8 20 14
f 8 14 13
f 11 18 17
f 11 17 19
f 11 19 12
f 15 21 16
f 16 21 17
f 16 17 22
f 17 18 23
f 17 23 24
f 17 24 22
f 17 21 25
f 20 26 21
f 21 26 27
f 21 27 25

