# https://github.com/mikedh/trimesh
v -0.00560254 0.00552332 0.03601443
v -0.00457515 0.00525887 0.03146067
v -0.00400705 0.00454466 0.03146067
v -0.00350783 0.00414694 0.03146067
v -0.00560254 0.00552332 0.03611090
v -0.00560254 0.00642702 0.03543069
v -0.00497153 0.00642702 0.03146067
v -0.00346290 0.00412820 0.03146067
v -0.00560254 0.00568157 0.03641813
v 0.00036407 0.00332237 0.03668112
v -0.00522213 0.01105382 0.03146067
v -0.00560254 0.01944951 0.03146067
v -0.00236064 0.00412820 0.03146067
v 0.00132755 0.00326615 0.03629462
v 0.00036407 0.00332237 0.03636651
v -0.00548372 0.00576278 0.03660124
v -0.00560254 0.00622921 0.03666821
v 0.00132755 0.00326615 0.03675116
v -0.00107167 0.00419900 0.03689372
v -0.00203016 0.00443846 0.03678558
v -0.00560254 0.02453649 0.03146067
v 0.00225609 0.00332028 0.03637512
v 0.00243781 0.00536507 0.03146067
v -0.00560254 0.00642702 0.03671245
v -0.00236663 0.00512353 0.03700002
v -0.00347089 0.00642702 0.03729803
v -0.00467100 0.00642702 0.03700494
v 0.00225609 0.00332028 0.03667067
v 0.00132755 0.00402617 0.03687590
v -0.00227178 0.00642702 0.03740618
v -0.00560254 0.02453649 0.03157312
v -0.00138617 0.02453649 0.03146067
v 0.00459741 0.00532967 0.03500242
v 0.00459741 0.00519432 0.03588724
v 0.00362793 0.00649782 0.03146067
v -0.00467100 0.00762849 0.03714196
v -0.00560254 0.00648741 0.03671921
v -0.00347089 0.00762849 0.03745103
v -0.00227178 0.00762849 0.03758069
v -0.00288182 0.00903610 0.03772693
v 0.00346619 0.00430103 0.03663380
v 0.00260454 0.00395121 0.03673580
v -0.00156689 0.00931304 0.03773676
v -0.00227178 0.00844682 0.03769682
v -0.00384031 0.02453649 0.03200201
v -0.00560254 0.02053646 0.03390376
v -0.00020004 0.02291232 0.03146067
v -0.00174561 0.02453649 0.03173103
v 0.00459741 0.01382948 0.03509458
v 0.00459741 0.01429174 0.03472775
v -0.00028391 0.02282278 0.03191722
v 0.00398138 0.00762641 0.03146067
v 0.00459741 0.01281958 0.03146067
v 0.00459741 0.00548792 0.03624116
v -0.00560254 0.00762849 0.03680524
v -0.00467100 0.00882788 0.03715671
v -0.00560254 0.00882788 0.03682613
v -0.00227178 0.00904651 0.03773491
v -0.00290079 0.01002726 0.03773184
v 0.00436677 0.00566908 0.03653733
v 0.00380965 0.00525263 0.03665039
v 0.00012744 0.01002726 0.03747561
v -0.00156689 0.00974615 0.03773676
v -0.00222685 0.01009806 0.03773799
v -0.00338103 0.02453649 0.03210524
v -0.00560254 0.02017206 0.03409670
v -0.00531199 0.02024077 0.03413480
v 0.00459741 0.01501012 0.03265580
v 0.00459741 0.01497889 0.03232583
v 0.00459741 0.01479565 0.03146067
v 0.00459741 0.01477899 0.03387120
v 0.00459741 0.01489143 0.03352587
v -0.00225680 0.02453649 0.03198235
v 0.00412016 0.01406686 0.03522546
v 0.00457644 0.01326935 0.03544790
v 0.00459741 0.01328809 0.03542393
v 0.00459741 0.01447498 0.03449426
v 0.00459741 0.00601474 0.03641936
v -0.00467100 0.01002726 0.03716838
v -0.00560254 0.01002726 0.03683535
v -0.00290179 0.01080603 0.03773184
v 0.00436677 0.00592728 0.03653733
v 0.00252667 0.01002726 0.03700617
v 0.00132755 0.01002726 0.03724703
v -0.00039274 0.01005641 0.03755303
v 0.00132755 0.01122665 0.03725134
v -0.00112858 0.01009806 0.03766179
v -0.00179653 0.01054783 0.03771464
v -0.00259627 0.01080603 0.03773184
v -0.00319333 0.02453649 0.03209541
v -0.00467100 0.02030741 0.03417167
v -0.00375445 0.02031782 0.03417843
v -0.00236463 0.01590758 0.03627742
v -0.00560254 0.01986388 0.03423618
v -0.00411687 0.01544740 0.03653672
v -0.00236763 0.02453649 0.03201737
v 0.00216024 0.01319439 0.03663503
v 0.00459741 0.01322562 0.03545589
v 0.00295998 0.01277793 0.03644209
v 0.00459741 0.00614384 0.03641936
v -0.00467100 0.01122665 0.03714135
v -0.00560254 0.01013762 0.03683227
v -0.00227178 0.01362750 0.03715794
v -0.00347089 0.01362750 0.03711308
v -0.00347089 0.01242811 0.03732937
v -0.00467100 0.01242811 0.03704180
v 0.00459741 0.01002726 0.03626267
v 0.00422999 0.01002726 0.03643472
v 0.00362993 0.01002726 0.03670508
v 0.00252667 0.01122665 0.03695762
v 0.00132755 0.01242811 0.03710448
v 0.00012744 0.01242811 0.03724888
v -0.00107167 0.01362750 0.03710632
v -0.00347089 0.01544740 0.03653610
v -0.00282691 0.01543074 0.03652689
v -0.00202716 0.01537660 0.03649002
v -0.00560254 0.01482272 0.03610598
v -0.00498052 0.01482272 0.03638495
v -0.00438146 0.01482272 0.03664917
v -0.00347089 0.01482272 0.03676960
v -0.00107167 0.01522668 0.03641813
v 0.00132755 0.01343801 0.03676038
v 0.00254664 0.01239688 0.03673457
v 0.00459741 0.01242603 0.03577110
v 0.00322457 0.01197626 0.03656806
v -0.00560254 0.01129953 0.03678865
v -0.00560254 0.01122665 0.03679418
v -0.00236463 0.01491642 0.03671614
v -0.00477184 0.01370454 0.03679602
v -0.00556160 0.01242811 0.03668112
v 0.00459741 0.01065819 0.03616006
v 0.00341227 0.01122665 0.03664732
v 0.00022329 0.01373578 0.03684518
v -0.00107167 0.01462699 0.03670385
v -0.00560254 0.01388362 0.03636344
v -0.00523811 0.01415431 0.03648019
v -0.00039274 0.01447290 0.03663442
v -0.00011318 0.01440835 0.03660554
v 0.00459741 0.01122665 0.03606481
v -0.00560254 0.01194711 0.03671737
v -0.00541383 0.01335680 0.03658956
v -0.00560254 0.01242811 0.03665900
v -0.00560254 0.01351089 0.03645684
f 1 2 3
f 1 3 4
f 1 4 5
f 1 5 9
f 1 9 17
f 1 17 24
f 1 24 37
f 1 37 55
f 1 55 57
f 1 57 80
f 1 80 102
f 1 102 127
f 1 127 126
f 1 126 140
f 1 140 142
f 1 142 143
f 1 143 135
f 1 135 117
f 1 117 94
f 1 94 66
f 1 66 46
f 1 46 31
f 1 31 21
f 1 21 12
f 1 12 6
f 1 6 7
f 1 7 2
f 2 7 11
f 2 11 12
f 2 12 21
f 2 21 32
f 2 32 47
f 2 47 70
f 2 70 53
f 2 53 52
f 2 52 35
f 2 35 23
f 2 23 13
f 2 13 8
f 2 8 4
f 2 4 3
f 4 8 5
f 5 8 10
f 5 10 9
f 6 11 7
f 6 12 11
f 8 13 14
f 8 14 15
f 8 15 10
f 9 16 17
f 9 10 16
f 10 15 14
f 10 14 18
f 10 18 19
f 10 19 20
f 10 20 16
f 13 22 14
f 13 23 22
f 14 22 28
f 14 28 18
f 16 24 17
f 16 20 19
f 16 19 25
f 16 25 26
f 16 26 27
f 16 27 24
f 18 28 29
f 18 29 30
f 18 30 19
f 19 30 26
f 19 26 25
f 21 31 45
f 21 45 65
f 21 65 90
f 21 90 96
f 21 96 73
f 21 73 48
f 21 48 32
f 22 23 33
f 22 33 34
f 22 34 28
f 23 35 33
f 24 27 36
f 24 36 37
f 26 38 27
f 26 30 39
f 26 39 40
f 26 40 38
f 27 38 36
f 28 34 41
f 28 41 42
f 28 42 29
f 29 42 43
f 29 43 44
f 29 44 39
f 29 39 30
f 31 46 45
f 32 48 49
f 32 49 50
f 32 50 51
f 32 51 47
f 33 35 52
f 33 52 53
f 33 53 70
f 33 70 69
f 33 69 68
f 33 68 72
f 33 72 71
f 33 71 77
f 33 77 50
f 33 50 49
f 33 49 76
f 33 76 98
f 33 98 124
f 33 124 139
f 33 139 131
f 33 131 107
f 33 107 100
f 33 100 78
f 33 78 54
f 33 54 34
f 34 54 41
f 36 55 37
f 36 38 40
f 36 40 56
f 36 56 57
f 36 57 55
f 39 44 40
f 40 44 58
f 40 58 59
f 40 59 56
f 41 54 60
f 41 60 61
f 41 61 43
f 41 43 42
f 43 62 63
f 43 63 64
f 43 64 58
f 43 58 44
f 43 61 62
f 45 46 65
f 46 66 67
f 46 67 65
f 47 68 69
f 47 69 70
f 47 51 71
f 47 71 72
f 47 72 68
f 48 73 74
f 48 74 49
f 49 74 75
f 49 75 76
f 50 77 51
f 51 77 71
f 54 78 60
f 56 59 79
f 56 79 57
f 57 79 80
f 58 64 59
f 59 64 81
f 59 81 79
f 60 78 100
f 60 100 82
f 60 82 83
f 60 83 61
f 61 83 84
f 61 84 62
f 62 85 63
f 62 84 86
f 62 86 85
f 63 85 87
f 63 87 88
f 63 88 89
f 63 89 64
f 64 89 81
f 65 67 91
f 65 91 92
f 65 92 93
f 65 93 90
f 66 94 67
f 67 94 95
f 67 95 91
f 73 96 97
f 73 97 74
f 74 97 75
f 75 98 76
f 75 97 99
f 75 99 98
f 79 81 101
f 79 101 80
f 80 101 102
f 81 89 103
f 81 103 104
f 81 104 105
f 81 105 106
f 81 106 101
f 82 100 107
f 82 107 108
f 82 108 109
f 82 109 83
f 83 109 110
f 83 110 86
f 83 86 84
f 85 86 87
f 86 110 111
f 86 111 88
f 86 88 87
f 88 111 112
f 88 112 89
f 89 112 113
f 89 113 103
f 90 93 96
f 91 95 92
f 92 95 114
f 92 114 115
f 92 115 93
f 93 115 116
f 93 116 96
f 94 117 118
f 94 118 95
f 95 118 119
f 95 119 104
f 95 104 120
f 95 120 114
f 96 116 121
f 96 121 122
f 96 122 97
f 97 122 111
f 97 111 123
f 97 123 99
f 98 99 124
f 99 123 125
f 99 125 124
f 101 106 126
f 101 126 127
f 101 127 102
f 103 113 128
f 103 128 120
f 103 120 104
f 104 129 105
f 104 119 129
f 105 129 106
f 106 130 126
f 106 129 130
f 107 131 132
f 107 132 108
f 108 132 109
f 109 132 110
f 110 132 123
f 110 123 111
f 111 122 113
f 111 113 112
f 113 122 133
f 113 133 134
f 113 134 128
f 114 120 128
f 114 128 115
f 115 128 116
f 116 128 134
f 116 134 121
f 117 135 136
f 117 136 118
f 118 136 119
f 119 136 129
f 121 134 137
f 121 137 138
f 121 138 122
f 122 138 137
f 122 137 134
f 122 134 133
f 123 132 125
f 124 125 139
f 125 132 139
f 126 130 140
f 129 136 141
f 129 141 130
f 130 142 140
f 130 141 142
f 131 139 132
f 135 143 136
f 136 143 141
f 141 143 142

