# https://github.com/mikedh/trimesh
v 0.01086112 -0.02597471 0.04312381
v 0.01085120 -0.02559712 0.04154630
v 0.01085451 -0.02559712 0.04274650
v 0.01084680 -0.02559712 0.04312381
v 0.01082146 -0.02559712 0.04414032
v 0.01083248 -0.02597471 0.04414032
v 0.01062209 -0.02678071 0.04414032
v 0.01059014 -0.02688436 0.04312381
v 0.01078511 -0.02597471 0.03146191
v 0.01081375 -0.02559712 0.03146191
v 0.00937957 -0.02559712 0.04414032
v 0.01058023 -0.02692063 0.04414032
v 0.01051083 -0.02676101 0.03146191
v 0.01071572 -0.02618349 0.03146191
v -0.00039091 -0.02559712 0.03146191
v -0.00039091 -0.02631364 0.04414032
v -0.00039091 -0.02559712 0.03435008
v 0.00972765 -0.02737407 0.04414032
v 0.00972765 -0.02714320 0.03472491
v 0.00972765 -0.02700494 0.03146191
v -0.00039091 -0.02698543 0.03146191
v -0.00039091 -0.02736799 0.04414032
v 0.00954260 -0.02738438 0.04414032
v 0.00852700 -0.02727410 0.03472491
v 0.00852700 -0.02705594 0.03146191
v 0.00852700 -0.02722274 0.03352595
v 0.00252812 -0.02703035 0.03146191
v -0.00039091 -0.02727318 0.03592511
v 0.00234417 -0.02747275 0.04414032
v 0.00852700 -0.02741236 0.04414032
v 0.00852700 -0.02740334 0.04312381
v 0.00354372 -0.02746888 0.04414032
v 0.00252812 -0.02747772 0.04414032
f 1 2 3
f 1 3 4
f 1 4 5
f 1 5 6
f 1 6 7
f 1 7 8
f 1 8 9
f 1 9 10
f 1 10 2
f 2 10 15
f 2 15 17
f 2 17 11
f 2 11 5
f 2 5 4
f 2 4 3
f 5 11 16
f 5 16 22
f 5 22 29
f 5 29 33
f 5 33 32
f 5 32 30
f 5 30 23
f 5 23 18
f 5 18 12
f 5 12 7
f 5 7 6
f 7 12 8
f 8 12 13
f 8 13 14
f 8 14 9
f 9 14 13
f 9 13 20
f 9 20 25
f 9 25 27
f 9 27 21
f 9 21 15
f 9 15 10
f 11 17 16
f 12 18 13
f 13 19 20
f 13 18 19
f 15 21 28
f 15 28 22
f 15 22 16
f 15 16 17
f 18 23 24
f 18 24 19
f 19 24 20
f 20 24 26
f 20 26 25
f 21 27 28
f 22 28 29
f 23 30 31
f 23 31 24
f 24 28 26
f 24 31 32
f 24 32 33
f 24 33 28
f 25 26 27
f 26 28 27
f 28 33 29
f 30 32 31

