# https://github.com/mikedh/trimesh
v -0.00862472 -0.02412655 -0.01619870
v -0.00862472 -0.02412655 -0.01649808
v -0.00924362 -0.02412655 -0.01619870
v -0.01260862 -0.02597468 -0.01574869
v -0.00227239 -0.02597468 -0.01580819
v -0.00227239 -0.02515038 -0.01610870
v -0.00016226 -0.02538630 -0.01627628
v -0.00016226 -0.02513267 -0.01681403
v -0.00227239 -0.02487624 -0.01687542
v -0.01044245 -0.02506087 -0.01959584
v -0.00924362 -0.02412655 -0.01649808
v -0.00016226 -0.02519980 -0.01768996
v -0.01260862 -0.02452564 -0.01684190
v -0.01260862 -0.02499280 -0.01601832
v -0.01260862 -0.02561941 -0.01583568
v -0.01260862 -0.02674768 -0.01589405
v -0.01027189 -0.03365066 -0.01622092
v -0.01024386 -0.03365066 -0.01621866
v -0.00347244 -0.03365066 -0.01592192
v -0.00016226 -0.03365066 -0.01609778
v -0.00016226 -0.02613133 -0.01598481
v -0.00016226 -0.02591873 -0.01598368
v -0.01067150 -0.02506460 -0.01959584
v -0.00016226 -0.02600638 -0.01959584
v -0.01260862 -0.02486319 -0.01803792
v -0.01260862 -0.03365066 -0.01720304
v -0.00016226 -0.03365066 -0.01916164
v -0.01151823 -0.02521379 -0.01959584
v -0.00016226 -0.03182491 -0.01959584
v -0.01260862 -0.02542919 -0.01959584
v -0.01260862 -0.03365066 -0.01926670
v -0.00016226 -0.03197410 -0.01956345
v -0.00107235 -0.03365066 -0.01950320
v -0.00227239 -0.03365066 -0.01957625
v -0.00585426 -0.03365066 -0.01959584
v -0.01260862 -0.03084862 -0.01959584
v -0.00590299 -0.03365066 -0.01959584
f 1 2 11
f 1 11 3
f 1 3 4
f 1 4 5
f 1 5 6
f 1 6 7
f 1 7 8
f 1 8 9
f 1 9 2
f 2 10 11
f 2 9 12
f 2 12 10
f 3 11 13
f 3 13 14
f 3 14 15
f 3 15 4
f 4 15 14
f 4 14 13
f 4 13 25
f 4 25 30
f 4 30 36
f 4 36 31
f 4 31 26
f 4 26 16
f 4 16 17
f 4 17 18
f 4 18 19
f 4 19 5
f 5 19 20
f 5 20 21
f 5 21 22
f 5 22 6
f 6 22 7
f 7 22 21
f 7 21 20
f 7 20 27
f 7 27 32
f 7 32 29
f 7 29 24
f 7 24 12
f 7 12 8
f 8 12 9
f 10 23 11
f 10 12 24
f 10 24 29
f 10 29 35
f 10 35 37
f 10 37 36
f 10 36 30
f 10 30 28
f 10 28 23
f 11 23 13
f 13 23 25
f 16 26 17
f 17 26 31
f 17 31 37
f 17 37 35
f 17 35 34
f 17 34 33
f 17 33 27
f 17 27 20
f 17 20 19
f 17 19 18
f 23 28 25
f 25 28 30
f 27 33 32
f 29 32 33
f 29 33 34
f 29 34 35
f 31 36 37

