# https://github.com/mikedh/trimesh
v -0.00228223 -0.01712793 0.01974883
v 0.00372779 -0.01773781 0.01974883
v 0.00729780 -0.01750000 0.02186858
v -0.00228223 -0.01650996 0.02186588
v -0.00228223 -0.00370092 0.01974883
v 0.00729780 -0.01781384 0.01974883
v -0.00227192 -0.01650835 0.02186858
v 0.00729780 -0.00446286 0.02186858
v -0.00228223 -0.01649702 0.02186858
v -0.00228223 -0.00342429 0.02011755
v -0.00227567 -0.00329811 0.01974883
v 0.00729780 -0.00436742 0.01974883
v 0.00729780 -0.00439168 0.02041758
v 0.00322235 -0.00128891 0.01974883
v 0.00321109 -0.00130023 0.01976439
v -0.00228223 -0.00342914 0.02186858
v -0.00228223 -0.00338385 0.02153493
v 0.00306480 -0.00129053 0.01974883
v 0.00309106 -0.00128891 0.01974883
v 0.00307606 -0.00130023 0.01976439
f 1 2 3
f 1 3 4
f 1 4 9
f 1 9 16
f 1 16 17
f 1 17 10
f 1 10 5
f 1 5 11
f 1 11 18
f 1 18 19
f 1 19 14
f 1 14 12
f 1 12 6
f 1 6 2
f 2 6 3
f 3 7 4
f 3 6 12
f 3 12 13
f 3 13 8
f 3 8 16
f 3 16 9
f 3 9 7
f 4 7 9
f 5 10 11
f 8 13 14
f 8 14 15
f 8 15 16
f 10 17 11
f 11 17 18
f 12 14 13
f 14 19 20
f 14 20 15
f 15 20 16
f 16 20 18
f 16 18 17
f 18 20 19

